<?xml version="1.0" encoding="utf-8"?>
<!-- Generator: Adobe Illustrator 17.1.0, SVG Export Plug-In . SVG Version: 6.00 Build 0)  -->
<!DOCTYPE svg PUBLIC "-//W3C//DTD SVG 1.1//EN" "http://www.w3.org/Graphics/SVG/1.1/DTD/svg11.dtd">
<svg version="1.1" id="Capa_1" xmlns="http://www.w3.org/2000/svg" xmlns:xlink="http://www.w3.org/1999/xlink" x="0px" y="0px"
	 viewBox="0 0 800 800" enable-background="new 0 0 800 800" xml:space="preserve">
<path fill="#FFFFFF" d="M711.1,593.4h-3V55.8c11.7-3.5,20.3-14.4,20.3-27.3c0-15.7-12.8-28.5-28.5-28.5s-28.5,12.8-28.5,28.5
	c0,12.9,8.6,23.8,20.3,27.3v11H547.5c-8.4-0.4-32.4-3.6-44.7-14c-25-21-58.7-25.5-101.4-25.7c-0.1,0-0.1,0-0.2,0c-0.4,0-0.7,0-1.1,0
	c-0.4,0-0.7,0-1.1,0c-0.1,0-0.1,0-0.2,0c-42.8,0.2-76.5,4.8-101.4,25.7c-14.4,12.1-42.5,13.9-44.7,14H108.4v-11
	c11.7-3.5,20.3-14.4,20.3-27.3c0-15.7-12.8-28.5-28.5-28.5S71.7,12.8,71.7,28.5c0,12.9,8.6,23.8,20.3,27.3v537.6h-3
	c-19.3,0-34.5,22.6-34.5,51.4v147c0,4.5,3.7,8.2,8.2,8.2s8.2-3.7,8.2-8.2v-34.3h658.2v34.3c0,4.5,3.7,8.2,8.2,8.2
	c4.5,0,8.2-3.7,8.2-8.2v-147C745.6,615.9,730.4,593.4,711.1,593.4z M711.1,609.8c8.5,0,18,14.3,18,34.9v63.9H708v-98.8L711.1,609.8
	L711.1,609.8z M108.4,708.6V190h143.2c-6.2,3.8-11.4,10.2-12.8,20l-80,43.4c-3.8,1.8-28.4,14.6-29.3,50.1
	c-0.3,10.9,3.5,51.9,3.7,53.7c0.2,2.5,1.6,4.7,3.6,6.1c2.1,1.4,4.6,1.8,7,1l20.6-6.3v126.8c0,2.7,1.3,5.3,3.6,6.8
	c1,0.7,24.7,16.5,78.6,16.5c53.9,0,77.6-15.8,78.6-16.5c2.2-1.5,3.6-4.1,3.6-6.8V358l20.6,6.3c2.4,0.7,4.9,0.4,7-1
	c2.1-1.4,3.4-3.6,3.6-6.1c0.2-1.7,4-42.8,3.7-53.7c-0.9-35.5-25.5-48.3-29.3-50.1l-78.8-42.7c1.9-7.5,8.4-8.6,11.4-8.6
	c4.5,0,8.2-3.7,8.2-8.2V190h195.3c-6.2,3.8-11.4,10.2-12.8,20l-80.3,43.5c-3.3,1.8-5,5.6-4.1,9.2c0.9,3.6,4.2,6.2,8,6.2h16.7v280.4
	c0,4.5,3.7,8.2,8.2,8.2h62.4c-3,23.6-4.8,50.9-4.8,82.3c0,4.5,3.7,8.2,8.2,8.2h98.8h98.8c4.5,0,8.2-3.7,8.2-8.2
	c0-146.3-39.2-202.6-56-220c37.6-40.8,31.7-99.4,31.4-102c-0.5-4.2-4-7.3-8.2-7.3c-10,0-12.4-6.4-13-8.9v-32.7h22.8
	c3.8,0,7-2.6,8-6.2c0.9-3.6-0.7-7.5-4.1-9.2l-79.1-42.9c1.9-7.5,8.4-8.6,11.4-8.6c4.5,0,8.2-3.7,8.2-8.2V190h92.5v518.6L108.4,708.6
	L108.4,708.6z M691.6,173.6h-92.5c-0.6-14.1-12.2-25.3-26.5-25.3c-14.2,0-25.8,11.3-26.5,25.3h-52.4c-0.6-14.1-12.2-25.3-26.5-25.3
	s-25.8,11.3-26.5,25.3H275c-0.6-14.1-12.2-25.3-26.5-25.3c-14.2,0-25.8,11.3-26.5,25.3H108.4v-35.2h583.2V173.6z M605,427.1
	c0.6,0.4,54.4,39.8,56.1,204.6h-90.5h-90.5c1.7-164.8,55.5-204.2,56-204.6c2.1-1.4,3.5-3.7,3.6-6.2c0.2-2.5-0.8-5-2.6-6.7
	c-30.8-28.2-33.2-71.7-32.9-88c14.7-3.3,20.5-15.6,21.5-22.6c0.1-0.4,0.1-2.6,0.1-2.6c9.5,10.4,23.8,18.2,44.8,18.2
	s35.3-7.8,44.8-18.2c0,0,0,2.2,0.1,2.6c1,7,6.7,19.3,21.5,22.6c0.3,16.3-1.9,59.7-32.9,88c-1.8,1.7-2.8,4.1-2.6,6.6
	C601.7,423.3,603,425.6,605,427.1z M413.6,252.6l51.6-28l35.4,19.2l-16.2,8.8L413.6,252.6L413.6,252.6z M414.3,269.1h95.1v32.6
	c-0.6,2.6-3,8.9-13,8.9c-4.2,0-7.7,3.2-8.2,7.3c-0.3,2.6-6.2,61.2,31.4,102c-12.3,12.8-36.7,46.4-48.8,121.2h-56.5L414.3,269.1
	L414.3,269.1z M608.7,282.4c-7.7,13.5-20.5,20.4-38,20.4c-17.6,0-30.4-6.9-38-20.4c-2.7-4.7-4.3-9.5-5.3-13.3h86.6
	C612.9,272.9,611.3,277.7,608.7,282.4z M551.4,252.6l-16.2-8.8l35.4-19.2l51.6,28H551.4z M562.9,210.1l-45,24.4l-43.8-23.7
	c1.9-7.5,8.4-8.6,11.4-8.6c4.5,0,8.2-3.7,8.2-8.2V190h81.9C569.5,193.8,564.3,200.2,562.9,210.1z M457.2,173.6c0.6-5,4.8-8.9,10-8.9
	c5.2,0,9.4,3.9,10,8.9H457.2z M562.6,173.6c0.6-5,4.8-8.9,10-8.9c5.2,0,9.4,3.9,10,8.9H562.6z M258.5,173.6h-20
	c0.6-5,4.8-8.9,10-8.9C253.7,164.7,257.9,168.6,258.5,173.6z M327.3,268.4c0.8,0.3,19.2,8.9,19.8,35.6c0.2,6.4-1.5,27.3-2.7,41.6
	l-21.5-6.6c-2.5-0.8-5.2-0.3-7.3,1.2c-2.1,1.6-3.3,4-3.3,6.6v133c-7.9,3.8-28.8,11.7-65.7,11.7c-36.9,0-57.9-7.9-65.7-11.7v-133
	c0-2.6-1.2-5.1-3.3-6.6c-2.1-1.6-4.8-2-7.3-1.2l-21.5,6.6c-1.2-14.4-2.9-35.2-2.7-41.6c0.7-26.7,19-35.2,19.7-35.6
	c0.2-0.1,21.7-11.7,21.7-11.7c1.1,7.3,3.9,16.3,10.7,24.2c10.3,12.1,26.6,18.2,48.4,18.2c21.8,0,38.1-6.1,48.4-18.2
	c6.7-7.9,9.6-16.8,10.7-24.2C305.7,256.7,327.2,268.3,327.3,268.4z M283.3,269.1c-0.3,0.4-5.1,13.5-36.8,13.5
	c-31.7,0-36.5-13.1-36.8-13.5H283.3z M289.9,248.1c0,1.3-0.1,2.8-0.3,4.5h-86.1c-0.2-1.7-0.3-3.3-0.3-4.5l43.3-23.5L289.9,248.1z
	 M687.7,28.5c0-6.7,5.4-12.1,12.1-12.1s12.1,5.4,12.1,12.1s-5.4,12.1-12.1,12.1S687.7,35.2,687.7,28.5z M660.6,83.2h31V122h-33.4
	c4.5-6.1,7-13.4,7-21.1C665.2,94.6,663.6,88.6,660.6,83.2z M546.9,83.2c0.1,0,60,0,60,0c-1.5,3.3-2.3,6.9-2.3,10.6
	c0,6.9,2.7,13.4,7.5,18.2c3.2,3.2,8.4,3.2,11.6,0c3.2-3.2,3.2-8.4,0-11.6c-1.8-1.8-2.7-4.1-2.7-6.6c0-2.5,1-4.8,2.7-6.6
	c2.6-2.6,6-4,9.7-4c3.7,0,7.1,1.4,9.7,4c3.6,3.6,5.6,8.4,5.6,13.6c0,5.1-2,9.9-5.6,13.6c-4.3,4.3-12.6,7.1-22.2,7.6h-21
	c-17.6-0.7-53.8-5.1-72.3-28.8c-4.6-5.9-9.3-11.4-14.1-16.3C529.8,82.4,545.9,83.2,546.9,83.2z M452,60.1
	c18.2,0,41.6,16.1,62.6,43.1c6.1,7.9,13.6,14,21.7,18.7h-67.4c6.5-9.2,6.3-20.9-1.1-28.9c-3.1-3.3-8.3-3.5-11.6-0.5
	c-3.3,3.1-3.5,8.3-0.5,11.6c2.9,3.1,0.7,7.5-1.4,9.6c-1.8,1.8-8.6,7.1-18.6-2.1c-13.2-12-15.8-26-7-38.5c6.1-8.7,13.5-13,22.6-13.2
	C451.5,60.1,451.8,60.1,452,60.1z M400,43.5c14.2,0,27.3,0.5,39.2,2c-9.4,2.9-17.6,9.1-24.1,18.3C402,82.5,405,104.6,422.5,122
	h-45.1c17.6-17.4,20.5-39.4,7.4-58.1c-6.5-9.2-14.7-15.4-24.1-18.3C372.7,44.1,385.8,43.6,400,43.5z M348.7,60.1
	c9.2,0.2,16.6,4.5,22.6,13.2c8.7,12.5,6.2,26.5-7,38.5c-10.1,9.2-16.8,3.9-18.6,2.1c-2.2-2.2-4.3-6.5-1.4-9.6
	c3.1-3.3,2.9-8.5-0.5-11.6c-3.3-3.1-8.5-2.9-11.6,0.5c-7.3,8-7.6,19.8-1.1,28.9h-67.4c8.1-4.8,15.6-10.9,21.7-18.7
	C306.7,75.8,330.4,59.7,348.7,60.1z M156.8,87.3c2.6-2.6,6-4,9.7-4c3.7,0,7.1,1.4,9.7,4c1.8,1.8,2.7,4.1,2.7,6.6
	c0,2.5-1,4.8-2.7,6.6c-3.2,3.2-3.2,8.4,0,11.6c3.2,3.2,8.4,3.2,11.6,0c4.9-4.9,7.5-11.3,7.5-18.2c0-3.7-0.8-7.3-2.3-10.6
	c0,0,59.9,0,60,0c1,0,17.1-0.8,33.4-6.4c-4.8,4.9-9.5,10.4-14.1,16.3c-18.5,23.8-54.7,28.2-72.3,28.8h-21
	c-9.6-0.5-17.9-3.3-22.2-7.6c-3.6-3.6-5.6-8.4-5.6-13.6C151.2,95.7,153.2,90.9,156.8,87.3z M139.4,83.2c-3,5.3-4.7,11.3-4.7,17.6
	c0,7.7,2.5,15,7,21.1h-33.4V83.2H139.4z M88.1,28.5c0-6.7,5.4-12.1,12.1-12.1c6.7,0,12.1,5.4,12.1,12.1s-5.4,12.1-12.1,12.1
	C93.5,40.6,88.1,35.2,88.1,28.5z M88.9,609.8h3v98.8H70.9v-63.9C70.9,624.2,80.4,609.8,88.9,609.8z M70.9,741.1v-16h658.2v16H70.9z"
	/>
</svg>
