<?xml version="1.0" encoding="utf-8"?>
<!-- Generator: Adobe Illustrator 17.1.0, SVG Export Plug-In . SVG Version: 6.00 Build 0)  -->
<!DOCTYPE svg PUBLIC "-//W3C//DTD SVG 1.1//EN" "http://www.w3.org/Graphics/SVG/1.1/DTD/svg11.dtd">
<svg version="1.1" id="Capa_1" xmlns="http://www.w3.org/2000/svg" xmlns:xlink="http://www.w3.org/1999/xlink" x="0px" y="0px"
	 viewBox="0 0 800 800" enable-background="new 0 0 800 800" xml:space="preserve">
<g>
	<g>
		<g>
			<path fill="#FFFFFF" d="M464.8,376.6c-2.7,0-5.5-1.1-7.5-3.3c-3.9-4.1-3.7-10.6,0.5-14.5l104.6-97.9c4.1-3.9,10.6-3.7,14.5,0.5
				c3.9,4.1,3.7,10.6-0.5,14.5l-104.6,97.9C469.8,375.7,467.3,376.6,464.8,376.6z"/>
		</g>
		<path fill="#FFFFFF" d="M771.1,477.8c-54-250.8-127.9-354.1-131-358.3l0,0c-1.1-1.5-2.6-2.7-4.4-3.4L523.9,69.7l-1.7-7.6
			c-0.5-2.2-1.7-4.1-3.3-5.5l-57-48.7l0,0c-1.8-1.5-4.1-2.5-6.6-2.5H344.7c-2.5,0-4.8,1-6.6,2.5l0,0l-57,48.7
			c-1.7,1.4-2.9,3.4-3.3,5.5l-1.7,7.6L164.3,116c-1.8,0.7-3.3,1.9-4.4,3.4l0,0c-3.1,4.3-77,107.5-131,358.2
			c-0.3,1.5-35,156-28,307.2c0.3,5.5,4.8,9.8,10.2,9.8h105.6c5.5,0,10-4.3,10.2-9.7c0.1-1.6,7.5-139.2,24.7-239.7
			c7.9,49,18.8,120.5,22.9,166.4c0.4,4.5,3.7,8.2,8.2,9.1c1,0.2,104.6,20.9,216.6,21.1c0,0,0,0,0,0c0.2,0,0.4,0,0.5,0s0.4,0,0.5,0
			c0,0,0,0,0,0c111.9-0.1,215.5-20.8,216.6-21.1c4.4-0.9,7.8-4.6,8.2-9.1c4.2-45.9,15-117.4,22.9-166.4
			c17.2,100.5,24.6,238,24.7,239.7c0.3,5.4,4.8,9.7,10.2,9.7h105.6c5.5,0,10-4.3,10.2-9.8C806,633.7,771.4,479.2,771.1,477.8z
			 M503,69.9l25.5,112.8l-78.3-3.6c-4.1-0.2-7.9,2.1-9.7,5.8c-1.8,3.7-1.2,8.1,1.5,11.2l54.3,63L355,373.9
			c6.3-12.9,59.9-131,62.6-137.4c43.4-104,56.3-160,56.3-191.3L503,69.9z M350,25.9h100c6,11.8,10.5,53.7-50,199.5
			C339.5,79.8,343.9,37.8,350,25.9z M297,69.9l29-24.7c0,32.9,14.2,92.8,62.8,206.6c-8.4,19.5-17,38.5-25.1,56.1l-59.9-48.7l54.3-63
			c2.7-3.1,3.2-7.5,1.5-11.2c-1.8-3.7-5.6-5.9-9.7-5.8l-78.3,3.6L297,69.9z M354.7,327c-9.4,20-18,37.5-24.7,51
			c-3.7-28.1-7.4-55-10.7-79.8L354.7,327z M306.3,201.7l20.7-0.9l-18,20.9C307.9,213.5,307,206.8,306.3,201.7z M79,774.1H69L79,737
			V774.1z M143,487C143,487,143,487.1,143,487c-22.7,85.9-33.4,245.7-35.9,287.1h-7.6V659.2c0-5.1-3.8-9.5-8.9-10.2
			c-5.1-0.7-9.9,2.5-11.2,7.5L47.8,774.1H21c-4.9-145.1,27.6-290.4,28-292c43.6-202.5,101.4-308.5,120.8-340.2
			c4.6,6.1,10.5,16,15.4,31.2c9.4,29.2,16.3,82.8-4.7,172.3L143,487z M185.8,632.7L256,429.2c1.9-5.4-1-11.2-6.3-13
			c-5.4-1.8-11.2,1-13,6.3l-57.3,166c-7.2-47.2-14.2-88.6-15.9-98.4c0,0,37-139.8,37-139.9c31.8-135.8,3.3-197.4-14.6-221l84.6-35.1
			l-21.9,97.1c-0.7,3.1,0.1,6.4,2.1,8.8c2.1,2.5,5.2,3.8,8.3,3.7l26.7-1.2c1.1,8.4,3,22.1,5.4,39.8l-9.8,11.3
			c-1.8,2.1-2.7,4.8-2.4,7.6c0.2,2.8,1.6,5.3,3.7,7.1l13.5,10.9c15.4,114.1,39.1,291.3,50.8,391c-78.7-3-137.9-11.1-157.9-14.1
			C188,648.5,186.9,640.6,185.8,632.7z M194.4,702c-0.8-7.7-1.7-16-2.7-24.6c25.1,3.6,82.9,10.8,157.6,13.6
			c1.3,11.2,2.3,21.1,3.1,29.1C278.7,716.4,215.4,705.9,194.4,702z M605.6,702c-25.5,4.6-112.7,19.2-205.6,19.2
			c-9,0-18-0.2-26.9-0.4c-0.7-8-1.8-17.8-3.1-29.3c12.2,0.3,24.8,0.5,37.8,0.5c61.7,0,130.8-3.7,200.6-14.6
			C607.3,686.1,606.4,694.3,605.6,702z M620.7,588.6l-57.3-166c-1.8-5.4-7.7-8.2-13-6.3c-5.4,1.8-8.2,7.7-6.3,13l70.3,203.5
			c-1.1,7.9-2.2,15.8-3.2,23.6c-86.1,13.9-171.6,16.5-243.4,14.7c-7.5-64.4-20.2-162.3-32.4-254.6l182.1-148
			c2.2-1.7,3.5-4.3,3.8-7.1c0.2-2.8-0.6-5.5-2.4-7.6l-45.6-53l68,3.1c3.2,0.2,6.3-1.2,8.3-3.7c2.1-2.5,2.8-5.7,2.1-8.8l-21.9-97.2
			l84.6,35.1c-17.9,23.5-46.4,85.2-14.6,221c0,0.1,37,139.9,37,139.9C634.9,500,627.9,541.4,620.7,588.6z M721,774.1V737l10,37.1
			H721z M779,774.1h-26.8l-31.6-117.5c-1.3-5-6.1-8.2-11.3-7.5c-5.1,0.7-8.9,5-8.9,10.2v114.8h-7.6c-2.5-41.4-13.2-201.1-35.9-287
			c0,0,0,0,0,0l-37.5-141.6c-30.1-128.7-3.3-184.5,10.8-203.4c19.5,31.8,77.2,137.8,120.8,340.2C751.4,483.7,783.9,629,779,774.1z"
			/>
		<path fill="#FFFFFF" d="M519.6,552H433c-5.7,0-10.3,4.6-10.3,10.3v31.6c0,4.1,2.5,7.8,6.3,9.4l43.3,18.4l0,0
			c1.3,0.5,2.6,0.8,4,0.8c1.3,0,2.7-0.3,4-0.8l43.3-18.4c3.8-1.6,6.3-5.3,6.3-9.4v-31.6C529.9,556.6,525.3,552,519.6,552z
			 M509.4,587.1l-33.1,14l-33.1-14v-14.6h66.1L509.4,587.1L509.4,587.1z"/>
	</g>
</g>
</svg>
