<?xml version="1.0" encoding="utf-8"?>
<!-- Generator: Adobe Illustrator 17.1.0, SVG Export Plug-In . SVG Version: 6.00 Build 0)  -->
<!DOCTYPE svg PUBLIC "-//W3C//DTD SVG 1.1//EN" "http://www.w3.org/Graphics/SVG/1.1/DTD/svg11.dtd">
<svg version="1.1" id="Capa_1" xmlns="http://www.w3.org/2000/svg" xmlns:xlink="http://www.w3.org/1999/xlink" x="0px" y="0px"
	 viewBox="0 0 436.3 436.3" enable-background="new 0 0 436.3 436.3" xml:space="preserve">
<g>
	<g>
		<path fill="#FFFFFF" d="M55.2,417.2h68.9l12.8,19.1H309l12.7-19.1h59.4c7.7,0,14-19.1,14-19.1H41.2
			C41.2,398,47.5,417.2,55.2,417.2z"/>
		<path fill="#FFFFFF" d="M55.2,369.3h68.9l12.8,19.1H309l12.7-19.1h59.4c7.7,0,14-19.1,14-19.1H41.2
			C41.2,350.2,47.5,369.3,55.2,369.3z"/>
		<path fill="#FFFFFF" d="M55.2,321.5h68.9l12.8,19.1H309l12.7-19.1h59.4c7.7,0,14-19.1,14-19.1H41.2
			C41.2,302.4,47.5,321.5,55.2,321.5z"/>
		<path fill="#FFFFFF" d="M55.2,273.7h68.9l12.8,19.1H309l12.7-19.1h59.4c7.7,0,14-19.1,14-19.1H267.9c48.6-19.5,82.9-67,82.9-122.5
			C350.8,59.1,291.7,0,218.7,0C145.8,0,86.7,59.1,86.7,132.1c0,55.5,34.3,103,82.9,122.5H41.2C41.2,254.6,47.5,273.7,55.2,273.7z
			 M146.4,132.1c0-39.9,32.4-72.3,72.3-72.3c39.9,0,72.3,32.4,72.3,72.3s-32.4,72.3-72.3,72.3C178.9,204.4,146.4,171.9,146.4,132.1z
			"/>
		<path fill="#FFFFFF" d="M281.5,132.1c0-34.6-28.2-62.7-62.8-62.7S156,97.5,156,132.1s28.2,62.7,62.7,62.7
			C253.3,194.8,281.5,166.7,281.5,132.1z"/>
	</g>
</g>
</svg>
