<?xml version="1.0" encoding="utf-8"?>
<!-- Generator: Adobe Illustrator 17.1.0, SVG Export Plug-In . SVG Version: 6.00 Build 0)  -->
<!DOCTYPE svg PUBLIC "-//W3C//DTD SVG 1.1//EN" "http://www.w3.org/Graphics/SVG/1.1/DTD/svg11.dtd">
<svg version="1.1" id="Capa_1" xmlns="http://www.w3.org/2000/svg" xmlns:xlink="http://www.w3.org/1999/xlink" x="0px" y="0px"
	 viewBox="0 0 800 800" enable-background="new 0 0 800 800" xml:space="preserve">
<g>
	<g>
		<g>
			<path fill="#FFFFFF" d="M713.3,0H86.7C39,0,0,39,0,86.7v626.6C0,761,39,800,86.7,800h626.6c47.8,0,86.7-39,86.7-86.7V86.7
				C800,39,761,0,713.3,0z M734.4,725.6L734.4,725.6H65.7V179.8h668.7V725.6z"/>
			<path fill="#FFFFFF" d="M335.7,498l-42.4,194.2L400,617.1l106.6,75.1l-38-196.6c46.7-24.8,79-73.4,79-129.9
				c0-81.3-66.3-147.5-147.7-147.5c-81.3,0-147.4,66.2-147.4,147.5C252.4,424,286.6,474,335.7,498z M399.8,259.2
				c58.8,0,106.7,47.8,106.7,106.5c0,58.8-47.9,106.6-106.7,106.6c-58.7,0-106.4-47.8-106.4-106.6
				C293.4,307,341.1,259.2,399.8,259.2z"/>
		</g>
	</g>
</g>
</svg>
