<?xml version="1.0" encoding="utf-8"?>
<!-- Generator: Adobe Illustrator 17.1.0, SVG Export Plug-In . SVG Version: 6.00 Build 0)  -->
<!DOCTYPE svg PUBLIC "-//W3C//DTD SVG 1.1//EN" "http://www.w3.org/Graphics/SVG/1.1/DTD/svg11.dtd">
<svg version="1.1" id="Capa_1" xmlns="http://www.w3.org/2000/svg" xmlns:xlink="http://www.w3.org/1999/xlink" x="0px" y="0px"
	 viewBox="0 0 45 45" enable-background="new 0 0 45 45" xml:space="preserve">
<g>
	<g>
		<path fill="#FFFFFF" d="M45,18.6l-0.5-1.7l-0.4-5.6c0-0.1-0.1-0.1-0.1-0.1c-0.1,0-0.1,0.1-0.1,0.1l-0.4,5.6L43,18.1l-0.4-1.2
			l-0.4-5.6c0-0.1-0.1-0.1-0.1-0.1s-0.1,0.1-0.1,0.1l-0.4,5.6L41,18.6c0,0,0,0,0,0v4.3l-2.8-2.4v-6.9c0,0,0,0,0,0l-0.5-1.7l-0.4-5.6
			c0-0.1-0.1-0.1-0.1-0.1c-0.1,0-0.1,0.1-0.1,0.1l-0.4,5.6L36,13.6c0,0,0,0,0,0v5l-3.4-3v-7c0,0,0,0,0,0l-0.5-1.7l-0.4-5.6
			c0-0.1-0.1-0.1-0.1-0.1c-0.1,0-0.1,0.1-0.1,0.1l-0.4,5.6l-0.4,1.3l-0.4-1.2l-0.4-5.6c0-0.1-0.1-0.1-0.1-0.1s-0.1,0.1-0.1,0.1
			l-0.4,5.6l-0.5,1.7c0,0,0,0,0,0v3.5l-6-5.2c-0.1,0-0.1,0-0.2,0l-6,5.2V8.7c0,0,0,0,0,0l-0.5-1.7l-0.4-5.6c0-0.1-0.1-0.1-0.1-0.1
			c-0.1,0-0.1,0.1-0.1,0.1l-0.4,5.6l-0.4,1.3l-0.4-1.2l-0.4-5.6c0-0.1-0.1-0.1-0.1-0.1c-0.1,0-0.1,0.1-0.1,0.1l-0.4,5.6l-0.5,1.7
			c0,0,0,0,0,0v7l-3.4,3v-5c0,0,0,0,0,0l-0.5-1.7L8.1,6.3C8,6.3,8,6.2,7.9,6.2c-0.1,0-0.1,0.1-0.1,0.1l-0.4,5.6l-0.5,1.7
			c0,0,0,0,0,0v6.9L4,22.9v-4.3c0,0,0,0,0,0l-0.5-1.7l-0.4-5.6c0-0.1-0.1-0.1-0.1-0.1c-0.1,0-0.1,0.1-0.1,0.1l-0.4,5.6L2,18.1
			l-0.4-1.2l-0.4-5.6c0-0.1-0.1-0.1-0.1-0.1c-0.1,0-0.1,0.1-0.1,0.1l-0.4,5.6L0,18.6c0,0,0,0,0,0v25c0,0.1,0.1,0.1,0.1,0.1h4.2v-4
			c0,0,0,0,0,0c0,0,0.3-1.1,1.7-1.1c1.3,0,1.7,1.1,1.7,1.1c0,0,0,0,0,0v4h3.2v-4c0,0,0,0,0,0c0,0,0.3-1.1,1.7-1.1
			c1.4,0,1.7,1.1,1.7,1.1c0,0,0,0,0,0v4h5.6v-7.7c0,0,0,0,0,0c0,0,0.5-1.8,2.7-1.8c2.2,0,2.7,1.8,2.7,1.8c0,0,0,0,0,0v7.7h5.6v-4
			c0,0,0,0,0,0c0,0,0.3-1.1,1.7-1.1c1.3,0,1.7,1.1,1.7,1.1c0,0,0,0,0,0v4h3.8v-4c0,0,0,0,0,0c0,0,0.3-1.1,1.7-1.1
			c1.4,0,1.7,1.1,1.7,1.1c0,0,0,0,0,0v4h3.6c0.1,0,0.1-0.1,0.1-0.1L45,18.6C45,18.6,45,18.6,45,18.6z M7.7,34.8
			c0,0.1-0.1,0.1-0.1,0.1H4.5c-0.1,0-0.1-0.1-0.1-0.1V31c0,0,0,0,0,0c0,0,0.3-1.1,1.7-1.1c1.3,0,1.7,1.1,1.7,1.1c0,0,0,0,0,0
			L7.7,34.8L7.7,34.8z M14.3,34.8c0,0.1-0.1,0.1-0.1,0.1H11c-0.1,0-0.1-0.1-0.1-0.1V31c0,0,0,0,0,0c0,0,0.3-1.1,1.7-1.1
			c1.4,0,1.7,1.1,1.7,1.1c0,0,0,0,0,0L14.3,34.8L14.3,34.8z M14.3,26c0,0.1-0.1,0.1-0.1,0.1H11c-0.1,0-0.1-0.1-0.1-0.1v-3.8
			c0,0,0,0,0,0c0,0,0.3-1.1,1.7-1.1c1.4,0,1.7,1.1,1.7,1.1c0,0,0,0,0,0L14.3,26L14.3,26z M24.5,30.2c0,0.1-0.1,0.1-0.1,0.1h-3.7
			c-0.1,0-0.1-0.1-0.1-0.1v-4.6c0,0,0,0,0,0c0,0,0.4-1.4,2-1.4c1.6,0,2,1.4,2,1.4c0,0,0,0,0,0L24.5,30.2L24.5,30.2z M24.5,19.5
			c0,0.1-0.1,0.1-0.1,0.1h-3.7c-0.1,0-0.1-0.1-0.1-0.1v-4.6c0,0,0,0,0,0c0,0,0.4-1.4,2-1.4c1.6,0,2,1.4,2,1.4c0,0,0,0,0,0V19.5
			L24.5,19.5z M34.1,34.8c0,0.1-0.1,0.1-0.1,0.1h-3.1c-0.1,0-0.1-0.1-0.1-0.1V31c0,0,0,0,0,0c0,0,0.3-1.1,1.7-1.1
			c1.4,0,1.7,1.1,1.7,1.1c0,0,0,0,0,0V34.8L34.1,34.8z M34.1,26c0,0.1-0.1,0.1-0.1,0.1h-3.1c-0.1,0-0.1-0.1-0.1-0.1v-3.8
			c0,0,0,0,0,0c0,0,0.3-1.1,1.7-1.1s1.7,1.1,1.7,1.1c0,0,0,0,0,0L34.1,26L34.1,26z M41.3,34.8c0,0.1-0.1,0.1-0.1,0.1h-3.1
			c-0.1,0-0.1-0.1-0.1-0.1V31c0,0,0,0,0,0c0,0,0.3-1.1,1.7-1.1c1.4,0,1.7,1.1,1.7,1.1c0,0,0,0,0,0C41.3,31,41.3,34.8,41.3,34.8z"/>
	</g>
</g>
</svg>
