<?xml version="1.0" encoding="utf-8"?>
<!-- Generator: Adobe Illustrator 17.1.0, SVG Export Plug-In . SVG Version: 6.00 Build 0)  -->
<!DOCTYPE svg PUBLIC "-//W3C//DTD SVG 1.1//EN" "http://www.w3.org/Graphics/SVG/1.1/DTD/svg11.dtd">
<svg version="1.1" id="Capa_1" xmlns="http://www.w3.org/2000/svg" xmlns:xlink="http://www.w3.org/1999/xlink" x="0px" y="0px"
	 viewBox="0 0 800 800" enable-background="new 0 0 800 800" xml:space="preserve">
<g>
	<g>
		<circle fill="#FFFFFF" cx="163" cy="514.2" r="49.2"/>
		<path fill="#FFFFFF" d="M354.1,514.2c0,27.2,22.1,49.2,49.2,49.2c27.1,0,49.2-22,49.2-49.2c0-27.2-22.1-49.2-49.2-49.2
			C376.2,465.1,354.1,487,354.1,514.2z"/>
		<path fill="#FFFFFF" d="M594.5,508c0,27.1,22.1,49.1,49.3,49.1c27.1,0,49.2-22.1,49.2-49.1c0-27.2-22.1-49.3-49.2-49.3
			C616.6,458.8,594.5,480.8,594.5,508z"/>
		<path fill="#FFFFFF" d="M757.8,679.1v-52.8c-4.5-53.9-67.2-53.2-67.2-53.2H592c-70.7,1.4-68.1,53.2-68.1,53.2v52.8h-6.5v-46.5
			c-4.5-53.9-67.1-53.2-67.1-53.2h-98.7c-70.7,1.4-68.2,53.2-68.2,53.2V679h-6.2v-46.5c-4.5-53.9-67.1-53.2-67.1-53.2h-98.7
			c-70.7,1.4-68.1,53.2-68.1,53.2V679H0v70.7h800v-70.7H757.8z"/>
		<path fill="#FFFFFF" d="M389.3,164.7c-2.2-1.8-5.6-2.5-8.5-1.4c-2.9,1-4.8,3.5-4.8,6.2V281c0,2.7,1.9,5.2,4.8,6.2
			c2.9,1,6.2,0.5,8.5-1.4l64.6-55.8c3-2.6,3-6.8,0-9.4L389.3,164.7z"/>
		<path fill="#FFFFFF" d="M757.7,50.3H43v349.9h714.7V50.3z M403.3,330.1c-58,0-104.9-47-104.9-104.9c0-57.9,47-104.9,104.9-104.9
			s104.9,47,104.9,104.9S461.2,330.1,403.3,330.1z"/>
	</g>
</g>
</svg>
