<?xml version="1.0" encoding="utf-8"?>
<!-- Generator: Adobe Illustrator 17.1.0, SVG Export Plug-In . SVG Version: 6.00 Build 0)  -->
<!DOCTYPE svg PUBLIC "-//W3C//DTD SVG 1.1//EN" "http://www.w3.org/Graphics/SVG/1.1/DTD/svg11.dtd">
<svg version="1.1" id="Capa_1" xmlns="http://www.w3.org/2000/svg" xmlns:xlink="http://www.w3.org/1999/xlink" x="0px" y="0px"
	 viewBox="0 0 612 612" enable-background="new 0 0 612 612" xml:space="preserve">
<g>
	<g id="_x33__13_">
		<g>
			<path fill="#FFFFFF" d="M573.8,267.8L459,344.3c0-23.2-10.6-43.8-26.9-57.8c38.9-23.4,65.1-65.6,65.1-114.3
				c0-73.9-59.9-133.9-133.9-133.9S229.5,98.2,229.5,172.1c0,37.5,15.5,71.3,40.4,95.6h-70.2c18.3-20.3,29.8-47,29.8-76.5
				c0-63.4-51.4-114.8-114.8-114.8S0,127.9,0,191.3c0,34.6,15.6,65.2,39.8,86.3C16.2,290.5,0,315.4,0,344.3v153
				c0,42.2,34.3,76.5,76.5,76.5h306c42.2,0,76.5-34.3,76.5-76.5l114.8,76.5c21.1,0,38.3-17.1,38.3-38.3V306
				C612,284.9,594.9,267.8,573.8,267.8z M114.8,267.8c-42.2,0-76.5-34.3-76.5-76.5s34.3-76.5,76.5-76.5s76.5,34.3,76.5,76.5
				S157,267.8,114.8,267.8z M363.4,268c-52.9,0-95.8-42.9-95.8-95.8c0-52.9,42.9-95.8,95.8-95.8s95.8,42.9,95.8,95.8
				S416.3,268,363.4,268z"/>
		</g>
	</g>
</g>
</svg>
