<?xml version="1.0" encoding="utf-8"?>
<!-- Generator: Adobe Illustrator 17.1.0, SVG Export Plug-In . SVG Version: 6.00 Build 0)  -->
<!DOCTYPE svg PUBLIC "-//W3C//DTD SVG 1.1//EN" "http://www.w3.org/Graphics/SVG/1.1/DTD/svg11.dtd">
<svg version="1.1" id="Capa_1" xmlns="http://www.w3.org/2000/svg" xmlns:xlink="http://www.w3.org/1999/xlink" x="0px" y="0px"
	 viewBox="0 0 800 800" enable-background="new 0 0 800 800" xml:space="preserve">
<path id="_x30_6-Movie_Clapper" fill="#FFFFFF" d="M171.5,338.2c-1.5-12.2-5.8-23.6-12.3-33.3l585.3-195.4l-30.7-92
	c-4.5-13.4-18.9-20.6-32.3-16.1L44.8,213.9c-13.4,4.5-20.6,18.9-16.1,32.3l15.1,45.1c-15,14-24.5,33.9-24.5,56
	c0,28.6,15.8,53.6,39.2,66.7v360.5c0,14.1,11.4,25.5,25.5,25.5h671.2c14.1,0,25.5-11.4,25.5-25.5V338.2H171.5z M544.6,77.1
	l77.5-25.9l-18.6,75.4l-77.5,25.9L544.6,77.1z M353.1,141l77.5-25.9L412,190.5l-77.5,25.9L353.1,141z M95.7,386.2
	c-21.5,0-38.9-17.5-38.9-38.9s17.5-38.9,38.9-38.9c21.5,0,38.9,17.5,38.9,38.9S117.1,386.2,95.7,386.2z M161.7,204.9l77.5-25.9
	l-18.6,75.4L143,280.3L161.7,204.9z M237.8,424.4h-81.7l41.6-65.6h81.7L237.8,424.4z M399.5,358.8h81.7l-41.6,65.6H358L399.5,358.8z
	 M379.5,675.8v-173l137.8,86.5L379.5,675.8z M641.5,424.4h-81.7l41.6-65.6h81.7L641.5,424.4z"/>
</svg>
