<?xml version="1.0" encoding="utf-8"?>
<!-- Generator: Adobe Illustrator 17.1.0, SVG Export Plug-In . SVG Version: 6.00 Build 0)  -->
<!DOCTYPE svg PUBLIC "-//W3C//DTD SVG 1.1//EN" "http://www.w3.org/Graphics/SVG/1.1/DTD/svg11.dtd">
<svg version="1.1" id="Capa_1" xmlns="http://www.w3.org/2000/svg" xmlns:xlink="http://www.w3.org/1999/xlink" x="0px" y="0px"
	 viewBox="0 0 308.3 308.3" enable-background="new 0 0 308.3 308.3" xml:space="preserve">
<g>
	<path fill="#FFFFFF" d="M260.3,8.4c-1.2,0-2.3,0.7-2.8,1.7V3.2c0-1.8-1.5-3.2-3.2-3.2h-60c-1.8,0-3.2,1.5-3.2,3.2v16.7
		c0,1.8,1.4,3.2,3.2,3.2h60c1.2,0,2.3-0.7,2.8-1.7v2.3l-33.1,3.3c-1.7,0.2-2.9,1.6-2.9,3.2v13.1h-3.9c-1.8,0-3.2,1.5-3.2,3.2v22
		c0,3.3,1.6,6.2,4,8.1c-0.3,4.9-1.6,10.3-4.8,15.2c-9.6,14.5-33.5,22.1-69.3,22.1c-1.1,0-2.1,0.2-3,0.5c-11-1.2-39.2-2-58.5,16.8
		c-16.1,15.6-21.7,40.3-16.8,73.2c-11.9,3.4-20.6,14.4-20.6,27.4v13.2c0,1.8,1.4,3.2,3.2,3.2h0.4v28.9c0,1.7,0,6.8,24.9,6.8
		s24.9-5.1,24.9-6.8v-28.9h0.4c1.8,0,3.2-1.4,3.2-3.2v-13.2c0-11.6-7-21.6-16.9-26.1c0.1-0.7,0-1.5-0.1-2.2
		c-4.4-27.4-0.8-47,10.7-58.3c5.2-5,11.5-8,17.8-9.7v73v21.9v65.2c0,7,5.6,12.6,12.6,12.6c7,0,12.6-5.6,12.6-12.6v-65.2h10.1v65.2
		c0,7,5.6,12.6,12.6,12.6c7,0,12.6-5.6,12.6-12.6v-65.2v-21.9v-77.2c26.6-3.9,45.2-13.6,55.3-28.8c12.1-18.2,7.9-38.4,5.3-46.8v-9.2
		c0-1.8-1.4-3.2-3.2-3.2h-3.9V33.3l33.1-3.3c1.7-0.2,2.9-1.6,2.9-3.2V11.6C263.5,9.8,262.1,8.4,260.3,8.4z M95.3,230.1
		c-3-1.5-9.2-2.9-22-2.9s-18.9,1.4-22,2.9c0.8-9.2,7.3-16.8,16-19.3c1.8,2.6,4.7,4.2,7.9,4.2c0.5,0,1,0,1.6-0.1
		c2.2-0.4,4.1-1.5,5.5-3C89.5,215.1,94.6,222,95.3,230.1z"/>
	<circle fill="#FFFFFF" cx="143.5" cy="85.1" r="23.1"/>
</g>
</svg>
