<?xml version="1.0" encoding="utf-8"?>
<!-- Generator: Adobe Illustrator 17.1.0, SVG Export Plug-In . SVG Version: 6.00 Build 0)  -->
<!DOCTYPE svg PUBLIC "-//W3C//DTD SVG 1.1//EN" "http://www.w3.org/Graphics/SVG/1.1/DTD/svg11.dtd">
<svg version="1.1" id="Capa_1" xmlns="http://www.w3.org/2000/svg" xmlns:xlink="http://www.w3.org/1999/xlink" x="0px" y="0px"
	 viewBox="0 0 800 800" enable-background="new 0 0 800 800" xml:space="preserve">
<g>
	<path fill="#FFFFFF" d="M629.1,193.1c26.1,0,47.9,17.7,54.5,41.8h116.4v-73.6L596.3,0H0v141.3h307.7v94.4
		c21.1,7.8,36.3,27.9,36.3,51.7c0,30.5-24.7,55.2-55.2,55.2c-30.5,0-55.2-24.7-55.2-55.2c0-25.3,17.2-46.4,40.4-52.9v-61.2H0v61.4
		h143.1l0.2,45.3c23.7,5.6,41.5,26.8,41.5,52.2c0,29.7-24.1,53.8-53.8,53.8S77.3,361.7,77.3,332c0-23.2,14.8-42.8,35.5-50.3v-20H0
		v260.6h362.8l44.9-52.9c-4.8-8.2-7.7-17.5-7.7-27.7c0-30.5,24.7-55.2,55.2-55.2c30.5,0,55.2,24.7,55.2,55.2S485.7,497,455.2,497
		c-8.3,0-16.2-2-23.2-5.3l-55.4,65.2l-2-1.7H0V800H800V658.2H688.5c-6.5,23.2-27.6,40.3-52.9,40.3c-30.5,0-55.2-24.7-55.2-55.2
		c0-30.5,24.7-55.3,55.2-55.3c26.4,0,48.4,18.5,53.8,43.3H800V266.7h-117c-7.2,23-28.4,39.8-53.8,39.8c-31.3,0-56.7-25.4-56.7-56.7
		S597.8,193.1,629.1,193.1z"/>
</g>
</svg>
