<?xml version="1.0" encoding="utf-8"?>
<!-- Generator: Adobe Illustrator 17.1.0, SVG Export Plug-In . SVG Version: 6.00 Build 0)  -->
<!DOCTYPE svg PUBLIC "-//W3C//DTD SVG 1.1//EN" "http://www.w3.org/Graphics/SVG/1.1/DTD/svg11.dtd">
<svg version="1.1" id="Capa_1" xmlns="http://www.w3.org/2000/svg" xmlns:xlink="http://www.w3.org/1999/xlink" x="0px" y="0px"
	 viewBox="0 0 800 800" enable-background="new 0 0 800 800" xml:space="preserve">
<path fill="#FFFFFF" d="M656.3,435.2c-47-65.4-104.9-110.5-168.2-132.2l28.6-160c2.8-15.6-1.5-31.6-11.6-43.7
	c-6.8-8.1-15.7-13.9-25.6-16.9V17.2c0-9.5-7.7-17.2-17.2-17.2c-9.5,0-17.2,7.7-17.2,17.2v62.9h-89.8V17.2c0-9.5-7.7-17.2-17.2-17.2
	s-17.2,7.7-17.2,17.2v65.2c-9.9,3-18.8,8.8-25.6,16.9c-10.2,12.2-14.4,28.1-11.6,43.7l28.6,160c-63.3,21.7-121.3,66.8-168.2,132.2
	c-66.8,93-103.6,216.5-103.6,347.5c0,9.5,7.7,17.2,17.2,17.2h685.4c9.5,0,17.2-7.7,17.2-17.2C759.9,651.7,723.1,528.3,656.3,435.2z
	 M721.1,707.3l-4-2.2c-19.4-10.8-41.8-13.1-62.4-6.8c-9.6-107.8-37.4-206.7-79.4-280.6c-10-17.7-20.7-33.7-32-47.9
	C635.8,434.2,703.7,558.9,721.1,707.3z M349.7,334.9c-9.4,20.8-17.8,48.6-25.4,84c-15.6,72.2-26.1,170.1-29.8,277
	c-9.1,1.5-18.1,4.5-26.5,9.2c-13.9,7.7-31.1,7.7-44.8,0.1c0,0-0.1-0.1-0.2-0.1c-13.4-7.5-28.1-10.8-42.8-10.2
	c9.7-101.6,36.3-194.1,75.7-262.5C283.5,384.8,315.7,351.5,349.7,334.9z M358,426.2c21-97.4,41.8-103.5,42-103.5
	c0.2,0,21.7,6.4,43.1,108.4c15.1,72,25,168.8,28.2,274.6c-0.4-0.2-0.9-0.4-1.3-0.7c0,0-0.1-0.1-0.2-0.1
	c-24.2-13.4-54.2-13.4-78.4,0.1c-14.1,7.9-30.9,7.9-44.9,0c-5.7-3.2-11.6-5.6-17.6-7.3C332.5,592.7,342.7,496.7,358,426.2z
	 M505.9,709c-3.2-109.4-13.4-210-29.1-284.9c-7.9-37.8-16.7-67.4-26.5-89.2c34.6,16.9,67.2,50.9,95,99.8
	c40.7,71.8,67.5,169.4,75.8,276c-9.4,1-19-0.8-27.5-5.6c-24.6-13.7-54-13.7-78.6,0c0,0-0.1,0-0.1,0.1C512,706.8,509,708,505.9,709z
	 M321.4,121.4c3.7-4.4,8.8-6.8,14.6-6.8h128c5.7,0,10.9,2.4,14.6,6.8c3.7,4.4,5.1,9.9,4.1,15.5l-4.6,25.6H321.9l-4.6-25.6
	C316.3,131.3,317.8,125.8,321.4,121.4z M328,197h144l-17.3,96.9c-17.9-3.7-36.2-5.6-54.7-5.6s-36.8,1.9-54.7,5.6L328,197z
	 M256.7,369.8c-10.7,13.6-21,28.7-30.6,45.4c-43.5,75.6-72.3,178.1-81.4,289.7c-0.1,0.1-0.2,0.1-0.3,0.2c-14.1,7.9-30.9,7.9-44.9,0
	l-18.9-10.6C100.3,551.7,166.9,432.3,256.7,369.8z M74.8,765.5c0.3-11.3,0.9-22.6,1.8-33.7l6.2,3.4c24.6,13.7,54,13.7,78.6,0
	c14.1-7.9,30.9-7.9,44.8-0.1c0,0,0.1,0.1,0.2,0.1c24.2,13.5,54.3,13.5,78.6,0c14.1-7.9,30.9-7.9,44.9,0c24.6,13.7,54,13.7,78.6,0
	c13.9-7.7,31.1-7.7,44.9,0c0,0,0.1,0.1,0.2,0.1c24.6,13.7,53.9,13.6,78.4-0.1c0,0,0.1,0,0.1-0.1c14.1-7.8,30.8-7.8,44.9,0.1
	c24.6,13.7,54,13.7,78.6,0c14.1-7.9,30.9-7.9,44.9,0l24.3,13.5c0.3,5.6,0.5,11.1,0.7,16.7L74.8,765.5L74.8,765.5z"/>
</svg>
