<?xml version="1.0" encoding="utf-8"?>
<!-- Generator: Adobe Illustrator 17.1.0, SVG Export Plug-In . SVG Version: 6.00 Build 0)  -->
<!DOCTYPE svg PUBLIC "-//W3C//DTD SVG 1.1//EN" "http://www.w3.org/Graphics/SVG/1.1/DTD/svg11.dtd">
<svg version="1.1" id="Capa_1" xmlns="http://www.w3.org/2000/svg" xmlns:xlink="http://www.w3.org/1999/xlink" x="0px" y="0px"
	 viewBox="0 0 913.4 913.4" enable-background="new 0 0 913.4 913.4" xml:space="preserve">
<g>
	<g>
		<path fill="#FFFFFF" d="M160.2,752.9l-35.7,85.4c-2.3,5.4,1.7,11.3,7.6,11.3h101.8c8.6,0,16.4-5.2,19.7-13.1l34.3-82H186.4
			C177.6,754.5,168.8,753.9,160.2,752.9z"/>
		<path fill="#FFFFFF" d="M484.2,201.8v105.8h242.8c28.5,0,56.2,5.6,82.3,16.6c21.2,9,40.5,21.2,57.7,36.4V201.8
			c0-14.3-11.6-25.9-25.9-25.9H510.2C495.9,175.9,484.2,187.5,484.2,201.8z"/>
		<path fill="#FFFFFF" d="M863.7,669.8c30.8-33.3,49.7-77.8,49.7-126.7V519c0-47.1-17.5-90.2-46.4-123
			c-34.2-38.8-84.2-63.4-140-63.4H484.2h-51.7v-12.5v-12.5V115.1l110.2-0.2c5.6,12.8,18.4,21.7,33.3,21.7h91.8
			c20.1,0,36.4-16.3,36.4-36.4S688,63.8,667.9,63.8L407.2,64c-13.6,0-25,11.1-25.4,24.7c0,0.6-0.1,1.2-0.1,1.8v217.2v12.5v12.5
			H186.4C83.4,332.6,0,416.1,0,519v24.1c0,97.5,74.9,177.5,170.2,185.7c5.3,0.5,10.7,0.7,16.1,0.7h111.9h265.6
			c-0.2-3-0.3-6.1-0.3-9.2c0-20.8,4.1-41,12.1-60.1c7.8-18.4,18.9-34.9,33.1-49c14.2-14.2,30.7-25.3,49-33.1
			c19-8.1,39.3-12.1,60.1-12.1s41,4.1,60.1,12.1c18.4,7.8,34.9,18.9,49,33.1c14.2,14.2,25.3,30.7,33.1,49
			C861.4,663.4,862.6,666.6,863.7,669.8z"/>
		<path fill="#FFFFFF" d="M843.3,688.8c-14.1-56.2-64.9-97.8-125.4-97.8c-71.4,0-129.3,57.9-129.3,129.3c0,3.1,0.1,6.1,0.3,9.2
			c0.3,4.2,0.8,8.4,1.5,12.5c0.7,4.2,1.6,8.4,2.8,12.5c15,54.8,65.2,95.2,124.7,95.2c71.4,0,129.3-57.9,129.3-129.3
			c0-1.1,0-2.2,0-3.2c-0.1-5-0.5-9.8-1.2-14.6C845.3,697.8,844.4,693.2,843.3,688.8z M717.9,763c-9.6,0-18.4-3.2-25.5-8.5
			c-4.5-3.4-8.3-7.6-11.2-12.5c-2.3-3.8-3.9-8-4.9-12.5c-0.6-3-1-6-1-9.2c0-23.6,19.1-42.7,42.7-42.7s42.7,19.1,42.7,42.7
			c0,2.1-0.2,4.2-0.5,6.2c-0.7,4.7-2.2,9.2-4.3,13.3c-2.8,5.4-6.7,10.1-11.5,13.9C737.1,759.5,727.9,763,717.9,763z"/>
	</g>
</g>
</svg>
