<?xml version="1.0" encoding="utf-8"?>
<!-- Generator: Adobe Illustrator 17.1.0, SVG Export Plug-In . SVG Version: 6.00 Build 0)  -->
<!DOCTYPE svg PUBLIC "-//W3C//DTD SVG 1.1//EN" "http://www.w3.org/Graphics/SVG/1.1/DTD/svg11.dtd">
<svg version="1.1" id="Capa_1" xmlns="http://www.w3.org/2000/svg" xmlns:xlink="http://www.w3.org/1999/xlink" x="0px" y="0px"
	 viewBox="0 0 800 800" enable-background="new 0 0 800 800" xml:space="preserve">
<g>
	<g>
		<path fill="#FFFFFF" d="M124.4,346.3h58.5v374h87.8V400h86.2v320.3h87.8V400h86.2v320.3h87.8v-374h56.9c8.7,0,15.7-2.4,21.1-7.3
			c5.4-4.9,8.1-11.1,8.1-18.7c0-8.7-3.8-15.7-11.4-21.1v-1.6h-1.6L415.4,154.5v-42.3c16.3,7.6,40.9,8.7,74,3.3
			c33.1-5.4,61.5-3.8,85.4,4.9V27.6c-22.8-8.7-51.2-10.3-85.4-4.9c-34.1,5.4-58.8,4.3-74-3.3V13c0-8.7-4.9-13-14.6-13
			c-9.8,0-14.6,4.3-14.6,13v141.5L109.8,297.6h-1.6v1.6c-8.7,5.4-13,12.5-13,21.1c0,7.6,3,13.8,8.9,18.7S116.8,346.3,124.4,346.3z"
			/>
		<polygon fill="#FFFFFF" points="153.7,746.3 95.1,800 704.9,800 648,746.3 		"/>
	</g>
</g>
</svg>
