<?xml version="1.0" encoding="utf-8"?>
<!-- Generator: Adobe Illustrator 17.1.0, SVG Export Plug-In . SVG Version: 6.00 Build 0)  -->
<!DOCTYPE svg PUBLIC "-//W3C//DTD SVG 1.1//EN" "http://www.w3.org/Graphics/SVG/1.1/DTD/svg11.dtd">
<svg version="1.1" id="Capa_1" xmlns="http://www.w3.org/2000/svg" xmlns:xlink="http://www.w3.org/1999/xlink" x="0px" y="0px"
	 viewBox="0 0 800 800" enable-background="new 0 0 800 800" xml:space="preserve">
<g>
	<g>
		<g>
			<polygon fill="#FFFFFF" points="627.9,0 122,138.7 679.1,138.7 			"/>
			<polygon fill="#FFFFFF" points="627.9,0 122,138.7 679.1,138.7 			"/>
		</g>
		<g>
			<path fill="#FFFFFF" d="M576.6,377.8c-28.2,0-53.3,26.9-53.3,55.1v119.5c0,28.2,25.1,47.4,53.3,47.4h211.3v-222H576.6z
				 M619.3,531.1c-21.2,0-38.4-17.2-38.4-38.4c0-21.2,17.2-38.4,38.4-38.4c21.2,0,38.4,17.2,38.4,38.4
				C657.7,513.9,640.5,531.1,619.3,531.1z"/>
			<path fill="#FFFFFF" d="M576.6,377.8c-28.2,0-53.3,26.9-53.3,55.1v119.5c0,28.2,25.1,47.4,53.3,47.4h211.3v-222H576.6z
				 M619.3,531.1c-21.2,0-38.4-17.2-38.4-38.4c0-21.2,17.2-38.4,38.4-38.4c21.2,0,38.4,17.2,38.4,38.4
				C657.7,513.9,640.5,531.1,619.3,531.1z"/>
		</g>
		<g>
			<path fill="#FFFFFF" d="M711.1,646.7c0,4.7-3.8,8.5-8.5,8.5c-4.7,0-8.5-3.8-8.5-8.5v-17.1H575.5c-47.1,0-86.4-34.4-86.4-81.5
				V428.6c0-47.1,39.3-89.3,86.4-89.3H694v-8.5c0-4.7,3.8-8.5,8.5-8.5c4.7,0,8.5,3.8,8.5,8.5v8.5h43.7V228
				c0-28.2-23.1-51.2-51.2-51.2H63.3c-25.4,0-46.6,18.7-50.5,43h15.3c4.7,0,8.5,3.8,8.5,8.5s-3.8,8.5-8.5,8.5h-16v503.7h7.5
				c4.7,0,8.5,3.8,8.5,8.5c0,4.7-3.8,8.5-8.5,8.5h-6.7c4.2,24,25.3,42.3,50.4,42.3h640.3c28.2,0,51.2-23.1,51.2-51.2V629.6h-43.7
				V646.7z M676.9,219.8h34.1V254c0,4.7-3.8,8.5-8.5,8.5c-4.7,0-8.5-3.8-8.5-8.5v-17.1h-17.1c-4.7,0-8.5-3.8-8.5-8.5
				C668.4,223.7,672.2,219.8,676.9,219.8z M566,219.8h59.8c4.7,0,8.5,3.8,8.5,8.5s-3.8,8.5-8.5,8.5H566c-4.7,0-8.5-3.8-8.5-8.5
				C557.4,223.7,561.2,219.8,566,219.8z M446.4,219.8h59.8c4.7,0,8.5,3.8,8.5,8.5s-3.8,8.5-8.5,8.5h-59.8c-4.7,0-8.5-3.8-8.5-8.5
				C437.9,223.7,441.7,219.8,446.4,219.8z M139.1,757.7H79.3c-4.7,0-8.5-3.8-8.5-8.5c0-4.7,3.8-8.5,8.5-8.5h59.8
				c4.7,0,8.5,3.8,8.5,8.5C147.6,753.8,143.8,757.7,139.1,757.7z M147.6,236.9H87.9c-4.7,0-8.5-3.8-8.5-8.5c0-4.7,3.8-8.5,8.5-8.5
				h59.8c4.7,0,8.5,3.8,8.5,8.5C156.2,233.1,152.4,236.9,147.6,236.9z M258.6,757.7h-59.8c-4.7,0-8.5-3.8-8.5-8.5
				c0-4.7,3.8-8.5,8.5-8.5h59.8c4.7,0,8.5,3.8,8.5,8.5C267.2,753.8,263.3,757.7,258.6,757.7z M267.2,236.9h-59.8
				c-4.7,0-8.5-3.8-8.5-8.5c0-4.7,3.8-8.5,8.5-8.5h59.8c4.7,0,8.5,3.8,8.5,8.5C275.7,233.1,271.9,236.9,267.2,236.9z M378.1,757.7
				h-59.8c-4.7,0-8.5-3.8-8.5-8.5c0-4.7,3.8-8.5,8.5-8.5h59.8c4.7,0,8.5,3.8,8.5,8.5C386.7,753.8,382.9,757.7,378.1,757.7z
				 M386.7,236.9h-59.8c-4.7,0-8.5-3.8-8.5-8.5c0-4.7,3.8-8.5,8.5-8.5h59.8c4.7,0,8.5,3.8,8.5,8.5
				C395.2,233.1,391.4,236.9,386.7,236.9z M497.7,757.7h-59.8c-4.7,0-8.5-3.8-8.5-8.5c0-4.7,3.8-8.5,8.5-8.5h59.8
				c4.7,0,8.5,3.8,8.5,8.5C506.2,753.8,502.4,757.7,497.7,757.7z M617.2,757.7h-59.8c-4.7,0-8.5-3.8-8.5-8.5c0-4.7,3.8-8.5,8.5-8.5
				h59.8c4.7,0,8.5,3.8,8.5,8.5C625.7,753.8,621.9,757.7,617.2,757.7z M711.1,757.7h-34.1c-4.7,0-8.5-3.8-8.5-8.5
				c0-4.7,3.8-8.5,8.5-8.5H694V715c0-4.7,3.8-8.5,8.5-8.5c4.7,0,8.5,3.8,8.5,8.5L711.1,757.7L711.1,757.7z"/>
			<path fill="#FFFFFF" d="M711.1,646.7c0,4.7-3.8,8.5-8.5,8.5c-4.7,0-8.5-3.8-8.5-8.5v-17.1H575.5c-47.1,0-86.4-34.4-86.4-81.5
				V428.6c0-47.1,39.3-89.3,86.4-89.3H694v-8.5c0-4.7,3.8-8.5,8.5-8.5c4.7,0,8.5,3.8,8.5,8.5v8.5h43.7V228
				c0-28.2-23.1-51.2-51.2-51.2H63.3c-25.4,0-46.6,18.7-50.5,43h15.3c4.7,0,8.5,3.8,8.5,8.5s-3.8,8.5-8.5,8.5h-16v503.7h7.5
				c4.7,0,8.5,3.8,8.5,8.5c0,4.7-3.8,8.5-8.5,8.5h-6.7c4.2,24,25.3,42.3,50.4,42.3h640.3c28.2,0,51.2-23.1,51.2-51.2V629.6h-43.7
				V646.7z M676.9,219.8h34.1V254c0,4.7-3.8,8.5-8.5,8.5c-4.7,0-8.5-3.8-8.5-8.5v-17.1h-17.1c-4.7,0-8.5-3.8-8.5-8.5
				C668.4,223.7,672.2,219.8,676.9,219.8z M566,219.8h59.8c4.7,0,8.5,3.8,8.5,8.5s-3.8,8.5-8.5,8.5H566c-4.7,0-8.5-3.8-8.5-8.5
				C557.4,223.7,561.2,219.8,566,219.8z M446.4,219.8h59.8c4.7,0,8.5,3.8,8.5,8.5s-3.8,8.5-8.5,8.5h-59.8c-4.7,0-8.5-3.8-8.5-8.5
				C437.9,223.7,441.7,219.8,446.4,219.8z M139.1,757.7H79.3c-4.7,0-8.5-3.8-8.5-8.5c0-4.7,3.8-8.5,8.5-8.5h59.8
				c4.7,0,8.5,3.8,8.5,8.5C147.6,753.8,143.8,757.7,139.1,757.7z M147.6,236.9H87.9c-4.7,0-8.5-3.8-8.5-8.5c0-4.7,3.8-8.5,8.5-8.5
				h59.8c4.7,0,8.5,3.8,8.5,8.5C156.2,233.1,152.4,236.9,147.6,236.9z M258.6,757.7h-59.8c-4.7,0-8.5-3.8-8.5-8.5
				c0-4.7,3.8-8.5,8.5-8.5h59.8c4.7,0,8.5,3.8,8.5,8.5C267.2,753.8,263.3,757.7,258.6,757.7z M267.2,236.9h-59.8
				c-4.7,0-8.5-3.8-8.5-8.5c0-4.7,3.8-8.5,8.5-8.5h59.8c4.7,0,8.5,3.8,8.5,8.5C275.7,233.1,271.9,236.9,267.2,236.9z M378.1,757.7
				h-59.8c-4.7,0-8.5-3.8-8.5-8.5c0-4.7,3.8-8.5,8.5-8.5h59.8c4.7,0,8.5,3.8,8.5,8.5C386.7,753.8,382.9,757.7,378.1,757.7z
				 M386.7,236.9h-59.8c-4.7,0-8.5-3.8-8.5-8.5c0-4.7,3.8-8.5,8.5-8.5h59.8c4.7,0,8.5,3.8,8.5,8.5
				C395.2,233.1,391.4,236.9,386.7,236.9z M497.7,757.7h-59.8c-4.7,0-8.5-3.8-8.5-8.5c0-4.7,3.8-8.5,8.5-8.5h59.8
				c4.7,0,8.5,3.8,8.5,8.5C506.2,753.8,502.4,757.7,497.7,757.7z M617.2,757.7h-59.8c-4.7,0-8.5-3.8-8.5-8.5c0-4.7,3.8-8.5,8.5-8.5
				h59.8c4.7,0,8.5,3.8,8.5,8.5C625.7,753.8,621.9,757.7,617.2,757.7z M711.1,757.7h-34.1c-4.7,0-8.5-3.8-8.5-8.5
				c0-4.7,3.8-8.5,8.5-8.5H694V715c0-4.7,3.8-8.5,8.5-8.5c4.7,0,8.5,3.8,8.5,8.5L711.1,757.7L711.1,757.7z"/>
		</g>
	</g>
</g>
</svg>
