<?xml version="1.0" encoding="utf-8"?>
<!-- Generator: Adobe Illustrator 17.1.0, SVG Export Plug-In . SVG Version: 6.00 Build 0)  -->
<!DOCTYPE svg PUBLIC "-//W3C//DTD SVG 1.1//EN" "http://www.w3.org/Graphics/SVG/1.1/DTD/svg11.dtd">
<svg version="1.1" id="Capa_1" xmlns="http://www.w3.org/2000/svg" xmlns:xlink="http://www.w3.org/1999/xlink" x="0px" y="0px"
	 viewBox="0 0 800 800" enable-background="new 0 0 800 800" xml:space="preserve">
<path fill="#FFFFFF" d="M760.1,0H41.7C19.2,0,0,18.3,0,40.8v359.3c0,0,0,0,0,0c0,0,0,0.1,0,0.1v358.9C0,781.7,19.2,800,41.7,800
	h718.4c22.5,0,39.9-18.3,39.9-40.8V40.8C800,18.3,782.6,0,760.1,0z M718.9,400.2c0,175.5-142.7,318.2-318.2,318.2
	S82.5,575.6,82.5,400.2S225.3,82,400.7,82S718.9,224.7,718.9,400.2z M566.5,285.5c-19.9,0-39.6,5.3-57.2,15.5l-22.1,12.7l12.6-21.9
	c20.7-35.9,20.7-78.7,0-114.6c-20.7-35.9-57.8-57.3-99.2-57.3s-78.5,21.4-99.2,57.3c-20.7,35.9-20.7,78.7,0,114.6l12.3,21.3
	L292.7,301c-17.5-10.1-37.3-15.5-57.2-15.5c-63.2,0-114.7,51.4-114.7,114.7s51.4,114.7,114.7,114.7c19.9,0,39.6-5.3,57.2-15.5
	l21.1-12.2l-12.3,21.3c-20.7,35.9-20.7,78.7,0,114.6c20.7,35.9,57.8,57.3,99.2,57.3s78.5-21.4,99.2-57.3
	c20.7-35.9,20.7-78.7,0-114.6l-12.6-21.9l22.1,12.7c17.5,10.1,37.3,15.5,57.2,15.5c63.2,0,114.7-51.4,114.7-114.7
	S629.8,285.5,566.5,285.5z M400.7,439.1c-21.5,0-39-17.5-39-39s17.5-39,39-39s39,17.5,39,39S422.2,439.1,400.7,439.1z"/>
</svg>
