<?xml version="1.0" encoding="utf-8"?>
<!-- Generator: Adobe Illustrator 17.1.0, SVG Export Plug-In . SVG Version: 6.00 Build 0)  -->
<!DOCTYPE svg PUBLIC "-//W3C//DTD SVG 1.1//EN" "http://www.w3.org/Graphics/SVG/1.1/DTD/svg11.dtd">
<svg version="1.1" id="Capa_1" xmlns="http://www.w3.org/2000/svg" xmlns:xlink="http://www.w3.org/1999/xlink" x="0px" y="0px"
	 viewBox="0 0 800 800" enable-background="new 0 0 800 800" xml:space="preserve">
<path fill="#FFFFFF" d="M786.9,358.4L422.8,9.2c-12.8-12.3-33-12.3-45.7,0L11.6,359.7c-9.7,9.3-12.8,23.7-7.8,36.2
	c5,12.5,17.2,20.7,30.7,20.7h40.1V767c0,18.2,14.8,33,33,33h584.8c18.3,0,33-14.8,33-33V416.6h40.1c0,0,0.1,0,0.1,0
	c18.3,0,33-14.8,33-33C798.6,373.5,794.1,364.4,786.9,358.4z M228.3,494.2c0-69.9,41.7-130.2,101.5-157.5c0,1-0.1,1.8-0.1,2.8
	c0,22.2,4.6,48.7,14.4,70.7c-25.3,17.9-42,47.4-42,80.7c0,5.1,0.4,10,1.1,14.9c-23.2,6.3-46.2,18.9-62.3,31.4
	c-2.1,1.6-4,3.3-5.9,4.9C230.7,526.9,228.3,510.8,228.3,494.2z M567.5,542.1c-1.9-1.7-3.8-3.3-5.9-4.9
	c-16.2-12.7-39.7-25.4-63.1-31.6c0.7-4.8,1.1-9.7,1.1-14.7c0-33.5-16.8-63.1-42.3-80.9c9.6-22,14.3-48.3,14.3-70.5
	c0-1.2-0.1-2.3-0.1-3.4c60.6,26.9,102.9,87.7,102.9,158.1C574.3,510.8,571.9,526.9,567.5,542.1z M368.2,490.9
	c0-18,14.6-32.6,32.6-32.6s32.6,14.6,32.6,32.6c0,18-14.6,32.6-32.6,32.6S368.2,508.9,368.2,490.9z M328.3,649
	c19.5-15.2,39.4-38,50.4-61.9c7.1,1.6,14.6,2.5,22.2,2.5c8,0,15.7-1,23.2-2.8c1.4,2.9,2.8,5.9,4.6,9c10.9,19.6,27.6,38.9,45.8,53.1
	c0.6,0.4,1.1,0.8,1.7,1.2c-22.6,10.9-48,17-74.7,17s-52.1-6.1-74.7-17C327.1,649.8,327.7,649.4,328.3,649z"/>
</svg>
