<?xml version="1.0" encoding="utf-8"?>
<!-- Generator: Adobe Illustrator 17.1.0, SVG Export Plug-In . SVG Version: 6.00 Build 0)  -->
<!DOCTYPE svg PUBLIC "-//W3C//DTD SVG 1.1//EN" "http://www.w3.org/Graphics/SVG/1.1/DTD/svg11.dtd">
<svg version="1.1" id="Capa_1" xmlns="http://www.w3.org/2000/svg" xmlns:xlink="http://www.w3.org/1999/xlink" x="0px" y="0px"
	 viewBox="0 0 800 800" enable-background="new 0 0 800 800" xml:space="preserve">
<g>
	<circle fill="#FFFFFF" cx="456.9" cy="443.5" r="19.5"/>
	<path fill="#FFFFFF" d="M0,14.9v204.7h37.2v565.6h725.6V219.5H800V14.9H0z M651.2,673.5H148.8v-70.7h502.3V673.5z M256.7,427.2
		l52.6-52.6l32.6,32.6c19.9-16.7,45.2-31.3,72.8-31.3c64.1,0,116,79,116,79s-51.9,79-116,79c-27.6,0-52.9-14.6-72.8-31.3l-32.6,32.6
		l-52.6-52.6l27.7-27.7L256.7,427.2z M651.2,308.8H148.8v-89.3h502.3V308.8z"/>
</g>
</svg>
