<?xml version="1.0" encoding="utf-8"?>
<!-- Generator: Adobe Illustrator 17.1.0, SVG Export Plug-In . SVG Version: 6.00 Build 0)  -->
<!DOCTYPE svg PUBLIC "-//W3C//DTD SVG 1.1//EN" "http://www.w3.org/Graphics/SVG/1.1/DTD/svg11.dtd">
<svg version="1.1" id="Capa_1" xmlns="http://www.w3.org/2000/svg" xmlns:xlink="http://www.w3.org/1999/xlink" x="0px" y="0px"
	 viewBox="0 0 800 800" enable-background="new 0 0 800 800" xml:space="preserve">
<g>
	<g>
		<path fill="#FFFFFF" d="M170.7,340.7v3.3c0,15.2,6,22.8,17.9,22.8h45.5v266.7h66.7V400.8h66.7v232.5h65V400.8h66.7v232.5h66.7
			V366.7h45.5c5.4,0,10.3-2.4,14.6-7.3c4.3-4.9,6.5-10,6.5-15.4c0-7.6-2.7-13.5-8.1-17.9v-1.6h1.6L416.3,215.4v-30.9
			c10.8,5.4,28.2,6.2,52,2.4c23.8-3.8,45.5-2.4,65,4.1v-69.9c-17.3-6.5-39-7.6-65-3.3c-26,4.3-43.4,3.3-52-3.3v-3.3
			c0-7.6-5.4-11.4-16.3-11.4s-16.3,3.8-16.3,11.4v104.1L174,324.4h1.6h3.3h4.9C174,326.6,169.6,332,170.7,340.7z"/>
		<polygon fill="#FFFFFF" points="216.3,649.6 167.5,700 632.5,700 583.7,649.6 		"/>
		<path fill="#FFFFFF" d="M583.7,384.6v248.8h14.6l6.5,9.8l43.9,40.7L665,700h135V384.6H583.7z M682.9,582.9h-50.4v-48.8h50.4V582.9
			z M682.9,483.7h-50.4v-50.4h50.4V483.7z M749.6,582.9h-32.5v-48.8h32.5V582.9z M749.6,483.7h-32.5v-50.4h32.5V483.7z"/>
		<path fill="#FFFFFF" d="M201.6,633.3h14.6V384.6H0V700h135l16.3-14.6l43.9-42.3L201.6,633.3z M82.9,582.9H50.4v-48.8h32.5V582.9z
			 M82.9,483.7H50.4v-50.4h32.5V483.7z M167.5,582.9h-50.4v-48.8h50.4V582.9z M167.5,483.7h-50.4v-50.4h50.4V483.7z"/>
	</g>
</g>
</svg>
