<?xml version="1.0" encoding="utf-8"?>
<!-- Generator: Adobe Illustrator 17.1.0, SVG Export Plug-In . SVG Version: 6.00 Build 0)  -->
<!DOCTYPE svg PUBLIC "-//W3C//DTD SVG 1.1//EN" "http://www.w3.org/Graphics/SVG/1.1/DTD/svg11.dtd">
<svg version="1.1" id="Capa_1" xmlns="http://www.w3.org/2000/svg" xmlns:xlink="http://www.w3.org/1999/xlink" x="0px" y="0px"
	 viewBox="0 0 800 800" enable-background="new 0 0 800 800" xml:space="preserve">
<g>
	<g>
		<path fill="#FFFFFF" d="M141.8,492.1c5.8,0,11.7-1.6,16.9-5l174.9-114l151.9,67.9c4.1,1.8,8.4,2.7,12.7,2.7c7.6,0,15.2-2.8,21-8.2
			l147.5-135.9v24.3c0,17.1,13.9,31,31,31c17.1,0,31-13.9,31-31v-94.5c0-17.1-13.9-31-31-31h-94.5c-17.1,0-31,13.9-31,31
			s13.9,31,31,31h14.5L492.2,376.2l-148.7-66.5c-4-1.8-8.4-2.7-12.6-2.7c-5.9,0-11.8,1.7-16.9,5l-189,123.2
			c-14.3,9.3-18.4,28.5-9,42.9C121.8,487.2,131.7,492.1,141.8,492.1z"/>
		<path fill="#FFFFFF" d="M769,691.3h-85.4v-307c-15-3.5-27.9-12.4-36.6-24.5l-25.4,23.4v308.1H518.4V471.4
			c-6.4,2.2-13.3,3.4-20.2,3.4c-8.8,0-17.3-1.8-25.3-5.4l-16.5-7.4v229.3H353.1V415.8l-16.7-7.5l-45.3,29.5v253.5H187.8V505.1
			l-12.2,7.9c-10.1,6.6-21.8,10.1-33.8,10.1c-5.5,0-10.8-0.7-16-2.1v170.3H62V77.7c0-17.1-13.9-31-31-31c-17.1,0-31,13.9-31,31
			v644.5c0,17.1,13.9,31,31,31h738c17.1,0,31-13.9,31-31C800,705.2,786.1,691.3,769,691.3z"/>
	</g>
</g>
</svg>
