<?xml version="1.0" encoding="utf-8"?>
<!-- Generator: Adobe Illustrator 17.1.0, SVG Export Plug-In . SVG Version: 6.00 Build 0)  -->
<!DOCTYPE svg PUBLIC "-//W3C//DTD SVG 1.1//EN" "http://www.w3.org/Graphics/SVG/1.1/DTD/svg11.dtd">
<svg version="1.1" id="Capa_1" xmlns="http://www.w3.org/2000/svg" xmlns:xlink="http://www.w3.org/1999/xlink" x="0px" y="0px"
	 viewBox="0 0 800 800" enable-background="new 0 0 800 800" xml:space="preserve">
<g>
	<g id="Layer_5_62_">
		<g>
			<path fill="#FFFFFF" d="M408.2,185.9c51.3,0,92.9-41.6,92.9-93C501,41.6,459.5,0,408.2,0c-51.3,0-93,41.6-93,92.9
				C315.2,144.2,356.8,185.9,408.2,185.9z"/>
			<path fill="#FFFFFF" d="M601.7,458.6c-11.6-26.5-21.3-54.2-30.7-80.9c-24.6-70.2-54-169.2-101.1-169.2c-1.9,0-108.7,0-124,0
				c-48.9,0-76.6,99-101.1,169.2c-9.4,26.8-19.1,54.4-30.7,80.9c-7.4,16.8-6.7,36.5,8,45.4c2.3,1.4,1.6,8.3,1.5,12.3
				c0,1.5-0.3,4.5-4.2,4.5c-1,0-3.8,0-3.8,0c-11.4,0-20.8,9.3-20.8,20.8V668c0,11.4,9.3,20.8,20.8,20.8h39.2
				c11.4,0,20.8-9.3,20.8-20.8V541.5c0-11.4-9.3-20.8-20.8-20.8c0,0-2.8,0-3.7,0c-2.7,0-3-3.2-3.5-4.5c-0.9-2.7,0-8,2.5-9.1
				c9-3.6,15.7-12.2,20.1-22.3c9.1-20.8,23.8-65.9,33.5-93.6c2.2-6.4,5-10.6,4.5,0.6v86.7c0,4.3-0.9,17.4,2.8,21.9
				c2.8,3.4,7.6,2.1,7.6,10.4v244.3c0,24.8,17,44.8,40.8,44.8c23.8,0,36.7-19.7,36.7-44.4c0,0,0-176.1,0-234.8
				c0-2.9,0.5-7.2,9.1-7.2c0.8,0,1.2,0,2,0c8.7,0,9.3,5,9.3,6.6c0,58.7,0,234.8,0,234.8c0,24.8,13.1,45,36.9,45
				c23.8,0,40.8-20.1,40.8-44.8l-0.2-243c0-4,5.3-6.6,7.3-9c3.9-4.8,6.2-10.9,6.2-17.4v-97.4c0-9.4,1.9-4,2.9-0.5
				c7.6,27.8,22.4,77.9,31.9,99.7c5.9,13.5,14.7,21.7,28.6,21.7c4.8,0,9.8-1,14.4-3C603.6,498.1,609.7,476.9,601.7,458.6z
				 M443.9,348.7l-30.6,28.2c-2.9,2.6-7.6,2.6-10.4,0l-30.6-28.2c-2.9-2.6-4.6-7.9-3.8-11.7l16-76.2c0.2-1.1,1-4.6,0.9-5.4
				c-0.3-4-1.3-16.1-1.3-16.1c-0.3-3.9,2.6-7.1,6.5-7.1h34.9c3.9,0,6.8,3.2,6.5,7.1c0,0-0.9,12.1-1.3,16.1c-0.1,0.8,0.7,4.2,0.9,5.4
				l16,76.2C448.5,340.8,446.8,346.1,443.9,348.7z"/>
		</g>
	</g>
</g>
</svg>
