<?xml version="1.0" encoding="utf-8"?>
<!-- Generator: Adobe Illustrator 17.1.0, SVG Export Plug-In . SVG Version: 6.00 Build 0)  -->
<!DOCTYPE svg PUBLIC "-//W3C//DTD SVG 1.1//EN" "http://www.w3.org/Graphics/SVG/1.1/DTD/svg11.dtd">
<svg version="1.1" id="Capa_1" xmlns="http://www.w3.org/2000/svg" xmlns:xlink="http://www.w3.org/1999/xlink" x="0px" y="0px"
	 viewBox="0 0 371.7 371.7" enable-background="new 0 0 371.7 371.7" xml:space="preserve">
<g>
	<g>
		<g>
			<path fill="#FFFFFF" d="M37.8,212.3C37.8,212.4,37.8,212.4,37.8,212.3c-4.1,2.1-5.8,6.9-4,11.1c1.8,4.2,6.5,6.3,10.8,4.9
				l121.9-40.5L143.6,225c-1.7,2.7-1.3,6.2,0.9,8.5c2.2,2.3,5.6,2.9,8.4,1.4l23.9-12.4c0.7-0.4,1.3-0.8,1.8-1.4l70.8-73.9l87.4-45.6
				c33.1-17.8,29.3-31.5,27.3-35.3c-1.5-2.9-4.9-6.9-12.5-8.9c-7.7-2.1-18-1.9-31.7,0.5c-4.6,0.8-7.1,0.7-9.7,0.7
				c-9.4-0.3-15.7,0.4-47.2,16.7L90.8,164.9L24,130.2c-2.5-1.3-5.5-1.3-8,0L4.7,136c-2.3,1.2-4,3.4-4.5,5.9
				c-0.5,2.6,0.1,5.2,1.7,7.3L48.3,207L37.8,212.3z"/>
			<path fill="#FFFFFF" d="M355.1,282.5H28.9c-9.2,0-16.6,7.4-16.6,16.6s7.4,16.6,16.6,16.6h326.1c9.2,0,16.6-7.4,16.6-16.6
				C371.7,289.9,364.2,282.5,355.1,282.5z"/>
		</g>
	</g>
</g>
</svg>
