<?xml version="1.0" encoding="utf-8"?>
<!-- Generator: Adobe Illustrator 17.1.0, SVG Export Plug-In . SVG Version: 6.00 Build 0)  -->
<!DOCTYPE svg PUBLIC "-//W3C//DTD SVG 1.1//EN" "http://www.w3.org/Graphics/SVG/1.1/DTD/svg11.dtd">
<svg version="1.1" id="Capa_1" xmlns="http://www.w3.org/2000/svg" xmlns:xlink="http://www.w3.org/1999/xlink" x="0px" y="0px"
	 viewBox="0 0 88.6 88.6" enable-background="new 0 0 88.6 88.6" xml:space="preserve">
<g>
	<path fill="#FFFFFF" d="M50.2,60.4c0,3.3-2.7,6-6,6c-3.3,0-6-2.7-6-6c0-3.3,2.7-6,6-6C47.6,54.4,50.2,57.1,50.2,60.4z M52.8,76
		c0-4.7-3.8-8.5-8.5-8.5c-4.7,0-8.5,3.8-8.5,8.5l0,0v12.5h17L52.8,76L52.8,76z M67.7,54.4c-3.3,0-6,2.7-6,6c0,3.3,2.7,6,6,6
		c3.3,0,6-2.7,6-6C73.6,57.1,71,54.4,67.7,54.4z M76.2,76c0-4.7-3.8-8.5-8.5-8.5c-4.7,0-8.5,3.8-8.5,8.5l0,0v12.5h17L76.2,76
		L76.2,76z M20.9,54.4c-3.3,0-6,2.7-6,6c0,3.3,2.7,6,6,6c3.3,0,5.9-2.7,5.9-6C26.8,57.1,24.2,54.4,20.9,54.4z M29.4,76
		c0-4.7-3.8-8.5-8.5-8.5c-4.7,0-8.5,3.8-8.5,8.5l0,0v12.5h17L29.4,76L29.4,76z M44.3,0c-3.8,0-6.9,3.1-6.9,6.9
		c0,3.8,3.1,6.9,6.9,6.9c3.8,0,6.9-3.1,6.9-6.9C51.2,3.1,48.1,0,44.3,0z M54.1,24.7c0-5.4-4.4-9.8-9.8-9.8c-5.4,0-9.8,4.4-9.8,9.8
		l0,0v14.5h19.7V24.7L54.1,24.7z M44.8,46.3V42h-1.1v4.3H20.3v6.2h1.1v-5.1h22.3v5.1h1.1v-5.1h22.3v5.1h1.1v-6.2H44.8z"/>
</g>
</svg>
