<?xml version="1.0" encoding="utf-8"?>
<!-- Generator: Adobe Illustrator 17.1.0, SVG Export Plug-In . SVG Version: 6.00 Build 0)  -->
<!DOCTYPE svg PUBLIC "-//W3C//DTD SVG 1.1//EN" "http://www.w3.org/Graphics/SVG/1.1/DTD/svg11.dtd">
<svg version="1.1" id="Capa_1" xmlns="http://www.w3.org/2000/svg" xmlns:xlink="http://www.w3.org/1999/xlink" x="0px" y="0px"
	 viewBox="0 0 800 800" enable-background="new 0 0 800 800" xml:space="preserve">
<g>
	<g>
		<path fill="#FFFFFF" d="M545.7,357.3c0,70.6-27.8,136.8-77.8,189.1c-14.3,14.9-10.6,26.7,10,25.2c58.3-4.3,113.5-27.3,155.8-69.7
			c51.6-51.6,74.5-122,70-194.1c-1.3-20.6-21.3-40.6-41.9-41.9c-30.8-1.9-61.3,1.2-90.1,9.4c-19.9,5.7-30.8,28.1-28.3,47.2
			C544.9,333.9,545.7,345.5,545.7,357.3z"/>
		<path fill="#FFFFFF" d="M782.2,449.5c-9.6-6.9-19.6-13.2-29.8-18.9c-18.2-9.9-38.9,0.5-47.9,19.1c-12.8,26.5-29.9,50.7-51.1,72
			c-50.7,50.7-120.3,78.8-196,78.8c-1.7,0-3.4,0-5.1-0.1c-2.8-0.1,9.1,8.9,28,17.4c47.3,21.1,99.8,27.9,152,16.1
			c71.2-16,128.2-63.2,162.9-126.6C805.2,489.2,799,461.7,782.2,449.5z"/>
		<path fill="#FFFFFF" d="M342.5,600.5c-75.7,0-145.3-28.1-196-78.8c-21.3-21.3-38.3-45.5-51.1-72c-9-18.6-29.8-29-47.9-19.1
			c-10.3,5.6-20.2,11.9-29.8,18.9C1,461.7-5.2,489.2,4.8,507.3C39.4,570.8,96.5,618,167.7,634c52.2,11.7,104.6,5,152-16.1
			c18.9-8.4,30.8-17.5,28-17.4C345.9,600.5,344.2,600.5,342.5,600.5z"/>
		<path fill="#FFFFFF" d="M322.8,571.5c20.6,1.5,24.3-10.3,10-25.3c-50-52.2-77.8-118.4-77.8-189c0-11.7,0.8-23.3,2.3-34.8
			c2.5-19.1-8.4-41.5-28.2-47.2c-29-8.3-59.7-11.5-90.8-9.6c-20.6,1.3-40.6,21.2-41.9,41.9c-4.6,72.1,18.4,142.5,70,194.1
			C208.9,544.3,264.2,567.3,322.8,571.5z"/>
		<path fill="#FFFFFF" d="M429.9,170.5c-15.5-13.7-43.7-13.7-59.2,0c-54.2,47.8-87.8,113.8-87.8,186.7c0,72.9,33.6,139,87.8,186.8
			c15.5,13.7,43.7,13.7,59.2,0c54.2-47.8,87.8-113.8,87.8-186.8C517.7,284.3,484.2,218.3,429.9,170.5z"/>
	</g>
</g>
</svg>
