<?xml version="1.0" encoding="utf-8"?>
<!-- Generator: Adobe Illustrator 17.1.0, SVG Export Plug-In . SVG Version: 6.00 Build 0)  -->
<!DOCTYPE svg PUBLIC "-//W3C//DTD SVG 1.1//EN" "http://www.w3.org/Graphics/SVG/1.1/DTD/svg11.dtd">
<svg version="1.1" id="Capa_1" xmlns="http://www.w3.org/2000/svg" xmlns:xlink="http://www.w3.org/1999/xlink" x="0px" y="0px"
	 viewBox="0 0 58.3 58.3" enable-background="new 0 0 58.3 58.3" xml:space="preserve">
<g>
	<g>
		<circle fill="#FFFFFF" cx="24.2" cy="9.6" r="3.8"/>
		<path fill="#FFFFFF" d="M52.4,11.4H39.6v0c-0.6,0-1.3,0.3-1.7,0.7l-9.2,9.2C28.3,21.7,28,21.6,28,21v-2.9c0-1.8-1.5-3.3-3.3-3.3
			h-0.8c-1.8,0-3.3,1.5-3.3,3.3v10.4c0,0.6-0.3,1.3-0.7,1.7L13,37c-0.4,0.4-1.2,0.7-1.7,0.7H5.9c-3.3,0-5.9,2.6-5.9,5.9v1.1
			c0,3.3,2.6,5.9,5.9,5.9h12.8c0.6,0,1.3-0.3,1.7-0.7L45.3,25c0.4-0.4,1.2-0.7,1.7-0.7h5.4c3.3,0,5.9-2.6,5.9-5.9v-1.1
			C58.3,14.1,55.6,11.4,52.4,11.4z M54.5,18.4c0,1.2-0.9,2.1-2.1,2.1h-7c-0.6,0-1.3,0.3-1.7,0.7L18.9,46.1c-0.4,0.4-1.2,0.7-1.7,0.7
			H5.9c-1.2,0-2.1-0.9-2.1-2.1v-1.1c0-1.2,0.9-2.1,2.1-2.1h7c0.6,0,1.3-0.3,1.7-0.7l24.9-24.8c0.4-0.4,1.2-0.7,1.7-0.7h11.3
			c1.2,0,2.1,0.9,2.1,2.1V18.4z"/>
		<path fill="#FFFFFF" d="M47.2,37.9c0-0.2-0.1-0.3-0.2-0.5c0-0.1,0-0.1,0-0.1c-0.1-0.1-0.2-0.3-0.3-0.4c0,0,0,0,0,0
			c-0.1-0.1-0.3-0.2-0.4-0.3c0,0-0.1,0-0.1-0.1c-0.1-0.1-0.3-0.1-0.4-0.2c0,0-0.1,0-0.1,0c-0.1,0-0.2,0-0.3,0c0,0-0.1,0-0.1,0
			c0,0,0,0-0.1,0l-9.7,1c-1,0.1-1.8,1-1.7,2.1c0.1,1,1,1.8,2.1,1.7l3.7-0.4c0.6-0.1,0.7,0.2,0.3,0.6l-7.3,8c-0.7,0.8-0.7,2,0.1,2.7
			c0.4,0.3,0.8,0.5,1.3,0.5c0.5,0,1-0.2,1.4-0.6l7.4-8.1c0.4-0.4,0.7-0.3,0.7,0.3v4.6c0,1.1,0.9,1.9,1.9,1.9c1.1,0,1.9-0.9,1.9-1.9
			V38.3c0-0.1,0-0.2,0-0.2C47.2,38,47.2,38,47.2,37.9z"/>
	</g>
</g>
</svg>
