<?xml version="1.0" encoding="utf-8"?>
<!-- Generator: Adobe Illustrator 17.1.0, SVG Export Plug-In . SVG Version: 6.00 Build 0)  -->
<!DOCTYPE svg PUBLIC "-//W3C//DTD SVG 1.1//EN" "http://www.w3.org/Graphics/SVG/1.1/DTD/svg11.dtd">
<svg version="1.1" id="Capa_1" xmlns="http://www.w3.org/2000/svg" xmlns:xlink="http://www.w3.org/1999/xlink" x="0px" y="0px"
	 viewBox="0 0 800 800" enable-background="new 0 0 800 800" xml:space="preserve">
<g>
	<g>
		<path fill="#FFFFFF" d="M633.1,678.3c-2.1,22.1-104.3,22.2-230.3,22.2s-228.2-0.2-230.3-22.2H16c-5.5,0-10.8-1-16-2.5v35.4
			c0,20.2,16.4,36.6,36.6,36.6h726.8c20.2,0,36.6-16.4,36.6-36.6v-33.4c-1.4,0.1-2.7,0.4-4.2,0.4H633.1z"/>
		<path fill="#FFFFFF" d="M763.4,156.5H36.6C16.4,156.5,0,172.9,0,193.1v66.4c5.1,0.7,10.6,1.3,16,1.3h779.8c1.5,0,2.8-0.2,4.2-0.3
			v-67.4C800,172.9,783.6,156.5,763.4,156.5z M79.7,232.4c-13.7,0-24.8-11.1-24.8-24.8c0-13.7,11.1-24.8,24.8-24.8
			c13.7,0,24.8,11.1,24.8,24.8S93.3,232.4,79.7,232.4z M299.4,232.4c-13.7,0-24.8-11.1-24.8-24.8c0-13.7,11.1-24.8,24.8-24.8
			c13.7,0,24.8,11.1,24.8,24.8S313.1,232.4,299.4,232.4z M446,232.4c-13.7,0-24.8-11.1-24.8-24.8c0-13.7,11.1-24.8,24.8-24.8
			c13.7,0,24.8,11.1,24.8,24.8S459.7,232.4,446,232.4z M592.5,232.4c-13.7,0-24.8-11.1-24.8-24.8c0-13.7,11.1-24.8,24.8-24.8
			c13.7,0,24.8,11.1,24.8,24.8S606.2,232.4,592.5,232.4z M739,232.4c-13.7,0-24.8-11.1-24.8-24.8c0-13.7,11.1-24.8,24.8-24.8
			s24.8,11.1,24.8,24.8S752.7,232.4,739,232.4z"/>
		<path fill="#FFFFFF" d="M16,278.3c-5.6,0-10.9-0.6-16-1.2v380.3c4.8,2.1,10.2,3.5,16,3.5h192.6c40.9-6.1,112.5-6.2,194.2-6.2
			c81.7,0,153.3,0.1,194.2,6.2h198.7c1.6,0,2.9-0.3,4.2-0.5V278c-1.4,0.1-2.6,0.3-4.2,0.3H16z M713,572.1
			c0,20.2-16.4,36.6-36.6,36.6H123.6c-20.2,0-36.6-16.4-36.6-36.6V367c0-20.2,16.4-36.6,36.6-36.6h552.8c20.2,0,36.6,16.4,36.6,36.6
			V572.1z"/>
		<path fill="#FFFFFF" d="M770.7,52.2H38c-20.2,0-38,16-38,36.3v36.6c0,20.2,17.8,14.1,38,14.1h732.7c20.2,0,29.3,6.2,29.3-14.1
			V88.4C800,68.2,790.9,52.2,770.7,52.2z"/>
	</g>
</g>
</svg>
