<?xml version="1.0" encoding="utf-8"?>
<!-- Generator: Adobe Illustrator 17.1.0, SVG Export Plug-In . SVG Version: 6.00 Build 0)  -->
<!DOCTYPE svg PUBLIC "-//W3C//DTD SVG 1.1//EN" "http://www.w3.org/Graphics/SVG/1.1/DTD/svg11.dtd">
<svg version="1.1" id="Capa_1" xmlns="http://www.w3.org/2000/svg" xmlns:xlink="http://www.w3.org/1999/xlink" x="0px" y="0px"
	 viewBox="0 0 800 800" enable-background="new 0 0 800 800" xml:space="preserve">
<g>
	<path fill="#FFFFFF" d="M706.1,131.3c-1.7-31.6-19.2-71.8-35-90.3c-15.8-18.4-45.3-36-65.9-39.1c-20.6-3.2-62.6-2.3-93.9,2
		L400,19.1L288.8,3.9c-31.4-4.3-73.4-5.2-94-2c-20.6,3.2-50,20.7-65.9,39.1c-15.8,18.5-33.3,58.7-35,90.3
		c-3,55.9,0.7,144.4,40.7,225.6c0,0,28.6,57.3,28.6,148.9c0,67,25.5,211.5,58.7,275.8c14.5,28.1,57.9,22.7,66.7-7.7
		c30.8-106.5,52.7-374.8,111.3-374c58.5-0.7,80.5,267.5,111.3,374c8.8,30.4,52.2,35.8,66.7,7.7c33.1-64.3,58.7-208.7,58.7-275.8
		c0-91.6,28.6-148.9,28.6-148.9C705.3,275.7,709.1,187.2,706.1,131.3z"/>
</g>
</svg>
