<?xml version="1.0" encoding="utf-8"?>
<!-- Generator: Adobe Illustrator 17.1.0, SVG Export Plug-In . SVG Version: 6.00 Build 0)  -->
<!DOCTYPE svg PUBLIC "-//W3C//DTD SVG 1.1//EN" "http://www.w3.org/Graphics/SVG/1.1/DTD/svg11.dtd">
<svg version="1.1" id="Capa_1" xmlns="http://www.w3.org/2000/svg" xmlns:xlink="http://www.w3.org/1999/xlink" x="0px" y="0px"
	 viewBox="0 0 79.5 79.5" enable-background="new 0 0 79.5 79.5" xml:space="preserve">
<g>
	<path fill="#FFFFFF" d="M46.3,11.5v3.7H24.6v-3.7h2.1V1.3l0,0c0-0.8,3.9-1.3,8.8-1.3s8.8,0.6,8.8,1.3l0,0v10.1H46.3z M63.6,47
		l-0.3,32.6H15.9l0.7-52.7l7.8-9.2h22.3L57.2,25L63.6,47z M56.2,48.3l-1.9-15.8c0,0-0.5-2.1-2.1-3.3c-2.3-1.7-6-1.9-5.9,4.9
		l4.1,14.3C50.4,48.5,53.6,53.6,56.2,48.3z"/>
</g>
</svg>
