<?xml version="1.0" encoding="utf-8"?>
<!-- Generator: Adobe Illustrator 17.1.0, SVG Export Plug-In . SVG Version: 6.00 Build 0)  -->
<!DOCTYPE svg PUBLIC "-//W3C//DTD SVG 1.1//EN" "http://www.w3.org/Graphics/SVG/1.1/DTD/svg11.dtd">
<svg version="1.1" id="Capa_1" xmlns="http://www.w3.org/2000/svg" xmlns:xlink="http://www.w3.org/1999/xlink" x="0px" y="0px"
	 viewBox="0 0 800 800" enable-background="new 0 0 800 800" xml:space="preserve">
<g>
	<path fill="#FFFFFF" d="M592.6,265.8l-93.6-50.2c5.7-2.4,9.8-8,9.8-14.6v-70.9c0-8.7-7.1-15.8-15.8-15.8h-10.3V88.1H494
		c6.6,0,11.9-5.3,11.9-11.9V11.9C505.9,5.3,500.6,0,494,0H351.7c-3.2,0-6.2,1.3-8.4,3.5L319,27.7c-2.2,2.2-3.5,5.3-3.5,8.4v4.5
		h-79.8c-1.7,0-3.4,0.8-4.5,2.1l-36.8,43.1c-1,1.2-1.5,2.8-1.4,4.3c0.1,1.6,0.9,3,2.1,4.1l21.7,18.6c1.1,0.9,2.5,1.4,3.9,1.4
		c0.2,0,0.3,0,0.5,0c1.6-0.1,3-0.9,4.1-2.1l26.5-31h64.9c1.9,4.1,6,7,10.8,7h11.4v26.2h-10.3c-8.7,0-15.8,7-15.8,15.8V201
		c0,6.6,4,12.2,9.8,14.6l-93.6,50.2c-8.9,4.8-14.4,14-14.4,24.1v482.7c0,15.1,12.3,27.4,27.4,27.4h337.8c15.1,0,27.4-12.3,27.4-27.4
		V289.9C607,279.8,601.5,270.6,592.6,265.8z M410.7,611c-46.4,0-84.1-37.7-84.1-84.1c0-51.9,74.6-124.7,77.8-127.8
		c3.5-3.4,9.1-3.4,12.6,0c3.2,3.1,77.8,75.9,77.8,127.8C494.8,573.3,457.1,611,410.7,611z"/>
	<path fill="#FFFFFF" d="M411,562.6c-20.4,0-37-16.6-37-37c0-4.5-3.6-8.1-8.1-8.1c-4.5,0-8.1,3.6-8.1,8.1
		c0,29.4,23.9,53.3,53.3,53.3c4.5,0,8.1-3.6,8.1-8.1C419.1,566.2,415.5,562.6,411,562.6z"/>
</g>
</svg>
