<?xml version="1.0" encoding="utf-8"?>
<!-- Generator: Adobe Illustrator 17.1.0, SVG Export Plug-In . SVG Version: 6.00 Build 0)  -->
<!DOCTYPE svg PUBLIC "-//W3C//DTD SVG 1.1//EN" "http://www.w3.org/Graphics/SVG/1.1/DTD/svg11.dtd">
<svg version="1.1" id="Capa_1" xmlns="http://www.w3.org/2000/svg" xmlns:xlink="http://www.w3.org/1999/xlink" x="0px" y="0px"
	 viewBox="0 0 800 800" enable-background="new 0 0 800 800" xml:space="preserve">
<g>
	<path fill="#FFFFFF" d="M400,167c14.1,0,25.6-11.4,25.6-25.6V61.1c0-14.1-11.4-25.6-25.6-25.6c-14.1,0-25.6,11.4-25.6,25.6v80.3
		C374.4,155.5,385.9,167,400,167z"/>
	<path fill="#FFFFFF" d="M187.6,228c5.1,6,12.3,9.1,19.6,9.1c5.8,0,11.6-2,16.4-6c10.8-9.1,12.2-25.2,3.2-36l-51.6-61.5
		c-9.1-10.8-25.2-12.2-36-3.2c-10.8,9.1-12.2,25.2-3.2,36L187.6,228z"/>
	<path fill="#FFFFFF" d="M104.6,414.9c12.2,0,23-8.7,25.1-21.1c2.5-13.9-6.8-27.2-20.7-29.6l-79-14c-13.9-2.4-27.2,6.8-29.6,20.7
		c-2.5,13.9,6.8,27.2,20.7,29.6l79,14C101.7,414.8,103.2,414.9,104.6,414.9z"/>
	<path fill="#FFFFFF" d="M770,350.2l-79.1,13.9c-13.9,2.4-23.2,15.7-20.7,29.6c2.2,12.4,13,21.1,25.1,21.1c1.5,0,3-0.1,4.5-0.4
		l79.1-13.9c13.9-2.4,23.2-15.7,20.7-29.6C797.2,357,783.9,347.7,770,350.2z"/>
	<path fill="#FFFFFF" d="M592.8,237.2c7.3,0,14.6-3.1,19.6-9.1l51.6-61.5c9.1-10.8,7.7-26.9-3.1-36c-10.8-9.1-27-7.6-36,3.1
		l-51.6,61.5c-9.1,10.8-7.7,26.9,3.1,36C581.2,235.2,587,237.2,592.8,237.2z"/>
	<rect x="65.1" y="641.4" fill="#FFFFFF" width="669.8" height="123"/>
	<path fill="#FFFFFF" d="M400,200.5c-132.3,0-239.6,107.3-239.6,239.6v163.6h133.9H610h29.6V440.2
		C639.6,307.8,532.3,200.5,400,200.5z M211.5,552.6V440.2c0-99.1,77-180.5,174.3-187.8c-55.6,43.8-91.5,111.5-91.5,187.8v112.5
		L211.5,552.6L211.5,552.6z"/>
</g>
</svg>
