<?xml version="1.0" encoding="utf-8"?>
<!-- Generator: Adobe Illustrator 17.1.0, SVG Export Plug-In . SVG Version: 6.00 Build 0)  -->
<!DOCTYPE svg PUBLIC "-//W3C//DTD SVG 1.1//EN" "http://www.w3.org/Graphics/SVG/1.1/DTD/svg11.dtd">
<svg version="1.1" id="Capa_1" xmlns="http://www.w3.org/2000/svg" xmlns:xlink="http://www.w3.org/1999/xlink" x="0px" y="0px"
	 viewBox="0 0 800 800" enable-background="new 0 0 800 800" xml:space="preserve">
<g>
	<g>
		<path fill="#FFFFFF" d="M774.8,0H25.2C11.3,0,0,11.3,0,25.2v749.4c0,14,11.3,25.3,25.2,25.3h749.6c14,0,25.2-11.3,25.2-25.3V25.2
			C799.9,11.3,788.7,0,774.8,0z M749.6,749.5H50.4V50.5h699.1L749.6,749.5L749.6,749.5z"/>
		<rect x="96" y="85.1" fill="#FFFFFF" width="598.7" height="378.1"/>
		<rect x="97" y="519.9" fill="#FFFFFF" width="331" height="192.2"/>
		<path fill="#FFFFFF" d="M485.7,633.3h50.9c6.2,27.9,32.1,48.8,63.2,48.8c31.2,0,57.1-21,63.3-48.8h44.2V519.8H485.7L485.7,633.3
			L485.7,633.3z"/>
	</g>
</g>
</svg>
