<?xml version="1.0" encoding="utf-8"?>
<!-- Generator: Adobe Illustrator 17.1.0, SVG Export Plug-In . SVG Version: 6.00 Build 0)  -->
<!DOCTYPE svg PUBLIC "-//W3C//DTD SVG 1.1//EN" "http://www.w3.org/Graphics/SVG/1.1/DTD/svg11.dtd">
<svg version="1.1" id="Capa_1" xmlns="http://www.w3.org/2000/svg" xmlns:xlink="http://www.w3.org/1999/xlink" x="0px" y="0px"
	 viewBox="0 0 800 800" enable-background="new 0 0 800 800" xml:space="preserve">
<g>
	<path fill="#FFFFFF" d="M400,56.8C214.3,56.8,63.1,208,63.1,393.9c0,114.5,57.3,215.8,144.8,276.8l-84.6,85
		c-7.4,7.4-9.6,18.6-5.6,28.3c4,9.7,13.5,16,24,16h516.6c10.5,0,20-6.3,24-16c4-9.7,1.8-20.9-5.6-28.3l-84.6-85
		c87.4-61,144.8-162.3,144.8-276.8C736.9,208,585.8,56.8,400,56.8z M426,110c59.1,5.4,113.1,28.9,156.3,65L426,331.2V110z
		 M374,331.2L217.8,174.9C261,138.9,314.9,115.3,374,110V331.2z M619,211.8c35.9,43.2,59.3,97.1,64.7,156.2H462.8L619,211.8z
		 M181.1,211.7l156.2,156.2H116.3C121.7,308.8,145.1,254.9,181.1,211.7z M116.4,419.9h220.9L181.1,576.2
		C145.1,533,121.7,479,116.4,419.9z M204.3,748L400,551.5L595.7,748H204.3z M418.4,496.3c-4.9-4.9-11.5-7.7-18.4-7.7
		c-6.9,0-13.5,2.8-18.4,7.7L245.2,633.2c-9.6-6.2-18.7-13-27.4-20.3L400,430.7L582.2,613c-8.7,7.3-17.9,14.1-27.4,20.3L418.4,496.3z
		 M618.9,576.2L462.8,419.9h220.9C678.3,479,654.9,533,618.9,576.2z"/>
	<path fill="#FFFFFF" d="M786.2,369.5c-4.8-4.8-11.5-7.6-18.4-7.6c-6.8,0-13.5,2.8-18.4,7.6c-4.8,4.8-7.6,11.5-7.6,18.4
		c0,6.9,2.8,13.6,7.6,18.4c4.9,4.9,11.5,7.6,18.4,7.6s13.5-2.8,18.4-7.6c4.9-4.8,7.6-11.5,7.6-18.4
		C793.8,381,791.1,374.3,786.2,369.5z"/>
	<path fill="#FFFFFF" d="M32.2,361.9c-6.8,0-13.5,2.8-18.4,7.6c-4.8,4.8-7.6,11.5-7.6,18.4c0,6.9,2.8,13.5,7.6,18.4
		c4.8,4.9,11.5,7.6,18.4,7.6s13.5-2.8,18.4-7.6c4.8-4.8,7.6-11.5,7.6-18.4c0-6.8-2.8-13.5-7.6-18.4C45.7,364.7,39,361.9,32.2,361.9z
		"/>
	<path fill="#FFFFFF" d="M130,159.9c6.8,0,13.5-2.8,18.4-7.6c4.8-4.8,7.6-11.5,7.6-18.4c0-6.8-2.8-13.5-7.6-18.4
		c-4.8-4.9-11.5-7.6-18.4-7.6c-6.9,0-13.5,2.8-18.4,7.6c-4.8,4.8-7.6,11.5-7.6,18.4c0,6.9,2.8,13.6,7.6,18.4
		C116.5,157.1,123.1,159.9,130,159.9z"/>
	<path fill="#FFFFFF" d="M670,159.9c6.8,0,13.5-2.8,18.4-7.6c4.8-4.8,7.6-11.5,7.6-18.4c0-6.8-2.8-13.5-7.6-18.4
		c-4.8-4.9-11.5-7.6-18.4-7.6c-6.9,0-13.6,2.8-18.4,7.6c-4.9,4.8-7.6,11.5-7.6,18.4c0,6.9,2.8,13.5,7.6,18.4
		C656.5,157.1,663.2,159.9,670,159.9z"/>
	<path fill="#FFFFFF" d="M148.4,677.6c4.8-4.8,7.6-11.5,7.6-18.4c0-6.9-2.8-13.6-7.6-18.4c-4.8-4.8-11.5-7.6-18.4-7.6
		c-6.8,0-13.5,2.8-18.4,7.6c-4.9,4.9-7.6,11.5-7.6,18.4c0,6.8,2.8,13.5,7.6,18.4c4.8,4.8,11.5,7.6,18.4,7.6
		C136.8,685.2,143.6,682.4,148.4,677.6z"/>
	<path fill="#FFFFFF" d="M670,633.2c-6.9,0-13.5,2.8-18.4,7.6c-4.8,4.8-7.6,11.5-7.6,18.4c0,6.8,2.8,13.5,7.6,18.4
		c4.8,4.8,11.5,7.6,18.4,7.6c6.8,0,13.5-2.8,18.4-7.6c4.8-4.9,7.6-11.5,7.6-18.4c0-6.9-2.8-13.5-7.6-18.4
		C683.6,636,676.9,633.2,670,633.2z"/>
	<path fill="#FFFFFF" d="M400,52c6.8,0,13.5-2.8,18.4-7.6c4.8-4.9,7.6-11.5,7.6-18.4c0-6.8-2.8-13.5-7.6-18.4
		C413.6,2.8,406.8,0,400,0c-6.8,0-13.5,2.8-18.4,7.6c-4.8,4.8-7.6,11.5-7.6,18.4c0,6.9,2.8,13.5,7.6,18.4
		C386.5,49.2,393.2,52,400,52z"/>
</g>
</svg>
