<?xml version="1.0" encoding="utf-8"?>
<!-- Generator: Adobe Illustrator 17.1.0, SVG Export Plug-In . SVG Version: 6.00 Build 0)  -->
<!DOCTYPE svg PUBLIC "-//W3C//DTD SVG 1.1//EN" "http://www.w3.org/Graphics/SVG/1.1/DTD/svg11.dtd">
<svg version="1.1" id="Capa_1" xmlns="http://www.w3.org/2000/svg" xmlns:xlink="http://www.w3.org/1999/xlink" x="0px" y="0px"
	 viewBox="0 0 31.3 31.3" enable-background="new 0 0 31.3 31.3" xml:space="preserve">
<g>
	<path fill="#FFFFFF" d="M28.3,0c-1,0-1.8,0.8-1.8,1.8v2.1c-0.1,0-0.1,0-0.2,0h-1.4V3c0-0.7-0.6-1.3-1.3-1.3S22.4,2.3,22.4,3v0.9H9
		V3c0-0.7-0.6-1.3-1.3-1.3C7.1,1.7,6.5,2.3,6.5,3v0.9H4.9c-0.1,0-0.1,0-0.2,0V1.8C4.8,0.8,4,0,2.9,0S1.1,0.8,1.1,1.8v27.6
		c0,1,0.8,1.8,1.8,1.8s1.8-0.8,1.8-1.8v-2.1c0.1,0,0.1,0,0.2,0h13.5v1c0,0.7,0.6,1.3,1.3,1.3c0.7,0,1.3-0.6,1.3-1.3v-1h1.3v1
		c0,0.7,0.6,1.3,1.3,1.3s1.3-0.6,1.3-1.3v-1h1.4c0.1,0,0.1,0,0.2,0v2.1c0,1,0.8,1.8,1.8,1.8s1.8-0.8,1.8-1.8V1.8
		C30.2,0.8,29.3,0,28.3,0z M26.5,25.4c-0.1,0-0.1,0-0.2,0h-1.4v-0.9c0-0.7-0.6-1.3-1.3-1.3s-1.3,0.6-1.3,1.3v0.9H21v-0.9
		c0-0.7-0.6-1.3-1.3-1.3c-0.7,0-1.3,0.6-1.3,1.3v0.9H4.9c-0.1,0-0.1,0-0.2,0v-5.2c0.1,0,0.1,0,0.2,0h1.5v1.2c0,0.7,0.6,1.3,1.3,1.3
		c0.7,0,1.3-0.6,1.3-1.3v-1.2h1.3v1.2c0,0.7,0.6,1.3,1.3,1.3c0.7,0,1.3-0.6,1.3-1.3v-1.2h1.6v1.2c0,0.7,0.6,1.3,1.3,1.3
		c0.7,0,1.3-0.6,1.3-1.3v-1.2h1.3v1.2c0,0.7,0.6,1.3,1.3,1.3c0.7,0,1.3-0.6,1.3-1.3v-1.2h5.2c0.1,0,0.1,0,0.2,0L26.5,25.4
		C26.5,25.4,26.5,25.4,26.5,25.4z M26.5,18.2c-0.1,0-0.1,0-0.2,0h-5.2v-0.8c0-0.7-0.6-1.3-1.3-1.3s-1.3,0.6-1.3,1.3v0.8h-1.3v-0.8
		c0-0.7-0.6-1.3-1.3-1.3c-0.7,0-1.3,0.6-1.3,1.3v0.8H13v-0.8c0-0.7-0.6-1.3-1.3-1.3c-0.7,0-1.3,0.6-1.3,1.3v0.8H9v-0.8
		c0-0.7-0.6-1.3-1.3-1.3c-0.7,0-1.3,0.6-1.3,1.3v0.8H4.9c-0.1,0-0.1,0-0.2,0V13c0.1,0,0.1,0,0.2,0h1.5v1c0,0.7,0.6,1.3,1.3,1.3
		C8.5,15.3,9,14.7,9,14v-1h1.3v1c0,0.7,0.6,1.3,1.3,1.3c0.7,0,1.3-0.6,1.3-1.3v-1h13.3c0.1,0,0.1,0,0.2,0L26.5,18.2L26.5,18.2z
		 M26.5,11.1c-0.1,0-0.1,0-0.2,0H13v-0.9c0-0.7-0.6-1.3-1.3-1.3c-0.7,0-1.3,0.6-1.3,1.3V11H9v-0.9c0-0.7-0.6-1.3-1.3-1.3
		c-0.7,0-1.3,0.6-1.3,1.3V11H4.9c-0.1,0-0.1,0-0.2,0V5.9c0.1,0,0.1,0,0.2,0h1.5v1c0,0.7,0.6,1.3,1.3,1.3C8.5,8.2,9,7.6,9,6.9v-1
		h13.3v1c0,0.7,0.6,1.3,1.3,1.3s1.3-0.6,1.3-1.3v-1h1.4c0.1,0,0.1,0,0.2,0L26.5,11.1L26.5,11.1z"/>
</g>
</svg>
