<?xml version="1.0" encoding="utf-8"?>
<!-- Generator: Adobe Illustrator 17.1.0, SVG Export Plug-In . SVG Version: 6.00 Build 0)  -->
<!DOCTYPE svg PUBLIC "-//W3C//DTD SVG 1.1//EN" "http://www.w3.org/Graphics/SVG/1.1/DTD/svg11.dtd">
<svg version="1.1" id="Capa_1" xmlns="http://www.w3.org/2000/svg" xmlns:xlink="http://www.w3.org/1999/xlink" x="0px" y="0px"
	 viewBox="0 0 800 800" enable-background="new 0 0 800 800" xml:space="preserve">
<g>
	<path fill="#FFFFFF" d="M349.6,213.9l50.4-87.7l115.1,200.2l-51.6,30.7c-9.3,5.5-14.6,15.8-13.8,26.6c0.9,10.8,7.8,20.1,17.8,24.1
		l151.9,59.8c9.2,3.6,19.7,2.2,27.5-3.8c6.1-4.6,10-11.5,10.9-19l20.1-162c1.3-10.7-3.5-21.2-12.6-27.2c-9-5.9-20.7-6.2-29.9-0.6
		l-50.5,30L435.2,24.3C419.9-2.3,382-2.8,365.8,22.7c-1.2,1.8,2-3.6-88,153c14.8,1.6,29.2,6.2,42.2,13.5
		C331.3,195.6,341.3,204,349.6,213.9z"/>
	<path fill="#FFFFFF" d="M317.5,442L294,280.5c-1.2-8.5-6.3-16.2-14.1-20.6c-7.6-4.3-16.7-4.9-24.9-1.5l-150.6,63
		c-9.9,4.1-16.7,13.5-17.3,24.4c-0.6,10.8,4.9,21,14.3,26.3l47.9,27.1L5.5,649.5c-15.8,27.4,4.6,61.1,35.4,60.9h193.8
		c-5.7-13.4-8.8-27.9-8.8-42.7c0-13.3,2.5-26.3,7.1-38.5H110.9L220,439.3l55.5,31.4c9.4,5.3,21,4.8,29.9-1.3
		C314.4,463.4,319,452.7,317.5,442z"/>
	<path fill="#FFFFFF" d="M794.5,649.5l-79.9-139.1c-8,9.8-17.7,18.3-28.8,24.9c-13,7.7-27.4,12.6-42.3,14.5l45.6,79.3
		c-92.9,0-105.2,0-196.3,0v-61.5c0-10.8-6.1-20.7-15.8-25.4c-9.7-4.7-21.2-3.6-29.8,3l-129,100c-6.8,5.3-11,13.5-11,22.4
		c0,8.7,4,17,11,22.4l129,100c8.5,6.6,20.1,7.8,29.8,3c9.7-4.8,15.8-14.6,15.8-25.4v-57.3c40.4,0,236.7,0,266.5,0
		C790.2,710.4,810.2,676.8,794.5,649.5z"/>
</g>
</svg>
