<?xml version="1.0" encoding="utf-8"?>
<!-- Generator: Adobe Illustrator 17.1.0, SVG Export Plug-In . SVG Version: 6.00 Build 0)  -->
<!DOCTYPE svg PUBLIC "-//W3C//DTD SVG 1.1//EN" "http://www.w3.org/Graphics/SVG/1.1/DTD/svg11.dtd">
<svg version="1.1" id="Capa_1" xmlns="http://www.w3.org/2000/svg" xmlns:xlink="http://www.w3.org/1999/xlink" x="0px" y="0px"
	 viewBox="0 0 545.1 545.1" enable-background="new 0 0 545.1 545.1" xml:space="preserve">
<g>
	<g id="iconos_1_">
		<path fill="#FFFFFF" d="M540.3,516.4h-28.7v-28.7h28.7V459H380.6L295,384.5c0.6-1.3,1.2-2.7,1.8-4.1c6.2-16.3,5.6-30.8,18.1-31.6
			c14.1-0.9,13.4-21.4-6.8-20.8c-7.5,0.2-16.1,3.1-25.6,17.1c-3.5,5.1-6.4,12.7-11.3,18.7l-9.7-8.5c-3.6-3.1-9-3.1-12.5,0
			l-13.5,11.7c-7.4-6.8-10.6-18.6-10.6-31.5c0-14.6,8.1-32.2,22.7-32.2c14.6,0,25,2.9,25,2.9v-67.2H263V0h-19.1v239.1h-9.6v44.3
			c-28.7,1.8-39,23.9-39,55.6c0,18.3,3.4,37.4,14.8,50.2L129.8,459H4.8v28.7h19.1v28.7H4.8v28.7h535.5V516.4z M226.2,400.5
			c6.5,2.7,14.2,4.2,23.4,4.2c15.4,0,25.5-2.3,32.5-6.1l69.4,60.4H158.9L226.2,400.5z"/>
	</g>
</g>
</svg>
