<?xml version="1.0" encoding="utf-8"?>
<!-- Generator: Adobe Illustrator 17.1.0, SVG Export Plug-In . SVG Version: 6.00 Build 0)  -->
<!DOCTYPE svg PUBLIC "-//W3C//DTD SVG 1.1//EN" "http://www.w3.org/Graphics/SVG/1.1/DTD/svg11.dtd">
<svg version="1.1" id="Capa_1" xmlns="http://www.w3.org/2000/svg" xmlns:xlink="http://www.w3.org/1999/xlink" x="0px" y="0px"
	 viewBox="0 0 98 98" enable-background="new 0 0 98 98" xml:space="preserve">
<g>
	<g id="iconos_35_">
		<path fill="#FFFFFF" d="M33.8,74.9c0-6.8-5.5-12.3-12.3-12.3c-6.8,0-12.3,5.5-12.3,12.3c0,6.8,5.5,12.3,12.3,12.3
			C28.3,87.1,33.8,81.6,33.8,74.9z M17.5,74.9c0-2.2,1.8-4,4-4s4,1.8,4,4c0,2.2-1.8,4-4,4C19.3,78.9,17.5,77.1,17.5,74.9z"/>
		<path fill="#FFFFFF" d="M63,33.6v25c0,0,0.7-0.2,4-0.2c7.5,0,11.3,3.7,13.2,6.6c1-1,2.3-1.6,3.8-1.6h12.3V45l-7.4-11.4H63z
			 M91,52.9H77v-14h10.5l3.5,5.6V52.9z"/>
		<path fill="#FFFFFF" d="M5.1,51.1c0,0,28.9,5.4,32.7,19.2h13.2c0,0,1.6-8.8,8.4-11.2V30.1h30.8l5.1-7H56l-4.8,10.5H0v7h5.3
			L5.1,51.1z"/>
		<path fill="#FFFFFF" d="M84,66.9c-0.8,0-1.5,0.6-1.7,1.3c0,0.1-0.1,0.3-0.1,0.4v3.5c0,1,0.8,1.8,1.8,1.8h12.3c1,0,1.8-0.8,1.8-1.8
			v-3.5c0-1-0.8-1.8-1.8-1.8H84z"/>
		<path fill="#FFFFFF" d="M79.3,74.9c0-0.2,0-0.3,0-0.5c0-1.1-0.2-2.1-0.5-3.1c-1.5-5-6.2-8.6-11.7-8.6c-6.8,0-12.3,5.5-12.3,12.3
			c0,6.8,5.5,12.3,12.3,12.3S79.3,81.6,79.3,74.9z M63,74.9c0-2.2,1.8-4,4-4c2.2,0,4,1.8,4,4c0,2.2-1.8,4-4,4
			C64.8,78.9,63,77.1,63,74.9z"/>
		<polygon fill="#FFFFFF" points="51.9,22.3 50.1,17.9 44.8,17.9 40.3,10.9 33.5,10.9 26.3,19.6 20.7,19.6 15.8,24.9 12,24.9 
			6.1,30.1 48.1,30.1 		"/>
	</g>
</g>
</svg>
