<?xml version="1.0" encoding="utf-8"?>
<!-- Generator: Adobe Illustrator 17.1.0, SVG Export Plug-In . SVG Version: 6.00 Build 0)  -->
<!DOCTYPE svg PUBLIC "-//W3C//DTD SVG 1.1//EN" "http://www.w3.org/Graphics/SVG/1.1/DTD/svg11.dtd">
<svg version="1.1" id="Capa_1" xmlns="http://www.w3.org/2000/svg" xmlns:xlink="http://www.w3.org/1999/xlink" x="0px" y="0px"
	 viewBox="0 0 30.8 30.8" enable-background="new 0 0 30.8 30.8" xml:space="preserve">
<g>
	<g>
		<path fill="#FFFFFF" d="M24.6,27.4c-1.1-0.4-2.3-0.6-3.7-0.6c-3.3,0-6.5,1.3-7.5,1.7v-6.1l0.4,0.5v-9.2c1.7-1.4,3.7-2.2,6.1-2.3
			l0.5-0.8c-2.8,0-5.2,0.9-7.1,2.5c-2-1.7-4.4-2.5-7.1-2.5c-2.6,0-4.6,0.8-4.6,0.8l-0.2,0.1V13C0.5,13.1,0,13.4,0,13.8
			c0,2.2,0,15.9,0,15.9h11.7c0.4,0.4,1,0.6,1.7,0.6s1.3-0.2,1.7-0.6h11.4c0,0,0-14.9,0-15.8l-1.8,3.7V27.4z M13.2,28.4
			c-1-0.4-4.3-1.7-7.7-1.7C4.2,26.8,3,27,2,27.4V12c0.6-0.2,2.2-0.7,4.1-0.7c2.6,0,4.8,0.8,6.6,2.3v9.2l0.4-0.5
			C13.2,22.3,13.2,28.4,13.2,28.4z"/>
		<path fill="#FFFFFF" d="M3.5,14l0.2,0.6c3.9-1,7.5,0.9,7.5,0.9l0.3-0.5C11.4,14.9,7.7,12.9,3.5,14z"/>
		<path fill="#FFFFFF" d="M3.5,15.7l0.2,0.6c3.9-1,7.5,0.9,7.5,0.9l0.3-0.5C11.4,16.6,7.7,14.6,3.5,15.7z"/>
		<path fill="#FFFFFF" d="M3.5,17.4L3.7,18c3.9-1,7.5,0.9,7.5,0.9l0.3-0.5C11.4,18.2,7.7,16.3,3.5,17.4z"/>
		<path fill="#FFFFFF" d="M3.5,19.1l0.2,0.6c3.9-1,7.5,0.9,7.5,0.9l0.3-0.5C11.4,20,7.7,18,3.5,19.1z"/>
		<path fill="#FFFFFF" d="M3.5,20.8l0.2,0.6c3.9-1,7.5,0.9,7.5,0.9l0.3-0.5C11.4,21.7,7.7,19.7,3.5,20.8z"/>
		<path fill="#FFFFFF" d="M3.5,22.5l0.2,0.6c3.9-1,7.5,0.9,7.5,0.9l0.3-0.5C11.4,23.4,7.7,21.4,3.5,22.5z"/>
		<path fill="#FFFFFF" d="M3.5,24.2l0.2,0.6c3.9-1,7.5,0.9,7.5,0.9l0.3-0.5C11.4,25.1,7.7,23.1,3.5,24.2z"/>
		<path fill="#FFFFFF" d="M26.3,0.5l-1.8,3.8l0,0l-5.7,11.8l-0.5,6.2l4.9-4L29,6.5l0,0l1.8-3.8L26.3,0.5z M22.9,18l-2.8,2.3L19,19.7
			l0.3-3.5l0.3-0.5l0.5,1.8l1.1-0.7l0.2,1.4l1.7-0.6L22.9,18z M28.9,4.5l-2.8-1.4l0.7-1.4l2.8,1.4L28.9,4.5z"/>
	</g>
</g>
</svg>
