<?xml version="1.0" encoding="utf-8"?>
<!-- Generator: Adobe Illustrator 17.1.0, SVG Export Plug-In . SVG Version: 6.00 Build 0)  -->
<!DOCTYPE svg PUBLIC "-//W3C//DTD SVG 1.1//EN" "http://www.w3.org/Graphics/SVG/1.1/DTD/svg11.dtd">
<svg version="1.1" id="Capa_1" xmlns="http://www.w3.org/2000/svg" xmlns:xlink="http://www.w3.org/1999/xlink" x="0px" y="0px"
	 viewBox="0 0 46.1 46.1" enable-background="new 0 0 46.1 46.1" xml:space="preserve">
<g>
	<g>
		<path fill="#FFFFFF" d="M40.3,1.3c0.3,0.5,0.5,1,0.5,1.5c0.1,1-0.2,2.1-0.8,2.9c1.1,0.7,1.9,2,1.9,3.4v15.5c0,2-1.6,3.6-3.6,3.6
			H7.8c-2,0-3.6-1.6-3.6-3.6V9.1c0-2.2,1.8-4,4-4h18.3l3.3-4.2H8.2C3.7,0.9,0,4.6,0,9.1v20.7c0,4.5,3.7,8.2,8.2,8.2h9.6v4.2h-4.6
			c-1.8,0-3.3,1.5-3.3,3.4h26.4c0-1.9-1.5-3.4-3.3-3.4h-4.6v-4.2h9.5c4.5,0,8.2-3.7,8.2-8.2V9.1C46.1,5.5,43.7,2.3,40.3,1.3z
			 M23.1,35.2c-1.4,0-2.5-1.1-2.5-2.5c0-1.4,1.1-2.5,2.5-2.5c1.4,0,2.5,1.1,2.5,2.5C25.6,34,24.4,35.2,23.1,35.2z"/>
		<path fill="#FFFFFF" d="M24,21.2L37.6,3.9c0.2-0.2,0.2-0.5,0.2-0.8s-0.2-0.5-0.4-0.7l-2.3-1.8c-0.2-0.1-0.4-0.2-0.6-0.2
			c-0.3,0-0.6,0.1-0.8,0.4L20.1,18.1L24,21.2z"/>
		<path fill="#FFFFFF" d="M18.8,19.7c0,0.1-0.1,0.1-0.1,0.2l-0.9,4.5c0,0.2,0,0.3,0.2,0.4c0.1,0.1,0.2,0.1,0.3,0.1
			c0.1,0,0.1,0,0.2,0l4.1-1.9c0.1,0,0.1-0.1,0.2-0.1l0,0L18.8,19.7L18.8,19.7z"/>
	</g>
</g>
</svg>
