<?xml version="1.0" encoding="utf-8"?>
<!-- Generator: Adobe Illustrator 17.1.0, SVG Export Plug-In . SVG Version: 6.00 Build 0)  -->
<!DOCTYPE svg PUBLIC "-//W3C//DTD SVG 1.1//EN" "http://www.w3.org/Graphics/SVG/1.1/DTD/svg11.dtd">
<svg version="1.1" id="Capa_1" xmlns="http://www.w3.org/2000/svg" xmlns:xlink="http://www.w3.org/1999/xlink" x="0px" y="0px"
	 viewBox="0 0 800 800" enable-background="new 0 0 800 800" xml:space="preserve">
<g>
	<g>
		<path fill="#FFFFFF" d="M787.3,348.8L423.7,36.1c-13.6-11.7-33.8-11.7-47.4,0L12.7,348.8c-15.2,13.1-16.9,36.1-3.9,51.3
			c13.1,15.2,36.1,16.9,51.3,3.9L400,111.6l339.9,292.3c6.9,5.9,15.3,8.8,23.7,8.8c10.2,0,20.4-4.3,27.6-12.6
			C804.3,384.8,802.6,361.9,787.3,348.8z"/>
		<polygon fill="#FFFFFF" points="298,772.7 298,683.7 278.1,772.7 		"/>
		<polygon fill="#FFFFFF" points="502,772.7 521.9,772.7 502,683.7 		"/>
		<path fill="#FFFFFF" d="M411.9,162.6c-6.8-5.9-16.9-5.9-23.8,0l-274,236.4c-4,3.4-6.3,8.5-6.3,13.8v341.8c0,10,8.1,18.2,18.2,18.2
			h77.5l44.6-199.6c2.2-9.6,8-18.3,17.3-23.6c2.3-1.3,53.5-29.5,120.7-33.2l9.1,18.2h0.3l-24.6,191.2l26.9,47h4.5l26.9-47
			l-24.6-191.2h0.2l9.1-18.2c67.2,3.7,118.4,31.9,120.7,33.2c9.3,5.3,15.1,14,17.3,23.6l44.6,199.6H674c10.1,0,18.2-8.1,18.2-18.2
			V412.7c0-5.3-2.3-10.3-6.3-13.8L411.9,162.6z M400,508.2c-50.9,0-92.2-59-92.2-109.9s41.3-92.2,92.2-92.2
			c50.9,0,92.2,41.3,92.2,92.2S450.9,508.2,400,508.2z"/>
	</g>
</g>
</svg>
