<?xml version="1.0" encoding="utf-8"?>
<!-- Generator: Adobe Illustrator 17.1.0, SVG Export Plug-In . SVG Version: 6.00 Build 0)  -->
<!DOCTYPE svg PUBLIC "-//W3C//DTD SVG 1.1//EN" "http://www.w3.org/Graphics/SVG/1.1/DTD/svg11.dtd">
<svg version="1.1" id="Capa_1" xmlns="http://www.w3.org/2000/svg" xmlns:xlink="http://www.w3.org/1999/xlink" x="0px" y="0px"
	 viewBox="0 0 800 800" enable-background="new 0 0 800 800" xml:space="preserve">
<g>
	<g>
		<path fill="#FFFFFF" d="M695.1,224.4c-3.3-5.4-7-8.1-11.4-8.1h-82.9V32.5c0-8.7-3.3-16.3-9.8-22.8C584.6,3.3,576.7,0,567.5,0
			s-17.1,3.3-23.6,9.8c-6.5,6.5-9.8,14.1-9.8,22.8v183.7H267.5V32.5c0-8.7-3.3-16.3-9.8-22.8S243.4,0,234.1,0
			c-9.2,0-17.1,3.3-23.6,9.8c-6.5,6.5-9.8,14.1-9.8,22.8v183.7h-82.9c-4.3,0-8.4,2.7-12.2,8.1s-5.7,10.8-5.7,16.3v79.7
			c0,20.6,8.7,45.5,26,74.8c17.3,29.3,36.6,56.9,57.7,82.9c21.1,26,40.4,57.7,57.7,95.1s26,73.4,26,108.1v52h66.7V800h133.3v-66.7
			h66.7v-52c0-34.7,8.7-70.7,26-108.1s36.3-69.1,56.9-95.1c20.6-26,39.6-53.7,56.9-82.9c17.3-29.3,26-54.2,26-74.8v-79.7
			C700,235.2,698.4,229.8,695.1,224.4z M491.9,439C403,553.9,357.5,612.5,355.3,614.6c-1.1,2.2-1.9,2.7-2.4,1.6
			c-0.5-1.1-0.8-2.7-0.8-4.9l30.9-122c1.1-4.3-0.5-6.5-4.9-6.5h-65c-4.3,0-5.4-1.6-3.3-4.9c88.9-112.7,134.4-170.2,136.6-172.4
			c1.1-1.1,1.9-1.6,2.4-1.6s0.8,1.1,0.8,3.3l-29.3,120.3c-2.2,3.3-1.1,4.9,3.3,4.9h65C494,432.5,495.1,434.7,491.9,439z"/>
	</g>
</g>
</svg>
