<?xml version="1.0" encoding="utf-8"?>
<!-- Generator: Adobe Illustrator 17.1.0, SVG Export Plug-In . SVG Version: 6.00 Build 0)  -->
<!DOCTYPE svg PUBLIC "-//W3C//DTD SVG 1.1//EN" "http://www.w3.org/Graphics/SVG/1.1/DTD/svg11.dtd">
<svg version="1.1" id="Capa_1" xmlns="http://www.w3.org/2000/svg" xmlns:xlink="http://www.w3.org/1999/xlink" x="0px" y="0px"
	 viewBox="0 0 53.7 53.7" enable-background="new 0 0 53.7 53.7" xml:space="preserve">
<g>
	<g>
		<path fill="#FFFFFF" d="M10.2,19.7h40.8c0.1,0,0.1,0,0.2,0v-3h-41C10.2,16.7,10.2,19.7,10.2,19.7z"/>
		<path fill="#FFFFFF" d="M40,42.7c1.5,1.5,2.5,3.1,2.7,5h4.2c-0.1-1.8-0.7-3.5-1.6-5c-0.2-0.3-0.4-0.7-0.7-1l6.6,0
			c0.8,0,1-0.1,1-0.1l0-8.5c0-2.2-0.5-11.3-1.3-12.4H9.9C9.6,21,9.2,22,8.8,23.3c-0.3-0.2-0.6-0.4-0.9-0.6c0,0-0.1-0.1-0.1-0.1
			C3,18.9,8,15.2,11.8,12.8c-0.1,0.9-0.2,1.9-0.2,2.9h38.7c0-15-3-15.7-14.1-15.7c-7.4,0-15.9,0.7-20.7,4.7h-0.6
			c-1.9,0-2.7,1.1-2.7,2.5v0.5c0,0.1-0.4,0.1-0.5,0.2c-3.9,2.3-9.8,5.7-10.3,10.9c-0.3,3.7,2.3,6.3,5.2,8.2c0.3,0.2,0.6,0.4,0.9,0.6
			c-0.7,2.6-1.3,5.1-1.3,5.6v8.5c0,0.1,0.2,0.1,0.6,0.1l0.7,0l31.3,0C39.2,42,39.6,42.4,40,42.7z M33.9,3.1
			c5.9-0.2,10.7,1.8,10.8,3.6c0.1,1.8-4.7,1.5-10.6,1.6S23.4,8.6,23.4,6.7C23.3,4.8,28,3.2,33.9,3.1z"/>
		<path fill="#FFFFFF" d="M50.2,48.7h-11c-1.1,0-2,1.1-2,2.5c0,1.4,0.9,2.5,2,2.5h11c1.1,0,2-1.1,2-2.5
			C52.2,49.8,51.4,48.7,50.2,48.7z"/>
	</g>
</g>
</svg>
