<?xml version="1.0" encoding="utf-8"?>
<!-- Generator: Adobe Illustrator 17.1.0, SVG Export Plug-In . SVG Version: 6.00 Build 0)  -->
<!DOCTYPE svg PUBLIC "-//W3C//DTD SVG 1.1//EN" "http://www.w3.org/Graphics/SVG/1.1/DTD/svg11.dtd">
<svg version="1.1" id="Capa_1" xmlns="http://www.w3.org/2000/svg" xmlns:xlink="http://www.w3.org/1999/xlink" x="0px" y="0px"
	 viewBox="0 0 798.3 798.3" enable-background="new 0 0 798.3 798.3" xml:space="preserve">
<g>
	<g>
		<path fill="#FFFFFF" d="M624.6,303.3c0,0,42,2.8,44.8,47.6c0,0,36.4-77,109.2-23.8h19.6C798.3,327.1,747.8,192.7,624.6,303.3z"/>
		<path fill="#FFFFFF" d="M669.4,413.2c-2.8,44.8-44.8,47.6-44.8,47.6c123.2,110.6,173.6-23.8,173.6-23.8h-19.6
			C705.8,490.3,669.4,413.2,669.4,413.2z"/>
		<path fill="#FFFFFF" d="M509.8,373.4c0,0,2.8-66.1,58.8-68.1L403.3,146.5c0,0-18.2,89.6-72.8,95.2L509.8,373.4z"/>
		<path fill="#FFFFFF" d="M238.8,433.6l60.9-173.9c-100.8,26.3-121.8-60-121.8-60l-74.2,173.7C187.7,349.6,238.8,433.6,238.8,433.6z
			"/>
		<path fill="#FFFFFF" d="M658.2,373.4c0-33.3-27-60.2-60.2-60.2c-33.3,0-60.2,27-60.2,60.2c0,33.2,27,60.2,60.2,60.2
			C631.2,433.6,658.2,406.6,658.2,373.4z M571.4,373.4c0-14.7,11.9-26.6,26.6-26.6c14.7,0,26.6,11.9,26.6,26.6
			c0,14.7-11.9,26.6-26.6,26.6C583.3,400,571.4,388,571.4,373.4z"/>
		<path fill="#FFFFFF" d="M204.6,146.5c0,44.2,35.8,80.1,80.1,80.1c44.2,0,80.1-35.9,80.1-80.1c0-44.2-35.9-80.1-80.1-80.1
			C240.4,66.4,204.6,102.2,204.6,146.5z M284.6,111.1c19.5,0,35.4,15.9,35.4,35.4c0,19.5-15.8,35.4-35.4,35.4
			c-19.5,0-35.4-15.9-35.4-35.4C249.3,126.9,265.1,111.1,284.6,111.1z"/>
		<path fill="#FFFFFF" d="M60.3,493.3c0,44.2,35.9,80.1,80.1,80.1c44.2,0,80.1-35.9,80.1-80.1c0-44.2-35.8-80.1-80.1-80.1
			C96.2,413.2,60.3,449.1,60.3,493.3z M140.4,457.9c19.5,0,35.4,15.9,35.4,35.4c0,19.5-15.9,35.4-35.4,35.4
			c-19.6,0-35.4-15.9-35.4-35.4C105,473.8,120.9,457.9,140.4,457.9z"/>
		<path fill="#FFFFFF" d="M0,731.9h264.7l-44.2-158.5c0,0-67.6,79.6-160.1,0L0,731.9z"/>
	</g>
</g>
</svg>
