<?xml version="1.0" encoding="utf-8"?>
<!-- Generator: Adobe Illustrator 17.1.0, SVG Export Plug-In . SVG Version: 6.00 Build 0)  -->
<!DOCTYPE svg PUBLIC "-//W3C//DTD SVG 1.1//EN" "http://www.w3.org/Graphics/SVG/1.1/DTD/svg11.dtd">
<svg version="1.1" id="Capa_1" xmlns="http://www.w3.org/2000/svg" xmlns:xlink="http://www.w3.org/1999/xlink" x="0px" y="0px"
	 viewBox="0 0 85.1 85.1" enable-background="new 0 0 85.1 85.1" xml:space="preserve">
<g>
	<path fill="#FFFFFF" d="M25.2,20.6c0-0.3-0.9-2.8-0.9-3c0-0.3,1-0.7,1-1c0.6-8.4,5.2-14.2,11.4-16.4v7.1c0,4.1,2.7,7.4,6,7.4
		c3.3,0,6-3.3,6-7.4V0.3c7.8,3.2,10.7,12.1,11.6,16.5c0.1,0.3,0.7,0.2,0.8,0.5c0.1,0.9-1.4,3.3-1.4,3.3c-3.6,1.8-6.7,3.8-10.4,4.2
		l-13.5-0.1C29.8,23.8,25.2,20.6,25.2,20.6z M49.4,27.3l-0.1,0l-14.1-0.1c-4.1-0.7-7.6-2.4-9.6-3.5c1.1,8.4,8.3,14.9,17,14.9
		c8.9,0,16.2-6.7,17.1-15.3c-0.5,0.2-0.9,0.5-1.4,0.7C55.6,25.4,52.7,26.9,49.4,27.3z M71.9,61.8v17.9h-0.1l-1.2,0.6
		c-0.6,0.3-10,4.9-26.2,4.9c-8.3,0-18.4-1.2-30-4.8l-1.2-0.4l0-0.3V61.8c0-12.2,9.9-22,22-22h14.6C62,39.7,71.9,49.6,71.9,61.8z
		 M46.7,76l-1.9-26.9c0-0.1-0.1-0.3-0.3-0.3h-3.6c-0.1,0-0.3,0.1-0.3,0.3L38.8,76c0,0.1,0,0.1,0,0.2l3.5,5.5c0,0.1,0.1,0.1,0.2,0.1
		c0,0,0,0,0,0c0.1,0,0.2,0,0.2-0.1l3.8-5.5C46.7,76.2,46.7,76.1,46.7,76z M47.6,44.5c0-0.6-0.5-1.1-1.1-1.1h-7.5
		c-0.6,0-1.1,0.5-1.1,1.1l3.1,6.5h3.6L47.6,44.5z M42.6,13.9c-3,0-5.5-3-5.5-6.6V0H48v7.3C48,10.9,45.6,13.9,42.6,13.9z M38.1,1v6.3
		c0,3.1,2,5.6,4.5,5.6c2.5,0,4.5-2.5,4.5-5.6V1H38.1z"/>
</g>
</svg>
