<?xml version="1.0" encoding="utf-8"?>
<!-- Generator: Adobe Illustrator 17.1.0, SVG Export Plug-In . SVG Version: 6.00 Build 0)  -->
<!DOCTYPE svg PUBLIC "-//W3C//DTD SVG 1.1//EN" "http://www.w3.org/Graphics/SVG/1.1/DTD/svg11.dtd">
<svg version="1.1" id="Capa_1" xmlns="http://www.w3.org/2000/svg" xmlns:xlink="http://www.w3.org/1999/xlink" x="0px" y="0px"
	 viewBox="0 0 800 800" enable-background="new 0 0 800 800" xml:space="preserve">
<g>
	<g id="b4_grapes">
		<path fill="#FFFFFF" d="M726.2,303.7c0-36.1-29.3-65.3-65.3-65.3c-3.3,0-6.6,0.5-9.9,1c5.9-9.9,9.6-21.3,9.6-33.7
			c0-36.1-29.2-65.3-65.3-65.3c-35.4,0-64,28.2-65.1,63.3c-1.2-35.1-29.8-63.3-65.1-63.3c-36.1,0-65.3,29.2-65.3,65.3
			c0-36.1-29.2-65.3-65.3-65.3c-36.1,0-65.3,29.2-65.3,65.3c0-36.1-29.2-65.3-65.3-65.3c-36,0-65.3,29.2-65.3,65.3
			c0,12.3,3.6,23.7,9.5,33.5c-3-0.4-5.9-0.9-9-0.9c-36,0-65.3,29.2-65.3,65.3c0,36,29.2,65.3,65.3,65.3c5.1,0,10-0.7,14.7-1.8
			c-9.1,11.3-14.8,25.4-14.8,41c0,36,29.2,65.3,65.3,65.3c6.6,0,12.9-1.3,18.9-3.1c-11.5,11.8-18.6,27.8-18.6,45.6
			c0,36.1,29.2,65.3,65.3,65.3c8.7,0,16.9-1.8,24.4-4.8c-14.8,12-24.4,30-24.4,50.5c0,36.1,29.3,65.3,65.3,65.3
			c6.4,0,12.6-1.2,18.5-3c-11.5,11.8-18.5,27.7-18.5,45.5c0,36.1,29.2,65.3,65.3,65.3c36.1,0,65.3-29.2,65.3-65.3
			c0-17.7-7.1-33.7-18.5-45.5c5.9,1.8,12,3,18.5,3c36.1,0,65.3-29.2,65.3-65.3c0-20.5-9.6-38.5-24.4-50.5c7.5,3,15.8,4.8,24.4,4.8
			c36.1,0,65.3-29.2,65.3-65.3c0-17.6-7-33.4-18.3-45.1c5.6,1.6,11.4,2.7,17.5,2.7c36.1,0,65.3-29.2,65.3-65.3
			c0-15.6-5.7-29.8-14.8-41c4.7,1.1,9.6,1.8,14.7,1.8C696.9,369,726.2,339.7,726.2,303.7z M555.8,217.7c0.2,0.2,15.3,15.8,35.3,15.6
			c11.7-0.3,24.6-3.2,34.9-17.5l6.4,3.4c-12.9,17.9-23.3,31.3-39.4,31.7c-0.4,0-0.7,0-1,0c-26.2,0-41-28.6-41.8-29.6L555.8,217.7z
			 M536.5,319.9c0.2,0.2,15.3,15.8,35.3,15.6c11.7-0.3,24.6-3.2,34.9-17.5l6.4,3.4c-12.8,17.9-23.3,31.3-39.4,31.7c-0.3,0-0.7,0-1,0
			c-26.2,0-40.9-28.6-41.7-29.6L536.5,319.9z M428.3,225.3c0.2,0.2,15.2,15.8,35.2,15.6c11.7-0.3,24.6-3.2,34.9-17.5l6.3,3.4
			c-12.8,17.8-23.3,31.3-39.3,31.7c-0.4,0-0.7,0-1,0c-26.2,0-41-28.6-41.8-29.6L428.3,225.3z M428.3,319.9
			c0.2,0.2,15.2,15.8,35.2,15.6c11.7-0.3,24.6-3.2,34.9-17.5l6.3,3.4c-12.8,17.9-23.3,31.3-39.3,31.7c-0.4,0-0.7,0-1,0
			c-26.2,0-41-28.6-41.8-29.6L428.3,319.9z M409.2,418.9c0.2,0.2,15.3,15.8,35.2,15.6c11.8-0.3,24.6-3.2,34.9-17.5l6.3,3.4
			c-12.9,17.9-23.3,31.4-39.4,31.7c-0.4,0-0.7,0-1,0c-26.2,0-41-28.6-41.8-29.6L409.2,418.9z M403.4,535.8
			c11.7-0.3,24.6-3.2,34.9-17.5l6.3,3.4c-12.9,17.9-23.3,31.3-39.4,31.7c-0.3,0-0.6,0-1,0c-26.2,0-41-28.6-41.8-29.7l5.6-3.5
			C368.3,520.3,383.4,535.9,403.4,535.8z M292.3,221.2l5.6-3.5c0.2,0.2,15.3,15.8,35.3,15.6c11.7-0.3,24.5-3.2,34.9-17.5l6.3,3.4
			c-12.9,17.9-23.3,31.3-39.3,31.7c-0.4,0-0.7,0-1,0C307.8,250.8,293.1,222.2,292.3,221.2z M384.9,321.3
			c-12.9,17.9-23.3,31.3-39.3,31.7c-0.3,0-0.7,0-1,0c-26.2,0-41-28.6-41.8-29.6l5.6-3.5c0.2,0.2,15.3,15.8,35.2,15.6
			c11.8-0.3,24.6-3.2,34.9-17.5L384.9,321.3z M292.1,418.9c0.2,0.2,15.3,15.8,35.3,15.6c11.7-0.3,24.6-3.2,34.9-17.5l6.4,3.4
			c-12.9,17.9-23.3,31.4-39.3,31.7c-0.4,0-0.7,0-1,0c-26.2,0-41-28.6-41.8-29.6L292.1,418.9z M269,317.9l6.4,3.4
			c-12.9,17.9-23.3,31.3-39.4,31.7c-0.4,0-0.7,0-1,0c-26.2,0-40.9-28.6-41.8-29.6l5.6-3.5c0.2,0.2,15.3,15.8,35.3,15.6
			C245.8,335.2,258.7,332.3,269,317.9z M165.5,217.7c0.2,0.2,15.3,15.8,35.3,15.6c11.7-0.3,24.5-3.2,34.9-17.5l6.3,3.4
			c-12.8,17.9-23.3,31.3-39.4,31.7c-0.3,0-0.6,0-1,0c-26.2,0-41-28.6-41.8-29.6L165.5,217.7z M135.7,346.3c-0.3,0-0.6,0-1,0
			c-26.2,0-41-28.6-41.8-29.7l5.6-3.5c0.2,0.2,15.3,15.8,35.3,15.6c11.7-0.3,24.6-3.2,34.9-17.6l6.4,3.4
			C162.2,332.5,151.7,346,135.7,346.3z M209.9,447.3c-0.3,0-0.6,0-1,0c-26.3,0-41-28.6-41.8-29.7l5.7-3.5
			c0.2,0.2,15.3,15.8,35.2,15.6c11.8-0.3,24.6-3.2,34.9-17.5l6.4,3.4C236.4,433.5,225.9,447,209.9,447.3z M284.8,553.3
			c-0.4,0-0.7,0-1,0c-26.2,0-41-28.6-41.8-29.7l5.7-3.5c0.2,0.2,15.3,15.8,35.2,15.6c11.8-0.3,24.6-3.2,34.9-17.5l6.3,3.4
			C311.3,539.5,300.8,552.9,284.8,553.3z M354,662.7c-26.2,0-41-28.6-41.8-29.7l5.7-3.5c0.2,0.2,15.3,15.8,35.2,15.6
			c11.8-0.3,24.6-3.2,34.9-17.6l6.4,3.4c-12.8,17.9-23.3,31.3-39.4,31.7C354.6,662.7,354.3,662.7,354,662.7z M405.2,773.7
			c-0.3,0-0.6,0-1,0c-26.2,0-41-28.6-41.8-29.7l5.6-3.5c0.2,0.2,15.2,15.8,35.3,15.6c11.7-0.3,24.6-3.2,34.9-17.5l6.3,3.4
			C431.8,759.9,421.3,773.4,405.2,773.7z M453.2,662.7c-0.3,0-0.7,0-1,0c-26.2,0-41-28.6-41.8-29.7l5.7-3.5
			c0.2,0.2,15.2,15.8,35.2,15.6c11.8-0.3,24.6-3.2,34.9-17.6l6.3,3.4C479.7,648.8,469.3,662.3,453.2,662.7z M532.6,553.3
			c-0.3,0-0.6,0-1,0c-26.2,0-40.9-28.6-41.8-29.7l5.7-3.5c0.1,0.2,15.3,15.8,35.2,15.6c11.7-0.3,24.5-3.2,34.9-17.5l6.3,3.4
			C559.1,539.5,548.7,552.9,532.6,553.3z M593,452.1c-0.4,0-0.7,0-1,0c-26.2,0-41-28.6-41.8-29.6l5.6-3.5
			c0.2,0.2,15.3,15.8,35.3,15.6c11.7-0.3,24.6-3.2,34.9-17.5l6.4,3.4C619.5,438.2,609.1,451.7,593,452.1z M626.4,316.7l5.7-3.5
			c0.1,0.2,15.2,15.8,35.2,15.6c11.8-0.3,24.6-3.2,34.9-17.6l6.4,3.4c-12.8,17.9-23.3,31.3-39.3,31.7c-0.4,0-0.7,0-1,0
			C642,346.3,627.2,317.7,626.4,316.7z"/>
		<path fill="#FFFFFF" d="M388.8,227.5c0,0,42.4-151.4-37.5-198.2"/>
		<path fill="#FFFFFF" d="M400,102.3c-0.9-24.8,7.1-43.2,17.7-58.7c10.8-15.4,25.5-27.1,42.8-34.8c17.3-7.6,37.5-11.1,58.2-7.2
			c20.3,3.8,41.7,14.9,52.3,37.6c-20,14.5-30.8,24.9-41.6,33.5c-10.6,8.6-20.5,14.8-32.2,19.9c-11.6,5-24.4,8.9-40,10.8
			C441.5,105.3,424.2,105.9,400,102.3z"/>
		<path fill="#FFFFFF" d="M395.5,118.5c-21.9,5.1-38.5,5.9-54.1,5.6c-15.4-0.6-29-2.6-41.7-5.8c-12.7-3.1-24.3-7.6-36.7-13.2
			c-12.6-5.7-25.4-12.6-46.4-21.1c7.8-21.6,26.6-34.4,45.5-40.5c19.2-6,39.1-5.8,56.9-1.1c17.9,4.6,34,13.4,47.4,25.7
			C379.7,80.6,391,96.2,395.5,118.5z"/>
	</g>
	<g id="Capa_1_55_">
	</g>
</g>
</svg>
