<?xml version="1.0" encoding="utf-8"?>
<!-- Generator: Adobe Illustrator 17.1.0, SVG Export Plug-In . SVG Version: 6.00 Build 0)  -->
<!DOCTYPE svg PUBLIC "-//W3C//DTD SVG 1.1//EN" "http://www.w3.org/Graphics/SVG/1.1/DTD/svg11.dtd">
<svg version="1.1" id="Capa_1" xmlns="http://www.w3.org/2000/svg" xmlns:xlink="http://www.w3.org/1999/xlink" x="0px" y="0px"
	 viewBox="0 0 800 800" enable-background="new 0 0 800 800" xml:space="preserve">
<g>
	<path fill="#FFFFFF" d="M738,216.9l-53.6-10.7c-2.7-3.1-6.1-5.6-9.8-7.4c4.2-4.7,7.8-9.5,10.5-13.4c6.6-9.5,12-19.8,15.8-29.7
		c1.9-4.2,3.4-8.4,4.7-12.5c5.1-4.3,8.1-10.6,8.1-17.3v-16.4c0-4.7-1.5-9.3-4.2-13.1V73.4c0-40.4-32.9-73.4-73.4-73.4h-23.8
		c-40.4,0-73.4,32.9-73.4,73.4v23.1c-2.7,3.8-4.2,8.4-4.2,13.1v16.4c0,6.7,3,13,8.1,17.3c1.3,4.1,2.9,8.3,4.7,12.5
		c3.8,9.9,9.2,20.1,15.8,29.6c2.7,4,6.3,8.7,10.5,13.5c-3.7,1.8-7,4.2-9.7,7.3l-52.5,10.6c-0.3,0.4-0.6,0.8-0.9,1.2
		c-1,2.5-2,5-3.1,7.5c-1.4,3.6-3,7.3-4.8,11l16.9,3.4c29.9,6,51.6,32.5,51.6,63v193.8c0,6.4-0.9,12.7-2.8,18.7v15.1
		c0,25.4-15.8,47.3-38.1,56.2v109.7c0,26,21.1,47,47,47c26,0,47-21,47-47c0,26,21,47,47,47c26,0,47-21,47-47V495.7
		c4.1,2.7,9,4.3,14.3,4.3c14.5,0,26.2-11.7,26.2-26.2v-21.2c1.8-3.8,2.8-8.1,2.8-12.6V246.2C762.1,232,752,219.7,738,216.9z
		 M610.2,266c-0.2,1.9-1.5,3.5-3.4,4c-0.4,0.1-0.8,0.2-1.3,0.2c-1.5,0-2.9-0.7-3.8-1.9l-13.2-17.5c-0.6-0.8-0.9-1.8-0.9-2.8l0-28.1
		c0-1.6,0.9-3.2,2.3-4c1.4-0.9,3.2-0.9,4.6-0.1c3.8,2,7.7,3.4,11.4,4.1c2.2,0.4,3.9,2.4,3.9,4.6v11.7c0.7,0.3,1.3,0.7,1.8,1.2
		c0.9,1,1.3,2.3,1.2,3.6L610.2,266z M660,250.8l-13.2,17.5c-0.9,1.2-2.3,1.9-3.8,1.9c-0.4,0-0.9-0.1-1.3-0.2c-1.9-0.5-3.2-2.1-3.4-4
		l-2.6-25c-0.1-1.3,0.3-2.6,1.2-3.6c0.5-0.5,1.1-1,1.8-1.2v-11.7c0-2.3,1.6-4.2,3.9-4.6c3.7-0.7,7.6-2,11.4-4.1
		c1.5-0.8,3.2-0.7,4.6,0.1c1.4,0.9,2.3,2.4,2.3,4l0,28.1C661,249,660.6,250,660,250.8z M664.8,170.8c-11.5,16.7-22.3,24.1-27.9,24.1
		h-25.3c-5.6,0-16.4-7.5-27.9-24.1c-9.1-13.2-15.4-27.7-16.9-39l-0.3-1.9l-4.6-3c-1.3-0.9-2.1-2.3-2.1-3.9v-7.7
		c0-2.6,2.1-4.7,4.7-4.7h1.9v-8.4c0-1.8,1-3.4,2.6-4.2c6.5-3.2,19.3-8.7,32.6-8.7c10.6,0,19.4,3.5,26.1,10.5
		c8.4,8.7,18.1,13.1,28.8,13.1c6.1,0,12.3-1.4,18.6-4.3c1.5-0.7,3.1-0.5,4.5,0.3c0.6,0.4,1.1,0.9,1.5,1.6h2.6c2.6,0,4.7,2.1,4.7,4.7
		v7.7c0,1.6-0.8,3.1-2.1,3.9l-4.6,3l-0.3,1.9C680.2,143,673.9,157.6,664.8,170.8z"/>
	<path fill="#FFFFFF" d="M231.1,530.4v-15.1c-1.8-6-2.8-12.3-2.8-18.7V302.8c0-30.5,21.7-56.9,51.5-63l16.1-3.3
		c-1.8-3.7-3.4-7.4-4.8-11.1c-1.1-2.5-2.1-5-3.1-7.5c-0.4-0.4-0.7-0.9-1-1.4l-52.3-10.5c-2.7-3.1-6-5.6-9.8-7.4
		c4.2-4.7,7.8-9.5,10.5-13.4c6.6-9.5,12-19.8,15.8-29.7c1.9-4.2,3.4-8.4,4.7-12.5c5.1-4.3,8.1-10.6,8.1-17.3v-16.4
		c0-4.7-1.5-9.3-4.2-13.1V73.4C260,32.9,227.1,0,186.6,0h-23.8c-40.4,0-73.4,32.9-73.4,73.4v23.1c-2.7,3.8-4.2,8.4-4.2,13.1v16.4
		c0,6.7,3,13,8.1,17.3c1.3,4.1,2.9,8.3,4.7,12.5c3.8,9.9,9.2,20.1,15.8,29.6c2.7,4,6.3,8.7,10.5,13.5c-3.7,1.8-7,4.2-9.7,7.3
		l-52.8,10.7c-14,2.8-24,15.1-24,29.3V440c0,4.5,1,8.7,2.8,12.6v21.2c0,14.5,11.7,26.2,26.2,26.2c5.3,0,10.2-1.6,14.3-4.3v200.6
		c0,26,21.1,47,47,47c26,0,47-21,47-47c0,26,21,47,47,47c26,0,47-21,47-47V586.6C246.9,577.7,231.1,555.9,231.1,530.4z M160.7,266
		c-0.2,1.9-1.5,3.5-3.4,4c-0.4,0.1-0.8,0.2-1.3,0.2c-1.5,0-2.9-0.7-3.8-1.9L139,250.8c-0.6-0.8-0.9-1.8-0.9-2.8l0-28.1
		c0-1.6,0.9-3.2,2.3-4c1.4-0.9,3.2-0.9,4.6-0.1c3.8,2,7.7,3.4,11.4,4.1c2.2,0.4,3.9,2.4,3.9,4.6v11.7c0.7,0.3,1.3,0.7,1.8,1.2
		c0.9,1,1.3,2.3,1.2,3.6L160.7,266z M210.4,250.8l-13.2,17.5c-0.9,1.2-2.3,1.9-3.8,1.9c-0.4,0-0.9-0.1-1.3-0.2
		c-1.9-0.5-3.2-2.1-3.4-4l-2.6-25c-0.1-1.3,0.3-2.6,1.2-3.6c0.5-0.5,1.1-1,1.8-1.2v-11.7c0-2.3,1.6-4.2,3.9-4.6
		c3.7-0.7,7.6-2,11.4-4.1c1.5-0.8,3.2-0.7,4.6,0.1c1.4,0.9,2.3,2.4,2.3,4l0,28.1C211.4,249,211.1,250,210.4,250.8z M215.2,170.8
		c-11.5,16.7-22.3,24.1-27.9,24.1h-25.3c-5.6,0-16.4-7.5-27.9-24.1c-9.1-13.2-15.4-27.7-16.9-39l-0.3-1.9l-4.6-3
		c-1.3-0.9-2.1-2.3-2.1-3.9v-7.7c0-2.6,2.1-4.7,4.7-4.7h1.9v-8.4c0-1.8,1-3.4,2.6-4.2c6.5-3.2,19.3-8.7,32.6-8.7
		c10.6,0,19.4,3.5,26.1,10.5c8.4,8.7,18.1,13.1,28.8,13.1c6.1,0,12.3-1.4,18.6-4.3c1.5-0.7,3.1-0.5,4.5,0.3c0.6,0.4,1.1,0.9,1.5,1.6
		h2.6c2.6,0,4.7,2.1,4.7,4.7v7.7c0,1.6-0.8,3.1-2.1,3.9l-4.6,3l-0.3,1.9C230.6,143,224.3,157.6,215.2,170.8z"/>
	<path fill="#FFFFFF" d="M534.5,509.2c1.8-3.8,2.8-8.1,2.8-12.6V302.9c0-14.3-10.1-26.6-24.1-29.4l-53.7-10.7
		c-2.7-3.1-6.1-5.6-9.8-7.4c4.2-4.7,7.8-9.5,10.5-13.4c6.6-9.5,12-19.8,15.8-29.7c1.9-4.2,3.4-8.4,4.7-12.5
		c5.1-4.3,8.1-10.6,8.1-17.3v-16.4c0-4.7-1.5-9.3-4.2-13.1V130c0-40.4-32.9-73.4-73.4-73.4h-23.8c-40.4,0-73.4,32.9-73.4,73.4V153
		c-2.7,3.8-4.2,8.4-4.2,13.1v16.4c0,6.7,3,13,8.1,17.3c1.3,4.1,2.9,8.3,4.7,12.5c3.8,9.9,9.2,20.1,15.8,29.6
		c2.7,4,6.3,8.7,10.5,13.5c-3.7,1.8-7,4.3-9.7,7.3l-52.8,10.7c-14,2.8-24,15.1-24,29.3v193.8c0,4.5,1,8.7,2.8,12.6v21.2
		c0,14.5,11.7,26.2,26.2,26.2c5.3,0,10.2-1.6,14.3-4.3V753c0,26,21.1,47,47,47c26,0,47-21,47-47c0,26,21,47,47,47c26,0,47-21,47-47
		V552.4c4.1,2.7,9,4.3,14.3,4.3c14.5,0,26.2-11.7,26.2-26.2L534.5,509.2L534.5,509.2z M385.5,322.6c-0.2,1.9-1.5,3.5-3.4,4
		c-0.4,0.1-0.8,0.2-1.3,0.2c-1.5,0-2.9-0.7-3.8-1.9l-13.2-17.5c-0.6-0.8-0.9-1.8-0.9-2.8l0-28.1c0-1.7,0.9-3.2,2.3-4
		c1.4-0.9,3.2-0.9,4.6-0.1c3.8,2,7.7,3.4,11.4,4.1c2.2,0.4,3.9,2.4,3.9,4.6v11.7c0.7,0.3,1.3,0.7,1.8,1.2c0.9,1,1.3,2.3,1.2,3.6
		L385.5,322.6z M435.2,307.4L422,324.9c-0.9,1.2-2.3,1.9-3.8,1.9c-0.4,0-0.9-0.1-1.3-0.2c-1.9-0.5-3.2-2.1-3.4-4.1l-2.6-25
		c-0.1-1.3,0.3-2.6,1.2-3.6c0.5-0.5,1.1-1,1.8-1.2V281c0-2.3,1.6-4.2,3.9-4.6c3.7-0.7,7.6-2,11.4-4.1c1.5-0.8,3.2-0.7,4.6,0.1
		c1.4,0.9,2.3,2.4,2.3,4l0,28.1C436.2,305.6,435.8,306.6,435.2,307.4z M440,227.4c-11.5,16.7-22.3,24.1-27.9,24.1h-25.3
		c-5.6,0-16.4-7.5-27.9-24.1c-9.1-13.2-15.4-27.7-16.9-39l-0.3-1.9l-4.6-3c-1.3-0.9-2.1-2.3-2.1-3.9v-7.7c0-2.6,2.1-4.7,4.7-4.7h1.9
		v-8.4c0-1.8,1-3.4,2.6-4.2c6.5-3.2,19.3-8.7,32.6-8.7c10.6,0,19.4,3.5,26.1,10.5c8.4,8.7,18.1,13.1,28.8,13.1
		c6.1,0,12.3-1.4,18.6-4.3c1.5-0.7,3.1-0.5,4.5,0.3c0.6,0.4,1.1,0.9,1.5,1.6h2.6c2.6,0,4.7,2.1,4.7,4.7v7.7c0,1.6-0.8,3.1-2.1,3.9
		l-4.6,3l-0.3,1.9C455.4,199.7,449.1,214.2,440,227.4z"/>
</g>
</svg>
