<?xml version="1.0" encoding="utf-8"?>
<!-- Generator: Adobe Illustrator 17.1.0, SVG Export Plug-In . SVG Version: 6.00 Build 0)  -->
<!DOCTYPE svg PUBLIC "-//W3C//DTD SVG 1.1//EN" "http://www.w3.org/Graphics/SVG/1.1/DTD/svg11.dtd">
<svg version="1.1" id="Capa_1" xmlns="http://www.w3.org/2000/svg" xmlns:xlink="http://www.w3.org/1999/xlink" x="0px" y="0px"
	 viewBox="0 0 49.8 49.8" enable-background="new 0 0 49.8 49.8" xml:space="preserve">
<g>
	<g>
		<path fill="#FFFFFF" d="M10.3,26.6c0-2.7,0.8-5.1,2.1-7.2c-0.6-0.9-1.2-1.9-2.1-2.6C7.8,14.6,6.2,24,6.2,24l-3.1,0.3L2.1,12.4
			l18-1.4l0.2,2.5c0.5-0.1,1.1-0.3,1.6-0.3l-0.3-3.8c0-0.2-0.2-0.4-0.5-0.4L0.4,10.6c-0.2,0-0.4,0.2-0.4,0.5l1.4,18
			c0,0.2,0.2,0.4,0.5,0.4l8.6-0.7C10.4,28.1,10.3,27.4,10.3,26.6z"/>
		<path fill="#FFFFFF" d="M19.6,37.3c-0.1,0-0.3-0.1-0.4-0.1c-0.2-0.2-0.9-1.1-1.5-2.6c0.6,0.2,1.2,0.3,1.9,0.4v-1
			c-0.9-0.2-1.7-0.3-2.4-0.6c-0.3-1-0.6-2.3-0.8-3.8c0.9,0.2,2,0.4,3.2,0.5v-1c-1.3-0.1-2.4-0.3-3.3-0.6c0-0.6-0.1-1.2-0.1-1.9
			c0-0.4,0-0.9,0-1.3c1.1-0.3,2.4-0.5,3.9-0.7c0,0.6-0.1,1.3-0.1,1.9c0,0.9,0,1.7,0.1,2.4h1c-0.1-0.8-0.1-1.6-0.1-2.4
			c0-0.7,0-1.4,0.1-2c0.8-0.1,1.7-0.1,2.7-0.1c0.7,0,1.4,0,2.1,0.1c0,0.7,0.1,1.4,0.1,2.2c0,0.2,0,0.4,0,0.6h1c0-0.2,0-0.4,0-0.6
			c0-0.8,0-1.5-0.1-2.2c1.7,0.1,3.1,0.4,4.2,0.7c0,0.4,0,0.8,0,1.2c0,0.3,0,0.6,0,0.8h0.1V29H33c1-0.3,1.7-0.7,2.1-0.9
			c0,0.3-0.1,0.6-0.2,0.9h1c0.2-0.8,0.2-1.6,0.2-2.4c0-5-2.9-9.3-7.1-11.3c0,0,0,0-0.1-0.1l0,0c-1.6-0.8-3.4-1.2-5.3-1.2
			c-0.3,0-0.6,0-0.8,0v0v0c-6.5,0.4-11.7,5.9-11.7,12.5c0,5.5,3.5,10.1,8.4,11.8L19.6,37.3L19.6,37.3L19.6,37.3z M20.3,23.6
			c-1.5,0.1-2.8,0.4-3.9,0.6c0.1-1.6,0.4-3,0.8-4.1c1-0.3,2.3-0.6,3.8-0.8C20.6,20.6,20.4,21.9,20.3,23.6z M23.9,23.4
			c-0.9,0-1.8,0-2.6,0.1c0.1-1.6,0.4-3,0.6-4.2c0.5,0,1.1-0.1,1.7-0.1c0.5,0,1.1,0,1.5,0c0.3,1.1,0.5,2.5,0.7,4.2
			C25.3,23.4,24.6,23.4,23.9,23.4z M26.9,23.5c-0.1-1.6-0.4-3-0.6-4.1c1.6,0.2,3,0.5,4.1,0.8c0.3,1.1,0.6,2.4,0.7,4
			C30,23.9,28.6,23.6,26.9,23.5z M32.2,28.1c0-0.5,0.1-1.1,0.1-1.7c0-0.3,0-0.6,0-1c1.6,0.5,2.5,1,2.9,1.3
			C34.9,27,34,27.6,32.2,28.1z M35.2,25.6c-0.6-0.3-1.6-0.8-3-1.2c-0.1-1.5-0.3-2.7-0.6-3.8c1.8,0.7,2.6,1.4,2.7,1.5
			C34.8,23.2,35.1,24.4,35.2,25.6z M33.3,20.3c-0.5-0.3-1.2-0.6-2.1-0.9c-0.3-0.9-0.6-1.6-0.9-2.1C31.5,18,32.5,19.1,33.3,20.3z
			 M28.5,16.1c0.3,0.4,0.9,1.3,1.5,2.9c-1.1-0.3-2.4-0.5-4-0.7c-0.4-1.5-0.9-2.5-1.2-3.2C26.1,15.3,27.3,15.6,28.5,16.1z M23.5,15.1
			c0.1,0,0.1,0,0.2,0c0.3,0.4,0.8,1.4,1.3,3.1c-0.4,0-0.8,0-1.3,0c-0.5,0-1,0-1.4,0C22.7,16.7,23.2,15.6,23.5,15.1z M19.1,16.1
			c1-0.4,2.1-0.7,3.2-0.9c-0.3,0.7-0.8,1.7-1.1,3.1c-1.4,0.1-2.6,0.3-3.6,0.6C18.2,17.3,18.9,16.3,19.1,16.1z M17.2,17.1
			c-0.3,0.6-0.6,1.3-0.9,2.2c-0.9,0.3-1.6,0.6-2.1,0.9C15,19,16,18,17.2,17.1z M13.1,22.1L13.1,22.1c0,0,0.9-0.8,2.8-1.6
			c-0.3,1.1-0.5,2.4-0.6,3.9c-1.4,0.4-2.4,0.8-3,1.2C12.4,24.4,12.7,23.2,13.1,22.1z M12.3,26.9c0.4-0.2,1.4-0.8,3-1.3
			c0,0.3,0,0.7,0,1c0,0.6,0,1.1,0,1.6C13.7,27.7,12.7,27.2,12.3,26.9C12.3,26.9,12.3,26.9,12.3,26.9z M12.4,28.2
			c0.7,0.3,1.6,0.7,3,1.1c0.1,1.4,0.4,2.6,0.7,3.6c-1.6-0.6-2.5-1.3-2.7-1.5C12.8,30.4,12.5,29.3,12.4,28.2z M14.4,33.3
			c0.5,0.3,1.2,0.6,2,0.8c0.3,0.8,0.6,1.4,0.9,2C16.2,35.3,15.2,34.4,14.4,33.3z"/>
		<g>
			<path fill="#FFFFFF" d="M22,30.8l-0.1,17.4h25.6l0.1-17.4C47.6,30.8,22,30.8,22,30.8z M31.1,46.6c-3.8,0-6.9-3.1-6.9-6.9
				s3.1-6.9,6.9-6.9c3.8,0,6.9,3.1,6.9,6.9S34.9,46.6,31.1,46.6z M44.7,34.4h-2.2c-0.7,0-1.2-0.5-1.2-1.2c0-0.7,0.5-1.2,1.2-1.2h2.2
				c0.7,0,1.2,0.5,1.2,1.2C45.9,33.9,45.3,34.4,44.7,34.4z"/>
			<rect x="24.4" y="29" fill="#FFFFFF" width="5.3" height="1.9"/>
			<path fill="#FFFFFF" d="M35.8,39.7c0,2.6-2.1,4.8-4.8,4.8c-2.6,0-4.8-2.1-4.8-4.8c0-2.6,2.1-4.8,4.8-4.8
				C33.7,34.9,35.8,37,35.8,39.7z"/>
		</g>
		<path fill="#FFFFFF" d="M5.3,15.9c0.1,0,0.2,0,0.2,0H8v0c0.6-0.1,1.1-0.4,1.1-0.9c0-0.5-0.6-0.9-1.3-0.9c0,0,0,0,0,0
			c0-0.5-0.6-0.9-1.3-0.9c-0.7,0-1.3,0.4-1.3,0.9c-0.7,0-1.3,0.4-1.3,0.9S4.5,15.9,5.3,15.9z M6.5,15.1C6.5,15.1,6.5,15.1,6.5,15.1
			C6.5,15.1,6.5,15.1,6.5,15.1L6.5,15.1C6.5,15.1,6.5,15.1,6.5,15.1z"/>
		<path fill="#FFFFFF" d="M12.9,15.9c0.1,0,0.2,0,0.2,0h2.5v0c0.6-0.1,1.1-0.4,1.1-0.9c0-0.5-0.6-0.9-1.3-0.9h0
			c0-0.5-0.6-0.9-1.3-0.9c-0.7,0-1.3,0.4-1.3,0.9c-0.7,0-1.3,0.4-1.3,0.9S12.2,15.9,12.9,15.9z M14.2,15.1
			C14.2,15.1,14.2,15.1,14.2,15.1C14.2,15.1,14.2,15.1,14.2,15.1L14.2,15.1C14.2,15.1,14.2,15.1,14.2,15.1z"/>
		<path fill="#FFFFFF" d="M12.5,41.1c-0.6-0.5-1.1-1-1.4-1.5l2.5,0c0,0-4.5-7.7-4.6-9.3c0-1.7-5.4,9.2-5.4,9.2l3.1,0
			c0.4,1.6,1.5,3.2,3.3,4.6c2.5,2,6.3,3.5,10.7,4v-4C17.3,43.8,14.4,42.7,12.5,41.1z"/>
		<path fill="#FFFFFF" d="M42.4,28.6c-0.5-2.5-2.3-3.9-4.7-3.9l0.1,4c0.4,0,0.6,0,0.8,0.7c0,0,0,0.1,0,0.1h4
			C42.5,29.2,42.4,28.9,42.4,28.6z"/>
		<path fill="#FFFFFF" d="M48.8,14.4c-1.5-1.6-4.2-2.9-6.6-2.3c-0.7,0.1-1.5,0-2.1-0.1c-1.3-0.3,1.6-1.3,1.9-1.3
			c0.6-0.1,1.2-0.1,1.7,0c0.4,0.1,0.5-0.3,0-0.3c-0.5,0-1,0-1.6,0.2c-0.4,0.1-0.9,0.3-1.4,0.4c-0.6,0.2-0.4,0.1-0.9,0.3
			c0.2-0.5,0.1-0.3,0.3-0.9c0.1-0.5,0.3-0.9,0.4-1.4c0.1-0.6,0.1-1,0.1-1.6c0-0.4-0.4-0.4-0.3,0c0.1,0.5,0.2,1.1,0.1,1.7
			c-0.1,0.3-0.9,3.3-1.3,1.9c-0.1-0.5-0.2-1.4-0.2-2.1c0.5-2.4-0.9-5-2.5-6.5c-0.6-0.6-1.4-0.9-1.4-0.9s-2.3,5.7-2,5.9
			c-0.2,0.8,1.3,3,1.3,3c-0.6,0.1-1.5-0.1-2.4,0.3c-0.5,0.2-1,0.6-1.5,1.4c-0.2,0.3-0.3,0.6-0.4,0.9c-0.1,0.2-0.2,1.2,0.3,1.6
			c0.5,0.4,1.7,1.4,2.7,1.1c1-0.3,2.3-0.8,2.3-0.8s-0.4,0.6-0.9,0.9c-0.3,0.2-1.2,1.2-0.9,1.5c0.4,0.3,1.2-0.6,1.5-0.9
			c0.3-0.5,0.9-0.9,0.9-0.9S36,16.9,35.7,18c-0.3,1,0.6,2.2,1.2,2.7c0.6,0.5,1.4,0.3,1.6,0.3c0.3-0.1,0.5-0.2,0.8-0.4
			c0.7-0.5,1.1-1,1.3-1.5c0.3-0.9,0.2-1.8,0.2-2.4c0,0,2.3,1.5,3.1,1.2c0.2,0.3,5.8-2.1,5.8-2.1S49.4,15,48.8,14.4z"/>
	</g>
</g>
</svg>
