<?xml version="1.0" encoding="utf-8"?>
<!-- Generator: Adobe Illustrator 17.1.0, SVG Export Plug-In . SVG Version: 6.00 Build 0)  -->
<!DOCTYPE svg PUBLIC "-//W3C//DTD SVG 1.1//EN" "http://www.w3.org/Graphics/SVG/1.1/DTD/svg11.dtd">
<svg version="1.1" id="Capa_1" xmlns="http://www.w3.org/2000/svg" xmlns:xlink="http://www.w3.org/1999/xlink" x="0px" y="0px"
	 viewBox="0 0 800 800" enable-background="new 0 0 800 800" xml:space="preserve">
<path fill="#FFFFFF" d="M724.7,68.2c0,37-54.1,68.2-118.2,68.2c-52.7,0-98.6-21.1-113.3-49.1H387.8c-4.4,17-15.1,29-27.7,29
	c-12.5,0-23.2-12-27.7-29h-2.2c-9.6,0-17.3-7.8-17.3-17.3s7.8-17.3,17.3-17.3h2.2c4.4-17,15.1-29,27.7-29c12.5,0,23.2,12,27.7,29
	h103.8C504.2,22.8,551.7,0,606.5,0C670.6,0,724.7,31.2,724.7,68.2z M364.6,259.2c21.8,0.3,43.3,2.9,64.2,7.5v-94.2
	c0-21.5-17.5-39-39-39h-59.5c-21.5,0-39,17.5-39,39v94.2C314.9,261.6,339.4,258.9,364.6,259.2z M566.1,775.3
	c-15,15.7-36.3,24.7-58.3,24.7H212.4c-22,0-43.2-9-58.2-24.6c-50.9-53.2-78.9-123.1-78.9-196.7c0-157,127.8-284.8,284.8-284.8
	c1.3,0,2.7,0,4.1,0c151,2.1,274.2,121.8,280.5,272.5C647.9,644.6,620,718.8,566.1,775.3z M327.9,373c-0.4-9.6-8.4-17.1-18.1-16.6
	c-1.4,0.1-144.1,8.3-173.3,185.1c-1.6,9.5,4.8,18.4,14.3,19.9c1,0.2,1.9,0.2,2.8,0.2c8.3,0,15.7-6,17.1-14.5
	c24.4-148.1,135.7-155.8,140.6-156C320.9,390.6,328.3,382.6,327.9,373z"/>
</svg>
