<?xml version="1.0" encoding="utf-8"?>
<!-- Generator: Adobe Illustrator 17.1.0, SVG Export Plug-In . SVG Version: 6.00 Build 0)  -->
<!DOCTYPE svg PUBLIC "-//W3C//DTD SVG 1.1//EN" "http://www.w3.org/Graphics/SVG/1.1/DTD/svg11.dtd">
<svg version="1.1" id="Capa_1" xmlns="http://www.w3.org/2000/svg" xmlns:xlink="http://www.w3.org/1999/xlink" x="0px" y="0px"
	 viewBox="0 0 612 612" enable-background="new 0 0 612 612" xml:space="preserve">
<g>
	<path fill="#FFFFFF" d="M181.3,386.3c-29.8,0-53.9,24.1-53.9,53.8c0,29.8,24.1,53.9,53.9,53.9c29.7,0,53.8-24.1,53.8-53.9
		C235.1,410.4,211,386.3,181.3,386.3z M181.3,467.1c-14.9,0-27-12.1-27-27c0-14.8,12.1-26.9,27-26.9c14.8,0,26.9,12.1,26.9,26.9
		C208.2,455,196.1,467.1,181.3,467.1z M134.9,386.3H14.2c-4.8,0-8.7,3.9-8.7,8.7v26.3c0,4.8,3.9,8.7,8.7,8.7h96.7
		C113.5,412.5,122.2,397.2,134.9,386.3z M463,386.3c-29.7,0-53.8,24.1-53.8,53.8c0,29.8,24.1,53.9,53.8,53.9
		c29.8,0,53.8-24.1,53.8-53.9C516.8,410.4,492.8,386.3,463,386.3z M463,467.1c-14.9,0-26.9-12.1-26.9-27c0-14.8,12-26.9,26.9-26.9
		c14.9,0,26.9,12.1,26.9,26.9C489.9,455,477.9,467.1,463,467.1z M603.3,386.3h-21V268.7c0-13.8-4.2-27.3-11.9-38.7l-52.7-78.1
		c-12.8-19-34.4-30.5-57.4-30.5h-81.7c-9.5,0-17.3,7.7-17.3,17.3v247.5H227.7c12.6,11,21.4,26.2,23.9,43.6h141.1
		c4.9-34.4,34.5-60.9,70.3-60.9c35.7,0,65.3,26.6,70.4,60.9h70c4.8,0,8.7-3.9,8.7-8.7v-26.3C612,390.2,608.2,386.3,603.3,386.3z
		 M517.2,245.6H409.3c-4.8,0-8.7-3.8-8.7-8.7v-59.8c0-4.8,3.9-8.7,8.7-8.7H475c2.9,0,5.5,1.4,7.1,3.6l42.1,59.9
		C528.3,237.7,524.2,245.6,517.2,245.6z M320.2,369H17.3C7.7,369,0,361.2,0,351.6v-77.9c0-9.6,7.7-17.3,17.3-17.3h302.9
		c9.6,0,17.3,7.7,17.3,17.3v77.9C337.5,361.2,329.8,369,320.2,369z M138.5,230.5H17.3c-9.6,0-17.3-7.8-17.3-17.3v-77.9
		c0-9.6,7.7-17.3,17.3-17.3h121.2c9.6,0,17.3,7.7,17.3,17.3v77.9C155.8,222.7,148,230.5,138.5,230.5z M320.2,230.5H199
		c-9.6,0-17.3-7.7-17.3-17.3v-77.9c0-9.6,7.7-17.3,17.3-17.3h121.2c9.6,0,17.3,7.7,17.3,17.3v77.9
		C337.5,222.7,329.8,230.5,320.2,230.5z"/>
</g>
</svg>
