<?xml version="1.0" encoding="utf-8"?>
<!-- Generator: Adobe Illustrator 17.1.0, SVG Export Plug-In . SVG Version: 6.00 Build 0)  -->
<!DOCTYPE svg PUBLIC "-//W3C//DTD SVG 1.1//EN" "http://www.w3.org/Graphics/SVG/1.1/DTD/svg11.dtd">
<svg version="1.1" id="Capa_1" xmlns="http://www.w3.org/2000/svg" xmlns:xlink="http://www.w3.org/1999/xlink" x="0px" y="0px"
	 viewBox="0 0 421.6 421.6" enable-background="new 0 0 421.6 421.6" xml:space="preserve">
<g>
	<g>
		<g>
			<path fill="#FFFFFF" d="M261.6,338.8c4.1-5.2,9.5-9.1,15.6-11.4c-7.5-12.8-11.6-27.5-11.8-42.5c0-1.8,0-3.6,0.1-5.4l-22.3-8.9
				l-19.7-16.6c-5.2-4.4-12.9-4.1-17.7,0.7l-27.4,27.2L151,254.7c-4.8-4.8-12.5-5.1-17.7-0.7l-19.7,16.6l-84.2,33.6
				C2.3,314.9,2.3,410.9,0,419.7h230.7c-3.4-4.9-5.6-10.5-6.3-16.6c-1.1-9.6,1.5-19.2,7.6-26.8L261.6,338.8z"/>
			<path fill="#FFFFFF" d="M351.2,369.7C351.2,369.7,351.2,369.7,351.2,369.7c-8.4,0-16.9-1.3-24.9-3.7c-0.8,6.5-3.4,12.6-7.5,17.8
				l-28.3,35.9h66.5c-1.1-4-1.6-26.1-4.5-50C352,369.7,351.6,369.7,351.2,369.7z"/>
			<path fill="#FFFFFF" d="M119.7,85.9c15.6,7.4,36.4,11.5,58.7,11.5c22.3,0,43.1-4.1,58.7-11.5c9.6-4.6,16.4-10.1,19.6-15.8
				c-0.1,0-0.2-0.1-0.3-0.1C247-44.5,189.8,20,178.5,20c-11.3,0-68.6-64.5-78,50.1c-0.1,0-0.2,0.1-0.3,0.1
				C103.4,75.8,110.1,81.3,119.7,85.9z"/>
			<path fill="#FFFFFF" d="M94.5,139.4c3.7,68,39.1,108,83.9,108s80.2-40,83.9-108c21.7-8.6,35.2-20.5,35.2-33.6
				c0-11.7-10.6-22.4-28.2-30.6c-4.4,8.8-13.3,16.6-26.3,22.8c-17.3,8.2-40.2,12.8-64.5,12.8c-24.2,0-47.1-4.5-64.5-12.8
				c-13-6.2-22-14-26.3-22.8C70,83.4,59.4,94.1,59.4,105.8C59.4,118.9,72.8,130.8,94.5,139.4z"/>
			<path fill="#FFFFFF" d="M394.8,228.7c-30.4-24-74.7-18.8-98.7,11.7c-20.7,26.2-19.7,62.7,0.5,87.7l-10.1,12.8
				c-4.8,0.9-9.3,3.4-12.6,7.6L244.2,386c-7.1,9-5.6,22.1,3.5,29.3c9,7.1,22.1,5.6,29.3-3.5l29.6-37.6c3.3-4.1,4.7-9.1,4.4-14
				l10.1-12.8c29,13.8,64.7,6.3,85.4-20C430.5,297,425.3,252.7,394.8,228.7z M390.1,314.5c-16.9,21.4-48.1,25.1-69.5,8.2
				c-21.4-16.9-25.1-48.1-8.2-69.5c16.9-21.4,48.1-25.1,69.5-8.2C403.3,261.9,407,293.1,390.1,314.5z"/>
		</g>
	</g>
</g>
</svg>
