<?xml version="1.0" encoding="utf-8"?>
<!-- Generator: Adobe Illustrator 17.1.0, SVG Export Plug-In . SVG Version: 6.00 Build 0)  -->
<!DOCTYPE svg PUBLIC "-//W3C//DTD SVG 1.1//EN" "http://www.w3.org/Graphics/SVG/1.1/DTD/svg11.dtd">
<svg version="1.1" id="Capa_1" xmlns="http://www.w3.org/2000/svg" xmlns:xlink="http://www.w3.org/1999/xlink" x="0px" y="0px"
	 viewBox="0 0 920.8 920.8" enable-background="new 0 0 920.8 920.8" xml:space="preserve">
<g>
	<g>
		<path fill="#FFFFFF" d="M401.9,239.6v-42.1c-34.4-33.4-57.7-77.8-97.1-105.9C260,59.7,205,48.2,151,56.2
			c-46.4,6.9-98.7,17.9-144.2,1.2c-4.1-1.5-8,2.5-6.4,6.5c13.8,34.9,68.7,141.6,220,153.3C332.6,225.9,377.9,232.2,401.9,239.6z"/>
		<path fill="#FFFFFF" d="M914,57.5c-45.5,16.7-97.8,5.7-144.2-1.2c-54-8-109,3.5-153.8,35.4c-39.4,28-62.7,72.4-97.1,105.9v42.1
			c24-7.4,69.3-13.8,181.5-22.5C851.6,205.5,906.5,98.8,920.5,64C922.1,60,918.1,56,914,57.5z"/>
		<path fill="#FFFFFF" d="M419.4,157.6c5.1,4.7,11,8.6,17.5,11.3v208.4l-17.5-8.3l-17.5-8.3L322,323h57.4c10,0,18.5-6.5,21.5-15.5
			c0.8-2.3,1.2-4.7,1.2-7.2v-22.4c0-2.5-0.4-5-1.2-7.2c-3-9-11.5-15.5-21.5-15.5h-98c-12.6,0-22.7,10.2-22.7,22.7v75.2
			c0,9,5.3,17.1,13.4,20.7l110.7,49.8l-68.3,40.8c-6.9,4.1-11.1,11.5-11.1,19.5v10.4c0,8.8,5.1,16.8,13.1,20.6l71.5,33.6l-46.7,26.1
			c-7.2,4-11.6,11.6-11.6,19.8v10.9c0,8.7,5,16.7,12.8,20.5l49.3,23.9l-44.7,31c-6.1,4.2-9.8,11.2-9.8,18.7v14.4
			c0,9.2,5.6,17.5,14.1,21L393,752l-17.2,17.1c-4.3,4.3-6.7,10-6.7,16.1l0,0c0,9,5.3,17.1,13.4,20.7l3.8,1.7
			c4.9,2.2,10.4,2.6,15.5,1.1c1.3-0.4,2.6-0.9,3.9-1.5l13.6-6.8l17.5-8.7v54.1c0,12.2,9.8,22,22,22h2.9c12.2,0,22-9.8,22-22v-53.9
			l17.5,8.7l13.6,6.7c1.2,0.6,2.5,1.1,3.9,1.5c5.1,1.5,10.6,1.1,15.5-1.1l3.8-1.7c8.2-3.7,13.4-11.8,13.4-20.7l0,0
			c0-6-2.4-11.8-6.7-16.1L527.8,752l41.6-17.2c8.5-3.5,14.1-11.8,14.1-21v-14.5c0-7.5-3.6-14.4-9.8-18.7l-44.7-31l49.3-23.9
			c7.8-3.8,12.8-11.7,12.8-20.5v-10.9c0-8.2-4.4-15.8-11.6-19.8l-46.7-26l71.5-33.6c8-3.7,13.1-11.8,13.1-20.6v-10.4
			c0-8-4.2-15.4-11.1-19.5L538,423.6l110.8-49.7c8.2-3.7,13.4-11.8,13.4-20.7V278c0-12.6-10.2-22.7-22.7-22.7l-97.9-0.3
			c-10,0-18.5,6.5-21.5,15.5c-0.8,2.3-1.2,4.7-1.2,7.3v22.4c0,2.5,0.4,5,1.2,7.3c3,9,11.5,15.5,21.5,15.5l57.2,0.3l-80,37.5
			l-17.5,8.3l-17.5,8.3V168.9c6.5-2.8,12.4-6.6,17.5-11.3c8.4-7.8,14.6-18.1,17.5-29.6c1.2-4.7,1.8-9.5,1.8-14.6
			c0-5-0.6-9.9-1.8-14.6c-1.5-5.9-3.8-11.5-6.9-16.6c-10.6-17.4-29.7-29.1-51.6-29.1s-41,11.6-51.6,29.1c-3.1,5.1-5.4,10.7-6.9,16.6
			c-1.2,4.7-1.8,9.5-1.8,14.6c0,5,0.6,9.9,1.8,14.6C404.8,139.5,411,149.7,419.4,157.6z M436.9,618.4l-35.2-18.8l35.2-18.8V618.4z
			 M387.9,487.2l49-24.8V512L387.9,487.2z M401.7,702l35.2-18.8v37.6L401.7,702z M483.8,720.8v-37.5l35.2,18.8L483.8,720.8z
			 M483.8,618.4v-37.5l35.2,18.8L483.8,618.4z M532.8,487.2l-49,24.8v-49.6L532.8,487.2z"/>
	</g>
</g>
</svg>
