<?xml version="1.0" encoding="utf-8"?>
<!-- Generator: Adobe Illustrator 17.1.0, SVG Export Plug-In . SVG Version: 6.00 Build 0)  -->
<!DOCTYPE svg PUBLIC "-//W3C//DTD SVG 1.1//EN" "http://www.w3.org/Graphics/SVG/1.1/DTD/svg11.dtd">
<svg version="1.1" id="Layer_1" xmlns="http://www.w3.org/2000/svg" xmlns:xlink="http://www.w3.org/1999/xlink" x="0px" y="0px"
	 viewBox="0 0 612.3 402.5" enable-background="new 0 0 612.3 402.5" xml:space="preserve">
<g>
	<path fill="#FFFFFF" d="M306.1,83.6c23,0,41.8-18.7,41.8-41.8c0-23-18.7-41.8-41.8-41.8c-23,0-41.8,18.7-41.8,41.8
		C264.4,64.8,283.1,83.6,306.1,83.6z"/>
	<path fill="#FFFFFF" d="M412,205.9H200.3c-5.8,0-10.5,4.7-10.5,10.5v19.8c0,5.8,4.7,10.5,10.5,10.5H412c5.8,0,10.5-4.7,10.5-10.5
		v-19.8C422.4,210.6,417.7,205.9,412,205.9z"/>
	<path fill="#FFFFFF" d="M374,263.4H238.3c-7.1,0-12.9,5.8-12.9,12.9v114.3c0,6.5,5.3,11.8,11.8,11.8h137.9
		c6.5,0,11.8-5.3,11.8-11.8V276.3C386.9,269.2,381.1,263.4,374,263.4z"/>
	<path fill="#FFFFFF" d="M387.5,138.7c0-15.9-10.2-30-25.3-34.9l-0.1,0l-22.1-3.7c-1.9-0.6-3.9,0.4-4.6,2.3l-25.1,68.8
		c-1.4,4-7.1,4-8.5,0l-25.1-68.8c-0.5-1.5-2-2.4-3.5-2.4c-0.4,0-23.2,3.8-23.2,3.8c-15.2,5.1-25.4,19.2-25.4,35.2v50.3h162.8
		L387.5,138.7L387.5,138.7z"/>
	<path fill="#FFFFFF" d="M315.7,99.1c-1-1.1-2.5-1.7-4-1.7h-11.2c-1.5,0-3,0.6-4,1.7c-1.6,1.7-1.8,4.2-0.7,6.1l6,9l-2.8,23.6
		l5.5,14.6c0.5,1.5,2.6,1.5,3.2,0l5.5-14.6l-2.8-23.6l6-9C317.5,103.3,317.3,100.8,315.7,99.1z"/>
</g>
</svg>
