<?xml version="1.0" encoding="utf-8"?>
<!-- Generator: Adobe Illustrator 17.1.0, SVG Export Plug-In . SVG Version: 6.00 Build 0)  -->
<!DOCTYPE svg PUBLIC "-//W3C//DTD SVG 1.1//EN" "http://www.w3.org/Graphics/SVG/1.1/DTD/svg11.dtd">
<svg version="1.1" id="Layer_1" xmlns="http://www.w3.org/2000/svg" xmlns:xlink="http://www.w3.org/1999/xlink" x="0px" y="0px"
	 viewBox="0 0 612.3 402.5" enable-background="new 0 0 612.3 402.5" xml:space="preserve">
<path fill="#FFFFFF" d="M420.3,104.3c0-19.7-14.3-39.6-41.6-39.6c-1.3,0-2.7,0-4.1,0.1c10.4-15.4,9-28.9,7.2-35.6
	C377.2,12.3,361,0,343.1,0c-13.3,0-28.1,7.3-36.9,25.6C297.2,7.3,282.5,0,269.2,0c-17.9,0-34.1,12.3-38.7,29.3
	c-1.8,6.7-3.2,20.1,7.2,35.6c-17.7-1.3-32.7,5.9-40.4,19.3c-7.1,12.2-7.1,28.1,0,40.3c7.1,12.4,20.4,19.5,36.3,19.5c0,0,0,0,0,0
	c1.3,0,2.7,0,4.1-0.1c-10.4,15.4-9,28.9-7.2,35.6c4.5,17,20.8,29.3,38.7,29.3c0,0,0,0,0,0c5.4,0,11.1-1.2,16.6-3.9v55.4h-69.4v46.7
	h12.9l14.7,63.2h-27.6v32.6h179.6V370h-27.6l14.7-63.2h12.9v-46.7h-69.4v-55.3c5.1,2.5,10.7,3.8,16.6,3.8
	c17.9,0,34.1-12.3,38.7-29.3c1.8-6.7,3.2-20.1-7.2-35.6c1.4,0.1,2.7,0.1,4.1,0.1C406,143.9,420.3,124,420.3,104.3L420.3,104.3z
	 M306.1,137c-18,0-32.7-14.6-32.7-32.7s14.6-32.7,32.7-32.7c18,0,32.7,14.6,32.7,32.7S324.2,137,306.1,137L306.1,137z"/>
</svg>
