<?xml version="1.0" encoding="utf-8"?>
<!-- Generator: Adobe Illustrator 17.1.0, SVG Export Plug-In . SVG Version: 6.00 Build 0)  -->
<!DOCTYPE svg PUBLIC "-//W3C//DTD SVG 1.1//EN" "http://www.w3.org/Graphics/SVG/1.1/DTD/svg11.dtd">
<svg version="1.1" id="Layer_1" xmlns="http://www.w3.org/2000/svg" xmlns:xlink="http://www.w3.org/1999/xlink" x="0px" y="0px"
	 viewBox="0 0 612.3 402.5" enable-background="new 0 0 612.3 402.5" xml:space="preserve">
<g>
	<path fill="#FFFFFF" d="M369,157.2h-37.7v-37.7h25.2c13.9,0,25.2-11.3,25.2-25.2s-11.3-25.2-25.2-25.2H255.8
		c-13.9,0-25.2,11.3-25.2,25.2s11.3,25.2,25.2,25.2H281v37.7h-37.7c-13.9,0-25.2,10.9-25.2,24.8v125.8c0,13.9,11.3,25.6,25.2,25.6
		H369c13.9,0,25.2-11.7,25.2-25.6V182C394.2,168.1,382.9,157.2,369,157.2z"/>
	<path fill="#FFFFFF" d="M482.2,169.6c-13.9,0-25.2,11.2-25.2,25.4h-37.7v100.6h37.7c0,13.4,11.3,25,25.2,25
		c13.9,0,25.2-11.5,25.2-25.4v-25.2v-50.3v-25.2C507.4,180.7,496.1,169.6,482.2,169.6z"/>
	<path fill="#FFFFFF" d="M130,169.6c-13.9,0-25.2,11.1-25.2,25v25.2v50.3v25.2c0,13.9,11.3,25.4,25.2,25.4s25.2-11.6,25.2-25h37.7
		V195h-37.7C155.2,180.8,143.9,169.6,130,169.6z"/>
</g>
</svg>
