<?xml version="1.0" encoding="utf-8"?>
<!-- Generator: Adobe Illustrator 17.1.0, SVG Export Plug-In . SVG Version: 6.00 Build 0)  -->
<!DOCTYPE svg PUBLIC "-//W3C//DTD SVG 1.1//EN" "http://www.w3.org/Graphics/SVG/1.1/DTD/svg11.dtd">
<svg version="1.1" id="Capa_1" xmlns="http://www.w3.org/2000/svg" xmlns:xlink="http://www.w3.org/1999/xlink" x="0px" y="0px"
	 viewBox="0 0 612.3 402.5" enable-background="new 0 0 612.3 402.5" xml:space="preserve">
<g>
	<g>
		<rect x="382.5" y="216.2" fill="#FFFFFF" width="43.9" height="36.3"/>
		<rect x="305.9" y="216.2" fill="#FFFFFF" width="43.9" height="36.3"/>
		<path fill="#FFFFFF" d="M484.6,336.2V145.9h-51V41.5h-58.2v104.3H357V41.5h-58.2v104.3h-171v190.3h-22.8V361h402.5v-24.8
			L484.6,336.2L484.6,336.2z M375.3,209.1h58.2v50.6h-58.2C375.3,259.7,375.3,209.1,375.3,209.1z M298.8,209.1H357v50.6h-58.2V209.1
			z M160.9,216.2h103.9v120H160.9C160.9,336.2,160.9,216.2,160.9,216.2z M500.2,353.8H112.1v-10.5h15.7h26h118.2h212.7h15.7
			L500.2,353.8L500.2,353.8z"/>
		<rect x="131.3" y="115.2" fill="#FFFFFF" width="137" height="7.2"/>
	</g>
</g>
</svg>
