<?xml version="1.0" encoding="utf-8"?>
<!-- Generator: Adobe Illustrator 17.1.0, SVG Export Plug-In . SVG Version: 6.00 Build 0)  -->
<!DOCTYPE svg PUBLIC "-//W3C//DTD SVG 1.1//EN" "http://www.w3.org/Graphics/SVG/1.1/DTD/svg11.dtd">
<svg version="1.1" id="Capa_1" xmlns="http://www.w3.org/2000/svg" xmlns:xlink="http://www.w3.org/1999/xlink" x="0px" y="0px"
	 viewBox="0 0 826.9 826.9" enable-background="new 0 0 826.9 826.9" xml:space="preserve">
<g>
	<g>
		<path fill="#FFFFFF" d="M781.1,171c3.6-0.6,7.2-0.9,10.8-0.9l0,0l0,0c3.7,0,7.4,0.3,10.9,0.9L426.2,8.4c-11.6-5-25-3.4-35.1,4.3
			L17.3,297.1C19.6,296.4,781.1,171,781.1,171z"/>
		<path fill="#FFFFFF" d="M759.4,558.5c25.4,0,48.8,9.2,67.5,24.8V236.2c0-16.7-11.5-30.3-26.6-34c-2.7-0.7-5.5-1-8.3-1
			c-1.9,0-3.8,0.2-5.8,0.5L42,324l-12.7,2.1C12.4,328.9,0,343.5,0,360.6v215.9c14.1-11.4,31.7-18.1,50.7-18.1
			c46.8,0,84.7,40.7,84.7,91c0,50.3-37.9,91-84.7,91c-19,0-36.5-6.7-50.7-18.1v64.1c0,19.6,16,35,34.9,35c1.9,0,3.8-0.2,5.8-0.5
			l616-101.3c-4.8-13.3-7.4-27.7-7.4-42.8C649.2,611.5,698.5,558.5,759.4,558.5z M409.2,607.1c-37.7,0-68.2-32.8-68.2-73.3
			s30.5-73.3,68.2-73.3s68.2,32.8,68.2,73.3S446.9,607.1,409.2,607.1z M628,438.7c-11.8,0-22.9-3.2-32.6-8.9
			c-21.2-12.4-35.6-36.6-35.6-64.4c0-40.5,30.5-73.3,68.2-73.3c25.6,0,47.8,15.1,59.5,37.5c5.5,10.6,8.7,22.8,8.7,35.8
			C696.2,405.9,665.7,438.7,628,438.7z"/>
	</g>
</g>
</svg>
