<?xml version="1.0" encoding="utf-8"?>
<!-- Generator: Adobe Illustrator 17.1.0, SVG Export Plug-In . SVG Version: 6.00 Build 0)  -->
<!DOCTYPE svg PUBLIC "-//W3C//DTD SVG 1.1//EN" "http://www.w3.org/Graphics/SVG/1.1/DTD/svg11.dtd">
<svg version="1.1" id="Capa_1" xmlns="http://www.w3.org/2000/svg" xmlns:xlink="http://www.w3.org/1999/xlink" x="0px" y="0px"
	 viewBox="0 0 569.7 569.7" enable-background="new 0 0 569.7 569.7" xml:space="preserve">
<g>
	<g id="Layer_1_18_">
		<g>
			<path fill="#FFFFFF" d="M123.7,352.4h376.1c17.8,0,31.9-14,31.9-31.9l0,0c0-102-68.9-187.4-163.2-212.9
				c1.3-5.1,1.3-10.2,1.3-15.3c0-33.2-26.8-58.7-58.6-58.7s-58.6,26.8-58.6,58.7c0,5.1,0,10.2,1.3,15.3
				C159.4,133.1,90.5,218.6,90.5,320.6l0,0C91.8,338.4,105.8,352.4,123.7,352.4z M312.4,70.7c11.5,0,21.7,10.2,21.7,21.7
				c0,2.6,0,5.1-1.3,7.7c-6.4,0-12.8-1.3-20.4-1.3c-6.4,0-14,0-20.4,1.3c-1.3-2.6-1.3-5.1-1.3-7.7C290.7,80.9,299.6,70.7,312.4,70.7
				z M135.1,247.9c12.8-38.3,38.3-68.8,72.7-89.3c8.9-5.1,20.4-2.6,25.5,6.4l0,0c2.6,3.8,3.8,10.2,1.3,14c-1.3,5.1-5.1,8.9-8.9,11.5
				c-25.5,15.3-45.9,38.3-54.8,67.6c-1.3,5.1-5.1,8.9-10.2,11.5c-5.1,2.5-10.2,2.5-15.3,1.3l0,0C136.4,267,131.3,256.8,135.1,247.9z
				"/>
			<path fill="#FFFFFF" d="M543.2,377.9H109.7c-25.5,0-47.2-21.7-47.2-47.2V37.5c0-17.9-14-30.6-30.6-30.6C15.3,6.9,0,19.7,0,37.5
				v293.3c0,59.9,49.7,109.6,109.7,109.6H125c-6.4,11.5-10.2,25.5-10.2,39.5c0,45.9,37,82.9,82.9,82.9s82.9-37,82.9-82.9
				c0-14-3.8-28-10.2-39.5h76.5c-6.4,11.5-10.2,25.5-10.2,39.5c0,45.9,37,82.9,82.9,82.9s82.9-37,82.9-82.9c0-14-3.8-28-10.2-39.5
				H538c17.8,0,30.6-14,30.6-30.6C573.8,392,559.7,377.9,543.2,377.9z M197.6,513.1c-17.9,0-33.1-15.3-33.1-33.1
				c0-19.1,15.3-33.1,33.1-33.1s33.1,15.3,33.1,33.1C232.1,497.8,216.8,513.1,197.6,513.1z M422,513.1c-19.1,0-33.1-15.3-33.1-33.1
				c0-19.1,15.3-33.1,33.1-33.1s33.1,15.3,33.1,33.1C456.4,497.8,441.1,513.1,422,513.1z"/>
		</g>
	</g>
</g>
</svg>
