<?xml version="1.0" encoding="utf-8"?>
<!-- Generator: Adobe Illustrator 17.1.0, SVG Export Plug-In . SVG Version: 6.00 Build 0)  -->
<!DOCTYPE svg PUBLIC "-//W3C//DTD SVG 1.1//EN" "http://www.w3.org/Graphics/SVG/1.1/DTD/svg11.dtd">
<svg version="1.1" id="Capa_1" xmlns="http://www.w3.org/2000/svg" xmlns:xlink="http://www.w3.org/1999/xlink" x="0px" y="0px"
	 viewBox="0 0 612.3 402.5" enable-background="new 0 0 612.3 402.5" xml:space="preserve">
<path fill="#FFFFFF" d="M481.3,322V207l22-62.9l-72.8-25.5l-7.1,20.4l-100.4-35.1l0-0.1l0,0.1l-77.7-27.2l7.1-20.4l-47.1-16.2V22.9
	h-34v135.4h-31.5v33.8h11v66.1L132.5,322h-27.7v57.6h402.5V322L481.3,322L481.3,322z M412.1,171.1l-7.1,20.4l42.3,14.8v53.1h-80.8
	l-32.4-115.6L412.1,171.1z M205.2,121.5l21.6,7.7l7.1-20.4l79.7,27.9L261.8,322H244l-18.3-63.8v-66.1h11v-33.8h-31.5V121.5z"/>
</svg>
