<?xml version="1.0" encoding="utf-8"?>
<!-- Generator: Adobe Illustrator 17.1.0, SVG Export Plug-In . SVG Version: 6.00 Build 0)  -->
<!DOCTYPE svg PUBLIC "-//W3C//DTD SVG 1.1//EN" "http://www.w3.org/Graphics/SVG/1.1/DTD/svg11.dtd">
<svg version="1.1" id="Capa_1" xmlns="http://www.w3.org/2000/svg" xmlns:xlink="http://www.w3.org/1999/xlink" x="0px" y="0px"
	 viewBox="0 0 612 612" enable-background="new 0 0 612 612" xml:space="preserve">
<g>
	<path fill="#FFFFFF" d="M202.3,353.1c-46.3,23.1-90.5,45.1-146.5,61.4V306c0-8.4,4.2-16.3,11.2-21.1l41.8-28.4
		c3.6-2.4,10-4.4,14.3-4.4h67.1v-39.5h75.5V252h57.9c9.4,0,17,7.6,17,17v23.5C287.4,310.7,244.5,332.1,202.3,353.1z M190.2,173.5
		V194h75.5v-20.5c0-10.5-8.5-19-19-19h-37.5C198.7,154.4,190.2,163,190.2,173.5z M146.4,113.7c5.4,0,10.6-1.1,15.3-3.1
		c5.3,7.4,14,12.2,23.8,12.2c3.2,0,6.2-0.6,9.1-1.6c0,0.5-0.2,1-0.2,1.6c0,10.1,8.2,18.2,18.2,18.2s18.2-8.2,18.2-18.2
		s-8.2-18.2-18.2-18.2c0,0,0,0,0,0c1.4-3.4,2.2-7.2,2.2-11.2c0-16.2-13.2-29.4-29.4-29.4c-0.5,0-1,0.1-1.6,0.2
		c-4.6-16.5-19.5-28.7-37.5-28.7c-21.6,0-39.1,17.5-39.1,39.1C107.3,96.2,124.8,113.7,146.4,113.7z M529,496.3
		c-3.8,5.8-3.9,13.2-0.1,18.9l22.5,33.8c8.2,12.3-1.4,28.7-16.1,27.5L34.4,537.1c-13.6-1.1-25-10.7-28.5-23.9
		c-3-11.6-5.9-25.9-5.9-38.6c0-26.1,10.5-31,32-36.2C224.3,392.6,277.2,282,598,263.9c8.3-0.5,15,6.8,13.9,15.1
		C602.4,349.4,568.8,435.6,529,496.3z M504.5,413.6c0-4.7-3.8-8.5-8.5-8.5s-8.5,3.8-8.5,8.5c0,13.1-8.8,24.1-20.7,27.8v-58.6
		c6.4-3.2,10.8-9.7,10.8-17.3c0-10.7-8.7-19.4-19.4-19.4c-10.7,0-19.4,8.7-19.4,19.4c0,7.7,4.5,14.2,10.9,17.4v58.6
		c-11.9-3.7-20.7-14.7-20.7-27.8c0-4.7-3.8-8.5-8.5-8.5s-8.5,3.8-8.5,8.5c0,25.5,20.7,46.2,46.2,46.2
		C483.7,459.8,504.5,439.1,504.5,413.6z"/>
</g>
</svg>
