<?xml version="1.0" encoding="utf-8"?>
<!-- Generator: Adobe Illustrator 17.1.0, SVG Export Plug-In . SVG Version: 6.00 Build 0)  -->
<!DOCTYPE svg PUBLIC "-//W3C//DTD SVG 1.1//EN" "http://www.w3.org/Graphics/SVG/1.1/DTD/svg11.dtd">
<svg version="1.1" id="Capa_1" xmlns="http://www.w3.org/2000/svg" xmlns:xlink="http://www.w3.org/1999/xlink" x="0px" y="0px"
	 viewBox="0 0 47 47" enable-background="new 0 0 47 47" xml:space="preserve">
<g>
	<g id="Layer_1_83_">
		<g>
			<path fill="#FFFFFF" d="M46.4,13.8L33.2,0.6C32.8,0.2,32.3,0,31.7,0H7.5C3.4,0,0,3.4,0,7.5v32C0,43.6,3.4,47,7.5,47h32
				c4.1,0,7.5-3.4,7.5-7.5V15.3C47,14.7,46.8,14.2,46.4,13.8z M31.5,5L42,15.5H31.5V5z M39.5,42.7h-32c-1.8,0-3.2-1.4-3.2-3.2v-32
				c0-1.8,1.4-3.2,3.2-3.2h21.9v12.3c0,0.6,0.5,1.1,1.1,1.1h12.3v21.9C42.7,41.3,41.3,42.7,39.5,42.7z"/>
			<path fill="#FFFFFF" d="M20.1,10c-1.2-1.2-2.7-1.8-4.4-1.8c-1.7,0-3.2,0.6-4.4,1.8l-0.9,0.9c-1.2,1.2-1.8,2.7-1.8,4.4
				s0.6,3.2,1.8,4.4l12.4,12.4c0.7,0.7,1.6,1.1,2.6,1.1c0,0,0,0,0,0c1,0,1.9-0.4,2.6-1.1L29,31c0.7-0.7,1.1-1.6,1.1-2.6
				c0-1-0.4-1.9-1.1-2.6l-11-11c-0.4-0.4-1.1-0.4-1.5,0c-0.4,0.4-0.4,1.1,0,1.5l11,11c0.3,0.3,0.4,0.7,0.4,1.1
				c0,0.4-0.2,0.8-0.4,1.1l-1.1,1.1c-0.3,0.3-0.7,0.4-1.1,0.4h0c-0.4,0-0.8-0.2-1.1-0.4L11.9,18.2c-0.8-0.8-1.2-1.8-1.2-2.9
				s0.4-2.1,1.2-2.9l0.9-0.9c1.5-1.5,4.3-1.5,5.8,0l14.6,14.6c0.8,0.8,1.2,1.8,1.2,2.9s-0.4,2.1-1.2,2.9l-4.4,4.4
				c-1.5,1.5-4.3,1.5-5.8,0L9.5,22.8c-0.4-0.4-1.1-0.4-1.5,0c-0.4,0.4-0.4,1.1,0,1.5l13.5,13.5c1.2,1.2,2.7,1.8,4.4,1.8
				s3.2-0.6,4.4-1.8l4.4-4.4c1.2-1.2,1.8-2.7,1.8-4.4s-0.6-3.2-1.8-4.4L20.1,10z"/>
		</g>
	</g>
</g>
</svg>
