<?xml version="1.0" encoding="utf-8"?>
<!-- Generator: Adobe Illustrator 17.1.0, SVG Export Plug-In . SVG Version: 6.00 Build 0)  -->
<!DOCTYPE svg PUBLIC "-//W3C//DTD SVG 1.1//EN" "http://www.w3.org/Graphics/SVG/1.1/DTD/svg11.dtd">
<svg version="1.1" id="Capa_1" xmlns="http://www.w3.org/2000/svg" xmlns:xlink="http://www.w3.org/1999/xlink" x="0px" y="0px"
	 viewBox="0 0 612.3 402.5" enable-background="new 0 0 612.3 402.5" xml:space="preserve">
<path fill="#FFFFFF" d="M490.3,14.1H122c-9.5,0-17.1,7.7-17.1,17.1v340.2c0,9.5,7.7,17.1,17.1,17.1h368.3c9.5,0,17.1-7.7,17.1-17.1
	V31.2C507.4,21.7,499.7,14.1,490.3,14.1z M188.4,148.3c-27.2,0-49.3-22.1-49.3-49.3s22.1-49.3,49.3-49.3s49.3,22.1,49.3,49.3
	S215.6,148.3,188.4,148.3z M297.8,326.1c2.1,4.2,1.9,9.2-0.6,13.1c-2.5,4-6.8,6.4-11.5,6.4c-14.9,0-109.8,0-124.1,0
	c-4.7,0-9-2.4-11.5-6.4c-2.5-4-2.7-9-0.6-13.1l62.1-124.4c2.3-4.6,7-7.5,12.1-7.5s9.8,2.9,12.1,7.5L297.8,326.1z M466.2,339.2
	c-2.5,4-6.8,6.4-11.5,6.4H332.4c2.5-8.8,2.6-18.2,0-27c-1.8-6.1,0.6-0.5-45.7-93.4l52.8-105.9c2.3-4.6,7-7.5,12.1-7.5
	c5.1,0,9.8,2.9,12.1,7.5l103.1,206.8C468.9,330.3,468.7,335.3,466.2,339.2z"/>
</svg>
