<?xml version="1.0" encoding="utf-8"?>
<!-- Generator: Adobe Illustrator 17.1.0, SVG Export Plug-In . SVG Version: 6.00 Build 0)  -->
<!DOCTYPE svg PUBLIC "-//W3C//DTD SVG 1.1//EN" "http://www.w3.org/Graphics/SVG/1.1/DTD/svg11.dtd">
<svg version="1.1" id="Layer_1" xmlns="http://www.w3.org/2000/svg" xmlns:xlink="http://www.w3.org/1999/xlink" x="0px" y="0px"
	 viewBox="0 0 800 800" enable-background="new 0 0 800 800" xml:space="preserve">
<g>
	<g>
		<path fill="#FFFFFF" d="M398.8,322.4c-66.3,0-120.1,53.8-120.1,120.1c0,66.3,53.8,120.1,120.1,120.1
			c66.3,0,120.1-53.8,120.1-120.1C518.8,376.1,465.1,322.4,398.8,322.4z M719,202.3h-96.1c-13.2,0-27.4-10.2-31.6-22.8L566.4,105
			c-4.2-12.5-18.4-22.8-31.6-22.8H262.7c-13.2,0-27.4,10.2-31.6,22.8l-24.8,74.5c-4.2,12.5-18.4,22.8-31.6,22.8H78.5
			c-44,0-80,36-80,80v360.2c0,44,36,80,80,80H719c44,0,80-36,80-80V282.3C799,238.3,763,202.3,719,202.3z M398.8,642.5
			c-110.5,0-200.1-89.6-200.1-200.1c0-110.5,89.6-200.1,200.1-200.1c110.5,0,200.1,89.6,200.1,200.1
			C598.9,553,509.3,642.5,398.8,642.5z M690.9,338.3c-15.5,0-28-12.5-28-28c0-15.5,12.6-28,28-28c15.5,0,28,12.6,28,28
			C719,325.8,706.4,338.3,690.9,338.3z"/>
	</g>
</g>
</svg>
