<?xml version="1.0" encoding="utf-8"?>
<!-- Generator: Adobe Illustrator 17.1.0, SVG Export Plug-In . SVG Version: 6.00 Build 0)  -->
<!DOCTYPE svg PUBLIC "-//W3C//DTD SVG 1.1//EN" "http://www.w3.org/Graphics/SVG/1.1/DTD/svg11.dtd">
<svg version="1.1" id="Layer_1" xmlns="http://www.w3.org/2000/svg" xmlns:xlink="http://www.w3.org/1999/xlink" x="0px" y="0px"
	 viewBox="0 0 800 800" enable-background="new 0 0 800 800" xml:space="preserve">
<path fill="#FFFFFF" d="M695.4,515V404.8h-57v26.6h-106l-49.9-105.2h32.3v-48.7c17.1-23.5,27.3-52.5,27.3-83.8
	c0-68.9-49.1-126.5-114.1-139.7V1h-57v52.9c-65,13.2-114.1,70.9-114.1,139.7c0,31.3,10.2,60.2,27.3,83.8v48.7h32.3l-49.9,105.2h-106
	v-26.6h-57V515h57v-26.6h79L103.5,774.7l51.5,24.4l147.4-310.8h68.3V515h57v-26.6h68.3l147.4,310.8l51.5-24.4L559.3,488.4h79V515
	L695.4,515L695.4,515z M484.9,193.7c0,27.5-13.1,52-33.3,67.7l-2.3-4.9h-21.4V113C461.1,124.8,484.9,156.5,484.9,193.7z M370.8,113
	v143.4h-21.4l-2.3,4.9c-20.2-15.7-33.3-40.2-33.3-67.7C313.8,156.5,337.6,124.8,370.8,113z M427.9,431.4v-26.6h-57v26.6h-41.3
	l46.1-97.1c7.7,1.3,15.6,2,23.7,2c8.1,0,16-0.7,23.7-2l46.1,97.1H427.9z"/>
</svg>
