<?xml version="1.0" encoding="utf-8"?>
<!-- Generator: Adobe Illustrator 17.1.0, SVG Export Plug-In . SVG Version: 6.00 Build 0)  -->
<!DOCTYPE svg PUBLIC "-//W3C//DTD SVG 1.1//EN" "http://www.w3.org/Graphics/SVG/1.1/DTD/svg11.dtd">
<svg version="1.1" id="Capa_1" xmlns="http://www.w3.org/2000/svg" xmlns:xlink="http://www.w3.org/1999/xlink" x="0px" y="0px"
	 viewBox="0 0 612.3 402.5" enable-background="new 0 0 612.3 402.5" xml:space="preserve">
<g>
	<path fill="#FFFFFF" d="M452.5,83.3c-11.3-1.7-22,0.3-30.1,4.8c-0.3-2.4-0.7-4.9-1.3-7.3c-5.5-20.3-22.2-34-39.6-34.1
		C374.7,19.6,355.7,0,333.1,0c-14.2,0-27,7.7-36.3,20c-8.8-9.2-21-15-34.6-15C235.6,5,214,27,214,54.1c0,5,0.9,9.6,2.3,14.2
		c-21.7,2.5-38.5,17.6-39.8,36.4c-3.8-0.9-7.8-1.5-12-1.5c-22,0-39.8,13.2-39.8,29.4c0,16.2,17.8,29.4,39.8,29.4
		c2.3,0,4.6-0.2,6.8-0.5c3.5,15.6,16.9,27.2,33,27.2c7.6,0,14.5-2.6,20.1-7c6.6,19.3,21,47.8,49.9,61c0,0,0,147.6,0,147.8
		c0,4.9,12.2,8.9,27.3,8.9c15.1,0,27.3-4,27.3-8.9c0-0.2,0-108.5,0-108.5c60.4-38.5,65.1-78.8,63.6-96.7c3.7-1.1,7.1-2.9,10.2-5.4
		c6.2,3.9,13.5,6.2,21.4,6.2c22,0,39.8-17.5,39.8-39c0-2.3-0.3-4.5-0.7-6.7c12.8-3.1,22.4-11.2,24.1-22.1
		C489.8,102.3,474.2,86.6,452.5,83.3z M235.1,168.2c0-0.1,0.1-0.2,0.1-0.3c7,5,16.6,8.1,27.2,8.1c4.2,0,8.2-0.6,11.9-1.5v39
		C260.2,205.8,240.3,191.1,235.1,168.2z M328.9,253.4v-43.5c2.2,0.4,4.4,0.6,6.7,0.6c17.6,0,32.2-11.5,35.9-26.8
		c2.2,1.1,4.6,1.9,7.1,2.4C378.1,219,344.6,243.7,328.9,253.4z"/>
	<path fill="#FFFFFF" d="M251.5,320l-14.9-13.1L221.8,320v21.9h-22.5V320l-14.9-13.1L169.6,320v21.9h-11.3v14.6h11.3v17.8h-11.3
		v14.6h11.3v13.7h29.7v-13.7h22.5v13.7h29.7v-13.7h11.3v-14.6h-11.3v-17.8h11.3v-14.6h-11.3V320z M221.8,374.3h-22.5v-17.8h22.5
		L221.8,374.3L221.8,374.3z"/>
	<path fill="#FFFFFF" d="M433.7,320l-14.9-13.1L404,320v21.9h-22.5V320l-14.9-13.1L351.8,320v21.9h-11.3v14.6h11.3v17.8h-11.3v14.6
		h11.3v13.7h29.7v-13.7H404v13.7h29.7v-13.7H445v-14.6h-11.3v-17.8H445v-14.6h-11.3L433.7,320L433.7,320z M404,374.3h-22.5v-17.8
		H404V374.3z"/>
</g>
</svg>
