<?xml version="1.0" encoding="utf-8"?>
<!-- Generator: Adobe Illustrator 17.1.0, SVG Export Plug-In . SVG Version: 6.00 Build 0)  -->
<!DOCTYPE svg PUBLIC "-//W3C//DTD SVG 1.1//EN" "http://www.w3.org/Graphics/SVG/1.1/DTD/svg11.dtd">
<svg version="1.1" id="Capa_1" xmlns="http://www.w3.org/2000/svg" xmlns:xlink="http://www.w3.org/1999/xlink" x="0px" y="0px"
	 viewBox="0 0 612.4 612.4" enable-background="new 0 0 612.4 612.4" xml:space="preserve">
<g>
	<g id="Shape_356_1_">
		<g>
			<path fill="#FFFFFF" d="M499.2,444.7c-5.7,0-10.3,4.6-10.3,10.3c0,5.7,4.6,10.3,10.3,10.3c5.7,0,10.3-4.6,10.3-10.3
				C509.5,449.4,504.9,444.7,499.2,444.7z M499.2,351.6c-5.7,0-10.3,4.6-10.3,10.3c0,5.7,4.6,10.4,10.3,10.4
				c5.7,0,10.3-4.6,10.3-10.4C509.5,356.3,504.9,351.6,499.2,351.6z M406.9,424c-5.7,0-10.3,4.6-10.3,10.4c0,5.7,4.6,10.3,10.3,10.3
				c5.7,0,10.3-4.6,10.3-10.3C417.1,428.7,412.5,424,406.9,424z M406.9,330.9c-5.7,0-10.3,4.6-10.3,10.4c0,5.7,4.6,10.3,10.3,10.3
				c5.7,0,10.3-4.6,10.3-10.3C417.1,335.6,412.5,330.9,406.9,330.9z M601.5,373.9c-29.7-109.8-112.2-183.4-184.3-164.2
				c-27.4,7.3-71.6,25.7-102.7,27.8v-30.7h-0.1c0-1.8,0.1-3.3,0.1-5.2c0-31.4-25.3-56.9-56.4-56.9H176c-19.8,0-35.9-16.2-35.9-36.2
				c0-20,16.1-36.2,35.9-36.2h118c11.3,0,20.5-9.3,20.5-20.7V10.3c0-5.7-4.6-10.3-10.3-10.3C298.6,0,294,4.6,294,10.3V31
				c0,20.5-0.8,20.7-20.5,20.7H176c-31.2,0-56.4,25.5-56.4,56.9c0,31.4,25.3,56.9,56.4,56.9h82.1c19.8,0,35.9,16.2,35.9,36.2
				c0,1.8,0.1,3.4,0.1,5.2H294v30.9c-30.7-2.2-74.3-20.6-101.3-28c-71.2-19.2-152.6,54.7-182,165c-29.3,110.3,4.6,215.4,75.7,234.6
				c53.1,14.3,111.8-23.3,150.5-89.1c21.3,4.5,43.8,7.2,67.3,7.2c23.8,0,46.6-4.1,68.2-8.7c39.1,65.5,98.6,102.9,152.4,88.6
				C596.9,588.3,631.2,483.8,601.5,373.9z M201.7,393h-41v41.4c0,5.7-4.6,10.3-10.3,10.3s-10.3-4.6-10.3-10.3V393H99
				c-5.7,0-10.3-4.6-10.3-10.3s4.6-10.3,10.3-10.3h41V331c0-5.7,4.6-10.4,10.3-10.4c5.7,0,10.3,4.7,10.3,10.4v41.4h41
				c5.7,0,10.3,4.6,10.3,10.3S207.3,393,201.7,393z M406.9,465.4c-17,0-30.8-13.9-30.8-31c0-17.1,13.8-31,30.8-31
				c17,0,30.8,13.9,30.8,31C437.7,451.5,423.9,465.4,406.9,465.4z M406.9,372.3c-17,0-30.8-13.9-30.8-31c0-17.1,13.8-31,30.8-31
				c17,0,30.8,13.9,30.8,31C437.7,358.4,423.9,372.3,406.9,372.3z M499.2,486.1c-17,0-30.8-13.9-30.8-31c0-17.1,13.8-31,30.8-31
				c17,0,30.8,13.9,30.8,31C530,472.2,516.2,486.1,499.2,486.1z M499.2,393c-17,0-30.8-13.9-30.8-31c0-17.1,13.8-31,30.8-31
				c17,0,30.8,13.9,30.8,31C530,379.1,516.2,393,499.2,393z"/>
		</g>
	</g>
</g>
</svg>
