<?xml version="1.0" encoding="utf-8"?>
<!-- Generator: Adobe Illustrator 17.1.0, SVG Export Plug-In . SVG Version: 6.00 Build 0)  -->
<!DOCTYPE svg PUBLIC "-//W3C//DTD SVG 1.1//EN" "http://www.w3.org/Graphics/SVG/1.1/DTD/svg11.dtd">
<svg version="1.1" id="Capa_1" xmlns="http://www.w3.org/2000/svg" xmlns:xlink="http://www.w3.org/1999/xlink" x="0px" y="0px"
	 viewBox="0 0 612.3 402.5" enable-background="new 0 0 612.3 402.5" xml:space="preserve">
<path fill="#FFFFFF" d="M435.8,169.8c-3.8-2.5-4.5-4.3-4.5-4.6c0.1-0.3,1-1.8,4.7-3.5c41.6-19.6,65.5-43.8,65.5-66.3
	c0-18.2-9.6-27.4-28.6-27.4c-4.9,0-10.6,0.6-17.9,1.8c-0.9,0.2-1.8,0.2-2.8,0.2c-7.4,0-14.9-5.2-18.5-13C417.5,22.3,382.3,0,344.1,0
	c-54.6,0-99,44.4-99,98.9c0,25.4,9.6,49.6,27.1,68c3.4,3.6,3.9,6.1,3.7,6.9c-0.2,0.8-1.8,1.9-4.8,2.6c-13.8,3.2-26.2,5.9-39.8,5.9
	c-6.7,0-13-0.7-19.2-2.1c-3.9-0.9-9.1-2.6-15.1-4.6c-13.9-4.6-31.2-10.3-46.8-10.3c-14.1,0-24.7,4.8-31.3,14.2
	c-13.8,19.6-9.8,59,12.2,120.6c26.7,74.5,76.2,102.2,183,102.2c16.4,0,34.3-0.6,54.6-1.9c36.4-2.3,67.4-14.4,89.7-34.9
	c23.5-21.6,35.9-51.5,35.9-86.5C494.2,235.2,472.4,194.3,435.8,169.8z M354.8,54.3c11.3,0,20.5,9.2,20.5,20.5s-9.2,20.5-20.5,20.5
	s-20.5-9.2-20.5-20.5S343.5,54.3,354.8,54.3z M267.6,330.6c-50.1-8.1-93.9-57.2-93.9-84c0-13.1,59.5-13.1,110.3-13.1
	c69,0,91.9,21.7,91.9,48.6S324.7,339.8,267.6,330.6z"/>
</svg>
