<?xml version="1.0" encoding="utf-8"?>
<!-- Generator: Adobe Illustrator 17.1.0, SVG Export Plug-In . SVG Version: 6.00 Build 0)  -->
<!DOCTYPE svg PUBLIC "-//W3C//DTD SVG 1.1//EN" "http://www.w3.org/Graphics/SVG/1.1/DTD/svg11.dtd">
<svg version="1.1" id="Capa_1" xmlns="http://www.w3.org/2000/svg" xmlns:xlink="http://www.w3.org/1999/xlink" x="0px" y="0px"
	 viewBox="0 0 612.3 402.5" enable-background="new 0 0 612.3 402.5" xml:space="preserve">
<g>
	<path fill="#FFFFFF" d="M471.7,83.4c0.4-1.7,0.7-3.4,0.7-5.3V42.6c0-12.4-10-22.4-22.4-22.4h-20.6c-12.3,0-22.4,10-22.4,22.4v35.4
		c0,1.8,0.3,3.6,0.7,5.3H210.5c0.4-1.7,0.7-3.4,0.7-5.3V42.6c0-12.4-10-22.4-22.4-22.4h-20.6c-12.4,0-22.4,10-22.4,22.4v35.4
		c0,1.8,0.3,3.6,0.7,5.3h-41.7v298.9h402.5V83.4H471.7z M262.5,229.2H154.2V192h108.3V229.2L262.5,229.2z M475.1,227.3h-47.6v50
		h-31.1v-50h-47.7v-30.2h47.7v-49.6h31.1v49.6h47.6V227.3z"/>
</g>
</svg>
