<?xml version="1.0" encoding="utf-8"?>
<!-- Generator: Adobe Illustrator 17.1.0, SVG Export Plug-In . SVG Version: 6.00 Build 0)  -->
<!DOCTYPE svg PUBLIC "-//W3C//DTD SVG 1.1//EN" "http://www.w3.org/Graphics/SVG/1.1/DTD/svg11.dtd">
<svg version="1.1" id="Capa_1" xmlns="http://www.w3.org/2000/svg" xmlns:xlink="http://www.w3.org/1999/xlink" x="0px" y="0px"
	 viewBox="0 0 612.3 402.5" enable-background="new 0 0 612.3 402.5" xml:space="preserve">
<g>
	<path fill="#FFFFFF" d="M196.9,171.1V69.3c0-13.1,10.7-23.8,23.8-23.8c13.1,0,23.8,10.7,23.8,23.8h32.7c0-31.1-25.3-56.5-56.5-56.5
		c-29.9,0-54.5,23.4-56.4,52.9h-0.1v3.6v101.8h-59.3v32.7h402.5v-32.7H196.9z"/>
	<path fill="#FFFFFF" d="M125.5,300.7v7.2v7.2c0,23,16.8,42.2,38.7,46v28.6h32.7v-27.9h218.5v27.9h32.7v-28.6
		c21.9-3.8,38.7-23,38.7-46v-7.2v-7.2v-77.8H125.5V300.7z"/>
</g>
</svg>
