<?xml version="1.0" encoding="utf-8"?>
<!-- Generator: Adobe Illustrator 17.1.0, SVG Export Plug-In . SVG Version: 6.00 Build 0)  -->
<!DOCTYPE svg PUBLIC "-//W3C//DTD SVG 1.1//EN" "http://www.w3.org/Graphics/SVG/1.1/DTD/svg11.dtd">
<svg version="1.1" id="Capa_1" xmlns="http://www.w3.org/2000/svg" xmlns:xlink="http://www.w3.org/1999/xlink" x="0px" y="0px"
	 viewBox="0 0 525.7 525.7" enable-background="new 0 0 525.7 525.7" xml:space="preserve">
<g>
	<g>
		<path fill="#FFFFFF" d="M348.3,136.7c-30.5,0-59.3,7.8-84.4,21.4c-15.5-8.7-32.3-15.1-50.2-18.9l9.6-3.3c2.4-0.8,5.3-3.3,6.5-5.5
			l33.8-60.1c1.2-2.2,0.3-4.7-2-5.6L184,35.5c-1.3-0.5-2.5-1-3.2-1.2l-0.4-0.2c-0.2-0.1-0.6-0.1-0.8,0s-0.4,0.2-0.4,0.2
			c-0.7,0.3-1.9,0.7-3.2,1.3L98.5,64.8c-2.4,0.9-3.3,3.4-2,5.6l33.8,60.2c1.2,2.2,4.1,4.6,6.5,5.5l7.7,2.7C62.3,154.2,0,226.4,0,313
			c0,97.9,79.6,177.5,177.5,177.5c30.5,0,59.3-7.8,84.4-21.4c25.6,14.3,55,22.6,86.4,22.6c97.9,0,177.5-79.6,177.5-177.5
			C525.7,216.4,446.1,136.7,348.3,136.7z M316.7,313c0,44.9-21.5,84.8-54.6,110.3c-32.2-25.5-53-64.9-53-109.1
			c0-44.9,21.5-84.9,54.6-110.3C295.9,229.4,316.7,268.8,316.7,313z M177.5,452.2c-76.8,0-139.2-62.5-139.2-139.2
			c0-76.8,62.5-139.2,139.2-139.2c18,0,35.2,3.6,51,9.8c-35.4,32.5-57.7,78.9-57.7,130.6c0,50.8,21.5,96.5,55.8,128.9
			C211.3,448.9,194.8,452.2,177.5,452.2z M348.3,453.4c-18,0-35.2-3.6-51-9.8C332.6,411.1,355,364.7,355,313
			c0-50.8-21.5-96.5-55.8-128.9c15.3-5.8,31.8-9.1,49.2-9.1c76.8,0,139.2,62.5,139.2,139.2C487.5,391,425,453.4,348.3,453.4z"/>
	</g>
</g>
</svg>
