<?xml version="1.0" encoding="utf-8"?>
<!-- Generator: Adobe Illustrator 17.1.0, SVG Export Plug-In . SVG Version: 6.00 Build 0)  -->
<!DOCTYPE svg PUBLIC "-//W3C//DTD SVG 1.1//EN" "http://www.w3.org/Graphics/SVG/1.1/DTD/svg11.dtd">
<svg version="1.1" id="Capa_1" xmlns="http://www.w3.org/2000/svg" xmlns:xlink="http://www.w3.org/1999/xlink" x="0px" y="0px"
	 viewBox="0 0 612.3 402.5" enable-background="new 0 0 612.3 402.5" xml:space="preserve">
<g>
	<path fill="#FFFFFF" d="M221.4,291.7c0,19.5,14,36,32.5,39.7l-6,34.3h-13.5v36.8h7.1h129.4h7.1v-36.8h-13.5l-6-34.3
		c18.5-3.8,32.5-20.2,32.5-39.7l7.4-80.2H214L221.4,291.7z"/>
	<path fill="#FFFFFF" d="M390.4,151.7c5.2-13.7,8-28.6,8-44c0-28.1-9.2-54.7-25.9-74.8C355,11.7,331.5,0,306.1,0
		c-25.3,0-48.9,11.7-66.4,32.8C223,53,213.9,79.5,213.9,107.6c0,15.4,2.8,30.3,8,44h-17.8v36.8h40.4h123.2h40.4v-36.8L390.4,151.7
		L390.4,151.7z M349.6,151.7h-86.8c-7.9-12.5-12.1-27.8-12.1-44c0-39.1,24.9-70.9,55.5-70.9c30.6,0,55.5,31.8,55.5,70.9
		C361.7,123.8,357.4,139.2,349.6,151.7z"/>
</g>
</svg>
