<?xml version="1.0" encoding="utf-8"?>
<!-- Generator: Adobe Illustrator 17.1.0, SVG Export Plug-In . SVG Version: 6.00 Build 0)  -->
<!DOCTYPE svg PUBLIC "-//W3C//DTD SVG 1.1//EN" "http://www.w3.org/Graphics/SVG/1.1/DTD/svg11.dtd">
<svg version="1.1" id="Capa_1" xmlns="http://www.w3.org/2000/svg" xmlns:xlink="http://www.w3.org/1999/xlink" x="0px" y="0px"
	 viewBox="0 0 612 612" enable-background="new 0 0 612 612" xml:space="preserve">
<g>
	<path fill="#FFFFFF" d="M289.1,191.7l-36.2,88c-1.2,3-4,5-7.2,5.3L60.3,301.3c-4.5,0.4-8,4.3-7.9,8.8l3.8,145.4
		c0.1,4,2.9,7.4,6.9,8.2l218.1,45.9c5.3,1.1,10.8,1.7,16.2,1.7l0-43.1V193.3C297.4,181.3,293.6,180.6,289.1,191.7z M263.7,462.9
		l-81.9-13.2v-42.9h81.9V462.9z M227.9,264.1L9.5,286.1C2.8,286.8-2,280,0.8,273.9L59,149.6c1.2-2.5,3.5-4.3,6.3-4.8l239.9-44.1
		L234.9,259C233.6,261.8,231,263.8,227.9,264.1z M551.7,301.3L366.4,285c-3.2-0.3-6-2.3-7.2-5.3l-36.2-88
		c-4.6-11.1-8.3-10.4-8.3,1.6v274.8l0,43.1c5.4,0,10.8-0.5,16.2-1.7l218.1-45.9c3.9-0.8,6.8-4.2,6.9-8.2l3.8-145.4
		C559.7,305.5,556.2,301.7,551.7,301.3z M475.4,378.9l-10.2,0.3l-0.2,64.4c0,2.8-2.9,5.5-6.5,6.1l-16.8,2.4c-3.8,0.6-7-1.4-7-4.4
		l0.2-67.7l-11.7,0.3c-5.7,0.2-9.3-4.4-6.4-8.2l27.8-36.3c2.6-3.4,9.1-3.1,11.7,0.5l24.4,34.8C483.1,374.6,480.2,378.8,475.4,378.9z
		 M602.5,286.1l-218.4-22.1c-3.1-0.3-5.8-2.3-7-5.1l-70.3-158.3l239.9,44.1c2.7,0.5,5.1,2.3,6.3,4.8l58.1,124.3
		C614,280,609.2,286.8,602.5,286.1z"/>
</g>
</svg>
