<?xml version="1.0" encoding="utf-8"?>
<!-- Generator: Adobe Illustrator 17.1.0, SVG Export Plug-In . SVG Version: 6.00 Build 0)  -->
<!DOCTYPE svg PUBLIC "-//W3C//DTD SVG 1.1//EN" "http://www.w3.org/Graphics/SVG/1.1/DTD/svg11.dtd">
<svg version="1.1" id="Capa_1" xmlns="http://www.w3.org/2000/svg" xmlns:xlink="http://www.w3.org/1999/xlink" x="0px" y="0px"
	 viewBox="0 0 612 612" enable-background="new 0 0 612 612" xml:space="preserve">
<g>
	<path fill="#FFFFFF" d="M530.5,32.1c27.2,0,49.4,22.2,49.4,49.4v449.2c0,27.2-22.2,49.3-49.4,49.3H81.4
		c-27.2,0-49.3-22.1-49.3-49.3V81.5c0-27.2,22.1-49.4,49.3-49.4H530.5 M530.5,0H81.4C36.6,0,0,36.6,0,81.5v449.2
		C0,575.5,36.6,612,81.4,612h449.2c44.9,0,81.5-36.5,81.5-81.4V81.5C612,36.6,575.4,0,530.5,0L530.5,0z M292.3,557.6v-70.1
		l-74.3,70.1H292.3z M431.8,557.6V355.5l-112.1,106v96.1L431.8,557.6L431.8,557.6z M530.5,557.6c14.9,0,27-12.1,27-26.9V236.7
		l-98.3,92.8v228.1L530.5,557.6L530.5,557.6z M178.1,557.6l379.5-358.7V81.5c0-14.9-12.1-27.1-27-27.1h-61.4L54.4,446.5v84.2
		c0,14.9,12.1,26.9,26.9,26.9L178.1,557.6L178.1,557.6z M319.8,157.9L429.2,54.4H319.8V157.9z M180.2,290l112.2-106.1V54.4H180.2
		V290z M54.4,408.8l98.3-92.9V54.4H81.4c-14.9,0-26.9,12.1-26.9,27.1L54.4,408.8L54.4,408.8z"/>
</g>
</svg>
