<?xml version="1.0" encoding="utf-8"?>
<!-- Generator: Adobe Illustrator 17.1.0, SVG Export Plug-In . SVG Version: 6.00 Build 0)  -->
<!DOCTYPE svg PUBLIC "-//W3C//DTD SVG 1.1//EN" "http://www.w3.org/Graphics/SVG/1.1/DTD/svg11.dtd">
<svg version="1.1" id="Capa_1" xmlns="http://www.w3.org/2000/svg" xmlns:xlink="http://www.w3.org/1999/xlink" x="0px" y="0px"
	 viewBox="0 0 45.8 45.8" enable-background="new 0 0 45.8 45.8" xml:space="preserve">
<g>
	<path fill="#FFFFFF" d="M34.3,4.4L23.1,0.1c-0.5-0.2-1-0.1-1.4,0.2C21.3,0.5,21,1,21,1.5v12.6h-8.5c-1.1,0-2,0.9-2,2
		c0,1,0.7,1.8,1.7,2l2.7,25c0.2,1.5,1.4,2.7,3,2.7h9.5c1.5,0,2.8-1.2,3-2.7l2.7-25c0.9-0.2,1.7-1,1.7-2c0-1.1-0.9-2-2-2h-8.5V3.7
		l9.1,3.5c0.8,0.3,1.6-0.1,1.9-0.9C35.5,5.5,35.1,4.7,34.3,4.4z M29.2,34.5l-12.7,4.9l-1.2-11.4l15.3-5.9L29.2,34.5z"/>
</g>
</svg>
