<?xml version="1.0" encoding="utf-8"?>
<!-- Generator: Adobe Illustrator 17.1.0, SVG Export Plug-In . SVG Version: 6.00 Build 0)  -->
<!DOCTYPE svg PUBLIC "-//W3C//DTD SVG 1.1//EN" "http://www.w3.org/Graphics/SVG/1.1/DTD/svg11.dtd">
<svg version="1.1" id="Layer_1" xmlns="http://www.w3.org/2000/svg" xmlns:xlink="http://www.w3.org/1999/xlink" x="0px" y="0px"
	 viewBox="0 0 612.3 402.5" enable-background="new 0 0 612.3 402.5" xml:space="preserve">
<g>
	<path fill="#FFFFFF" d="M275.1,245l56.9,56.9h136V20.1C468,9,459,0,447.9,0h-161c-11.1,0-20.1,9-20.1,20.1v218
		C269.6,240.3,272.5,242.4,275.1,245z"/>
	<path fill="#FFFFFF" d="M488.1,342.1h-25.7c-7-12-19.8-20.1-34.7-20.1s-27.7,8.2-34.7,20.1h-77.7l-68.7-68.7
		c-7.5-7.5-17.9-11.8-28.5-11.8h-16.1L164.2,26.7c-1.8-11-12.1-18.4-23.1-16.7l0,0c-11,1.8-18.5,12.1-16.7,23.1l36.9,228.5H146v40.3
		h21.8l1.3,8.1c-13.9,9-23.1,24.5-23.1,42.2c0,27.8,22.5,50.3,50.3,50.3s50.3-22.5,50.3-50.3c0-23.4-16.1-42.9-37.8-48.5l-0.3-1.8
		h9.6l68.7,68.7c7.5,7.5,17.9,11.8,28.5,11.8h77.7c7,12,19.8,20.1,34.7,20.1c14.9,0,27.7-8.2,34.7-20.1h25.7V342.1z"/>
</g>
</svg>
