<?xml version="1.0" encoding="utf-8"?>
<!-- Generator: Adobe Illustrator 17.1.0, SVG Export Plug-In . SVG Version: 6.00 Build 0)  -->
<!DOCTYPE svg PUBLIC "-//W3C//DTD SVG 1.1//EN" "http://www.w3.org/Graphics/SVG/1.1/DTD/svg11.dtd">
<svg version="1.1" id="Layer_1" xmlns="http://www.w3.org/2000/svg" xmlns:xlink="http://www.w3.org/1999/xlink" x="0px" y="0px"
	 viewBox="0 0 612.3 402.5" enable-background="new 0 0 612.3 402.5" xml:space="preserve">
<g>
	<path fill="#FFFFFF" d="M457.1,352.2H438c-3.6-12.6-6.9-21.9-9.6-30.1c-14.5-43-21.6-57.2-21.6-158.9c0-13.9-11.3-24.8-25.2-24.8
		H230.7c-13.9,0-25.2,10.6-25.2,24.5c0,99.2-5.8,116.1-20,156.3c-3.2,9.1-6.9,20.4-11.1,33h-19.2c-13.9,0-25.2,11.3-25.2,25.2
		s11.3,25.2,25.2,25.2h37.7c0,0,0,0,0,0c0,0,0,0,0,0h264.1c13.9,0,25.2-11.3,25.2-25.2S471,352.2,457.1,352.2L457.1,352.2z
		 M306.1,233.6c8.3,0,15.1,6.8,15.1,15.3s-6.7,15.3-15.1,15.3c-8.4,0-15.1-6.9-15.1-15.3C291.1,240.4,297.8,233.6,306.1,233.6z
		 M270.4,188.1l21.6,38.3c-8.4,5-14.1,12.5-14.1,25.1H233C233.4,226.4,248.4,200.5,270.4,188.1L270.4,188.1z M306.1,324.4
		c-13.4,0-25.9-3.7-36.7-10l22.6-39.7c4.2,2.4,9,3.9,14.1,3.9c5.1,0,9.9-1.4,14.1-3.9l22.6,39.7
		C332.1,320.8,319.6,324.4,306.1,324.4z M334.4,251.6c0-12.6-5.7-20.6-14.1-25.5l21.6-37.5c22,12.4,37,37.9,37.4,63H334.4z"/>
	<path fill="#FFFFFF" d="M243.2,113.2h119.5c24.3,0,44-19.8,44-44s-19.8-44-44-44c-2.1,0-4.2,0.2-6.3,0.5v0
		c-2.3,0.3-4.5,0.9-6.7,1.5c-0.1,0-0.3,0.1-0.4,0.1c-15.8,5-27.6,18.7-30,35.5c-0.3-2.1-0.6-4.1-0.6-6.3c0-16.5,9.1-30.7,22.6-38.2
		C330.8,7,316,0,299.9,0c-24.4,0-45.5,15.7-53.2,37.9c-21.8-1.9-41.1,15.7-41.1,37.6C205.5,96.3,222.4,113.2,243.2,113.2
		L243.2,113.2z"/>
</g>
</svg>
