<?xml version="1.0" encoding="utf-8"?>
<!-- Generator: Adobe Illustrator 17.1.0, SVG Export Plug-In . SVG Version: 6.00 Build 0)  -->
<!DOCTYPE svg PUBLIC "-//W3C//DTD SVG 1.1//EN" "http://www.w3.org/Graphics/SVG/1.1/DTD/svg11.dtd">
<svg version="1.1" id="Capa_1" xmlns="http://www.w3.org/2000/svg" xmlns:xlink="http://www.w3.org/1999/xlink" x="0px" y="0px"
	 viewBox="0 0 384.9 384.9" enable-background="new 0 0 384.9 384.9" xml:space="preserve">
<g>
	<g>
		<path fill="#FFFFFF" d="M350.2,191.3v-66.9c0-5.3-4.3-9.6-9.6-9.6h-19.1c-5.3,0-13.9,0-19.1,0s-13.9,0-19.1,0h-35.2
			c-8.7-14.5-22.5-25.6-39.1-30.6c4.4-2.4,7.4-7.1,7.4-12.5c0-7.9-6.4-14.3-14.3-14.3h-4.8V38.3h43c7.9,0,14.3-6.4,14.3-14.3
			s-6.4-14.3-14.3-14.3h-43c0-5.3-3.2-9.6-9.6-9.6s-9.6,4.3-9.6,9.6h-43c-7.9,0-14.3,6.4-14.3,14.3s6.4,14.3,14.3,14.3h43v19.1h-4.8
			c-7.9,0-14.3,6.4-14.3,14.3c0,5.9,3.5,10.9,8.6,13.1c-11.9,4-22.3,11.1-30.3,20.3h-74V76.5c0-10.6-8.6-19.1-19.1-19.1
			s-19.1,8.6-19.1,19.1v143.4c0,10.6,8.6,19.1,19.1,19.1s19.1-8.6,19.1-19.1v-38.3h65.3c11.5,21.8,34.3,36.7,60.6,36.7
			c33.5,0,61.3-24,67.3-55.8h26.7c5.3,0,9.6,4.3,9.6,9.6v19.1c-5.3,0-9.6,4.3-9.6,9.6v19.1c0,5.3,4.3,9.6,9.6,9.6h57.4
			c5.3,0,9.6-4.3,9.6-9.6v-19.1C359.8,195.6,355.5,191.3,350.2,191.3z"/>
		<path fill="#FFFFFF" d="M279.7,344.9c0,22.1,17.9,40,40,40s40-17.9,40-40s-40-79.6-40-79.6S279.7,322.8,279.7,344.9z"/>
	</g>
</g>
</svg>
