<?xml version="1.0" encoding="utf-8"?>
<!-- Generator: Adobe Illustrator 17.1.0, SVG Export Plug-In . SVG Version: 6.00 Build 0)  -->
<!DOCTYPE svg PUBLIC "-//W3C//DTD SVG 1.1//EN" "http://www.w3.org/Graphics/SVG/1.1/DTD/svg11.dtd">
<svg version="1.1" id="Layer_1" xmlns="http://www.w3.org/2000/svg" xmlns:xlink="http://www.w3.org/1999/xlink" x="0px" y="0px"
	 viewBox="0 0 800 800" enable-background="new 0 0 800 800" xml:space="preserve">
<g>
	<path fill="#FFFFFF" d="M452.3,604.6H185.7c-10.5,0-19,8.5-19,19v133.3c0,10.5,8.5,19,19,19h266.6c10.5,0,19-8.5,19-19V623.7
		C471.3,613.2,462.8,604.6,452.3,604.6z"/>
	<path fill="#FFFFFF" d="M781,604.6H514.4c-10.5,0-19,8.5-19,19v133.3c0,10.5,8.5,19,19,19H781c10.5,0,19-8.5,19-19V623.7
		C800,613.2,791.5,604.6,781,604.6z"/>
	<path fill="#FFFFFF" d="M185.7,387.4h266.6c10.5,0,19-8.5,19-19V235.1c0-10.5-8.5-19-19-19H185.7c-10.5,0-19,8.5-19,19v133.3
		C166.7,378.8,175.2,387.4,185.7,387.4z"/>
	<path fill="#FFFFFF" d="M781,216H514.4c-10.5,0-19,8.5-19,19v133.3c0,10.5,8.5,19,19,19H781c10.5,0,19-8.5,19-19V235.1
		C800,224.6,791.5,216,781,216z"/>
	<path fill="#FFFFFF" d="M346,193.1h266.6c10.5,0,19-8.5,19-19V40.8c0-10.5-8.5-19-19-19H346c-10.5,0-19,8.5-19,19V174
		C327,184.5,335.5,193.1,346,193.1z"/>
	<path fill="#FFFFFF" d="M332.5,429.4v133.3c0,10.5,8.5,19,19,19H618c10.5,0,19-8.5,19-19V429.4c0-10.5-8.5-19-19-19H351.5
		C341,410.3,332.5,418.9,332.5,429.4z"/>
	<path fill="#FFFFFF" d="M304.3,562.6V429.4c0-10.5-8.5-19-19-19H18.7c-10.5,0-19,8.5-19,19v133.3c0,10.5,8.5,19,19,19h266.6
		C295.8,581.7,304.3,573.2,304.3,562.6z"/>
</g>
</svg>
