<?xml version="1.0" encoding="utf-8"?>
<!-- Generator: Adobe Illustrator 17.1.0, SVG Export Plug-In . SVG Version: 6.00 Build 0)  -->
<!DOCTYPE svg PUBLIC "-//W3C//DTD SVG 1.1//EN" "http://www.w3.org/Graphics/SVG/1.1/DTD/svg11.dtd">
<svg version="1.1" id="Capa_1" xmlns="http://www.w3.org/2000/svg" xmlns:xlink="http://www.w3.org/1999/xlink" x="0px" y="0px"
	 viewBox="0 0 487.8 487.8" enable-background="new 0 0 487.8 487.8" xml:space="preserve">
<g>
	<g id="icons">
		<g>
			<path fill="#FFFFFF" d="M202.6,82.6c22.8,0,41.3-18.5,41.3-41.3c0-22.8-18.5-41.3-41.3-41.3c-22.8,0-41.3,18.5-41.3,41.3
				C161.3,64.1,179.8,82.6,202.6,82.6z"/>
			<path fill="#FFFFFF" d="M454.6,360.4l-53.6-46c-0.4-0.3-0.7-0.6-1.1-0.8c-13-10.2-29.3-14.9-45.8-13.4
				c-13.5,1.2-26,6.5-36.1,15.2l-56.8-48.9c1.5-2.4,2.7-5.2,3.4-8.4c13.1-58.9,31.1-134.7-25.5-157c-27.3-10.7-62-9.3-82,6.8
				c-16,12.8-23.5,18.8-42.2,32.7l-32.2-27.7c-1.2-3.7-2.4-7.3-3.8-10.6C75.4,94,65,88.7,56.3,90.3L43.5,79.2
				c-1.5-1.3-3.9-1.1-5.2,0.4l-8.4,9.8c-1.3,1.5-1.1,3.9,0.4,5.2l11.4,9.8c-1.1,6.1-0.3,15.3,3.7,29.7C51,154,78.7,214,107.9,197.9
				c8.2-4.5,16.3-9.9,24.2-15.7l20.3,17.4c-0.3,67.5-1.3,210.3-3.6,265.4c-1.3,30.4,46,30.3,47.2,0c2.2-53.7,2.8-107.4,2.9-161.1
				c2.2,0.1,4.5,0.1,6.7,0c0.1,53.7,0.7,107.4,2.9,161.1c1.2,30.3,48.5,30.4,47.2,0c-1.5-36.4-2.2-112.3-2.6-178.9l51.7,44.4
				c-7,11.3-10.4,24.5-9.6,38c1,16.6,8.1,31.9,20.2,43.2c0.3,0.3,0.6,0.7,1,1l53.6,46c5.1,4.4,12.9,3.8,17.3-1.3l68.7-79.9
				C460.3,372.5,459.7,364.8,454.6,360.4z"/>
		</g>
	</g>
</g>
</svg>
