<?xml version="1.0" encoding="utf-8"?>
<!-- Generator: Adobe Illustrator 17.1.0, SVG Export Plug-In . SVG Version: 6.00 Build 0)  -->
<!DOCTYPE svg PUBLIC "-//W3C//DTD SVG 1.1//EN" "http://www.w3.org/Graphics/SVG/1.1/DTD/svg11.dtd">
<svg version="1.1" id="Capa_1" xmlns="http://www.w3.org/2000/svg" xmlns:xlink="http://www.w3.org/1999/xlink" x="0px" y="0px"
	 viewBox="0 0 800 800" enable-background="new 0 0 800 800" xml:space="preserve">
<g>
	<g>
		<circle fill="#FFFFFF" cx="493.8" cy="89.7" r="89.7"/>
		<path fill="#FFFFFF" d="M717.7,308.5c-80.1-8.2-157.8-95-177.4-107c-12-8.7-26.2-14.3-39.8-16.5c0,0-9.6-2-19.6-0.9
			c-9.5,1.1-24.1,1.6-45.3,17.4c-1.5,1-12.4,10.4-15.8,14.5c-26.4,27.4-99.7,108.5-136.2,200.2c-5.2,13-1.9,27.2,7.1,36.7
			l-42.8,76.3l-60.3-33.9c-7.2-4.1-16.3-1.5-20.4,5.7L52.9,702.8c-4,7.2-1.5,16.4,5.7,20.4l45.7,25.7c-7.3,12.9-5.5,29.7,5.5,40.8
			c13.2,13.5,35,13.7,48.5,0.4c12.5-12.4,13.6-32,2.9-45.6l62.4-109.4l43.7-77.9l54.2-93.9c11.7-1.9,22.2-9.7,26.9-21.5
			c15.4-38.9,39.3-76.3,62.4-107.3l10.9,125c1.3,14.7,7.4,27,16.4,36.7c-28,50.9-103.5,190-130.8,237.2c-12.2,21.2-5,48.3,16.2,60.5
			c8,4.6,16.8,6.4,25.3,5.8c14.2-1,27.6-8.9,35.2-22.1c25.4-44,91.6-177.6,120.7-227.8c23.3,38.7,63,109.9,113.3,223.6
			c7.3,16.6,23.5,26.4,40.6,26.4c6,0,12.1-1.2,17.9-3.8c22.4-9.9,32.5-36.1,22.6-58.4c-59.4-134.2-103.1-208.7-127.3-247.9
			c9.6-12,15.3-26.9,13.8-44.5L575.4,327c29.8,23.8,68.7,43.9,135.2,50.8c1.2,0.1,2.4,0.2,3.6,0.2c17.6,0,32.7-13.3,34.6-31.2
			C750.7,327.5,736.8,310.4,717.7,308.5z M133.6,779.3c-6.9,0-12.5-5.6-12.5-12.5s5.6-12.5,12.5-12.5c6.9,0,12.5,5.6,12.5,12.5
			C146,773.7,140.5,779.3,133.6,779.3z"/>
	</g>
</g>
</svg>
