<?xml version="1.0" encoding="utf-8"?>
<!-- Generator: Adobe Illustrator 17.1.0, SVG Export Plug-In . SVG Version: 6.00 Build 0)  -->
<!DOCTYPE svg PUBLIC "-//W3C//DTD SVG 1.1//EN" "http://www.w3.org/Graphics/SVG/1.1/DTD/svg11.dtd">
<svg version="1.1" id="Capa_1" xmlns="http://www.w3.org/2000/svg" xmlns:xlink="http://www.w3.org/1999/xlink" x="0px" y="0px"
	 viewBox="0 0 612.3 402.5" enable-background="new 0 0 612.3 402.5" xml:space="preserve">
<g>
	<path fill="#FFFFFF" d="M456.9,236.3c-16,71-79.5,124.3-155.4,124.3c-61.6,0-115.1-35.2-141.6-86.5c-5.4,1.5-11,2.6-16.8,2.6
		c-10.7,0-20.6-3-29.4-7.8c27.8,76.9,101.4,132.2,187.8,132.2c99.6,0,182.1-73.3,197.2-168.7c-8,3.8-16.9,6.1-26.3,6.1
		C467,238.6,461.9,237.6,456.9,236.3z"/>
	<path fill="#FFFFFF" d="M149.5,153.3c20.4-64.5,80.8-111.5,152-111.5c59.7,0,111.7,33,139,81.7c9.3-5.6,20.2-9.1,31.8-9.1
		c3.2,0,6.3,0.5,9.4,0.9C449.6,48.1,381,1.4,301.5,1.4c-98.3,0-180,71.3-196.6,164.9c10.6-8.4,23.7-13.5,38.2-13.5
		C145.3,152.7,147.4,153.1,149.5,153.3z"/>
	<path fill="#FFFFFF" d="M143.1,249.7c12.2,0,22.8-6.2,29.1-15.6h29.5h33.8l27,74.4c2.8,7.7,10,13,18.2,13.3c0.3,0,0.6,0,0.8,0
		c7.9,0,15.1-4.6,18.4-11.8l64.2-139.6l10.1,16c3.7,5.9,10.5,9.9,17.3,9.5l22.3-0.2l29.3-0.3c6.2,9.7,17,16.2,29.4,16.2
		c19.3,0,35-15.7,35-35c0-19.3-15.7-35-35-35c-11.1,0-20.9,5.3-27.3,13.3l-30.7,0.3l-12,0.1l-23.9-38.1c-4-6.3-11.1-9.9-18.5-9.4
		c-7.4,0.5-14,5-17.1,11.8l-59.2,128.8l-15-41.3c-2.9-8-10.5-13.4-19-13.4h-48.5h-30.3c-6.4-8.4-16.4-13.8-27.7-13.8
		c-19.3,0-35,15.7-35,35C108.1,234,123.8,249.7,143.1,249.7z"/>
</g>
</svg>
