<?xml version="1.0" encoding="utf-8"?>
<!-- Generator: Adobe Illustrator 17.1.0, SVG Export Plug-In . SVG Version: 6.00 Build 0)  -->
<!DOCTYPE svg PUBLIC "-//W3C//DTD SVG 1.1//EN" "http://www.w3.org/Graphics/SVG/1.1/DTD/svg11.dtd">
<svg version="1.1" id="Layer_1" xmlns="http://www.w3.org/2000/svg" xmlns:xlink="http://www.w3.org/1999/xlink" x="0px" y="0px"
	 viewBox="0 0 800 800" enable-background="new 0 0 800 800" xml:space="preserve">
<g>
	<path fill="#FFFFFF" d="M236.7,194.5c0-2.8-8.7-25.9-8.6-28.6c0.1-3.2,9.1-6.4,9.3-9.5c6-78.8,48.6-133.4,106.7-153.9v66.6
		c0,38.3,25.1,69.3,56,69.3c30.9,0,56-31,56-69.3V4.3C529.5,34,556.8,117.6,564.7,158.9c0.6,3,6.9,2.2,7.2,4.8
		c1.1,8.8-13.2,30.8-13.2,30.8c-33.4,16.5-62.8,36.1-97.3,39.9l-127-0.6C280,224.5,236.7,194.5,236.7,194.5z M463.9,257.2l-1.4,0.2
		l-132.2-0.9c-38.6-6.6-71.7-22.5-90.5-33c10.7,79,78.2,140,160.1,140c83.3,0,151.9-63,160.7-144c-4.3,2.2-8.6,4.4-12.8,6.6
		C522,239.6,495.2,253.7,463.9,257.2z M675.7,581.4v167.9h-1.1l-10.8,5.5c-5.5,2.8-93.7,46.2-245.9,46.2
		c-77.9,0-172.6-11.4-281.6-45.4l-11.6-3.6l-0.4-2.6V581.4c0-114.2,92.9-207.1,207.1-207.1h137.2
		C582.8,374.3,675.7,467.2,675.7,581.4z M438.4,715.5l-17.7-252.6c-0.1-1.3-1.2-2.3-2.5-2.3h-34.3c-1.3,0-2.4,1-2.5,2.3l-16.5,252.7
		c0,0.6,0.1,1.1,0.4,1.5l33,52.1c0.5,0.7,1.3,1.2,2.1,1.2c0,0,0,0,0.1,0c0.8,0,1.6-0.4,2.1-1.1l35.5-52
		C438.3,716.6,438.5,716.1,438.4,715.5z M447.1,419c0-5.9-4.7-10.6-10.6-10.6h-70.9c-5.9,0-10.6,4.7-10.6,10.6l29.5,61h33.9
		L447.1,419z M400,131.8c-28.3,0-51.3-28-51.3-62.4V1h102.7v68.4C451.3,103.8,428.3,131.8,400,131.8z M358.1,10.4v59
		c0,29.2,18.8,53,41.9,53c23.1,0,41.9-23.8,41.9-53v-59H358.1z"/>
</g>
</svg>
