<?xml version="1.0" encoding="utf-8"?>
<!-- Generator: Adobe Illustrator 17.1.0, SVG Export Plug-In . SVG Version: 6.00 Build 0)  -->
<!DOCTYPE svg PUBLIC "-//W3C//DTD SVG 1.1//EN" "http://www.w3.org/Graphics/SVG/1.1/DTD/svg11.dtd">
<svg version="1.1" id="Capa_1" xmlns="http://www.w3.org/2000/svg" xmlns:xlink="http://www.w3.org/1999/xlink" x="0px" y="0px"
	 viewBox="0 0 512 512" enable-background="new 0 0 512 512" xml:space="preserve">
<g>
	<g>
		<g>
			<path fill="#FFFFFF" d="M176.4,194.6h-0.9c-3.4,0-6.5,2.2-7.6,5.5l-14.7,44.3l-14.7-44.3c-1.1-3.3-4.1-5.5-7.6-5.5h-1.4
				c-3.4,0-6.5,2.2-7.6,5.5l-14.7,44.3l-14.7-44.3c-1.1-3.3-4.1-5.5-7.6-5.5H84c-2.6,0-5,1.2-6.5,3.3c-1.5,2.1-1.9,4.8-1.1,7.2
				L99.1,272c1.1,3.2,4.1,5.4,7.6,5.4h0.5c0,0,0.1,0,0.1,0c0,0,0.1,0,0.1,0h0.4c3.4,0,6.5-2.2,7.6-5.4l14.8-44.1l14.8,44.1
				c1.1,3.3,4.1,5.4,7.6,5.4h0.5c0,0,0.1,0,0.1,0c0,0,0.1,0,0.1,0h0.4c3.4,0,6.5-2.2,7.6-5.4l22.6-66.8c0.8-2.4,0.4-5.1-1.1-7.2
				C181.3,195.9,178.9,194.6,176.4,194.6z"/>
			<path fill="#FFFFFF" d="M287.1,194.6h-0.9c-3.4,0-6.5,2.2-7.6,5.5l-14.7,44.3l-14.7-44.3c-1.1-3.3-4.1-5.5-7.6-5.5h-1.4
				c-3.4,0-6.5,2.2-7.6,5.5L218,244.4l-14.7-44.3c-1.1-3.3-4.1-5.5-7.6-5.5h-0.9c-2.6,0-5,1.2-6.5,3.3c-1.5,2.1-1.9,4.8-1.1,7.2
				l22.6,66.8c1.1,3.2,4.1,5.4,7.6,5.4h0.5c0,0,0.1,0,0.1,0c0,0,0.1,0,0.1,0h0.4c3.4,0,6.5-2.2,7.6-5.4l14.8-44.1l14.8,44.1
				c1.1,3.3,4.1,5.4,7.6,5.4h0.5c0,0,0.1,0,0.1,0c0,0,0.1,0,0.1,0h0.4c3.4,0,6.5-2.2,7.6-5.4l22.6-66.8c0.8-2.4,0.4-5.1-1.1-7.2
				C292.1,195.9,289.7,194.6,287.1,194.6z"/>
			<path fill="#FFFFFF" d="M397.9,194.6H397c-3.4,0-6.5,2.2-7.6,5.5l-14.7,44.3L360,200.1c-1.1-3.3-4.1-5.5-7.6-5.5H351
				c-3.4,0-6.5,2.2-7.6,5.5l-14.7,44.3L314,200.1c-1.1-3.3-4.1-5.5-7.6-5.5h-0.9c-2.6,0-5,1.2-6.5,3.3c-1.5,2.1-1.9,4.8-1.1,7.2
				l22.6,66.8c1.1,3.2,4.1,5.4,7.6,5.4h0.5c0,0,0.1,0,0.1,0c0,0,0.1,0,0.1,0h0.4c3.4,0,6.5-2.2,7.6-5.4l14.8-44.1l14.8,44.1
				c1.1,3.3,4.1,5.4,7.6,5.4h0.5c0,0,0.1,0,0.1,0c0,0,0.1,0,0.1,0h0.4c3.4,0,6.5-2.2,7.6-5.4l22.6-66.8c0.8-2.4,0.4-5.1-1.1-7.2
				C402.9,195.9,400.5,194.6,397.9,194.6z"/>
			<path fill="#FFFFFF" d="M34.8,428.5V129h412.4v171.3c8.3-7.1,18.7-11,29.7-11c1.7,0,3.4,0.1,5,0.3V54.4c0-16-13-29-29-29H29
				c-16,0-29,13-29,29v379.8c0,16,13,29,29,29h276.3c-6.7-10.5-11.5-22.2-14.1-34.8H34.8L34.8,428.5z M415.3,74.1
				c0-5.9,4.8-10.7,10.7-10.7h10.7c5.9,0,10.7,4.8,10.7,10.7v12.1c0,5.9-4.8,10.7-10.7,10.7H426c-5.9,0-10.7-4.8-10.7-10.7V74.1z
				 M365.6,74.1c0-5.9,4.8-10.7,10.7-10.7H387c5.9,0,10.7,4.8,10.7,10.7v12.1c0,5.9-4.8,10.7-10.7,10.7h-10.7
				c-5.9,0-10.7-4.8-10.7-10.7V74.1z M315.9,74.1c0-5.9,4.8-10.7,10.7-10.7h10.7c5.9,0,10.7,4.8,10.7,10.7v12.1
				c0,5.9-4.8,10.7-10.7,10.7h-10.7c-5.9,0-10.7-4.8-10.7-10.7V74.1z"/>
			<path fill="#FFFFFF" d="M512,350.8c0-5.6-2.2-10.9-6.2-14.9L490,320.1c-4-4-9.3-6.2-14.9-6.2c-5.6,0-10.9,2.2-14.9,6.2
				l-24.1,24.1c-12.9-9.2-28.6-14.7-45.7-14.7c-43.3,0-78.5,35.1-78.5,78.5c0,43.3,35.1,78.5,78.5,78.5c43.3,0,78.5-35.1,78.5-78.5
				c0-1.8-0.1-3.5-0.2-5.2l37.1-37.1C509.8,361.8,512,356.5,512,350.8z M488.7,355.5L413.2,431c-1.6,1.6-3.7,2.5-6,2.5h0
				c-2.3,0-4.4-0.9-6-2.5l-35-35c-3.3-3.3-3.3-8.7,0-12l6.7-6.7c3.3-3.3,8.7-3.3,12,0l22.2,22.2l62.7-62.7c1.6-1.6,3.7-2.5,6-2.5
				c2.2,0,4.4,0.9,6,2.5l6.8,6.8C492,346.8,492,352.2,488.7,355.5z"/>
		</g>
	</g>
</g>
</svg>
