<?xml version="1.0" encoding="utf-8"?>
<!-- Generator: Adobe Illustrator 17.1.0, SVG Export Plug-In . SVG Version: 6.00 Build 0)  -->
<!DOCTYPE svg PUBLIC "-//W3C//DTD SVG 1.1//EN" "http://www.w3.org/Graphics/SVG/1.1/DTD/svg11.dtd">
<svg version="1.1" id="Capa_1" xmlns="http://www.w3.org/2000/svg" xmlns:xlink="http://www.w3.org/1999/xlink" x="0px" y="0px"
	 viewBox="0 0 512 512" enable-background="new 0 0 512 512" xml:space="preserve">
<g>
	<g>
		<path fill="#FFFFFF" d="M382.5,156.6H129.6c-8.1,0-14.7,6.5-14.7,14.6v49.9c0,8.1,6.6,14.6,14.7,14.6h252.9
			c8.1,0,14.7-6.5,14.7-14.6v-49.9C397.1,163.1,390.5,156.6,382.5,156.6z M141.3,191.3c-5,0-9-4-9-9c0-5,4-9,9-9c5,0,9,4,9,9
			C150.4,187.3,146.3,191.3,141.3,191.3z M358.5,217.4h-63.9v-21.2h63.9L358.5,217.4L358.5,217.4z"/>
		<path fill="#FFFFFF" d="M382.5,243.8H129.6c-8.1,0-14.7,6.6-14.7,14.7v49.9c0,8.1,6.6,14.7,14.7,14.7h252.9
			c8.1,0,14.7-6.6,14.7-14.7v-49.9C397.1,250.4,390.5,243.8,382.5,243.8z M141.3,278.5c-5,0-9-4-9-9c0-5,4-9.1,9-9.1
			c5,0,9,4.1,9,9.1C150.4,274.5,146.3,278.5,141.3,278.5z M358.5,304.6h-63.9v-21.2h63.9L358.5,304.6L358.5,304.6z"/>
		<path fill="#FFFFFF" d="M382.5,331H129.6c-8.1,0-14.7,6.6-14.7,14.7v49.9c0,8.1,6.6,14.7,14.7,14.7h252.9
			c8.1,0,14.7-6.6,14.7-14.7v-49.9C397.1,337.6,390.5,331,382.5,331z M141.3,365.7c-5,0-9-4-9-9c0-5,4-9,9-9c5,0,9,4,9,9
			C150.4,361.7,146.3,365.7,141.3,365.7z M358.5,391.8h-63.9v-21.2h63.9L358.5,391.8L358.5,391.8z"/>
		<polygon fill="#FFFFFF" points="299.7,457.9 272.7,457.9 272.7,418.7 239.3,418.7 239.3,457.9 212.3,457.9 212.3,468.2 118,468.2 
			118,501.7 212.3,501.7 212.3,512 299.7,512 299.7,501.7 394,501.7 394,468.2 299.7,468.2 		"/>
		<path fill="#FFFFFF" d="M405.3,76.2c-3.6-0.3-6.9-2.2-9.1-5.1c-20.3-27.4-52.8-44.3-87.4-44.3c-2.2,0-4.3,0.1-6.5,0.2
			c-3,0.2-6-0.7-8.4-2.5C272.9,8.6,247.3,0,220.6,0c-47.9,0-90.3,27.7-110.2,69.7c-1.8,3.8-5.5,6.5-9.7,7.1
			C48,84.2,7.3,129.7,7.3,184.4c0,52.2,37,95.9,86.2,106.3v-32.3c0-4,0.7-7.9,2-11.5c-26.3-8.6-45.4-33.4-45.4-62.5
			c0-36.3,29.5-65.9,65.9-65.9c1.8,0,3.6,0.1,5.4,0.3c10.5,0.8,19.9-6,22.5-16.1c8.9-35.3,40.4-59.9,76.8-59.9
			c20.8,0,40.4,8,55.3,22.6c5.1,5,12.3,7.1,19.3,5.6c4.4-0.9,9-1.4,13.5-1.4c25.4,0,48.1,14.3,59.2,37.3c3.9,8.1,12.5,12.9,21.4,12
			c2.2-0.2,4.4-0.3,6.6-0.3c36.3,0,65.9,29.5,65.9,65.9c0,29.2-19.1,53.9-45.4,62.5c1.2,3.6,2,7.4,2,11.5v32.3
			c49.2-10.4,86.2-54.1,86.2-106.3C504.7,127.6,460.9,80.9,405.3,76.2z"/>
	</g>
</g>
</svg>
