<?xml version="1.0" encoding="utf-8"?>
<!-- Generator: Adobe Illustrator 17.1.0, SVG Export Plug-In . SVG Version: 6.00 Build 0)  -->
<!DOCTYPE svg PUBLIC "-//W3C//DTD SVG 1.1//EN" "http://www.w3.org/Graphics/SVG/1.1/DTD/svg11.dtd">
<svg version="1.1" id="Layer_1" xmlns="http://www.w3.org/2000/svg" xmlns:xlink="http://www.w3.org/1999/xlink" x="0px" y="0px"
	 viewBox="0 0 512 512" enable-background="new 0 0 512 512" xml:space="preserve">
<g>
	<path fill="#FFFFFF" d="M448.2,144.2h-7.8C417.6,57.4,345,0,256,0C167,0,94.4,57.4,71.6,144.2h-7.8c-8.8,0-16.1,6.3-16.1,15.1v96.1
		c0,8.8,7.3,16.4,16.1,16.4h6.4C92.4,389.3,167.3,512,256,512s163.6-122.7,185.8-240.3h6.4c8.8,0,16.1-7.5,16.1-16.4v-96.1
		C464.3,150.4,457.1,144.2,448.2,144.2z M431.4,239.8h-3.1c-7.9,0-14.6,5.5-15.8,13.3C396,360.4,327.7,479.7,256,479.7
		c-71.7,0-140-119.3-156.5-226.5c-1.2-7.8-7.9-13.4-15.8-13.4h-3.1v-63.8h3.8c7.6,0,14.2-5.8,15.7-13.3
		C115.9,83,177.2,31.3,256,31.3s140.1,51.8,155.9,131.6c1.5,7.5,8.1,13.2,15.7,13.2h3.8L431.4,239.8L431.4,239.8z"/>
	<path fill="#FFFFFF" d="M144.4,271.7h223.3V144.2H144.4V271.7z M352.1,160.1L288,255.8h-32l64.1-95.7H352.1z M256,160.1h32
		L224,255.8h-32L256,160.1z"/>
</g>
</svg>
