<?xml version="1.0" encoding="utf-8"?>
<!-- Generator: Adobe Illustrator 17.1.0, SVG Export Plug-In . SVG Version: 6.00 Build 0)  -->
<!DOCTYPE svg PUBLIC "-//W3C//DTD SVG 1.1//EN" "http://www.w3.org/Graphics/SVG/1.1/DTD/svg11.dtd">
<svg version="1.1" id="Capa_1" xmlns="http://www.w3.org/2000/svg" xmlns:xlink="http://www.w3.org/1999/xlink" x="0px" y="0px"
	 viewBox="0 0 512 512" enable-background="new 0 0 512 512" xml:space="preserve">
<g>
	<g>
		<rect x="235.9" y="291.1" fill="#FFFFFF" width="40.2" height="170.7"/>
		<path fill="#FFFFFF" d="M316.2,291.1v29c-10.7,3.7-18.4,13.7-18.4,25.7c0,15.1,12.2,27.3,27.3,27.3c15.1,0,27.3-12.2,27.3-27.3
			c0-11.1-6.6-20.6-16.1-24.8v-29.8L316.2,291.1L316.2,291.1z"/>
		<polygon fill="#FFFFFF" points="276.1,271.1 316.2,271.1 336.3,271.1 453.4,271.1 430.9,0 426.7,0 81.1,0 58.6,271.1 235.9,271.1 
					"/>
		<path fill="#FFFFFF" d="M125.5,491.9v10c0,5.5,4.5,10,10,10h230.9c5.5,0,10-4.5,10-10v-10c0-5.5-4.5-10-10-10H135.5
			C130,481.9,125.5,486.4,125.5,491.9z"/>
	</g>
</g>
</svg>
