<?xml version="1.0" encoding="utf-8"?>
<!-- Generator: Adobe Illustrator 17.1.0, SVG Export Plug-In . SVG Version: 6.00 Build 0)  -->
<!DOCTYPE svg PUBLIC "-//W3C//DTD SVG 1.1//EN" "http://www.w3.org/Graphics/SVG/1.1/DTD/svg11.dtd">
<svg version="1.1" id="Capa_1" xmlns="http://www.w3.org/2000/svg" xmlns:xlink="http://www.w3.org/1999/xlink" x="0px" y="0px"
	 viewBox="0 0 512 512" enable-background="new 0 0 512 512" xml:space="preserve">
<g>
	<g>
		<path fill="#FFFFFF" d="M483.2,103.7V42.9C483.2,19.2,464,0,440.4,0H71.6C48,0,28.8,19.2,28.8,42.9v60.8c0,9.4,6.3,17.3,14.9,19.8
			c-9.1,7.9-14.9,19.3-14.9,32.2v313.4c0,23.6,19.2,42.9,42.9,42.9h368.7c23.6,0,42.9-19.2,42.9-42.9V155.7
			c0-12.9-5.9-24.4-14.9-32.2C476.9,121,483.2,113.1,483.2,103.7z M48.1,42.9c0-13,10.5-23.5,23.5-23.5h368.7
			c13,0,23.5,10.5,23.5,23.5v60.8c0,0.8-0.6,1.4-1.4,1.4h-413c-0.8,0-1.4-0.6-1.4-1.4C48.1,103.7,48.1,42.9,48.1,42.9z M463.9,469.1
			c0,13-10.5,23.5-23.5,23.5H71.6c-12.9,0-23.5-10.5-23.5-23.5V155.7c0-13,10.5-23.5,23.5-23.5h368.7c13,0,23.5,10.5,23.5,23.5
			C463.9,155.7,463.9,469.1,463.9,469.1z"/>
		<path fill="#FFFFFF" d="M105.3,86.4h92.6c8.8,0,15.9-7.1,15.9-15.9V53.9c0-8.8-7.1-15.9-15.9-15.9h-92.6
			c-8.8,0-15.9,7.1-15.9,15.9v16.6C89.4,79.3,96.5,86.4,105.3,86.4z M99.1,53.9c0-3.4,2.8-6.2,6.2-6.2h92.6c3.4,0,6.2,2.8,6.2,6.2
			v16.6c0,3.4-2.8,6.2-6.2,6.2h-92.6c-3.4,0-6.2-2.8-6.2-6.2C99.1,70.5,99.1,53.9,99.1,53.9z"/>
		<path fill="#FFFFFF" d="M322.4,86.4h8.3c8.8,0,15.9-7.1,15.9-15.9V53.9c0-8.8-7.1-15.9-15.9-15.9h-8.3c-8.8,0-15.9,7.1-15.9,15.9
			v16.6C306.5,79.3,313.6,86.4,322.4,86.4z M316.1,53.9c0-3.4,2.8-6.2,6.2-6.2h8.3c3.4,0,6.2,2.8,6.2,6.2v16.6
			c0,3.4-2.8,6.2-6.2,6.2h-8.3c-3.4,0-6.2-2.8-6.2-6.2V53.9z"/>
		<path fill="#FFFFFF" d="M382.7,86.4h8.3c8.8,0,15.9-7.1,15.9-15.9V53.9c0-8.8-7.1-15.9-15.9-15.9h-8.3c-8.8,0-15.9,7.1-15.9,15.9
			v16.6C366.8,79.3,374,86.4,382.7,86.4z M376.5,53.9c0-3.4,2.8-6.2,6.2-6.2h8.3c3.4,0,6.2,2.8,6.2,6.2v16.6c0,3.4-2.8,6.2-6.2,6.2
			h-8.3c-3.4,0-6.2-2.8-6.2-6.2V53.9z"/>
		<path fill="#FFFFFF" d="M416.5,301.4h-0.5c-6.8-83.5-76.8-149.4-162-149.4c-89.7,0-162.7,73-162.7,162.7s73,162.7,162.7,162.7
			c84.8,0,154.5-65.2,161.9-148.1h0.5c6.1,0,11.1-5,11.1-11.1v-5.7C427.6,306.3,422.6,301.4,416.5,301.4z M254.1,457.9
			c-79,0-143.3-64.3-143.3-143.3s64.3-143.3,143.3-143.3c74.5,0,135.9,57.2,142.6,130.1h-29.4c-6.6-56.7-54.8-100.8-113.3-100.8
			c-62.9,0-114.1,51.2-114.1,114.1s51.2,114.1,114.1,114.1c57.9,0,105.8-43.4,113-99.5h29.5C389.3,401.4,328.1,457.9,254.1,457.9z
			 M347.4,329.2h9.9c-7.1,50.6-50.7,89.8-103.2,89.8c-57.6,0-104.4-46.8-104.4-104.4s46.8-104.4,104.4-104.4
			c53.1,0,96.9,39.8,103.5,91.2h-10.1c-6.1,0-11.1,5-11.1,11.1v5.7C336.3,324.3,341.3,329.2,347.4,329.2z"/>
		<path fill="#FFFFFF" d="M196.7,239.5c-27.6,18.9-33.6,46.1-33.8,47.2c-0.6,2.6,1.1,5.2,3.7,5.7c0.3,0.1,0.7,0.1,1,0.1
			c2.2,0,4.3-1.6,4.7-3.8c0-0.2,5.4-24.5,29.8-41.2c2.2-1.5,2.8-4.5,1.3-6.7C201.9,238.6,198.9,238,196.7,239.5z"/>
	</g>
</g>
</svg>
