<?xml version="1.0" encoding="utf-8"?>
<!-- Generator: Adobe Illustrator 17.1.0, SVG Export Plug-In . SVG Version: 6.00 Build 0)  -->
<!DOCTYPE svg PUBLIC "-//W3C//DTD SVG 1.1//EN" "http://www.w3.org/Graphics/SVG/1.1/DTD/svg11.dtd">
<svg version="1.1" id="Capa_1" xmlns="http://www.w3.org/2000/svg" xmlns:xlink="http://www.w3.org/1999/xlink" x="0px" y="0px"
	 viewBox="0 0 512 512" enable-background="new 0 0 512 512" xml:space="preserve">
<path fill="#FFFFFF" d="M326.6,281.5l66.6-79.2c15.7-0.1,45.8-4.3,72.9-31.4c55.1-55.1,10.2-159.3,8.3-163.7
	c-2.2-4.9-7.4-7.8-12.7-7c-5.3,0.8-9.5,5.1-10,10.5c0,0.4-4.8,41-29.9,43.6c-3.1,0.3-6,0.5-8.9,0.5c-7.3,0-12.9-1-18.4-1.9
	c-4.8-0.8-9.4-1.6-14.4-1.6c-11,0-21.1,4.2-32.6,13.5c-23.7,19.2-26.7,52.4-26.8,67.6l-77.9,65.4l-85.3-85.3c0,0-0.1-0.1-0.1-0.1
	c-0.5-0.4-1-0.9-1.5-1.2c-0.1-0.1-0.2-0.1-0.3-0.2c-0.5-0.3-0.9-0.6-1.4-0.8L69.5,70.2l-33.9-16C31,52,25.6,53,22.1,56.5
	c-0.4,0.4-0.8,0.8-1.1,1.3c0,0-0.1,0.1-0.1,0.1c-0.2,0.3-0.4,0.6-0.6,0.9c-0.1,0.2-0.3,0.4-0.4,0.6c-0.1,0.2-0.2,0.5-0.3,0.7
	c-0.1,0.3-0.3,0.7-0.4,1c-0.1,0.2-0.1,0.4-0.1,0.6c-0.1,0.4-0.2,0.8-0.3,1.2c0,0.2,0,0.4-0.1,0.6c0,0.4-0.1,0.8-0.1,1.2
	c0,0.2,0,0.4,0,0.6c0,0.4,0,0.8,0.1,1.2c0,0.2,0.1,0.4,0.1,0.5c0.1,0.4,0.1,0.8,0.3,1.3c0.1,0.2,0.2,0.4,0.2,0.6
	c0.1,0.4,0.3,0.8,0.4,1.2l55.8,118.5c0.2,0.5,0.5,0.9,0.8,1.4c0.1,0.1,0.1,0.2,0.2,0.3c0.4,0.6,0.8,1.1,1.3,1.6c0,0,0.1,0.1,0.1,0.1
	l94,94c-34,35.9-69.1,76-96.3,110.4c-18.3,23.1-32.1,42.4-41,57.3c-9.9,16.5-17.6,33.2-7.4,43.3c2.2,2.2,6.1,4.8,12.3,4.8
	c30.7,0,132.2-86.4,198.8-149.4l156.2,156.2c2.3,2.3,5.4,3.5,8.4,3.5c3.1,0,6.1-1.2,8.4-3.5l22.9-22.9L117.7,169l16.9-16.9
	l316.6,316.6l22.9-22.9c4.7-4.7,4.7-12.2,0-16.9L326.6,281.5z M89.9,163.1L69,118.7l15.2-15.2l44.4,20.9L89.9,163.1z M259.7,214.6
	l71.5-60.1l38.5,38.5l-60.1,71.5L259.7,214.6z"/>
</svg>
