<?xml version="1.0" encoding="utf-8"?>
<!-- Generator: Adobe Illustrator 17.1.0, SVG Export Plug-In . SVG Version: 6.00 Build 0)  -->
<!DOCTYPE svg PUBLIC "-//W3C//DTD SVG 1.1//EN" "http://www.w3.org/Graphics/SVG/1.1/DTD/svg11.dtd">
<svg version="1.1" id="Capa_1" xmlns="http://www.w3.org/2000/svg" xmlns:xlink="http://www.w3.org/1999/xlink" x="0px" y="0px"
	 viewBox="0 0 512 512" enable-background="new 0 0 512 512" xml:space="preserve">
<g>
	<polygon fill="#FFFFFF" points="473.1,355.6 473.1,382.6 393.2,382.6 378,355.6 	"/>
	<g>
		<path fill="#FFFFFF" d="M481.6,347.1H373.2L263.7,153.9l-4,3.9c-0.4,0.4-37.8,37.4-72.9,44.2c-5,1-10.4,1.5-15.9,1.5
			c-29.4,0-56.2-13.7-56.4-13.8l-7.3-3.8l1.1,8.1c0,0.3,4.9,32.7,45.7,38.6l4.3,42.8l3.7,0.1c18.5,0.5,40.5,2.6,43.5,4.7
			c2.1,3.4,4.1,26.2,4.8,45.3l0.1,3.5l49.8,8.6l0.8,9.5H30.4v43.9h255.3l25.6,3.1l5.7,55.8h48l2.7,51.2l18.1,10.9l62.7-31.8
			L398,391.1h83.6L481.6,347.1L481.6,347.1L481.6,347.1z"/>
		<path fill="#FFFFFF" d="M167.6,188.7c6.7,0,12.9-1.2,18.4-3.5c27.2-11.4,53.9-30.4,62.6-36.9L162,1.2c-1.4-0.5-3.6-1.2-5.5-1.2
			c-1.7,0-4.3,0-4.3,6.4c0,0.5,1.4,20.8-14.8,30.6L69.8,76.9H52.5l63.1,93.7C119.6,173.3,143.3,188.7,167.6,188.7z M213.8,132
			c8.2,0,14.9,6.7,14.9,14.9c0,8.2-6.7,14.9-14.9,14.9c-8.2,0-14.9-6.7-14.9-14.9C198.9,138.6,205.6,132,213.8,132z M192.6,168.1
			c0,8.2-6.7,14.9-14.9,14.9c-8.2,0-14.9-6.7-14.9-14.9s6.7-14.9,14.9-14.9C185.9,153.2,192.6,159.9,192.6,168.1z M91.3,93.9
			l0.4-3.4l3.4-0.3c11.8-1,45.4-23.4,57.4-31.9l1.3-1l1.6,0.2c0.8,0.1,20.3,2.5,27.3,15.3c3.6,6.7,3.2,14.6-1.3,23.6
			c-15,30.1-55.2,37.3-56.9,37.6l-0.4,0.1h-0.4c-10.4,0-18.6-3.3-24.3-9.7C89.2,112.5,91.2,94.6,91.3,93.9z"/>
		<path fill="#FFFFFF" d="M173.9,92.5c3.1-6.3,3.6-11.6,1.4-15.7c-3.6-6.7-14-9.7-19.2-10.7c-7.9,5.6-39.8,27.6-56.5,31.8
			c0,4.8,0.7,14.3,6.4,20.7c4,4.4,9.8,6.7,17.5,6.8C127.3,124.7,161.6,117.3,173.9,92.5z"/>
		<circle fill="#FFFFFF" cx="177.7" cy="168.1" r="6.4"/>
		<circle fill="#FFFFFF" cx="213.8" cy="146.8" r="6.4"/>
	</g>
</g>
</svg>
