<?xml version="1.0" encoding="utf-8"?>
<!-- Generator: Adobe Illustrator 17.1.0, SVG Export Plug-In . SVG Version: 6.00 Build 0)  -->
<!DOCTYPE svg PUBLIC "-//W3C//DTD SVG 1.1//EN" "http://www.w3.org/Graphics/SVG/1.1/DTD/svg11.dtd">
<svg version="1.1" id="Capa_1" xmlns="http://www.w3.org/2000/svg" xmlns:xlink="http://www.w3.org/1999/xlink" x="0px" y="0px"
	 viewBox="0 0 512 512" enable-background="new 0 0 512 512" xml:space="preserve">
<g>
	<path fill="#FFFFFF" d="M168.6,137.5c-29.9,0-54.3,24.3-54.3,54.3c0,29.9,24.3,54.3,54.3,54.3c29.9,0,54.3-24.3,54.3-54.3
		S198.5,137.5,168.6,137.5z M168.6,229.4c-20.7,0-37.6-16.9-37.6-37.6c0-20.7,16.9-37.6,37.6-37.6s37.6,16.9,37.6,37.6
		C206.2,212.5,189.3,229.4,168.6,229.4z"/>
	<path fill="#FFFFFF" d="M168.6,168.5c-12.8,0-23.2,10.4-23.2,23.2c0,12.8,10.4,23.2,23.2,23.2c12.8,0,23.2-10.4,23.2-23.2
		C191.8,179,181.4,168.5,168.6,168.5z M168.6,198.3c-3.6,0-6.5-2.9-6.5-6.5c0-3.6,2.9-6.5,6.5-6.5c3.6,0,6.5,2.9,6.5,6.5
		C175.2,195.4,172.2,198.3,168.6,198.3z"/>
	<path fill="#FFFFFF" d="M511.7,285.4c-0.7-2.3-2.2-4-4.2-5c-0.1-0.2-0.1-0.5-0.2-0.7c-14.8-37-58-49.5-59.8-50
		c-0.2-0.1-0.5,0-0.7-0.1c7.7-14.1,12.1-27.9,13.3-41.1c0.3-0.9,0.3-1.8,0.3-2.8c0.6-10.4-0.8-20.4-4.3-30.2
		c-16.5-46.2-72.8-66.7-75.1-67.6c-1.2-0.4-2.4-0.6-3.6-0.5l-209.4,20.9c0,0,0,0,0,0c-45.6,0.5-82.6,37.7-82.6,83.4
		c0,46,37.4,83.5,83.5,83.5c2.7,0,5.3-0.2,8-0.4c-8.1,8.1-14.4,17.9-18.6,28.8c-13.8-27.2-41.9-46-74.5-46
		c-46,0-83.5,37.4-83.5,83.5c0,24.4,10.6,46.3,27.3,61.6c0,0,0.1,0.1,0.1,0.1c0,0,0,0,0.1,0c3.8,3.4,7.9,6.5,12.3,9.3
		c0.2,0.2,0.5,0.3,0.8,0.5c12.6,7.6,27.2,12,42.9,12c35.4,0,65.7-22.2,77.8-53.4c13.8,27.2,41.9,46,74.5,46c7.9,0,15.5-1.2,22.7-3.2
		c0,0,0,0,0.1,0l229.3-47c2.3-0.5,4.3-1.9,5.5-3.9c15.6-26.1,21.4-49.8,17.4-70.9C511.9,290.2,512.4,287.8,511.7,285.4z
		 M494.6,313.8c-1.7-0.5-3.5-0.6-5.3,0.1c-36,14.2-79.4,31.6-89.1,37.4c-7.5,1.6-47.5,0.1-67-0.7c-6.4-0.2-11.5-0.4-15.7-0.6
		c1.1-5.3,1.6-10.8,1.6-16.4c0-1.9-0.2-3.8-0.3-5.6c30.1-8.7,64.3-15.4,70.8-12.4c12,8,61.6-3.8,105.2-16.5
		C495.4,303.8,495.3,308.7,494.6,313.8z M273.3,333.7c0,20.7-16.9,37.6-37.6,37.6s-37.6-16.9-37.6-37.6c0-20.7,16.9-37.6,37.6-37.6
		c4.8,0,9.4,1,13.6,2.6l-7,12.7c-2.1-0.6-4.3-1.1-6.6-1.1c-12.8,0-23.2,10.4-23.2,23.2c0,12.8,10.4,23.2,23.2,23.2
		c12.8,0,23.2-10.4,23.2-23.2c0-1.6-0.2-3.1-0.5-4.5l11.9-9.7C272.2,323.8,273.3,328.7,273.3,333.7z M234.1,339.9
		c-2.8-0.7-5-3.2-5-6.2c0-2.8,1.8-5.2,4.3-6.1l-1.1,2.1C230.4,333.1,231.2,337.3,234.1,339.9z M273.9,295.2
		c-0.8-0.7-1.5-1.4-2.3-2.1l6.2-11.2c2.1,1.7,4,3.5,5.9,5.4L273.9,295.2z M427.7,139.8c-41.2,12.1-88.1,22.7-95.9,20
		c-12.6-8.4-54.4,1.6-82.8,9.8c-1.5-5.4-3.5-10.5-5.9-15.3h59.5c0.7,0,1.3-0.1,2-0.2l52-12.6l56.9-15.6
		C418.5,129.9,423.4,134.5,427.7,139.8z M440.3,161.2c2.1,5.9,3.1,12.1,3.3,18.5c-87.2,21-105.7,27.3-110.4,29.7
		c-7.2,1.7-47.5,0.1-67.1-0.7c-6.4-0.2-11.5-0.4-15.7-0.6c1.1-5.3,1.6-10.8,1.6-16.4c0-1.9-0.2-3.8-0.3-5.6
		c30.1-8.7,64.3-15.5,70.8-12.4c12.9,8.6,69.2-5.6,114.8-19.3C438.5,156.6,439.5,158.9,440.3,161.2z M245.3,224.7
		c5,0.1,12.4,0.4,20.2,0.7c24.5,1,40.8,1.4,51.8,1.4c17,0,21.6-1.1,24.4-3.1c6.9-3.1,54.3-15.3,100.1-26.4
		c-2,8.3-5.4,16.9-10.3,25.7l-203.4,27.3C235.3,242.9,241.2,234.3,245.3,224.7z M479.8,267.9c4.1,4.3,7.8,9.3,10.6,15.1
		c-40.1,11.6-83.9,21.4-91.5,18.7c-12.6-8.4-54.4,1.6-82.8,9.8c-1.5-5.4-3.5-10.5-5.9-15.3h59.5c0.7,0,1.3-0.1,2-0.2l52-12.6
		L479.8,267.9z M312.4,366.6c5,0.1,12.4,0.4,20.2,0.7c24.9,1,41.4,1.4,52.4,1.4c5.3,0,9.2-0.1,12.3-0.3l-99,20.3
		C304.1,382.2,308.9,374.7,312.4,366.6z M463.5,255.1l-44,12.1l-50.8,12.3H299c-5.7-6.6-12.3-12.3-19.8-16.8l165-16.4
		C447.3,247.2,455,250,463.5,255.1z M395.4,113.4l-43,11.8l-50.8,12.3h-69.7c-5.7-6.6-12.3-12.3-19.8-16.8l164.7-16.4
		C380,105.5,387,108.6,395.4,113.4z M101.8,191.8c0-36.8,30-66.8,66.8-66.8s66.8,30,66.8,66.8c0,36.8-30,66.8-66.8,66.8
		S101.8,228.6,101.8,191.8z M79.4,336.1c0.7-0.6,1.5-0.9,2.3-1.2L79.4,336.1z M79.6,364c1.3,0.2,2.5,0.4,3.8,0.4
		c12.8,0,23.2-10.4,23.2-23.2s-10.4-23.2-23.2-23.2c-12.8,0-23.2,10.4-23.2,23.2c0,1.6,0.2,3.1,0.5,4.6l-12.9,6.6
		c-1.1-3.6-1.9-7.3-1.9-11.2c0-20.7,16.9-37.6,37.6-37.6c20.7,0,37.6,16.8,37.6,37.6c0,20.7-16.9,37.6-37.6,37.6
		c-5.7,0-11-1.4-15.8-3.6L79.6,364z M83.5,407.9c-10.5,0-20.3-2.5-29.2-6.8l2.7-12.7c7.8,4.4,16.9,6.9,26.5,6.9
		c29.9,0,54.3-24.3,54.3-54.3c0-29.9-24.3-54.3-54.3-54.3c-29.9,0-54.3,24.3-54.3,54.3c0,11.2,3.4,21.6,9.3,30.3l-1.3,4.4l-5.5,7.4
		c-9.4-11.5-15-26.1-15-42.1c0-36.8,30-66.8,66.8-66.8s66.8,30,66.8,66.8C150.2,377.9,120.3,407.9,83.5,407.9z M168.9,333.7
		c0-36.8,30-66.8,66.8-66.8c9.9,0,19.3,2.2,27.8,6.1l-6,11c-6.7-2.9-14-4.6-21.7-4.6c-29.9,0-54.3,24.3-54.3,54.3
		c0,29.9,24.3,54.3,54.3,54.3s54.3-24.3,54.3-54.3c0-9-2.3-17.6-6.2-25.1l9.9-8c5.6,9.8,8.8,21,8.8,33.1c0,36.8-30,66.8-66.8,66.8
		S168.9,370.5,168.9,333.7z M480.8,351.3l-73,15c0.5-0.3,0.9-0.5,1.2-0.9c4.9-3.2,48.6-21,81-33.8
		C487.7,337.9,484.7,344.5,480.8,351.3z"/>
</g>
</svg>
