<?xml version="1.0" encoding="utf-8"?>
<!-- Generator: Adobe Illustrator 17.1.0, SVG Export Plug-In . SVG Version: 6.00 Build 0)  -->
<!DOCTYPE svg PUBLIC "-//W3C//DTD SVG 1.1//EN" "http://www.w3.org/Graphics/SVG/1.1/DTD/svg11.dtd">
<svg version="1.1" id="Capa_1" xmlns="http://www.w3.org/2000/svg" xmlns:xlink="http://www.w3.org/1999/xlink" x="0px" y="0px"
	 viewBox="0 0 800 800" enable-background="new 0 0 800 800" xml:space="preserve">
<g>
	<g>
		<path fill="#FFFFFF" d="M574.6,225.9c-0.1-0.2-0.2-0.2-0.3-0.4c-6.9-11-15.6-20.8-25.8-28.7v94.9l42.9,63.3
			c11.9,16.9,11,54.1,0,79.2l-2.5-53.7L533.9,296V186.9c-6.3-3.5-13-6.5-20.1-8.8V237h-69v-58.8c-7,2.3-13.8,5.2-20.1,8.8v109
			l-55.1,84.4l-2.5,378.4c0,22.7,18.4,41.2,41.2,41.2c22.7,0,41.2-18.5,41.2-41.2c0,0,19.5-269.4,29.8-269.4
			c10.2,0,29.2,269.4,29.2,269.4c0,22.7,18.5,41.2,41.1,41.2c22.8,0,41.2-18.5,41.2-41.2l0.4-268c12.6,6.1,29.5,5.3,40.2-8.6
			C684.1,413.8,620.3,286.5,574.6,225.9z M459.3,338.7c-7.1,0-12.8-5.8-12.8-12.9s5.7-12.9,12.8-12.9s12.9,5.8,12.9,12.9
			C472.2,332.9,466.4,338.7,459.3,338.7z M499.3,338.7c-7.1,0-12.8-5.8-12.8-12.9s5.8-12.9,12.8-12.9c7.1,0,12.9,5.8,12.9,12.9
			C512.2,332.9,506.4,338.7,499.3,338.7z"/>
		<path fill="#FFFFFF" d="M410,291.6v-94.8c-11.9,9.4-112,145.6-115.8,153.3c-17.1,4.9-34.5,8.9-51.9,12.5v-75
			c43.3-4.1,77.3-40.7,77.3-85v-67.7H305v67.7c0,26.1-14.2,48.9-35.3,61.1V134.7H255v135.4c-10.7,3.3-29,3.5-40.4,0.3V134.7h-14.7
			v129.6c-21.7-12.1-36.4-35.3-36.4-61.8v-67.7h-14.7v67.7c0,44.7,34.6,81.5,78.4,85.1v78.1c-0.3,0-0.5,0.1-0.8,0.2
			c-31.7,6.3-24.8,48.3,0.8,56V800h15.2V422.5c28-5.6,55.9-11.5,83.1-20.3C341.5,397,353.2,379,410,291.6z"/>
		<path fill="#FFFFFF" d="M452.2,229.6h54.2v-53.6c-8.7-2.2-17.7-3.4-27.1-3.4c-9.4,0-18.5,1.2-27.2,3.4V229.6z"/>
		<path fill="#FFFFFF" d="M421.1,113.4c3.3,30.7,28.1,54.6,58.2,54.6c30.1,0,55-23.9,58.2-54.6c33.3-4.7,54.8-28.4,55.8-29.5
			c5.6-6.3,5-16-1.3-21.7c-6.3-5.7-16.1-5.1-21.8,1.2c-0.2,0.2-15.2,16.4-36.8,19.5c-1.5-3.6-3.3-7.1-5.4-10.4
			c0.1-0.2-7.5-67.9-7.5-67.9c0-2.5-2.8-4.6-6.1-4.6h-75c-3.4,0-6.1,2.1-6.1,4.6c0,0-5.5,69.7-4.4,70.5c-1.4,2.5-2.7,5.1-3.8,7.7
			c-21.6-3.1-36.4-19-36.8-19.5c-5.7-6.3-15.4-6.9-21.7-1.3c-6.4,5.7-7,15.4-1.3,21.8C366.3,85,387.8,108.7,421.1,113.4z
			 M436.7,76.4h85.2c1.4,2.2,2.6,4.5,3.7,6.9H433C434.1,81,435.3,78.6,436.7,76.4z M530,114.1c-3.5,26.3-24.9,46.5-50.8,46.5
			c-25.8,0-47.2-20.3-50.7-46.5C429.8,114.2,528.8,114.2,530,114.1z"/>
	</g>
</g>
</svg>
