<?xml version="1.0" encoding="utf-8"?>
<!-- Generator: Adobe Illustrator 17.1.0, SVG Export Plug-In . SVG Version: 6.00 Build 0)  -->
<!DOCTYPE svg PUBLIC "-//W3C//DTD SVG 1.1//EN" "http://www.w3.org/Graphics/SVG/1.1/DTD/svg11.dtd">
<svg version="1.1" id="Capa_1" xmlns="http://www.w3.org/2000/svg" xmlns:xlink="http://www.w3.org/1999/xlink" x="0px" y="0px"
	 viewBox="0 0 512 512" enable-background="new 0 0 512 512" xml:space="preserve">
<g>
	<path fill="#FFFFFF" d="M285.5,292.1l25.6-9.7l25.6-12.5l87.8-76.6l72.2-58l15.3-32.5l-45.8-50.1h-35.5l-71.2,74.4l-55.8,47
		l-0.2-0.2l-1.1,1.2l-33.3,36.4l-9.4,17.9l-12.1,22.9l-75.8,71.3c0.2-4.2-0.1-7.9-0.6-11.3c-3.7-24.3-21.7-45.5-53.5-63.1
		c-23.1-12.8-42.5-19-59.3-19c-12.8,0-23.9,3.7-32.8,10.9C3.6,259,3.5,292.5,8.6,309.5c6.7,22.1,20,30.3,30.1,33.3
		c3.9,1.1,7.9,1.7,12.2,1.7c22.3,0,42.6-16,46.5-19.2c4-3.3,6.5-8,6.9-13.2c0.5-5.2-1.1-10.3-4.5-14.3c-3.7-4.5-9.2-7-15-7
		c-4.6,0-9,1.6-12.4,4.5c-5,4.1-15.3,10.2-21.4,10.2c-0.6,0-1-0.1-1.2-0.1c-0.4-0.1-2.2-1.7-3.9-7.2c-2.5-8.4-1.1-22.3,4.2-26.5
		c1.8-1.5,4.6-2.2,8.3-2.2c6.8,0,19.3,2.4,40.4,14.1c20.4,11.3,32.1,23.3,33.8,34.8c1.8,12-7.2,24.1-13.3,31H0v109.9h508.3v-83.6
		H194.1L285.5,292.1z M370.2,138.5l67.2-70.2h21.9l34.1,37.3l-9.3,19.8l-70,56.2L350,244.1l-44.3-51.3L370.2,138.5z M303.4,197.2
		l41.8,46.3l-28.5,22.3l-39.1-40.3L303.4,197.2z M492.7,391.3v52.4H15.6v-3.9v-70.9v-3.9h3.9h106.6c0.2-0.2,0.5-0.5,0.7-0.7
		c6.1-6.3,24.7-25.7,21.3-48.3c-2.5-16.7-16.5-32.3-41.7-46.1c-30.7-17-53.5-20.5-66.1-10.4c-12.3,9.9-12.8,31.6-9.3,43.2
		c3,9.7,7.8,15.7,14.3,17.6c15.5,4.7,36.8-12.8,37-13c1.6-1.4,4.1-1.2,5.5,0.5c1.4,1.6,1.2,4.1-0.5,5.5c-1,0.8-24.7,20.3-44.2,14.5
		c-9.2-2.8-15.8-10.4-19.6-22.8c-4.2-14-3.4-39.2,11.8-51.5c15.5-12.5,40.6-9.3,74.8,9.6c27.4,15.1,42.7,32.6,45.6,51.8
		c3.3,22-10.4,40.5-19,50.1h14.1l109.4-102.9l15.8-30.1l34.4,34l-33.3,12.6L153.9,391.3L492.7,391.3L492.7,391.3z"/>
</g>
</svg>
