<?xml version="1.0" encoding="utf-8"?>
<!-- Generator: Adobe Illustrator 17.1.0, SVG Export Plug-In . SVG Version: 6.00 Build 0)  -->
<!DOCTYPE svg PUBLIC "-//W3C//DTD SVG 1.1//EN" "http://www.w3.org/Graphics/SVG/1.1/DTD/svg11.dtd">
<svg version="1.1" id="Capa_1" xmlns="http://www.w3.org/2000/svg" xmlns:xlink="http://www.w3.org/1999/xlink" x="0px" y="0px"
	 viewBox="0 0 512 512" enable-background="new 0 0 512 512" xml:space="preserve">
<g>
	<g>
		<path fill="#FFFFFF" d="M491.7,114.1V81.8l-4.6-1.8c-1.6-0.6-39.5-15.3-90.1-15.3c-54.2,0-100.8,16.5-138.7,49
			c-37.9-32.5-84.6-49-138.7-49c-50.6,0-88.5,14.7-90,15.3l-4.7,1.8v29.9C9.5,114.6,0,119.7,0,128.1c0,43.5,0,307.8,0,307.8h226.7
			c7.8,7,19.3,11.4,32.1,11.4c12.8,0,24.3-4.4,32.1-11.4h221c0,0,0-292.5,0-307.8C512,121.3,504.3,116.8,491.7,114.1z M255.8,411.6
			c-18.8-7.8-83.6-32.4-148.6-32.4c-25.7,0-48.4,3.9-67.7,11.7V92c11.3-3.8,42.1-12.7,80-12.7c49.9,0,92.7,15.1,127.7,44.5v178.4
			l8.6-9.5L255.8,411.6L255.8,411.6z M477,391c-20.8-8.4-44.6-12.6-71.1-12.6c-64.9,0-126.6,24.9-145.2,33V292.7l8.7,9.5V123.8
			c35-29.4,77.8-44.5,127.7-44.5c37.8,0,68.7,8.9,80,12.7L477,391L477,391z"/>
		<path fill="#FFFFFF" d="M68.6,131.3l3,11.5c76.6-20.3,145.4,17.3,146.1,17.7l5.8-10.4C220.6,148.4,149.9,109.8,68.6,131.3z"/>
		<path fill="#FFFFFF" d="M68.6,165l3,11.5c76.6-20.3,145.4,17.3,146.1,17.6l5.8-10.4C220.6,182.1,149.9,143.5,68.6,165z"/>
		<path fill="#FFFFFF" d="M68.6,196.7l3,11.5c76.6-20.3,145.4,17.3,146.1,17.7l5.8-10.4C220.6,213.8,149.9,175.1,68.6,196.7z"/>
		<path fill="#FFFFFF" d="M68.6,231.3l3,11.5c76.6-20.3,145.4,17.3,146.1,17.7l5.8-10.4C220.6,248.5,149.9,209.8,68.6,231.3z"/>
		<path fill="#FFFFFF" d="M68.6,263.5l3,11.5c76.6-20.3,145.4,17.3,146.1,17.7l5.8-10.4C220.6,280.6,149.9,242,68.6,263.5z"/>
		<path fill="#FFFFFF" d="M68.6,296.5l3,11.5c76.6-20.3,145.4,17.3,146.1,17.6l5.8-10.4C220.6,313.6,149.9,275,68.6,296.5z"/>
		<path fill="#FFFFFF" d="M68.6,329.6l3,11.5c76.6-20.3,145.4,17.3,146.1,17.7l5.8-10.4C220.6,346.7,149.9,308.1,68.6,329.6z"/>
		<path fill="#FFFFFF" d="M302.3,161.4c0.7-0.4,69.6-37.9,146.1-17.7l3.1-11.5c-81.3-21.5-152,17.1-155,18.8L302.3,161.4z"/>
		<path fill="#FFFFFF" d="M296.5,184.7l5.8,10.4c0.7-0.4,69.6-38,146.1-17.6l3.1-11.5C370.2,144.3,299.5,183,296.5,184.7z"/>
		<path fill="#FFFFFF" d="M296.5,216.3l5.8,10.4c0.7-0.4,69.6-38,146.1-17.7l3.1-11.5C370.2,176,299.5,214.7,296.5,216.3z"/>
		<path fill="#FFFFFF" d="M296.5,251l5.8,10.4c0.7-0.4,69.6-37.9,146.1-17.6l3.1-11.5C370.2,210.7,299.5,249.3,296.5,251z"/>
		<path fill="#FFFFFF" d="M296.5,283.1l5.8,10.4c0.7-0.4,69.6-38,146.1-17.7l3.1-11.5C370.2,242.9,299.5,281.5,296.5,283.1z"/>
		<path fill="#FFFFFF" d="M296.5,316.2l5.8,10.4c0.7-0.4,69.6-37.9,146.1-17.6l3.1-11.5C370.2,275.9,299.5,314.5,296.5,316.2z"/>
		<path fill="#FFFFFF" d="M296.5,349.3l5.8,10.4c0.7-0.3,69.6-38,146.1-17.6l3.1-11.5C370.2,308.9,299.5,347.6,296.5,349.3z"/>
	</g>
</g>
</svg>
