<?xml version="1.0" encoding="utf-8"?>
<!-- Generator: Adobe Illustrator 17.1.0, SVG Export Plug-In . SVG Version: 6.00 Build 0)  -->
<!DOCTYPE svg PUBLIC "-//W3C//DTD SVG 1.1//EN" "http://www.w3.org/Graphics/SVG/1.1/DTD/svg11.dtd">
<svg version="1.1" id="Capa_1" xmlns="http://www.w3.org/2000/svg" xmlns:xlink="http://www.w3.org/1999/xlink" x="0px" y="0px"
	 viewBox="0 0 512 512" enable-background="new 0 0 512 512" xml:space="preserve">
<g>
	<g>
		<g>
			<path fill="#FFFFFF" d="M198,489.2c-1.5,0-3-0.6-4.1-1.8c-29.4-31.9-52.4-122.1-52.4-205.3c0-87.7,21.9-172.7,52-202.2
				c2.2-2.1,5.7-2.1,7.8,0.1c2.1,2.2,2.1,5.7-0.1,7.8c-28.2,27.6-48.7,109.3-48.7,194.3c0,79.5,22.2,168.2,49.5,197.9
				c2.1,2.2,1.9,5.7-0.3,7.8C200.7,488.7,199.3,489.2,198,489.2z"/>
		</g>
		<g>
			<path fill="#FFFFFF" d="M209.3,489.7c-1.3,0-2.7-0.5-3.7-1.5c-2.2-2.1-2.4-5.6-0.3-7.8c27.3-29.7,49.6-118.7,49.6-198.4
				c0-85-20.5-166.7-48.7-194.3c-2.2-2.1-2.2-5.6-0.1-7.8c2.1-2.2,5.6-2.2,7.8-0.1c30.1,29.5,52,114.5,52,202.2
				c0,83.5-23.1,173.9-52.5,205.9C212.3,489.1,210.8,489.7,209.3,489.7z"/>
		</g>
		<g>
			<path fill="#FFFFFF" d="M266.7,480.4c-1.8,0-3.6-0.9-4.6-2.5c-1.7-2.5-1-6,1.6-7.6c47.8-31.2,81.2-107.3,81.2-185.1
				c0-82.2-33.3-159.1-80.9-187.2c-2.6-1.5-3.5-4.9-2-7.6c1.5-2.6,4.9-3.5,7.6-2c51.7,30.4,86.4,109.4,86.4,196.7
				c0,81.2-35.4,161.2-86.2,194.3C268.7,480.1,267.7,480.4,266.7,480.4z"/>
		</g>
		<g>
			<path fill="#FFFFFF" d="M148.9,481.4c-1,0-2.1-0.3-3-0.9c-49.9-32.6-86.2-116.1-86.2-198.4c0-88.5,32.6-165,83.1-194.7
				c2.6-1.5,6-0.7,7.6,2c1.5,2.6,0.7,6-2,7.6c-47.2,27.8-77.7,100.4-77.7,185.1c0,78.9,34.1,158.5,81.2,189.2
				c2.5,1.7,3.3,5.1,1.6,7.6C152.4,480.5,150.7,481.4,148.9,481.4z"/>
		</g>
		<g>
			<path fill="#FFFFFF" d="M8,272.5c-1.5,0-3-0.6-4.1-1.8c-2.1-2.2-1.9-5.7,0.3-7.8c32.1-29.5,118.9-51.8,202-51.8
				c87.7,0,172.7,21.9,202.2,52c2.1,2.2,2.1,5.7-0.1,7.8c-2.2,2.1-5.7,2.1-7.8-0.1c-27.6-28.2-109.3-48.7-194.3-48.7
				c-79.3,0-164.7,21.5-194.5,48.9C10.6,272,9.3,272.5,8,272.5z"/>
		</g>
		<g>
			<path fill="#FFFFFF" d="M206.2,338.6c-83.1,0-169.9-22.3-202-51.8c-2.2-2.1-2.4-5.6-0.3-7.8c2.1-2.2,5.6-2.4,7.8-0.3
				c29.8,27.4,115.2,48.9,194.5,48.9c85,0,166.7-20.5,194.3-48.7c2.1-2.2,5.6-2.2,7.8-0.1c2.2,2.1,2.2,5.6,0.1,7.8
				C378.9,316.7,293.9,338.6,206.2,338.6z"/>
		</g>
		<g>
			<path fill="#FFFFFF" d="M206.2,428.6c-81.2,0-163.9-36.2-196.5-86.2c-1.7-2.5-1-6,1.6-7.6c2.6-1.7,6-1,7.6,1.6
				c30.7,47,109.5,81.2,187.3,81.2c82.2,0,159.1-33.3,187.2-80.9c1.5-2.6,4.9-3.5,7.6-2c2.6,1.5,3.5,4.9,2,7.6
				C372.5,393.9,293.4,428.6,206.2,428.6z"/>
		</g>
		<g>
			<path fill="#FFFFFF" d="M398.1,230.3c-1.9,0-3.7-1-4.8-2.7c-28-47.7-105-80.9-187.2-80.9c-77.8,0-156.6,34.1-187.3,81.2
				c-1.7,2.6-5.1,3.3-7.6,1.6c-2.5-1.7-3.3-5.1-1.6-7.6c32.6-49.9,115.3-86.2,196.5-86.2c87.2,0,166.3,34.7,196.7,86.4
				c1.5,2.6,0.7,6-2,7.6C400,230,399.1,230.3,398.1,230.3z"/>
		</g>
		<g>
			<path fill="#FFFFFF" d="M206.2,489.7C92.5,489.7,0,397.2,0,283.5S92.5,77.3,206.2,77.3s206.2,92.5,206.2,206.2
				S319.9,489.7,206.2,489.7z M206.2,88.4C98.6,88.4,11,175.9,11,283.5s87.5,195.1,195.1,195.1s195.1-87.5,195.1-195.1
				S313.8,88.4,206.2,88.4z"/>
		</g>
		<g>
			<path fill="#FFFFFF" d="M209.2,84.9c-3,0-4.7-2.5-4.7-5.5V18.7c0-3.1,1.7-5.5,4.7-5.5s4.7,2.5,4.7,5.5v60.7
				C213.9,82.4,212.2,84.9,209.2,84.9z"/>
		</g>
		<g>
			<g>
				<path fill="#FFFFFF" d="M443.1,472h-51.4c-2.4,0-4.3-2.4-4.3-4.7c0-2.4,1.9-4.7,4.3-4.7h51.4c2.4,0,4.3,2.4,4.3,4.7
					C447.3,469.7,445.4,472,443.1,472z"/>
			</g>
			<g>
				<path fill="#FFFFFF" d="M417.3,498.9c-2.4,0-4.7-1.9-4.7-4.3v-51.4c0-2.4,2.4-4.3,4.7-4.3c2.4,0,4.7,1.9,4.7,4.3v51.4
					C422.1,496.9,419.7,498.9,417.3,498.9z"/>
			</g>
		</g>
		<g>
			<g>
				<path fill="#FFFFFF" d="M506.5,150.3h-66.2c-3,0-5.5-1.7-5.5-4.7s2.5-4.7,5.5-4.7h66.2c3,0,5.5,1.7,5.5,4.7
					S509.5,150.3,506.5,150.3z"/>
			</g>
			<g>
				<path fill="#FFFFFF" d="M474.1,185c-3,0-4.7-2.5-4.7-5.5v-66.2c0-3.1,1.7-5.5,4.7-5.5c3,0,4.7,2.5,4.7,5.5v66.2
					C478.8,182.6,477.2,185,474.1,185z"/>
			</g>
		</g>
		<g>
			<g>
				<path fill="#FFFFFF" d="M85.4,55.7H19.2c-3,0-5.5-1.7-5.5-4.7c0-3.1,2.5-4.7,5.5-4.7h66.2c3,0,5.5,1.7,5.5,4.7
					S88.5,55.7,85.4,55.7z"/>
			</g>
			<g>
				<path fill="#FFFFFF" d="M53.1,90.4c-3,0-4.7-2.5-4.7-5.5V18.7c0-3.1,1.7-5.5,4.7-5.5c3,0,4.7,2.5,4.7,5.5v66.2
					C57.8,88,56.1,90.4,53.1,90.4z"/>
			</g>
		</g>
	</g>
</g>
</svg>
