<?xml version="1.0" encoding="utf-8"?>
<!-- Generator: Adobe Illustrator 17.1.0, SVG Export Plug-In . SVG Version: 6.00 Build 0)  -->
<!DOCTYPE svg PUBLIC "-//W3C//DTD SVG 1.1//EN" "http://www.w3.org/Graphics/SVG/1.1/DTD/svg11.dtd">
<svg version="1.1" id="Layer_1" xmlns="http://www.w3.org/2000/svg" xmlns:xlink="http://www.w3.org/1999/xlink" x="0px" y="0px"
	 viewBox="0 0 512 512" enable-background="new 0 0 512 512" xml:space="preserve">
<g>
	<path fill="#FFFFFF" d="M453.8,92.7h-43.8V41.9c0-4.7-3.8-8.6-8.6-8.6s-8.6,3.8-8.6,8.6v50.7h-23.6v-22c0-4.7-3.8-8.6-8.6-8.6
		s-8.6,3.8-8.6,8.6v22H111.7V62.3c0-4.7-3.8-8.6-8.6-8.6c-4.7,0-8.6,3.8-8.6,8.6v30.3H58.2C26.1,92.7,0,118.7,0,150.8v76.9
		c0,32.1,26.1,58.2,58.2,58.2h24.4v34c0,3.2,2.6,5.7,5.7,5.7h9.1v22.1c0,3.2,2.6,5.7,5.7,5.7c3.2,0,5.7-2.6,5.7-5.7v-22.1h9.1
		c3.2,0,5.7-2.6,5.7-5.7v-34h49.3c3.1,0,5.9-1.7,7.5-4.4l18.5-32.7h92v131.1H8.6c-4.7,0-8.6,3.8-8.6,8.6v81.5c0,4.7,3.8,8.6,8.6,8.6
		h494.8c4.7,0,8.6-3.8,8.6-8.6V150.8C512,118.7,485.9,92.7,453.8,92.7L453.8,92.7z M90.3,218.2h25.6V229H90.3V218.2z M115.9,206.7
		H90.3v-70.1h25.6V206.7z M115.9,125.2H90.3v-15.3h25.6V125.2z M112.2,314.2H94v-28.3h18.2L112.2,314.2L112.2,314.2z M299.6,397.1
		c4.7,0,8.6-3.8,8.6-8.6V240.2c0-4.7-3.8-8.6-8.6-8.6H193.9c-3.1,0-5.9,1.7-7.5,4.4l-18.5,32.7H58.2c-22.6,0-41-18.4-41-41v-76.9
		c0-22.6,18.4-41,41-41h20.7v124.8c0,3.2,2.6,5.7,5.7,5.7h37.1c3.2,0,5.7-2.6,5.7-5.7V109.8h326.5c22.6,0,41,18.4,41,41v256.1H17.2
		v-9.8L299.6,397.1L299.6,397.1z M17.2,461.5v-43.1h477.6v43.1H17.2L17.2,461.5z"/>
	<path fill="#FFFFFF" d="M318.5,239.1v38.8c0,45.7,37.2,82.9,82.9,82.9s82.9-37.2,82.9-82.9V150.8c0-16.9-13.7-30.6-30.6-30.6H292.4
		c-27.9,0-50.5,22.7-50.5,50.5s22.7,50.5,50.5,50.5h8.2C310.5,221.3,318.5,229.3,318.5,239.1L318.5,239.1z M292.4,209.8
		c-21.5,0-39.1-17.5-39.1-39.1s17.5-39.1,39.1-39.1h161.4c10.5,0,19.1,8.6,19.1,19.1v127.1c0,39.4-32.1,71.5-71.5,71.5
		S330,317.4,330,277.9v-38.8c0-16.2-13.2-29.3-29.3-29.3L292.4,209.8L292.4,209.8z"/>
	<path fill="#FFFFFF" d="M401.5,327.5c11.9,0,23.8-4.5,32.9-13.6c18.1-18.1,18.1-47.6,0-65.8c-18.1-18.1-47.6-18.1-65.8,0
		c-18.1,18.1-18.1,47.6,0,65.8C377.7,323,389.6,327.5,401.5,327.5z M376.7,256.2c6.8-6.8,15.8-10.2,24.8-10.2
		c9,0,17.9,3.4,24.8,10.2c13.7,13.7,13.7,35.9,0,49.6c-13.7,13.7-35.9,13.7-49.6,0C363,292.1,363,269.9,376.7,256.2z"/>
	<path fill="#FFFFFF" d="M295.8,143.7c-14.4,0-26.1,11.7-26.1,26.1c0,14.4,11.7,26.1,26.1,26.1s26.1-11.7,26.1-26.1
		C322,155.4,310.2,143.7,295.8,143.7z M295.8,184.5c-8.1,0-14.7-6.6-14.7-14.7c0-8.1,6.6-14.7,14.7-14.7c8.1,0,14.7,6.6,14.7,14.7
		C310.5,177.9,303.9,184.5,295.8,184.5z"/>
	<path fill="#FFFFFF" d="M197.6,132.6H155c-3.2,0-5.7,2.6-5.7,5.7v59.3c0,3.2,2.6,5.7,5.7,5.7h42.6c3.2,0,5.7-2.6,5.7-5.7v-59.3
		C203.3,135.2,200.8,132.6,197.6,132.6z M191.9,191.9h-31.2V144h31.2V191.9z"/>
	<path fill="#FFFFFF" d="M385.2,273.3c2.3,0,4.5-0.9,6.1-2.5c1.6-1.6,2.5-3.8,2.5-6.1c0-2.3-0.9-4.5-2.5-6.1
		c-1.6-1.6-3.8-2.5-6.1-2.5c-2.3,0-4.5,0.9-6.1,2.5c-1.6,1.6-2.5,3.8-2.5,6.1c0,2.3,0.9,4.5,2.5,6.1
		C380.7,272.4,382.9,273.3,385.2,273.3z"/>
	<path fill="#FFFFFF" d="M373.1,164.4h56.7c3.2,0,5.7-2.6,5.7-5.7s-2.6-5.7-5.7-5.7h-56.7c-3.2,0-5.7,2.6-5.7,5.7
		S370,164.4,373.1,164.4z"/>
	<path fill="#FFFFFF" d="M373.1,186.7h56.7c3.2,0,5.7-2.6,5.7-5.7s-2.6-5.7-5.7-5.7h-56.7c-3.2,0-5.7,2.6-5.7,5.7
		S370,186.7,373.1,186.7z"/>
</g>
</svg>
