<?xml version="1.0" encoding="utf-8"?>
<!-- Generator: Adobe Illustrator 17.1.0, SVG Export Plug-In . SVG Version: 6.00 Build 0)  -->
<!DOCTYPE svg PUBLIC "-//W3C//DTD SVG 1.1//EN" "http://www.w3.org/Graphics/SVG/1.1/DTD/svg11.dtd">
<svg version="1.1" id="Capa_1" xmlns="http://www.w3.org/2000/svg" xmlns:xlink="http://www.w3.org/1999/xlink" x="0px" y="0px"
	 viewBox="0 0 512 512" enable-background="new 0 0 512 512" xml:space="preserve">
<g>
	<g>
		<path fill="#FFFFFF" d="M316.5,468.2h36.8v6.6c0,10.3,8.4,18.7,18.7,18.7c10.3,0,18.7-8.4,18.7-18.7v-6.6h74.7v6.6
			c0,10.3,8.4,18.7,18.7,18.7c10.3,0,18.7-8.4,18.7-18.7v-6.6h9.4v-33.7H316.5L316.5,468.2L316.5,468.2z"/>
		<rect x="316.5" y="385.6" fill="#FFFFFF" width="195.5" height="31.6"/>
		<rect x="316.5" y="226" fill="#FFFFFF" width="195.5" height="93.5"/>
		<rect x="316.5" y="336.7" fill="#FFFFFF" width="195.5" height="31.6"/>
		<path fill="#FFFFFF" d="M278.6,468.2h20V74H103.1v75.5l-73.3-30.3c-11-4.5-23.6,0.7-28.1,11.7c-4.5,11,0.7,23.6,11.7,28.1
			l89.8,37.1v74l-73.3-30.3c-11-4.5-23.6,0.7-28.1,11.7c-4.5,11,0.7,23.6,11.7,28.1l89.8,37.1v151.5h17.5v6.6
			c0,10.3,8.4,18.7,18.7,18.7c10.3,0,18.7-8.4,18.7-18.7v-6.6h83.3v6.6c0,10.3,8.4,18.7,18.7,18.7c10.3,0,18.7-8.4,18.7-18.7
			L278.6,468.2L278.6,468.2L278.6,468.2z"/>
		<path fill="#FFFFFF" d="M481.9,23.8c-1.8-4.4-6.9-6.5-11.3-4.7L335.5,75h-19v91.2H512v-45.6c0-25.2-21.9-45.6-48.9-45.6h-82.5
			l96.6-39.9C481.6,33.3,483.7,28.2,481.9,23.8z"/>
	</g>
</g>
</svg>
