<?xml version="1.0" encoding="utf-8"?>
<!-- Generator: Adobe Illustrator 17.1.0, SVG Export Plug-In . SVG Version: 6.00 Build 0)  -->
<!DOCTYPE svg PUBLIC "-//W3C//DTD SVG 1.1//EN" "http://www.w3.org/Graphics/SVG/1.1/DTD/svg11.dtd">
<svg version="1.1" id="Capa_1" xmlns="http://www.w3.org/2000/svg" xmlns:xlink="http://www.w3.org/1999/xlink" x="0px" y="0px"
	 viewBox="0 0 512 512" enable-background="new 0 0 512 512" xml:space="preserve">
<g>
	<g>
		<g>
			<polygon fill="#FFFFFF" points="413.8,385.7 395.9,456 507.2,423.1 454.1,373.9 			"/>
			<path fill="#FFFFFF" d="M245.3,361.4V24.3C109.6,24.7,0,134.3,0,269.6v170.9h168.1c0-0.4,0-0.8,0-1.7
				C168.1,396.6,202.6,361.8,245.3,361.4z"/>
			<path fill="#FFFFFF" d="M407.7,365.8l40.6-11.8l-42.6-143.8l25.2-7.3l-5.6-19.5l-25.2,7.3l-10.5-36.1l-9.7,2.8
				c0,0-16.3-24.9-9-37.8c9.1-15.9,77.6-6.9,103.6-8.1c31.7-0.8,39-25.2,37.4-39.4c-1.3-10.5-6.9-20.7-15.9-29.7
				c-59.6-46.3-213.3-19-229.5-8.5v28c15.5-13.8,165.9-37.8,214-3.2c7.6,5.7,20.5,31.3-7.3,30.1c-25.2,1.7-104.8-15.6-122.6,20.7
				c-9.4,27.4,7.7,53.6,7.7,53.6l-9.3,2.8l11,37.8l-30.1,9l5.6,19.5l30.1-9L407.7,365.8z"/>
			<path fill="#FFFFFF" d="M246,382c-31.6,0-56.8,25.6-56.8,56.8c0,31.6,25.6,56.8,56.8,56.8c31.6,0,56.8-25.6,56.8-56.8
				C302.9,407.6,277.4,382,246,382z M246,466.5c-15,0-27.3-12.2-27.3-27.3S231,412,246,412c15,0,27.3,12.2,27.3,27.3
				S261.1,466.5,246,466.5z"/>
		</g>
	</g>
</g>
</svg>
