<?xml version="1.0" encoding="utf-8"?>
<!-- Generator: Adobe Illustrator 17.1.0, SVG Export Plug-In . SVG Version: 6.00 Build 0)  -->
<!DOCTYPE svg PUBLIC "-//W3C//DTD SVG 1.1//EN" "http://www.w3.org/Graphics/SVG/1.1/DTD/svg11.dtd">
<svg version="1.1" id="Capa_1" xmlns="http://www.w3.org/2000/svg" xmlns:xlink="http://www.w3.org/1999/xlink" x="0px" y="0px"
	 viewBox="0 0 512 512" enable-background="new 0 0 512 512" xml:space="preserve">
<g>
	<g>
		<path fill="#FFFFFF" d="M387.7,19c-8.3-10.5-25.9-19-39.3-19H163.6c-13.4,0-31,8.5-39.3,19L21.2,148.7
			c-8.3,10.5-15.1,29.8-15.1,43.2v295.8C6.1,501.1,17,512,30.3,512h451.3c13.4,0,24.2-10.9,24.2-24.2V192c0-13.4-6.8-32.7-15.1-43.2
			L387.7,19z M321.6,456h-79.7c-3.1,0-5.7-2.6-5.7-5.7c0-3.1,2.6-5.7,5.7-5.7h79.7c3.1,0,5.7,2.5,5.7,5.7
			C327.3,453.4,324.7,456,321.6,456z M393.5,124.8c2.5-1.9,6.1-1.4,8,1.2l47.7,63.9c1.9,2.5,1.4,6.1-1.2,8c-1,0.8-2.2,1.1-3.4,1.1
			c-1.7,0-3.4-0.8-4.5-2.3l-47.7-63.9C390.5,130.3,391,126.7,393.5,124.8z M464.3,450.3c0,3.1-2.6,5.7-5.7,5.7h-57.2
			c-3.1,0-5.7-2.6-5.7-5.7c0-3.1,2.6-5.7,5.7-5.7h51.5v-16.8c0-3.1,2.5-5.7,5.7-5.7c3.1,0,5.7,2.5,5.7,5.7V450.3z M464.3,348.1
			c0,3.1-2.6,5.7-5.7,5.7c-3.1,0-5.7-2.5-5.7-5.7v-79.7c0-3.1,2.5-5.7,5.7-5.7c3.1,0,5.7,2.6,5.7,5.7V348.1z"/>
	</g>
</g>
</svg>
