<?xml version="1.0" encoding="utf-8"?>
<!-- Generator: Adobe Illustrator 17.1.0, SVG Export Plug-In . SVG Version: 6.00 Build 0)  -->
<!DOCTYPE svg PUBLIC "-//W3C//DTD SVG 1.1//EN" "http://www.w3.org/Graphics/SVG/1.1/DTD/svg11.dtd">
<svg version="1.1" id="Capa_1" xmlns="http://www.w3.org/2000/svg" xmlns:xlink="http://www.w3.org/1999/xlink" x="0px" y="0px"
	 viewBox="0 0 512 512" enable-background="new 0 0 512 512" xml:space="preserve">
<g>
	<path id="Fax_1_" fill="#FFFFFF" d="M491.1,105c-20.9,0-41.8,0-62.7,0c0-18.8,0-37.6,0-56.4c0-11.5-9.4-20.9-20.9-20.9
		c-101,0-202,0-303,0c-11.5,0-20.9,9.4-20.9,20.9c0,18.8,0,37.6,0,56.4c-20.9,0-41.8,0-62.7,0C9.4,105,0,114.4,0,125.9
		c0,68.3,0,136.5,0,204.8c0,11.5,9.4,20.9,20.9,20.9c20.9,0,41.8,0,62.7,0c0,24.7,0,49.4,0,74c0,12,0,24.1,0,36.1
		c0,7,1.4,12.2,6.8,17.1c2.5,2.3,5.2,3.8,8.5,4.7c3,0.8,6,0.8,9.1,0.8c49.4,0,98.7,0,148.1,0s98.7,0,148.1,0c3.1,0,6.1,0.1,9.1-0.8
		c3.3-0.9,6-2.4,8.5-4.7c5.4-4.9,6.8-10.1,6.8-17.1c0-12,0-24.1,0-36.1c0-24.7,0-49.3,0-74c20.9,0,41.8,0,62.7,0
		c11.5,0,20.9-9.4,20.9-20.9c0-68.3,0-136.5,0-204.8C512,114.4,502.6,105,491.1,105z M52.2,178.7c-10.1,0-18.3-8.2-18.3-18.3
		c0-10.1,8.2-18.3,18.3-18.3s18.3,8.2,18.3,18.3C70.5,170.5,62.3,178.7,52.2,178.7z M407.5,463.4h-303V298.3h303L407.5,463.4
		L407.5,463.4z M407.5,105c-101,0-202,0-303,0c0-11.8,0-23.7,0-35.5c0-11.5,9.4-20.9,20.9-20.9c87.1,0,174.2,0,261.2,0
		c11.5,0,20.9,9.4,20.9,20.9C407.5,81.3,407.5,93.2,407.5,105z"/>
</g>
</svg>
