<?xml version="1.0" encoding="utf-8"?>
<!-- Generator: Adobe Illustrator 17.1.0, SVG Export Plug-In . SVG Version: 6.00 Build 0)  -->
<!DOCTYPE svg PUBLIC "-//W3C//DTD SVG 1.1//EN" "http://www.w3.org/Graphics/SVG/1.1/DTD/svg11.dtd">
<svg version="1.1" id="Layer_1" xmlns="http://www.w3.org/2000/svg" xmlns:xlink="http://www.w3.org/1999/xlink" x="0px" y="0px"
	 viewBox="0 0 512 512" enable-background="new 0 0 512 512" xml:space="preserve">
<g>
	<g>
		<path fill="#FFFFFF" d="M398.8,0H113.2c-8.9,0-16.1,7.2-16.1,16.1s7.2,16.1,16.1,16.1h8.4V247h32.2V93.1h0h86v51.2l-18.3,14.3
			c-4.9,3.8-7.2,10.1-5.8,16.2l4.3,19.1c1.9,8.7,10.6,14.1,19.2,12.2c7.5-1.7,12.6-8.3,12.6-15.7c0-1.2-0.1-2.3-0.4-3.5l-2.1-9.2
			l6.6-5.1l6.6,5.1l-2.1,9.2c-0.3,1.2-0.4,2.4-0.4,3.5c0,7.4,5.1,14,12.6,15.7c1.2,0.3,2.4,0.4,3.5,0.4c7.4,0,14-5.1,15.7-12.6
			l4.3-19.1c1.4-6.1-0.9-12.4-5.8-16.2l-18.3-14.3V93.1h86V247h32.2V32.2h8.4c8.9,0,16.1-7.2,16.1-16.1C414.9,7.2,407.7,0,398.8,0z"
			/>
	</g>
</g>
<g>
	<g>
		<path fill="#FFFFFF" d="M121.7,334.5v161.4c0,8.9,7.2,16.1,16.1,16.1h236.4c8.9,0,16.1-7.2,16.1-16.1V334.5L121.7,334.5
			L121.7,334.5z M284.5,374.5h-113c-5.9,0-10.7-4.8-10.7-10.7s4.8-10.7,10.7-10.7h113c5.9,0,10.7,4.8,10.7,10.7
			C295.3,369.7,290.5,374.5,284.5,374.5z M325.1,379c-8.5,0-15.3-6.9-15.3-15.3s6.9-15.3,15.3-15.3s15.3,6.9,15.3,15.3
			S333.6,379,325.1,379z"/>
	</g>
</g>
<g>
	<g>
		<path fill="#FFFFFF" d="M295.4,222.2c-8.9,0-16.1,7.2-16.1,16.1v8.7h32.2v-8.7C311.5,229.4,304.3,222.2,295.4,222.2z"/>
	</g>
</g>
<g>
	<g>
		<path fill="#FFFFFF" d="M337.7,222.2c-8.9,0-16.1,7.2-16.1,16.1v8.7h32.2v-8.7C353.8,229.4,346.6,222.2,337.7,222.2z"/>
	</g>
</g>
<g>
	<g>
		<path fill="#FFFFFF" d="M399.9,268.4H112.1c-4.1,0-7.4,3.3-7.4,7.4v29.7c0,4.1,3.3,7.4,7.4,7.4h287.7c4.1,0,7.4-3.3,7.4-7.4v-29.7
			C407.3,271.8,404,268.4,399.9,268.4z"/>
	</g>
</g>
</svg>
