<?xml version="1.0" encoding="utf-8"?>
<!-- Generator: Adobe Illustrator 17.1.0, SVG Export Plug-In . SVG Version: 6.00 Build 0)  -->
<!DOCTYPE svg PUBLIC "-//W3C//DTD SVG 1.1//EN" "http://www.w3.org/Graphics/SVG/1.1/DTD/svg11.dtd">
<svg version="1.1" id="Layer_1" xmlns="http://www.w3.org/2000/svg" xmlns:xlink="http://www.w3.org/1999/xlink" x="0px" y="0px"
	 viewBox="0 0 512 512" enable-background="new 0 0 512 512" xml:space="preserve">
<g>
	<g>
		<path fill="#FFFFFF" d="M407.3,252.3h-4.5V32.2h4.5c8.9,0,16.1-7.2,16.1-16.1S416.2,0,407.3,0H104.7c-8.9,0-16.1,7.2-16.1,16.1
			s7.2,16.1,16.1,16.1h4.6v220.1h-4.6c-8.9,0-16.1,7.2-16.1,16.1V313c0,8.9,7.2,16.1,16.1,16.1h4.6v166.8c0,8.9,7.2,16.1,16.1,16.1
			h261.3c8.9,0,16.1-7.2,16.1-16.1V329.1h4.5c8.9,0,16.1-7.2,16.1-16.1v-44.6C423.4,259.6,416.2,252.3,407.3,252.3z M141.4,32.2
			h229.1v28.7H141.4V32.2z M141.4,93.1h98.5v51.2l-18.3,14.3c-4.9,3.8-7.2,10.1-5.8,16.2l4.3,19.1c1.9,8.7,10.6,14.1,19.2,12.2
			c8.7-1.9,14.1-10.6,12.2-19.2l-2.1-9.2l6.6-5.1l6.6,5.1l-2.1,9.2c-1.9,8.7,3.5,17.3,12.2,19.2c1.2,0.3,2.4,0.4,3.5,0.4
			c7.4,0,14-5.1,15.7-12.6l4.3-19.1c1.4-6.1-0.9-12.4-5.8-16.2l-18.3-14.3V93.1h98.5v159.2h-16.7v-14.1c0-8.9-7.2-16.1-16.1-16.1
			s-16.1,7.2-16.1,16.1v14.1h-10.1v-14.1c0-8.9-7.2-16.1-16.1-16.1s-16.1,7.2-16.1,16.1v14.1H141.4V93.1z M141.4,479.8V329.1h229.1
			v150.7H141.4z M391.2,296.9H120.8v-12.4h270.4V296.9z"/>
	</g>
</g>
<g>
	<g>
		<circle fill="#FFFFFF" cx="325.1" cy="363.7" r="15.3"/>
	</g>
</g>
<g>
	<g>
		<path fill="#FFFFFF" d="M284.5,347.6h-113c-8.9,0-16.1,7.2-16.1,16.1s7.2,16.1,16.1,16.1h113c8.9,0,16.1-7.2,16.1-16.1
			S293.4,347.6,284.5,347.6z"/>
	</g>
</g>
</svg>
