<?xml version="1.0" encoding="utf-8"?>
<!-- Generator: Adobe Illustrator 17.1.0, SVG Export Plug-In . SVG Version: 6.00 Build 0)  -->
<!DOCTYPE svg PUBLIC "-//W3C//DTD SVG 1.1//EN" "http://www.w3.org/Graphics/SVG/1.1/DTD/svg11.dtd">
<svg version="1.1" id="Capa_1" xmlns="http://www.w3.org/2000/svg" xmlns:xlink="http://www.w3.org/1999/xlink" x="0px" y="0px"
	 viewBox="0 0 372 372" enable-background="new 0 0 372 372" xml:space="preserve">
<g>
	<g>
		<path fill="#FFFFFF" d="M372,142L240.6,85c-2.2,7.4-5.9,13.2-10.3,17.9l-35-21.3V67.1c0-5.2-4.2-9.4-9.4-9.4
			c-10.5,0-19.1-8.5-19.1-19.1c0-10.5,8.5-19,19.1-19c10.5,0,19.1,8.5,19.1,19c0,5.2,4.2,9.4,9.4,9.4c5.2,0,9.4-4.2,9.4-9.4
			C223.8,17.9,206.8,1,186,1c-20.8,0-37.8,16.9-37.8,37.8c0,17.6,12.1,32.4,28.4,36.6v6.3l-35,21.3c-4.4-4.7-8-10.5-10.3-17.9L0,142
			l28.5,77.7l69.7-26.1L97,371.1h89h89l-1.2-177.4l69.7,26.1L372,142z M280.4,176.1l-25.4-9.5l0.2,27.2l1.1,158.6H186h-70.2
			l1.1-158.6l0.2-27.2l-25.4,9.5l-52.1,19.5l-15.9-43.5l99-42.9c0.9,1.3,1.8,2.4,2.8,3.6c4.3,5.2,9.2,9.5,14.5,13.1
			c15.4,10.4,33.4,14.3,45.7,14.6h0.5l0.5,0c1.4,0,14.6-0.5,29.5-6.3c5.9-2.3,11.1-5.2,16-8.4c5.6-3.8,10.4-8.1,14.5-13.1
			c1-1.2,2.1-2.3,2.9-3.5l99,42.9l-15.9,43.5L280.4,176.1z M186,97.9l27.9,17c-14,6.6-27.9,7-27.9,7s-13.9-0.4-27.9-7L186,97.9z"/>
	</g>
</g>
</svg>
