<?xml version="1.0" encoding="utf-8"?>
<!-- Generator: Adobe Illustrator 17.1.0, SVG Export Plug-In . SVG Version: 6.00 Build 0)  -->
<!DOCTYPE svg PUBLIC "-//W3C//DTD SVG 1.1//EN" "http://www.w3.org/Graphics/SVG/1.1/DTD/svg11.dtd">
<svg version="1.1" id="Capa_1" xmlns="http://www.w3.org/2000/svg" xmlns:xlink="http://www.w3.org/1999/xlink" x="0px" y="0px"
	 viewBox="0 0 800 800" enable-background="new 0 0 800 800" xml:space="preserve">
<g>
	<g>
		<path fill="#FFFFFF" d="M759.7,338h-31V209.4l-0.5-4.4c0-0.2-2.3-12.2,3.7-19.6c6.1-7.5,19.6-9.1,29.9-9.1
			c11.1,0,20.1-9,20.1-20.1c0-11.1-9-20.1-20.1-20.1c-28,0-48.7,8.2-61.6,24.5c-15.3,19.4-13.2,42.6-11.8,50.7v126.8H484.7
			l-90.6-214.2c-16.7-40.9-41.7-70.4-80.5-70.4H117.4c-38.8,0-70.4,31.6-70.4,70.4v259.7l11.9-11.9c15.7-15.7,37-23.9,59-23.5
			c14.7-15.8,35.7-25.3,58.7-25.3h40.3c23,0,43.9,9.5,58.7,25.3c22.1-0.4,43.3,7.8,59,23.5l28.4,28.4c16,15.9,24,37.6,23.4,59.3
			c15.7,14.8,25.4,35.9,25.4,58.5v36.9h126.2c-19.1,20.4-30.9,47.7-30.9,77.8c0,62.7,51,113.9,113.9,113.9
			c62.7,0,113.9-51.1,113.9-113.9c0-30.3-12-57.8-31.3-78.2c22.5-1.8,56.3-18.9,56.3-39.8L800,378.3C799.9,356,781.9,338,759.7,338z
			 M108.1,289.1V146.7c0-25.8,21-46.7,46.7-46.7h130.1c25.7,0,42.3,19.6,53.4,46.7l60,143L108.1,289.1z M620.8,686.1
			c-29.5,0-53.5-24-53.5-53.4c0-29.5,24-53.5,53.5-53.5c29.5,0,53.4,24,53.4,53.5C674.3,662.1,650.3,686.1,620.8,686.1z"/>
		<path fill="#FFFFFF" d="M339.7,432l-25.3-25.3c-14-14-32.9-21.4-52.6-21c-13.2-14-31.7-22.5-52.3-22.5h-35.8
			c-20.5,0-39.1,8.5-52.2,22.5c-19.6-0.4-38.6,7-52.6,21L43.4,432c-14.5,14.6-21.7,33.8-21,53.1C8.5,498.3,0,517,0,537v35.8
			c0,20,8.5,38.6,22.4,51.9c-0.7,19.2,6.5,38.4,21,53L68.8,703c14,14,33,21.6,52.6,21c13.2,14.1,31.7,22.6,52.2,22.6h35.8
			c20.5,0,39.1-8.5,52.3-22.6c19.7,0.7,38.6-7,52.6-21l25.3-25.3c14.2-14.2,21.4-33.5,20.9-52.8c14-13.3,22.6-32,22.6-52.1V537
			c0-20.2-8.6-38.8-22.6-52.1C361.1,465.6,353.9,446.3,339.7,432z M191.6,674.8c-66.1,0-119.9-53.8-119.9-119.9S125.5,435,191.6,435
			s119.9,53.8,119.9,119.9S257.7,674.8,191.6,674.8z"/>
		<circle fill="#FFFFFF" cx="191.6" cy="554.9" r="66.1"/>
	</g>
</g>
</svg>
