<?xml version="1.0" encoding="utf-8"?>
<!-- Generator: Adobe Illustrator 17.1.0, SVG Export Plug-In . SVG Version: 6.00 Build 0)  -->
<!DOCTYPE svg PUBLIC "-//W3C//DTD SVG 1.1//EN" "http://www.w3.org/Graphics/SVG/1.1/DTD/svg11.dtd">
<svg version="1.1" id="Capa_1" xmlns="http://www.w3.org/2000/svg" xmlns:xlink="http://www.w3.org/1999/xlink" x="0px" y="0px"
	 viewBox="0 0 512 512" enable-background="new 0 0 512 512" xml:space="preserve">
<g>
	<g>
		<path fill="#FFFFFF" d="M89.9,358.1l-20.7,21.4l285,22.1l5.7-13c2.9-6.6,5.2-17.8,5.2-25V209.9c0,0-4.3-52.5,13-56l-269.5-5.7
			c0,0-14.8,13.9-13,56.5c1.4,33.1,0.5,100.3,0.1,128.7C95.6,340.5,93,351.6,89.9,358.1z"/>
		<path fill="#FFFFFF" d="M16.5,181.6h62.3v153.9L52,357v7.2l15.6,3.3l20.2-15.6v-23.5c-0.1,0.1-0.1-146.7-0.1-146.7
			c0,0-2.3-19.6,7.4-23.9H27.8l13.7-24.4l366.8,8.8l-10.6,25.7l-19.6-1.2c-12.5,15-4.2,36.3-4.2,36.3l52,2.7v129.2h-54.2v15.6h54.2
			v7.2h0.8l-18.4,26.7v2.6v8.5h17.6l34.6-47.6v-15.6h-16.3V206.5l43.1,2.2c9.8,0.5,19.4-3.2,21.3-8.4c1.9-5.1,3.5-17.3,3.5-27.1V139
			c0-9.8-8-18-17.8-18.2l-452-10.5c-9.8-0.2-21.4,6.7-25.9,15.5l-8.2,16.1C3.6,150.6,0,162.2,0,167.7c0,5.5,3.7,9.9,8.3,9.8l8.3-0.2
			V181.6z"/>
	</g>
</g>
</svg>
