<?xml version="1.0" encoding="utf-8"?>
<!-- Generator: Adobe Illustrator 17.1.0, SVG Export Plug-In . SVG Version: 6.00 Build 0)  -->
<!DOCTYPE svg PUBLIC "-//W3C//DTD SVG 1.1//EN" "http://www.w3.org/Graphics/SVG/1.1/DTD/svg11.dtd">
<svg version="1.1" id="Capa_1" xmlns="http://www.w3.org/2000/svg" xmlns:xlink="http://www.w3.org/1999/xlink" x="0px" y="0px"
	 viewBox="0 0 512 512" enable-background="new 0 0 512 512" xml:space="preserve">
<g>
	<circle fill="#FFFFFF" cx="235.2" cy="402.1" r="31.9"/>
	<circle fill="#FFFFFF" cx="85" cy="402.1" r="31.9"/>
	<g>
		<path fill="#FFFFFF" d="M498.1,404.3H369.3c-7.7,0-13.9-6.2-13.9-13.9V91.8c0-7.7,6.2-13.9,13.9-13.9c7.7,0,13.9,6.2,13.9,13.9
			v284.6h114.9c7.7,0,13.9,6.2,13.9,13.9C512,398.1,505.8,404.3,498.1,404.3z"/>
	</g>
	<path fill="#FFFFFF" d="M316.8,284.6c-28.8-47-104.4-173-105.2-174.2c-3.9-6.4-10.9-10.5-18.4-10.5H70.8
		c-11.8,0-21.5,9.6-21.5,21.5v118.1H14.8C6.6,239.4,0,246,0,254.2V391c0,8.2,6.6,14.8,14.8,14.8h15.5c2,0,3.6-1.6,3.6-3.6
		c0-28.1,22.9-51,51-51s51,22.9,51,51c0,1,0.4,1.9,1.1,2.6c0.7,0.7,1.6,1.1,2.6,1.1h40.9c2,0,3.6-1.6,3.6-3.6c0-28.1,22.9-51,51-51
		s51,22.9,51,51c0,2,1.6,3.6,3.6,3.6H301c10.6,0,19.2-8.6,19.2-19.2v-92.3C320.3,290.5,318.5,287.3,316.8,284.6z M195.1,284.3v-19.9
		c0-3.4-2.8-6.2-6.2-6.2h-35.2v-58.7c0-3.4-2.8-6.2-6.2-6.2h-19.6c-3.4,0-6.2,2.8-6.2,6.2v84.9H92.2l0-141.5h88.9l84.6,141.5
		L195.1,284.3L195.1,284.3z"/>
	<g>
		<path fill="#FFFFFF" d="M512,348.1c0,3.7-3,6.6-6.6,6.6h-94.8c-3.7,0-6.6-3-6.6-6.6v-94.8c0-3.7,3-6.6,6.6-6.6h94.8
			c3.7,0,6.6,3,6.6,6.6V348.1z"/>
		<path fill="#FFFFFF" d="M512,212.9c0,3.7-3,6.6-6.6,6.6h-94.8c-3.7,0-6.6-3-6.6-6.6v-94.8c0-3.7,3-6.6,6.6-6.6h94.8
			c3.7,0,6.6,3,6.6,6.6V212.9z"/>
	</g>
</g>
</svg>
