<?xml version="1.0" encoding="utf-8"?>
<!-- Generator: Adobe Illustrator 17.1.0, SVG Export Plug-In . SVG Version: 6.00 Build 0)  -->
<!DOCTYPE svg PUBLIC "-//W3C//DTD SVG 1.1//EN" "http://www.w3.org/Graphics/SVG/1.1/DTD/svg11.dtd">
<svg version="1.1" id="Capa_1" xmlns="http://www.w3.org/2000/svg" xmlns:xlink="http://www.w3.org/1999/xlink" x="0px" y="0px"
	 viewBox="0 0 512 512" enable-background="new 0 0 512 512" xml:space="preserve">
<g>
	<g>
		<g>
			<path fill="#FFFFFF" d="M213.4,100.9c9.3,0,16.9-7.6,16.9-16.9c0-14.2,11.5-25.7,25.7-25.7c14.2,0,25.7,11.5,25.7,25.7
				c0,14.2-11.5,25.7-25.7,25.7c-9.3,0-16.9,7.5-16.9,16.9V147c-10.4,2.1-20.5,6-29.5,12l-8.3,5.6c1.9,11.8,7.5,22.2,15.5,30.2
				l11.6-7.8c16.3-11,38.7-11,55,0l11.6,7.8c8-8,13.6-18.4,15.5-30.2l-8.3-5.6c-9-6-19.1-9.9-29.5-12v-6c24.6-7.3,42.6-30.1,42.6-57
				c0-32.8-26.7-59.5-59.5-59.5c-32.8,0-59.5,26.7-59.5,59.5C196.5,93.3,204.1,100.9,213.4,100.9z"/>
			<path fill="#FFFFFF" d="M500.5,200.7l-85.6-40.8c-6-2.8-12.5-4.3-19.1-4.3h-39.8c-5.7,0-10.5,4.3-11.1,10
				c-5,44.6-42.8,79.4-88.7,79.4c-46,0-83.8-34.7-88.8-79.4c-0.6-5.7-5.4-10-11.1-10h-39.8c-6.6,0-13.2,1.5-19.1,4.3l-85.6,40.8
				C4.5,204.1,0,211.2,0,219v103c0,6.9,3.6,13.4,9.4,17.1c3.3,2.1,7,3.1,10.8,3.1c3,0,5.9-0.6,8.7-1.9l63.9-30.3
				c1.3-0.6,2.6-0.9,4-0.9c1.8,0,3.5,0.5,5,1.5c2.7,1.7,4.4,4.7,4.4,7.9v148.9c0,11.2,9.1,20.2,20.2,20.2h259.1
				c11.2,0,20.2-9.1,20.2-20.2V318.1c0-3.2,1.6-6.2,4.4-7.9c1.5-1,3.3-1.4,5-1.4c1.4,0,2.8,0.3,4,0.9l63.8,30.4c2.8,1.3,5.7,2,8.7,2
				c3.8,0,7.5-1.1,10.8-3.1c5.9-3.7,9.4-10.2,9.4-17.1V219C512,211.2,507.5,204.1,500.5,200.7z"/>
		</g>
	</g>
</g>
</svg>
