<?xml version="1.0" encoding="utf-8"?>
<!-- Generator: Adobe Illustrator 17.1.0, SVG Export Plug-In . SVG Version: 6.00 Build 0)  -->
<!DOCTYPE svg PUBLIC "-//W3C//DTD SVG 1.1//EN" "http://www.w3.org/Graphics/SVG/1.1/DTD/svg11.dtd">
<svg version="1.1" id="Capa_1" xmlns="http://www.w3.org/2000/svg" xmlns:xlink="http://www.w3.org/1999/xlink" x="0px" y="0px"
	 viewBox="0 0 512 512" enable-background="new 0 0 512 512" xml:space="preserve">
<g>
	<path fill="#FFFFFF" d="M281.5,412.9L267.9,80.5c0.5-1.3,1.3-2.9,2.3-3.8c1.9-1.8,4.1-2.3,4.1-2.3h14.2l2.7-9.1l-2-4.1h-0.6v-6.9
		h-18.6c1.1-2,2.1-4.8,1.4-7.5c-1.5-4.8-1.9-5.3-1.9-5.3s1.3-6.6-0.8-10.7c-2.1-4-3.4-6.8-3.4-6.8s1.8-3.1-1.1-7.7
		c-2.9-4.5-5.7-7.4-5.4-9.8c0.3-2.1-1.2-5.7-1.5-6.5h-2.6c-0.3,0.7-1.9,4.3-1.5,6.5c0.3,2.4-2.5,5.3-5.3,9.8
		c-2.9,4.6-1.2,7.7-1.2,7.7s-1.3,2.7-3.4,6.8c-2.1,4.1-0.8,10.7-0.8,10.7s-0.5,0.5-1.9,5.3c-0.8,2.6,0.2,5.4,1.3,7.5h-18.6v6.9h-0.7
		l-1.9,4.1l2.7,9.1h14.3c0,0,2.1,0.5,4.1,2.3c1,0.9,1.8,2.5,2.3,3.8l-13.5,332.4H113.1v17.5h18.6c8.3,3.3,22,9.3,32.6,16.8
		c11.6,8.3,28,27,36.2,36.9h-36.8V512h184.5v-27.9h-36.8c8.2-9.8,24.5-28.6,36.3-36.9c10.6-7.5,24.3-13.6,32.6-16.8h18.6v-17.5
		L281.5,412.9L281.5,412.9z M247.4,43c1.7-2.8,0.4-3.8,1.4-8.4c1.1-4.6,2.1-8,3.5-10.5c1.4-2.5,3.1-6.6,3.1-6.6s-2.4,20.3-2.4,23
		c0,2.7,1.3,11.9,1.3,11.9l-4.9-0.3C249.5,52.1,245.7,45.9,247.4,43z M391.1,423H118.5v-5.5h272.6V423z"/>
</g>
</svg>
