<?xml version="1.0" encoding="utf-8"?>
<!-- Generator: Adobe Illustrator 17.1.0, SVG Export Plug-In . SVG Version: 6.00 Build 0)  -->
<!DOCTYPE svg PUBLIC "-//W3C//DTD SVG 1.1//EN" "http://www.w3.org/Graphics/SVG/1.1/DTD/svg11.dtd">
<svg version="1.1" id="Capa_1" xmlns="http://www.w3.org/2000/svg" xmlns:xlink="http://www.w3.org/1999/xlink" x="0px" y="0px"
	 viewBox="0 0 512 512" enable-background="new 0 0 512 512" xml:space="preserve">
<path fill="#FFFFFF" d="M512,312.4l-71-117.4h-63.7c0-0.2,0-0.3,0-0.4v-12.6h64.1v-27.8c0-58.8-47.8-106.6-106.6-106.6H177.2
	c-58.8,0-106.6,47.8-106.6,106.6v27.8h64.1v12.6c0,0.2,0,0.3,0,0.4H71L0,312.4h0.3v15.8v21.1v33.8v61.6v19.8H23v-19.8v-22.3
	c6.7,3.9,14.5,6.2,22.7,6.2h420.5c8.3,0,16.1-2.3,22.8-6.2v22.3v19.8h22.7v-19.8v-61.6v-33.8v-21.1v-15.8L512,312.4L512,312.4z
	 M157.5,142.6c0-1.6,1.3-2.8,2.8-2.8h187.4c3.8,0,6.9,3.1,6.9,6.9v47.9c0,3.8-3.1,6.9-6.9,6.9H164.3c-3.8,0-6.9-3.1-6.9-6.9V142.6z
	 M481.1,328.2H30.9c-4.4,0-7.9-3.5-7.9-7.9l0,0c0-4.4,3.5-7.9,7.9-7.9h450.2c4.4,0,7.9,3.5,7.9,7.9l0,0
	C489,324.7,485.5,328.2,481.1,328.2z"/>
</svg>
