<?xml version="1.0" encoding="utf-8"?>
<!-- Generator: Adobe Illustrator 17.1.0, SVG Export Plug-In . SVG Version: 6.00 Build 0)  -->
<!DOCTYPE svg PUBLIC "-//W3C//DTD SVG 1.1//EN" "http://www.w3.org/Graphics/SVG/1.1/DTD/svg11.dtd">
<svg version="1.1" id="Layer_1" xmlns="http://www.w3.org/2000/svg" xmlns:xlink="http://www.w3.org/1999/xlink" x="0px" y="0px"
	 viewBox="0 0 512 512" enable-background="new 0 0 512 512" xml:space="preserve">
<g>
	<g>
		<path fill="#FFFFFF" d="M256,0C114.6,0,0,114.6,0,256s114.6,256,256,256s256-114.6,256-256S397.4,0,256,0z M253.9,372.9
			c-22,0-39.8-18.9-39.8-42.3h79.7C293.7,353.9,275.9,372.9,253.9,372.9z M290.8,308.4h-73.9c-2-21.8-53.7-40.7-53.7-95.1
			c0-58,43.4-88.8,90.7-90h0c0,0,0,0,0,0c47.3,1.2,90.7,31.9,90.7,90C344.6,267.6,292.8,286.6,290.8,308.4z"/>
	</g>
</g>
</svg>
