<?xml version="1.0" encoding="utf-8"?>
<!-- Generator: Adobe Illustrator 17.1.0, SVG Export Plug-In . SVG Version: 6.00 Build 0)  -->
<!DOCTYPE svg PUBLIC "-//W3C//DTD SVG 1.1//EN" "http://www.w3.org/Graphics/SVG/1.1/DTD/svg11.dtd">
<svg version="1.1" id="Capa_1" xmlns="http://www.w3.org/2000/svg" xmlns:xlink="http://www.w3.org/1999/xlink" x="0px" y="0px"
	 viewBox="0 0 512 512" enable-background="new 0 0 512 512" xml:space="preserve">
<path id="bottle" fill="#FFFFFF" d="M367.5,425.7l-26.2-170c-3.6-23.5,1.2-47.6,13.4-67.8c8.3-13.6,12.7-29,12.7-44.5
	c0-36.7-24.6-70.5-62.7-86.5V22.7C304.7,10.2,294.5,0,282,0h-52c-12.5,0-22.7,10.2-22.7,22.7v34.1c-38.2,16-62.7,49.8-62.7,86.5
	c0,15.5,4.4,30.9,12.6,44.6c12.3,20.2,17.1,44.3,13.5,67.8l-26.2,170.1c-3.3,21.6,2.9,43.6,17.2,60.2c14.2,16.6,35,26.1,56.9,26.1
	h75c21.9,0,42.6-9.5,56.9-26.1C364.6,469.3,370.9,447.3,367.5,425.7z M218.9,79.9c8.7-3.4,14.3-11.7,14.3-21.1V47.7h45.7v11.2
	c0,9.3,5.6,17.6,14.3,21.1c29.4,11.7,48.5,36.6,48.5,63.3c0,0.1,0,0.1,0,0.2H170.4c0-0.1,0-0.1,0-0.2
	C170.4,116.5,189.4,91.7,218.9,79.9z"/>
</svg>
