<?xml version="1.0" encoding="utf-8"?>
<!-- Generator: Adobe Illustrator 17.1.0, SVG Export Plug-In . SVG Version: 6.00 Build 0)  -->
<!DOCTYPE svg PUBLIC "-//W3C//DTD SVG 1.1//EN" "http://www.w3.org/Graphics/SVG/1.1/DTD/svg11.dtd">
<svg version="1.1" id="Capa_1" xmlns="http://www.w3.org/2000/svg" xmlns:xlink="http://www.w3.org/1999/xlink" x="0px" y="0px"
	 viewBox="0 0 512 512" enable-background="new 0 0 512 512" xml:space="preserve">
<path fill="#FFFFFF" d="M476.8,55.7c0-30.7-25-55.7-55.7-55.7c-30.7,0-55.7,25-55.7,55.7c0,26.2,18.2,48.2,42.7,54.1v263.3
	c0,62.3-50.7,113-113,113s-113-50.7-113-113v-19.5c67.8-6.5,121-63.8,121-133.3V111.6c0-41.1-27.9-75.8-65.7-86.2V13
	c0-7.2-5.8-13-13-13h-16.3c-7.2,0-13,5.8-13,13v44.4c0,7.2,5.8,13,13,13h16.3c7.2,0,13-5.8,13-13v-4.6c23.3,9.4,39.8,32.3,39.8,58.9
	v89.5c-5.8,12.9-39.7,81.5-108,81.5c-68,0-102.2-68.6-108-81.5v-89.5c0-29.6,20.3-54.5,47.7-61.5v7.3c0,7.2,5.8,13,13,13h16.3
	c7.2,0,13-5.8,13-13V13c0-7.2-5.8-13-13-13h-16.3c-7.2,0-13,5.8-13,13v10.7c-41.8,7.5-73.6,44.1-73.6,88v108.7
	c0,69.5,53.2,126.7,121,133.3v19.5c0,76.6,62.3,138.9,138.9,138.9s138.9-62.3,138.9-138.9V109.7C458.5,103.9,476.8,81.9,476.8,55.7z
	 M68.9,260.3c21.5,24.4,54.3,48.2,100.3,48.2s78.8-23.8,100.3-48.2c-15.9,39.8-54.9,68-100.3,68S84.8,300.1,68.9,260.3z"/>
</svg>
