<?xml version="1.0" encoding="utf-8"?>
<!-- Generator: Adobe Illustrator 17.1.0, SVG Export Plug-In . SVG Version: 6.00 Build 0)  -->
<!DOCTYPE svg PUBLIC "-//W3C//DTD SVG 1.1//EN" "http://www.w3.org/Graphics/SVG/1.1/DTD/svg11.dtd">
<svg version="1.1" id="Capa_1" xmlns="http://www.w3.org/2000/svg" xmlns:xlink="http://www.w3.org/1999/xlink" x="0px" y="0px"
	 viewBox="0 0 512 512" enable-background="new 0 0 512 512" xml:space="preserve">
<g>
	<g>
		<path fill="#FFFFFF" d="M271.4,239.3c-57.1,12.5-85.6-14.1-87.1-15.5c-7.2-7.2-18.9-7.3-26.2-0.1c-7.3,7.2-7.4,19-0.3,26.3
			c1.4,1.5,30,29.8,84.3,29.8c11.3,0,23.7-1.2,37.2-4.2c10-2.2,16.4-12.1,14.2-22.1C291.4,243.4,281.5,237.1,271.4,239.3z"/>
		<circle fill="#FFFFFF" cx="102.8" cy="190.8" r="41.8"/>
		<path fill="#FFFFFF" d="M489.5,362.1l-78.3-31.6c-2.7-1.1-5.6-1.7-8.5-1.7h-20v-4.3c0-2.2-0.6-4.3-1.5-6.1l73.8,20.1
			c2,0.5,3.9,0.8,5.8,0.8c9.7,0,18.7-6.5,21.3-16.3c3.2-11.8-3.7-24-15.5-27.2l-97.3-26.6c-1.9-0.5-3.8-0.8-5.9-0.8l-66.3,0.3
			c-3.1,7.3-9.5,13-17.8,14.9c-10.9,2.4-22.1,3.6-33.1,3.6c-53.8,0-90.5-28.8-92-30c-5.3-4.2-8.6-10.2-9.4-16.9
			c-0.8-6.7,1.1-13.3,5.4-18.6c4.8-6.1,12-9.5,19.8-9.5c5.7,0,11.2,1.9,15.7,5.4c0.7,0.6,15.1,11.6,38,16.6l-40.8-26.3
			c-14.4-9.3-32.2-2.9-42.7,7c0,0-3.5,3-5.9,7c-2.3,3.8-4.2,8.6-4.2,8.6l-0.1,0.1c-4.7,13.7-3.2,32.5,11.2,41.8l77.6,50
			c0.9,0.6,1.9,1.1,2.8,1.6c0,0.1,0,0.3,0,0.4v4.3h-22.1L96.3,257.2c0.5-0.6,1-1.2,1.4-1.8c3.8-6.1,2-14-4.1-17.8l-35.1-22
			c-5.9-3.7-13.6-2-17.5,3.7c-9.9-4.9-22.2-2-28.7,7.4c-7.2,10.3-4.6,24.5,5.7,31.7l161.4,112c3.8,2.7,8.3,4.1,13,4.1h30.1
			c1.9,5.2,6.9,8.9,12.7,8.9h28.6v106.9h-13.9c-6,0-10.9,4.9-10.9,10.9c0,6,4.9,10.9,10.9,10.9h105.9c6,0,10.9-4.9,10.9-10.9
			c0-6-4.9-10.9-10.9-10.9h-15.2V383.2h28.6c5.8,0,10.8-3.7,12.7-8.9h16.4l74.2,30c2.8,1.1,5.7,1.7,8.5,1.7c9,0,17.6-5.4,21.1-14.3
			C506.8,380.1,501.2,366.8,489.5,362.1z"/>
		<path fill="#FFFFFF" d="M177.4,181.4c0,9.8,7.9,17.7,17.7,17.7c41.4,0,64.4-11.1,79.3-24.2v28.7c-1.3,5.8-3.8,16.5-6.7,29.3
			c1.1-0.2,2.2-0.4,3.3-0.6c1.8-0.4,3.6-0.6,5.4-0.6c11.8,0,22.2,8.4,24.8,19.9c0.7,3.4,0.8,6.8,0.2,10l63.1-0.3
			c2.8,0,5.2,0.3,7.8,1l9.2,2.5c-5.3-25.6-11.2-50.9-13.7-61.1v-34.1c6.8,14.1,11,34.3,10.6,65.3c-0.1,9.8,7.7,17.8,17.5,18
			c0.1,0,0.2,0,0.3,0c9.7,0,17.6-7.8,17.7-17.5c1.2-84.2-43.1-129.4-81.6-138.7c0,0-0.1,0-0.1,0l-11,11.6l-11.4-11.4
			c-6.3,1.6-29.8,12-44.5,34.9c-12.7,17.1-23.6,32-70.2,32C185.4,163.7,177.4,171.6,177.4,181.4z"/>
		<path fill="#FFFFFF" d="M321.8,93.3c23.6,0,42.8-19.1,42.8-42.8c0-9.9-3.4-18.9-9.1-26.1h-13.8v-6.5h7.6c-2.7-2.2-5.6-4.2-8.7-5.7
			C337.4,5,330.2,0,321.9,0c-8.3,0-15.5,5-18.7,12.1c-3.2,1.5-6.1,3.5-8.7,5.8h8.7v6.5h-14.9c-5.6,7.2-9.1,16.2-9.1,26.1
			C279.1,74.1,298.2,93.3,321.8,93.3z M321.9,9c6.4,0,11.6,5.2,11.6,11.6s-5.2,11.6-11.6,11.6c-6.4,0-11.6-5.2-11.6-11.6
			S315.5,9,321.9,9z"/>
		<path fill="#FFFFFF" d="M201.4,120.9h-11.6V23.2H39v97.7H28.5v22.5h172.9V120.9z M177.2,35.8v43.4l-41.2,0c-1,0-1.8,0.6-2.1,1.6
			l-6,20.5l-6-20.5c-0.3-0.9-1.1-1.6-2.1-1.6h-8.2L99.6,43.5c-0.6-1.8-3.5-1.8-4.1,0L83.6,79.2h-32V35.8H177.2z M51.6,116.7V83.5
			h33.5c0.9,0,1.8-0.6,2.1-1.5l10.4-31l10.4,31c0.3,0.9,1.1,1.5,2.1,1.5h8.1l7.7,26c0.3,0.9,1.1,1.6,2.1,1.6c1,0,1.8-0.6,2.1-1.6
			l7.7-26l39.6,0v33.2L51.6,116.7L51.6,116.7z"/>
	</g>
</g>
</svg>
