<?xml version="1.0" encoding="utf-8"?>
<!-- Generator: Adobe Illustrator 17.1.0, SVG Export Plug-In . SVG Version: 6.00 Build 0)  -->
<!DOCTYPE svg PUBLIC "-//W3C//DTD SVG 1.1//EN" "http://www.w3.org/Graphics/SVG/1.1/DTD/svg11.dtd">
<svg version="1.1" id="Capa_1" xmlns="http://www.w3.org/2000/svg" xmlns:xlink="http://www.w3.org/1999/xlink" x="0px" y="0px"
	 viewBox="0 0 30.6 30.6" enable-background="new 0 0 30.6 30.6" xml:space="preserve">
<g>
	<g>
		<path fill="#FFFFFF" d="M0,28.7h30.6v-7.7C9.9,19.4,0,28.7,0,28.7z"/>
		<path fill="#FFFFFF" d="M23.1,15.8v-4.9c0.9,0.1,1.7,0.8,1.7-1.5c0-2.5-2-7.6-2-7.6s-2,5.1-2,7.6c0,2.3,0.8,1.6,1.7,1.5v5
			c-1.3,0.1-2.5,0.3-3.7,0.5v-6.1l0.1,0.1c0.1,0.1,0.2,0.1,0.4,0.1c0.2,0,0.4-0.1,0.5-0.2c0.2-0.3,0.1-0.7-0.1-0.9l-1.5-1.1
			c0,0,0,0,0-0.1v-1c0-0.3-0.3-0.6-0.6-0.6c-0.3,0-0.6,0.3-0.6,0.6v0.2l-1.4-1.1c-0.2-0.2-0.5-0.2-0.7,0l-4.1,3.1
			c-0.3,0.2-0.3,0.6-0.1,0.9c0.2,0.3,0.6,0.3,0.9,0.1l0.1-0.1v3.6C6.1,10.9,0,11.8,0,11.8v3.4c0,0,8.2-1.8,15.7,1.6
			c-0.9-0.9-2-1.7-3-2.3V9.6l2.6-1.9l2.6,1.9v7C11.3,18,5.7,20.8,3,22.6c6.1-1.8,17.4-5.7,27.6-3.3V16
			C28.1,15.7,25.6,15.6,23.1,15.8z"/>
	</g>
</g>
</svg>
