<?xml version="1.0" encoding="utf-8"?>
<!-- Generator: Adobe Illustrator 17.1.0, SVG Export Plug-In . SVG Version: 6.00 Build 0)  -->
<!DOCTYPE svg PUBLIC "-//W3C//DTD SVG 1.1//EN" "http://www.w3.org/Graphics/SVG/1.1/DTD/svg11.dtd">
<svg version="1.1" id="Capa_1" xmlns="http://www.w3.org/2000/svg" xmlns:xlink="http://www.w3.org/1999/xlink" x="0px" y="0px"
	 viewBox="0 0 31.2 31.2" enable-background="new 0 0 31.2 31.2" xml:space="preserve">
<g>
	<g>
		<path fill="#FFFFFF" d="M12.4,13.8H9.7c-0.3,0-0.6,0-0.9,0c0.3,1.8,1.6,6.4,7.4,6.5c0.1,0,0.2,0,0.3,0c1,0,5.8-0.4,7-6.3
			c-0.6-0.1-1.3-0.2-2-0.2h-2.8c2.3-1.2,3.8-3.5,3.8-6.2c0-0.2,0-0.5,0-0.7h-3.9c0.6-0.6,1-1.4,1.1-2.2h2.3
			c-0.7-1.5-1.9-2.7-3.4-3.4C17.8,0.5,16.7,0,15.6,0c-1.1,0-2.1,0.4-2.8,1.1c-1.6,0.7-2.9,1.9-3.6,3.5h2.4c0.1,0.9,0.5,1.6,1.1,2.2
			H8.6c0,0.2,0,0.4,0,0.7C8.6,10.3,10.1,12.6,12.4,13.8z M15.6,1.1c1.6,0,2.9,1.3,2.9,2.9c0,1.6-1.3,2.9-2.9,2.9
			c-1.6,0-2.9-1.3-2.9-2.9C12.7,2.4,14,1.1,15.6,1.1z"/>
		<path fill="#FFFFFF" d="M28,20.2c0,0,0.2-4.2-3.3-5.8c-1.4,6.9-7.4,7.3-8.2,7.3c0,0.1,0,0.1,0,0.2c0,0.5,0.4,1.1,1.2,1.8
			c1.4,1.1,1.6,2.8,0.7,4.2c-0.7,1.1-2.1,1.9-3.9,1.9c-0.8,0-1.7-0.2-2.7-0.6c-0.3,0.3-0.7,0.5-1.2,0.5C9.7,29.7,9,29,9,28.1
			c0-0.9,0.7-1.6,1.6-1.6c0.9,0,1.5,0.7,1.6,1.5c2.3,1,4.3,0.4,5.2-0.9c0.6-0.9,0.4-2-0.5-2.7c-1.1-0.9-1.6-1.8-1.6-2.7
			c0-0.1,0-0.1,0-0.2C9.4,21.1,8,15.9,7.7,14c-4.5,1.1-4.5,5.8-4.5,6.2l0,11H28L28,20.2z"/>
		<circle fill="#FFFFFF" cx="15.6" cy="4.1" r="1.4"/>
	</g>
</g>
</svg>
