<?xml version="1.0" encoding="utf-8"?>
<!-- Generator: Adobe Illustrator 17.1.0, SVG Export Plug-In . SVG Version: 6.00 Build 0)  -->
<!DOCTYPE svg PUBLIC "-//W3C//DTD SVG 1.1//EN" "http://www.w3.org/Graphics/SVG/1.1/DTD/svg11.dtd">
<svg version="1.1" id="Capa_1" xmlns="http://www.w3.org/2000/svg" xmlns:xlink="http://www.w3.org/1999/xlink" x="0px" y="0px"
	 viewBox="0 0 512 512" enable-background="new 0 0 512 512" xml:space="preserve">
<g>
	<g id="Layer_5_28_">
		<g>
			<path fill="#FFFFFF" d="M431.9,167.1l-70.7-33.7c-1.5-0.7-3.4-1.6-3.4-5.4c0,0,0-27.3,0-36.4c0-3.7,4.4-3.9,4.4-3.9
				c24.2,0,40.7-19.7,40.7-43.8S383.2,0,359.1,0H152.9c-24.2,0-43.8,19.7-43.8,43.8s16.4,43.8,40.5,43.8c0,0,4.6-0.1,4.6,4.1
				c0,9.1,0,36.2,0,36.2c0,4.1-1.9,4.7-3.4,5.4l-70.7,33.7c-8.7,4.1-15.2,7.5-15.2,24.1v277.7c0,15.4,18.9,25.7,61.4,33.4
				c34.7,6.3,80.8,9.8,129.7,9.8s95-3.5,129.7-9.8c42.5-7.7,61.4-18,61.4-33.4v-65V235.9v-44.7C447.1,173.6,440.6,171.2,431.9,167.1
				z M417.6,235.9c-64.7,0-258.8,0-258.8,0c-14.6,0-26.5,11.9-26.5,26.5v114.9c0,14.6,11.9,26.5,26.5,26.5c0,0,190.1,0,253.5,0
				c14.4,0,14.2,9.8,14.2,9.8v54c-2,1.9-11.9,9.2-52,15.6c-32.6,5.3-74.7,8.2-118.5,8.2s-85.9-2.9-118.5-8.2
				c-40-6.5-50-13.8-52-15.6V191.2c0-3.8,1.9-4.7,3.4-5.4l70.7-33.7c8.7-4.1,15.2-5,15.2-24.1c0,0,0-26.2,0-35
				c0-5.5,5.2-5.4,5.2-5.4h152.2c0,0,4.8-0.3,4.8,5.4c0,8.7,0,35,0,35c0,19.5,6.5,20,15.2,24.1l70.7,33.7c1.5,0.7,3.4,1.6,3.4,5.4
				v37C426.5,228.1,427.9,235.9,417.6,235.9z M233.7,338.1h-21.3c-10.1,0-18.4-8.2-18.4-18.4c0-10.1,8.2-18.4,18.4-18.4h20.7
				c0,0,4.6,0.2,4.6-4.2c0-5.3,0-21,0-21c0-10.1,8.2-18.4,18.4-18.4s18.4,8.2,18.4,18.4c0,0,0,16.9,0,22.5c0,3,3.9,2.8,3.9,2.8h21.4
				c10.1,0,18.4,8.2,18.4,18.4c0,10.1-8.2,18.4-18.4,18.4H279c0,0-4.6,0.1-4.6,3.7c0,5.4,0,21.6,0,21.6c0,10.1-8.2,18.4-18.4,18.4
				c-10.1,0-18.4-8.2-18.4-18.4c0,0,0-16,0-21.3C237.6,337.8,233.7,338.1,233.7,338.1z"/>
		</g>
	</g>
</g>
</svg>
