<?xml version="1.0" encoding="utf-8"?>
<!-- Generator: Adobe Illustrator 17.1.0, SVG Export Plug-In . SVG Version: 6.00 Build 0)  -->
<!DOCTYPE svg PUBLIC "-//W3C//DTD SVG 1.1//EN" "http://www.w3.org/Graphics/SVG/1.1/DTD/svg11.dtd">
<svg version="1.1" id="Capa_1" xmlns="http://www.w3.org/2000/svg" xmlns:xlink="http://www.w3.org/1999/xlink" x="0px" y="0px"
	 viewBox="0 0 512 512" enable-background="new 0 0 512 512" xml:space="preserve">
<g>
	<g>
		<path fill="#FFFFFF" d="M339.3,313.5v82.7h94.6V319v-5.4V151.3C433.9,90.5,386.6,0,256,0C121.6,0,78.1,102,78.1,151.3v162.2v5.4
			v77.3h94.5V319h0.1V151.4c0-0.6,3.8-56.8,83.3-56.8c82.4,0,83.3,54.4,83.3,56.8L339.3,313.5L339.3,313.5L339.3,313.5z
			 M156.3,379.9H94.4v-50.1h61.9V379.9z M355.6,329.8h62v50.1h-62L355.6,329.8L355.6,329.8z"/>
		<polygon fill="#FFFFFF" points="135.2,418.6 115.2,418.6 115.2,455.3 78.5,455.3 78.5,475.3 115.2,475.3 115.2,512 135.2,512 
			135.2,475.3 171.9,475.3 171.9,455.3 135.2,455.3 		"/>
		<rect x="340.5" y="455.3" fill="#FFFFFF" width="93.4" height="19.9"/>
	</g>
</g>
</svg>
