<?xml version="1.0" encoding="utf-8"?>
<!-- Generator: Adobe Illustrator 17.1.0, SVG Export Plug-In . SVG Version: 6.00 Build 0)  -->
<!DOCTYPE svg PUBLIC "-//W3C//DTD SVG 1.1//EN" "http://www.w3.org/Graphics/SVG/1.1/DTD/svg11.dtd">
<svg version="1.1" id="Capa_1" xmlns="http://www.w3.org/2000/svg" xmlns:xlink="http://www.w3.org/1999/xlink" x="0px" y="0px"
	 viewBox="0 0 512 512" enable-background="new 0 0 512 512" xml:space="preserve">
<g>
	<path fill="#FFFFFF" d="M471.8,0H40.2c-2.3,0-4.1,1.8-4.1,4.1v503.8c0,2.3,1.8,4.1,4.1,4.1h26.3c2.3,0,4.1-1.8,4.1-4.1v-40.6h370.6
		v40.6c0,2.3,1.8,4.1,4.1,4.1h26.3c2.3,0,4.1-1.8,4.1-4.1V4.1C475.9,1.8,474,0,471.8,0z M70.7,171h370.6v120.2H70.7V171z
		 M441.3,34.6V143H70.7V34.6H441.3z M70.7,439.3V319.2h370.6v120.2H70.7z"/>
	<path fill="#FFFFFF" d="M102.1,125.9h20.6c3.2,0,5.8-2.6,5.8-5.8V51c0-3.2-2.6-5.8-5.8-5.8h-20.6c-3.2,0-5.8,2.6-5.8,5.8v69.1
		C96.3,123.4,98.9,125.9,102.1,125.9z"/>
	<path fill="#FFFFFF" d="M151.3,125.9h20.6c3.2,0,5.8-2.6,5.8-5.8V51c0-3.2-2.6-5.8-5.8-5.8h-20.6c-3.2,0-5.8,2.6-5.8,5.8v69.1
		C145.5,123.4,148.1,125.9,151.3,125.9z"/>
	<path fill="#FFFFFF" d="M122.6,335h-20.6c-3.2,0-5.8,2.6-5.8,5.8v69.1c0,3.2,2.6,5.8,5.8,5.8h20.6c3.2,0,5.8-2.6,5.8-5.8v-69.1
		C128.4,337.6,125.8,335,122.6,335z"/>
	<path fill="#FFFFFF" d="M171.9,335h-20.6c-3.2,0-5.8,2.6-5.8,5.8v69.1c0,3.2,2.6,5.8,5.8,5.8h20.6c3.2,0,5.8-2.6,5.8-5.8v-69.1
		C177.7,337.6,175.1,335,171.9,335z"/>
	<path fill="#FFFFFF" d="M421.5,383.6h-69.1c-3.2,0-5.8,2.6-5.8,5.8v20.6c0,3.2,2.6,5.8,5.8,5.8h69.1c3.2,0,5.8-2.6,5.8-5.8v-20.6
		C427.2,386.2,424.6,383.6,421.5,383.6z"/>
	<path fill="#FFFFFF" d="M421.5,342.9h-69.1c-3.2,0-5.8,2.6-5.8,5.8v20.6c0,3.2,2.6,5.8,5.8,5.8h69.1c3.2,0,5.8-2.6,5.8-5.8v-20.6
		C427.2,345.4,424.6,342.9,421.5,342.9z"/>
	<path fill="#FFFFFF" d="M293.9,193.7h-20.6c-3.2,0-5.8,2.6-5.8,5.8v69.1c0,3.2,2.6,5.8,5.8,5.8h20.6c3.2,0,5.8-2.6,5.8-5.8v-69.1
		C299.6,196.2,297,193.7,293.9,193.7z"/>
	<path fill="#FFFFFF" d="M377.5,248.2l-47.3-50.4c-2.2-2.3-5.8-2.4-8.1-0.3l-15,14.1c-1.1,1-1.8,2.5-1.8,4c0,1.5,0.5,3,1.6,4.1
		l47.3,50.4c1.1,1.2,2.7,1.8,4.2,1.8c1.4,0,2.8-0.5,3.9-1.6l15-14.1c1.1-1,1.8-2.5,1.8-4C379.1,250.8,378.6,249.3,377.5,248.2z"/>
	<path fill="#FFFFFF" d="M192.5,193.7h-20.6c-3.2,0-5.8,2.6-5.8,5.8v69.1c0,3.2,2.6,5.8,5.8,5.8h20.6c3.2,0,5.8-2.6,5.8-5.8v-69.1
		C198.2,196.2,195.7,193.7,192.5,193.7z"/>
	<path fill="#FFFFFF" d="M241.7,193.7h-20.6c-3.2,0-5.8,2.6-5.8,5.8v69.1c0,3.2,2.6,5.8,5.8,5.8h20.6c3.2,0,5.8-2.6,5.8-5.8v-69.1
		C247.5,196.2,244.9,193.7,241.7,193.7z"/>
</g>
</svg>
