<?xml version="1.0" encoding="utf-8"?>
<!-- Generator: Adobe Illustrator 17.1.0, SVG Export Plug-In . SVG Version: 6.00 Build 0)  -->
<!DOCTYPE svg PUBLIC "-//W3C//DTD SVG 1.1//EN" "http://www.w3.org/Graphics/SVG/1.1/DTD/svg11.dtd">
<svg version="1.1" id="Capa_1" xmlns="http://www.w3.org/2000/svg" xmlns:xlink="http://www.w3.org/1999/xlink" x="0px" y="0px"
	 viewBox="0 0 512 512" enable-background="new 0 0 512 512" xml:space="preserve">
<path fill="#FFFFFF" d="M463.4,83.9c0-2.2-1.4-4.3-3.5-5.1L258,0.4c-1.3-0.5-2.7-0.5-4,0l0,0L52.1,78.7c-2.2,0.8-3.5,2.9-3.5,5.1h0
	c0,0,0,0,0,0c0,0,0,0,0,0c0.1,25.6,27.6,46.4,61.4,46.4c25.8,0,47.9-12.1,56.9-29.2c12.3,15.3,40.6,26.4,75.4,28.8v159.7H98
	c-2.1,0-4.1,1.2-5,3.2c-0.9,2-0.6,4.2,0.8,5.9l13.8,16.2l2.5,19.2c0.4,2.7,2.7,4.8,5.5,4.8h34.7l83.7,89.2l-70,74.6
	c-1.5,1.6-1.9,3.9-1,6c0.9,2,2.9,3.3,5.1,3.3h28.8c1.5,0,3-0.6,4-1.7l55.1-58.7l55.1,58.7c1,1.1,2.5,1.7,4,1.7H344c0,0,0,0,0,0
	c3,0,5.5-2.5,5.5-5.5c0-1.6-0.7-3.1-1.8-4.1L278,428.1l83.7-89.2h34.7c2.8,0,5.1-2.1,5.5-4.8l2.5-19.2l13.8-16.2
	c1.4-1.6,1.7-3.9,0.8-5.9c-0.9-1.9-2.9-3.2-5-3.2H269.7V129.9c34.9-2.3,63.2-13.5,75.4-28.9c9,17.2,31.2,29.3,57,29.3
	C435.9,130.4,463.4,109.5,463.4,83.9C463.4,83.9,463.4,83.9,463.4,83.9C463.4,83.9,463.4,83.9,463.4,83.9L463.4,83.9L463.4,83.9z
	 M256,12.8l75.5,65.6H256h-75.5L256,12.8z M109.9,119.3c-25.1,0-45.9-13-49.7-29.9h99.4C155.9,106.3,135,119.3,109.9,119.3z
	 M163.7,78.4H83.5l144.9-56.3L163.7,78.4z M194.5,501h-13.7l60.8-64.8l6.9,7.3L194.5,501z M331.2,501h-13.7l-152.1-162h13.7
	L331.2,501z M194.3,338.9h123.5L256,404.7L194.3,338.9z M270.4,420.1l-6.9-7.3l69.3-73.8h13.7L270.4,420.1z M391.6,327.9H120.4
	l-1.3-9.8h273.8L391.6,327.9z M402.1,300.7l-5.4,6.4H115.4l-5.5-6.4H402.1z M253.4,289.6V130.3c0.9,0,1.7,0,2.6,0c0.9,0,1.8,0,2.7,0
	v159.3H253.4z M317.4,107.8c-16.3,7.4-38.1,11.5-61.4,11.5s-45.1-4.1-61.5-11.5c-11.6-5.3-19.2-11.8-22-18.4H256h83.4
	C336.6,96.1,328.9,102.6,317.4,107.8z M283.5,22.1l144.9,56.3h-80.1L283.5,22.1z M402.1,119.3c-25.1,0-45.9-13-49.7-29.9h99.4
	C448,106.3,427.1,119.3,402.1,119.3z"/>
</svg>
