<?xml version="1.0" encoding="utf-8"?>
<!-- Generator: Adobe Illustrator 17.1.0, SVG Export Plug-In . SVG Version: 6.00 Build 0)  -->
<!DOCTYPE svg PUBLIC "-//W3C//DTD SVG 1.1//EN" "http://www.w3.org/Graphics/SVG/1.1/DTD/svg11.dtd">
<svg version="1.1" id="Capa_1" xmlns="http://www.w3.org/2000/svg" xmlns:xlink="http://www.w3.org/1999/xlink" x="0px" y="0px"
	 viewBox="0 0 512 512" enable-background="new 0 0 512 512" xml:space="preserve">
<g>
	<g>
		<path fill="#FFFFFF" d="M150.7,305.9c0.3,2.6,1.7,4.9,3.8,6.4c1.6,1.2,3.5,1.8,5.5,1.8c0.6,0,1.2-0.1,1.8-0.2
			c32-6.1,62.8-9.1,94.2-9.1c31.3,0,62.1,3,94.2,9.1c2.6,0.5,5.2-0.1,7.3-1.7c2.1-1.5,3.5-3.9,3.8-6.5
			c12.1-103.4,36.3-274.8,36.6-276.6c0.7-4.7-2.2-9.1-6.8-10.4C346.1,6.3,300.7,0,256,0c-44.7,0-90.1,6.3-135.1,18.8
			c-4.5,1.3-7.4,5.7-6.8,10.3L150.7,305.9z"/>
		<path fill="#FFFFFF" d="M456.8,187.1h-39.5c-8.7,0-15.7,5.8-17.2,14c-2.4,13.8,10,19.1,18.3,22.6c0.6,0.3,1.2,0.5,1.8,0.8
			c1.6,59.5-24.4,90.3-41.3,104.1c-4.2-3.6-9.7-5.9-15.7-5.9H148.8c-6,0-11.5,2.2-15.7,5.8c-16.9-13.7-43-44.7-41.4-104
			c0.6-0.3,1.3-0.5,1.8-0.8c8.2-3.5,20.7-8.8,18.3-22.6c-1.4-8.3-8.5-14-17.2-14H55.2c-17.1,0-31.1,13.9-31.1,31.1v7.9
			c0,5.4,2.7,10.5,7.1,13.7c2.9,2,6.2,3,9.6,3c1.9,0,3.8-0.3,5.7-1c0.1,0,5-1.8,11.9-4.3c1.7,47.1,18.7,78.3,33.8,97
			c12.1,14.9,24.5,24.1,32.6,29.1v9.1c0,13.3,10.8,24,24,24h85.7v33c-31.6,1.3-63.3,5.5-95.4,12.6c-0.1,0-0.3,0.1-0.4,0.1
			c-19.2,4.6-30.6,19.2-30.6,38.9c0,11.9,9.6,21.5,21.5,21.5c11.1,0,20.2-8.3,21.4-19.1c28.1-6.1,55.8-9.7,83.5-10.9v17.7
			c0,11.9,9.6,21.5,21.5,21.5c11.9,0,21.5-9.6,21.5-21.5v-17.7c27.7,1.2,55.5,4.9,83.5,10.9c1.2,10.7,10.3,19.1,21.4,19.1
			c11.9,0,21.5-9.6,21.5-21.5c0-20-12.3-35.3-31.3-39.1c-32-7.1-63.6-11.2-95.1-12.5v-33h85.7c13.3,0,24-10.8,24-24v-9.1
			c8.1-5,20.5-14.2,32.6-29.1c15.1-18.7,32.1-50,33.8-97c6.8,2.5,11.8,4.3,11.9,4.3c1.8,0.7,3.8,1,5.7,1c3.4,0,6.8-1,9.6-3
			c4.5-3.1,7.1-8.2,7.1-13.7v-7.9C487.8,201,473.9,187.1,456.8,187.1z"/>
	</g>
</g>
</svg>
