<?xml version="1.0" encoding="utf-8"?>
<!-- Generator: Adobe Illustrator 17.1.0, SVG Export Plug-In . SVG Version: 6.00 Build 0)  -->
<!DOCTYPE svg PUBLIC "-//W3C//DTD SVG 1.1//EN" "http://www.w3.org/Graphics/SVG/1.1/DTD/svg11.dtd">
<svg version="1.1" id="Capa_1" xmlns="http://www.w3.org/2000/svg" xmlns:xlink="http://www.w3.org/1999/xlink" x="0px" y="0px"
	 viewBox="0 0 512 512" enable-background="new 0 0 512 512" xml:space="preserve">
<g>
	<g>
		<path fill="#FFFFFF" d="M82.4,437.4c45.5,0,82.4-36.9,82.4-82.4c0-2.9-0.1-5.7-0.4-8.5l33.2-5.8c0,0,1.1-1.5,9.3,6.7
			c3.5,3.5,8.3,3.9,12.6,3.4c7.7,2.6,25.2,7.6,45.4,7.6c15.7,0,32.9-3,48.3-12.6c23.5-14.7,37.4-41.3,41.6-79.1
			c10.4-11.4,21.1-20.3,31.7-27.3l9.1,27c-28.5,13-48.3,41.6-48.3,75c0,45.5,36.9,82.4,82.4,82.4c45.5,0,82.4-36.9,82.4-82.4
			c0-45.5-36.9-82.4-82.4-82.4c-6.2,0-12.2,0.7-18.1,2l-10.2-30.3c31.8-16.2,58-15.9,58-15.9l9.9,5.4l32.8,2.6
			C482.3,200,404.5,204,404.5,204l16.6-2.8c0,0-0.6-17.9-10.8-39.8c-10.2-22-21.4-34.8-21.4-34.8c-1,1.2-1.7,2.5-2.2,3.9
			c0.2-15.1,0.4-30.3,1.5-45.4c0-0.2-0.1-0.4-0.1-0.5c0.4-1.6-0.1-3.2-2-4.2c-6.1-3-12.1-5.5-19-5.8c-1.9-0.1-3.6,1.4-4.1,3.1
			c-2.2,7.9-2.7,16.1-1.8,24.2c-0.7-1.4-1.3-2.7-2.1-4.1c-1.1-2.1-3.1-2.4-4.8-1.7c-1.9-0.3-4.1,0.4-5,2.7
			c-1.4,3.8-4.4,6.3-4.5,10.7c-0.2,6.9,7.7,11.3,12.8,14.1c1,0.5,1.9,0.5,2.8,0.4c2.5,10.1,3.3,20.5,2.7,31.1
			c-15.4,10-9.5,19.1-9.5,19.1l-2.8,4.7c0,0-14.5-20.7-62,10.1s-84.9,11.2-116.2,0c-31.3-11.2-146.4-14-146.4-14
			c56.6,8.6,81.6,55.1,81.6,55.1l-44.7-27.6c-19.7,1.9-14.5,22.7-14.5,22.7l82.3,50.3c16-6,34.3,11.9,34.3,11.9l17.1,30.2l-23.5,6.7
			c-12.2-30.3-41.8-51.7-76.4-51.7C36.9,272.6,0,309.5,0,355S36.9,437.4,82.4,437.4z M429.6,284.3c31.5,0,57.1,25.6,57.1,57.1
			c0,31.5-25.6,57.1-57.1,57.1s-57.1-25.6-57.1-57.1c0-22.1,12.7-41.3,31.2-50.8l17.9,53.5c1.2,3.5,4.5,5.8,8,5.8
			c0.9,0,1.8-0.1,2.7-0.4c4.4-1.5,6.8-6.3,5.3-10.7l-18-53.5C422.9,284.7,426.2,284.3,429.6,284.3z M371.1,116.6c2.6-2,5-4,7.4-6
			c-0.3,12.5-0.4,24.9-0.7,37.4c-2.2,0.8-4.3,1.7-6.1,2.5c0.2-11.3-1.2-22.3-4.3-32.9C368.6,117.8,369.9,117.5,371.1,116.6z
			 M281.4,248.4c39.3-11.8,52.6,6,56.8,15.4c-3.5,32.9-14.8,55.7-33.8,67.6c-25,15.6-57.8,9.5-73.5,5.2
			C232.5,313.5,240.9,260.5,281.4,248.4z M82.4,297.9c23,0,42.9,13.7,51.9,33.4l-61.8,17.6l2.2,13.4l64.6-11.4
			c0.1,1.3,0.2,2.7,0.2,4c0,31.5-25.6,57.1-57.1,57.1c-31.5,0-57.1-25.6-57.1-57.1C25.3,323.5,50.9,297.9,82.4,297.9z"/>
		<path fill="#FFFFFF" d="M327.9,278.3h-74.3l-12.3,52.5C316.2,344.8,327.9,278.3,327.9,278.3z"/>
	</g>
</g>
</svg>
