<?xml version="1.0" encoding="utf-8"?>
<!-- Generator: Adobe Illustrator 17.1.0, SVG Export Plug-In . SVG Version: 6.00 Build 0)  -->
<!DOCTYPE svg PUBLIC "-//W3C//DTD SVG 1.1//EN" "http://www.w3.org/Graphics/SVG/1.1/DTD/svg11.dtd">
<svg version="1.1" id="Capa_1" xmlns="http://www.w3.org/2000/svg" xmlns:xlink="http://www.w3.org/1999/xlink" x="0px" y="0px"
	 viewBox="0 0 512 512" enable-background="new 0 0 512 512" xml:space="preserve">
<g>
	<g>
		<g>
			<path fill="#FFFFFF" d="M479.4,215.8c-18,0-32.6,14.6-32.6,32.6v9.6h-46.2l0.1-65.8c0-5.7-2.2-11.1-6.3-15.2
				c-4.1-4.1-9.5-6.3-15.2-6.3H198.6c-7.6,0-14.8,4.1-18.6,10.8L135.8,258h-9v-23c0-10.6-8.6-19.2-19.2-19.2
				c-10.6,0-19.2,8.6-19.2,19.2v23h-7.8v-23c0-10.6-8.6-19.2-19.2-19.2c-10.6,0-19.2,8.6-19.2,19.2v23H34c-18.7,0-34,15.2-34,34
				s15.2,34,34,34h8.3v31.8c0,10.6,8.6,19.2,19.2,19.2c10.6,0,19.2-8.6,19.2-19.2v-31.8h7.8v31.8c0,10.6,8.6,19.2,19.2,19.2
				c10.6,0,19.2-8.6,19.2-19.2v-31.8h3.9l49.3,85.4c3.9,6.6,11,10.8,18.6,10.8h120.3c7.7,0,14.8-4.1,18.6-10.8l49.3-85.4h59.9v26.5
				c0,18,14.6,32.6,32.6,32.6c18,0,32.6-14.6,32.6-32.6V248.4C512,230.4,497.4,215.8,479.4,215.8z M282,275.8l48.7,0.1l-135.8,94.6
				l-3.8-4.5l0.6-0.6l62.9-62.9h-49.2l106.2-80.2h38.1L282,275.8z"/>
		</g>
		<g>
			<path fill="#FFFFFF" d="M228.3,133h26.5v16.4c0,11.4,9.2,20.6,20.6,20.6c11.3,0,20.6-9.2,20.6-20.6V133h26.5
				c11.9,0,21.5-9.6,21.5-21.5c0-11.9-9.7-21.5-21.5-21.5h-94.2c-11.9,0-21.5,9.7-21.5,21.5C206.8,123.3,216.5,133,228.3,133z"/>
		</g>
	</g>
</g>
</svg>
