<?xml version="1.0" encoding="utf-8"?>
<!-- Generator: Adobe Illustrator 17.1.0, SVG Export Plug-In . SVG Version: 6.00 Build 0)  -->
<!DOCTYPE svg PUBLIC "-//W3C//DTD SVG 1.1//EN" "http://www.w3.org/Graphics/SVG/1.1/DTD/svg11.dtd">
<svg version="1.1" id="Capa_1" xmlns="http://www.w3.org/2000/svg" xmlns:xlink="http://www.w3.org/1999/xlink" x="0px" y="0px"
	 viewBox="0 0 46 46" enable-background="new 0 0 46 46" xml:space="preserve">
<g>
	<path fill="#FFFFFF" d="M38,7.8H14c-1,0-1.8,0.8-1.8,1.8v18.9l-6.1,6.7v9c0,1,0.8,1.8,1.8,1.8h15.6v-9.9c0-0.3,0.2-0.6,0.5-0.6h3.9
		c0.3,0,0.5,0.3,0.5,0.6V46H38c1,0,1.8-0.8,1.8-1.8V9.6C39.8,8.6,39,7.8,38,7.8z M21.5,40.3c0,0.3-0.2,0.5-0.5,0.5H17
		c-0.3,0-0.5-0.2-0.5-0.5v-3.9c0-0.3,0.2-0.5,0.5-0.5h3.9c0.3,0,0.5,0.2,0.5,0.5V40.3z M21.5,33.2c0,0.3-0.2,0.5-0.5,0.5H17
		c-0.3,0-0.5-0.2-0.5-0.5v-3.9c0-0.3,0.2-0.5,0.5-0.5h3.9c0.3,0,0.5,0.2,0.5,0.5V33.2z M21.5,26.1c0,0.3-0.2,0.5-0.5,0.5H17
		c-0.3,0-0.5-0.2-0.5-0.5v-3.9c0-0.3,0.2-0.5,0.5-0.5h3.9c0.3,0,0.5,0.2,0.5,0.5V26.1z M21.5,19c0,0.3-0.2,0.5-0.5,0.5H17
		c-0.3,0-0.5-0.2-0.5-0.5v-3.9c0-0.3,0.2-0.5,0.5-0.5h3.9c0.3,0,0.5,0.2,0.5,0.5V19z M28.5,33.2c0,0.3-0.2,0.5-0.5,0.5h-3.9
		c-0.3,0-0.5-0.2-0.5-0.5v-3.9c0-0.3,0.2-0.5,0.5-0.5H28c0.3,0,0.5,0.2,0.5,0.5V33.2z M28.5,26.1c0,0.3-0.2,0.5-0.5,0.5h-3.9
		c-0.3,0-0.5-0.2-0.5-0.5v-3.9c0-0.3,0.2-0.5,0.5-0.5H28c0.3,0,0.5,0.2,0.5,0.5V26.1z M28.5,19c0,0.3-0.2,0.5-0.5,0.5h-3.9
		c-0.3,0-0.5-0.2-0.5-0.5v-3.9c0-0.3,0.2-0.5,0.5-0.5H28c0.3,0,0.5,0.2,0.5,0.5V19z M35.6,40.3c0,0.3-0.2,0.5-0.5,0.5h-3.9
		c-0.3,0-0.5-0.2-0.5-0.5v-3.9c0-0.3,0.2-0.5,0.5-0.5H35c0.3,0,0.5,0.2,0.5,0.5V40.3z M35.6,33.2c0,0.3-0.2,0.5-0.5,0.5h-3.9
		c-0.3,0-0.5-0.2-0.5-0.5v-3.9c0-0.3,0.2-0.5,0.5-0.5H35c0.3,0,0.5,0.2,0.5,0.5V33.2z M35.6,26.1c0,0.3-0.2,0.5-0.5,0.5h-3.9
		c-0.3,0-0.5-0.2-0.5-0.5v-3.9c0-0.3,0.2-0.5,0.5-0.5H35c0.3,0,0.5,0.2,0.5,0.5V26.1z M35.6,19c0,0.3-0.2,0.5-0.5,0.5h-3.9
		c-0.3,0-0.5-0.2-0.5-0.5v-3.9c0-0.3,0.2-0.5,0.5-0.5H35c0.3,0,0.5,0.2,0.5,0.5V19z M17.8,5.5l1.4,1c0.1,0.1,0.3,0.1,0.5,0
		c0.1-0.1,0.2-0.3,0.1-0.5l-0.5-1.7c-0.1-0.2,0-0.4,0.1-0.5l1.4-1C21,2.8,21.1,2.7,21,2.5c-0.1-0.2-0.2-0.3-0.4-0.3l-1.7,0
		c-0.2,0-0.3-0.1-0.4-0.3l-0.5-1.7C17.9,0.1,17.7,0,17.5,0c-0.2,0-0.3,0.1-0.4,0.3l-0.5,1.7c-0.1,0.2-0.2,0.3-0.4,0.3l-1.7,0
		c-0.2,0-0.3,0.1-0.4,0.3c-0.1,0.2,0,0.4,0.2,0.5l1.4,1c0.1,0.1,0.2,0.3,0.2,0.5l-0.5,1.7c-0.1,0.2,0,0.4,0.2,0.5
		c0.1,0.1,0.3,0.1,0.5,0l1.4-1C17.5,5.4,17.7,5.4,17.8,5.5z M26.4,5.5l1.4,1c0.1,0.1,0.3,0.1,0.5,0c0.1-0.1,0.2-0.3,0.1-0.5
		l-0.5-1.7c-0.1-0.2,0-0.4,0.1-0.5l1.4-1c0.1-0.1,0.2-0.3,0.1-0.5c-0.1-0.2-0.2-0.3-0.4-0.3l-1.7,0c-0.2,0-0.3-0.1-0.4-0.3l-0.5-1.6
		C26.4,0.1,26.3,0,26.1,0c-0.2,0-0.3,0.1-0.4,0.3l-0.5,1.7c-0.1,0.2-0.2,0.3-0.4,0.3l-1.7,0c-0.2,0-0.3,0.1-0.4,0.3
		c-0.1,0.2,0,0.4,0.2,0.5l1.4,1c0.1,0.1,0.2,0.3,0.1,0.5l-0.5,1.7c-0.1,0.2,0,0.4,0.2,0.5c0.1,0.1,0.3,0.1,0.5,0l1.4-1
		C26,5.4,26.2,5.4,26.4,5.5z M34.8,5.5l1.4,1c0.1,0.1,0.3,0.1,0.5,0c0.1-0.1,0.2-0.3,0.1-0.5l-0.5-1.7c-0.1-0.2,0-0.4,0.1-0.5l1.4-1
		C38,2.8,38,2.7,38,2.5c-0.1-0.2-0.2-0.3-0.4-0.3l-1.7,0c-0.2,0-0.3-0.1-0.4-0.3l-0.5-1.6C34.8,0.1,34.7,0,34.5,0
		c-0.2,0-0.3,0.1-0.4,0.3l-0.5,1.7c-0.1,0.2-0.2,0.3-0.4,0.3l-1.7,0c-0.2,0-0.3,0.1-0.4,0.3c-0.1,0.2,0,0.4,0.1,0.5l1.4,1
		c0.1,0.1,0.2,0.3,0.2,0.5l-0.5,1.7c-0.1,0.2,0,0.4,0.2,0.5c0.1,0.1,0.3,0.1,0.5,0l1.4-1C34.4,5.4,34.6,5.4,34.8,5.5z"/>
</g>
</svg>
