<?xml version="1.0" encoding="utf-8"?>
<!-- Generator: Adobe Illustrator 17.1.0, SVG Export Plug-In . SVG Version: 6.00 Build 0)  -->
<!DOCTYPE svg PUBLIC "-//W3C//DTD SVG 1.1//EN" "http://www.w3.org/Graphics/SVG/1.1/DTD/svg11.dtd">
<svg version="1.1" id="Layer_1" xmlns="http://www.w3.org/2000/svg" xmlns:xlink="http://www.w3.org/1999/xlink" x="0px" y="0px"
	 viewBox="0 0 800 800" enable-background="new 0 0 800 800" xml:space="preserve">
<g>
	<path fill="#FFFFFF" d="M539,698.8h-12v-57.4h10.8l-19.1-19.1v-31.3h8.3l-13-13c0,0-3.1-48.8-25.2-97.8c-22.1-49-51.9-74-51.9-74
		v-17.1l6.9-5.4v-8.8h-7.9V316l-16.1-20.1v-22.5c0,0,4.3-1,3.9-3.4c-0.6-2.5-6.8-5.5-6.8-5.5v-30.3c0,0,5.4-0.5,5.4-2.9
		c0-2.5-8.3-4.5-8.3-4.5V195c0,0,2.9,0,3.4-1.9c0.5-2-4.4-4-4.4-4v-34.8L403.5,0h-6.9l-9.2,154.3v34.8c0,0-4.9,2-4.5,4
		c0.5,1.9,3.5,1.9,3.5,1.9v31.8c0,0-8.3,2-8.3,4.5c0,2.4,5.4,2.9,5.4,2.9v30.3c0,0-6.2,3-6.8,5.5c-0.6,2.4,3.9,3.3,3.9,3.3v22.5
		L364.3,316v58.8h-7.9v8.9l6.8,5.4v17.1c0,0-29.8,25-51.8,74c-22.1,49-25.3,97.7-25.3,97.7l-12.9,13h8.2v31.3l-19,19.1h10.8v57.4
		h-12l-24.8,37.3h14.5v64.1h298.4v-64.1h14.5L539,698.8z M289.6,581.5H512l5.1,5.9H283L289.6,581.5z M289.3,624.5h222.2l13.6,13.9
		H274.9L289.3,624.5z M361.7,728.8l38.4-17.4l38.3,17.4H361.7z M249.1,728.8l16.1-23.5h127l-51.9,23.5H249.1z M459.8,728.8
		l-51.9-23.5h126.3l17,23.5H459.8z"/>
</g>
</svg>
