<?xml version="1.0" encoding="utf-8"?>
<!-- Generator: Adobe Illustrator 17.1.0, SVG Export Plug-In . SVG Version: 6.00 Build 0)  -->
<!DOCTYPE svg PUBLIC "-//W3C//DTD SVG 1.1//EN" "http://www.w3.org/Graphics/SVG/1.1/DTD/svg11.dtd">
<svg version="1.1" id="Layer_1" xmlns="http://www.w3.org/2000/svg" xmlns:xlink="http://www.w3.org/1999/xlink" x="0px" y="0px"
	 viewBox="0 0 800 800" enable-background="new 0 0 800 800" xml:space="preserve">
<g>
	<path fill="#FFFFFF" d="M378.3,173.3c7.3,0,13.1-5.9,13.1-13.1s-5.9-13.1-13.1-13.1c-1.4,0-2.8,0.3-4.2,0.8
		c0.9,1.1,1.6,2.5,1.6,4.1c0,3.4-2.7,6.1-6.1,6.1c-1.4,0-2.8-0.6-3.9-1.6c-0.3,1.3-0.6,2.5-0.6,3.9
		C365.2,167.3,371.1,173.3,378.3,173.3z"/>
	<path fill="#FFFFFF" d="M440.5,172.2c7.3,0,13.1-5.9,13.1-13.1c0-7.2-5.9-13.1-13.1-13.1c-1.6,0-2.8,0.3-4.2,0.8
		c0.9,1.1,1.6,2.5,1.6,4.1c0,3.4-2.7,6.1-6.1,6.1c-1.6,0-2.8-0.6-3.9-1.6c-0.3,1.3-0.6,2.5-0.6,3.8
		C427.3,166.3,433.3,172.2,440.5,172.2z"/>
	<path fill="#FFFFFF" d="M409.7,216.9c13.7,0,20.3-15.5,20.3-15.5h-40.9C389.1,201.4,395.9,216.9,409.7,216.9z"/>
	<path fill="#FFFFFF" d="M320.3,111.9c-1.4,13.6-5.3,72.2,25.5,107.3c15.3,17.5,36.7,26.4,63.6,26.4c0.3,0,0.5,0,0.6,0
		c0.3,0,0.5,0,0.6,0c26.9,0,48.3-8.9,63.6-26.4c30.8-35.2,26.9-93.8,25.5-107.3c7.2-1.7,12-1.3,13.4-2.5c2.8-2.3,3.1-20.9,0.3-25
		c-2.7-4.1-14.1-2.2-16.2-5.9c-1.7-3.1-11.7-54.2-56.4-72.2v64.4h-15.9V1.6c-4.7-0.9-9.7-1.4-15-1.6l0,0l0,0l0,0l0,0
		c-5.3,0.2-10.3,0.6-15,1.6v68.9h-16.1V6.3c-44.5,18.1-54.7,69.1-56.4,72.2c-2,3.8-13.4,1.9-16.2,5.9c-2.7,4.1-2.3,22.7,0.3,25
		C308.3,110.8,313,110.2,320.3,111.9z M330.9,115.9c4.5,2.3,9.7,5.6,15.3,10.5c9.4,0,44.4,0.2,61.1,0.2l0,0c0,0,0.9,0,2.7,0
		c1.7,0,2.7,0,2.7,0l0,0c16.7,0,51.9-0.2,61.1-0.2c5.6-4.8,10.6-8.1,15.3-10.5c1.2,16.3,2.7,66.7-23.1,96.2
		c-13.1,15-31.7,22.5-55.3,22.5c-0.3,0-0.5,0-0.6,0l0,0l0,0l0,0l0,0c-0.2,0-0.5,0-0.6,0c-23.6,0-42.2-7.7-55.3-22.5
		C328.3,182.7,329.7,132.2,330.9,115.9z"/>
	<ellipse fill="#FFFFFF" cx="471.9" cy="643" rx="15.6" ry="15.3"/>
	<ellipse fill="#FFFFFF" cx="449.4" cy="736.1" rx="13.1" ry="12.8"/>
	<g>
		<circle fill="#FFFFFF" cx="340.8" cy="679.8" r="23.8"/>
		<path fill="#FFFFFF" d="M710.6,605.6c-2-2-4.7-3.1-7.7-3.1l-83.6,0.3v-17.5h-27V564H477.5c6.6-3.4,12-6.4,13.1-6.9
			c3.3-1.3,2.2-3.4,1.6-4.7c-0.2-0.3-1.1-1.9-2.7-4.4l45.9-27.8c6.4,4.4,14.4,6.1,22.3,4.7c4.8,3,10.6,4.7,16.7,4.7
			c17.7,0,32-14.1,32.2-31.4l18.1-10.9c14.8-9.1,20-27.7,11.6-41.7c-4.8-8.1-13.3-12.8-22.3-13.6c1.7-22.7,2.7-50.6-0.5-67.7
			C600.1,290.5,503,235.1,477.1,237.7c-8.1,1.3-19.5,34.2-70.2,34.2s-57.2-33-65.3-34.2c-26.1-2.7-123.9,48.8-137.3,122.5
			c-3.4,19.2,1.1,53.6,4.5,72l-20-8.4c-11.6-4.8-25,0.6-30,12.2c-4.8,11.7,0.6,25.2,12.3,30l41.3,17.2c0,0.6-0.2,1.2-0.2,1.9
			c0,17.5,14.4,31.7,32.2,31.7c9.4,0,17.8-4.1,23.6-10.3l7.2,3c0.8,19.8,12.7,38.3,32.2,46.6c18.9,8,39.1,4.4,53.6-8
			c1.9-1.6,1.6-5.2-1.9-5c-2.8,0-3.1,0.5-7.2,0.3s-20.2-3.8-27.3-8.9c-7.2-5.2-16.1-21.9-11.1-33.6c0-0.2,0.3-0.6,0.3-0.6
			c0-0.2,0.2-0.3,0.2-0.5c5-11.9,23.1-17.2,31.7-15.6c8.8,1.4,22.7,10.5,25.6,13.1c3,2.8,2.8,3.3,4.8,5.3c2.3,2.7,5,0.5,4.8-2
			c-1.4-19.2-13.1-35.9-31.9-43.9c-19.8-8.3-41.9-3.4-56.6,10.5l-25.9-10.9c-5.9-38.1-9.8-67.8-4.5-76.4c9.8-16.2,40.2-48,40.2-48
			l0.5,119.5c15.2-7.2,33.1-8.1,49.1-1.4c21.1,8.9,34.7,27.5,36.3,50c0.2,3-0.8,5.8-2.8,8c-3.9,4.2-10.8,4.1-14.7-0.6
			c-0.6-0.6-1.3-1.4-1.9-2c-0.5-0.6-1.1-1.3-2.3-2.7c-2.3-2.2-15-10.2-21.9-11.3c-6.4-1.1-20.6,3.6-23.9,11.4l-0.3,0.9
			c-3.4,8.3,3.8,21.6,8.6,25.2c5.6,4.1,20.3,7.5,23.4,7.7h1.3c1.1,0,1.7,0,2.3-0.2c0.9-0.2,1.7-0.2,3.1-0.2l0,0
			c4.8,0,8.4,2.3,9.8,6.3c0.3,0.9,0.6,2,0.6,3l38.3-0.2l0,0h1.4h1.4l0,0h8.4c1.2-4.2,3.9-8.1,8.1-10.9l3.7-2.5
			c8.3-5.6,27.7-18.6,30-20.3c4.4-3.6,8.6-4.2,11.4-4.2c1.9,0,5,0.5,8.1,2.2l28.8-17.3c0.8-6.9,3.1-13.7,6.9-19.7l0.6-140.5
			c0,0,29.4,35.6,39.4,51.9c4.5,7.3,2.2,50-1.6,76.6L539,470c-11.1,6.7-16.9,18.9-15.5,30.5l-45.9,27.8c-1.6-2.5-2.7-4.2-2.8-4.4
			c-0.8-1.3-2.2-3-4.8-0.8c-2.2,1.7-26.1,17.8-34.8,23.8c-3.3,2-2.5,4.4-1.6,5.9c0.5,0.6,3.6,5.8,6.9,11.3h-223v13.3h-42.2v20h-64.1
			c-13.9,0-25.2,11.3-25.2,25.2v152.3c0,13.9,11.3,25.2,25.2,25.2s25.2-11.3,25.2-25.2V647.5h38.7l0.5,18.6h42.2l-0.5,133.4h375
			v-98.9h27v-14.7h36.4l-0.3,102.5c0,5.9,4.8,10.8,10.8,10.8c5.9,0,10.8-4.8,10.8-10.8l0.3-113.3c0-5.9-4.8-10.8-10.8-10.8h-47.2
			v-16.6h-27l0.3-9.4h26.7v-15.2l72.8,0.6l-0.5,165.2c0,5.9,4.8,10.8,10.8,10.8l0,0c5.9,0,10.8-4.8,10.8-10.8l0.5-175.9
			C713.9,610.3,712.7,607.7,710.6,605.6z M188.6,449.2c-2.2,5.3-8.4,7.8-13.8,5.6c-5.3-2.2-7.8-8.4-5.6-13.7
			c2.2-5.3,8.4-7.8,13.8-5.6C188.3,437.7,190.8,443.8,188.6,449.2z M404.2,704.4c-3,0.6-7.8,1.4-16.1,2.5h-0.8l-4.1,5.6l0.2,0.6
			c3.9,19.7,3.3,20.2,1.6,21.3l-12.8,8c-0.6,0.3-1.4,0.5-2,0.3s-2.3-0.6-16.4-11.1l-0.6-0.5l-7,1.1l-0.3,0.6
			c-11.4,16.6-12.2,16.3-14.1,15.9l-7.5-1.7l-7.5-1.7c-1.9-0.5-2.7-0.6-5.8-20.5l-0.2-0.6l-5.8-4.1l-0.6,0.2
			c-17.2,3.6-19.1,3.1-19.7,3c-0.6-0.2-1.4-0.6-1.7-1.1l-8.3-12.8c-1.1-1.7-1.4-2.2,10.6-18.4l0.5-0.5l-1.3-6.9l-0.6-0.3
			c-7-4.5-11.3-7.3-13.6-9.1l5-21.9c3-0.6,7.8-1.6,16.2-2.8l0.6-0.2l4.1-5.6l-0.2-0.8c-4.4-19.5-3.8-20-2-20.9l13-8
			c0.5-0.3,1.4-0.5,2-0.3c1.6,0.5,7.2,4.1,16.9,10.9l0.6,0.5l7-1.3l0.5-0.6c10.9-16.7,11.7-16.6,13.6-16.1l8.1,1.9l8.1,1.9
			c1.9,0.5,2.7,0.6,5.3,20.3l0.2,0.8l5.8,4.1l0.6-0.2c11.6-2,18.3-3,19.8-2.7c0.6,0.2,1.4,0.6,1.7,1.1l8.3,12.8
			c1.1,1.6,1.4,2.3-10.8,18l-0.5,0.6l1.3,6.9l0.6,0.5c7,4.7,11.1,7.7,13.4,9.5L404.2,704.4z M487.5,739.8c0,1.1,0,1.4-10.2,5.3
			l-0.3,0.2l-1.4,3.4l0.2,0.3c4.5,9.5,4.2,9.8,3.6,10.6l-5.8,5.6c-0.3,0.3-0.6,0.5-0.9,0.5c-0.9,0-4.2-1.3-10-3.6l-0.3-0.2l-3.4,1.4
			l-0.2,0.3c-3.7,9.8-4.1,9.8-5.2,9.8h-8.1c-0.9,0-1.4,0-5.5-9.8l-0.2-0.3l-3.6-1.4l-0.3,0.2c-8.4,3.8-9.4,3.8-9.8,3.8
			c-0.3,0-0.8-0.2-1.1-0.5l-5.8-5.6c-0.8-0.8-0.9-0.9,3.3-10.8l0.2-0.3l-1.4-3.4l-0.3-0.2c-10.2-3.6-10.2-4.1-10.2-5v-8
			c0-1.1,0-1.4,10.2-5.3l0.3-0.2l1.4-3.4l-0.2-0.3c-4.5-9.5-4.2-9.8-3.4-10.6l5.8-5.6c0.2-0.3,0.6-0.5,0.9-0.5c0.8,0,4.2,1.3,10,3.6
			l0.3,0.2l3.4-1.4l0.2-0.3c3.8-9.8,4.2-9.8,5.2-9.8h8.1c0.9,0,1.4,0,5.3,9.8l0.2,0.3l3.4,1.4l0.3-0.2c8.4-3.9,9.5-3.9,9.8-3.9
			s0.8,0.2,0.9,0.5l5.8,5.6c0.6,0.6,1.1,0.9-3.3,10.8l-0.2,0.3l1.4,3.4l0.3,0.2c10.2,3.6,10.2,4.1,10.2,5L487.5,739.8L487.5,739.8z
			 M517.5,647.5c0,1.3,0,1.6-12,6.4l-0.5,0.2l-1.7,4.1l0.2,0.5c5.5,11.4,5,11.7,4.2,12.7l-6.9,6.7c-0.3,0.3-0.8,0.5-1.3,0.5
			c-1.1,0-5-1.4-11.9-4.4l-0.5-0.2l-4.2,1.7l-0.2,0.5c-4.4,11.9-4.8,11.9-6.1,11.9h-9.5c-1.2,0-1.7,0-6.4-11.7l-0.2-0.5l-4.2-1.7
			l-0.5,0.2c-10,4.5-11.3,4.5-11.7,4.5c-0.5,0-0.9-0.2-1.2-0.5l-6.9-6.7c-0.9-0.9-1.2-1.2,3.9-12.8l0.2-0.5l-1.7-4.1l-0.5-0.2
			c-12-4.4-12-4.8-12-6.1v-9.5c0-1.3,0-1.6,12-6.3l0.5-0.2l1.7-4.1l-0.2-0.5c-5.5-11.4-5-11.7-4.2-12.7l6.9-6.7
			c0.3-0.3,0.8-0.5,1.3-0.5c1.1,0,5,1.6,11.9,4.4l0.5,0.2l4.2-1.7l0.2-0.5c4.4-11.9,5-11.9,6.1-11.9h9.7c1.2,0,1.7,0,6.4,11.7
			l0.2,0.5l4.2,1.7l0.5-0.2c10-4.5,11.3-4.5,11.6-4.5c0.5,0,0.9,0.2,1.2,0.5l6.9,6.7c0.8,0.8,1.2,1.2-3.9,12.8l-0.2,0.5l1.7,4.1
			l0.5,0.2c12,4.4,12,4.8,12,5.9L517.5,647.5L517.5,647.5z"/>
	</g>
</g>
</svg>
