<?xml version="1.0" encoding="utf-8"?>
<!-- Generator: Adobe Illustrator 17.1.0, SVG Export Plug-In . SVG Version: 6.00 Build 0)  -->
<!DOCTYPE svg PUBLIC "-//W3C//DTD SVG 1.1//EN" "http://www.w3.org/Graphics/SVG/1.1/DTD/svg11.dtd">
<svg version="1.1" id="Capa_1" xmlns="http://www.w3.org/2000/svg" xmlns:xlink="http://www.w3.org/1999/xlink" x="0px" y="0px"
	 viewBox="0 0 512 512" enable-background="new 0 0 512 512" xml:space="preserve">
<g>
	<g>
		<path fill="#FFFFFF" d="M0,167.7L132.2,35.4l13.2,13.2L13.2,180.9L0,167.7z M23.4,191.1L155.6,58.9l13.2,13.2L36.6,204.3
			L23.4,191.1z M366.6,48.7l13.2-13.2L512,167.7l-13.2,13.2L366.6,48.7z M475.3,204.3L343.1,72l13.2-13.2L488.6,191L475.3,204.3z"/>
		<path fill="#FFFFFF" d="M399.6,280.1l66.1-66.1L333.5,81.7l-66.1,66.1l47.6,47.6c-12.3,12.3-34.2,34.3-59,59
			c-24.8-24.8-46.7-46.7-59-59l47.6-47.6l-66.1-66.1L46.3,214l66.1,66.1l47.6-47.6c12.3,12.3,34.2,34.2,59,59
			c-39.3,39.3-77.1,77.1-89.4,89.4c-15.6-3.1-32.7,1.1-44.3,12.8C76,402.8,70.9,415,70.9,428c0,13,5.1,25.2,14.3,34.4
			c9.1,9.1,21.4,14.3,34.3,14.3c12.9,0,25.2-5.1,34.3-14.3c12.1-12.1,16.4-29.1,13-44.7c12.7-12.7,50.3-50.3,89.2-89.2
			c38.9,38.9,76.5,76.5,89.2,89.2c-3.4,15.6,0.9,32.5,13,44.7c9.2,9.1,21.4,14.3,34.3,14.3c13,0,25.2-5.1,34.3-14.3
			C436,453.2,441,441,441,428c0-12.9-5.1-25.1-14.2-34.3c-11.6-11.6-28.7-15.9-44.4-12.8c-12.3-12.3-50.2-50.2-89.4-89.4
			c24.8-24.8,46.7-46.7,59-59L399.6,280.1z M140.5,449.1c-11.3,11.3-30.9,11.3-42.2,0c-5.6-5.6-8.8-13.1-8.8-21.1
			c0-8,3.1-15.4,8.8-21.1c5.6-5.7,13.1-8.8,21.1-8.8c8,0,15.4,3.1,21.1,8.8C152.2,418.5,152.2,437.4,140.5,449.1z M413.6,406.9
			c5.6,5.6,8.8,13.1,8.8,21.1c0,8-3.1,15.5-8.8,21.1c-11.3,11.3-30.9,11.3-42.2,0c-11.6-11.6-11.6-30.6,0-42.2
			c5.6-5.6,13.1-8.7,21.1-8.7C400.4,398.1,407.9,401.3,413.6,406.9z"/>
	</g>
</g>
</svg>
