<?xml version="1.0" encoding="utf-8"?>
<!-- Generator: Adobe Illustrator 17.1.0, SVG Export Plug-In . SVG Version: 6.00 Build 0)  -->
<!DOCTYPE svg PUBLIC "-//W3C//DTD SVG 1.1//EN" "http://www.w3.org/Graphics/SVG/1.1/DTD/svg11.dtd">
<svg version="1.1" id="Capa_1" xmlns="http://www.w3.org/2000/svg" xmlns:xlink="http://www.w3.org/1999/xlink" x="0px" y="0px"
	 viewBox="0 0 512 512" enable-background="new 0 0 512 512" xml:space="preserve">
<g id="XMLID_28_">
	<path id="XMLID_40_" fill="#FFFFFF" d="M132.2,257.9c-7.9,26.5,0.4,45.5,12.5,51.2c12.4,5.9,22.8-3.1,28.3-28.5
		c5.4-25.1-5.2-54.6-5-54.9C168.2,225.9,140.5,231.7,132.2,257.9z"/>
	<path id="XMLID_39_" fill="#FFFFFF" d="M111.6,183.7c-12.1,22.2-8.6,40.6,0.9,48.1c9.7,7.8,20.8,2.2,30.7-19.5
		c9.8-21.3,5.9-50.4,6.1-50.7C149.5,161.8,123.9,161.8,111.6,183.7z"/>
	<path id="XMLID_38_" fill="#FFFFFF" d="M98.4,156.8c6.7,8.3,17,5.7,29-11.2c11.8-16.6,13.3-42.9,13.5-43.1
		c0.1,0.2-21.3-3.7-35.1,13.1C92.1,132.6,91.8,148.7,98.4,156.8z"/>
	<path id="XMLID_37_" fill="#FFFFFF" d="M77,327.7c26.8,16.5,39.5,9.7,40.8-4.2c1.4-14.3-8.2-30.9-32.2-48.7
		c-23.8-18.2-49.6-10.1-49.7-9.7C35.4,265,49.5,311,77,327.7z"/>
	<path id="XMLID_36_" fill="#FFFFFF" d="M85.7,239c4.1-12.3-1-29-18.8-49.4c-17.5-20.8-41.9-18.3-42-18.1c-0.5-0.2,3.2,42.9,24,62.9
		C69.2,254.3,81.7,250.9,85.7,239z"/>
	<path id="XMLID_35_" fill="#FFFFFF" d="M74.5,158.1c5.6-9.6,4.2-24.6-7.3-44.7C55.9,93,35,91.4,34.8,91.6c-0.3-0.2-4,36.2,9.8,56.4
		C58.1,167.8,69.1,167.4,74.5,158.1z"/>
	<path id="XMLID_32_" fill="#FFFFFF" d="M429.5,219.8c-14.5-13.5-25.6-30.5-32-49.3l0-0.1c-13.2-38.9-15.3-80.8-6.1-120.8
		c1.3-5.6,0-11.5-3.6-16.1c-0.2-0.3-0.5-0.5-0.8-0.8c6.3-2.5,10.8-8.6,10.8-15.7c0-9.4-7.6-17-17-17h-39.6c-9.4,0-17,7.6-17,17
		c0,7.2,4.5,13.3,10.8,15.7c-0.2,0.3-0.5,0.5-0.8,0.8c-3.6,4.5-4.9,10.4-3.6,16.1c9.3,40.1,7.1,81.9-6.1,120.8l0,0.1
		c-6.4,18.9-17.3,35.7-32,49.3c-34.7,32.3-57.7,88.5-57.7,152.4c0,46.4,12.1,88.7,32,120.8c7.3,11.8,20.2,19,34.2,19h120
		c13.9,0,26.8-7.2,34.2-19c19.9-32.1,32-74.4,32-120.8C487.2,308.3,464.2,252.1,429.5,219.8z M361,445.5
		c-30.7,0-55.5-39.6-55.5-88.4s24.9-88.4,55.5-88.4c30.6,0,55.5,39.6,55.5,88.4C416.5,406,391.6,445.5,361,445.5z"/>
	<path id="XMLID_29_" fill="#FFFFFF" d="M206,426.7c-1.9-9.8-3.2-19.8-4-29.9c-79.5-79-121-194.3-108.2-309.5
		c6.7-2.9,12.6-13.6,17.2-33.8c5.7-24.8-1-50.6-0.9-50.8c0.1-0.3-23.1,16-29.5,43.8c-4.9,21.8-2,34.5,3.6,39.4
		c-12.3,89.3,7.5,181.7,53.3,257c-18.2,2.5-29.3,20.7-32.9,27.5c-15.2-3.3-33.8,9.6-43.4,31.2c-10.5,23.6-6.1,48.4,9.7,55.5
		c11.7,5.2,26.3-0.8,37.4-13.8c0,0.4,0,0.8,0,1.2c2.1,25.7,17.7,45.5,35,44.1c17.3-1.4,29.6-23.4,27.5-49.1
		c-1.9-23.8-15.5-42.3-31.2-43.9c-1.8-9.8-3.7-29.5,5.7-39.8C162.4,381.6,182.9,405.4,206,426.7z M130.7,396.5
		c-2.3,0.8-4.5,1.8-6.6,3.3c-0.3-11.2-4.3-20.6-11.4-25.8c2.9-5.4,11-18.2,23.5-21.5C127.1,365.7,128.8,385.8,130.7,396.5z"/>
</g>
</svg>
