<?xml version="1.0" encoding="utf-8"?>
<!-- Generator: Adobe Illustrator 17.1.0, SVG Export Plug-In . SVG Version: 6.00 Build 0)  -->
<!DOCTYPE svg PUBLIC "-//W3C//DTD SVG 1.1//EN" "http://www.w3.org/Graphics/SVG/1.1/DTD/svg11.dtd">
<svg version="1.1" id="Capa_1" xmlns="http://www.w3.org/2000/svg" xmlns:xlink="http://www.w3.org/1999/xlink" x="0px" y="0px"
	 viewBox="0 0 512 512" enable-background="new 0 0 512 512" xml:space="preserve">
<path fill="#FFFFFF" d="M498,427.8c-2.8-2.8-6.5-4.3-10.5-4.3H427l0-252.5c0-45.5-17.8-88.4-50.2-120.8S301.5,0,256,0
	C161.7,0,85,76.7,85,171l0,252.5H24.5c-8.2,0-14.8,6.6-14.8,14.8v58.9c0,3.9,1.6,7.7,4.3,10.5c2.8,2.8,6.5,4.3,10.5,4.3l463,0
	c8.2,0,14.8-6.6,14.8-14.8v-58.9C502.3,434.3,500.7,430.6,498,427.8z M114.5,171C114.5,93,178,29.6,256,29.6
	c37.6,0,73.1,14.8,99.9,41.6c26.8,26.8,41.6,62.3,41.6,99.9l0,252.5l-282.9,0L114.5,171z M354.2,385.3c0,8.2-6.6,14.8-14.8,14.8
	l-166.8,0c-8.2,0-14.8-6.6-14.8-14.8c0-8.2,6.6-14.8,14.8-14.8l166.8,0C347.6,370.5,354.2,377.1,354.2,385.3z M354.2,332.3
	c0,8.2-6.6,14.8-14.8,14.8l-166.8,0c-8.2,0-14.8-6.6-14.8-14.8c0-8.2,6.6-14.8,14.8-14.8l166.8,0
	C347.6,317.5,354.2,324.2,354.2,332.3z M354.2,279.3c0,8.2-6.6,14.8-14.8,14.8l-166.8,0c-8.2,0-14.8-6.6-14.8-14.8
	c0-8.2,6.6-14.8,14.8-14.8l166.8,0C347.6,264.6,354.2,271.2,354.2,279.3z M199.7,123c0-8.2,6.6-14.8,14.8-14.8h26.8V75
	c0-8.2,6.6-14.8,14.8-14.8c8.2,0,14.8,6.6,14.8,14.8v33.2h26.8c8.2,0,14.8,6.6,14.8,14.8s-6.6,14.8-14.8,14.8h-26.8v72.7
	c0,8.2-6.6,14.8-14.8,14.8c-8.2,0-14.8-6.6-14.8-14.8v-72.7h-26.8C206.3,137.8,199.7,131.2,199.7,123z"/>
</svg>
