<?xml version="1.0" encoding="utf-8"?>
<!-- Generator: Adobe Illustrator 17.1.0, SVG Export Plug-In . SVG Version: 6.00 Build 0)  -->
<!DOCTYPE svg PUBLIC "-//W3C//DTD SVG 1.1//EN" "http://www.w3.org/Graphics/SVG/1.1/DTD/svg11.dtd">
<svg version="1.1" id="Capa_1" xmlns="http://www.w3.org/2000/svg" xmlns:xlink="http://www.w3.org/1999/xlink" x="0px" y="0px"
	 viewBox="0 0 512 512" enable-background="new 0 0 512 512" xml:space="preserve">
<g>
	<g>
		<path fill="#FFFFFF" d="M332.2,219.7c-5.3-5.3-10.8-10.1-16.6-14.4c-14.8,5.5-28,14.5-38.5,26.2c12.5,5.5,24.3,13.4,34.5,23.7
			c44.4,44.4,44.4,116.4,0,160.8c-44.4,44.4-116.4,44.4-160.8,0c-44.4-44.4-44.4-116.4,0-160.8c12.5-12.5,27.1-21.4,42.7-26.9
			c0.9-2.3,1.8-4.7,2.7-7c7.2-17.3,17-32.9,28.8-46.5c-32.3-0.3-64.6,9.6-91.8,29.5l-4.9-67.9c-0.2-2.3-1.3-4.3-2.9-5.9L102,107.2
			c-3.7-3.7-9.1-3.6-12.7,0L3,193.6c-3.7,3.7-4.1,9.4-0.4,13.1l23.1,23.1c1.6,1.6,3.6,2.6,5.9,2.8l68.5,4.9
			c-44.2,60-39.1,144.9,15.2,199.2c59.9,59.9,157,59.9,216.9,0C392.1,376.8,392.1,279.6,332.2,219.7z M32.6,210.3l-10-10l73.1-73.1
			l10,10L32.6,210.3z M115.4,219.7L54,215.2l57.2-57.2L115.4,219.7C115.4,219.6,115.4,219.7,115.4,219.7z"/>
		<path fill="#FFFFFF" d="M498.6,120.3l12.7-30.5c2-4.8-0.1-9.8-4.9-11.8L393.6,31.2c-4.8-2-10.2-0.2-12.2,4.6L368.8,66
			c-0.9,2.1-1,4.4-0.3,6.5l21.6,65.2c-72.3-17.9-148.9,19.1-178.4,90c-30.2,72.6-0.4,155.3,66.6,192.8c7.8-4.3,15-9.8,21.4-16.2
			c1.2-1.3,2.5-2.5,3.6-3.8c-56.5-24.9-82.9-90.5-59.1-147.8c24.1-58,90.7-85.4,148.7-61.3c58,24.1,85.4,90.7,61.3,148.7
			c-14.7,35.3-45.1,59.3-79.8,67.2c-6.1,11.7-13.7,22.7-22.5,32.8c60.6,0.5,118.3-35.1,143-94.5c29.5-70.8,1.9-151.1-61.6-189.9
			l60.9-30.4C496.2,124.3,497.7,122.4,498.6,120.3z M412.4,145.1c0,0-0.1,0-0.1,0L393,86.6l74.6,31L412.4,145.1z M484.9,104.7
			l-95.5-39.7l5.4-13l95.5,39.7L484.9,104.7z"/>
	</g>
</g>
</svg>
