<?xml version="1.0" encoding="utf-8"?>
<!-- Generator: Adobe Illustrator 17.1.0, SVG Export Plug-In . SVG Version: 6.00 Build 0)  -->
<!DOCTYPE svg PUBLIC "-//W3C//DTD SVG 1.1//EN" "http://www.w3.org/Graphics/SVG/1.1/DTD/svg11.dtd">
<svg version="1.1" id="Capa_1" xmlns="http://www.w3.org/2000/svg" xmlns:xlink="http://www.w3.org/1999/xlink" x="0px" y="0px"
	 viewBox="0 0 283.5 340.2" enable-background="new 0 0 283.5 340.2" xml:space="preserve">
<g>
	<path fill="#FFFFFF" d="M279,287.5h-8.9V143.3c5.3-3,8.9-8.8,8.9-15.3V83.7c0-7.3-6-13.3-13.3-13.3h-89.7
		c-3.9-15.3-17.8-26.6-34.3-26.6s-30.4,11.3-34.3,26.6H17.7c-7.3,0-13.3,6-13.3,13.3V128c0,6.5,3.5,12.3,8.9,15.3v144.1H4.4
		c-2.4,0-4.4,2-4.4,4.4s2,4.4,4.4,4.4H279c2.4,0,4.4-2,4.4-4.4S281.5,287.5,279,287.5z M261.3,136.9c-4.9,0-8.9-4-8.9-8.9h17.7
		C270.2,132.9,266.2,136.9,261.3,136.9z M13.3,128H31c0,4.9-4,8.9-8.9,8.9S13.3,132.9,13.3,128z M163.9,106.9v12.2h-17.7v-4.7
		C152.8,113.6,158.9,110.9,163.9,106.9z M225.9,119.1V79.3h17.7v39.9H225.9z M217,119.1h-17.7V79.3H217V119.1z M190.4,119.1h-17.7
		V97c0-0.2,0-0.3-0.1-0.6c2.8-5.1,4.5-11,4.5-17.2h13.3V119.1z M137.3,119.1h-17.7v-12.2c5,4,11.1,6.7,17.7,7.5V119.1z M110.8,96.4
		c0,0.2-0.1,0.3-0.1,0.6v22.1H93V79.3h13.3C106.3,85.5,107.9,91.4,110.8,96.4z M84.2,119.1H66.4V79.3h17.7V119.1z M57.6,119.1H39.9
		V79.3h17.7V119.1z M57.6,128c0,4.9-4,8.9-8.9,8.9s-8.9-4-8.9-8.9H57.6z M84.2,128c0,4.9-4,8.9-8.9,8.9s-8.9-4-8.9-8.9H84.2z
		 M110.7,128c0,4.9-4,8.9-8.9,8.9c-4.9,0-8.9-4-8.9-8.9H110.7z M137.3,128c0,4.9-4,8.9-8.9,8.9c-4.9,0-8.9-4-8.9-8.9H137.3z
		 M163.9,128c0,4.9-4,8.9-8.9,8.9s-8.9-4-8.9-8.9H163.9z M190.4,128c0,4.9-4,8.9-8.9,8.9s-8.9-4-8.9-8.9H190.4z M217,128
		c0,4.9-4,8.9-8.9,8.9c-4.9,0-8.9-4-8.9-8.9H217z M243.6,128c0,4.9-4,8.9-8.9,8.9s-8.9-4-8.9-8.9H243.6z M270.2,83.7v35.4h-17.7
		V79.3h13.3C268.2,79.3,270.2,81.3,270.2,83.7z M141.7,52.7c14.7,0,26.6,11.9,26.6,26.6s-11.9,26.6-26.6,26.6S115.2,94,115.2,79.3
		S127.1,52.7,141.7,52.7z M17.7,79.3H31v39.9H13.3V83.7C13.3,81.3,15.3,79.3,17.7,79.3z M22.1,145.7c5.3,0,10-2.3,13.3-6
		c3.3,3.7,8,6,13.3,6s10-2.3,13.3-6c3.3,3.7,8,6,13.3,6c5.3,0,10-2.3,13.3-6c3.3,3.7,8,6,13.3,6c5.3,0,10-2.3,13.3-6
		c3.3,3.7,8,6,13.3,6s10-2.3,13.3-6c3.3,3.7,8,6,13.3,6s10-2.3,13.3-6c3.3,3.7,8,6,13.3,6s10-2.3,13.3-6c3.3,3.7,8,6,13.3,6
		c5.3,0,10-2.3,13.3-6c3.3,3.7,8,6,13.3,6s10-2.3,13.3-6c3.3,3.7,8,6,13.3,6v141.7h-8.9v-124c0-4.9-4-8.9-8.9-8.9H186
		c-4.9,0-8.9,4-8.9,8.9v124h-155V145.7z M243.6,287.5H186v-124h57.6V287.5z"/>
	<path fill="#FFFFFF" d="M159.4,154.6H39.9c-4.9,0-8.9,4-8.9,8.9v106.3c0,4.9,4,8.9,8.9,8.9h119.6c4.9,0,8.9-4,8.9-8.9V163.4
		C168.3,158.6,164.3,154.6,159.4,154.6z M159.4,269.7H39.9V163.4h119.6V269.7z"/>
	<path fill="#FFFFFF" d="M194.9,243.2c2.4,0,4.4-2,4.4-4.4v-13.3c0-2.4-2-4.4-4.4-4.4c-2.4,0-4.4,2-4.4,4.4v13.3
		C190.4,241.2,192.4,243.2,194.9,243.2z"/>
	<path fill="#FFFFFF" d="M120.6,77.6l17.7,22.1c0.8,1.1,2.1,1.7,3.4,1.7s2.6-0.6,3.4-1.7l17.7-22.1c1.4-1.8,1.3-4.3-0.3-5.9
		l-8.9-8.9c-0.8-0.8-1.9-1.3-3.2-1.3h-17.7c-1.2,0-2.3,0.4-3.2,1.3l-8.9,8.9C119.3,73.3,119.1,75.9,120.6,77.6z M134.7,70.4h14.1
		l4.8,4.8l-11.8,14.7l-11.8-14.7L134.7,70.4z"/>
	<path fill="#FFFFFF" d="M48.7,207.9c0,0.1,0,0.2,0,0.3c0,0.1,0,0.1,0,0.2c0,0.1,0,0.2,0.1,0.2c0,0.1,0.1,0.2,0.1,0.2
		c0,0.1,0.1,0.2,0.1,0.2c0,0.1,0.1,0.2,0.1,0.2c0,0.1,0.1,0.1,0.1,0.2c0,0.1,0.1,0.1,0.1,0.2c0.1,0.1,0.1,0.1,0.1,0.2
		c0.1,0.1,0.1,0.1,0.1,0.2c0.1,0.1,0.1,0.1,0.1,0.2c0.1,0.1,0.1,0.1,0.1,0.2c0.1,0.1,0.1,0.1,0.1,0.2s0.1,0.1,0.2,0.2
		c0.1,0.1,0.1,0.1,0.1,0.1l46.5,48.7l0,0l0.1,0.1c0.1,0.1,0.1,0.1,0.1,0.1c0.1,0.1,0.3,0.2,0.4,0.3l0.1,0.1c0,0,0.1,0,0.1,0.1l0,0
		c0.1,0.1,0.2,0.2,0.3,0.2c0.1,0,0.1,0.1,0.1,0.1c0.1,0,0.1,0.1,0.1,0.1c0.1,0.1,0.1,0.1,0.2,0.1s0.2,0.1,0.2,0.1
		c0.1,0,0.1,0.1,0.1,0.1h0.1l0,0l0,0c0.2,0.1,0.4,0.1,0.6,0.1c0.1,0,0.1,0,0.1,0c0.1,0,0.1,0,0.1,0c0.2,0,0.3,0.1,0.6,0.1h0.1h0.1
		c0.2,0,0.3,0,0.5-0.1c0.1,0,0.1,0,0.1,0c0.1,0,0.1,0,0.1,0c0.2-0.1,0.4-0.1,0.6-0.1l0,0l0,0c0.1,0,0.1,0,0.1-0.1
		c0.1,0,0.1,0,0.1-0.1c0.1,0,0.2-0.1,0.2-0.1c0.1,0,0.1-0.1,0.2-0.1c0.1,0,0.1-0.1,0.1-0.1l0,0c0.1,0,0.1,0,0.1-0.1
		c0.2-0.1,0.3-0.2,0.4-0.3l0.1-0.1c0.2-0.1,0.3-0.2,0.4-0.3c0.1-0.1,0.1-0.1,0.1-0.1l0.1-0.1l46.5-48.7c0.1-0.1,0.1-0.1,0.1-0.1
		c0.1-0.1,0.1-0.1,0.2-0.2s0.1-0.1,0.1-0.2c0.1-0.1,0.1-0.1,0.1-0.2c0.1-0.1,0.1-0.1,0.1-0.2c0.1-0.1,0.1-0.1,0.1-0.2
		c0.1-0.1,0.1-0.1,0.1-0.2c0.1-0.1,0.1-0.1,0.1-0.2c0-0.1,0.1-0.1,0.1-0.2c0-0.1,0.1-0.1,0.1-0.2c0-0.1,0.1-0.1,0.1-0.2
		c0-0.1,0.1-0.2,0.1-0.2c0-0.1,0-0.2,0.1-0.2c0-0.1,0-0.1,0-0.2c0-0.1,0-0.2,0-0.3c0-0.1,0-0.1,0-0.1l0,0c0-0.1,0-0.2,0-0.3
		c0-0.1,0-0.1,0-0.1c0-0.1-0.1-0.3-0.1-0.4c0-0.1-0.1-0.2-0.1-0.2c0-0.1-0.1-0.2-0.1-0.2c0-0.1-0.1-0.2-0.1-0.2
		c0-0.1-0.1-0.1-0.1-0.2c0-0.1-0.1-0.1-0.1-0.2c-0.1-0.1-0.1-0.1-0.1-0.2c-0.1-0.1-0.1-0.1-0.1-0.2c-0.1-0.1-0.1-0.1-0.1-0.2
		c-0.1-0.1-0.1-0.1-0.2-0.2s-0.1-0.1-0.1-0.2c-0.1-0.1-0.2-0.2-0.3-0.3l-22.1-22.1c-0.2-0.2-0.4-0.4-0.7-0.6l0,0
		c-0.1-0.1-0.2-0.1-0.2-0.2c-0.1-0.1-0.1-0.1-0.2-0.1c-0.1-0.1-0.1-0.1-0.2-0.1c-0.1-0.1-0.2-0.1-0.2-0.1l0,0
		c-0.1,0-0.1-0.1-0.2-0.1c-0.1-0.1-0.2-0.1-0.2-0.1c-0.1,0-0.2-0.1-0.2-0.1c-0.1,0-0.1-0.1-0.2-0.1s-0.2-0.1-0.3-0.1
		c-0.1,0-0.1,0-0.2,0c-0.1,0-0.2,0-0.3,0s-0.1,0-0.1,0H124l0,0H75.5l0,0h-0.2c-0.1,0-0.1,0-0.1,0c-0.1,0-0.2,0-0.3,0
		c-0.1,0-0.1,0-0.2,0c-0.1,0-0.2,0-0.3,0.1c-0.1,0-0.1,0.1-0.2,0.1c-0.1,0-0.2,0.1-0.2,0.1c-0.1,0-0.2,0.1-0.2,0.1
		c-0.1,0-0.1,0.1-0.2,0.1l0,0c-0.1,0.1-0.2,0.1-0.2,0.1c-0.1,0-0.1,0.1-0.2,0.1s-0.1,0.1-0.2,0.1c-0.1,0.1-0.2,0.1-0.2,0.2l0,0
		c-0.2,0.2-0.4,0.3-0.7,0.6L50,204.6c-0.1,0.1-0.2,0.2-0.3,0.3c-0.1,0.1-0.1,0.1-0.1,0.2c-0.1,0.1-0.1,0.1-0.2,0.2
		c-0.1,0.1-0.1,0.1-0.1,0.2c-0.1,0.1-0.1,0.1-0.1,0.2c-0.1,0.1-0.1,0.1-0.1,0.2c-0.1,0.1-0.1,0.1-0.1,0.2c0,0.1-0.1,0.1-0.1,0.2
		c0,0.1-0.1,0.1-0.1,0.2c0,0.1-0.1,0.1-0.1,0.2c0,0.1-0.1,0.2-0.1,0.2c0,0.1-0.1,0.3-0.1,0.4c0,0.1,0,0.1,0,0.1c0,0.1,0,0.2,0,0.3
		l0,0C48.7,207.8,48.7,207.8,48.7,207.9z M73.7,193.4l3.9,9.9H63.8L73.7,193.4z M135.5,203.3h-13.8l3.9-9.9L135.5,203.3z
		 M109.1,212.2l-9.5,29.7l-9.5-29.7H109.1z M92.7,203.3l7-10l7,10H92.7z M118.4,212.2h17.4l-26.1,27.3L118.4,212.2z M114.1,198.5
		l-5.9-8.5h9.3L114.1,198.5z M85.2,198.5l-3.4-8.5h9.3L85.2,198.5z M80.9,212.2l8.7,27.3l-26.1-27.3H80.9z"/>
</g>
</svg>
