<?xml version="1.0" encoding="utf-8"?>
<!-- Generator: Adobe Illustrator 17.1.0, SVG Export Plug-In . SVG Version: 6.00 Build 0)  -->
<!DOCTYPE svg PUBLIC "-//W3C//DTD SVG 1.1//EN" "http://www.w3.org/Graphics/SVG/1.1/DTD/svg11.dtd">
<svg version="1.1" id="Capa_1" xmlns="http://www.w3.org/2000/svg" xmlns:xlink="http://www.w3.org/1999/xlink" x="0px" y="0px"
	 viewBox="0 0 512 512" enable-background="new 0 0 512 512" xml:space="preserve">
<g>
	<path fill="#FFFFFF" d="M425.8,121.5c-22.8-14.7-49.2-13.7-78.6-9.6c45.3-23.8,56.7-56.3,58.5-78.8c0.5-6.9-2.1-13.7-7.2-18.5
		c-5.1-4.7-12.1-6.9-19-5.8c-62.4,9.7-87.6,53.7-97.3,80.8c-4.5-14-11.2-28-20.7-41c-17.1-23.2-40.6-39.3-70-47.9
		c-6.3-1.8-13.1-0.9-18.6,2.7c-5.5,3.6-9.2,9.3-10.1,15.8l-0.3,1.9c-1.5,11.1,5.2,21.5,16,24.7c19.3,5.7,34.1,15.7,45,30.4
		c9.5,12.8,14.9,27.7,17.9,42.1c-41.3-8.7-71.1-34.5-132.1-5.7C47.6,142,0,218.2,35.7,334c28.7,93.3,97,156.9,133,178h186.4
		c41.5-24.9,109.1-81.6,126.9-183.9C501.6,214.8,475.6,153.6,425.8,121.5z M155.1,190.4c-5.6,3.1-52.9,31.1-35.7,92.3
		c3.5,12.5-3.7,25.5-16.2,29c-2.1,0.6-4.3,0.9-6.4,0.9c-10.3,0-19.7-6.8-22.6-17.1C51.8,216,103,164.9,133.1,149
		c11.4-6.1,25.7-1.6,31.7,9.8C170.9,170.2,166.5,184.4,155.1,190.4z"/>
</g>
</svg>
