<?xml version="1.0" encoding="utf-8"?>
<!-- Generator: Adobe Illustrator 17.1.0, SVG Export Plug-In . SVG Version: 6.00 Build 0)  -->
<!DOCTYPE svg PUBLIC "-//W3C//DTD SVG 1.1//EN" "http://www.w3.org/Graphics/SVG/1.1/DTD/svg11.dtd">
<svg version="1.1" id="Capa_1" xmlns="http://www.w3.org/2000/svg" xmlns:xlink="http://www.w3.org/1999/xlink" x="0px" y="0px"
	 viewBox="0 0 512 512" enable-background="new 0 0 512 512" xml:space="preserve">
<g id="XMLID_123_">
	<path id="XMLID_129_" fill="#FFFFFF" d="M190.3,112.3c31,0,56.1-25.1,56.1-56.1c0-31-25.1-56.1-56.1-56.1
		c-31,0-56.1,25.1-56.1,56.1C134.2,87.1,159.3,112.3,190.3,112.3z"/>
	<path id="XMLID_128_" fill="#FFFFFF" d="M228.4,390.6H117.2c0-57.7,0-114.5,0-172.1c0-10.6-8.6-19.2-19.2-19.2
		c-10.6,0-19.2,8.6-19.2,19.2c0,181.9,0,107,0,274.2c0,10.6,8.6,19.2,19.2,19.2c10.6,0,19.2-8.6,19.2-19.2v-63.7h92v63.7
		c0,10.6,8.6,19.2,19.2,19.2c10.6,0,19.2-8.6,19.2-19.2v-82.9C247.6,399.2,239,390.6,228.4,390.6z"/>
	<path id="XMLID_124_" fill="#FFFFFF" d="M414,170.7h-34.1c-0.3-2.9-1.1-5.8-2.5-8.6c-6.2-11.7-20.8-16.2-32.5-10L269.8,192
		l-41.5-40l19.9,11.3c-3.9-22.8-23.6-40.2-47.5-40.2H180c-26.7,0-48.3,21.6-48.3,48.3v164.1c0,14.9,8.3,27.6,20.4,34.4
		c4.7,3.3,10.3,5.2,16.4,5.2h96v108c0,15.9,12.9,28.8,28.8,28.8c15.9,0,28.8-12.9,28.8-28.8V346.3c0-15.9-12.9-28.8-28.8-28.8H249
		v-53.1c-5.3-2.6-10-6.6-13.3-11.9L195,186.6l54,52.1c4.6,4.4,10.6,6.7,16.7,6.7c3.8,0,7.7-0.9,11.2-2.8l61.7-32.8
		c1.9,44.5,8.3,151.5,27.7,188.2l0,99.5c0,8,6.5,14.4,14.4,14.4c8,0,14.4-6.5,14.4-14.4l0-99.5c19.9-37.5,26.2-149.2,27.9-191.6
		c6-3.3,10.1-9.4,10.1-16.6C433.2,179.3,424.6,170.7,414,170.7z M380.9,386.8C380.8,386.8,380.8,386.8,380.9,386.8
		C380.8,386.8,380.8,386.8,380.9,386.8c-5.8-14-11.7-47.9-16.2-86h32.2C392.5,338.9,386.6,372.8,380.9,386.8z M399,281.5h-36.4
		c-2.5-24.9-4.3-50.3-5-72.4h46.5C403.4,231.2,401.5,256.7,399,281.5z"/>
</g>
</svg>
