<?xml version="1.0" encoding="utf-8"?>
<!-- Generator: Adobe Illustrator 17.1.0, SVG Export Plug-In . SVG Version: 6.00 Build 0)  -->
<!DOCTYPE svg PUBLIC "-//W3C//DTD SVG 1.1//EN" "http://www.w3.org/Graphics/SVG/1.1/DTD/svg11.dtd">
<svg version="1.1" id="Capa_1" xmlns="http://www.w3.org/2000/svg" xmlns:xlink="http://www.w3.org/1999/xlink" x="0px" y="0px"
	 viewBox="0 0 512 512" enable-background="new 0 0 512 512" xml:space="preserve">
<g>
	<g>
		<path fill="#FFFFFF" d="M188.7,15.6c-3-1.9-6.5-3-10.3-3c-10.6,0-19.2,8.6-19.2,19.2c0,3.5,0.9,6.7,2.5,9.5L188.7,15.6z"/>
		<path fill="#FFFFFF" d="M468.1,307.3c25.9-32.7,31.8-71.2,13.1-86c-17.4-13.8-49.9-2-75.2,26.1c-23.7-6.6-44.7-5-62.6,5.1
			c-34.3,19.4-47.3,63.8-52.1,97.6c-0.8,5.2-1.5,10.5-2.2,15.9c-7.7,58.5-15,113.8-84.4,113.8c-1.1,0-2.3,0-3.4-0.1
			c-19.7-0.5-33.9-6.6-43.3-18.7c-17.4-22.3-14.4-58.8-12.2-74c6.9-3.1,11.8-9.9,12-17.9l1-30l36.7-10.9c8-2.4,13.3-9.1,14.4-16.9
			c30.3-16.5,50.9-38.7,61.3-66.2c29.6-78.2-34.3-169.4-37-173.3c-0.6-0.8-1.4-1.4-2.2-2c1.8-4.2,1.4-8-1.7-9.9
			c-4.8-3.1-12.3-12.4-16.6-20.7l-7.6-14.7c-4.3-8.4-13.4-9.8-20.1-3.3l-19.1,18.4c-6.8,6.5-5.5,15.4,2.9,19.7l13.4,6.9
			c8.4,4.3,17.5,12.2,20.4,17.6c2.2,4,7.3,4.6,12.6,1.8c5.4,7.9,58,87.7,33.8,151.5c-8.3,22-25.1,40-50.1,53.8
			c-4.7-2.7-10.4-3.6-16-1.9l-44.8,13.3l-47.9-15.2c-5.5-1.7-11.2-1-15.9,1.6c-22.9-13.5-38.4-30.8-46.3-51.6
			C3.8,170.4,62.7,85.9,63.3,85.1c0.1-0.1,0.1-0.3,0.2-0.4c0,0,1.4,1.3,3.1,2.9c1.7,1.6,5.5-1.5,8.4-6.8
			c2.9-5.4,12.1-13.3,20.4-17.6l13.4-6.9c8.4-4.3,9.6-13.2,2.9-19.7L92.7,18c-6.8-6.5-15.8-5.1-20.1,3.3L64.9,36
			c-4.3,8.4-11.8,17.6-16.6,20.8c-4.8,3.1-7,7.3-4.8,9.2l3.9,3.6c-0.9,0.7-1.8,1.4-2.5,2.3c-2.7,3.8-66.6,95-37,173.3
			c9.9,26.2,29,47.5,56.9,63.7c0.8,7.8,6.2,14.8,14.1,17.4l39.1,12.4l-1,29.2c-0.2,6.1,2.3,11.6,6.4,15.5
			c-2.7,18.1-6.4,62.3,16.6,91.7c13.7,17.6,34.2,26.8,60.7,27.5c1.4,0.1,2.8,0.1,4.2,0.1c89.1,0,98.9-73.9,106.7-133.5
			c0.7-5.3,1.4-10.5,2.1-15.6c5.8-40.7,20.3-69.5,40.8-81.1c10.3-5.8,22.6-7.4,36.7-5c-17.7,29.2-19.9,59.7-3.8,72.5
			C406,354.6,442.2,340,468.1,307.3z M434.7,280.3c-9.7,12.3-23.2,17.7-30.2,12.2c-5.1-4.1-5.3-12.9-1.2-22.1
			c3.7,1.2,7.4,2.5,11.3,4.1c5.8,2.4,12.4-0.2,14.9-6c2.5-5.8-0.2-12.4-6-14.9c-1.7-0.7-3.4-1.3-5.1-1.9c7.9-5.8,16.2-7.5,21.2-3.5
			C446.6,253.6,444.4,268,434.7,280.3z"/>
		<path fill="#FFFFFF" d="M119.4,28.6c0-10.6-8.6-19.2-19.2-19.2c-3.8,0-7.3,1.1-10.3,3l26.9,25.7C118.5,35.3,119.4,32,119.4,28.6z"
			/>
		<path fill="#FFFFFF" d="M500.9,233.5c-4.9-2.7-5.8,2.3-4.8,11.7c1.4,14-0.8,35.5-19,58.7c-22.9,29.3-43.1,39.9-56.4,43.5
			c-9.1,2.5-11.6,4.4-5.1,8.2c6.5,3.8,19.3,4.9,27.3-0.1c10.2-6.4,25.1-18.5,43.6-41.6c20.2-25.2,25.2-45.6,25.6-58.8
			C512.3,245.7,505.7,236.2,500.9,233.5z"/>
	</g>
</g>
</svg>
