<?xml version="1.0" encoding="utf-8"?>
<!-- Generator: Adobe Illustrator 17.1.0, SVG Export Plug-In . SVG Version: 6.00 Build 0)  -->
<!DOCTYPE svg PUBLIC "-//W3C//DTD SVG 1.1//EN" "http://www.w3.org/Graphics/SVG/1.1/DTD/svg11.dtd">
<svg version="1.1" id="Capa_1" xmlns="http://www.w3.org/2000/svg" xmlns:xlink="http://www.w3.org/1999/xlink" x="0px" y="0px"
	 viewBox="0 0 800 800" enable-background="new 0 0 800 800" xml:space="preserve">
<g>
	<g id="b103_soup">
		<path fill="#FFFFFF" d="M607.9,288.1H437.1c15.4,0,28-12.6,28-28s-12.6-27.9-28-27.9h-69.9c-15.4,0-28,12.5-28,27.9s12.6,28,28,28
			H196.3c-47.5,0-86.9,42.6-94.6,88h600.9C694.9,330.6,655.5,288.1,607.9,288.1z"/>
		<path fill="#FFFFFF" d="M704,424.1v-8H101.7h-1.4H0v40h100.3V704c0,53.1,43,96,96,96H608c53,0,96-42.9,96-96V464.1h96v-40H704z"/>
		<path fill="#FFFFFF" d="M255.2,96.2c2.8,3.7,5.8,7.2,8.9,10.6l7.7,7.8c4.9,4.9,9.5,9.9,13.1,14.3c1.8,2.2,3.3,4.3,4.4,6.1
			c1.1,1.7,2,3.1,2.3,5.1c0.3,2.1-0.8,5-3,7.9c-2.2,2.8-5.2,5.6-8.8,8.3c4.2,1.6,8.8,2.2,13.7,1.6c4.9-0.6,10.2-2.7,14.7-7.4
			c4.4-4.7,6.9-11.5,7.3-17.6c0.4-6.1-0.5-11.7-1.9-16.7c-2.8-9.9-7.4-18-12.4-25.4c-2.5-3.6-5.5-7.3-7.7-10.1
			c-2.2-2.6-4.2-5.2-6-7.8c-7.5-10.4-12.7-19.8-14.7-30.9c-2-11.2,0.2-25.5,7-41.8c-17.5,3.7-33.1,18.3-38.2,38.8
			c-2.5,10.1-2,21.2,0.7,30.9C245.1,79.7,249.8,88.5,255.2,96.2z"/>
		<path fill="#FFFFFF" d="M358.9,96.2c2.8,3.7,5.8,7.2,8.9,10.6l7.7,7.8c4.9,4.9,9.4,9.9,13.2,14.3c1.7,2.2,3.2,4.3,4.4,6.1
			c1.1,1.7,2,3.1,2.2,5.1c0.3,2.1-0.8,5-3,7.9c-2.2,2.8-5.2,5.6-8.8,8.3c4.3,1.6,8.9,2.2,13.8,1.6c4.9-0.6,10.3-2.7,14.7-7.4
			c4.5-4.7,6.9-11.5,7.3-17.6c0.4-6.1-0.5-11.7-1.9-16.7c-2.8-9.9-7.5-18-12.4-25.4c-2.4-3.6-5.5-7.3-7.7-10.1
			c-2.1-2.6-4.2-5.2-6-7.8c-7.5-10.4-12.8-19.8-14.7-30.9c-2-11.1,0.2-25.4,6.9-41.8c-17.5,3.7-33,18.3-38.1,38.8
			c-2.5,10.1-2,21.2,0.7,30.9C348.8,79.7,353.5,88.5,358.9,96.2z"/>
		<path fill="#FFFFFF" d="M453.5,96.2c2.8,3.7,5.7,7.2,8.9,10.6l7.7,7.8c4.9,4.9,9.4,9.9,13.1,14.3c1.8,2.2,3.3,4.3,4.4,6.1
			c1.1,1.7,2,3.1,2.3,5.1c0.3,2.1-0.8,5-3,7.9c-2.2,2.8-5.2,5.6-8.8,8.3c4.3,1.6,8.9,2.2,13.7,1.6c4.9-0.6,10.3-2.7,14.8-7.4
			c4.4-4.7,6.9-11.5,7.3-17.6c0.5-6.1-0.5-11.7-1.9-16.7c-2.8-9.9-7.4-18-12.4-25.4c-2.5-3.6-5.5-7.3-7.7-10.1
			c-2.2-2.6-4.2-5.2-6-7.8c-7.5-10.4-12.7-19.8-14.7-30.9C469,30.7,471.3,16.4,478,0c-17.5,3.7-33.1,18.3-38.1,38.8
			c-2.5,10.1-2,21.2,0.7,30.9C443.3,79.7,448,88.5,453.5,96.2z"/>
	</g>
	<g id="Capa_1_128_">
	</g>
</g>
</svg>
