<?xml version="1.0" encoding="utf-8"?>
<!-- Generator: Adobe Illustrator 17.1.0, SVG Export Plug-In . SVG Version: 6.00 Build 0)  -->
<!DOCTYPE svg PUBLIC "-//W3C//DTD SVG 1.1//EN" "http://www.w3.org/Graphics/SVG/1.1/DTD/svg11.dtd">
<svg version="1.1" id="Capa_1" xmlns="http://www.w3.org/2000/svg" xmlns:xlink="http://www.w3.org/1999/xlink" x="0px" y="0px"
	 viewBox="0 0 512 512" enable-background="new 0 0 512 512" xml:space="preserve">
<g>
	<path fill="#FFFFFF" d="M483.4,393.8c0.6-1.8,0.9-3.7,0.9-5.7V177.5c0-10-8.1-18.1-18.1-18.1H365.6v224.1c0,3.6-0.7,7-1.8,10.2H352
		c0.6-1.8,0.9-3.7,0.9-5.7V98.9c0-10-8.1-18.1-18.1-18.1H177.1c-10,0-18.1,8.1-18.1,18.1v289.1c0,2,0.3,3.9,0.9,5.7h-11.8
		c-1.1-3.2-1.8-6.6-1.8-10.2V159.5H48.2c-10,0-18.1,8.1-18.1,18.1v210.5c0,2,0.3,3.9,0.9,5.7H0v37.3h512v-37.3H483.4L483.4,393.8z
		 M84.3,320H58.4v-25.9h25.9V320z M84.3,274.5H58.4v-25.9h25.9V274.5z M84.3,230.6H58.4v-25.9h25.9V230.6z M124.7,320H98.8v-25.9
		h25.9V320z M124.7,274.5H98.8v-25.9h25.9V274.5z M124.7,230.6H98.8v-25.9h25.9V230.6z M296.2,392.6h-76v-94.9h76V392.6z M256,216.4
		c-35.2,0-63.7-28.5-63.7-63.7c0-35.2,28.5-63.7,63.7-63.7c35.2,0,63.7,28.5,63.7,63.7S291.2,216.4,256,216.4z M420.4,320h-25.9
		v-25.9h25.9V320z M420.4,274.5h-25.9v-25.9h25.9V274.5z M420.4,230.6h-25.9v-25.9h25.9V230.6z M460.8,320h-25.9v-25.9h25.9V320z
		 M460.8,274.5h-25.9v-25.9h25.9V274.5z M460.8,230.6h-25.9v-25.9h25.9V230.6z M271.8,136.9h24.4v31.6h-24.4v24.4h-31.6v-24.4h-24.4
		v-31.6h24.4v-24.4h31.6V136.9z"/>
</g>
</svg>
