<?xml version="1.0" encoding="utf-8"?>
<!-- Generator: Adobe Illustrator 17.1.0, SVG Export Plug-In . SVG Version: 6.00 Build 0)  -->
<!DOCTYPE svg PUBLIC "-//W3C//DTD SVG 1.1//EN" "http://www.w3.org/Graphics/SVG/1.1/DTD/svg11.dtd">
<svg version="1.1" id="Capa_1" xmlns="http://www.w3.org/2000/svg" xmlns:xlink="http://www.w3.org/1999/xlink" x="0px" y="0px"
	 viewBox="0 0 512 512" enable-background="new 0 0 512 512" xml:space="preserve">
<g>
	<g>
		<path fill="#FFFFFF" d="M12.3,289.5h11.8c7.8,26.3,17.3,43.6,28.1,51.4c20.4,14.7,44.2,15.5,77.1,16.8l2.5,0.1
			c0,0,3.2,0.1,8.3,0.1c26.9,0,61.3-2.7,72.2-15.4c13.3-15.6,23.6-41.1,26.2-65.4c0-0.4,0.8-10.6,16.9-10.6
			c15.6,0,16.8,9.6,16.9,10.9c2.6,24,12.9,49.6,26.2,65.2c10.9,12.7,45.3,15.4,72.2,15.4c5.1,0,8.3-0.1,8.3-0.1l2.5-0.1
			c32.9-1.2,56.7-2.1,77.1-16.8c10.8-7.8,20.3-25.1,28.1-51.4h12.8c5.7,0,10.7-4.5,11.3-10.1l1-8.9c0.3-2.4-0.5-4.7-1.8-6.6
			c0.5-1.7,0.1-3.5-1.2-4.6c-11.5-10.7-113.3-105-140.4-105c-26.8,0.8-69.3,46.1-71.1,48c-1,1.1-1.5,2.7-1.1,4.2l2,8.3
			c1.3,5.4,5.1,7.4,8.1,7.4c1.9,0,4.8-0.7,7.7-4c22.8-25.5,42.3-41.4,50.6-41.4c9.1,0,51,33.4,88.2,65.7
			c-16.8-1.8-39.7-2.7-68.6-2.7c-42.5,0-87.8,2-111,3.2c-9.9,0.5-26.1,0.5-36,0c-23.2-1.2-68.5-3.2-111-3.2
			c-27.2,0-49.1,0.8-65.5,2.4c37.2-32.2,78.7-65.3,87.8-65.3c8.4,0,27.8,15.8,50.6,41.4c3,3.3,5.8,4,7.8,4c3.1,0,6.8-1.9,8.1-7.4
			l2-8.3c0.4-1.5-0.1-3.1-1.1-4.2c-1.8-1.9-44.3-47.2-71.5-48c-26.7,0-128.5,94.2-140,105c-0.8,0.7-1.2,1.8-1.3,2.8
			c-0.3,0.2-0.7,0.4-0.9,0.7c-1.9,2.1-2.8,4.9-2.5,7.8l1,9C1.7,285,6.6,289.5,12.3,289.5z M292.9,265.4c3.6-4.3,13.4-4.9,22.5-4.9
			l4,0c0,0,39.1-0.4,65,0.1c0.6,0,61.5,1,73.3,2.5c6.5,0.8,10.8,2.5,12.8,5c1.3,1.7,1.7,4,1.3,7.1c-0.8,5.8-8.7,56.5-46,62.8
			c-11.6,2-25.4,3-41,3h-10.3c-15.8,0-29.6-1-41-3c-33.6-5.8-39.3-45-41.5-59.7c-0.2-1.5-0.4-2.7-0.6-3.7
			C290.7,270.4,291.2,267.4,292.9,265.4z M41.2,268.1c1.9-2.5,6.2-4.2,12.8-5c11.8-1.5,72.7-2.5,73.4-2.5c9.7-0.2,21.2-0.3,31.9-0.3
			c17.8,0,33.1,0.2,33.2,0.2l3.9,0c9.1,0,18.9,0.6,22.5,4.9c1.7,2,2.1,5,1.4,9.2c-0.2,1-0.4,2.2-0.6,3.7
			c-2.2,14.7-7.9,53.8-41.5,59.7c-11.4,2-25.2,3-41,3h-10.3c-15.5,0-29.3-1-41-3c-37.2-6.3-45.2-57.1-46-62.8
			C39.5,272.1,40,269.7,41.2,268.1z"/>
	</g>
</g>
</svg>
