<?xml version="1.0" encoding="utf-8"?>
<!-- Generator: Adobe Illustrator 17.1.0, SVG Export Plug-In . SVG Version: 6.00 Build 0)  -->
<!DOCTYPE svg PUBLIC "-//W3C//DTD SVG 1.1//EN" "http://www.w3.org/Graphics/SVG/1.1/DTD/svg11.dtd">
<svg version="1.1" id="Capa_1" xmlns="http://www.w3.org/2000/svg" xmlns:xlink="http://www.w3.org/1999/xlink" x="0px" y="0px"
	 viewBox="0 0 512 512" enable-background="new 0 0 512 512" xml:space="preserve">
<g>
	<g>
		<path fill="#FFFFFF" d="M19.9,193.8h24.9v40.1c0,12.8,10.4,23.2,23.2,23.2c4,0,7.7-1.1,11-2.9v11.3c0,12.8,10.4,23.2,23.2,23.2
			c12.8,0,23.2-10.4,23.2-23.2v-71.6h26.8l23.7-25V154h-50.5V82.4c0-12.8-10.4-23.2-23.2-23.2c-12.8,0-23.2,10.4-23.2,23.2v11.3
			c-3.3-1.8-7-2.9-11-2.9c-12.8,0-23.2,10.4-23.2,23.2V154H19.9C8.9,154,0,162.9,0,173.9S8.9,193.8,19.9,193.8z"/>
		<path fill="#FFFFFF" d="M492.1,154h-30.8v-40.1c0-12.8-10.4-23.2-23.2-23.2c-4,0-7.7,1.1-11,2.9V82.4c0-12.8-10.4-23.2-23.2-23.2
			c-12.8,0-23.2,10.4-23.2,23.2V154h-8.3v39.8h8.3v71.6c0,12.8,10.4,23.2,23.2,23.2c12.8,0,23.2-10.4,23.2-23.2v-11.3
			c3.3,1.8,7,2.9,11.1,2.9c12.8,0,23.2-10.4,23.2-23.2v-40.1h30.8c11,0,19.9-8.9,19.9-19.9C512,162.9,503.1,154,492.1,154z"/>
		<path fill="#FFFFFF" d="M211.8,77.7c-9.9,0-17.9,8-17.9,17.9v72.6l-28.6,30.3c-13.2,14-14.6,37-3.2,52.5l21.8,29.5
			c7.6,10.2,14.2,27.7,14.2,37.5c0,16.6,16,30.1,35.7,30.1h70.3c19.7,0,35.7-16,35.7-35.7v-7.8c0-13.1,8.2-34,13.1-46.5
			c2.4-6.1,3.9-12.1,4.6-18c0.8-6.9-0.6-15.2-3.3-23.4c0-0.5,0.1-1,0.1-1.5v-87.6c0-9.9-8-17.9-17.9-17.9c-9.9,0-17.9,8-17.9,17.9
			v49.2c-6.4-2.4-13.4-3.8-20.9-4c-14.7-0.4-29.3,2.9-43,9.9c-7.7,3.9-12.8,10.7-14.4,19.1c-1.8,10,1.6,21,9.1,29.4
			c1.1,1.2,2.2,2.5,3.3,3.8c-0.1-0.1-0.2-0.2-0.4-0.2c-11.7-7.1-25.6-17.8-33.4-31.7L242,173c3-3.9,9.5-7.1,14.4-7.1h40.9
			c9.9,0,17.9-8,17.9-17.9c0-6-2.9-11.2-7.4-14.5v-26.9c0-9.9-8-17.9-17.9-17.9c-9.9,0-17.9,8-17.9,17.9v23.4H269v-23.4
			c0-9.9-8-17.9-17.9-17.9c-9.9,0-17.9,8-17.9,17.9v24.4c-1.3,0.4-2.4,0.9-3.6,1.6c0,0,0,0-0.1,0V95.6
			C229.6,85.7,221.6,77.7,211.8,77.7z"/>
		<path fill="#FFFFFF" d="M344.2,426.1v-35.7c0-14.8-12-26.8-26.8-26.8H212.5c-14.8,0-26.8,12-26.8,26.8v35.7
			c0,14.8,12,26.8,26.8,26.8h104.9C332.3,452.9,344.2,440.9,344.2,426.1z"/>
	</g>
</g>
</svg>
