<?xml version="1.0" encoding="utf-8"?>
<!-- Generator: Adobe Illustrator 17.1.0, SVG Export Plug-In . SVG Version: 6.00 Build 0)  -->
<!DOCTYPE svg PUBLIC "-//W3C//DTD SVG 1.1//EN" "http://www.w3.org/Graphics/SVG/1.1/DTD/svg11.dtd">
<svg version="1.1" id="Layer_1" xmlns="http://www.w3.org/2000/svg" xmlns:xlink="http://www.w3.org/1999/xlink" x="0px" y="0px"
	 viewBox="0 0 512 512" enable-background="new 0 0 512 512" xml:space="preserve">
<path fill="#FFFFFF" d="M498.1,13.9c-45.8-45.8-191.3,25.5-325,159.2s-205,279.3-159.2,325s191.3-25.5,325-159.2
	S543.9,59.7,498.1,13.9z M129.4,427.9l-45.2-45.2l23.9-23.9l45.2,45.2L129.4,427.9z M236,351.4L160.6,276l23.9-23.9l75.4,75.4
	L236,351.4z M327.6,259.9l-75.4-75.4l23.9-23.9l75.4,75.4L327.6,259.9z M404,153.2L358.8,108l23.9-23.9l45.2,45.2L404,153.2z"/>
</svg>
