<?xml version="1.0" encoding="utf-8"?>
<!-- Generator: Adobe Illustrator 17.1.0, SVG Export Plug-In . SVG Version: 6.00 Build 0)  -->
<!DOCTYPE svg PUBLIC "-//W3C//DTD SVG 1.1//EN" "http://www.w3.org/Graphics/SVG/1.1/DTD/svg11.dtd">
<svg version="1.1" id="Layer_1" xmlns="http://www.w3.org/2000/svg" xmlns:xlink="http://www.w3.org/1999/xlink" x="0px" y="0px"
	 viewBox="0 0 512 512" enable-background="new 0 0 512 512" xml:space="preserve">
<g transform="translate(1 1)">
	<g>
		<g>
			<path fill="#FFFFFF" d="M501.9-1H337.3H172.7H8.1C2.7-1-1,2.7-1,8.1v164.6v164.6v164.6c0,5.5,3.7,9.1,9.1,9.1h164.6h164.6h164.6
				c5.5,0,9.1-3.7,9.1-9.1V337.3V172.7V8.1C511,2.7,507.3-1,501.9-1z M17.3,181.9h146.3v146.3H17.3V181.9z M181.9,181.9h146.3v146.3
				H181.9V181.9z M346.4,181.9h146.3v146.3H346.4V181.9z M492.7,163.6H346.4V17.3h146.3L492.7,163.6L492.7,163.6z M328.1,163.6
				H181.9V17.3h146.3L328.1,163.6L328.1,163.6z M17.3,17.3h146.3v146.3H17.3V17.3z M17.3,346.4h146.3v146.3H17.3V346.4z
				 M181.9,346.4h146.3v146.3H181.9V346.4z M492.7,492.7H346.4V346.4h146.3L492.7,492.7L492.7,492.7z"/>
			<path fill="#FFFFFF" d="M47.5,29.2L29.2,47.5c-3.7,3.7-3.7,9.1,0,12.8c1.8,1.8,4.6,2.7,6.4,2.7c2.7,0,4.6-0.9,6.4-2.7L60.3,42
				c3.7-3.7,3.7-9.1,0-12.8C56.6,25.5,51.1,25.5,47.5,29.2z"/>
			<path fill="#FFFFFF" d="M47.5,74.9L29.2,93.2c-3.7,3.7-3.7,9.1,0,12.8c1.8,1.8,3.7,2.7,6.4,2.7s4.6-0.9,6.4-2.7l18.3-18.3
				c3.7-3.7,3.7-9.1,0-12.8C56.6,71.2,51.1,71.2,47.5,74.9z"/>
			<path fill="#FFFFFF" d="M93.2,29.2L74.9,47.5c-3.7,3.7-3.7,9.1,0,12.8c1.8,1.8,4.6,2.7,6.4,2.7c2.7,0,4.6-0.9,6.4-2.7L106,42
				c3.7-3.7,3.7-9.1,0-12.8C102.3,25.5,96.8,25.5,93.2,29.2z"/>
			<path fill="#FFFFFF" d="M200.1,63c2.7,0,4.6-0.9,6.4-2.7L224.8,42c3.7-3.7,3.7-9.1,0-12.8c-3.7-3.7-9.1-3.7-12.8,0l-18.3,18.3
				c-3.7,3.7-3.7,9.1,0,12.8C195.6,62.1,197.4,63,200.1,63z"/>
			<path fill="#FFFFFF" d="M200.1,108.7c2.7,0,4.6-0.9,6.4-2.7l18.3-18.3c3.7-3.7,3.7-9.1,0-12.8c-3.7-3.7-9.1-3.7-12.8,0
				l-18.3,18.3c-3.7,3.7-3.7,9.1,0,12.8C195.6,107.8,197.4,108.7,200.1,108.7z"/>
			<path fill="#FFFFFF" d="M245.9,63c2.7,0,4.6-0.9,6.4-2.7L270.5,42c3.7-3.7,3.7-9.1,0-12.8s-9.1-3.7-12.8,0l-18.3,18.3
				c-3.7,3.7-3.7,9.1,0,12.8C241.3,62.1,243.1,63,245.9,63z"/>
			<path fill="#FFFFFF" d="M364.7,63c2.7,0,4.6-0.9,6.4-2.7L389.4,42c3.7-3.7,3.7-9.1,0-12.8c-3.7-3.7-9.1-3.7-12.8,0l-18.3,18.3
				c-3.7,3.7-3.7,9.1,0,12.8C360.1,62.1,362,63,364.7,63z"/>
			<path fill="#FFFFFF" d="M364.7,108.7c2.7,0,4.6-0.9,6.4-2.7l18.3-18.3c3.7-3.7,3.7-9.1,0-12.8c-3.7-3.7-9.1-3.7-12.8,0
				l-18.3,18.3c-3.7,3.7-3.7,9.1,0,12.8C360.1,107.8,362,108.7,364.7,108.7z"/>
			<path fill="#FFFFFF" d="M410.4,63c2.7,0,4.6-0.9,6.4-2.7L435.1,42c3.7-3.7,3.7-9.1,0-12.8s-9.1-3.7-12.8,0L404,47.5
				c-3.7,3.7-3.7,9.1,0,12.8C405.9,62.1,407.7,63,410.4,63z"/>
			<path fill="#FFFFFF" d="M47.5,193.7L29.2,212c-3.7,3.7-3.7,9.1,0,12.8c1.8,1.8,3.7,2.7,6.4,2.7c2.7,0,4.6-0.9,6.4-2.7l18.3-18.3
				c3.7-3.7,3.7-9.1,0-12.8C56.6,190.1,51.1,190.1,47.5,193.7z"/>
			<path fill="#FFFFFF" d="M47.5,239.5l-18.3,18.3c-3.7,3.7-3.7,9.1,0,12.8c1.8,1.8,3.7,2.7,6.4,2.7c2.7,0,4.6-0.9,6.4-2.7
				l18.3-18.3c3.7-3.7,3.7-9.1,0-12.8C56.6,235.8,51.1,235.8,47.5,239.5z"/>
			<path fill="#FFFFFF" d="M93.2,193.7L74.9,212c-3.7,3.7-3.7,9.1,0,12.8c1.8,1.8,3.7,2.7,6.4,2.7c2.7,0,4.6-0.9,6.4-2.7l18.3-18.3
				c3.7-3.7,3.7-9.1,0-12.8C102.3,190.1,96.8,190.1,93.2,193.7z"/>
			<path fill="#FFFFFF" d="M212,193.7L193.7,212c-3.7,3.7-3.7,9.1,0,12.8c1.8,1.8,3.7,2.7,6.4,2.7c2.7,0,4.6-0.9,6.4-2.7l18.3-18.3
				c3.7-3.7,3.7-9.1,0-12.8C221.2,190.1,215.7,190.1,212,193.7z"/>
			<path fill="#FFFFFF" d="M212,239.5l-18.3,18.3c-3.7,3.7-3.7,9.1,0,12.8c1.8,1.8,3.7,2.7,6.4,2.7c2.7,0,4.6-0.9,6.4-2.7l18.3-18.3
				c3.7-3.7,3.7-9.1,0-12.8C221.2,235.8,215.7,235.8,212,239.5z"/>
			<path fill="#FFFFFF" d="M257.7,193.7L239.5,212c-3.7,3.7-3.7,9.1,0,12.8c1.8,1.8,3.7,2.7,6.4,2.7c2.7,0,4.6-0.9,6.4-2.7
				l18.3-18.3c3.7-3.7,3.7-9.1,0-12.8C266.9,190.1,261.4,190.1,257.7,193.7z"/>
			<path fill="#FFFFFF" d="M376.6,193.7L358.3,212c-3.7,3.7-3.7,9.1,0,12.8c1.8,1.8,3.7,2.7,6.4,2.7s4.6-0.9,6.4-2.7l18.3-18.3
				c3.7-3.7,3.7-9.1,0-12.8C385.7,190.1,380.3,190.1,376.6,193.7z"/>
			<path fill="#FFFFFF" d="M376.6,239.5l-18.3,18.3c-3.7,3.7-3.7,9.1,0,12.8c1.8,1.8,3.7,2.7,6.4,2.7s4.6-0.9,6.4-2.7l18.3-18.3
				c3.7-3.7,3.7-9.1,0-12.8C385.7,235.8,380.3,235.8,376.6,239.5z"/>
			<path fill="#FFFFFF" d="M422.3,193.7L404,212c-3.7,3.7-3.7,9.1,0,12.8c1.8,1.8,3.7,2.7,6.4,2.7s4.6-0.9,6.4-2.7l18.3-18.3
				c3.7-3.7,3.7-9.1,0-12.8C431.5,190.1,426,190.1,422.3,193.7z"/>
			<path fill="#FFFFFF" d="M47.5,358.3l-18.3,18.3c-3.7,3.7-3.7,9.1,0,12.8c1.8,1.8,3.7,2.7,6.4,2.7c2.7,0,4.6-0.9,6.4-2.7
				l18.3-18.3c3.7-3.7,3.7-9.1,0-12.8C56.6,354.7,51.1,354.7,47.5,358.3z"/>
			<path fill="#FFFFFF" d="M47.5,404l-18.3,18.3c-3.7,3.7-3.7,9.1,0,12.8c1.8,1.8,3.7,2.7,6.4,2.7c2.7,0,4.6-0.9,6.4-2.7l18.3-18.3
				c3.7-3.7,3.7-9.1,0-12.8C56.6,400.4,51.1,400.4,47.5,404z"/>
			<path fill="#FFFFFF" d="M93.2,358.3l-18.3,18.3c-3.7,3.7-3.7,9.1,0,12.8c1.8,1.8,3.7,2.7,6.4,2.7c2.7,0,4.6-0.9,6.4-2.7
				l18.3-18.3c3.7-3.7,3.7-9.1,0-12.8C102.3,354.7,96.8,354.7,93.2,358.3z"/>
			<path fill="#FFFFFF" d="M212,358.3l-18.3,18.3c-3.7,3.7-3.7,9.1,0,12.8c1.8,1.8,3.7,2.7,6.4,2.7c2.7,0,4.6-0.9,6.4-2.7l18.3-18.3
				c3.7-3.7,3.7-9.1,0-12.8C221.2,354.7,215.7,354.7,212,358.3z"/>
			<path fill="#FFFFFF" d="M212,404l-18.3,18.3c-3.7,3.7-3.7,9.1,0,12.8c1.8,1.8,3.7,2.7,6.4,2.7c2.7,0,4.6-0.9,6.4-2.7l18.3-18.3
				c3.7-3.7,3.7-9.1,0-12.8C221.2,400.4,215.7,400.4,212,404z"/>
			<path fill="#FFFFFF" d="M257.7,358.3l-18.3,18.3c-3.7,3.7-3.7,9.1,0,12.8c1.8,1.8,3.7,2.7,6.4,2.7c2.7,0,4.6-0.9,6.4-2.7
				l18.3-18.3c3.7-3.7,3.7-9.1,0-12.8C266.9,354.7,261.4,354.7,257.7,358.3z"/>
			<path fill="#FFFFFF" d="M364.7,392.1c2.7,0,4.6-0.9,6.4-2.7l18.3-18.3c3.7-3.7,3.7-9.1,0-12.8c-3.7-3.7-9.1-3.7-12.8,0
				l-18.3,18.3c-3.7,3.7-3.7,9.1,0,12.8C360.1,391.2,362,392.1,364.7,392.1z"/>
			<path fill="#FFFFFF" d="M364.7,437.9c2.7,0,4.6-0.9,6.4-2.7l18.3-18.3c3.7-3.7,3.7-9.1,0-12.8c-3.7-3.7-9.1-3.7-12.8,0
				l-18.3,18.3c-3.7,3.7-3.7,9.1,0,12.8C360.1,436.9,362,437.9,364.7,437.9z"/>
			<path fill="#FFFFFF" d="M410.4,392.1c2.7,0,4.6-0.9,6.4-2.7l18.3-18.3c3.7-3.7,3.7-9.1,0-12.8c-3.7-3.7-9.1-3.7-12.8,0L404,376.6
				c-3.7,3.7-3.7,9.1,0,12.8C405.9,391.2,407.7,392.1,410.4,392.1z"/>
		</g>
	</g>
</g>
</svg>
