<?xml version="1.0" encoding="utf-8"?>
<!-- Generator: Adobe Illustrator 17.1.0, SVG Export Plug-In . SVG Version: 6.00 Build 0)  -->
<!DOCTYPE svg PUBLIC "-//W3C//DTD SVG 1.1//EN" "http://www.w3.org/Graphics/SVG/1.1/DTD/svg11.dtd">
<svg version="1.1" id="Layer_1" xmlns="http://www.w3.org/2000/svg" xmlns:xlink="http://www.w3.org/1999/xlink" x="0px" y="0px"
	 viewBox="0 0 800 800" enable-background="new 0 0 800 800" xml:space="preserve">
<g>
	<path fill="#FFFFFF" d="M314.6,277.7h45c3.1,0,5.6-2.5,5.6-5.6s2.5-5.6,5.6-5.6H514c2.7,0,4.8-1.9,5.5-4.4l10.2-45
		c0.8-3.6-1.9-6.9-5.5-6.9H342.9c-18.6,0-33.8,15.2-33.8,33.8v28.1C309,275.2,311.7,277.7,314.6,277.7L314.6,277.7z"/>
	<path fill="#FFFFFF" d="M523.2,721.5H337.3c-15.6,0-28.1,12.7-28.1,28.1c0,15.6,12.7,28.1,28.1,28.1h185.9
		c15.6,0,28.1-12.7,28.1-28.1C551.3,734,538.7,721.5,523.2,721.5L523.2,721.5z"/>
	<path fill="#FFFFFF" d="M441.3,683.3c9.4,0,17-7.7,17-17V554c0-9.4-7.7-17-17-17h-22.2c-9.4,0-17,7.7-17,17v112.3
		c0,9.4,7.7,17,17,17H441.3z"/>
	<path fill="#FFFFFF" d="M793.1,35.2c-5.3-6.9-13.6-10.9-22.3-10.9H645.3c-12.8,0-24.1,8.8-27.3,21.1l-70.3,271.7H244.3
		c-11.9,0-21.9,7.3-26.1,17.7c0,0,0,0,0,0.2L101,628.7H27.1C11.5,628.7-1,641.3-1,656.8c0,15.6,12.7,28.1,28.1,28.1h93
		c11.6,0,21.9-7,26.1-17.7l67-168.1h449.2c12.8,0,24.1-8.8,27.3-21.1L797.9,59.8C800.3,51,798.4,42.1,793.1,35.2L793.1,35.2z"/>
</g>
</svg>
