<?xml version="1.0" encoding="utf-8"?>
<!-- Generator: Adobe Illustrator 17.1.0, SVG Export Plug-In . SVG Version: 6.00 Build 0)  -->
<!DOCTYPE svg PUBLIC "-//W3C//DTD SVG 1.1//EN" "http://www.w3.org/Graphics/SVG/1.1/DTD/svg11.dtd">
<svg version="1.1" id="Capa_1" xmlns="http://www.w3.org/2000/svg" xmlns:xlink="http://www.w3.org/1999/xlink" x="0px" y="0px"
	 viewBox="0 0 512 512" enable-background="new 0 0 512 512" xml:space="preserve">
<path fill="#FFFFFF" d="M469.5,318.3C448,296.9,419.5,285,389.2,285c-9.2,0-18.2,1.1-26.9,3.2l-23-22.8l108.1-108.1
	c20-20,31-46.4,31.2-74.4c0.2-28.1-10.7-54.5-30.7-74.5L439.5,0L256,182.5L72.5,0l-8.5,8.5C44.1,28.4,33.2,54.9,33.4,83
	c0.2,28,11.2,54.4,31.2,74.3l108.1,108.1l-23,22.9c-8.7-2.1-17.7-3.2-26.9-3.2c-30.3,0-58.8,11.8-80.2,33.2
	c-44.2,44.2-44.2,116.2,0,160.5C64,500.2,92.5,512,122.8,512c30.3,0,58.8-11.8,80.2-33.2c29-29,39-69.8,30-107l23-23l23,23
	c-9,37.2,1,78.1,30,107c21.4,21.4,49.9,33.2,80.2,33.2c30.3,0,58.8-11.8,80.2-33.2C513.7,434.5,513.7,362.5,469.5,318.3z M152,427.7
	c-7.8,7.8-18.2,12.1-29.2,12.1c-11,0-21.4-4.3-29.2-12.1c-16.1-16.1-16.1-42.3,0-58.4c7.8-7.8,18.2-12.1,29.2-12.1
	c11,0,21.4,4.3,29.2,12.1C168,385.4,168,411.6,152,427.7z M418.4,427.7c-7.8,7.8-18.2,12.1-29.2,12.1c-11,0-21.4-4.3-29.2-12.1
	c-16.1-16.1-16.1-42.3,0-58.4c7.8-7.8,18.2-12.1,29.2-12.1c11,0,21.4,4.3,29.2,12.1C434.5,385.4,434.5,411.6,418.4,427.7z"/>
</svg>
