<?xml version="1.0" encoding="utf-8"?>
<!-- Generator: Adobe Illustrator 17.1.0, SVG Export Plug-In . SVG Version: 6.00 Build 0)  -->
<!DOCTYPE svg PUBLIC "-//W3C//DTD SVG 1.1//EN" "http://www.w3.org/Graphics/SVG/1.1/DTD/svg11.dtd">
<svg version="1.1" id="Capa_1" xmlns="http://www.w3.org/2000/svg" xmlns:xlink="http://www.w3.org/1999/xlink" x="0px" y="0px"
	 viewBox="0 0 512 512" enable-background="new 0 0 512 512" xml:space="preserve">
<g>
	<g>
		<path fill="#FFFFFF" d="M510.8,350.6c-1.1-1.4-2.7-2.2-4.4-2.2h-51.6c-13.7-48.1-62-91.1-165.4-91.1c-31.7,0-65.4,5.6-97.3,15.2
			c-1-9.8-4.4-16-7.3-20.9c-3-5-5.4-8.9-5.4-17.6c0-8.6,2.4-12.5,5.4-17.5c3.5-5.8,7.8-12.9,7.8-26.2v-48.6h9.6
			c16.8,0,27.4-8.6,36.8-16.1c7.2-5.8,13.4-10.8,21.9-11.8c27.9-3.5,159.3-38.2,164.8-39.7c5.9-1.6,9.5-7.7,7.9-13.6
			c-1.6-5.9-7.7-9.5-13.6-7.9c-1.3,0.4-135.4,35.8-161.9,39.1c-14.8,1.9-24.5,9.7-33.1,16.6c-8.6,6.9-14.4,11.2-22.9,11.2h-9.6V114
			c0-4.6-3.7-8.3-8.3-8.3c-4.6,0-8.3,3.7-8.3,8.3v5.6h-9.5V114c0-4.6-3.7-8.3-8.3-8.3c-4.6,0-8.3,3.7-8.3,8.3v5.6h-9.5V114
			c0-4.6-3.7-8.3-8.3-8.3c-4.6,0-8.3,3.7-8.3,8.3v5.6h-9.5V114c0-4.6-3.7-8.3-8.3-8.3s-8.3,3.7-8.3,8.3v5.6H89
			c-6.1,0-11.1,5-11.1,11.1s5,11.1,11.1,11.1h8.1v48.6c0,8.6-2.4,12.5-5.4,17.5c-3.5,5.8-7.8,12.9-7.8,26.1
			c0,13.2,4.3,20.4,7.8,26.2c3,5,5.4,9,5.4,17.6c0,8.6-2.4,12.6-5.4,17.6c-3.5,5.8-7.8,12.9-7.8,26.2c0,2.6,1.3,4.9,3.2,6.4
			c-7.1,6.5-13.3,13.3-18.4,20.3H5.6c-1.7,0-3.4,0.8-4.4,2.2s-1.4,3.2-1,4.9C13.8,405.7,68.4,459.7,128,459.7h256
			c59.6,0,114.2-53.9,127.8-104.3C512.3,353.7,511.9,351.9,510.8,350.6z M175.3,337.3c20.5,0,37.3,3.9,49.6,11H119.2
			C136.5,341.6,156.4,337.3,175.3,337.3z M250.9,348.4c-14.3-16.8-39.3-26.8-71.4-27.6c0-0.5,0.1-1,0.1-1.4
			c11.2-1.9,22.6-3.1,33.7-3.1c41.3,0,72,11.8,87.6,32.1L250.9,348.4L250.9,348.4z M320.8,348.4c-14.1-27.1-46.9-48.8-107.4-48.8
			c-3.1,0-6.3,0.2-9.5,0.3c15.7-3,31.7-4.8,47.5-4.8c60.1,0,102.6,19.8,118.8,53.2L320.8,348.4L320.8,348.4z M437.4,348.4h-49.1
			c-14.1-37.7-54.9-69.9-136.9-69.9c-4.9,0-9.8,0.2-14.8,0.5c17.5-3.1,35.3-4.9,52.8-4.9C367.8,274,421.4,301.8,437.4,348.4z
			 M175.9,141.8v48.6c0,8.6-2.4,12.5-5.4,17.5c-3.5,5.8-7.8,12.9-7.8,26.1s4.3,20.4,7.8,26.2c3,5,5.4,9,5.4,17.6
			c-3.3,1.2-6.6,2.4-9.9,3.7c0.1-1.2,0.3-2.3,0.3-3.7c0-13.2-4.3-20.4-7.8-26.2c-3-5-5.4-8.9-5.4-17.6c0-8.6,2.4-12.5,5.4-17.5
			c3.5-5.8,7.8-12.9,7.8-26.2v-48.6L175.9,141.8L175.9,141.8z M149.6,141.8v48.6c0,8.6-2.4,12.5-5.4,17.5
			c-3.5,5.8-7.8,12.9-7.8,26.1s4.3,20.4,7.8,26.2c3,5,5.4,9,5.4,17.6c0,5.1-0.9,8.6-2.2,11.6c-3.5,1.6-6.9,3.3-10.2,5
			c1.7-4.3,2.9-9.5,2.9-16.6c0-13.2-4.3-20.4-7.8-26.2c-3-5-5.4-8.9-5.4-17.6c0-8.6,2.4-12.5,5.4-17.5c3.5-5.8,7.8-12.9,7.8-26.2
			v-48.6H149.6z M106.1,251.7c-3-5-5.4-8.9-5.4-17.6c0-8.6,2.4-12.5,5.4-17.5c3.5-5.8,7.8-12.9,7.8-26.2v-48.6h9.5v48.6
			c0,8.6-2.4,12.5-5.4,17.5c-3.5,5.8-7.8,12.9-7.8,26.1s4.3,20.4,7.8,26.2c3,5,5.4,9,5.4,17.6c0,8.6-2.4,12.6-5.4,17.6
			c-2.1,3.6-4.5,7.9-6.1,13.6c-3.8,2.5-7.4,5-10.9,7.6c0.7-5.3,2.7-8.7,5-12.6c3.5-5.8,7.8-12.9,7.8-26.2
			C113.9,264.6,109.5,257.4,106.1,251.7z"/>
	</g>
</g>
</svg>
