<?xml version="1.0" encoding="utf-8"?>
<!-- Generator: Adobe Illustrator 17.1.0, SVG Export Plug-In . SVG Version: 6.00 Build 0)  -->
<!DOCTYPE svg PUBLIC "-//W3C//DTD SVG 1.1//EN" "http://www.w3.org/Graphics/SVG/1.1/DTD/svg11.dtd">
<svg version="1.1" id="Capa_1" xmlns="http://www.w3.org/2000/svg" xmlns:xlink="http://www.w3.org/1999/xlink" x="0px" y="0px"
	 viewBox="0 0 512 512" enable-background="new 0 0 512 512" xml:space="preserve">
<path fill="#FFFFFF" d="M502.9,512H9.1c-5,0-9.1-4.1-9.1-9.1V9.1C0,4.1,4.1,0,9.1,0h493.8c5,0,9.1,4.1,9.1,9.1v493.8
	C512,507.9,507.9,512,502.9,512z M382.8,493.8h111v-111L390.9,485.8c0,0,0,0,0,0c0,0,0,0,0,0L382.8,493.8z M241.1,493.8h116
	l14.4-14.4l-58-58L241.1,493.8z M108.8,493.8h106.6l158.3-158.3l-53.3-53.3L152.3,450.3l0,0L108.8,493.8z M18.2,493.8H83l49.9-49.9
	L77,387.9l-58.8,58.8V493.8z M326.4,408.5l58,58l109.4-109.4v-116L392.9,342l0,0L326.4,408.5z M89.9,375l55.9,55.9l279.2-279.2
	l-55.9-55.9L259.6,205.3c0,0,0,0,0,0L89.9,375z M18.2,298.7V421l52.3-52.3c0,0,0.1-0.1,0.1-0.1c0,0,0.1-0.1,0.1-0.1l169.6-169.6
	L180.4,139L18.2,298.7z M333.2,269.4l53.3,53.3l107-107c0.1-0.1,0.2-0.2,0.3-0.3V108.8L333.2,269.4z M18.2,150.1v123l72.1-71
	l-61.8-61.8L18.2,150.1z M41.8,127.9l61.5,61.5L276.6,18.8h-119L41.8,127.9z M193.4,126.2l59.8,59.8L421,18.2H303.1L193.4,126.2z
	 M382,82.9l55.9,55.9L493.8,83V18.2h-47.1L382,82.9z M18.2,18.2v106.8l3.4-3.2c0.2-0.2,0.4-0.5,0.6-0.7c0.3-0.3,0.7-0.7,1.1-0.9
	l108.3-102H18.2z"/>
</svg>
