<?xml version="1.0" encoding="utf-8"?>
<!-- Generator: Adobe Illustrator 17.1.0, SVG Export Plug-In . SVG Version: 6.00 Build 0)  -->
<!DOCTYPE svg PUBLIC "-//W3C//DTD SVG 1.1//EN" "http://www.w3.org/Graphics/SVG/1.1/DTD/svg11.dtd">
<svg version="1.1" id="Capa_1" xmlns="http://www.w3.org/2000/svg" xmlns:xlink="http://www.w3.org/1999/xlink" x="0px" y="0px"
	 viewBox="0 0 512 512" enable-background="new 0 0 512 512" xml:space="preserve">
<g>
	<g>
		<path fill="#FFFFFF" d="M511.4,374.7c-0.5-0.6-1.2-0.9-2-0.9H2.6c-0.8,0-1.5,0.3-2,0.9c-0.5,0.6-0.7,1.3-0.6,2.1
			c0.1,0.5,7.7,47.4,67,47.4h377.9c59.3,0,67-46.9,67-47.4C512.1,376,511.9,375.2,511.4,374.7z M294.1,407.7h-76.2v-17.5h76.2V407.7
			z"/>
		<path fill="#FFFFFF" d="M55.2,355.5h401.5c5.8,0,10.5-4.7,10.5-10.5V98.4c0-5.8-4.7-10.5-10.5-10.5H55.2
			c-5.8,0-10.5,4.7-10.5,10.5V345C44.7,350.8,49.4,355.5,55.2,355.5z M81.5,124.7h348.9v194H81.5L81.5,124.7L81.5,124.7z"/>
	</g>
</g>
</svg>
