<?xml version="1.0" encoding="utf-8"?>
<!-- Generator: Adobe Illustrator 17.1.0, SVG Export Plug-In . SVG Version: 6.00 Build 0)  -->
<!DOCTYPE svg PUBLIC "-//W3C//DTD SVG 1.1//EN" "http://www.w3.org/Graphics/SVG/1.1/DTD/svg11.dtd">
<svg version="1.1" id="Capa_1" xmlns="http://www.w3.org/2000/svg" xmlns:xlink="http://www.w3.org/1999/xlink" x="0px" y="0px"
	 viewBox="0 0 800 800" enable-background="new 0 0 800 800" xml:space="preserve">
<g>
	<polygon fill="#FFFFFF" points="558.1,117.9 243,117.9 160.7,235.7 641.7,235.7 	"/>
	<rect x="253.6" y="0" fill="#FFFFFF" width="292.9" height="67.9"/>
	<path fill="#FFFFFF" d="M157.1,285.7V800h485.7V285.7H157.1z M339.3,564.3h-24.9l0.6-78.6h-0.5l-29.1,78.6h-19l-28.3-78.6h-0.5
		l0.6,78.6h-27.7V453.6h40.7l25.4,71.4h0.6l24.3-71.4h37.5V564.3z M389.3,564.3h-25V453.6h25V564.3z M482.1,564.3h-67.9V453.6h25
		v89.3h42.9V564.3z M565.7,564.3l-41.6-50h-2.7v50h-25V453.6h25V500h2.9l40-46.4h33.8l-48.2,50.9l51,59.8H565.7z"/>
</g>
</svg>
