<?xml version="1.0" encoding="utf-8"?>
<!-- Generator: Adobe Illustrator 17.1.0, SVG Export Plug-In . SVG Version: 6.00 Build 0)  -->
<!DOCTYPE svg PUBLIC "-//W3C//DTD SVG 1.1//EN" "http://www.w3.org/Graphics/SVG/1.1/DTD/svg11.dtd">
<svg version="1.1" id="Capa_1" xmlns="http://www.w3.org/2000/svg" xmlns:xlink="http://www.w3.org/1999/xlink" x="0px" y="0px"
	 viewBox="0 0 512 512" enable-background="new 0 0 512 512" xml:space="preserve">
<g>
	<g>
		<path fill="#FFFFFF" d="M40.2,348.1h39.5v48.6c0,7.8,6.2,14,14,14h24.8c7.8,0,14.5-6.2,14.5-14v-48.6h190.7v48.6
			c0,7.8,6.3,14,14.2,14h24.8c7.8,0,14.4-6.2,14.4-14v-48.6h39.1c13.4,0,24.5-10.9,24.5-24.4v-36.3c0-13.4-11-24.4-24.5-24.4h-31.7
			v-61.4L488,164.8c8.3-2.9,12.7-12.1,9.7-20.3c-2.9-8.3-12.1-12.6-20.4-9.7l-92.9,33v-2.4c0-13.4-10.6-23.9-24-23.9h-99.9
			c-13.4,0-24.6,10.5-24.6,23.9V263h-28.5L141.5,72.3h2c7.8,0,13.8-6.3,13.8-14.1V22.9c0-7.8-6-14.1-13.8-14.1h-36.5
			c-7.8,0-14.1,6.3-14.1,14.1v35.4c0,7.8,6.3,14.1,14.1,14.1h1.4L43,263h-2.8c-13.4,0-24.1,11-24.1,24.4v36.3
			C16.1,337.1,26.8,348.1,40.2,348.1z M124.9,122.4l23,66.8h-45.9L124.9,122.4z M91.2,221H159l14.6,42.1H76.7L91.2,221z"/>
		<path fill="#FFFFFF" d="M15.9,456.5h392.6c8.8,0,15.9-7.1,15.9-15.9c0-8.8-7.1-15.9-15.9-15.9H15.9c-8.8,0-15.9,7.1-15.9,15.9
			C0,449.4,7.1,456.5,15.9,456.5z"/>
		<path fill="#FFFFFF" d="M159.2,470.5H15.9c-8.8,0-15.9,7.6-15.9,16.4c0,8.8,7.1,16.4,15.9,16.4h143.3c8.8,0,15.9-7.6,15.9-16.4
			C175.1,478.1,168,470.5,159.2,470.5z"/>
		<path fill="#FFFFFF" d="M496.1,470.5H223.7c-8.8,0-15.9,7.6-15.9,16.4c0,8.8,7.1,16.4,15.9,16.4h272.4c8.8,0,15.9-7.6,15.9-16.4
			C512,478.1,504.9,470.5,496.1,470.5z"/>
	</g>
</g>
</svg>
