<?xml version="1.0" encoding="utf-8"?>
<!-- Generator: Adobe Illustrator 17.1.0, SVG Export Plug-In . SVG Version: 6.00 Build 0)  -->
<!DOCTYPE svg PUBLIC "-//W3C//DTD SVG 1.1//EN" "http://www.w3.org/Graphics/SVG/1.1/DTD/svg11.dtd">
<svg version="1.1" id="Layer_1" xmlns="http://www.w3.org/2000/svg" xmlns:xlink="http://www.w3.org/1999/xlink" x="0px" y="0px"
	 viewBox="0 0 512 512" enable-background="new 0 0 512 512" xml:space="preserve">
<g>
	<path fill="#FFFFFF" d="M443.7,470.3c-10.8,0-15.4-3.1-22.4-7.8c-8.9-6-20-13.4-40.9-13.4c-20.9,0-32,7.4-40.9,13.4
		c-7.2,4.8-11.6,7.8-22.4,7.8c-10.8,0-15.1-2.9-22.4-7.8c-8.9-6-20-13.4-40.9-13.4s-32,7.4-40.9,13.4c-7.2,4.8-11.6,7.8-22.4,7.8
		c-10.8,0-15.1-2.9-22.4-7.8c-8.9-6-20.1-13.4-40.9-13.4s-32,7.4-41,13.4c-7.2,4.8-11.7,7.8-22.4,7.8c-10.8,0-15.3-2.9-22.5-7.8
		c-8.9-6-20.1-13.4-41.2-13.4v33.4c11.1,0,15.4,2.9,22.7,7.8c8.9,6,20.3,13.4,41.2,13.4s32-7.4,40.9-13.4c7.2-4.8,11.6-7.8,22.4-7.8
		s15.1,2.9,22.4,7.8c8.9,6,20,13.4,40.9,13.4c20.9,0,32-7.4,40.9-13.4c7.2-4.8,11.6-7.8,22.4-7.8c10.8,0,15.1,2.9,22.4,7.8
		c8.9,6,20,13.4,40.9,13.4c20.9,0,32-7.4,40.9-13.4c7.2-4.8,11.6-7.8,22.4-7.8s15.1,2.9,22.4,7.8c8.9,6,20,13.4,40.9,13.4
		s31.7-7.4,40.7-13.4c7-4.7,12.1-7.8,22.1-7.8v-33.4c-20,0-31.7,7.4-40.7,13.4C458.8,467.2,454.4,470.3,443.7,470.3z"/>
	<path fill="#FFFFFF" d="M512,209.3v-99.8C512,53.7,467.1,8.3,411.3,8.3c-28.8,0-54.8,12.1-73.1,31.5C319.3,20,292.8,8.3,264.8,8.3
		c-55.8,0-101.2,45.4-101.2,101.2v271c-8.3-5.2-18.9-10.5-36.5-10.5c-20.9,0-32,7.4-41,13.4c-7.2,4.8-11.7,7.8-22.4,7.8
		c-10.8,0-15.3-2.9-22.5-7.8c-8.9-6-20.1-13.4-41.2-13.4v33.4c11.1,0,15.4,2.9,22.7,7.8c8.9,6,20.3,13.4,41.2,13.4s32-7.4,40.9-13.4
		c7.2-4.8,11.6-7.8,22.4-7.8s15.1,2.9,22.4,7.8c8.9,6,20,13.4,40.9,13.4c20.9,0,32-7.4,40.9-13.4c7.2-4.8,11.6-7.8,22.4-7.8
		c10.8,0,15.1,2.9,22.4,7.8c8.9,6,20,13.4,40.9,13.4c20.9,0,32-7.4,40.9-13.4c7.2-4.8,11.6-7.8,22.4-7.8s15.1,2.9,22.4,7.8
		c8.9,6,20,13.4,40.9,13.4s31.7-7.4,40.7-13.4c7-4.7,12.1-7.8,22.1-7.8v-33.4c-20,0-31.7,7.4-40.7,13.4c-7,4.7-11.3,7.8-22.1,7.8
		s-15.4-3.1-22.4-7.8c-8.9-6-20-13.4-40.9-13.4c-17.6,0-28.2,5.2-36.4,10.5v-271c0-37.4,30-67.8,67.3-67.8
		c37.4,0,67.3,30.4,67.3,67.8v99.8H512z M310.5,390.8c-6.4-1-10.3-3.6-15.8-7.3c-8.9-6-20-13.4-40.9-13.4c-20.9,0-32,7.4-40.9,13.4
		c-5.6,3.7-9.4,6.3-15.8,7.3v-69.1h113.5L310.5,390.8L310.5,390.8z M310.5,288.3H197v-61.2h113.5V288.3z M310.5,109.5v84.2H197
		v-84.2c0-37.4,30.4-67.8,67.8-67.8c21.4,0,41.5,10.2,54.2,27.1C313.6,81.3,310.5,95.1,310.5,109.5z"/>
</g>
</svg>
