<?xml version="1.0" encoding="utf-8"?>
<!-- Generator: Adobe Illustrator 17.1.0, SVG Export Plug-In . SVG Version: 6.00 Build 0)  -->
<!DOCTYPE svg PUBLIC "-//W3C//DTD SVG 1.1//EN" "http://www.w3.org/Graphics/SVG/1.1/DTD/svg11.dtd">
<svg version="1.1" id="Layer_1" xmlns="http://www.w3.org/2000/svg" xmlns:xlink="http://www.w3.org/1999/xlink" x="0px" y="0px"
	 viewBox="0 0 612.3 402.5" enable-background="new 0 0 612.3 402.5" xml:space="preserve">
<g>
	<path fill="#FFFFFF" d="M456.7,0H155.5c-5,0-9,4-9,9v384.6c0,5,4,9,9,9h301.2c5,0,9-4,9-9V9C465.7,4,461.7,0,456.7,0z M447.8,384.6
		H164.5V17.9h283.3V384.6z"/>
	<path fill="#FFFFFF" d="M187.5,303h240.7c5,0,9-4,9-9V39c0-5-4-9-9-9H187.5c-5,0-9,4-9,9V294C178.5,299,182.5,303,187.5,303z
		 M393.7,285.1H222v-10.3h171.7V285.1z M411.6,285.1v-19.3c0-5-4-9-9-9H213c-5,0-9,4-9,9v19.3h-7.6V129.5h135.7v22c0,5,4,9,9,9h2.6
		v27.3c0,5,4,9,9,9h3v1.8c0,5,4,9,9,9s9-4,9-9v-1.8h3c5,0,9-4,9-9v-27.3h2.6c5,0,9-4,9-9v-22h22.1v155.5L411.6,285.1L411.6,285.1z
		 M332.1,111.6H196.4v-9h135.7V111.6z M367.6,178.8h-6v-18.4h6V178.8z M379.2,142.5h-29.1V83.8h29.1V142.5z M397.1,102.7h22.1v9
		h-22.1V102.7z M419.2,47.9v36.8h-22.1v-9.9c0-5-4-9-9-9h-47.1c-5,0-9,4-9,9v9.9H196.4V47.9H419.2z"/>
	<path fill="#FFFFFF" d="M364.6,216.5c-5,0-9,4-9,9v1.8h-1.8c-5,0-9,4-9,9s4,9,9,9h10.8c5,0,9-4,9-9v-10.8
		C373.6,220.5,369.6,216.5,364.6,216.5z"/>
	<path fill="#FFFFFF" d="M318.6,227.3h-24.2c-5,0-9,4-9,9s4,9,9,9h24.2c5,0,9-4,9-9S323.5,227.3,318.6,227.3L318.6,227.3z"/>
	<path fill="#FFFFFF" d="M259.1,227.3h-10.8c-5,0-9,4-9,9s4,9,9,9h10.8c5,0,9-4,9-9S264,227.3,259.1,227.3z"/>
	<path fill="#FFFFFF" d="M201.2,333.5c-2.4,0-4.7,1-6.3,2.6s-2.6,4-2.6,6.3c0,2.4,1,4.7,2.6,6.3c1.7,1.7,4,2.6,6.3,2.6
		c2.4,0,4.7-1,6.3-2.6c1.7-1.7,2.6-4,2.6-6.3c0-2.4-1-4.7-2.6-6.3C205.9,334.4,203.6,333.5,201.2,333.5z"/>
	<path fill="#FFFFFF" d="M238.2,333.5c-2.4,0-4.7,1-6.3,2.6c-1.7,1.7-2.6,4-2.6,6.3c0,2.4,1,4.7,2.6,6.3c1.7,1.7,4,2.6,6.3,2.6
		s4.7-1,6.3-2.6c1.7-1.7,2.6-4,2.6-6.3c0-2.4-1-4.7-2.6-6.3C242.9,334.4,240.6,333.5,238.2,333.5z"/>
	<path fill="#FFFFFF" d="M275.2,333.5c-2.4,0-4.7,1-6.3,2.6c-1.7,1.7-2.6,4-2.6,6.3c0,2.4,1,4.7,2.6,6.3c1.7,1.7,4,2.6,6.3,2.6
		c2.4,0,4.7-1,6.3-2.6c1.7-1.7,2.6-4,2.6-6.3c0-2.4-1-4.7-2.6-6.3S277.6,333.5,275.2,333.5z"/>
</g>
</svg>
