<?xml version="1.0" encoding="utf-8"?>
<!-- Generator: Adobe Illustrator 17.1.0, SVG Export Plug-In . SVG Version: 6.00 Build 0)  -->
<!DOCTYPE svg PUBLIC "-//W3C//DTD SVG 1.1//EN" "http://www.w3.org/Graphics/SVG/1.1/DTD/svg11.dtd">
<svg version="1.1" id="Capa_1" xmlns="http://www.w3.org/2000/svg" xmlns:xlink="http://www.w3.org/1999/xlink" x="0px" y="0px"
	 viewBox="0 0 512 512" enable-background="new 0 0 512 512" xml:space="preserve">
<path fill="#FFFFFF" d="M331.6,126.8c-0.3-0.2-0.5-0.3-0.8-0.5c-0.3-0.1-0.5-0.3-0.8-0.4c-21.9-12.5-47.2-19.6-74.1-19.6
	c-26.9,0-52.2,7.2-74.1,19.7c-0.3,0.1-0.5,0.3-0.8,0.4c-0.3,0.2-0.5,0.3-0.8,0.5c-44.3,26-74.1,74.2-74.1,129.2
	s29.8,103.1,74.1,129.2c0.2,0.2,0.5,0.3,0.8,0.5c0.2,0.1,0.5,0.3,0.8,0.4c21.9,12.5,47.2,19.7,74.1,19.7c26.9,0,52.2-7.1,74.1-19.6
	c0.3-0.1,0.5-0.3,0.8-0.4c0.3-0.2,0.5-0.3,0.8-0.5c44.3-26,74.1-74.2,74.1-129.2C405.7,201,375.9,152.9,331.6,126.8z M256,131.8
	c18,0,35.2,3.9,50.7,10.8l-33.5,58.1c-5.4-1.7-11.2-2.6-17.2-2.6c-6,0-11.7,0.9-17.2,2.6l-33.5-58.1
	C220.8,135.7,238,131.8,256,131.8z M288.3,256c0,17.8-14.5,32.3-32.3,32.3c-17.8,0-32.3-14.5-32.3-32.3c0-17.8,14.5-32.3,32.3-32.3
	C273.8,223.7,288.3,238.2,288.3,256z M183.2,155.5l33.5,58.1c-8.4,7.8-14.6,18.1-17.2,29.7h-67.1
	C136.2,207.2,155.3,175.7,183.2,155.5z M132.5,268.8h67.1c2.6,11.6,8.7,21.9,17.2,29.7l-33.5,58.1
	C155.3,336.3,136.2,304.8,132.5,268.8z M256,380.2c-18,0-35.2-3.9-50.7-10.8l33.5-58.1c5.4,1.7,11.2,2.6,17.2,2.6
	c6,0,11.7-0.9,17.2-2.6l33.5,58.1C291.2,376.3,274,380.2,256,380.2z M328.8,356.5l-33.5-58.1c8.4-7.8,14.5-18.1,17.2-29.7h67.1
	C375.8,304.8,356.7,336.3,328.8,356.5z M312.4,243.2c-2.6-11.6-8.7-21.9-17.2-29.7l33.5-58.1c27.9,20.2,47,51.7,50.7,87.8H312.4z
	 M447.6,228.5c-0.9,0.2-1.8,0.3-2.6,0.3c-5.9,0-11.2-4.1-12.5-10.1c-14.7-69.8-69.3-124.4-139.1-139.1c-6.9-1.5-11.3-8.2-9.9-15.1
	s8.2-11.3,15.1-9.9c79.7,16.8,142,79.1,158.8,158.8C458.9,220.2,454.5,227,447.6,228.5z M228.5,447.6c-1.3,6-6.6,10.1-12.5,10.1
	c-0.9,0-1.8-0.1-2.6-0.3c-79.7-16.8-142-79.1-158.8-158.8c-1.5-6.9,3-13.7,9.9-15.1c6.9-1.5,13.7,3,15.1,9.9
	c14.7,69.8,69.3,124.4,139.1,139.1C225.5,433.9,229.9,440.7,228.5,447.6z M256,243.2L256,243.2c7.1,0,12.8,5.7,12.8,12.8
	s-5.7,12.8-12.8,12.8c-7.1,0-12.8-5.7-12.8-12.8S248.9,243.2,256,243.2z M256,0C114.8,0,0,114.8,0,256s114.8,256,256,256
	c141.2,0,256-114.8,256-256S397.2,0,256,0z M256,486.5C128.9,486.5,25.6,383.1,25.6,256S128.9,25.5,256,25.5
	c127.1,0,230.4,103.4,230.4,230.5S383.1,486.5,256,486.5z"/>
</svg>
