<?xml version="1.0" encoding="utf-8"?>
<!-- Generator: Adobe Illustrator 17.1.0, SVG Export Plug-In . SVG Version: 6.00 Build 0)  -->
<!DOCTYPE svg PUBLIC "-//W3C//DTD SVG 1.1//EN" "http://www.w3.org/Graphics/SVG/1.1/DTD/svg11.dtd">
<svg version="1.1" id="Layer_1" xmlns="http://www.w3.org/2000/svg" xmlns:xlink="http://www.w3.org/1999/xlink" x="0px" y="0px"
	 viewBox="0 0 512 512" enable-background="new 0 0 512 512" xml:space="preserve">
<g>
	<g>
		<path fill="#FFFFFF" d="M490.7,42.7c11.8,0,21.3-9.6,21.3-21.3S502.5,0,490.7,0H277.3C265.6,0,256,9.6,256,21.3
			s9.6,21.3,21.3,21.3h85.3v42.7h-21.3c-11.8,0-21.3,9.6-21.3,21.3v256c-23.5,0-42.7-19.1-42.7-42.7V128c0-35.3-28.7-64-64-64
			c-35.3,0-64,28.7-64,64v149.3c0,15.7-8.6,29.3-21.3,36.7v-15.4c0-11.8-9.5-21.3-21.3-21.3H21.3C9.6,277.3,0,286.9,0,298.7V384
			c0,11.8,9.6,21.3,21.3,21.3h85.3c11.8,0,21.3-9.6,21.3-21.3v-24.4c36.7-9.5,64-42.7,64-82.3V128c0-11.8,9.6-21.3,21.3-21.3
			c11.8,0,21.3,9.6,21.3,21.3v192c0,47.1,38.3,85.3,85.3,85.3v14.9l-39.1,58.6c-4.4,6.5-4.8,15-1,21.9c3.7,6.9,10.9,11.3,18.8,11.3
			h170.7c7.9,0,15.1-4.3,18.8-11.3c3.7-7,3.3-15.4-1.1-21.9L448,420.2V106.7c0-11.8-9.5-21.3-21.3-21.3h-21.3V42.7H490.7z
			 M415.3,448l14.2,21.3h-90.9l14.2-21.3H415.3z"/>
	</g>
</g>
</svg>
