<?xml version="1.0" encoding="utf-8"?>
<!-- Generator: Adobe Illustrator 17.1.0, SVG Export Plug-In . SVG Version: 6.00 Build 0)  -->
<!DOCTYPE svg PUBLIC "-//W3C//DTD SVG 1.1//EN" "http://www.w3.org/Graphics/SVG/1.1/DTD/svg11.dtd">
<svg version="1.1" id="Capa_1" xmlns="http://www.w3.org/2000/svg" xmlns:xlink="http://www.w3.org/1999/xlink" x="0px" y="0px"
	 viewBox="0 0 512 512" enable-background="new 0 0 512 512" xml:space="preserve">
<g>
	<path fill="#FFFFFF" d="M167.3,30.5c0-16.8,13.7-30.5,30.5-30.5c14,0,25.7,9.5,29.3,22.4c0.4,0,0.8-0.1,1.2-0.1
		c12.7,0,22.9,10.3,22.9,22.9c0,3.1-0.6,6-1.7,8.7l0,0c7.9,0,14.2,6.4,14.2,14.2c0,7.8-6.4,14.2-14.2,14.2
		c-7.8,0-14.2-6.4-14.2-14.2c0-0.4,0.1-0.8,0.1-1.2c-2.3,0.7-4.6,1.2-7.1,1.2c-7.7,0-14.4-3.8-18.6-9.6c-3.7,1.6-7.7,2.4-11.9,2.4
		C180.9,61,167.3,47.3,167.3,30.5z M181.1,181.6h-41.8c-7.3,0-13.3,5.9-13.3,13.3v88.9L256,221.5l129.9,62.2v-88.9
		c0-7.3-5.9-13.3-13.3-13.3h-41.8 M330.9,168.3v-8.1c0-7.3-5.9-13.3-13.3-13.3h-32.2l-5.8-52.8h-47.2l-5.8,52.8h-32.2
		c-7.3,0-13.3,5.9-13.3,13.3v8.1H330.9z M256,236.2L63,328.7l57.2,166.8c26.5-12.3,60.6-23.8,95.6-23.8
		c56.2,0,101.3,26.8,160.6,40.4h9.9L449,328.7L256,236.2z"/>
</g>
</svg>
