<?xml version="1.0" encoding="utf-8"?>
<!-- Generator: Adobe Illustrator 17.1.0, SVG Export Plug-In . SVG Version: 6.00 Build 0)  -->
<!DOCTYPE svg PUBLIC "-//W3C//DTD SVG 1.1//EN" "http://www.w3.org/Graphics/SVG/1.1/DTD/svg11.dtd">
<svg version="1.1" id="Layer_1" xmlns="http://www.w3.org/2000/svg" xmlns:xlink="http://www.w3.org/1999/xlink" x="0px" y="0px"
	 viewBox="0 0 512 512" enable-background="new 0 0 512 512" xml:space="preserve">
<g>
	<g>
		<path fill="#FFFFFF" d="M427.7,340c0-9.7-0.8-18.3-2.3-28.7h-0.2c-8.6-51.9-39.9-94.9-84.9-120V83h29.4V0H141.3v83h29.4v108.3
			c-43.2,25.1-75.1,68.1-83.7,120h-0.3c-1.5,10.4-2.3,19-2.3,28.7c0,94.8,76.9,172,171.7,172c0,0,0,0,0.1,0s0,0,0.1,0
			c41,0,78.7-14.6,108.1-38.6C403,441.9,427.7,393.8,427.7,340L427.7,340z M270.7,355.2c0-7.6,6.2-13.8,13.8-13.8
			c7.6,0,13.8,6.2,13.8,13.8s-6.2,13.8-13.8,13.8C276.9,369,270.7,362.8,270.7,355.2z M327.8,412.3c0-7.6,6.2-13.8,13.8-13.8
			c7.6,0,13.8,6.2,13.8,13.8s-6.2,13.8-13.8,13.8C334,426.1,327.8,419.9,327.8,412.3z M156.5,382.8c0-7.6,6.2-13.8,13.8-13.8
			c7.6,0,13.8,6.2,13.8,13.8c0,7.6-6.2,13.8-13.8,13.8C162.7,396.7,156.5,390.5,156.5,382.8z M227.5,426.1
			c-7.6,0-13.8-6.2-13.8-13.8s6.2-13.8,13.8-13.8c7.6,0,13.8,6.2,13.8,13.8S235.1,426.1,227.5,426.1z M132,266.8
			c12.7-21.5,30.9-39.2,52.5-51.6l13.9-7.8v-16V83h114.2v108.3v16l14.5,8c21.6,12.4,40.1,30,52.8,51.5c8.2,13.9,14.2,29,17.3,44.5
			H114.8C118,295.8,123.7,280.7,132,266.8L132,266.8z"/>
		<circle fill="#FFFFFF" cx="213.6" cy="268.7" r="13.8"/>
		<circle fill="#FFFFFF" cx="270.3" cy="240.9" r="13.8"/>
		<circle fill="#FFFFFF" cx="256.4" cy="183.8" r="13.8"/>
	</g>
</g>
</svg>
