<?xml version="1.0" encoding="utf-8"?>
<!-- Generator: Adobe Illustrator 17.1.0, SVG Export Plug-In . SVG Version: 6.00 Build 0)  -->
<!DOCTYPE svg PUBLIC "-//W3C//DTD SVG 1.1//EN" "http://www.w3.org/Graphics/SVG/1.1/DTD/svg11.dtd">
<svg version="1.1" id="Capa_1" xmlns="http://www.w3.org/2000/svg" xmlns:xlink="http://www.w3.org/1999/xlink" x="0px" y="0px"
	 viewBox="0 0 800 800" enable-background="new 0 0 800 800" xml:space="preserve">
<g>
	<path fill="#FFFFFF" d="M187.4,225.4v9.4v50.5c0,5.3,4.3,9.7,9.7,9.7h28.2c5.3,0,9.7-4.3,9.7-9.7v-50.4v-9.4
		c-7.6,2.6-15.5,4.4-23.8,4.4C202.8,229.8,195,228,187.4,225.4z"/>
	<path fill="#FFFFFF" d="M363,55.7c-4.3,3-7.6,7.3-10.3,13.5c-4.5,10.5-15.7,16.7-25.6,16.2c0.1,0,0.1,0.1,0.1,0.1h41.1h51.4h17
		c2.1,1.4,4.5,2.4,7.2,2.4c0.2,0,0.5,0,0.7,0c2.4-0.1,4.6-1.1,6.5-2.4h16.7h12.7h6c5-1.9,10.4-2.7,16-1.3c1,0.3,1.6,0.9,2.6,1.3h3.4
		c-2.3-0.8-4.6-1.6-6.6-3.1c-8.6-6.3-12.1-16.8-10.1-26.7h-11.3H468h-13.8c-5.7-20.6-18.3-31.6-29.2-37.2c-6.5-3.4-14.6-0.8-18,5.7
		c-3.4,6.5-0.8,14.6,5.7,18c4.3,2.2,9.2,6.2,12.9,13.5h-16.3c-1-0.7-2-1.3-2.7-1.6c-8.4-4.3-13.5-12.4-14.3-21.1
		c-2.7,8.8-9.9,16-19.5,18.3C369,52.1,365.8,53.7,363,55.7z"/>
	<path fill="#FFFFFF" d="M274.9,85.4h39.5c1.7-0.4,3.3-1.1,5.2-1.1c0.6,0,0.9,0,1.3,0c-1.1-0.3-2.1-0.7-3.2-1.1
		c-11.1-4.7-17-16.1-15.7-27.6h-64.3C252.7,61.5,265.5,71.9,274.9,85.4z"/>
	<path fill="#FFFFFF" d="M184.5,55.7H14.9C6.7,55.7,0,62.4,0,70.6c0,8.2,6.7,14.9,14.9,14.9h132.5C156.8,71.9,169.6,61.5,184.5,55.7
		z"/>
	<path fill="#FFFFFF" d="M150.2,140c0,38.5,27.3,69.7,60.9,69.7c33.7,0,61-31.2,61-69.7c0-38.5-27.3-69.7-61-69.7
		C177.5,70.3,150.2,101.5,150.2,140z"/>
	<path fill="#FFFFFF" d="M266.6,234.9c-0.2,0-4.8,0-11.8-0.1v166.1h34.4v-53.6l20.8,30.5c5.5,8,14.6,12.8,24.2,12.8
		c1.2,0,2.3-0.1,3.5-0.2l66.8-8.1c16-1.9,27.5-16.5,25.5-32.6c-1.9-16-16.4-27.4-32.6-25.5l-49.2,5.9l-56.8-83.1
		C285.7,238.6,276.2,234.7,266.6,234.9z"/>
	<path fill="#FFFFFF" d="M637.8,187.2c6,0,11.5-4.1,12.9-10.2c0.1-0.5,2.8-11.8,4.3-28.1c0.7-7.3-4.7-13.8-12-14.5
		c-7.1-0.8-13.8,4.7-14.6,12c-1.4,14.3-3.7,24.3-3.7,24.5c-1.7,7.2,2.7,14.3,9.9,16C635.8,187.1,636.8,187.2,637.8,187.2z"/>
	<path fill="#FFFFFF" d="M487.8,176.7c7.1,0,13-5.6,13.3-12.7c0.8-18,3.3-35,7.4-50.6c1.9-7.1-2.3-14.4-9.5-16.3
		c-7.2-2-14.4,2.3-16.3,9.4c-4.7,17.5-7.4,36.4-8.3,56.3c-0.3,7.4,5.4,13.6,12.8,13.9C487.4,176.7,487.6,176.7,487.8,176.7z"/>
	<path fill="#FFFFFF" d="M517.8,74.2c4.1,0,8.1-1.9,10.7-5.4c10-13.5,21.7-20.8,34.9-21.8c7.3-0.5,12.9-6.9,12.3-14.3
		c-0.5-7.3-7.1-12.9-14.3-12.3c-21,1.6-39.8,12.8-54.4,32.5c-4.4,5.9-3.1,14.3,2.8,18.6C512.2,73.4,515,74.2,517.8,74.2z"/>
	<path fill="#FFFFFF" d="M505.7,282.4c1.9,0,3.8-0.4,5.7-1.3c6.7-3.1,9.5-11.1,6.4-17.7c-6.4-13.6-11.1-29.8-13.9-48.2
		c-1.1-7.3-8-12.1-15.2-11.1c-7.3,1.1-12.2,8-11.1,15.2c3.3,20.9,8.7,39.5,16.2,55.4C495.9,279.6,500.7,282.4,505.7,282.4z"/>
	<path fill="#FFFFFF" d="M439.7,114.2c-7.2-2.1-14.5,2-16.6,9c-4.4,14.9-10.6,31-18.4,48c-3.1,6.7-0.2,14.6,6.5,17.7
		c1.8,0.8,3.7,1.2,5.6,1.2c5,0,9.9-2.9,12.1-7.7c8.4-18.2,15-35.5,19.8-51.6C450.8,123.7,446.8,116.3,439.7,114.2z"/>
	<path fill="#FFFFFF" d="M324.2,219.7c8.3,30,16.4,51.2,16.7,52.1c2,5.3,7.1,8.6,12.4,8.6c1.6,0,3.2-0.3,4.8-0.9
		c6.9-2.6,10.3-10.3,7.7-17.2c-0.1-0.2-8-20.9-15.9-49.7c-2-7.1-9.2-11.2-16.4-9.3C326.4,205.2,322.2,212.6,324.2,219.7z"/>
	<path fill="#FFFFFF" d="M319.8,97.7c0,0-0.1,0-0.1,0c-7.4,0.1-13.3,6.1-13.2,13.4c0.1,16.4,2,35,5.5,55.2c1.1,6.5,6.7,11,13.1,11
		c0.8,0,1.6-0.1,2.3-0.2c7.2-1.3,12.1-8.2,10.8-15.4c-3.3-18.8-5-35.9-5.1-50.8C333.1,103.6,327.1,97.7,319.8,97.7z"/>
	<path fill="#FFFFFF" d="M323,71c1.7,0.7,3.5,1.1,5.2,1.1c5.2,0,10.1-3,12.3-8.1c6-14.1,15.6-22.5,29.4-25.7c7.2-1.7,11.6-8.8,10-16
		c-1.7-7.2-8.7-11.6-16-10c-22.1,5.1-38.6,19.4-47.9,41.3C313,60.3,316.2,68.1,323,71z"/>
	<path fill="#FFFFFF" d="M726.6,439H289.1v-17.6h-25.8V439h-104v-17.6h-25.8V439H87.3c-2.4,0-4.8,0.4-7.1,0.7c1.5-1.6,3-3.2,4.2-5.2
		l49.1-80v46.4h34.2V234.7c-6.6,0-10.8,0-11,0c-10.4-0.6-20.8,4-26.7,13.5L34.5,403.9c-8.4,13.8-4.1,31.8,9.6,40.2
		c4.3,2.7,9.1,3.9,13.9,4.1c-13.2,9.3-21.9,24.6-21.9,41.9v291.5c0,6.6,5.3,12,12,12h33.3c6.6,0,12-5.4,12-12V638h40.8v1.3v97.5
		c0,19.4,15.7,35.1,35.1,35.1c19.4,0,35.1-15.7,35.1-35.1v-97.5V638h14v98.8c0,19.4,15.7,35.1,35.1,35.1c19.4,0,35.1-15.7,35.1-35.1
		V638h432v143.7c0,6.6,5.3,12,12,12h33.3c6.6,0,12-5.4,12-12V490.2C777.8,461.9,754.9,439,726.6,439z"/>
	<path fill="#FFFFFF" d="M673.8,292.6l-2.6,0c-40.9,0-74.5,17.4-74.9,38.8c-0.4,21.8,34.5,40.8,76,41.6l2.7,0
		c40.9,0,74.4-17.4,74.8-38.8C750.2,312.4,715.4,293.4,673.8,292.6z M688.3,362.2c-14.5-0.3-26.1-7.1-26-15.2
		c0.2-8.1,12-14.5,26.5-14.2c14.5,0.3,26.1,7.1,25.9,15.2C714.7,356.1,702.8,362.5,688.3,362.2z"/>
	<path fill="#FFFFFF" d="M767.8,85.4h17.3c8.2,0,14.9-6.7,14.9-14.9c0-8.2-6.7-14.9-14.9-14.9h-26.6c1.8-18.7,6.7-22.4,6.8-22.4
		c1.1-0.7,3.8,0.4,5,1.2c6,4,14.2,2.5,18.4-3.5c4.2-6.1,2.6-14.4-3.4-18.5c-6.3-4.3-20.4-9.7-33.3-2.2
		c-11.9,6.9-18.5,21.8-20.2,45.5h-38.5h-39.4h-15.6c-4.7-7.1-10.1-13.5-16.6-18.6c-5.8-4.6-14.2-3.5-18.7,2.3
		c-3.8,4.9-3.5,11.5,0.2,16.2h-14.9c-1.2-3.8-1.7-7.8-1.2-11.8c-2,4.8-5.4,8.8-9.7,11.8c-3.7,2.6-8.1,4.3-13,4.6
		c-3.4,0.3-13.8,1-25.2,16.4c-3.2,4.3-7.6,6.9-12.3,8.7h54.2h28h14.4c1.2,3.5,2.3,7.1,3.1,11c1.4,6.3,6.9,10.5,13,10.5
		c0.9,0,1.9-0.1,2.8-0.3c7.2-1.5,11.8-8.6,10.3-15.8c-0.4-1.9-1.1-3.6-1.6-5.5h13.8h28.4h31.1c-5.5,41.9-24.5,98.2-87.2,149.6
		c-20,16.4-43.1,36.2-59.6,56.8c-3,3.8-5.8,7.6-8.4,11.4c-0.9-0.2-1.7-0.5-2.6-0.5c-7,0-13.5-1.6-19.6-4.7c-6.4-3.4-14.6-0.9-18,5.7
		c-3.4,6.5-0.9,14.6,5.7,18c7.1,3.7,14.8,5.6,22.7,6.6c-1.1,4.4-1.7,8.8-1.5,13.2c0.8,26.5,27,50.4,101.9,65.4
		c176.7,35.4,137.7-159.9,137.7-159.9S777.8,109.2,767.8,85.4z M675,386.3l-2.9,0c-50.5-0.9-89.6-25.2-89.1-55.2
		c0.5-29.1,39.3-51.9,88.2-51.9l2.9,0c50.5,0.9,89.7,25.2,89.1,55.2C762.6,363.5,723.9,386.3,675,386.3z"/>
</g>
</svg>
