<?xml version="1.0" encoding="utf-8"?>
<!-- Generator: Adobe Illustrator 17.1.0, SVG Export Plug-In . SVG Version: 6.00 Build 0)  -->
<!DOCTYPE svg PUBLIC "-//W3C//DTD SVG 1.1//EN" "http://www.w3.org/Graphics/SVG/1.1/DTD/svg11.dtd">
<svg version="1.1" id="Capa_1" xmlns="http://www.w3.org/2000/svg" xmlns:xlink="http://www.w3.org/1999/xlink" x="0px" y="0px"
	 viewBox="0 0 800 800" enable-background="new 0 0 800 800" xml:space="preserve">
<g>
	<path fill="#FFFFFF" d="M403.5,123.4c4-4,9.3-6.2,15-6.2c5.7,0,11,2.2,15,6.2c4,4,6.2,9.3,6.2,15s-2.2,11-6.2,15c0,0,0,0-0.1,0.1
		c-2.6,1.8-5.2,3.9-7.5,6.2c-21,21-21,55.2,0,76.2c3.2,3.2,7.4,4.8,11.5,4.8c4.2,0,8.4-1.6,11.5-4.8c6.4-6.4,6.4-16.7,0-23.1
		c-8.3-8.3-8.3-21.7,0-30c8.3-8.3,21.7-8.3,30,0c6.4,6.4,16.7,6.4,23.1,0c6.4-6.4,6.4-16.7,0-23.1c-8.5-8.5-19.1-13.5-30.1-15.1
		c0.2-2,0.4-4.1,0.4-6.2c0-14.4-5.6-27.9-15.8-38.1c-10.2-10.2-23.7-15.8-38.1-15.8c-14.4,0-27.9,5.6-38.1,15.8
		c-6.4,6.4-6.4,16.7,0,23.1C386.8,129.7,397.2,129.7,403.5,123.4z"/>
	<path fill="#FFFFFF" d="M435.6,0C270.8,0,137.2,130.1,137.2,290.7c0,8.6,0.4,17.2,1.2,25.6L68.7,472.9c-4.3,9.6-3.4,20.6,2.3,29.4
		c5.7,8.8,15.5,14.1,25.9,14.1h37.9v33.3c0,75,60.2,135.8,134.6,135.8H298V800h324.7V517.1c67.9-53.3,111.3-134.9,111.3-226.4
		C733.9,130.1,600.4,0,435.6,0z M210.3,382c-14.7,0-26.6-11.9-26.6-26.6c0-14.7,11.9-26.6,26.6-26.6c14.7,0,26.6,11.9,26.6,26.6
		C236.9,370.1,225,382,210.3,382z M545.5,733.7h-67.1V701h67.1V733.7z M545.5,668.4h-67.1v-32.7h67.1V668.4z M545.5,603.1h-67.1
		v-32.7h67.1V603.1z M545.5,537.8h-67.1v-32.7h67.1V537.8z M545.5,472.5h-67.1v-32.7h67.1V472.5z M637.5,321.7
		c-4.9,25.6-26.9,44.9-53.3,44.9c-2.6,0-5.1-0.2-7.6-0.6c-9.7,15.1-26.4,25-45.4,25c-1.2,0-2.3,0-3.4-0.1
		c-9.7,9.1-22.5,14.6-36.7,14.6c-17.5,0-33-8.5-43-21.6c-4,0.6-8.1,0.9-12.3,0.9c-32.4,0-60.6-17.9-75.9-44.6
		c-6.1,2-12.7,3.2-19.5,3.2c-32,0-58.5-24.5-62.4-56.2c-5,1.3-10.3,2-15.8,2c-34.8,0-62.9-28.9-62.9-64.5
		c0-26.6,15.7-49.4,38.2-59.3c-0.1-1.7-0.2-3.4-0.2-5.2c0-32.2,25.5-58.3,56.9-58.3c7.4,0,14.4,1.4,20.9,4.1
		c8.7-25,31.9-42.9,59.3-42.9c10.6,0,20.6,2.7,29.3,7.4c13.4-13.8,32-22.4,52.6-22.4c25.7,0,48.3,13.4,61.6,33.7
		c8.2-4,17.5-6.3,27.2-6.3c24.2,0,45.2,14,55.8,34.6c3.4-0.6,6.9-1,10.4-1c31,0,56.1,25.7,56.1,57.4c0,6.6-1.1,13-3.1,19
		c21.4,12.7,35.8,36.3,35.8,63.5C700,286.3,672.8,317.1,637.5,321.7z"/>
	<path fill="#FFFFFF" d="M626.4,171.5c9,0,16.3-7.3,16.3-16.3s-7.3-16.3-16.3-16.3c-29.7,0-53.9,24.2-53.9,53.9
		c0,2.4,0.2,4.8,0.5,7.2c-2.2-3.7-5-7.2-8.1-10.4c-10.2-10.2-23.7-15.8-38.1-15.8c-9,0-16.3,7.3-16.3,16.3c0,9,7.3,16.3,16.3,16.3
		c5.7,0,11,2.2,15,6.2c4,4,6.2,9.3,6.2,15c0,5.7-2.2,11-6.2,15c-4,4-9.3,6.2-15,6.2c-9,0-16.3,7.3-16.3,16.3c0,3,0.8,5.8,2.3,8.3
		c-0.5,0-1.1-0.1-1.6-0.1c-16.1,0-30.5,7.1-40.4,18.3c-2.1-10.2-7.1-19.5-14.6-27c-10.2-10.2-23.7-15.8-38.1-15.8c0,0,0,0,0,0
		c-14.4,0-27.9,5.6-38.1,15.8c-10.2,10.2-15.8,23.7-15.8,38.1c0,9,7.3,16.3,16.3,16.3c9,0,16.3-7.3,16.3-16.3c0-5.7,2.2-11,6.2-15
		c4-4,9.3-6.2,15-6.2c0,0,0,0,0,0c5.7,0,11,2.2,15,6.2c4,4,6.2,9.3,6.2,15c0,9,7.3,16.3,16.3,16.3c0.8,0,1.6-0.1,2.3-0.2
		c-0.4,2.7-0.7,5.5-0.7,8.4c0,29.7,24.2,53.9,53.9,53.9c9,0,16.3-7.3,16.3-16.3c0-9-7.3-16.3-16.3-16.3c-11.7,0-21.2-9.5-21.2-21.2
		c0-11.7,9.5-21.2,21.2-21.2c9,0,16.3-7.3,16.3-16.3c0-3-0.8-5.8-2.3-8.3c0.5,0,1,0.1,1.6,0.1c8,0,15.8-1.8,22.9-5.1
		c2.9,2.9,7,4.7,11.4,4.7c5.7,0,11,2.2,15,6.2c4,4,6.2,9.3,6.2,15s-2.2,11-6.2,15c-4,4-9.3,6.2-15,6.2c-9,0-16.3,7.3-16.3,16.3
		c0,9,7.3,16.3,16.3,16.3c14.4,0,27.9-5.6,38.1-15.8c10.2-10.2,15.8-23.7,15.8-38.1c0-14.4-5.6-27.9-15.8-38.1
		c-6.7-6.7-14.7-11.3-23.6-13.8c3.3-7,5-14.8,5-22.8c0-2.4-0.2-4.8-0.5-7.2c2.2,3.7,5,7.2,8.1,10.4c10.2,10.2,23.7,15.8,38.1,15.8
		c9,0,16.3-7.3,16.3-16.3s-7.3-16.3-16.3-16.3c-5.7,0-11-2.2-15-6.2c-4-4-6.2-9.3-6.2-15C605.2,181,614.7,171.5,626.4,171.5z"/>
	<path fill="#FFFFFF" d="M393.6,222.7c0-9-7.3-16.3-16.3-16.3c-9,0-16.3,7.3-16.3,16.3c0,11.7-9.5,21.2-21.2,21.2
		c-11.7,0-21.2-9.5-21.2-21.2c0,0,0-0.1,0-0.1c0.6-3.2,0.9-6.4,0.9-9.7c0-29.7-24.2-53.9-53.9-53.9c-9,0-16.3,7.3-16.3,16.3
		c0,9,7.3,16.3,16.3,16.3c11.7,0,21.2,9.5,21.2,21.2c0,11.7-9.5,21.2-21.2,21.2c-9,0-16.3,7.3-16.3,16.3c0,9,7.3,16.3,16.3,16.3
		c12,0,23.1-3.9,32-10.6c9.9,12.4,25.1,20.4,42.2,20.4C369.5,276.5,393.6,252.4,393.6,222.7z"/>
</g>
</svg>
