<?xml version="1.0" encoding="utf-8"?>
<!-- Generator: Adobe Illustrator 17.1.0, SVG Export Plug-In . SVG Version: 6.00 Build 0)  -->
<!DOCTYPE svg PUBLIC "-//W3C//DTD SVG 1.1//EN" "http://www.w3.org/Graphics/SVG/1.1/DTD/svg11.dtd">
<svg version="1.1" id="Layer_1" xmlns="http://www.w3.org/2000/svg" xmlns:xlink="http://www.w3.org/1999/xlink" x="0px" y="0px"
	 viewBox="0 0 800 800" enable-background="new 0 0 800 800" xml:space="preserve">
<path fill="#FFFFFF" d="M755.2,302.9V100.6c0-9.5-6.9-17.5-16.2-19c-9.4-1.5-18.4,4-21.4,13c-0.2,0.6-22,57.2-156.1,135.9
	c-113.7,66.8-233.2,72.8-269.5,73c-7.1-15.7-22.9-26.7-41.3-26.7H90.3c-25,0-45.3,20.3-45.3,45.3v2.6h-7.1
	c-20.2,0-36.6,16.4-36.6,36.6v82c0,20.2,16.4,36.6,36.6,36.6H45v2.6c0,25,20.3,45.3,45.3,45.3h27.8l24.4,143.8
	c2.6,15.5,15.9,26.7,31.7,26.7h52.4c9.5,0,18.4-4.1,24.5-11.4s8.7-16.7,7.1-26.1l-22.5-133.1h15.1c18.3,0,34.1-11,41.3-26.7
	c36.3,0.2,155.8,6.2,269.5,72.9c132.2,77.6,155.5,134.6,156.2,136.2c2.7,7.8,10.1,12.9,18.2,12.9c1,0,2.1-0.1,3.1-0.3
	c9.3-1.5,16.2-9.6,16.2-19V501.8c26.3-3.3,46.8-25.8,46.8-53v-92.9C802,328.6,781.5,306.2,755.2,302.9z M257.5,482.5
	c0,3.7-3,6.8-6.8,6.8h-37.9h-78.4H90.3c-3.7,0-6.8-3-6.8-6.8v-21.9V344v-21.9c0-3.7,3-6.8,6.8-6.8h160.4c3.7,0,6.8,3,6.8,6.8v0.3
	v159.7L257.5,482.5L257.5,482.5z"/>
</svg>
