<?xml version="1.0" encoding="utf-8"?>
<!-- Generator: Adobe Illustrator 17.1.0, SVG Export Plug-In . SVG Version: 6.00 Build 0)  -->
<!DOCTYPE svg PUBLIC "-//W3C//DTD SVG 1.1//EN" "http://www.w3.org/Graphics/SVG/1.1/DTD/svg11.dtd">
<svg version="1.1" id="Layer_1" xmlns="http://www.w3.org/2000/svg" xmlns:xlink="http://www.w3.org/1999/xlink" x="0px" y="0px"
	 viewBox="0 0 512 512" enable-background="new 0 0 512 512" xml:space="preserve">
<path fill="#FFFFFF" d="M424.2,479.3V367.8c20.1-6.8,34.6-25.8,34.6-48.3V210c0-28.1-22.8-51-51-51s-51,22.8-51,51v109.5
	c0,22.4,14.5,41.5,34.6,48.3v111.5H281.7V334.4H129.4v-32.7h152.3v-46.8H129.4v-32.7h152.3v-46.8H129.4v-32.7h152.3V95.9H129.4V63.2
	h152.3V0H53.2v479.3h-45V512h495.7v-32.7H424.2z M183.8,479.3h-32.7v-81.7h32.7V479.3z"/>
</svg>
