<?xml version="1.0" encoding="utf-8"?>
<!-- Generator: Adobe Illustrator 17.1.0, SVG Export Plug-In . SVG Version: 6.00 Build 0)  -->
<!DOCTYPE svg PUBLIC "-//W3C//DTD SVG 1.1//EN" "http://www.w3.org/Graphics/SVG/1.1/DTD/svg11.dtd">
<svg version="1.1" id="Capa_1" xmlns="http://www.w3.org/2000/svg" xmlns:xlink="http://www.w3.org/1999/xlink" x="0px" y="0px"
	 viewBox="0 0 512 512" enable-background="new 0 0 512 512" xml:space="preserve">
<g>
	<g id="Layer_5_16_">
		<g>
			<ellipse fill="#FFFFFF" cx="304.4" cy="152.5" rx="64.4" ry="63.7"/>
			<path fill="#FFFFFF" d="M451.7,60.3C412.8,21.4,361,0,305.8,0c-55.2,0-107,21.4-145.9,60.3c-33.2,33.2-53.6,74.8-58.9,120.3
				c-5.2,44.2,4.7,89.9,27.9,128.6c3.2,5.3,3.8,13.9-2.4,20L17.3,438.4c-16.9,17-25,43.2-7.6,60.6l3.3,3.3
				c6.3,6.3,14.5,9.7,23.5,9.7c12.5,0,26-6.3,37-17.3L182.3,386l0.2-0.2c3.2-3.2,7.2-4.9,11.6-4.9c4.6,0,8,1.9,8.7,2.3
				c7.6,4.6,15.5,8.6,23.6,12.2c3.5,1.5,7.1,3,10.7,4.3c5.4,2,10.8,3.8,16.4,5.3c17.7,4.9,35.9,7.5,54.3,7.5
				c21.5,0,42.6-3.4,62.6-10c4-1.3,7.9-2.7,11.8-4.3c14-5.6,27.4-12.8,40-21.5c10.4-7.2,20.3-15.4,29.4-24.6
				C532.1,271.7,532.1,140.8,451.7,60.3z M330.6,338.4L308.2,359c-2.1,1.9-5.5,1.9-7.6,0l-22.4-20.6c-2.1-1.9-3.3-5.8-2.7-8.6
				c0,0,8.4-41.9,11.7-55.7c0.5-2.2-0.2-12.4-0.2-12.4c-0.2-2.8,1.9-5.2,4.8-5.2h25.5c2.8,0,5,2.3,4.8,5.2c0,0-0.9,10.1-0.3,12.4
				c3.3,13.8,11.7,55.7,11.7,55.7C333.9,332.6,332.7,336.5,330.6,338.4z M423,323.4c-3.6,3.6-7.3,7-11.1,10.2
				c-1,0.8-2.7,1.9-4.1-1.1l-27.9-85c-3.8-10.3-14.1-16.1-24.6-16.1c-5.2,0-5.7,0.1-8.9,0.1h-93.8c-12,0-20.8,5.7-24.6,16l-27,82.2
				c-1.1,3.6-3.4,1.9-4.5,0.9c-2.6-2.3-5.2-4.7-7.7-7.2C124,258.8,124,153.6,188.6,89c31.3-31.3,72.9-48.5,117.2-48.5
				c44.3,0,85.9,17.2,117.2,48.5c31.3,31.3,48.5,72.9,48.5,117.2C471.5,250.5,454.2,292.2,423,323.4z"/>
		</g>
	</g>
</g>
</svg>
