<?xml version="1.0" encoding="utf-8"?>
<!-- Generator: Adobe Illustrator 17.1.0, SVG Export Plug-In . SVG Version: 6.00 Build 0)  -->
<!DOCTYPE svg PUBLIC "-//W3C//DTD SVG 1.1//EN" "http://www.w3.org/Graphics/SVG/1.1/DTD/svg11.dtd">
<svg version="1.1" id="Capa_1" xmlns="http://www.w3.org/2000/svg" xmlns:xlink="http://www.w3.org/1999/xlink" x="0px" y="0px"
	 viewBox="0 0 512 512" enable-background="new 0 0 512 512" xml:space="preserve">
<g>
	<g>
		<path fill="#FFFFFF" d="M75.4,280.8c-6.4,31.9,14,63.2,45.8,70.1c32.2,7,64.1-13.5,71-45.7l9.8-89.9c-32.2-17.5-20.4,55-76,43
			C87.8,249.9,77.4,274.4,75.4,280.8z"/>
		<path fill="#FFFFFF" d="M489,388.7c-2.5-7.6-10.7-11.7-18.2-9.2l-40.1,13.3L405.4,317c20.7-10.2,37.7-26.4,48.2-47.4
			c12.7-25.4,14.8-54.2,5.4-82.3L393.1,35L217.8,93.3l11.7,47.6L79.7,108.5L30.3,268.3c-6,27.8-0.8,56.2,14.6,80.1
			c12.7,19.7,31.4,34,53.1,41.9L81,468.4l-41.3-8.9c-7.8-1.6-15.5,3.3-17.2,11.1c-1.7,7.8,3.3,15.5,11.1,17.2l55.2,11.9
			c0,0,0.1,0,0.1,0c0.1,0,0.1,0,0.2,0l55.3,11.9c1,0.2,2,0.3,3.1,0.3c6.6,0,12.6-4.6,14.1-11.4c1.7-7.8-3.3-15.5-11.1-17.2
			l-41.3-8.9l16.8-77.8c2.8,0.2,5.5,0.5,8.3,0.5c49.6,0,93.2-35.3,103.9-85l11.7-87.8l7.7,31.3c14.5,43.5,55,72.8,100.8,72.8
			c6.6,0,13.1-0.8,19.5-2l25.2,75.7l-40,13.3c-7.6,2.5-11.7,10.7-9.2,18.2c2,6.1,7.7,9.9,13.7,9.9c1.5,0,3-0.2,4.6-0.7L479.8,407
			C487.4,404.5,491.5,396.3,489,388.7z M209.9,307.2c-8.8,40.8-50.8,68.2-92,59.3l0,0h0c-20.2-4.4-37.5-16.3-48.7-33.7
			c-11.2-17.4-15-38.1-10.9-57.1l41.3-133.3l128.7,27.8L209.9,307.2z M285.4,247.6l-33.2-135.4l124.9-41.6L432,197.6
			c6.5,19.6,5,40.6-4.2,59.1c-9.3,18.5-25.2,32.3-44.8,38.8c-7.9,2.7-16.2,4-24.5,4C325.1,299.5,295.6,278.2,285.4,247.6z"/>
		<path fill="#FFFFFF" d="M416,205.8c-2.8-6.2-15.7-29.4-52.8-17c-54,18-50.1-55.3-80.2-34.5l19.4,88.3
			c10.4,31.2,44.3,48.2,75.5,37.8C408.9,270.1,425.7,236.8,416,205.8z"/>
		<path fill="#FFFFFF" d="M167.3,32.6c9-0.5,15.9-8.2,15.4-17.2c-0.5-9-8.2-15.9-17.2-15.4c-9,0.5-15.9,8.2-15.4,17.2
			C150.6,26.2,158.3,33.1,167.3,32.6z"/>
		<path fill="#FFFFFF" d="M230.4,61.1c9-0.5,15.9-8.2,15.4-17.2c-0.5-9-8.2-15.9-17.2-15.4c-9,0.5-15.9,8.2-15.4,17.2
			C213.7,54.7,221.4,61.6,230.4,61.1z"/>
		<path fill="#FFFFFF" d="M158.2,74.9c0.5,9,8.2,15.9,17.2,15.4c9-0.5,15.9-8.2,15.5-17.2c-0.5-9-8.2-15.9-17.2-15.4
			C164.7,58.2,157.8,65.9,158.2,74.9z"/>
	</g>
</g>
</svg>
