<?xml version="1.0" encoding="utf-8"?>
<!-- Generator: Adobe Illustrator 17.1.0, SVG Export Plug-In . SVG Version: 6.00 Build 0)  -->
<!DOCTYPE svg PUBLIC "-//W3C//DTD SVG 1.1//EN" "http://www.w3.org/Graphics/SVG/1.1/DTD/svg11.dtd">
<svg version="1.1" id="Capa_1" xmlns="http://www.w3.org/2000/svg" xmlns:xlink="http://www.w3.org/1999/xlink" x="0px" y="0px"
	 viewBox="0 0 512 512" enable-background="new 0 0 512 512" xml:space="preserve">
<g>
	<path fill="#FFFFFF" d="M235.8,238.7V50.9c0-13.2-10.8-24-24-24H24c-13.2,0-24,10.8-24,24v187.8c0,13.2,10.8,24,24,24h187.8
		C225,262.7,235.8,251.9,235.8,238.7z M52.4,235c-13.6,0-24.7-11.1-24.7-24.7c0-13.6,11.1-24.7,24.7-24.7
		c13.6,0,24.7,11.1,24.7,24.7C77.1,223.9,66,235,52.4,235z M52.4,104c-13.6,0-24.7-11.1-24.7-24.7c0-13.6,11.1-24.7,24.7-24.7
		c13.6,0,24.7,11.1,24.7,24.7C77.1,92.9,66,104,52.4,104z M119.5,167.6c-13.6,0-24.7-11.1-24.7-24.7c0-13.6,11.1-24.7,24.7-24.7
		c13.6,0,24.7,11.1,24.7,24.7C144.3,156.6,133.2,167.6,119.5,167.6z M183.4,235c-13.6,0-24.7-11.1-24.7-24.7
		c0-13.6,11.1-24.7,24.7-24.7c13.6,0,24.7,11.1,24.7,24.7C208.1,223.9,197.1,235,183.4,235z M183.4,104c-13.6,0-24.7-11.1-24.7-24.7
		c0-13.6,11.1-24.7,24.7-24.7c13.6,0,24.7,11.1,24.7,24.7C208.1,92.9,197.1,104,183.4,104z"/>
	<path fill="#FFFFFF" d="M511.3,295.7c-1.5-6.2-5.3-11.5-10.7-14.9l-159.9-98.6c-3.8-2.3-8.1-3.5-12.5-3.5
		c-8.4,0-16.1,4.3-20.5,11.4L209.2,350c-6.9,11.3-3.4,26.1,7.8,33l159.9,98.6c3.8,2.3,8.1,3.5,12.5,3.5c8.4,0,16.1-4.3,20.5-11.4
		l98.6-159.9C511.8,308.4,512.8,302,511.3,295.7z M313.3,247.5c-1.5-6.4-0.5-13.1,3-18.7c4.5-7.4,12.4-11.8,21.1-11.8
		c4.6,0,9,1.3,13,3.7c11.6,7.2,15.2,22.4,8.1,34c-4.5,7.4-12.4,11.8-21.1,11.8c-4.6,0-9-1.3-13-3.7
		C318.8,259.3,314.9,253.9,313.3,247.5z M337.1,336.9c-1.5-6.4-0.5-13.1,3-18.7c4.5-7.4,12.4-11.8,21.1-11.8c4.6,0,9,1.3,13,3.7
		c5.6,3.5,9.6,8.9,11.1,15.3c1.5,6.4,0.5,13.1-3,18.7c-4.5,7.4-12.4,11.8-21.1,11.8c-4.6,0-9-1.3-13-3.7
		C342.6,348.8,338.7,343.3,337.1,336.9z M401.3,435.1c-4.5,7.4-12.4,11.8-21.1,11.8c-4.6,0-9-1.3-13-3.7c-5.6-3.5-9.6-8.9-11.1-15.3
		c-1.5-6.4-0.5-13.1,3-18.7c4.5-7.4,12.4-11.8,21.1-11.8c4.6,0,9,1.3,13,3.7C404.8,408.2,408.4,423.5,401.3,435.1z"/>
</g>
</svg>
