<?xml version="1.0" encoding="utf-8"?>
<!-- Generator: Adobe Illustrator 17.1.0, SVG Export Plug-In . SVG Version: 6.00 Build 0)  -->
<!DOCTYPE svg PUBLIC "-//W3C//DTD SVG 1.1//EN" "http://www.w3.org/Graphics/SVG/1.1/DTD/svg11.dtd">
<svg version="1.1" id="Layer_1" xmlns="http://www.w3.org/2000/svg" xmlns:xlink="http://www.w3.org/1999/xlink" x="0px" y="0px"
	 viewBox="0 0 512 512" enable-background="new 0 0 512 512" xml:space="preserve">
<g>
	<path fill="#FFFFFF" d="M507.4,223.8L265.6,5.9c-5.3-4.8-13.4-4.8-18.7,0L4.6,223.8c-4.3,3.9-5.8,10-3.7,15.4c2.1,5.4,7.3,9,13,9
		h41.3L246.8,77.6c5.3-4.9,13.5-4.9,18.9,0l191.6,170.5H498c5.8,0,11-3.6,13-9C513.1,233.8,511.7,227.7,507.4,223.8L507.4,223.8z"/>
	<path fill="#FFFFFF" d="M270.3,349.2c8.7,0,15.8-7.2,15.8-16.1c0-8.9-7.1-16.1-15.8-16.1V349.2L270.3,349.2z"/>
	<path fill="#FFFFFF" d="M182.1,333.1c0,36.7,26.9,67.3,62,73.2V260C209,265.8,182.1,296.4,182.1,333.1z"/>
	<path fill="#FFFFFF" d="M270.3,214.1c6.7,0,12.2,5.5,12.2,12.2v11l5.5-5.6c4.8-4.8,12.5-4.8,17.3,0c4.8,4.8,4.8,12.5,0,17.3
		l-22.9,22.9v22.6c2.2,0.7,4.3,1.6,6.4,2.7l25.6-25.7c4.8-4.8,12.5-4.8,17.3,0c4.8,4.8,4.8,12.5,0,17.3L306,314.6
		c1,2,1.9,4.1,2.6,6.4h22.6l22.8-22.9c4.8-4.8,12.5-4.8,17.3,0c4.8,4.8,4.8,12.5,0,17.3l-5.7,5.7h11c6.7,0,12.2,5.5,12.2,12.2
		c0,6.7-5.5,12.2-12.2,12.2h-11l5.7,5.7c4.8,4.8,4.7,12.5,0,17.3c-2.4,2.4-5.5,3.6-8.6,3.6c-3.1,0-6.3-1.2-8.7-3.6l-22.8-22.9h-22.6
		c-0.7,2.2-1.6,4.3-2.6,6.4l25.7,25.8c4.8,4.8,4.8,12.5,0,17.3c-2.4,2.4-5.5,3.6-8.6,3.6c-3.1,0-6.3-1.2-8.7-3.6l-25.6-25.7
		c-2,1.1-4.1,2-6.4,2.7v22.6l22.9,22.9c4.8,4.8,4.8,12.5,0,17.3c-2.4,2.4-5.5,3.6-8.6,3.6c-3.1,0-6.3-1.2-8.7-3.6l-5.5-5.6v11
		c0,6.8-5.5,12.2-12.2,12.2c-0.6,0-1.2,0.1-1.7,0v57.4H426c7.7,0,14-6.3,14-14V270.2L268.5,117.7v96.3L270.3,214.1L270.3,214.1z"/>
	<path fill="#FFFFFF" d="M72.5,495.7c0,7.7,6.3,14,14,14h157.6V431c-5.5-0.7-10.9-1.8-16.1-3.4l-15.6,36.8c-2,4.7-6.5,7.5-11.3,7.5
		c-1.6,0-3.2-0.3-4.7-1c-6.2-2.6-9.1-9.8-6.5-16l15.7-37.2c-3.6-2.2-7-4.6-10.3-7.2l-10.4,10.4c-2.4,2.4-5.5,3.6-8.6,3.6
		c-3.1,0-6.3-1.2-8.6-3.6c-4.8-4.8-4.8-12.5,0-17.3l10.5-10.5c-2.7-3.6-5.3-7.3-7.5-11.3l-37.3,20.7c-1.9,1-3.9,1.5-5.9,1.5
		c-4.3,0-8.5-2.3-10.7-6.3c-3.3-5.9-1.1-13.3,4.8-16.6l39.7-22c-1.2-4.5-2.1-9.1-2.7-13.8h-17.4c-6.7,0-12.2-5.5-12.2-12.2
		c0-6.8,5.5-12.2,12.2-12.2h17.4c0.6-4.7,1.5-9.3,2.7-13.8l-39.7-22c-5.9-3.3-8-10.7-4.8-16.6c3.3-5.9,10.7-8,16.6-4.8l37.3,20.7
		c2.2-3.9,4.7-7.7,7.5-11.3l-10.5-10.5c-4.8-4.8-4.8-12.5,0-17.3c4.8-4.8,12.5-4.8,17.3,0l10.4,10.4c3.6-2.8,7.3-5.4,11.2-7.7
		l-16.6-39.3c-2.6-6.2,0.3-13.4,6.5-16c6.2-2.6,13.4,0.3,16,6.5l16.5,39.2c4.9-1.4,9.9-2.5,15.1-3.1V117.6L72.5,270.2L72.5,495.7
		L72.5,495.7z"/>
</g>
</svg>
