<?xml version="1.0" encoding="utf-8"?>
<!-- Generator: Adobe Illustrator 17.1.0, SVG Export Plug-In . SVG Version: 6.00 Build 0)  -->
<!DOCTYPE svg PUBLIC "-//W3C//DTD SVG 1.1//EN" "http://www.w3.org/Graphics/SVG/1.1/DTD/svg11.dtd">
<svg version="1.1" id="Capa_1" xmlns="http://www.w3.org/2000/svg" xmlns:xlink="http://www.w3.org/1999/xlink" x="0px" y="0px"
	 viewBox="0 0 512 512" enable-background="new 0 0 512 512" xml:space="preserve">
<g>
	<g>
		<path fill="#FFFFFF" d="M97,113.5c-3.6,4.1-3.1,10.3,1,13.9c1.9,1.6,4.1,2.4,6.4,2.4c2.8,0,5.5-1.2,7.4-3.4
			c1.5-1.8,37-43.4,10.1-77.2c-14.9-18.8-3.9-29.7-1.5-31.7c4.2-3.4,4.8-9.5,1.5-13.7c-3.4-4.2-9.6-4.9-13.8-1.6
			c-10.3,8.2-23.9,31.1-1.6,59.2C123.3,82.4,97.2,113.2,97,113.5z"/>
		<path fill="#FFFFFF" d="M183,113.5c-3.6,4.1-3.1,10.3,1,13.9c1.9,1.6,4.1,2.4,6.4,2.4c2.8,0,5.5-1.2,7.4-3.4
			c1.5-1.8,37-43.4,10.1-77.2c-14.9-18.8-3.9-29.7-1.5-31.7c4.2-3.4,4.8-9.5,1.5-13.7c-3.4-4.2-9.6-4.9-13.8-1.6
			c-10.3,8.2-23.9,31.1-1.6,59.2C209.3,82.4,183.2,113.2,183,113.5z"/>
		<path fill="#FFFFFF" d="M269,113.5c-3.6,4.1-3.1,10.3,1,13.9c1.9,1.6,4.2,2.4,6.4,2.4c2.8,0,5.5-1.2,7.4-3.4
			c1.5-1.8,37-43.4,10.1-77.2c-14.9-18.8-3.9-29.7-1.5-31.7c4.2-3.4,4.8-9.5,1.5-13.7c-3.4-4.2-9.6-4.9-13.8-1.6
			c-10.3,8.2-23.9,31.1-1.6,59.2C295.3,82.4,269.2,113.2,269,113.5z"/>
		<path fill="#FFFFFF" d="M355,113.5c-3.6,4.1-3.1,10.3,1,13.9c1.9,1.6,4.1,2.4,6.4,2.4c2.8,0,5.5-1.2,7.4-3.4
			c1.5-1.8,37-43.4,10.1-77.2c-14.9-18.8-3.9-29.7-1.5-31.7c4.2-3.4,4.8-9.5,1.5-13.7c-3.4-4.2-9.6-4.9-13.8-1.6
			c-10.3,8.2-23.9,31.1-1.6,59.2C381.3,82.4,355.2,113.2,355,113.5z"/>
		<path fill="#FFFFFF" d="M73.8,512c16.3,0,29.5-13.2,29.5-29.5V195.4c0-16.3-13.2-29.5-29.5-29.5c-16.3,0-29.5,13.2-29.5,29.5
			v287.1C44.3,498.8,57.5,512,73.8,512z"/>
		<path fill="#FFFFFF" d="M111.4,195v287.1c0,16.3,13.2,29.5,29.5,29.5c16.3,0,29.5-13.2,29.5-29.5V195c0-16.3-13.2-29.5-29.5-29.5
			C124.6,165.5,111.4,178.7,111.4,195z"/>
		<path fill="#FFFFFF" d="M208.1,511.2c16.3,0,29.5-13.2,29.5-29.5V194.6c0-16.3-13.2-29.5-29.5-29.5c-16.3,0-29.5,13.2-29.5,29.5
			v287.1C178.6,497.9,191.8,511.2,208.1,511.2z"/>
		<path fill="#FFFFFF" d="M275.2,510.7c16.3,0,29.5-13.2,29.5-29.5V194.1c0-16.3-13.2-29.5-29.5-29.5c-16.3,0-29.5,13.2-29.5,29.5
			v287.1C245.8,497.5,259,510.7,275.2,510.7z"/>
		<path fill="#FFFFFF" d="M342.4,510.3c16.3,0,29.5-13.2,29.5-29.5V193.7c0-16.3-13.2-29.5-29.5-29.5c-16.3,0-29.5,13.2-29.5,29.5
			v287.1C312.9,497.1,326.1,510.3,342.4,510.3z"/>
		<path fill="#FFFFFF" d="M380.1,193.3v287.1c0,16.3,13.2,29.5,29.5,29.5s29.5-13.2,29.5-29.5V289.1h4.5c13.3,0,24.2-16.9,24.2-37.7
			c0-20.8-10.8-37.7-24.2-37.7c-1.5,0-3,0-4.5,0v-20.4c0-16.3-13.2-29.5-29.5-29.5S380.1,177,380.1,193.3z"/>
	</g>
</g>
</svg>
