<?xml version="1.0" encoding="utf-8"?>
<!-- Generator: Adobe Illustrator 17.1.0, SVG Export Plug-In . SVG Version: 6.00 Build 0)  -->
<!DOCTYPE svg PUBLIC "-//W3C//DTD SVG 1.1//EN" "http://www.w3.org/Graphics/SVG/1.1/DTD/svg11.dtd">
<svg version="1.1" id="Capa_1" xmlns="http://www.w3.org/2000/svg" xmlns:xlink="http://www.w3.org/1999/xlink" x="0px" y="0px"
	 viewBox="0 0 512 512" enable-background="new 0 0 512 512" xml:space="preserve">
<g>
	<g>
		<g>
			<path fill="#FFFFFF" d="M73,344.3C14.8,243.4,49.5,113.9,150.4,55.6C251.3-2.6,380.8,32.1,439,133
				c41.3,71.5,35.7,157.2-6.8,221.9l22.8,15c48.1-73,54.4-169.7,7.7-250.6C396.8,5.2,250.9-33.9,136.8,32
				C22.7,97.9-16.5,243.8,49.4,357.9c46.7,80.9,133.6,123.8,220.9,118.6l-1.6-27.2C191.4,453.8,114.3,415.8,73,344.3z"/>
			<path fill="#FFFFFF" d="M382.1,457c-29.4,17-61.2,25.8-93,27.7l1.6,27.3c35.9-2.1,71.8-12.1,105-31.4
				c33.2-19.2,59.9-45.3,79.7-75.2l-22.8-15C435.1,417,411.5,440.1,382.1,457z"/>
			<path fill="#FFFFFF" d="M441.3,382.8L276.5,274l11.8,197.1c29.8-1.7,59.5-10,87-25.9C402.8,429.4,424.9,407.7,441.3,382.8z
				 M344.3,439.7c-1,3.6-3.2,6.6-6.5,8.4c-2.1,1.2-4.5,1.9-6.9,1.9c-4.9,0-9.6-2.6-12.1-6.9c-1.8-3.2-2.3-7-1.4-10.5
				c1-3.6,3.3-6.6,6.5-8.4c2.1-1.2,4.5-1.9,6.9-1.9c5,0,9.6,2.7,12.1,6.9C344.7,432.4,345.2,436.1,344.3,439.7z M366.8,391
				c-1,0.5-2,1-2.9,1.7c-0.9,0.7-1.7,1.5-2.5,2.3c-1.5,1.5-2.9,3-4.9,3c-1.7,0-3.4-1.1-5.2-3.6c-2.1-2.9-5.8-9.3-8.9-15.7
				c-5.4,2.9-10.6,4.5-14.7,4.5c-4.2,0-6.2-1.6-7.3-3c-2-2.7-2.8-8.4-1.9-14.5c1.2-8.2,5.2-15.3,10.8-19.6c5.6-4.1,12-5,16.5-5
				c7.9,0,16,2.8,18.7,6.4c3.3,4.5,0.2,12.6-7.8,20.6c5,4.6,10.2,10.1,12.4,13.1c1.7,2.4,2.4,4.2,2,5.8
				C370.7,389,368.8,390,366.8,391z"/>
			<path fill="#FFFFFF" d="M427.2,139.8C372.7,45.4,251.6,13,157.2,67.4c-94.4,54.5-126.9,175.6-72.4,270
				c38.6,66.9,110.7,102.5,183,98.2L256,238.6l164.8,108.8C460.7,286.9,465.9,206.7,427.2,139.8z M145.8,115.6
				c2.1-1.2,4.5-1.8,6.9-1.8c5,0,9.6,2.7,12.1,7c1.8,3.2,2.3,7,1.4,10.5c-1,3.6-3.3,6.6-6.5,8.4c-2.1,1.2-4.5,1.9-6.9,1.9
				c-4.9,0-9.6-2.7-12-7C136.9,128,139.2,119.4,145.8,115.6z M161.4,328.4c-5.2,3-11.1,4.5-17,4.5c-12.2,0-23.5-6.5-29.5-17
				c-9.4-16.3-3.8-37.1,12.4-46.5c5.2-3,11-4.5,16.9-4.5c12.2,0,23.5,6.5,29.5,17C183.2,298.2,177.6,319.1,161.4,328.4z
				 M201.5,229.7c-1.6,0.6-3.1,1.4-4.5,2.2c-2.2,1.2-4,2.2-6,2.2c-3.7,0-5.5-3.6-6.7-6.8c-1.9-5.2-4.4-16-5.9-25.8
				c-4.6,1-9,1.4-13,1.4c-9.6,0-15.8-2.8-17.7-7.8c-1.7-4.8-0.1-13.6,4.1-21.9c2.9-5.8,9.7-16.2,21.6-20.5c3.7-1.4,7.6-2,11.8-2
				c16.6,0,32.5,10.7,35.1,17.9c2.6,7.2-5.1,17-19.4,24.6c5.6,9.4,10.4,19,12.1,23.6c1.3,3.7,1.5,6.3,0.5,8.2
				c-1.4,2.3-4.2,2.9-7.1,3.5C204.7,228.8,203.1,229.1,201.5,229.7z M229.9,370c-2.1,1.2-4.5,1.9-6.9,1.9c-5,0-9.6-2.7-12.1-7
				c-3.8-6.7-1.5-15.2,5.1-19c2.1-1.3,4.5-1.9,7-1.9c5,0,9.6,2.6,12,6.9C238.8,357.6,236.6,366.1,229.9,370z M307.6,119.5
				c-3.8,2.2-8,3.3-12.3,3.3c-8.8,0-17.1-4.7-21.5-12.4c-6.8-11.8-2.7-27,9.1-33.8c3.8-2.2,8-3.3,12.4-3.3c8.8,0,17,4.7,21.4,12.4
				C323.5,97.5,319.4,112.6,307.6,119.5z M366.3,277.1c-2.1,1.2-4.5,1.9-7,1.9c-5,0-9.6-2.6-12-6.9c-3.8-6.7-1.6-15.2,5.1-19
				c2.1-1.2,4.5-1.8,6.9-1.8c5,0,9.6,2.7,12,6.9C375.2,264.8,372.9,273.2,366.3,277.1z M412.7,206.9c-1,1.2-2.1,2.5-3,4
				c-0.9,1.5-1.5,3-2.1,4.5c-1.3,3.2-2.7,6.6-6.5,6.6c-1.7,0-3.7-0.7-6.3-2.3c-4.1-2.5-12.6-9-20.8-16.5
				c-10.2,12.4-21.4,18.2-27.9,14.2c-4-2.5-8-9.5-10.1-17.9c-2.8-11.4-1.5-22.8,3.6-31.3c7.9-13,24.7-19,36.8-19
				c4.2,0,7.6,0.7,9.8,2c6.6,4,6.6,16.5,0.2,31.4c10.4,3.8,20.1,8.4,24.2,10.9c3.4,2.1,5.1,4,5.5,6.1
				C416.5,202.4,414.7,204.6,412.7,206.9z"/>
		</g>
	</g>
</g>
</svg>
