<?xml version="1.0" encoding="utf-8"?>
<!-- Generator: Adobe Illustrator 17.1.0, SVG Export Plug-In . SVG Version: 6.00 Build 0)  -->
<!DOCTYPE svg PUBLIC "-//W3C//DTD SVG 1.1//EN" "http://www.w3.org/Graphics/SVG/1.1/DTD/svg11.dtd">
<svg version="1.1" id="Capa_1" xmlns="http://www.w3.org/2000/svg" xmlns:xlink="http://www.w3.org/1999/xlink" x="0px" y="0px"
	 viewBox="0 0 512 512" enable-background="new 0 0 512 512" xml:space="preserve">
<g>
	<g>
		<path fill="#FFFFFF" d="M465.9,254.4v-89c0-7-5.7-12.7-12.7-12.7h-25.4c-7,0-18.4,0-25.4,0s-18.4,0-25.4,0H330
			c-11.5-19.3-30-34-52-40.7c5.8-3.3,9.8-9.4,9.8-16.6c0-10.5-8.5-19.1-19.1-19.1h-6.4V50.9h57.2c10.5,0,19.1-8.5,19.1-19.1
			s-8.5-19.1-19.1-19.1h-57.2c0-7-4.2-12.7-12.7-12.7c-8.5,0-12.7,5.7-12.7,12.7h-57.2c-10.5,0-19.1,8.5-19.1,19.1
			s8.5,19.1,19.1,19.1h57.2v25.4h-6.4c-10.5,0-19.1,8.5-19.1,19.1c0,7.8,4.7,14.5,11.4,17.5c-15.8,5.3-29.6,14.7-40.2,27.1H84.3
			v-38.2c0-14.1-11.4-25.4-25.4-25.4s-25.4,11.4-25.4,25.4v190.8c0,14.1,11.4,25.4,25.4,25.4s25.4-11.4,25.4-25.4v-50.9h86.8
			c15.3,29,45.6,48.8,80.7,48.8c44.5,0,81.6-32,89.5-74.2h35.6c7,0,12.7,5.7,12.7,12.7v25.4c-7,0-12.7,5.7-12.7,12.7v25.4
			c0,7,5.7,12.7,12.7,12.7h76.3c7,0,12.7-5.7,12.7-12.7v-25.4C478.6,260.1,472.9,254.4,465.9,254.4z"/>
		<path fill="#FFFFFF" d="M372.1,458.7c0,29.4,23.8,53.3,53.3,53.3c29.4,0,53.3-23.8,53.3-53.3c0-29.4-53.3-105.8-53.3-105.8
			S372.1,429.3,372.1,458.7z"/>
	</g>
</g>
</svg>
