<?xml version="1.0" encoding="utf-8"?>
<!-- Generator: Adobe Illustrator 17.1.0, SVG Export Plug-In . SVG Version: 6.00 Build 0)  -->
<!DOCTYPE svg PUBLIC "-//W3C//DTD SVG 1.1//EN" "http://www.w3.org/Graphics/SVG/1.1/DTD/svg11.dtd">
<svg version="1.1" id="Capa_1" xmlns="http://www.w3.org/2000/svg" xmlns:xlink="http://www.w3.org/1999/xlink" x="0px" y="0px"
	 viewBox="0 0 800 800" enable-background="new 0 0 800 800" xml:space="preserve">
<polygon fill="#FFFFFF" points="16.1,470.5 41.8,496.2 119.8,418.2 161.8,418.2 83.3,496.6 109,522.3 213.2,418.2 356.1,418.2 
	217.6,556.7 94.5,556.7 94.5,593.1 181.2,593.1 108.3,666 134,691.7 206.9,618.8 206.9,705.5 243.3,705.5 243.3,582.4 381.8,443.9 
	381.8,586.8 277.7,691 303.4,716.7 381.8,638.2 381.8,680.2 303.8,758.2 329.5,783.9 381.8,731.6 381.8,800 418.2,800 418.2,731.6 
	470.5,783.9 496.2,758.2 418.2,680.2 418.2,638.2 496.6,716.7 522.3,691 418.2,586.8 418.2,443.9 556.7,582.4 556.7,705.5 
	593.1,705.5 593.1,618.8 666,691.7 691.7,666 618.8,593.1 705.5,593.1 705.5,556.7 582.4,556.7 443.9,418.2 586.8,418.2 691,522.3 
	716.7,496.6 638.2,418.2 680.2,418.2 758.2,496.2 783.9,470.5 731.6,418.2 800,418.2 800,381.8 731.6,381.8 783.9,329.5 
	758.2,303.8 680.2,381.8 638.2,381.8 716.7,303.4 691,277.7 586.8,381.8 443.9,381.8 582.4,243.3 705.5,243.3 705.5,206.9 
	618.8,206.9 677.4,148.3 651.7,122.6 593.1,181.2 593.1,94.5 556.7,94.5 556.7,217.6 418.2,356.1 418.2,213.2 522.3,109 496.6,83.3 
	418.2,161.8 418.2,119.8 496.2,41.8 470.5,16.1 418.2,68.4 418.2,0 381.8,0 381.8,68.4 329.5,16.1 303.8,41.8 381.8,119.8 
	381.8,161.8 303.4,83.3 277.7,109 381.8,213.2 381.8,356.1 243.3,217.6 243.3,94.5 206.9,94.5 206.9,181.2 148.3,122.6 122.6,148.3 
	181.2,206.9 94.5,206.9 94.5,243.3 217.6,243.3 356.1,381.8 213.2,381.8 109,277.7 83.3,303.4 161.8,381.8 119.8,381.8 41.8,303.8 
	16.1,329.5 68.4,381.8 0,381.8 0,418.2 68.4,418.2 "/>
</svg>
