<?xml version="1.0" encoding="utf-8"?>
<!-- Generator: Adobe Illustrator 17.1.0, SVG Export Plug-In . SVG Version: 6.00 Build 0)  -->
<!DOCTYPE svg PUBLIC "-//W3C//DTD SVG 1.1//EN" "http://www.w3.org/Graphics/SVG/1.1/DTD/svg11.dtd">
<svg version="1.1" id="Capa_1" xmlns="http://www.w3.org/2000/svg" xmlns:xlink="http://www.w3.org/1999/xlink" x="0px" y="0px"
	 viewBox="0 0 512 512" enable-background="new 0 0 512 512" xml:space="preserve">
<g>
	<g>
		<path fill="#FFFFFF" d="M8.9,38.1c-5,1-6.6,5.1-3.5,9.2l26.3,34.8c9.7-7.1,20.7-12.6,33.2-16c4.7-1.3,9.6-2.1,14.6-2.7l4.4-31.3
			c0.7-5.1-2.8-8.4-7.8-7.4L8.9,38.1z"/>
		<path fill="#FFFFFF" d="M504.3,403.4l-20.6,3.3l-4.7,0.7l-4.7,0.7c3.9-49-26-103.2-89.3-107c-88.6-5.3-183.9-67.5-203.3-161.2
			c-8.6-41.6-50.5-68-91.1-68c-4.2,0-8.4,0.3-12.5,0.9c-3.6,0.5-7.2,1.2-10.8,2.2c-11.4,3.1-21.4,8.2-30,14.5
			c-30.1,22.2-43,61.3-35,99.9C38.6,364.7,214.9,477.2,385,487.2c2.3,0.1,4.5,0.2,6.6,0.2c29.4,0,50.9-12.2,64.7-30.2l3.9,2.8
			l3.5,2.5l26.8,19.5c4.1,3,8.3,1.4,9.2-3.7l12.2-67.3C512.8,406.1,509.4,402.6,504.3,403.4z M350.9,369.4
			c-69.3-1.7-127.1-31.7-174.6-81.2c-20.8-21.6,12.1-54.6,32.9-32.9c39,40.6,84.5,66.2,141.7,67.6
			C380.9,323.6,380.9,370.1,350.9,369.4z"/>
	</g>
</g>
</svg>
