<?xml version="1.0" encoding="utf-8"?>
<!-- Generator: Adobe Illustrator 17.1.0, SVG Export Plug-In . SVG Version: 6.00 Build 0)  -->
<!DOCTYPE svg PUBLIC "-//W3C//DTD SVG 1.1//EN" "http://www.w3.org/Graphics/SVG/1.1/DTD/svg11.dtd">
<svg version="1.1" id="Capa_1" xmlns="http://www.w3.org/2000/svg" xmlns:xlink="http://www.w3.org/1999/xlink" x="0px" y="0px"
	 viewBox="0 0 512 512" enable-background="new 0 0 512 512" xml:space="preserve">
<g>
	<g>
		<path fill="#FFFFFF" d="M256,324.9c21.9,0,43.2,0.9,63.4,2.6V356H256h-63.4v-28.5C212.8,325.8,234.1,324.9,256,324.9z M33.9,367
			c-9.2,5.2-18.4,11.6-25.2,19.9c-5.5,6.7-9.2,15.2-8.7,23.8c0.5,7.4,4,14.3,8.7,19.9c14.9,17.9,38.3,27.8,59.8,35.4
			c7.3,2.6,14.8,4.8,22.2,6.9c1.2,0.3,2.5,0.7,3.8,1V343.7C73.7,349.2,52.7,356.3,33.9,367z M256,454h-63.4c0,0,0,36.8,0,36.8
			c15.8,2.1,61.4,2,63.4,2c2.1,0,47.6,0.1,63.4-2c0,0,0-36.8,0-36.8H256z M503.3,386.9c-6.7-8.2-16-14.6-25.2-19.9
			c-18.8-10.7-39.8-17.8-60.7-23.4V474c1.3-0.3,2.5-0.7,3.8-1c7.5-2.1,14.9-4.3,22.2-6.9c21.5-7.5,44.9-17.4,59.8-35.4
			c4.7-5.7,8.2-12.6,8.7-19.9C512.5,402.1,508.7,393.6,503.3,386.9z M400.1,36.5v441.7c-0.2,0-41.4,7.9-62,10.2
			c-0.5,0.1-0.9,0.1-1.4,0.1v-51.9H175.3v51.9c-0.5,0-0.9-0.1-1.4-0.1c-20.7-2.3-61.9-10.1-62-10.2V36.5c0-9.6,7.7-17.3,17.3-17.3
			H158c9.6,0,17.3,7.7,17.3,17.3v54.9h161.5V36.5c0-9.6,7.7-17.3,17.3-17.3h28.8C392.4,19.2,400.1,27,400.1,36.5z M336.7,295.7
			H175.3v77.5h161.5L336.7,295.7L336.7,295.7z M336.7,154.8H175.3v77.5h161.5L336.7,154.8L336.7,154.8z"/>
	</g>
</g>
</svg>
