<?xml version="1.0" encoding="utf-8"?>
<!-- Generator: Adobe Illustrator 17.1.0, SVG Export Plug-In . SVG Version: 6.00 Build 0)  -->
<!DOCTYPE svg PUBLIC "-//W3C//DTD SVG 1.1//EN" "http://www.w3.org/Graphics/SVG/1.1/DTD/svg11.dtd">
<svg version="1.1" id="Capa_1" xmlns="http://www.w3.org/2000/svg" xmlns:xlink="http://www.w3.org/1999/xlink" x="0px" y="0px"
	 viewBox="0 0 512 512" enable-background="new 0 0 512 512" xml:space="preserve">
<g>
	<path fill="#FFFFFF" d="M184.3,209.2c0,13-10.6,23.6-23.6,23.6c-13,0-23.6-10.6-23.6-23.6c0-13.1,10.6-23.6,23.6-23.6
		C173.8,185.6,184.3,196.1,184.3,209.2z M163.2,370.7l5.1,87c0,3.1,2.5,5.6,5.5,5.6c3.1,0,5.5-2.5,5.5-5.6l4.8-87h15.4l-15.9-97.5
		l32,63.8c1.2,2.8,4.4,4.2,7.3,2.9c2.8-1.2,4.1-4.4,2.9-7.2c0,0-23.5-63.5-29.3-75.3c-5.7-11.8-11.5-19-33.5-19h-4.5
		c-22,0-27.7,7.2-33.5,19c-5.8,11.9-29.3,75.3-29.3,75.3c-1.2,2.8,0.1,6.1,2.9,7.3c2.8,1.2,6.1-0.1,7.3-2.9l32.1-63.8L122,370.7
		h15.4l4.8,87c0,3.1,2.5,5.6,5.5,5.6c3.1,0,5.5-2.5,5.5-5.6l4.7-87L163.2,370.7L163.2,370.7z M351.4,185.5
		c-13.1,0-23.6,10.5-23.6,23.6c0,13,10.6,23.5,23.6,23.5c13,0,23.5-10.5,23.5-23.5C374.8,196.1,364.4,185.5,351.4,185.5z
		 M375.8,324.4l1.6-51.3l28.8,63.8c1.2,2.8,4.4,4.1,7.3,2.9c2.8-1.2,4.2-4.4,3-7.3c0,0-20.3-63.5-26.1-75.3
		c-5.8-11.8-14.7-19-36.7-19h-4.5c-22,0-31,7.2-36.8,19c-5.8,11.9-26.1,75.3-26.1,75.3c-1.2,2.9,0.1,6.1,2.9,7.3
		c2.8,1.2,6.1-0.1,7.3-2.9l28.8-63.8l1.6,51.3l-4.6,128.9c-0.4,5.1,3.5,9.6,8.6,9.9c0.3,0,0.5,0,0.7,0c4.8,0,8.9-3.7,9.3-8.6
		l10.5-99.7l10.5,99.7c0.3,4.9,4.4,8.6,9.3,8.6c0.2,0,0.4,0,0.6,0c5.1-0.3,8.9-4.8,8.6-9.9L375.8,324.4L375.8,324.4z M256,328.9
		c-8,0-14.5,6.5-14.5,14.5c0,8,6.5,14.4,14.5,14.4c8,0,14.5-6.4,14.5-14.4C270.5,335.4,264,328.9,256,328.9z M256,414.1
		c0,0,6.5,45.3,6.5,45.3c0.8,2.2,3,3.8,5.5,3.8c2.6,0,4.8-1.7,5.6-4.1c0.1-0.1,0.2-2.8,0.1-3.2l-2.7-55.6l0.8-19.1
		c0.7-6.5,0.9-4.6,8.3-9c7.5-4.5,20.4-24.4,21-25.4c0.6-1,1.8-2.7,2-3.8c0.4-2-0.9-3.9-2.9-4.3c-1.5-0.3-2.8,0.5-3.8,1.6
		c-1,1-15.8,20.7-26.9,22.6c-2.5-0.4-5.1-1.7-12.2-1.7h-2.8c-7,0-9.7,1.3-12.2,1.7c-11.1-1.9-25.9-21.6-26.9-22.6
		c-0.9-1.1-2.2-1.9-3.7-1.6c-2,0.4-3.3,2.3-2.9,4.3c0.2,1.1,1.4,2.9,2,3.8c0.6,1,13.5,20.9,21,25.4c7.4,4.4,7.6,2.5,8.3,9l0.8,19.1
		l-2.6,55.6c-0.1,0.5,0,3.1,0.1,3.2c0.8,2.4,2.9,4.1,5.6,4.1c2.5,0,4.6-1.6,5.5-3.8C249.5,459.4,256,414.1,256,414.1 M508,236.5
		c7.1-10.2,4.6-24.3-5.7-31.4L293.6,59.9c-21.4-14.9-53.8-14.9-75.2,0L9.7,205.1c-10.2,7.1-12.8,21.2-5.7,31.4
		c7.1,10.2,21.2,12.8,31.4,5.7L244.2,97.1c5.9-4.1,17.8-4.1,23.7,0l208.7,145.2c3.9,2.7,8.5,4.1,12.9,4.1
		C496.6,246.2,503.6,242.8,508,236.5z"/>
</g>
</svg>
