<?xml version="1.0" encoding="utf-8"?>
<!-- Generator: Adobe Illustrator 17.1.0, SVG Export Plug-In . SVG Version: 6.00 Build 0)  -->
<!DOCTYPE svg PUBLIC "-//W3C//DTD SVG 1.1//EN" "http://www.w3.org/Graphics/SVG/1.1/DTD/svg11.dtd">
<svg version="1.1" id="Layer_1" xmlns="http://www.w3.org/2000/svg" xmlns:xlink="http://www.w3.org/1999/xlink" x="0px" y="0px"
	 viewBox="0 0 512 512" enable-background="new 0 0 512 512" xml:space="preserve">
<g>
	<path fill="#FFFFFF" d="M510.5,292l-32.7-59.7c-9.2-16.8-26.9-27.3-46.1-27.3h-68.4V102.4c0-6.9-5.6-12.4-12.4-12.4H12.4
		C5.6,90,0,95.5,0,102.4v276.1c0,6.9,5.6,12.4,12.4,12.4h37c5.4,18,22,31.1,41.7,31.1s36.3-13.1,41.7-31.1h217.9h26.4
		c5.4,18,22,31.1,41.7,31.1s36.3-13.1,41.7-31.1h39c6.9,0,12.4-5.6,12.4-12.4V298C512,295.9,511.5,293.9,510.5,292L510.5,292z
		 M24.8,114.8h313.5v251.3H132.9c-5.4-18-22-31.1-41.7-31.1s-36.3,13.1-41.7,31.1H24.8C24.8,366.1,24.8,114.8,24.8,114.8z
		 M109.8,378.5c0,10.3-8.4,18.7-18.7,18.7s-18.7-8.4-18.7-18.7s8.4-18.7,18.7-18.7S109.8,368.2,109.8,378.5z M437.6,378.5
		c0,10.3-8.4,18.7-18.7,18.7c-10.3,0-18.7-8.4-18.7-18.7s8.4-18.7,18.7-18.7C429.2,359.8,437.6,368.2,437.6,378.5z M487.2,366.1
		h-26.5c-5.4-18-22-31.1-41.7-31.1s-36.3,13.1-41.7,31.1h-14V229.9h68.4c10.1,0,19.5,5.5,24.3,14.4l31.2,56.9L487.2,366.1
		L487.2,366.1z"/>
	<path fill="#FFFFFF" d="M152.5,221.1h88.4l-16.7,16.7c-4.8,4.8-4.8,12.7,0,17.6c2.4,2.4,5.6,3.6,8.8,3.6c3.2,0,6.4-1.2,8.8-3.6
		l34.5-34.5c6.7-6.7,6.7-17.6,0-24.3L241.8,162c-4.9-4.8-12.7-4.8-17.6,0c-4.8,4.8-4.8,12.7,0,17.6l16.7,16.7h-88.4
		c-6.9,0-12.4,5.6-12.4,12.4C140.1,215.5,145.6,221.1,152.5,221.1L152.5,221.1z"/>
	<path fill="#FFFFFF" d="M121.4,318.9c2.4,2.4,5.6,3.6,8.8,3.6c3.2,0,6.4-1.2,8.8-3.6c4.9-4.8,4.9-12.7,0-17.6l-16.7-16.7h88.4
		c6.9,0,12.4-5.6,12.4-12.4s-5.6-12.4-12.4-12.4h-88.4l16.7-16.7c4.8-4.8,4.8-12.7,0-17.6c-4.9-4.8-12.7-4.8-17.6,0l-34.5,34.5
		c-3.2,3.2-5,7.6-5,12.2c0,4.6,1.8,8.9,5,12.2L121.4,318.9L121.4,318.9z"/>
</g>
</svg>
