<?xml version="1.0" encoding="utf-8"?>
<!-- Generator: Adobe Illustrator 17.1.0, SVG Export Plug-In . SVG Version: 6.00 Build 0)  -->
<!DOCTYPE svg PUBLIC "-//W3C//DTD SVG 1.1//EN" "http://www.w3.org/Graphics/SVG/1.1/DTD/svg11.dtd">
<svg version="1.1" id="Capa_1" xmlns="http://www.w3.org/2000/svg" xmlns:xlink="http://www.w3.org/1999/xlink" x="0px" y="0px"
	 viewBox="0 0 512 512" enable-background="new 0 0 512 512" xml:space="preserve">
<g>
	<g>
		<path fill="#FFFFFF" d="M26.7,396.7h51.2c4.4-6.6,10.3-12.4,17.4-16.8v-17.6c0-24.8,19.8-45.5,45.7-49.8
			c-11.2-32-20.8-67.4-21.3-95.2h-93V396.7z"/>
		<path fill="#FFFFFF" d="M371,312.5c25.9,4.3,45.7,25,45.7,49.8v17.6c7.1,4.5,13,10.2,17.4,16.8h51.2V217.3h-93
			C391.8,245.1,382.2,280.5,371,312.5z"/>
		<path fill="#FFFFFF" d="M491.2,31.6c8.7,0,15.8-7.1,15.8-15.8S499.9,0,491.2,0H256.3h-0.5H20.8C12.1,0,5,7.1,5,15.8
			s7.1,15.8,15.8,15.8h5.9v171.2h93.7c0.2-1.6,0.6-4.6,2.1-7.7c3.1-6.9,8.7-14.1,17.9-18.9C212.4,139,245.2,53,252.4,31.6h3.3h0.5
			h3.3c7.2,21.4,40,107.4,112.1,144.6c9.2,4.8,14.8,12,17.9,18.9c1.4,3.1,1.9,6.1,2.1,7.7h93.7V31.6H491.2z"/>
		<polygon fill="#FFFFFF" points="344.9,197.3 283.5,188.4 256,132.7 228.5,188.4 167.1,197.3 211.5,240.6 201.1,301.8 256,272.9 
			310.9,301.8 300.5,240.6 		"/>
		<path fill="#FFFFFF" d="M259,378.2c13,0,25,4,34.3,10.6v-27.9c0-16.4-15.5-29.7-34.7-29.7h-3.5c-19.2,0-34.7,13.3-34.7,29.7V389
			c9.3-6.8,21.4-10.9,34.6-10.9L259,378.2L259,378.2z"/>
		<path fill="#FFFFFF" d="M154.6,331.1h-3.5c-19.2,0-34.7,13.3-34.7,29.7v19.2c4.9-1.3,10-1.9,15.4-1.9h4.1
			c25.3,0,46.5,15.1,52.2,35.3c0.8-2.6,1.3-5.3,1.3-8.1v-44.6C189.4,344.4,173.8,331.1,154.6,331.1z"/>
		<path fill="#FFFFFF" d="M380.2,378.2c5.3,0,10.5,0.7,15.4,1.9v-19.2c0-16.4-15.5-29.7-34.7-29.7h-3.5c-19.2,0-34.7,13.3-34.7,29.7
			v44.6c0,2.8,0.5,5.5,1.3,8.1c5.6-20.2,26.9-35.3,52.2-35.3L380.2,378.2L380.2,378.2L380.2,378.2z"/>
		<path fill="#FFFFFF" d="M259,394.9h-4.1c-22.7,0-41.1,15-41.1,33.5v50.1c0,18.5,18.4,33.5,41.1,33.5h4.1c22.7,0,41.1-15,41.1-33.5
			v-50.1C300.2,409.9,281.8,394.9,259,394.9z"/>
		<path fill="#FFFFFF" d="M135.9,394.9h-4.1c-22.7,0-41.1,15-41.1,33.5v50.1c0,18.5,18.4,33.5,41.1,33.5h4.1
			c22.7,0,41.1-15,41.1-33.5v-50.1C177,409.9,158.6,394.9,135.9,394.9z"/>
		<path fill="#FFFFFF" d="M380.2,394.9h-4.1c-22.7,0-41.1,15-41.1,33.5v50.1c0,18.5,18.4,33.5,41.1,33.5h4.1
			c22.7,0,41.1-15,41.1-33.5v-50.1C421.3,409.9,402.9,394.9,380.2,394.9z"/>
	</g>
</g>
</svg>
