<?xml version="1.0" encoding="utf-8"?>
<!-- Generator: Adobe Illustrator 17.1.0, SVG Export Plug-In . SVG Version: 6.00 Build 0)  -->
<!DOCTYPE svg PUBLIC "-//W3C//DTD SVG 1.1//EN" "http://www.w3.org/Graphics/SVG/1.1/DTD/svg11.dtd">
<svg version="1.1" id="Layer_1" xmlns="http://www.w3.org/2000/svg" xmlns:xlink="http://www.w3.org/1999/xlink" x="0px" y="0px"
	 viewBox="0 0 512 512" enable-background="new 0 0 512 512" xml:space="preserve">
<g>
	<g>
		<path fill="#FFFFFF" d="M454.9,397.7L454.9,397.7l-82-196.9c-0.4-0.9-0.8-1.7-1.3-2.5c-12.8-22-40.3-31.4-74.7-27.7L431.1,36.4
			c8.3-8.3,8.3-21.8,0-30.2c-8.3-8.3-21.8-8.3-30.2,0L245.3,161.8L89.7,6.2c-8.3-8.3-21.8-8.3-30.2,0c-8.3,8.3-8.3,21.8,0,30.2
			L194.2,171C135.3,173,96,198,96,234.7V448c0,12.7,5.2,36.2,39.8,51.4c18.4,8.1,42.5,12.6,67.9,12.6c27.3,0,50.4-5,68.2-13.6
			c11.4,9.4,27.1,13.6,44.8,13.6c20.6,0,43.8-5.5,65.4-14.5C440.3,473.2,469.6,433.1,454.9,397.7z M224,426.6h-42.7
			c-11.8,0-21.3-9.5-21.3-21.3c0-11.8,9.5-21.3,21.3-21.3H224c11.8,0,21.3,9.6,21.3,21.3C245.3,417.1,235.8,426.6,224,426.6z
			 M224,362.6h-42.7c-11.8,0-21.3-9.5-21.3-21.3c0-11.8,9.5-21.3,21.3-21.3H224c11.8,0,21.3,9.6,21.3,21.3
			C245.3,353.1,235.8,362.6,224,362.6z M224,298.6h-42.7c-11.8,0-21.3-9.5-21.3-21.3c0-11.8,9.5-21.3,21.3-21.3H224
			c11.8,0,21.3,9.6,21.3,21.3C245.3,289.1,235.8,298.6,224,298.6z M365.5,458.1c-26.3,10.9-48.7,12.9-60.5,9.5
			c0.4-0.9,0.5-1.7,0.8-2.6c0.7-1.9,1.4-3.7,1.8-5.7c1-4.1,1.6-8,1.6-11.3V234.7c0-1.9-0.2-4-0.5-6.3c-0.1-1.2-0.3-2.3-0.5-3.4
			c-0.1-0.3-0.2-0.7-0.3-1c-0.9-4-2.1-7.8-3.9-11.3c15.1-1.3,26.2,1.2,30.1,6.3l81.4,195.2C418.9,422.4,401.6,443.1,365.5,458.1z"/>
	</g>
</g>
</svg>
