<?xml version="1.0" encoding="utf-8"?>
<!-- Generator: Adobe Illustrator 17.1.0, SVG Export Plug-In . SVG Version: 6.00 Build 0)  -->
<!DOCTYPE svg PUBLIC "-//W3C//DTD SVG 1.1//EN" "http://www.w3.org/Graphics/SVG/1.1/DTD/svg11.dtd">
<svg version="1.1" id="Capa_1" xmlns="http://www.w3.org/2000/svg" xmlns:xlink="http://www.w3.org/1999/xlink" x="0px" y="0px"
	 viewBox="0 0 512 512" enable-background="new 0 0 512 512" xml:space="preserve">
<g>
	<g>
		<path fill="#FFFFFF" d="M455.1,197.8c-0.1-0.5-0.3-1-0.4-1.5c-1.7-5.8-3.8-11.6-6-17.2c-0.3-0.7-0.5-1.3-0.8-2
			c-2.3-5.5-4.8-10.9-7.5-16.2c-0.4-0.8-0.8-1.6-1.2-2.3c-0.9-1.7-1.8-3.3-2.8-5l26.1-53.1L410,48l-53.7,26.4c-1-0.5-2-1.1-3-1.6
			c-0.8-0.4-1.6-0.8-2.3-1.2c-5.3-2.7-10.7-5.3-16.2-7.5c-0.7-0.3-1.3-0.5-2-0.8c-5.7-2.3-11.4-4.3-17.2-6c-0.5-0.1-1-0.3-1.5-0.4
			c-0.2-0.1-0.4-0.1-0.7-0.2L294.2,0h-74.3l-19.1,56c-1,0.3-2,0.6-3,0.8c-0.5,0.1-1,0.3-1.5,0.4c-5.8,1.7-11.6,3.8-17.2,6
			c-0.7,0.3-1.3,0.5-2,0.8c-5.5,2.3-10.9,4.8-16.2,7.5c-0.8,0.4-1.6,0.8-2.3,1.2c-1,0.5-2,1.1-3,1.6L102,48l-52.5,52.6l26.1,53.1
			c-0.9,1.7-1.9,3.3-2.8,5c-0.4,0.8-0.8,1.6-1.2,2.3c-2.7,5.3-5.3,10.7-7.5,16.2c-0.3,0.7-0.5,1.3-0.8,2c-2.3,5.7-4.3,11.4-6,17.2
			c-0.1,0.5-0.3,1-0.4,1.5c-0.3,1-0.6,2-0.8,3L0,219.9v74.3l56.6,19.3c0.1,0.2,0.1,0.5,0.2,0.7c0.1,0.5,0.3,1,0.4,1.5
			c1.7,5.8,3.8,11.6,6,17.2c0.3,0.7,0.5,1.3,0.8,2c2.3,5.5,4.8,10.9,7.5,16.2c0.4,0.8,0.8,1.6,1.2,2.3c0.9,1.7,1.8,3.4,2.8,5
			l-26.1,53.1L102,464l53.7-26.4c1,0.5,2,1.1,3,1.6c0.8,0.4,1.6,0.8,2.3,1.2c5.3,2.7,10.7,5.3,16.2,7.5c0.7,0.3,1.3,0.5,2,0.8
			c5.7,2.3,11.4,4.3,17.2,6c0.5,0.1,1,0.3,1.5,0.4c0.2,0.1,0.5,0.1,0.7,0.2l19.3,56.6h74.3l19.1-56c1-0.3,2-0.6,3-0.8
			c0.5-0.1,1-0.3,1.5-0.4c5.8-1.7,11.6-3.8,17.2-6c0.7-0.3,1.3-0.5,2-0.8c5.5-2.3,10.9-4.8,16.2-7.5c0.8-0.4,1.6-0.8,2.3-1.2
			c1-0.5,2-1.1,3-1.6L410,464l52.6-52.6l-26.1-53.1c0.9-1.7,1.9-3.3,2.8-5c0.4-0.8,0.8-1.5,1.2-2.3c2.7-5.3,5.3-10.7,7.5-16.2
			c0.3-0.7,0.5-1.3,0.8-2c2.3-5.7,4.3-11.4,6-17.2c0.1-0.5,0.3-1,0.4-1.5c0.3-1,0.6-2,0.8-3l56-19.1v-74.3l-56.6-19.3
			C455.3,198.3,455.2,198.1,455.1,197.8z M286,400.4c-0.1,0-0.2,0.1-0.4,0.1c-4.1,0.8-8.3,1.4-12.5,1.9c-0.7,0.1-1.5,0.2-2.2,0.3
			c-4.9,0.5-9.9,0.8-14.9,0.8s-10-0.3-14.9-0.8c-0.7-0.1-1.5-0.2-2.2-0.3c-4.2-0.5-8.4-1.1-12.5-1.9c-0.1,0-0.3-0.1-0.4-0.1
			c-57.3-11.9-102.4-57.1-114.3-114.3c0-0.1-0.1-0.3-0.1-0.4c-0.8-4.1-1.4-8.3-1.9-12.5c-0.1-0.7-0.2-1.5-0.3-2.2
			c-0.5-4.9-0.8-9.9-0.8-14.9s0.3-10,0.8-14.9c0.1-0.7,0.2-1.5,0.3-2.2c0.5-4.2,1.1-8.4,1.9-12.5c0-0.1,0.1-0.2,0.1-0.4
			c11.9-57.3,57.1-102.5,114.4-114.4c0.1,0,0.2-0.1,0.3-0.1c4.1-0.8,8.4-1.4,12.6-1.9c0.7-0.1,1.4-0.2,2.1-0.3
			c4.9-0.5,9.9-0.8,15-0.8c5,0,10,0.3,15,0.8c0.7,0.1,1.4,0.2,2.1,0.3c4.3,0.5,8.5,1.1,12.6,1.9c0.1,0,0.2,0.1,0.3,0.1
			c57.3,11.9,102.5,57.1,114.4,114.4c0,0.1,0.1,0.2,0.1,0.4c0.8,4.1,1.4,8.3,1.9,12.5c0.1,0.7,0.2,1.5,0.3,2.2
			c0.5,4.9,0.8,9.9,0.8,14.9c0,5-0.3,10-0.8,14.9c-0.1,0.7-0.2,1.5-0.3,2.2c-0.5,4.2-1.1,8.4-1.9,12.5c0,0.1-0.1,0.3-0.1,0.4
			C388.5,343.3,343.3,388.5,286,400.4z"/>
		<circle fill="#FFFFFF" cx="256" cy="256" r="22.5"/>
	</g>
</g>
</svg>
