<?xml version="1.0" encoding="utf-8"?>
<!-- Generator: Adobe Illustrator 17.1.0, SVG Export Plug-In . SVG Version: 6.00 Build 0)  -->
<!DOCTYPE svg PUBLIC "-//W3C//DTD SVG 1.1//EN" "http://www.w3.org/Graphics/SVG/1.1/DTD/svg11.dtd">
<svg version="1.1" id="Capa_1" xmlns="http://www.w3.org/2000/svg" xmlns:xlink="http://www.w3.org/1999/xlink" x="0px" y="0px"
	 viewBox="0 0 512 512" enable-background="new 0 0 512 512" xml:space="preserve">
<g>
	<path fill="#FFFFFF" d="M48,64h160c17.7,0,32-14.3,32-32c0-17.7-14.3-32-32-32H48C30.3,0,16,14.3,16,32C16,49.7,30.3,64,48,64z"/>
	<path fill="#FFFFFF" d="M48,160h160c17.7,0,32-14.3,32-32c0-17.7-14.3-32-32-32H48c-17.7,0-32,14.3-32,32C16,145.7,30.3,160,48,160
		z"/>
	<path fill="#FFFFFF" d="M240,224c0-17.7-14.3-32-32-32H48c-17.7,0-32,14.3-32,32c0,17.7,14.3,32,32,32h160
		C225.7,256,240,241.7,240,224z"/>
	<path fill="#FFFFFF" d="M411.3,75.9C393,61.8,368,42.5,368,32c0-17.7-14.3-32-32-32s-32,14.3-32,32v293.6c-10-3.5-20.8-5.6-32-5.6
		c-53,0-96,43-96,96s43,96,96,96s96-43,96-96V123.3c1.4,1.1,2.8,2.2,4.2,3.3c36.1,27.9,59.8,48.1,59.8,74.3
		c0,40.8-21.7,63.5-22.3,64.2c-12.7,12.3-13,32.6-0.6,45.3c6.3,6.5,14.6,9.7,22.9,9.7c8,0,16.1-3,22.3-9.1
		c4.3-4.1,41.7-42.5,41.7-110.1C496,141.3,449.1,105,411.3,75.9z"/>
</g>
</svg>
