<?xml version="1.0" encoding="utf-8"?>
<!-- Generator: Adobe Illustrator 17.1.0, SVG Export Plug-In . SVG Version: 6.00 Build 0)  -->
<!DOCTYPE svg PUBLIC "-//W3C//DTD SVG 1.1//EN" "http://www.w3.org/Graphics/SVG/1.1/DTD/svg11.dtd">
<svg version="1.1" id="Capa_1" xmlns="http://www.w3.org/2000/svg" xmlns:xlink="http://www.w3.org/1999/xlink" x="0px" y="0px"
	 viewBox="0 0 512 512" enable-background="new 0 0 512 512" xml:space="preserve">
<g>
	<path fill="#FFFFFF" d="M410.2,51.5L231.3,230.3c-8.1,2-16,1.6-21.5-3.9c-13.2-13.2,5.9-41.9,15.8-55c2.8-3.7,1.9-5-2.4-3.1
		L184,186.6c-4.3,2-8.4,7.4-9.4,12c-3.1,14.2-10.4,42.7-21.6,53.8c-12.5,12.5-87.6,27.1-112.9,31.8c-4.6,0.8-8.4,5.3-8.8,10
		C28.2,332.7,9,378,0.8,395.7c-2,4.3-0.3,5.9,4,4c56-25.9,95.4-13.2,104.5-4.1c7.9,7.9-15.7,83-23.8,108.1c-1.4,4.5,0.7,6.3,4.8,4
		l76.6-41.4c4.1-2.2,8.3-7.8,9.3-12.4c5-22,19.5-81.1,34.4-96c12.9-12.9,34.8-16.6,46.9-17.7c4.7-0.4,10.4-3.8,12.7-7.9l16-28.4
		c2.3-4.1,1.2-5-2.7-2.5c-12,7.8-36.9,20.4-53.6,3.7c-7.3-7.3-6-19.6-1-33L430.6,70.5c3.6-3,12.7-9.6,20.3-6.5
		c0,0,28.8-34.2,48.3-33.9c0,0,6.7-14.9,12.8-26.8L411.7,25.8C411.7,25.8,420.1,39.2,410.2,51.5z M164.9,351.6l-9.6,9.6
		c-3.3,3.3-8.7,3.3-12.1,0l-25.6-25.6c-3.3-3.3-3.3-8.7,0-12.1l9.6-9.6c3.3-3.3,8.7-3.3,12.1,0l25.6,25.6
		C168.2,342.8,168.2,348.2,164.9,351.6z M203.5,300.8c3.3,3.3,3.3,8.7,0,12.1l-9.6,9.6c-3.3,3.3-8.7,3.3-12.1,0l-25.6-25.6
		c-3.3-3.3-3.3-8.7,0-12.1l9.6-9.6c3.3-3.3,8.7-3.3,12.1,0l4.3,4.3l19.7,19.7L203.5,300.8z"/>
</g>
</svg>
