<?xml version="1.0" encoding="utf-8"?>
<!-- Generator: Adobe Illustrator 17.1.0, SVG Export Plug-In . SVG Version: 6.00 Build 0)  -->
<!DOCTYPE svg PUBLIC "-//W3C//DTD SVG 1.1//EN" "http://www.w3.org/Graphics/SVG/1.1/DTD/svg11.dtd">
<svg version="1.1" id="Capa_1" xmlns="http://www.w3.org/2000/svg" xmlns:xlink="http://www.w3.org/1999/xlink" x="0px" y="0px"
	 viewBox="0 0 512 512" enable-background="new 0 0 512 512" xml:space="preserve">
<path fill="#FFFFFF" d="M459.6,76c-0.6-3.3-2.7-6.2-5.7-7.8L435.6,58l8.6-15.5c3.1-5.5,1.1-12.5-4.4-15.5
	c-5.5-3.1-12.5-1.1-15.5,4.4l-8.6,15.5l-18.4-10.2c-3-1.6-6.5-1.9-9.6-0.7c-3.2,1.2-5.6,3.8-6.7,6.9l-22.5,65.4
	c-1.8,5.2,0.4,11,5.2,13.7l7.7,4.3L333.7,194L301,27.9C297.9,12.3,283,0,267.1,0h-91.4c-15.9,0-30.8,12.3-33.9,27.9l-66.6,338
	c0,0,0,0,0,0.1L52.8,479.7c-1.6,8.3,0.3,16.5,5.4,22.7c5,6.1,12.8,9.7,21.2,9.7h284c8.4,0,16.1-3.5,21.2-9.7c5-6.1,7-14.4,5.4-22.7
	L367.6,366c0,0,0,0,0,0l-27-137.3l50.8-91.2l7.7,4.3c1.7,1,3.7,1.4,5.5,1.4c3.3,0,6.6-1.5,8.8-4.2l43.8-53.6
	C459.3,82.8,460.2,79.4,459.6,76z M164.1,32.3c1-5,6.5-9.5,11.5-9.5h91.4c5.1,0,10.6,4.5,11.5,9.5l37.9,192.5L267.4,313
	c-10.1-4.3-21.4-7.5-34.6-8.7v-24.3h17.9c6.3,0,11.4-5.1,11.4-11.4s-5.1-11.4-11.4-11.4h-17.9v-67.2h17.9c6.3,0,11.4-5.1,11.4-11.4
	S257,167,250.6,167h-17.9V99.8h17.9c6.3,0,11.4-5.1,11.4-11.4c0-6.3-5.1-11.4-11.4-11.4h-17.9V57c0-6.3-5.1-11.4-11.4-11.4
	s-11.4,5.1-11.4,11.4v20h-17.9c-6.3,0-11.4,5.1-11.4,11.4c0,6.3,5.1,11.4,11.4,11.4h17.9V167h-17.9c-6.3,0-11.4,5.1-11.4,11.4
	s5.1,11.4,11.4,11.4h17.9v67.2h-17.9c-6.3,0-11.4,5.1-11.4,11.4s5.1,11.4,11.4,11.4h17.9v24.3c-31.7,2.9-52.5,17.4-71,30.4
	c-12.9,9-24.4,17.1-38.4,20.5L164.1,32.3z M366.9,487.8c-0.7,0.9-2,1.3-3.6,1.3h-284c-1.6,0-2.9-0.5-3.6-1.3
	c-0.7-0.9-0.9-2.2-0.6-3.7l20.7-105c23.1-2.6,39.9-14.4,56.2-25.8c19.7-13.8,38.2-26.8,69.3-26.8s49.7,13,69.3,26.8
	c16.3,11.4,33.1,23.2,56.2,25.8l20.7,105C367.9,485.7,367.6,487,366.9,487.8z M342.2,355.2c-13.9-3.4-25.5-11.5-38.4-20.5
	c-5.2-3.6-10.5-7.4-16.2-11l35.8-64.2L342.2,355.2z M401.8,117.1l-18.7-10.4l15-43.5l32.8,18.3L401.8,117.1z"/>
</svg>
