<?xml version="1.0" encoding="utf-8"?>
<!-- Generator: Adobe Illustrator 17.1.0, SVG Export Plug-In . SVG Version: 6.00 Build 0)  -->
<!DOCTYPE svg PUBLIC "-//W3C//DTD SVG 1.1//EN" "http://www.w3.org/Graphics/SVG/1.1/DTD/svg11.dtd">
<svg version="1.1" id="Capa_1" xmlns="http://www.w3.org/2000/svg" xmlns:xlink="http://www.w3.org/1999/xlink" x="0px" y="0px"
	 viewBox="0 0 512 512" enable-background="new 0 0 512 512" xml:space="preserve">
<g>
	<path fill="#FFFFFF" d="M446,154.6c1-3.2,0.6-8-6.9-13.2L241.8,4.8C237.3,1.7,231.5,0,225.3,0c-6.2,0-12,1.7-16.5,4.8l-75.5,52.3
		V35.9c0-6-4.9-10.9-10.9-10.9h-43c-6,0-10.9,4.9-10.9,10.9v60.5c0,1.8,0.7,5-2.2,7.2l-54.7,37.9c-7.5,5.2-7.9,10-6.9,13.2
		c1,3.2,4.1,6.9,13.2,6.9H40c5.4,0,9.7,4.4,9.7,9.7v216.6c0,12.1,9.8,21.9,21.9,21.9H379c12.1,0,21.9-9.8,21.9-21.9V171.3
		c0-5.4,4.4-9.7,9.7-9.7h22.2C441.9,161.5,445,157.8,446,154.6z M142.2,290.4c0,2.7-2.2,4.9-4.9,4.9H89.4c-2.7,0-4.9-2.2-4.9-4.9
		v-42c0-2.7,2.2-4.9,4.9-4.9h47.9c2.7,0,4.9,2.2,4.9,4.9L142.2,290.4L142.2,290.4z M142.2,224.9c0,2.7-2.2,4.9-4.9,4.9H89.4
		c-2.7,0-4.9-2.2-4.9-4.9V186c0-2.7,2.2-4.9,4.9-4.9h47.9c2.7,0,4.9,2.2,4.9,4.9L142.2,224.9L142.2,224.9z M213.6,290.4
		c0,2.7-2.2,4.9-4.9,4.9h-47.9c-2.7,0-4.9-2.2-4.9-4.9v-42c0-2.7,2.2-4.9,4.9-4.9h47.9c2.7,0,4.9,2.2,4.9,4.9V290.4z M213.6,224.9
		c0,2.7-2.2,4.9-4.9,4.9h-47.9c-2.7,0-4.9-2.2-4.9-4.9V186c0-2.7,2.2-4.9,4.9-4.9h47.9c2.7,0,4.9,2.2,4.9,4.9V224.9z M339.8,390.8
		c0,2.7-2.2,4.9-4.9,4.9h-71.6c-2.7,0-4.9-2.2-4.9-4.9v-114c0-2.7,2.2-4.9,4.9-4.9h71.6c2.7,0,4.9,2.2,4.9,4.9V390.8z"/>
	<path fill="#FFFFFF" d="M454.3,345.4c-3.9,2.6-5.1,7.8-2.5,11.8l9.5,14.6c2.3,3.5,5.9,5.5,9.8,5.5c0,0,0.1,0,0.1,0
		c3.9,0,7.5-2.2,9.8-5.7l9.3-14.7c2.5-4,1.3-9.2-2.7-11.7c-2.6-1.6-5.6-1.7-8.2-0.5l-1.1-82.2c2.5,1.1,5.5,0.9,8-0.7
		c3.9-2.6,5.1-7.8,2.5-11.8l-9.5-14.6c-2.3-3.5-5.9-5.5-9.8-5.5c0,0-0.1,0-0.1,0c-3.9,0-7.5,2.2-9.8,5.7l-9.3,14.7
		c-2.5,4-1.3,9.2,2.7,11.7c1.4,0.9,3,1.3,4.5,1.3c1.3,0,2.5-0.3,3.6-0.8l1.1,82.2C459.7,343.6,456.7,343.8,454.3,345.4z"/>
	<path fill="#FFFFFF" d="M441.2,211.7C441.2,211.7,441.3,211.7,441.2,211.7l56-0.4c4.7,0,8.5-3.9,8.4-8.6c0-4.7-3.8-8.4-8.5-8.4
		c0,0,0,0-0.1,0l-56,0.4c-4.7,0-8.5,3.9-8.4,8.6C432.7,207.9,436.5,211.7,441.2,211.7z"/>
	<path fill="#FFFFFF" d="M499.2,395.4C499.2,395.4,499.2,395.4,499.2,395.4l-56,0.4c-4.7,0-8.5,3.9-8.4,8.6c0,4.7,3.8,8.4,8.5,8.4
		c0,0,0,0,0.1,0l56-0.4c4.7,0,8.5-3.9,8.4-8.6C507.7,399.2,503.9,395.4,499.2,395.4z"/>
	<path fill="#FFFFFF" d="M367.4,463.8l-14.7-9.3c-4-2.5-9.2-1.3-11.7,2.7c-1.6,2.5-1.7,5.5-0.5,8l-225.5,1.3c1.1-2.5,1-5.6-0.6-8.1
		c-2.6-3.9-7.8-5.1-11.8-2.5l-14.6,9.5c-3.5,2.3-5.6,6-5.5,9.8c0,3.9,2.2,7.5,5.7,9.8l14.7,9.3c1.4,0.9,3,1.3,4.5,1.3
		c2.8,0,5.6-1.4,7.2-4c1.6-2.5,1.7-5.5,0.5-8l225.5-1.3c-1.1,2.5-1,5.6,0.6,8.1c1.6,2.5,4.4,3.9,7.1,3.9c1.6,0,3.2-0.4,4.6-1.4
		l14.6-9.5c3.5-2.3,5.6-6,5.5-9.8C373,469.7,370.9,466.1,367.4,463.8z"/>
	<path fill="#FFFFFF" d="M399.7,437C399.7,437,399.7,437,399.7,437c-4.8,0-8.6,3.9-8.5,8.6l0.4,56c0,4.7,3.8,8.4,8.5,8.4
		c0,0,0,0,0.1,0c4.7,0,8.5-3.9,8.4-8.6l-0.4-56C408.2,440.7,404.4,437,399.7,437z"/>
	<path fill="#FFFFFF" d="M55.2,439C55.1,439,55.1,439,55.2,439c-4.8,0-8.6,3.9-8.5,8.6l0.4,56c0,4.7,3.8,8.4,8.5,8.4c0,0,0,0,0.1,0
		c4.7,0,8.5-3.9,8.4-8.6l-0.4-56C63.6,442.8,59.8,439,55.2,439z"/>
</g>
</svg>
