<?xml version="1.0" encoding="utf-8"?>
<!-- Generator: Adobe Illustrator 17.1.0, SVG Export Plug-In . SVG Version: 6.00 Build 0)  -->
<!DOCTYPE svg PUBLIC "-//W3C//DTD SVG 1.1//EN" "http://www.w3.org/Graphics/SVG/1.1/DTD/svg11.dtd">
<svg version="1.1" id="Layer_1" xmlns="http://www.w3.org/2000/svg" xmlns:xlink="http://www.w3.org/1999/xlink" x="0px" y="0px"
	 viewBox="0 0 512 512" enable-background="new 0 0 512 512" xml:space="preserve">
<g>
	<g>
		<polygon fill="#FFFFFF" points="408.5,63.9 387.7,63.9 387.7,95 356.6,95 356.6,115.8 387.7,115.8 387.7,147 408.5,147 
			408.5,115.8 439.7,115.8 439.7,95 408.5,95 		"/>
		<path fill="#FFFFFF" d="M111,40.2c-1-5.2-5.2-8.3-10.4-8.3H16v20.9h76.2L161,331.1c1,5.2,5.2,8.3,10.4,8.3h268.2v-20.9H178.8
			L111,40.2z"/>
		<rect x="171.5" y="371.7" fill="#FFFFFF" width="237.9" height="20.9"/>
		<path fill="#FFFFFF" d="M396.9,419.7c-21.9,0-40.7,18.8-40.7,40.7s17.7,40.7,40.7,40.7s40.7-18.8,40.7-40.7
			S418.8,419.7,396.9,419.7z M396.9,480.1c-10.4,0-19.8-9.4-19.8-19.8s8.3-19.8,19.8-19.8s19.8,9.4,19.8,19.8
			C416.7,470.8,407.3,480.1,396.9,480.1z"/>
		<path fill="#FFFFFF" d="M198.6,419.7c-21.9,0-40.7,18.8-40.7,40.7s17.7,40.7,40.7,40.7c21.9,0,40.7-18.8,40.7-40.7
			S220.5,419.7,198.6,419.7z M198.6,480.1c-10.4,0-19.8-9.4-19.8-19.8s8.3-19.8,19.8-19.8c10.4,0,19.8,9.4,19.8,19.8
			C218.4,470.8,209,480.1,198.6,480.1z"/>
		<path fill="#FFFFFF" d="M496,104.8c0-52.1-41.7-93.8-93.9-93.8s-93.9,41.7-93.9,93.8c0,0.7,0,1.4,0,2.1H167.3
			c-10,0-11.7,9.1-10.4,13.6L201.8,279c1.1,4.3,6.3,7.3,10.4,7.3h227.5c5.2,0,9.4-3.1,11.5-8.3c0,0,41.8-148.9,42.5-151.9l0,0
			C495.2,119.2,496,112.1,496,104.8z M180.9,127.8H311c2.9,11.8,8.1,22.8,15,32.3H189.2L180.9,127.8z M431.3,265.4H219.5l-8.3-32.3
			h229.6L431.3,265.4z M447,212.2H205l-9-31.3h150.9c15.5,11.2,34.5,17.7,55.2,17.7c20,0,38.4-6.1,53.5-16.6L447,212.2L447,212.2z
			 M402.1,177.8c-40.7,0-73-32.3-73-73s32.3-73,73-73s73,32.3,73,73S442.8,177.8,402.1,177.8z"/>
	</g>
</g>
</svg>
