<?xml version="1.0" encoding="utf-8"?>
<!-- Generator: Adobe Illustrator 17.1.0, SVG Export Plug-In . SVG Version: 6.00 Build 0)  -->
<!DOCTYPE svg PUBLIC "-//W3C//DTD SVG 1.1//EN" "http://www.w3.org/Graphics/SVG/1.1/DTD/svg11.dtd">
<svg version="1.1" id="Capa_1" xmlns="http://www.w3.org/2000/svg" xmlns:xlink="http://www.w3.org/1999/xlink" x="0px" y="0px"
	 viewBox="0 0 512 512" enable-background="new 0 0 512 512" xml:space="preserve">
<g>
	<g id="Layer_2_32_">
		<rect x="132.7" y="426.7" fill="#FFFFFF" width="246.5" height="19"/>
		<rect x="132.7" y="170.7" fill="#FFFFFF" width="246.5" height="170.7"/>
		<polygon fill="#FFFFFF" points="172.2,101.3 201.4,139.2 230.6,101.3 259.9,139.2 289.1,101.3 318.3,139.2 347.5,101.3 
			376.8,139.2 379.3,136 379.3,94.8 132.7,94.8 132.7,125.9 143,139.2 		"/>
		<polygon fill="#FFFFFF" points="379.3,151.5 376.8,154.7 347.5,116.8 318.3,154.7 289.1,116.8 259.9,154.7 230.6,116.8 
			201.4,154.7 172.2,116.8 143,154.7 132.7,141.4 132.7,161.2 379.3,161.2 		"/>
		<polygon fill="#FFFFFF" points="379.3,407.5 376.8,410.7 347.5,372.8 318.3,410.7 289.1,372.8 259.9,410.7 230.6,372.8 
			201.4,410.7 172.2,372.8 143,410.7 132.7,397.4 132.7,417.2 379.3,417.2 		"/>
		<polygon fill="#FFFFFF" points="172.2,357.3 201.4,395.2 230.6,357.3 259.9,395.2 289.1,357.3 318.3,395.2 347.5,357.3 
			376.8,395.2 379.3,392 379.3,350.8 132.7,350.8 132.7,381.9 143,395.2 		"/>
		<rect x="132.7" y="66.4" fill="#FFFFFF" width="246.5" height="19"/>
		<rect x="132.7" y="0" fill="#FFFFFF" width="19" height="56.9"/>
		<rect x="161.2" y="0" fill="#FFFFFF" width="19" height="56.9"/>
		<rect x="189.6" y="0" fill="#FFFFFF" width="19" height="56.9"/>
		<rect x="218.1" y="0" fill="#FFFFFF" width="19" height="56.9"/>
		<rect x="246.5" y="0" fill="#FFFFFF" width="19" height="56.9"/>
		<rect x="275" y="0" fill="#FFFFFF" width="19" height="56.9"/>
		<rect x="303.4" y="0" fill="#FFFFFF" width="19" height="56.9"/>
		<rect x="331.9" y="0" fill="#FFFFFF" width="19" height="56.9"/>
		<rect x="360.3" y="0" fill="#FFFFFF" width="19" height="56.9"/>
		<rect x="132.7" y="455.1" fill="#FFFFFF" width="19" height="56.9"/>
		<rect x="161.2" y="455.1" fill="#FFFFFF" width="19" height="56.9"/>
		<rect x="189.6" y="455.1" fill="#FFFFFF" width="19" height="56.9"/>
		<rect x="218.1" y="455.1" fill="#FFFFFF" width="19" height="56.9"/>
		<rect x="246.5" y="455.1" fill="#FFFFFF" width="19" height="56.9"/>
		<rect x="275" y="455.1" fill="#FFFFFF" width="19" height="56.9"/>
		<rect x="303.4" y="455.1" fill="#FFFFFF" width="19" height="56.9"/>
		<rect x="331.9" y="455.1" fill="#FFFFFF" width="19" height="56.9"/>
		<rect x="360.3" y="455.1" fill="#FFFFFF" width="19" height="56.9"/>
	</g>
</g>
</svg>
