<?xml version="1.0" encoding="utf-8"?>
<!-- Generator: Adobe Illustrator 17.1.0, SVG Export Plug-In . SVG Version: 6.00 Build 0)  -->
<!DOCTYPE svg PUBLIC "-//W3C//DTD SVG 1.1//EN" "http://www.w3.org/Graphics/SVG/1.1/DTD/svg11.dtd">
<svg version="1.1" id="Capa_1" xmlns="http://www.w3.org/2000/svg" xmlns:xlink="http://www.w3.org/1999/xlink" x="0px" y="0px"
	 viewBox="0 0 512 512" enable-background="new 0 0 512 512" xml:space="preserve">
<g>
	<g>
		<path fill="#FFFFFF" d="M475.6,235.2h-51h-6.8c-15.1,0-27.3,12.2-27.3,27.4v3c0,15.1,12.2,27.4,27.3,27.4h51.1h6.8
			c15.1,0,27.4-12.3,27.4-27.4l0-3C503,247.5,490.8,235.2,475.6,235.2z"/>
		<path fill="#FFFFFF" d="M475.7,167h-12V34.6c0-19-15.6-34.6-34.6-34.6H200.8c-19,0-34.6,15.6-34.6,34.6v95
			c-46,26-93.5,53.2-93.6,53.3C46.8,193.5,9,227.7,9,308.5c0,7.2,0.5,13.9,1.1,20.3c0.2,1.9,0.4,3.7,0.7,5.5
			c0.7,4.7,1.5,9.3,2.5,13.5c0.4,1.5,0.6,3.1,1,4.6c1.3,5,2.9,9.6,4.6,14.1c0.9,2.2,1.8,4.2,2.8,6.3c1,2.2,2.1,4.3,3.2,6.3
			c1.3,2.4,2.6,4.7,4,6.9c0.3,0.5,0.7,1,1,1.5c33.3,50.3,94.7,50.5,94.7,50.5h41.5v39.3c0,19,15.6,34.6,34.6,34.6H429
			c19,0,34.6-15.6,34.6-34.6v-47.9h5.3v0h6.7c15.1,0,27.4-12.2,27.4-27.4l0-3c0-15.1-12.3-27.3-27.4-27.3h-6.8h-44.3h-6.8
			c-15.1,0-27.3,12.2-27.3,27.3v3c0,15.1,12.2,27.4,27.3,27.4h21.7V448H190.2V199.6c12.5-7.9,24.1-15.6,30.7-20.7
			c33.5-25.9,65.3-46.5,69.6-65.3c5.6-24.3-13-44.7-45.4-27.9c-10.2,5.3-31.1,16.9-55,30.3V54.8l249.3,0V167h-14.9v0h-6.8
			c-15.1,0-27.4,12.2-27.4,27.4v3c0,15.1,12.3,27.3,27.4,27.3h6.8h44.3h6.8c15.1,0,27.3-12.2,27.3-27.3v-3
			C503,179.2,490.8,167,475.7,167z M314.9,460.2c9.6,0,17.3,7.7,17.3,17.3c0,9.6-7.7,17.3-17.3,17.3c-9.6,0-17.3-7.7-17.3-17.3
			C297.6,467.9,305.3,460.2,314.9,460.2z M351.4,33.3h-73c-2.3,0-4.2-1.9-4.2-4.2c0-2.3,1.9-4.2,4.2-4.2h73c2.3,0,4.2,1.9,4.2,4.2
			C355.6,31.4,353.7,33.3,351.4,33.3z"/>
		<path fill="#FFFFFF" d="M475.6,303.5h-6.8h-51.1c-15.1,0-27.4,12.3-27.4,27.4v3c0,15.1,12.2,27.4,27.4,27.4h6.8h44.3h6.8
			c15.1,0,27.3-12.2,27.4-27.4v-3C503,315.8,490.8,303.5,475.6,303.5z"/>
	</g>
</g>
</svg>
