<?xml version="1.0" encoding="utf-8"?>
<!-- Generator: Adobe Illustrator 17.1.0, SVG Export Plug-In . SVG Version: 6.00 Build 0)  -->
<!DOCTYPE svg PUBLIC "-//W3C//DTD SVG 1.1//EN" "http://www.w3.org/Graphics/SVG/1.1/DTD/svg11.dtd">
<svg version="1.1" id="Capa_1" xmlns="http://www.w3.org/2000/svg" xmlns:xlink="http://www.w3.org/1999/xlink" x="0px" y="0px"
	 viewBox="0 0 512 512" enable-background="new 0 0 512 512" xml:space="preserve">
<g>
	<path fill="#FFFFFF" d="M260.1,440.5h136.7c-0.4,2.9-0.4,5.8-0.8,8.3H115.6c-0.4-2.5-0.4-5.4-0.8-8.3h136.7v-319h-10.8
		c1.7-2.5,2.5-5.4,2.5-8.3h25.3c0,2.9,1.2,5.8,2.5,8.3h-10.8V440.5z M282.9,129.4c-0.8,0-1.2,0-2.1-0.4v0.4
		c10,47.2,39.8,136.3,127.6,157c2.1-3.3,6.2-5.8,10.4-5.8h50.5V127.4c-1.7,1.7-4.5,2.5-7.9,2.5c-0.8,0-1.2,0-2.1-0.4
		c-4.1-0.4-7.9-2.5-10.4-5.4c-0.4,0.4-0.8,0.8-1.2,1.2c-0.8,0.8-2.1,1.7-2.9,2.1c-2.5,1.2-5.4,2.5-8.3,2.5c-0.8,0-1.2,0-2.1-0.4
		c-4.1-0.4-7.9-2.5-10.4-5.4c-0.4,0.4-0.8,0.8-1.2,1.2c-2.9,2.9-7,4.6-11.6,4.6c-0.8,0-1.2,0-2.1-0.4c-4.1-0.4-7.9-2.5-10.4-5.4
		c0,0-0.8,0.8-1.2,1.2c-2.9,2.9-7,4.6-11.6,4.6c-0.8,0-1.2,0-2.1-0.4c-4.1-0.4-7.9-2.5-10.4-5.4c-0.4,0.4-1.3,1.2-1.3,1.2
		c-2.9,2.9-7,4.6-11.6,4.6c-0.8,0-1.3,0-2.1-0.4c-4.1-0.4-7.9-2.5-10.4-5.4c-0.4,0.4-0.8,0.8-1.3,1.2c-2.9,2.9-7,4.6-11.6,4.6
		c-0.8,0-1.2,0-2.1-0.4c-4.1-0.4-7.9-2.5-10.4-5.4c-0.4,0.4-0.8,0.8-1.2,1.2c-2.9,2.9-7,4.6-11.6,4.6c-0.8,0-1.2,0-2.1-0.4
		c-4.1-0.4-7.9-2.5-10.4-5.4c-0.4,0.4-0.8,0.8-1.2,1.2c-2.9,2.9-7,4.6-11.6,4.6C284.2,129.9,283.8,129.9,282.9,129.4z M436.6,322.9
		c-2.1,0-4.1-0.4-5.8-1.3c-14.1,35.2-21.5,86.6-25.3,118.9c-0.4,2.9-0.4,5.8-0.8,8.3c-0.8,7.5-1.2,13.3-1.7,17h66.7V322.9h-24.9
		H436.6z M470.2,289.4h-25.3h-8.3h-12.4H420c-2.5,0-4.1,2.1-4.1,4.1c0,1.2,0.4,2.5,1.7,3.3c0,0,0,0,0.4,0c0.4,0,0.4,0.4,0.8,0.4
		c0.4,0,1.3,0.4,1.7,0.4h3.7H437h7h1.7H471c0.4,0,1.2-0.4,1.7-0.4c1.7-0.8,2.5-2.1,2.5-3.7C474.3,291.4,472.2,289.4,470.2,289.4z
		 M470.2,306.3h-25.3h-6.6h-1.7c-0.4,0-0.4,0-0.8,0c-2.1,0.4-3.3,2.1-3.3,4.1c0,0.4,0,0.8,0.4,1.2c0.4,0.8,0.8,1.7,1.7,2.1
		c0.4,0,0.4,0.4,0.8,0.4c0.4,0,1.3,0.4,1.7,0.4h8.3h25.3c0,0,0.4,0,1.2-0.4c1.7-0.8,2.5-2.1,2.5-3.7
		C474.3,308,472.2,306.3,470.2,306.3z M106.5,440.5c-3.3-29.8-9.9-77-22.4-111.8c-0.8-2.5-1.7-5-2.9-7.4c-1.7,0.8-3.7,1.2-5.8,1.2
		H41.8v143.3h66.7c0-3.7-0.4-9.5-1.2-17C106.9,446.4,106.9,443.4,106.5,440.5z M268.4,96.3V71h-25.3v25.3h0.4H268.4z M499.6,71
		h-21.1v25.3h21.1c7,0,12.4-5.8,12.4-12.4C512,76.8,506.2,71,499.6,71z M0,83.5c0,7,5.8,12.4,12.4,12.4h21.1V71H12.4
		C5.4,71,0,76.8,0,83.5z M40.6,297.6c0,0,0.8,0.4,1.2,0.4h26.5h7h8.3h4.6H92c0.4,0,1.2-0.4,1.7-0.4s0.4-0.4,0.8-0.4c0,0,0,0,0.4,0
		c0.8-0.8,1.7-2.1,1.7-3.3c0-2.5-2.1-4.1-4.1-4.1h-4.1h-4.1h-8.3H42.3c-2.5,0-4.1,2.1-4.1,4.1C38.1,295.6,39.4,297.2,40.6,297.6z
		 M75.4,314.6c0.4,0,1.2,0,1.7-0.4c0.4,0,0.4-0.4,0.8-0.4c0.8-0.4,1.2-1.2,1.7-2.1c0-0.4,0.4-0.8,0.4-1.2c0-2.1-1.2-3.7-3.3-4.1
		c-0.4,0-0.4,0-0.8,0h-1.7H42.2c-2.5,0-4.1,2.1-4.1,4.1c-0.4,1.7,0.4,3.3,2.1,3.7c0.4,0,1.2,0.4,1.7,0.4L75.4,314.6L75.4,314.6
		L75.4,314.6z M82.8,281.1h8.3c4.6,0,8.3,2.1,10.4,5.8c24-5.8,43.9-16.2,60.1-29.8c2.5,1.7,4.1,3.7,6.2,5.4c0,0.4,0.4,0.4,0.4,0.8
		c2.5,2.9,5.8,5.8,9.1,9.1c12,11.6,23.2,19.9,24.4,18.2c1.2-1.7-7.5-12-19.5-23.6c-3.3-2.9-6.2-5.8-9.1-8.3c-0.4,0-0.4-0.4-0.8-0.4
		c-2.1-1.7-4.1-3.3-6.2-5c40.2-36.5,57.2-90.7,63.8-123.9c-1.2,0.4-2.5,0.4-4.1,0.4c-0.8,0-1.2,0-2.1-0.4c-4.1-0.4-7.9-2.5-10.4-5.4
		c-0.4,0.4-0.8,0.8-1.2,1.2c-2.9,2.9-7,4.6-11.6,4.6c-0.8,0-1.2,0-2.1-0.4c-4.1-0.4-7.9-2.5-10.4-5.4c-0.4,0.4-0.8,0.8-1.2,1.2
		c-2.9,2.9-7,4.6-11.6,4.6c-0.8,0-1.2,0-2.1-0.4c-4.1-0.4-7.9-2.5-10.4-5.4c-0.4,0.4-0.8,0.8-1.2,1.2c-2.9,2.9-7,4.6-11.6,4.6
		c-0.8,0-1.2,0-2.1-0.4c-4.1-0.4-7.9-2.5-10.4-5.4c-0.4,0.4-0.8,0.8-1.2,1.2c-2.9,2.9-7,4.6-11.6,4.6c-0.8,0-1.2,0-2.1-0.4
		c-4.1-0.4-7.9-2.5-10.4-5.4c-0.4,0.4-0.8,0.8-1.2,1.2c-2.9,2.9-7,4.6-11.6,4.6c-0.8,0-1.2,0-2.1-0.4c-4.1-0.4-7.9-2.5-10.4-5.4
		c-0.4,0.4-0.8,0.8-1.2,1.2c-0.8,0.8-2.1,1.7-2.9,2.1c-2.5,1.2-5.4,2.5-8.3,2.5c-0.8,0-1.2,0-2.1-0.4c-4.1-0.4-7.9-2.5-10.4-5.4
		c-0.4,0.4-0.8,0.8-1.2,1.2c-2.9,2.9-7,4.6-11.6,4.6c-0.8,0-1.2,0-2.1-0.4c-2.1-0.4-4.6-0.8-6.2-2.1c0,0.8,0,1.7,0,1.7v152h33.6
		L82.8,281.1L82.8,281.1z M182.4,308.7c-12.1-11.5-23.1-19.6-24.5-18.1c-1.4,1.5,7.3,12,19.4,23.5c12.1,11.5,23.1,19.6,24.5,18.1
		C203.2,330.7,194.5,320.2,182.4,308.7z M345.2,314c12.1,11.5,23.1,19.6,24.5,18.1c1.4-1.5-7.3-12-19.4-23.5
		c-12.1-11.5-23.1-19.6-24.5-18.1C324.4,292,333.1,302.6,345.2,314z M345.2,280.4c12.1,11.5,23.1,19.6,24.5,18.1
		c1.4-1.5-7.3-12-19.4-23.5c-12.1-11.5-23.1-19.6-24.5-18.1C324.4,258.4,333.1,269,345.2,280.4z M50.1,122c4.6,0,8.3-3.7,8.3-8.3
		V54.5c0-4.6-3.7-8.3-8.3-8.3c-4.1,0-7.5,2.9-8.3,7v60.5C41.8,118.3,45.6,122,50.1,122z M75.4,122c4.6,0,8.3-3.7,8.3-8.3V54.5
		c0-4.6-3.7-8.3-8.3-8.3c-4.1,0-7.5,2.9-8.3,7v60.5C67.1,118.3,70.8,122,75.4,122z M100.2,122c4.6,0,8.3-3.7,8.3-8.3V54.5
		c0.4-4.6-3.3-8.3-8.3-8.3c-4.1,0-7.5,2.9-8.3,7v60.5C92,118.3,95.7,122,100.2,122z M125.5,122c4.6,0,8.3-3.7,8.3-8.3V54.5
		c0-4.6-3.7-8.3-8.3-8.3c-4.1,0-7.5,2.9-8.3,7v60.5C117.2,118.3,121,122,125.5,122z M150.8,122c4.6,0,8.3-3.7,8.3-8.3V54.5
		c0-4.6-3.7-8.3-8.3-8.3c-4.1,0-7.5,2.9-8.3,7v60.5C142.5,118.3,146.2,122,150.8,122z M176.1,122c4.6,0,8.3-3.7,8.3-8.3V54.5
		c0-4.6-3.7-8.3-8.3-8.3c-4.1,0-7.5,2.9-8.3,7v60.5C167.8,118.3,171.5,122,176.1,122z M201.3,122c4.6,0,8.3-3.7,8.3-8.3V54.5
		c0-4.6-3.7-8.3-8.3-8.3c-4.1,0-7.5,2.9-8.3,7v60.5C193,118.3,196.8,122,201.3,122z M226.2,122c4.6,0,8.3-3.7,8.3-8.3V54.5
		c0.4-4.6-3.3-8.3-8.3-8.3c-4.1,0-7.5,2.9-8.3,7v60.5C217.9,118.3,221.6,122,226.2,122z M285,122c4.6,0,8.3-3.7,8.3-8.3V54.5
		c0.4-4.6-3.3-8.3-8.3-8.3c-4.1,0-7.5,2.9-8.3,7v60.5C276.7,118.3,280.4,122,285,122z M310.3,122c4.5,0,8.3-3.7,8.3-8.3V54.5
		c0-4.6-3.7-8.3-8.3-8.3c-4.1,0-7.5,2.9-8.3,7v60.5C302,118.3,305.7,122,310.3,122z M335.5,122c4.6,0,8.3-3.7,8.3-8.3V54.5
		c0-4.6-3.7-8.3-8.3-8.3c-4.1,0-7.5,2.9-8.3,7v60.5C327.3,118.3,331,122,335.5,122z M360.8,122c4.6,0,8.3-3.7,8.3-8.3V54.5
		c0-4.6-3.7-8.3-8.3-8.3c-4.1,0-7.5,2.9-8.3,7v60.5C352.5,118.3,356.3,122,360.8,122z M385.7,122c4.6,0,8.3-3.7,8.3-8.3V54.5
		c0.4-4.6-3.3-8.3-8.3-8.3c-4.1,0-7.5,2.9-8.3,7v60.5C377.4,118.3,381.1,122,385.7,122z M410.9,122c4.6,0,8.3-3.7,8.3-8.3V54.5
		c0.4-4.6-3.7-8.3-8.3-8.3c-4.1,0-7.4,2.9-8.3,7v60.5C402.6,118.3,406.4,122,410.9,122z M436.2,122c4.6,0,8.3-3.7,8.3-8.3V54.5
		c0-4.6-3.7-8.3-8.3-8.3c-4.1,0-7.5,2.9-8.3,7v60.5C427.9,118.3,431.6,122,436.2,122z M461.5,122c4.5,0,8.3-3.7,8.3-8.3V54.5
		c0-4.6-3.7-8.3-8.3-8.3c-4.1,0-7.5,2.9-8.3,7v60.5C453.2,118.3,456.9,122,461.5,122z"/>
</g>
</svg>
