<?xml version="1.0" encoding="utf-8"?>
<!-- Generator: Adobe Illustrator 17.1.0, SVG Export Plug-In . SVG Version: 6.00 Build 0)  -->
<!DOCTYPE svg PUBLIC "-//W3C//DTD SVG 1.1//EN" "http://www.w3.org/Graphics/SVG/1.1/DTD/svg11.dtd">
<svg version="1.1" id="Layer_1" xmlns="http://www.w3.org/2000/svg" xmlns:xlink="http://www.w3.org/1999/xlink" x="0px" y="0px"
	 viewBox="0 0 612.3 402.5" enable-background="new 0 0 612.3 402.5" xml:space="preserve">
<g>
	<path fill="#FFFFFF" d="M494,88.8H283.9V58.7c0-7.4-6-13.4-13.4-13.4h-8.4c0-0.4,0.1-0.7,0.1-1.1v-29c0-7.4-6-13.4-13.4-13.4h-87
		c-7.4,0-13.4,6-13.4,13.4v29c0,0.4,0,0.7,0.1,1.1H140c-7.4,0-13.4,6-13.4,13.4v30.1h-8.4c-7.4,0-13.4,6-13.4,13.4v285.2
		c0,7.4,6,13.4,13.4,13.4H494c7.4,0,13.4-6,13.4-13.4V102.2C507.4,94.8,501.4,88.8,494,88.8L494,88.8z M480.6,174.6L281.3,374h-132
		l258.3-258.3c0,0,0-0.1,0.1-0.1h73L480.6,174.6L480.6,174.6z M131.7,115.6h92.9l-92.9,92.9V115.6L131.7,115.6z M131.7,234.9
		l119.4-119.4h130L131.7,365L131.7,234.9L131.7,234.9z M175.2,44.2V28.6h60.2v15.6c0,0.4,0,0.7,0.1,1.1h-60.3
		C175.1,44.9,175.2,44.5,175.2,44.2z M153.4,72.1h103.7v16.7H153.4C153.4,88.8,153.4,72.1,153.4,72.1z M307.8,374l172.8-172.8V374
		H307.8z"/>
	<path fill="#FFFFFF" d="M455.2,269.3l-8.5,8.5c-3.7,3.7-3.7,9.6,0,13.3c1.8,1.8,4.2,2.7,6.6,2.7c2.4,0,4.8-0.9,6.6-2.7l8.5-8.5
		c3.7-3.7,3.7-9.6,0-13.3C464.8,265.6,458.9,265.6,455.2,269.3z"/>
	<path fill="#FFFFFF" d="M379.5,345.1l-7.9,7.9c-3.7,3.7-3.7,9.6,0,13.3c1.8,1.8,4.2,2.7,6.6,2.7c2.4,0,4.8-0.9,6.6-2.7l7.9-7.9
		c3.7-3.7,3.7-9.6,0-13.3C389.1,341.4,383.1,341.4,379.5,345.1L379.5,345.1z"/>
	<path fill="#FFFFFF" d="M417.3,307.2l-8.5,8.5c-3.7,3.7-3.7,9.6,0,13.3c1.8,1.8,4.2,2.7,6.6,2.7c2.4,0,4.8-0.9,6.6-2.7l8.5-8.5
		c3.7-3.7,3.7-9.6,0-13.3C426.9,303.5,421,303.5,417.3,307.2L417.3,307.2z"/>
	<path fill="#FFFFFF" d="M240.7,172.7l-8.5,8.5c-3.7,3.7-3.7,9.6,0,13.3c1.8,1.8,4.2,2.7,6.6,2.7c2.4,0,4.8-0.9,6.6-2.7l8.5-8.5
		c3.7-3.7,3.7-9.6,0-13.3C250.3,169.1,244.4,169.1,240.7,172.7L240.7,172.7z"/>
	<path fill="#FFFFFF" d="M291.8,134.9c-3.7-3.7-9.6-3.7-13.3,0l-8.5,8.5c-3.7,3.7-3.7,9.6,0,13.3c1.8,1.8,4.2,2.7,6.6,2.7
		c2.4,0,4.8-0.9,6.6-2.7l8.5-8.5C295.5,144.5,295.5,138.5,291.8,134.9L291.8,134.9z"/>
	<path fill="#FFFFFF" d="M202.8,210.6l-8.5,8.5c-3.7,3.7-3.7,9.6,0,13.3c1.8,1.8,4.2,2.7,6.6,2.7c2.4,0,4.8-0.9,6.6-2.7l8.5-8.5
		c3.7-3.7,3.7-9.6,0-13.3C212.4,207,206.5,207,202.8,210.6L202.8,210.6z"/>
	<path fill="#FFFFFF" d="M164.9,248.5l-8.5,8.5c-3.7,3.7-3.7,9.6,0,13.3c1.8,1.8,4.2,2.7,6.6,2.7c2.4,0,4.8-0.9,6.6-2.7l8.5-8.5
		c3.7-3.7,3.7-9.6,0-13.3C174.5,244.9,168.6,244.9,164.9,248.5z"/>
	<path fill="#FFFFFF" d="M321.1,257.4l-8.5,8.5c-3.7,3.7-3.7,9.6,0,13.3c1.8,1.8,4.2,2.7,6.6,2.7c2.4,0,4.8-0.9,6.6-2.7l8.5-8.5
		c3.7-3.7,3.7-9.6,0-13.3C330.7,253.7,324.8,253.7,321.1,257.4L321.1,257.4z"/>
	<path fill="#FFFFFF" d="M283.3,295.3l-8.5,8.5c-3.7,3.7-3.7,9.6,0,13.3c1.8,1.8,4.2,2.7,6.6,2.7c2.4,0,4.8-0.9,6.6-2.7l8.5-8.5
		c3.7-3.7,3.7-9.6,0-13.3C292.9,291.6,286.9,291.6,283.3,295.3z"/>
	<path fill="#FFFFFF" d="M245.4,333.2l-8.5,8.5c-3.7,3.7-3.7,9.6,0,13.3c1.8,1.8,4.2,2.7,6.6,2.7s4.8-0.9,6.6-2.7l8.5-8.5
		c3.7-3.7,3.7-9.6,0-13.3C255,329.5,249,329.5,245.4,333.2L245.4,333.2z"/>
	<path fill="#FFFFFF" d="M396.9,181.6l-8.5,8.5c-3.7,3.7-3.7,9.6,0,13.3c1.8,1.8,4.2,2.7,6.6,2.7c2.4,0,4.8-0.9,6.6-2.7l8.5-8.5
		c3.7-3.7,3.7-9.6,0-13.3C406.5,178,400.6,178,396.9,181.6L396.9,181.6z"/>
	<path fill="#FFFFFF" d="M432.9,168.3c2.4,0,4.8-0.9,6.6-2.7l8.5-8.5c3.7-3.7,3.7-9.6,0-13.3c-3.7-3.7-9.6-3.7-13.3,0l-8.5,8.5
		c-3.7,3.7-3.7,9.6,0,13.3C428.1,167.3,430.5,168.3,432.9,168.3z"/>
	<path fill="#FFFFFF" d="M359,219.5l-8.5,8.5c-3.7,3.7-3.7,9.6,0,13.3c1.8,1.8,4.2,2.7,6.6,2.7s4.8-0.9,6.6-2.7l8.5-8.5
		c3.7-3.7,3.7-9.6,0-13.3C368.6,215.8,362.7,215.8,359,219.5z"/>
</g>
</svg>
