<?xml version="1.0" encoding="utf-8"?>
<!-- Generator: Adobe Illustrator 17.1.0, SVG Export Plug-In . SVG Version: 6.00 Build 0)  -->
<!DOCTYPE svg PUBLIC "-//W3C//DTD SVG 1.1//EN" "http://www.w3.org/Graphics/SVG/1.1/DTD/svg11.dtd">
<svg version="1.1" id="Capa_1" xmlns="http://www.w3.org/2000/svg" xmlns:xlink="http://www.w3.org/1999/xlink" x="0px" y="0px"
	 viewBox="0 0 512 512" enable-background="new 0 0 512 512" xml:space="preserve">
<g>
	<path fill="#FFFFFF" d="M487.3,221.1c13.2-29.1,11.8-64.6-4.1-94.2c-16.6-31-46-51.1-81.3-56c-14.2-41.2-55.3-69.4-102-69.4
		c-25.8,0-50.5,8.9-70.2,25.3c-16.8-8.4-34.4-12.7-52.6-12.7c-33.3,0-65.7,14.5-88.8,39.9C68.6,75.4,58,102.7,58.7,129.7
		c-31.9,15-52.2,43.2-57.4,80.2C-4.3,249,9,291.7,33.1,315.3c-9.6,18.8-8.6,48.1,3.3,73.7C54,427,91,450.2,138.5,453.2
		c14.3,33.6,56.7,57.4,103.7,57.4c32.7,0,62.8-11.3,85.3-32c8,1.9,16.1,2.8,24.1,2.8h0c28.6,0,55.2-11.9,74.7-33.6
		c16.9-18.8,26.1-42.3,25.7-65.4c28.4-10.7,49.5-36.1,57.2-69.2C517,278.8,508.5,243.5,487.3,221.1z M491.5,309
		c-6.7,29.3-26,51.1-51.4,58.2l-7.3,2.1l0.8,7.6c2.1,20-5.6,42-20.7,58.8c-16.1,17.9-37.8,27.7-61.3,27.7h0c-8,0-16.1-1.2-24.3-3.4
		l-5.1-1.4l-3.7,3.8c-19.4,19.6-46.5,30.3-76.2,30.3c-42.1,0-79.5-21.4-88.8-50.8l-1.9-6.1l-6.4-0.2c-59.4-1.5-83.4-34.5-92.4-54
		c-11.6-25.2-9.6-51.4-0.9-62.2l5.8-7.1l-7.2-5.6c-23.3-18.2-36.5-57.8-31.3-94.1c2.7-18.9,13-52.9,52.3-68.6l6.2-2.5l-0.6-6.7
		c-2.2-24.4,6.5-48.8,24.5-68.6c19.7-21.6,47.2-34,75.5-34c17.1,0,33.7,4.5,49.4,13.4l5.7,3.2l4.8-4.5
		c17.1-15.9,39.4-24.7,62.9-24.7c40.8,0,76.4,25.5,86.5,62.1l1.7,6l6.2,0.5c31.7,2.8,58.4,20,73,47.3c14.2,26.5,14.6,58.4,1.1,83.2
		l-3.4,6.3l5.4,4.8C490.2,247.3,498.6,278.5,491.5,309z"/>
	<path fill="#FFFFFF" d="M408.5,169.4c-11.2-20.8-30.6-34.5-54-38.2C344.1,103.7,316.4,85,285,85c-17.1,0-33.4,5.7-46.7,16.1
		c-32.1-15.2-71.1-6.9-95.1,19.5c-13,14.2-20.2,32.2-20.3,50.2c-21,10.5-34.3,29.6-37.8,54.4c-3.7,26.3,4.5,54.1,20.4,70.6
		c-5.6,13.2-4.7,32.4,3,49.2c11.9,25.7,36.5,41.5,68.1,44c10.6,22.6,38.5,38,70.5,38c21.8,0,41.8-7.4,57.1-20.8
		c25,5.3,49.7-2.9,66.5-21.6c11.2-12.4,17.4-27.8,17.7-43.1c18.7-7.8,32.5-24.9,37.6-47c5.3-22.8-0.1-46.4-13.8-62
		C420.4,212.7,419.1,189.1,408.5,169.4z M408.3,290.3c-4.2,18.2-16.1,31.7-31.8,36.1l-7.3,2.1l0.8,7.6c1.3,12.4-3.5,26-12.9,36.4
		c-13.4,14.9-33.3,20.7-53.3,15.1l-5.1-1.4l-3.7,3.8c-12.2,12.3-29.3,19.1-48.1,19.1c-26.5,0-49.9-13.2-55.6-31.3l-1.9-6.1l-6.4-0.2
		c-37.5-1-52.6-21.6-58.2-33.9c-7.1-15.3-6-31.5-1-37.8l5.8-7.1l-7.2-5.6c-14.3-11.2-22.7-36.6-19.5-59.2
		c1.7-11.8,8.1-33.1,32.6-42.8l6.2-2.5l-0.6-6.7c-1.4-15.2,4.1-30.5,15.4-42.9c12.4-13.6,29.7-21.4,47.5-21.4
		c10.8,0,21.2,2.8,31.1,8.4l5.7,3.2l4.8-4.5c10.7-10,24.7-15.5,39.3-15.5c25.6,0,47.8,15.9,54.1,38.7l1.7,6l6.2,0.5
		c19.9,1.7,36.5,12.5,45.7,29.6c8.9,16.5,9.2,36.5,0.7,52l-3.4,6.3l5.4,4.8C407.6,251.8,412.7,271.2,408.3,290.3z"/>
	<path fill="#FFFFFF" d="M334.1,211.7c-5.7-10.6-15.4-17.9-27-20.4c-6.3-13.7-20.8-22.9-37.1-22.9c-8.4,0-16.4,2.5-23.3,7.1
		c-16.7-6.7-36.7-1.9-49,11.7c-6.4,7-10.2,15.8-11,24.7c-10.1,6-16.7,16.1-18.4,28.5c-1.8,13,1.9,26.8,9.2,35.9
		c-2.1,7.3-1.3,16.5,2.5,24.8c6.2,13.3,18.5,21.8,34.4,23.8c6.6,11.3,21,18.7,37.1,18.7c10.9,0,21-3.5,29-9.8
		c12.9,2,25.8-2.7,34.4-12.4c5.5-6.1,8.8-13.4,9.6-21c9.1-4.8,15.8-13.7,18.4-24.8c2.7-11.7,0.4-23.4-5.9-32
		C340.5,233.4,339.5,221.7,334.1,211.7z M325.4,271.6c-1.6,7.2-6.2,12.4-12.2,14.1l-7.3,2.1l0.8,7.6c0.5,4.7-1.4,10-5.1,14.1
		c-2.3,2.6-7.3,6.8-15.1,6.8c-2,0-4-0.3-6.1-0.9l-5.1-1.4l-3.7,3.8c-5.1,5.1-12.2,7.9-20.1,7.9c-10.5,0-20.5-5.2-22.6-12l-1.9-6.1
		l-6.4-0.2c-15.7-0.4-21.9-8.8-24.2-13.7c-3.1-6.6-2-12.3-1.1-13.5l5.8-7.1l-7.2-5.6c-5-3.9-9.2-14.1-7.7-24.4
		c0.8-5.8,3.7-13.4,12.9-17.1l6.2-2.5l-0.6-6.7c-0.6-6.1,1.7-12.2,6.3-17.3c5.2-5.7,12.3-8.9,19.7-8.9c4.4,0,8.7,1.2,12.8,3.5
		l5.7,3.2l4.8-4.5c5.6-5.2,11.7-6.3,15.9-6.3c10.3,0,19.3,6.3,21.8,15.4l1.7,6.1l6.3,0.5c11,1,16.3,7.9,18.5,11.9
		c3.6,6.7,3.7,14.7,0.4,20.9l-3.4,6.3l5.4,4.8C325.3,256.4,327.2,264,325.4,271.6z"/>
</g>
</svg>
