<?xml version="1.0" encoding="utf-8"?>
<!-- Generator: Adobe Illustrator 17.1.0, SVG Export Plug-In . SVG Version: 6.00 Build 0)  -->
<!DOCTYPE svg PUBLIC "-//W3C//DTD SVG 1.1//EN" "http://www.w3.org/Graphics/SVG/1.1/DTD/svg11.dtd">
<svg version="1.1" id="Capa_1" xmlns="http://www.w3.org/2000/svg" xmlns:xlink="http://www.w3.org/1999/xlink" x="0px" y="0px"
	 viewBox="0 0 609 609" enable-background="new 0 0 609 609" xml:space="preserve">
<g>
	<g id="iconos_51_">
		<rect x="149.9" y="561.2" fill="#FFFFFF" width="133.9" height="47.8"/>
		<rect x="302.9" y="561.2" fill="#FFFFFF" width="133.9" height="47.8"/>
		<rect x="455.9" y="561.2" fill="#FFFFFF" width="133.9" height="47.8"/>
		<rect x="73.4" y="494.2" fill="#FFFFFF" width="133.9" height="47.8"/>
		<rect x="226.4" y="494.2" fill="#FFFFFF" width="133.9" height="47.8"/>
		<rect x="379.4" y="494.2" fill="#FFFFFF" width="133.9" height="47.8"/>
		<rect x="532.4" y="494.2" fill="#FFFFFF" width="57.4" height="47.8"/>
		<path fill="#FFFFFF" d="M73.4,434.8v40.3h57.4v-13.9C109.6,456.7,90.1,447.5,73.4,434.8z"/>
		<rect x="73.4" y="561.2" fill="#FFFFFF" width="57.4" height="47.8"/>
		<path fill="#FFFFFF" d="M160.7,464.3c-3.6,0-7.2-0.3-10.8-0.5v11.3h133.9v-47.8H257C231.4,450.2,197.7,464.3,160.7,464.3z"/>
		<rect x="302.9" y="427.3" fill="#FFFFFF" width="133.9" height="47.8"/>
		<rect x="455.9" y="427.3" fill="#FFFFFF" width="133.9" height="47.8"/>
		<path fill="#FFFFFF" d="M360.3,408.1v-47.8h-60.9c-5.2,17.6-13.6,33.7-24.5,47.8H360.3z"/>
		<rect x="379.4" y="360.3" fill="#FFFFFF" width="133.9" height="47.8"/>
		<rect x="532.4" y="360.3" fill="#FFFFFF" width="57.4" height="47.8"/>
		<path fill="#FFFFFF" d="M302.9,294.2c1.5,8.3,2.4,16.8,2.4,25.5c0,7.3-0.7,14.5-1.8,21.5h133.3v-47.8H302.9V294.2z"/>
		<rect x="455.9" y="293.4" fill="#FFFFFF" width="133.9" height="47.8"/>
		<path fill="#FFFFFF" d="M84.2,163.3c-7.7,9.7-9.4,26.1-9.2,40.2c0.1,4.1,0.3,8,0.6,11.5c0.4,4.3,0.8,7.9,1.2,10.5l1.5-0.2
			c-26.3,23-43.1,56.8-43.1,94.5c0,45.7,24.5,85.6,61.1,107.6c10.6,6.4,22.2,11.2,34.5,14.2c6.2,1.5,12.6,2.6,19.1,3.2
			c3.6,0.3,7.1,0.5,10.8,0.5c23.6,0,45.6-6.6,64.4-17.9c9-5.4,17.3-11.7,24.6-19.1c13.2-13.3,23.4-29.7,29.6-47.8
			c4.4-12.8,6.9-26.4,6.9-40.6c0-8.3-0.9-16.4-2.4-24.3c-0.1-0.7-0.3-1.4-0.4-2c-12.1-56.7-62.4-99.2-122.7-99.2
			c-2.4,0-4.8,0.2-7.2,0.4l0.3-0.3c-2.7-3.2-5.2-6-7.7-8.8c-2.8-3.1-5.4-5.9-8-8.4c-14.5-14.6-26.4-21.7-36.7-21.9L37.5,5.8
			c-2.1-4.9-7.7-7.1-12.6-5c-4.9,2.1-7.1,7.7-5,12.6L84.2,163.3z M115.8,182.3c2.4,2,5.1,4.4,8.2,7.5c2.3,2.3,4.8,4.9,7.5,7.9
			c-13.2,3.2-25.6,8.4-36.9,15.4c-0.3-3.7-0.4-7.4-0.4-10.9c0-3.9,0.1-7.7,0.4-11.1c0.1-1.1,0.3-2,0.4-3.1c0.5,0.8,1,1.5,1.7,2.1
			c1.8,1.6,4,2.5,6.3,2.5c1.3,0,2.5-0.2,3.8-0.8c3.5-1.5,5.6-4.9,5.7-8.5c0-1.4-0.1-2.8-0.7-4.1l-0.1-0.2
			C113,180,114.3,181.1,115.8,182.3z"/>
	</g>
</g>
</svg>
