<?xml version="1.0" encoding="utf-8"?>
<!-- Generator: Adobe Illustrator 19.0.0, SVG Export Plug-In . SVG Version: 6.00 Build 0)  -->
<svg version="1.1" id="Capa_1" xmlns="http://www.w3.org/2000/svg" xmlns:xlink="http://www.w3.org/1999/xlink" x="0px" y="0px"
	 viewBox="-43 -132 512 512" style="enable-background:new -43 -132 512 512;" xml:space="preserve">
<style type="text/css">
	.st0{fill:#FFFFFF;}
</style>
<path class="st0" d="M347.8,9l-6.9-131.8H85.1L78.2,9H55.8L-43,92.1v192H67.6l-2.9,47.4l-0.3,4.8H48.1v32.4h329.8v-32.4h-16.3
	l-0.3-4.8l-2.9-47.4H469v-192L370.2,9L347.8,9L347.8,9z M30.8,161.9h-26v-43.3h26L30.8,161.9L30.8,161.9z M335.5,333.1H90.6l3-49
	h238.9L335.5,333.1z M381.5,59.6c0,4.8-3.9,8.6-8.6,8.6h-21.9h-8.6H200.9H83.7h-8.6H53.2c-4.8,0-8.6-3.9-8.6-8.6
	c0-4.8,3.9-8.6,8.6-8.6H76h8.6h8.6L95.5,9l6-114.5h223l6,114.5l2.2,41.9h8.6h8.6h22.8C377.6,51,381.5,54.8,381.5,59.6z"/>
</svg>
