<?xml version="1.0" encoding="utf-8"?>
<!-- Generator: Adobe Illustrator 17.1.0, SVG Export Plug-In . SVG Version: 6.00 Build 0)  -->
<!DOCTYPE svg PUBLIC "-//W3C//DTD SVG 1.1//EN" "http://www.w3.org/Graphics/SVG/1.1/DTD/svg11.dtd">
<svg version="1.1" id="Capa_1" xmlns="http://www.w3.org/2000/svg" xmlns:xlink="http://www.w3.org/1999/xlink" x="0px" y="0px"
	 viewBox="0 0 512 512" enable-background="new 0 0 512 512" xml:space="preserve">
<g>
	<g>
		<g>
			<path fill="#FFFFFF" d="M45.4,165h67.4l20.2,59h27l-64-190.4H65.6L1.6,224h25.3L45.4,165z M69,90.9c3.4-11.8,6.7-23.6,10.1-33.7
				l0,0c3.4,11.8,5.1,21.9,10.1,35.4l18.5,53.9H50.4L69,90.9z"/>
			<path fill="#FFFFFF" d="M358.8,379c0-10.1-6.7-25.3-18.5-45.5c0-6.7,5.1-15.2,13.5-23.6c8.4-10.1,15.2-16.8,16.9-21.9
				c-3.4-5.1-10.1-8.4-18.5-11.8c-1.7,0-6.7,3.4-18.5,10.1c-8.4,3.4-13.5,6.7-18.6,6.7c-1.7,0-5.1,0-8.4-1.7
				c-3.4-1.7-6.7-1.7-8.4-1.7h-5c3.4,5.1,5.1,10.1,5.1,11.8v131.4c0,3.4,0,8.4-1.7,15.2s-1.7,11.8-1.7,15.2c0,8.4,3.4,13.5,8.4,16.9
				l6.7-1.7c1.7,0,1.7-6.7,3.4-20.2c0-13.5,0-35.4,0-64c0-10.1,0-25.3,0-47.2c0-21.9,0-37.1,0-47.2c16.8-5.1,28.7-8.4,37.1-11.8
				l1.7,1.7v1.7c-3.4,6.7-5.1,13.5-8.4,18.5c-5.1,10.1-6.7,15.2-6.7,18.5c0,1.7,1.7,6.7,5.1,15.2c3.4,10.1,5.1,15.2,6.7,16.9
				l-1.7,3.4c-10.1-1.7-20.2-3.4-30.3-5.1c5.1,1.7,11.8,6.7,20.2,13.5c8.4,6.7,15.2,11.8,18.5,13.5
				C357.1,387.4,358.8,384.1,358.8,379z"/>
			<path fill="#FFFFFF" d="M483.5,347c11.8,0,20.2-1.7,23.6-3.4c0-3.4-3.4-6.7-8.4-10.1c-5.1-3.4-8.4-3.4-13.5-3.4
				c-8.4,0-20.2,1.7-33.7,5.1c-16.9,3.4-28.7,5.1-32,6.7c-27,3.4-47.2,5.1-60.7,6.7c5.1,8.4,10.1,13.5,16.9,13.5
				c5.1,0,11.8,0,21.9-1.7c6.7-1.7,13.5-1.7,21.9-3.4c3.4,3.4,5.1,6.7,5.1,13.5v87.6l-1.7,1.7l-3.4-1.7c-13.5-3.4-23.6-5.1-30.3-6.7
				c5.1,3.4,10.1,10.1,16.9,18.5c6.7,8.4,11.8,15.2,15.2,18.5c11.8-6.7,18.5-20.2,18.5-42.1c0-33.7,0-48.9,0-47.2
				c0-18.5-1.7-33.7-5.1-47.2C456.5,348.7,471.7,347,483.5,347z"/>
			<path fill="#FFFFFF" d="M488.5,402.6c-11.8-5.1-23.6-8.4-35.4-8.4c5.1,5.1,15.2,11.8,25.3,23.6c10.1,10.1,20.2,18.5,25.3,23.6
				c5.1,0,6.7-5.1,6.7-13.5C510.4,417.8,503.7,409.3,488.5,402.6z"/>
			<path fill="#FFFFFF" d="M456.5,283c-3.4,0-8.4,1.7-16.8,3.4c-11.8,3.4-16.9,5.1-16.9,5.1c-8.4,1.7-20.2,3.4-35.4,5.1
				c0,6.7,6.7,10.1,18.5,10.1c6.7,0,18.5-1.7,35.4-3.4c18.5-3.4,28.6-5.1,30.3-8.4c0-3.4-1.7-5.1-6.7-8.4
				C463.3,283,459.9,283,456.5,283z"/>
			<path fill="#FFFFFF" d="M380.7,389.1c0,0-1.7,3.4-5.1,10.1c-1.7,6.7-3.4,10.1-5.1,11.8c-3.4,3.4-6.7,8.4-11.8,13.5
				c-5.1,6.7-6.7,10.1-6.7,13.5c0,1.7,0,3.4,1.7,5.1c1.7,1.7,3.4,1.7,5.1,1.7c5.1,0,11.8-3.4,16.9-11.8c5.1-6.7,6.7-15.2,6.7-23.6
				C385.7,395.9,384.1,389.1,380.7,389.1z"/>
			<path fill="#FFFFFF" d="M368.9,122.9c0,0,148.3-16.9,106.1,128C599.7,57.2,368.9,43.7,368.9,43.7V8.3l-118,75.8l118,75.8V122.9z"
				/>
			<path fill="#FFFFFF" d="M143.1,389.1c0,0-148.3,16.9-106.2-128.1C-87.7,454.8,143.1,468.3,143.1,468.3v35.4l118-75.8l-118-75.8
				L143.1,389.1L143.1,389.1z"/>
		</g>
	</g>
</g>
</svg>
