<?xml version="1.0" encoding="utf-8"?>
<!-- Generator: Adobe Illustrator 17.1.0, SVG Export Plug-In . SVG Version: 6.00 Build 0)  -->
<!DOCTYPE svg PUBLIC "-//W3C//DTD SVG 1.1//EN" "http://www.w3.org/Graphics/SVG/1.1/DTD/svg11.dtd">
<svg version="1.1" id="Capa_1" xmlns="http://www.w3.org/2000/svg" xmlns:xlink="http://www.w3.org/1999/xlink" x="0px" y="0px"
	 viewBox="0 0 512 512" enable-background="new 0 0 512 512" xml:space="preserve">
<path fill="#FFFFFF" d="M415.2,430.2c-22.8,0-41.7-17-44.7-39H156.3c-3,22-21.9,39-44.7,39s-41.7-17-44.7-39H6.5
	c-3.6,0-6.5-2.9-6.5-6.5V88.4c0-3.6,2.9-6.5,6.5-6.5h314.8c3.6,0,6.5,2.9,6.5,6.5v123.4h64c2.5,0,4.7,1.4,5.8,3.6l28.8,57.8
	l80.9,25.4c2.7,0.9,4.6,3.4,4.6,6.2v79.8c0,3.6-2.9,6.5-6.5,6.5h-45.6C456.9,413.1,438,430.2,415.2,430.2z M415.2,353.1
	c-17.7,0-32,14.4-32,32c0,17.7,14.4,32,32,32c17.5,0,31.7-14.1,32-31.5c-0.1-0.3-0.1-0.6-0.1-1c-0.1-11.9-6.8-22.7-17.4-28.1
	C425.3,354.2,420.4,353.1,415.2,353.1z M80,380.1c-0.3,1.6-0.4,3.3-0.4,5c0,17.7,14.4,32,32,32c17.6,0,31.9-14.2,32-31.7
	c0-0.2,0-0.5,0-0.7c-0.2-17.4-14.6-31.6-32-31.6C95.7,353,82.4,364.8,80,380.1z M459.8,378.1h39.2v-68.5l-79-24.8
	c-1.7-0.5-3.1-1.7-3.9-3.3l-28.2-56.6h-60v153.3h42.8c3.4-21.5,22.1-38.1,44.5-38.1c7.2,0,14.3,1.7,20.6,5
	C448.7,351.6,457.5,363.9,459.8,378.1z M156.1,378.1h158.6V94.9H13.1v283.2h54c3.2-20.2,19.8-36,40.4-37.9c1.4-0.1,2.8-0.2,4.1-0.2
	c0,0,0,0,0,0c0,0,0,0,0,0c0,0,0,0,0,0C134,340,152.7,356.6,156.1,378.1z M223.1,308H104.7c-3.6,0-6.5-2.9-6.5-6.5v-77.1H86.7
	c-2.7,0-5.1-1.6-6.1-4.1c-1-2.5-0.4-5.3,1.6-7.2l77.2-73.2c2.5-2.4,6.5-2.4,9,0l77.2,73.2c1.9,1.8,2.6,4.7,1.6,7.2
	c-1,2.5-3.4,4.1-6.1,4.1h-11.5v77.1C229.7,305,226.7,308,223.1,308z M111.2,294.9h105.4v-70.5H111.2V294.9z M223.1,211.3h1.6
	l-60.8-57.7l-60.8,57.7H223.1z"/>
</svg>
