<?xml version="1.0" encoding="utf-8"?>
<!-- Generator: Adobe Illustrator 17.1.0, SVG Export Plug-In . SVG Version: 6.00 Build 0)  -->
<!DOCTYPE svg PUBLIC "-//W3C//DTD SVG 1.1//EN" "http://www.w3.org/Graphics/SVG/1.1/DTD/svg11.dtd">
<svg version="1.1" id="Capa_1" xmlns="http://www.w3.org/2000/svg" xmlns:xlink="http://www.w3.org/1999/xlink" x="0px" y="0px"
	 viewBox="0 0 512 512" enable-background="new 0 0 512 512" xml:space="preserve">
<g>
	<g>
		<path fill="#FFFFFF" d="M189.7,314c-23.6,0-42.7,19.2-42.7,42.8c0,23.6,19.1,42.7,42.7,42.7s42.7-19.2,42.7-42.7
			C232.4,333.2,213.3,314,189.7,314z M189.7,378.2c-11.8,0-21.4-9.6-21.4-21.4c0-11.8,9.5-21.4,21.4-21.4c11.8,0,21.4,9.6,21.4,21.4
			C211.1,368.6,201.5,378.2,189.7,378.2z M512,282.4V328c0,11.4-9.2,20.6-20.6,20.6h-22.1c-4-27.3-27.5-48.4-56-48.4
			c-28.4,0-51.9,21-55.9,48.4H245.6c-4-27.3-27.5-48.4-55.9-48.4s-51.9,21-55.9,48.4h-27.6c-11.4,0-20.6-9.2-20.6-20.6v-45.6
			L512,282.4L512,282.4z M413.4,314c-23.6,0-42.8,19.2-42.8,42.8c0,23.6,19.2,42.7,42.8,42.7c23.6,0,42.7-19.2,42.7-42.7
			C456.1,333.2,437,314,413.4,314z M413.4,378.2c-11.8,0-21.4-9.6-21.4-21.4c0-11.8,9.5-21.4,21.4-21.4c11.7,0,21.4,9.6,21.4,21.4
			C434.8,368.6,425.1,378.2,413.4,378.2z M503.9,236.5l-81-80.1c-5.2-5.1-12.1-8-19.3-8h-40.9v-15.3c0-11.4-9.2-20.6-20.6-20.6
			H106.2c-11.3,0-20.6,9.2-20.6,20.6v3.2l-83.6,9.6l148.2,19.3L0,180.1l149.6,21.3L0,214.4l85.6,16.1l0,40.5H512v-15
			C512,248.6,509,241.6,503.9,236.5z M468.6,239.1h-78.4c-1.8,0-3.2-1.4-3.2-3.2v-60.5c0-1.8,1.4-3.2,3.2-3.2h14.9
			c0.8,0,1.6,0.3,2.3,0.9l63.4,60.5C472.9,235.6,471.5,239.1,468.6,239.1z"/>
	</g>
</g>
</svg>
