<?xml version="1.0" encoding="utf-8"?>
<!-- Generator: Adobe Illustrator 17.1.0, SVG Export Plug-In . SVG Version: 6.00 Build 0)  -->
<!DOCTYPE svg PUBLIC "-//W3C//DTD SVG 1.1//EN" "http://www.w3.org/Graphics/SVG/1.1/DTD/svg11.dtd">
<svg version="1.1" id="Capa_1" xmlns="http://www.w3.org/2000/svg" xmlns:xlink="http://www.w3.org/1999/xlink" x="0px" y="0px"
	 viewBox="0 0 512 512" enable-background="new 0 0 512 512" xml:space="preserve">
<g>
	<g>
		<path fill="#FFFFFF" d="M346.3,169.1h-38.9v-47.9h-38.7V91.9c19-0.4,38.1-1.6,57.2-3.6c21.1-12,21.1-20.4,0-32.3
			c-19.1-2-38.1-3.2-57.2-3.6v-9h-25.4v9c-19,0.4-38.1,1.6-57.2,3.6c-21.1,12-21.1,20.4,0,32.3c19.1,2,38.1,3.2,57.2,3.6v29.3h-38.7
			v47.9h-38.9v27.8h180.6V169.1L346.3,169.1z M228.9,145.4h54.3v23.7h-54.3V145.4L228.9,145.4z"/>
		<path fill="#FFFFFF" d="M426.2,329.1h-80.4c-11.9-0.2-21.5-10-21.5-22v-31.3c0-12.1,9.9-22,22-22v-3.5v-10.7v-17.1H165.7v17.1
			v10.7v3.5c12.1,0,22,9.9,22,22v31.3c0,12-9.6,21.7-21.5,22H85.8v-18.9H55.6v158.5h30.1v-19.3h340.5v19.3h30.1V310.2h-30.1
			L426.2,329.1L426.2,329.1z"/>
		<rect x="481.9" y="310.2" fill="#FFFFFF" width="30.1" height="158.5"/>
		<rect x="0" y="310.2" fill="#FFFFFF" width="30.1" height="158.5"/>
	</g>
</g>
</svg>
