<?xml version="1.0" encoding="utf-8"?>
<!-- Generator: Adobe Illustrator 17.1.0, SVG Export Plug-In . SVG Version: 6.00 Build 0)  -->
<!DOCTYPE svg PUBLIC "-//W3C//DTD SVG 1.1//EN" "http://www.w3.org/Graphics/SVG/1.1/DTD/svg11.dtd">
<svg version="1.1" id="Capa_1" xmlns="http://www.w3.org/2000/svg" xmlns:xlink="http://www.w3.org/1999/xlink" x="0px" y="0px"
	 viewBox="0 0 512 512" enable-background="new 0 0 512 512" xml:space="preserve">
<g>
	<g>
		<path fill="#FFFFFF" d="M8,310.5c-10.7,10.7-10.7,28,0,38.7l14,14l33.4-13.1L42.8,384l70.2,70.2l53.9-31.3l-27.4,57.8l23.3,23.3
			c10.7,10.7,28,10.7,38.7,0l126.8-126.8L134.9,183.7L8,310.5z"/>
		<path fill="#FFFFFF" d="M495.8,16.4l-0.1-0.1C482.3,2.9,465.3-2.4,446.4,1c-38.1,6.8-78.1,48.2-106.9,110.6
			c-8,17.3-19.3,27.1-34.7,29.8c-29.4,5.3-66.7-16.2-88.9-38.4c-4.6-4.6-12.2-4.6-16.8,0l-23.1,23.1l34.1,34.1
			c4.4,4.4,4.4,11.6,0,16c-4.4,4.4-11.6,4.4-16,0L160,142.1l-8.5,8.5c-4.6,4.6-4.6,12.2,0,16.8l193,193c4.6,4.6,12.2,4.6,16.8,0
			l47.6-47.6c4.6-4.6,4.6-12.2,0-16.8c-22.2-22.2-43.7-59.5-38.4-88.9c2.7-15.3,12.5-26.7,29.8-34.7
			c62.5-28.8,103.8-68.8,110.6-106.9C514.4,46.7,509.1,29.7,495.8,16.4z M474,67.3c-8.1,8.1-21.2,8.1-29.3,0
			c-8.1-8.1-8.1-21.2,0-29.3c8.1-8.1,21.2-8.1,29.3,0C482.1,46.1,482.1,59.3,474,67.3z"/>
	</g>
</g>
</svg>
