<?xml version="1.0" encoding="utf-8"?>
<!-- Generator: Adobe Illustrator 17.1.0, SVG Export Plug-In . SVG Version: 6.00 Build 0)  -->
<!DOCTYPE svg PUBLIC "-//W3C//DTD SVG 1.1//EN" "http://www.w3.org/Graphics/SVG/1.1/DTD/svg11.dtd">
<svg version="1.1" id="Capa_1" xmlns="http://www.w3.org/2000/svg" xmlns:xlink="http://www.w3.org/1999/xlink" x="0px" y="0px"
	 viewBox="0 0 512 512" enable-background="new 0 0 512 512" xml:space="preserve">
<g>
	<g id="_x37__1_">
		<g>
			<path fill="#FFFFFF" d="M503.2,246.6h-21.6V212c0-20.6-9.5-39.5-25.9-51.7c-0.9-0.7-1.3-1.8-0.9-2.9c1.4-4.1,2.1-8.4,2.1-12.7
				c0-11.7-5-22.6-13.7-30.1V75.1c0-0.9-0.2-1.8-0.5-2.7h4v-8.9c0-5.6-5.5-10.1-12.3-10.1h-34.7c-6.8,0-12.2,4.5-12.2,10.1v8.9h4.4
				c-0.3,0.9-0.5,1.7-0.5,2.7v39c-8.9,7.5-14.1,18.6-14.1,30.5c0,4.4,0.7,8.6,1.9,12.6c0.3,1.1,0,2.2-1,2.8
				c-16.5,12.1-26.4,31.5-26.4,51.8v34.7h-32.3V212c0-20.6-9.5-39.5-25.9-51.7c-0.9-0.7-1.3-1.8-0.9-2.9c1.4-4.1,2.1-8.4,2.1-12.7
				c0-11.7-5-22.6-13.7-30.1V75.1c0-0.9-0.2-1.8-0.5-2.7h4v-8.9c0-5.6-5.5-10.1-12.2-10.1h-34.7c-6.8,0-12.3,4.5-12.3,10.1v8.9h4.4
				c-0.3,0.9-0.5,1.7-0.5,2.7v39c-8.9,7.5-14.1,18.6-14.1,30.5c0,4.4,0.7,8.6,1.9,12.6c0.4,1.1,0,2.2-0.9,2.8
				c-16.5,12.1-26.4,31.5-26.4,51.8v34.7h-32.3v-34.1c0-20.3-9.7-39.7-25.9-51.7c-0.9-0.7-1.3-1.9-0.9-2.9c1.4-4.1,2.1-8.4,2.1-12.7
				c0-11.7-5-22.7-13.7-30.2V75.7c0-0.9-0.2-1.8-0.5-2.7h4v-8.9c0-5.6-5.5-10.1-12.3-10.1H75.6c-6.8,0-12.3,4.5-12.3,10.1V73h4.4
				c-0.3,0.9-0.5,1.7-0.5,2.7v39c-8.9,7.5-14.1,18.6-14.1,30.5c0,4.4,0.7,8.6,2,12.6c0.3,1.1,0,2.2-0.9,2.9
				c-16.5,12.1-26.4,31.5-26.4,51.8v34.1h-19c-4.9,0-8.8,3.9-8.8,8.8v194.3c0,4.9,4,8.8,8.8,8.8h494.3c4.9,0,8.8-4,8.8-8.8V255.4
				C512,250.5,508.1,246.6,503.2,246.6z M369.5,211.9c0-14.7,7.2-28.8,19.2-37.6c7.1-5.2,10-14.2,7.3-22.5c-0.7-2.3-1.1-4.7-1.1-7.2
				c0-7.6,3.8-14.5,10.1-18.6c2.5-1.6,4-4.4,4-7.4V84h16.4v34.9c0,2.9,1.5,5.7,3.9,7.3c6.1,4.1,9.8,11,9.8,18.5c0,2.4-0.4,4.7-1.2,7
				c-2.8,8.3,0,17.5,7.1,22.8c12,8.9,18.8,22.5,18.8,37.5v34.7h-94.4V211.9z M207.5,211.9c0-14.7,7.2-28.8,19.2-37.6
				c7-5.2,9.9-14.2,7.3-22.5c-0.7-2.3-1.1-4.7-1.1-7.2c0-7.5,3.8-14.5,10.1-18.6c2.5-1.6,4-4.4,4-7.4V84h16.4v34.9
				c0,2.9,1.5,5.7,3.9,7.3c6.1,4.1,9.8,11,9.8,18.5c0,2.4-0.4,4.7-1.2,7c-2.8,8.3,0,17.5,7.1,22.8c11.9,8.9,18.8,22.5,18.8,37.5
				v34.7h-94.4V211.9z M45.5,212.5c0-14.7,7.2-28.8,19.2-37.6c7-5.2,10-14.2,7.3-22.6c-0.7-2.2-1.1-4.6-1.1-7.1
				c0-7.5,3.8-14.5,10.1-18.7c2.5-1.6,4-4.4,4-7.4V84.5h16.4v34.9c0,2.9,1.5,5.7,3.9,7.3c6.1,4.1,9.8,11,9.8,18.5
				c0,2.4-0.4,4.7-1.2,7c-2.8,8.4,0.1,17.5,7.2,22.8c11.9,8.9,18.8,22.5,18.8,37.5v34.1H45.5V212.5z M494.3,440.9H17.7V264.3h301.8
				c0,0,0.1,0,0.1,0.1v-0.1h174.8V440.9z M296.1,296.5h-66.9c-12.9,0-23.3,10.5-23.3,23.3v16.7c0,12.9,10.5,23.3,23.3,23.3h66.9
				c12.9,0,23.3-10.5,23.3-23.3v-16.7C319.4,306.9,308.9,296.5,296.1,296.5z M301.8,336.5c0,3.1-2.5,5.7-5.7,5.7h-66.9
				c-3.1,0-5.7-2.5-5.7-5.7v-16.7c0-3.1,2.6-5.7,5.7-5.7h66.9c3.1,0,5.7,2.6,5.7,5.7V336.5z"/>
		</g>
	</g>
</g>
</svg>
