<?xml version="1.0" encoding="utf-8"?>
<!-- Generator: Adobe Illustrator 17.1.0, SVG Export Plug-In . SVG Version: 6.00 Build 0)  -->
<!DOCTYPE svg PUBLIC "-//W3C//DTD SVG 1.1//EN" "http://www.w3.org/Graphics/SVG/1.1/DTD/svg11.dtd">
<svg version="1.1" id="Capa_1" xmlns="http://www.w3.org/2000/svg" xmlns:xlink="http://www.w3.org/1999/xlink" x="0px" y="0px"
	 viewBox="0 0 512 512" enable-background="new 0 0 512 512" xml:space="preserve">
<path fill="#FFFFFF" d="M511.9,227c-0.4-2.5-2.2-4.5-4.5-5.4L141.5,92.1c-13.6-4.8-28.6,2.3-33.4,15.9l-31.5,89
	c-2.3,6.5-1.9,13.7,1.1,20c3,6.3,8.3,11.1,14.9,13.4l112.3,39.8v52.7c-0.6,0-1.1-0.2-1.7-0.2H35.9C16.1,322.8,0,338.8,0,358.7
	s16.1,35.9,35.9,35.9h167.2c0.6,0,1.1-0.1,1.7-0.2v9c0,9.9,8,18,18,18c9.9,0,18-8,18-18V282.9l130.9,46.3c8.6,3,18.1,1.4,25.2-4.3
	l5.1-4.2l43.9,15.5c6.5,2.3,13.7,1.9,20-1c6.3-3,11.1-8.3,13.4-14.9l9.3-26.2c4.5-12.9-1.6-26.8-13.8-32.4l34.7-28.1
	C511.4,232,512.3,229.5,511.9,227z M264.5,224.4c-4.1,11.6-12.9,20.6-23.7,25.5v-21.5c2.9-2.7,5.3-6.1,6.7-10c2.4-6.6,2-13.7-1-20
	c-3-6.3-8.3-11.1-14.9-13.4c-2.8-1-5.8-1.5-8.7-1.5c-11.1,0-21,7-24.7,17.5c-3.6,10.1-0.6,20.9,6.7,27.8v21.1
	c-20.8-9.3-31.4-33-23.7-54.8c7.9-22.3,33.9-34.9,56.4-26.9c11.1,3.9,20.1,12,25.1,22.6C267.8,201.3,268.4,213.3,264.5,224.4z"/>
</svg>
