<?xml version="1.0" encoding="utf-8"?>
<!-- Generator: Adobe Illustrator 17.1.0, SVG Export Plug-In . SVG Version: 6.00 Build 0)  -->
<!DOCTYPE svg PUBLIC "-//W3C//DTD SVG 1.1//EN" "http://www.w3.org/Graphics/SVG/1.1/DTD/svg11.dtd">
<svg version="1.1" id="Layer_1" xmlns="http://www.w3.org/2000/svg" xmlns:xlink="http://www.w3.org/1999/xlink" x="0px" y="0px"
	 viewBox="0 0 300 300" enable-background="new 0 0 300 300" xml:space="preserve">
<g>
	<path fill="#FFFFFF" d="M138,151.6c-3.5,0.6-8.6,3.7-16,8.5c-4,2.5-10,6.4-11.2,6.7c-3.7-0.9-33.1-8.6-33.1-8.6
		c-0.9-0.3-1.8-0.1-2.6,0.4c-0.8,0.5-1.3,1.3-1.4,2.2l-7.9,50.7c-0.2,1.6,0.8,3.2,2.4,3.6l25.9,7c-2,2.9-2.3,6.9-0.5,10.3
		c2.3,4.4,7.2,7.6,12.2,8c0.3,0.5,0.6,1.1,1,1.6c2.9,3.9,7.8,6.4,12.7,6.5c0.4,0.7,0.9,1.5,1.5,2.2c2.9,3.5,7.4,5.7,11.8,6
		c0.4,0.9,1,1.7,1.6,2.5c2.7,3.3,6.9,5.3,11.1,5.3c3.7,0,6.9-1.6,8.9-4.5c1.1-1.6,6.7-11.4,6.7-11.4c1.9,0.8,3,1.3,3.1,1.3
		c5.3,2.1,10.8-0.7,13-6.4c0.4-1,0.6-2,0.8-3c5.6,2.1,12.1-0.9,14.3-6.4c0.7-1.8,0.9-3.7,0.7-5.5c1-0.2,38.8-10.8,38.8-10.8
		c1.6-0.4,2.6-2,2.3-3.6l-9.2-57.5c-0.1-0.9-0.7-1.7-1.4-2.2c-0.7-0.5-1.7-0.7-2.6-0.4l-32.1,8.2c-1.5-0.4-5.8-2.5-17.3-9.4
		c-9.7-5.8-12.4-7.3-15.2-7.3c-3.4,0-10.5,3.7-15.4,6.6C140.1,151.8,139.1,151.6,138,151.6z M216.7,164.9l7.3,45.4l-13.9,3.9
		c1.4-1.5,2.5-3.2,3.3-5.2c1.9-5.4,0.3-10.9-4.1-14.4c-0.1-0.1-24.5-13.8-43.6-25.6c-0.5-0.3-1.1-0.5-1.7-0.5c0,0-5.9,0.2-5.9,0.2
		c-0.4,0-0.9,0.1-1.3,0.3c-6.8,3.2-7.5,5.8-7.7,6.7c-0.6,2.3-3.5,12.9-5,18.4c-3.4,0.6-10.1-2.5-11.2-4.8c0.4-1.8,0.9-4.3,1.4-7
		c1.1-5.8,2.6-13.1,3.2-15.5c1.4-2.7,15.9-11.3,18.5-11.7c1.3,0.3,6.5,3.4,10.7,5.9c10.9,6.5,18.4,10.8,23,10.8
		C191.6,171.7,209.7,166.6,216.7,164.9z M145.6,255.1c-1.3,0-2.9-0.8-3.8-1.9c-0.7-0.9-0.9-1.9-0.7-3c0.3-1.2-0.2-2.5-1.2-3.3
		c-0.6-0.4-1.3-0.6-1.9-0.6c-0.5,0-1.1,0.1-1.6,0.4c-2.4,1.3-6.2,0.1-8.2-2.2c-0.6-0.7-1.2-1.7-1-2.9c0.2-1.3-0.3-2.6-1.5-3.3
		c-1.1-0.7-2.6-0.6-3.6,0.2c-0.7,0.5-1.6,0.6-2.2,0.6c-2,0-4.4-1.1-5.5-2.7c-0.9-1.3-0.6-2.2-0.6-2.5c0.4-1.3-0.1-2.8-1.2-3.6
		c-1.2-0.8-2.7-0.8-3.8,0.1c-1.8,1.3-4.4,0.5-6.1-1.3c-0.8-0.8-0.9-1.4-0.9-1.5l5.4-8c0.8-1.3,3-0.1,4.3,1.5
		c0.7,0.8,0.9,1.4,0.8,1.7c-0.2,1.5,0.7,3,2.2,3.5c1.4,0.5,3.1-0.1,3.8-1.4c2.1-3.5,3.9-5.4,5.1-5.7c2.1-0.3,3.9,0.4,5.3,1.9
		c1,1.1,1.4,2.2,1.4,2.8c-0.1,1.5,0.9,2.8,2.3,3.2c1.4,0.4,2.9-0.2,3.7-1.4c2.6-4.3,7.9-2.1,9.8,0.7c0.5,0.8,0.8,1.6,0.6,2.1
		c-0.6,1.4-0.1,3,1.1,3.9c1.3,0.9,2.9,0.8,4.1-0.3c1.3-1.1,4.4,0,5.5,1.9c0.6,1.1,0.5,2.2-0.2,3.5c-1.1,1.7-9,15.7-10.3,17.5
		C146.5,255.1,145.9,255.1,145.6,255.1z"/>
	<path fill="#FFFFFF" d="M154.2,65.4c-2.4-2.1-6-2.1-8.5,0l-97.6,84.2c-1.4,1.2-2.2,3-2.2,4.9v121.8c0,3.6,2.9,6.5,6.5,6.5h195.2
		c3.6,0,6.5-2.9,6.5-6.5V154.5c0-1.9-0.8-3.7-2.2-4.9L154.2,65.4z M241.1,269.8H58.9V157.5L150,78.9l91.1,78.6V269.8z"/>
	<path fill="#FFFFFF" d="M288,131.7L158.4,20.3c-4.9-4.2-12-4.2-16.9,0L12,131.7c-5.4,4.7-6,12.9-1.4,18.3c4.7,5.4,12.9,6,18.3,1.4
		L150,47.3l121.1,104.1c2.4,2.1,5.4,3.1,8.4,3.1c3.6,0,7.3-1.5,9.8-4.5C294,144.6,293.4,136.4,288,131.7z"/>
</g>
</svg>
