<?xml version="1.0" encoding="utf-8"?>
<!-- Generator: Adobe Illustrator 17.1.0, SVG Export Plug-In . SVG Version: 6.00 Build 0)  -->
<!DOCTYPE svg PUBLIC "-//W3C//DTD SVG 1.1//EN" "http://www.w3.org/Graphics/SVG/1.1/DTD/svg11.dtd">
<svg version="1.1" id="Capa_1" xmlns="http://www.w3.org/2000/svg" xmlns:xlink="http://www.w3.org/1999/xlink" x="0px" y="0px"
	 viewBox="0 0 283.5 340.2" enable-background="new 0 0 283.5 340.2" xml:space="preserve">
<g>
	<g>
		<path fill="#FFFFFF" d="M154.3,311.8c-2.5-0.6-9.4-1.9-7.6-13.2c1.9-11.3,1.9-16.4,1.3-23.9c-0.6-7.6-1.9-130.4-1.3-136.1
			c0-5.7-1.9-13.2,14.5-35.9c6.9-9.4,5-13.2,5.7-23.9c0.6-6.3,0.6-26.5,0.6-32.1l0,0c-1.3-1.3-1.3-6.9,0-8.8l0,0c0-2.5,0-5,0-5.7
			c0-1.3,1.3-3.8,3.1-3.8h20.8c2.5,0,3.8,2.5,3.8,3.8c0,1.3,0,3.1,0,5.7l0,0c1.3,1.9,1.3,6.9,0,8.8l0,0c0,5.7,0,25.8,0.6,32.1
			c1.3,10.1-0.6,14.5,5.7,23.9c16.4,22.7,14.5,30.2,14.5,35.9c0,5.7-0.6,128.5-1.3,136.1c-0.6,7.6-0.6,12.6,1.3,23.9
			c1.9,11.3-4.4,13.2-7.6,13.2C209.1,311.8,154.3,311.8,154.3,311.8z"/>
		<path fill="#FFFFFF" d="M103.3,263.3c16.4-2.5,28.3-18.9,28.3-58H66.8c0,39.1,12.6,55.4,28.3,58v43.5H78.7v5h40.9v-5h-16.4V263.3
			L103.3,263.3z"/>
	</g>
</g>
</svg>
