<?xml version="1.0" encoding="utf-8"?>
<!-- Generator: Adobe Illustrator 17.1.0, SVG Export Plug-In . SVG Version: 6.00 Build 0)  -->
<!DOCTYPE svg PUBLIC "-//W3C//DTD SVG 1.1//EN" "http://www.w3.org/Graphics/SVG/1.1/DTD/svg11.dtd">
<svg version="1.1" id="Capa_1" xmlns="http://www.w3.org/2000/svg" xmlns:xlink="http://www.w3.org/1999/xlink" x="0px" y="0px"
	 viewBox="0 0 512 512" enable-background="new 0 0 512 512" xml:space="preserve">
<g>
	<path fill="#FFFFFF" d="M507.6,387.9L469,321c-5.8-10.1-16.6-16.4-28.3-16.4h-77.2c-11.7,0-22.5,6.2-28.3,16.4l-38.6,66.9
		c-5.8,10.1-5.8,22.6,0,32.7l38.6,66.9c5.8,10.1,16.6,16.4,28.3,16.4h77.2c11.7,0,22.5-6.2,28.3-16.4l38.6-66.9
		C513.5,410.5,513.5,398,507.6,387.9z M402,451.7c-26.2,0-47.4-21.2-47.4-47.4c0-26.2,21.2-47.4,47.4-47.4s47.4,21.2,47.4,47.4
		C449.4,430.4,428.2,451.7,402,451.7z"/>
	<path fill="#FFFFFF" d="M282.6,293.1L218,255.9c-11.4-6.5-15.3-21-8.7-32.4l27.2-47.3c3.1-5.5,8.3-9.4,14.4-11.1
		c6.1-1.6,12.5-0.8,18,2.3l64.6,37.2c6.3,3.7,14.5,1.5,18.1-4.9c15.1-26.2,9.1-59.5-14.2-78.8l-27-22.4
		c-25.6-21.3-59.6-29.7-92.2-22.7l-62.1,13.2L18.1,9.7C14.4,7.6,9.8,7.6,6,9.7c-3.7,2.2-6,6.2-6,10.5V137c0,4.3,2.3,8.3,6.1,10.5
		l87.5,50.3l19.7,60.3c10.4,31.7,34.7,56.9,66,68.3l33,12.1c28.4,10.4,60.2-1.1,75.2-27.3C291.1,304.9,288.9,296.8,282.6,293.1z"/>
</g>
</svg>
