<?xml version="1.0" encoding="utf-8"?>
<!-- Generator: Adobe Illustrator 17.1.0, SVG Export Plug-In . SVG Version: 6.00 Build 0)  -->
<!DOCTYPE svg PUBLIC "-//W3C//DTD SVG 1.1//EN" "http://www.w3.org/Graphics/SVG/1.1/DTD/svg11.dtd">
<svg version="1.1" id="Capa_1" xmlns="http://www.w3.org/2000/svg" xmlns:xlink="http://www.w3.org/1999/xlink" x="0px" y="0px"
	 viewBox="0 0 512 512" enable-background="new 0 0 512 512" xml:space="preserve">
<g>
	<path fill="#FFFFFF" d="M239.4,84.9c-0.4,3.2-1.8,6-3.8,8.4C303.1,150.6,326.5,97.2,239.4,84.9z"/>
	<path fill="#FFFFFF" d="M235.1,95.4c-0.3-0.3-0.5-0.5-0.7-0.8c0,0,0,0,0,0C234.6,94.9,234.9,95.1,235.1,95.4z"/>
	<path fill="#FFFFFF" d="M223.4,66.4c0-0.4,0-0.8,0-1.2C223.4,65.6,223.4,65.9,223.4,66.4C223.4,66.4,223.4,66.4,223.4,66.4z"/>
	<path fill="#FFFFFF" d="M239.6,82.5C239.6,82.5,239.6,82.6,239.6,82.5c0.4,0,0.8,0,1.2,0C240.3,82.5,240,82.5,239.6,82.5z"/>
	<path fill="#FFFFFF" d="M221.3,66.5c-11-88-59.8-68-7.7,3C215.8,68,218.4,66.9,221.3,66.5z"/>
	<path fill="#FFFFFF" d="M236.4,73.1c1.7,2.3,2.7,5,3,7.9C327.4,71.3,307.6,21.2,236.4,73.1z"/>
	<path fill="#FFFFFF" d="M236.3,70.8c-0.3,0.3-0.7,0.6-1,0.9c0,0,0,0,0,0C235.6,71.4,235.9,71.1,236.3,70.8z"/>
	<path fill="#FFFFFF" d="M211.3,93.8c-0.3,0.3-0.5,0.5-0.8,0.8C210.8,94.3,211.1,94.1,211.3,93.8C211.3,93.8,211.3,93.8,211.3,93.8z
		"/>
	<path fill="#FFFFFF" d="M205.7,82.5c0.4,0,0.8,0,1.2,0c0,0,0,0,0,0C206.5,82.5,206.1,82.5,205.7,82.5z"/>
	<path fill="#FFFFFF" d="M207.1,80.8c0.4-3.2,1.7-6.1,3.6-8.5C143.3,17.1,120,70.3,207.1,80.8z"/>
	<path fill="#FFFFFF" d="M225.2,66.5c3.2,0.4,6.1,1.7,8.5,3.6C289.1,2.8,235.8-20.5,225.2,66.5z"/>
	<path fill="#FFFFFF" d="M210,92.3c-1.6-2.2-2.6-4.8-3-7.6C118.7,95.9,137.5,144.6,210,92.3z"/>
	<path fill="#FFFFFF" d="M212.3,70.6c-0.3-0.4-0.6-0.7-1-1C211.7,70,211.9,70.3,212.3,70.6C212.3,70.7,212.3,70.7,212.3,70.6z"/>
	<path fill="#FFFFFF" d="M215.7,83.8c0.2,1.2,0.6,2.3,1.3,3.3c0.2,0.2,0.3,0.5,0.5,0.7c0.1,0.1,0.1,0.2,0.2,0.3
		c0.2,0.2,0.5,0.3,0.7,0.5c1,0.9,2.3,1.4,3.7,1.6c0.4,0.1,0.7,0.2,1,0.2c0,0,0.1,0,0.1,0c0.1,0,0.2-0.1,0.3-0.1
		c0.2,0,0.5-0.1,0.7-0.1c1.3-0.2,2.4-0.6,3.4-1.3c0.2-0.2,0.5-0.3,0.8-0.5c0.1-0.1,0.2-0.1,0.3-0.2c0.2-0.2,0.3-0.5,0.5-0.7
		c0.9-1,1.4-2.3,1.6-3.7c0.1-0.4,0.2-0.7,0.2-1.1c0,0,0-0.1,0-0.1c0-0.1-0.1-0.2-0.1-0.3c0-0.2-0.1-0.4-0.1-0.7
		c-0.2-1.3-0.6-2.4-1.3-3.4c-0.1-0.2-0.3-0.4-0.4-0.6c-0.1-0.1-0.1-0.2-0.2-0.3c-0.2-0.2-0.5-0.4-0.8-0.6c-1.1-0.8-2.3-1.4-3.7-1.6
		c-0.3,0-0.5-0.2-0.8-0.2c-0.1,0-0.2-0.1-0.2-0.1c0,0-0.1,0-0.1,0c-0.3,0-0.6,0.1-0.9,0.2c-1.3,0.2-2.4,0.6-3.4,1.3
		c-0.2,0.1-0.4,0.2-0.6,0.4c-0.1,0.1-0.2,0.1-0.3,0.2c-0.3,0.2-0.4,0.5-0.6,0.8c-0.8,1.1-1.4,2.3-1.6,3.7c0,0.3-0.1,0.5-0.2,0.8
		c0,0.1-0.1,0.2-0.1,0.3c0,0,0,0.1,0,0.1C215.5,83.1,215.6,83.4,215.7,83.8z"/>
	<path fill="#FFFFFF" d="M445,175.6c89.3-38.5,24.2-103-13.8-13.7c38-89.3-61.2-89.3-21,0c-40.1-89.3-102.6-24.8-13.2,13.7
		c-89.3-38.5-89.3,60.7,0,21c-89.3,39.6-26.9,102.7,13.2,13.4c-16.6,37-9.3,58.7,2.2,65v35.5c-4.6-6.3-10.2-8.8-15.8-9.6
		c-9.9-1.3-24.4,6.3-41.2-4.9c1.6,43,39,55.4,50.4,48.1c2.6-1.7,4.9-3.3,6.7-4.8v27H292.1v-7.6c1.5,0.4,3.1,0.8,5,1.2
		c10.4,1.9,34.1-18.2,22.5-50.1c-8.5,12.5-20.5,12.1-27.5,15.3v-12.9c5-6.3,6.9-18.7,0-37.1v-0.6c26.3,56.3,68.2,14.1,7.9-12.6
		c61.4,27.3,61.4-40.9,0-14.5c61.4-26.5,16.6-70.8-9.5-9.4c26.1-61.4-42.1-61.4-14.5,0c-27.6-61.4-70.5-17-9.1,9.4
		c-15.7-6.8-27.3-7.3-35-4.9V132.6c16,47.6,44.8,24.7,0.8-36.6c-0.3,0.2-0.5,0.4-0.8,0.5c-2.1,1.3-4.4,2.7-7,2.9
		c-0.5,0.1-1.1,0.7-1.6,0.7c0,0,0,0,0,0c0,0-0.1-0.5-0.1-0.5c-0.7,0-1.5-0.4-2.2-0.5c-2.3-0.3-4.4-1.2-6.3-2.3
		c-0.7-0.5-1.4-1-2.1-1.6c-49.9,59-15.5,84.1,2.1,31.6v239.7H111.7v-37.1c2.2,1.9,5,4.1,8.5,6.4c11.3,7.2,48.8-5.1,50.4-48.1
		c-16.8,11.2-31.3,3.6-41.2,4.9c-6.4,0.8-12.7,4.1-17.6,12.4v-31.2c10.4-7.7,16.4-28.9,1.6-63.6c38,89.3,103.2,26.3,13.8-13.4
		c89.3,39.7,89.3-59.5,0-21c89.3-38.5,24.2-103-13.8-13.7c38-89.3-61.2-89.3-21,0C52.1,72.6-10.3,137.2,79,175.6
		c-89.3-38.5-89.3,60.7,0,21c-89.3,39.6-26.9,102.7,13.2,13.4c-16.6,37-9.3,58.7,2.2,65v19.6c-2.4-1.2-4.8-1.9-7.3-2.2
		c-9.9-1.3-24.4,6.3-41.2-4.9c1.5,40.9,35.4,54.1,48.5,49v29.9H17.2c-9.5,0-17.2,7.7-17.2,17.2v103.1c0,9.5,7.7,17.2,17.2,17.2
		h446.7c9.5,0,17.2-7.7,17.2-17.2V383.6c0-9.5-7.7-17.2-17.2-17.2h-34.4v-92.7c10.4-7.7,16.4-28.9,1.6-63.6
		c38,89.3,103.2,26.3,13.8-13.4C534.3,236.3,534.3,137.2,445,175.6z M90.9,185.8c0-6.6,5.4-12,12-12s12,5.4,12,12
		c0,6.6-5.4,12-12,12S90.9,192.4,90.9,185.8z M290.6,254.5c0,4-3.2,7.2-7.2,7.2s-7.2-3.2-7.2-7.2s3.2-7.2,7.2-7.2
		C287.3,247.3,290.6,250.5,290.6,254.5z M231.9,267.4c7.7,2.3,19.3,1.6,35-5.4c-60.6,26.9-19.7,69.4,7.9,11.6v0.4
		c-8.6,20.8-5.9,34.1,0,39.9v52.5h-43L231.9,267.4L231.9,267.4z M438.1,383.6c9.5,0,17.2,7.7,17.2,17.2c0,9.5-7.7,17.2-17.2,17.2H43
		c-9.5,0-17.2-7.7-17.2-17.2c0-9.5,7.7-17.2,17.2-17.2h51.5v25.8h17.2v-25.8h103.1v25.8h17.2v-25.8h43v25.8h17.2v-25.8h120.3v25.8
		h17.2v-25.8H438.1z M420.8,197.8c-6.6,0-12-5.4-12-12c0-6.6,5.4-12,12-12c6.6,0,12,5.4,12,12C432.9,192.4,427.5,197.8,420.8,197.8z
		"/>
</g>
</svg>
