<?xml version="1.0" encoding="utf-8"?>
<!-- Generator: Adobe Illustrator 17.1.0, SVG Export Plug-In . SVG Version: 6.00 Build 0)  -->
<!DOCTYPE svg PUBLIC "-//W3C//DTD SVG 1.1//EN" "http://www.w3.org/Graphics/SVG/1.1/DTD/svg11.dtd">
<svg version="1.1" id="Layer_1" xmlns="http://www.w3.org/2000/svg" xmlns:xlink="http://www.w3.org/1999/xlink" x="0px" y="0px"
	 viewBox="0 0 800 800" enable-background="new 0 0 800 800" xml:space="preserve">
<g>
	<path fill="#FFFFFF" d="M136.9,530.5H336c11.4,0,20.8-9.4,20.8-20.8V398.5c0-11.4-9.4-20.8-20.8-20.8H136.9
		c-11.4,0-20.8,9.4-20.8,20.8v111.3C116.1,521.3,125.5,530.5,136.9,530.5z M157.7,419.3H315V489H157.7V419.3z"/>
	<path fill="#FFFFFF" d="M779.2,255.2H600.8v-34.7h56.7c11.4,0,20.8-9.4,20.8-20.8v-129c0-11.4-9.4-20.8-20.8-20.8H161.6
		c-11.4,0-20.8,9.4-20.8,20.8v129.2c0,11.4,9.4,20.8,20.8,20.8h56.7v34.7H20.8C9.4,255.2,0,264.6,0,276v455.3
		c0,11.4,9.4,20.8,20.8,20.8h758.4c11.4,0,20.8-9.4,20.8-20.8V276C800,264.6,790.6,255.2,779.2,255.2L779.2,255.2z M182.3,91.5
		h454.2v87.7H182.3V91.5z M260,220.5h299.2v34.7H260V220.5z M638,600.4h-73.1V419.3H638V600.4z M537.8,641.9h127v12.3h-127V641.9
		L537.8,641.9z M513,695.8h4.1h168.6h4.1v14.7H513V695.8z M758.4,710.5h-27.2V675c0-11.4-9.4-20.8-20.8-20.8h-4.1v-33.1
		c0-11.4-9.4-20.8-20.8-20.8h-6.3V398.5c0-11.4-9.4-20.8-20.8-20.8H543.9c-11.4,0-20.8,9.4-20.8,20.8v201.7h-6.3
		c-11.4,0-20.8,9.4-20.8,20.8v33.1h-3.9c-11.4,0-20.8,9.4-20.8,20.8v35.5H41.6V296.8h716.9L758.4,710.5L758.4,710.5z"/>
</g>
</svg>
