<?xml version="1.0" encoding="utf-8"?>
<!-- Generator: Adobe Illustrator 17.1.0, SVG Export Plug-In . SVG Version: 6.00 Build 0)  -->
<!DOCTYPE svg PUBLIC "-//W3C//DTD SVG 1.1//EN" "http://www.w3.org/Graphics/SVG/1.1/DTD/svg11.dtd">
<svg version="1.1" id="Layer_1" xmlns="http://www.w3.org/2000/svg" xmlns:xlink="http://www.w3.org/1999/xlink" x="0px" y="0px"
	 viewBox="0 0 512 512" enable-background="new 0 0 512 512" xml:space="preserve">
<g>
	<path fill="#FFFFFF" d="M506.7,150.3c-3.6-3.9-8.8-6.4-14.6-6.4h-48.8V8.2c0-4.5-3.7-8.2-8.2-8.2H76.9c-4.5,0-8.2,3.7-8.2,8.2
		v135.7H19.9c-5.8,0-11,2.5-14.6,6.4C2,153.8,0,158.6,0,163.8v328.3c0,11,8.9,19.9,19.9,19.9h472.2c11,0,19.9-8.9,19.9-19.9V163.8
		C512,158.6,510,153.8,506.7,150.3L506.7,150.3z M76.9,184.6c4.5,0,8.2-3.7,8.2-8.2V16.3h341.8v160.1c0,4.5,3.7,8.2,8.2,8.2
		c4.5,0,8.2-3.7,8.2-8.2v-16.2h41.4L265.2,388.8c-2.5,2.6-5.7,4-9.2,4c-3.5,0-6.7-1.4-9.2-4L27.3,160.2h41.4v16.2
		C68.7,181,72.4,184.6,76.9,184.6z M492.1,495.7H19.9c-1.9,0-3.6-1.6-3.6-3.6V172.4l149.4,155.6L34.3,464.8c-3.1,3.3-3,8.4,0.2,11.6
		c1.6,1.5,3.6,2.3,5.7,2.3c2.1,0,4.3-0.8,5.9-2.5l131-136.4l58,60.4c5.6,5.8,13,9,21,9s15.4-3.2,21-9l58-60.4l51.2,53.4
		c1.6,1.7,3.7,2.5,5.9,2.5c2,0,4.1-0.8,5.7-2.3c3.3-3.1,3.4-8.3,0.2-11.6l-51.7-53.8l149.4-155.6v319.7
		C495.7,494,494,495.7,492.1,495.7L492.1,495.7z"/>
	<path fill="#FFFFFF" d="M424,408.9c-3.1-3.3-8.3-3.4-11.6-0.2c-3.3,3.1-3.4,8.3-0.2,11.6l53.7,56c1.6,1.7,3.7,2.5,5.9,2.5
		c2,0,4.1-0.8,5.7-2.3c3.3-3.1,3.4-8.3,0.2-11.6L424,408.9z"/>
	<path fill="#FFFFFF" d="M159.5,270.2h154.4c14.1,0,25.5-11.5,25.5-25.5c0-5-1.5-9.7-4-13.7c6.7-4.6,11.1-12.3,11.1-21
		c0-5-1.5-9.7-4-13.7c6.7-4.6,11.1-12.3,11.1-21c0-5-1.5-9.7-4-13.7c6.7-4.6,11.1-12.3,11.1-21c0-14.1-11.5-25.5-25.5-25.5l-46.3,0
		c7.7-16.6,11.9-36.2,11.9-56.8c0-14.1-11.5-25.5-25.5-25.5c-14.1,0-25.5,11.5-25.5,25.5c0,31.3-25.5,56.8-56.8,56.8h-33.4
		c-4.5,0-8.2,3.7-8.2,8.2V262C151.3,266.5,155,270.2,159.5,270.2L159.5,270.2z M266,58.2c0-5.1,4.1-9.2,9.2-9.2s9.2,4.1,9.2,9.2
		c0,22.9-5.8,44.4-16.2,60.5c-1.6,2.5-1.8,5.7-0.3,8.4s4.2,4.3,7.2,4.3l60.2,0c5.1,0,9.2,4.1,9.2,9.2c0,5.1-4.1,9.2-9.2,9.2h-21.3
		c-4.5,0-8.2,3.7-8.2,8.2s3.7,8.2,8.2,8.2h14.2c5.1,0,9.2,4.1,9.2,9.2s-4.1,9.2-9.2,9.2h-14.2c-4.5,0-8.2,3.7-8.2,8.2
		s3.7,8.2,8.2,8.2h7.1c5.1,0,9.2,4.1,9.2,9.2c0,5.1-4.1,9.2-9.2,9.2h-7.1c-4.5,0-8.2,3.7-8.2,8.2s3.7,8.2,8.2,8.2
		c5.1,0,9.2,4.1,9.2,9.2s-4.1,9.2-9.2,9.2H201.1v-123C237.6,126.8,266,95.8,266,58.2L266,58.2z M167.6,131.3h17.1v122.5h-17.1
		C167.6,253.8,167.6,131.3,167.6,131.3z"/>
</g>
</svg>
