<?xml version="1.0" encoding="utf-8"?>
<!-- Generator: Adobe Illustrator 17.1.0, SVG Export Plug-In . SVG Version: 6.00 Build 0)  -->
<!DOCTYPE svg PUBLIC "-//W3C//DTD SVG 1.1//EN" "http://www.w3.org/Graphics/SVG/1.1/DTD/svg11.dtd">
<svg version="1.1" id="Capa_1" xmlns="http://www.w3.org/2000/svg" xmlns:xlink="http://www.w3.org/1999/xlink" x="0px" y="0px"
	 viewBox="0 0 800 800" enable-background="new 0 0 800 800" xml:space="preserve">
<path fill="#FFFFFF" d="M800,261.6h-50.6v-40.5H405.1v40.5H0v276.8h405.1v40.5h344.3v-40.5H800V261.6z M140.6,438.4
	c-21.2,0-38.4-17.2-38.4-38.4s17.2-38.4,38.4-38.4S179,378.8,179,400S161.8,438.4,140.6,438.4z M329.7,438.4
	c-21.2,0-38.4-17.2-38.4-38.4s17.2-38.4,38.4-38.4s38.4,17.2,38.4,38.4S350.9,438.4,329.7,438.4z M648.1,362.9h-77.6v74.3h77.6v40.5
	H506.3V322.4h141.8V362.9z"/>
</svg>
