<?xml version="1.0" encoding="utf-8"?>
<!-- Generator: Adobe Illustrator 17.1.0, SVG Export Plug-In . SVG Version: 6.00 Build 0)  -->
<!DOCTYPE svg PUBLIC "-//W3C//DTD SVG 1.1//EN" "http://www.w3.org/Graphics/SVG/1.1/DTD/svg11.dtd">
<svg version="1.1" id="Capa_1" xmlns="http://www.w3.org/2000/svg" xmlns:xlink="http://www.w3.org/1999/xlink" x="0px" y="0px"
	 viewBox="0 0 800 800" enable-background="new 0 0 800 800" xml:space="preserve">
<g>
	<path fill="#FFFFFF" d="M521.1,404.5c0-4.6-0.8-9-1.3-13.5V248.1c18.1-4,31.7-20.1,31.7-39.4c0-22.4-18.1-40.4-40.4-40.4H398
		c-4.4-22.9-23.6-40.5-47.8-40.5c-24.2,0-43.4,17.6-47.8,40.5h-13.5c-22.3,0-40.4,18.1-40.4,40.4c0,19.3,13.6,35.4,31.7,39.4V391
		c-0.6,4.4-1.4,8.8-1.4,13.5L100,697.8c0,56.5,45.7,102.2,102.2,102.2h395.5c56.5,0,102.2-45.8,102.2-102.2L521.1,404.5z
		 M274.2,640.7c-23.5,0-42.5-19.1-42.5-42.5c0-23.5,19.1-42.5,42.5-42.5c23.4,0,42.5,19.1,42.5,42.5
		C316.7,621.6,297.7,640.7,274.2,640.7z M396.8,717.9c-20.7,0-37.5-16.8-37.5-37.6c0-20.7,16.8-37.5,37.5-37.5s37.5,16.8,37.5,37.5
		C434.4,701.1,417.5,717.9,396.8,717.9z M420.1,556.5c-34.6,0-62.7-28.1-62.7-62.6s28.1-62.7,62.7-62.7c34.6,0,62.6,28.1,62.6,62.7
		S454.7,556.5,420.1,556.5z M465.8,61.1c18.6,0,33.7,15.1,33.7,33.7s-15.1,33.7-33.7,33.7c-18.6,0-33.7-15.1-33.7-33.7
		S447.2,61.1,465.8,61.1z M368.7,0c16.4,0,29.7,13.3,29.7,29.7S385,59.4,368.7,59.4S339,46.1,339,29.7S352.3,0,368.7,0z"/>
</g>
</svg>
