<?xml version="1.0" encoding="utf-8"?>
<!-- Generator: Adobe Illustrator 17.1.0, SVG Export Plug-In . SVG Version: 6.00 Build 0)  -->
<!DOCTYPE svg PUBLIC "-//W3C//DTD SVG 1.1//EN" "http://www.w3.org/Graphics/SVG/1.1/DTD/svg11.dtd">
<svg version="1.1" id="Capa_1" xmlns="http://www.w3.org/2000/svg" xmlns:xlink="http://www.w3.org/1999/xlink" x="0px" y="0px"
	 viewBox="0 0 800 800" enable-background="new 0 0 800 800" xml:space="preserve">
<g>
	<path fill="#FFFFFF" d="M400,0C179.4,0,0,179.4,0,400s179.4,400,400,400c220.6,0,400-179.4,400-400C800,179.4,620.6,0,400,0z
		 M400,727.7c-180.7,0-327.7-147-327.7-327.7S219.3,72.3,400,72.3c180.7,0,327.7,147,327.7,327.7S580.7,727.7,400,727.7z"/>
	<path fill="#FFFFFF" d="M319.7,320.3l-100.4-74.9c-16-11.9-38.7-8.7-50.6,7.4c-12,16-8.7,38.7,7.4,50.6l100.4,74.9
		c6.5,4.8,14.1,7.2,21.6,7.2c11,0,21.9-5,29-14.5C339,354.9,335.7,332.3,319.7,320.3z"/>
	<path fill="#FFFFFF" d="M292.8,441.1l-123.9,18c-19.8,2.9-33.5,21.2-30.6,41c2.6,18,18.1,31,35.8,31c1.7,0,3.5-0.1,5.2-0.4
		l123.9-18c19.8-2.9,33.5-21.2,30.6-41C331,451.9,312.6,438.2,292.8,441.1z"/>
	<path fill="#FFFFFF" d="M511.6,328.5c7.7,0,15.4-2.4,22-7.5l96.7-74.3c15.8-12.2,18.8-34.9,6.6-50.7c-12.2-15.8-34.9-18.8-50.7-6.6
		l-96.7,74.3c-15.8,12.2-18.8,34.9-6.6,50.7C490,323.6,500.7,328.5,511.6,328.5z"/>
	<path fill="#FFFFFF" d="M407.5,488.5c-19.9-2-37.6,12.4-39.7,32.3l-12.7,123.9c-2,19.9,12.4,37.6,32.3,39.7
		c1.3,0.1,2.5,0.2,3.7,0.2c18.3,0,34-13.9,35.9-32.5l12.7-123.9C441.9,508.3,427.4,490.5,407.5,488.5z"/>
	<path fill="#FFFFFF" d="M619.2,528.6l-106.4-23.5c-19.5-4.3-38.8,8-43.1,27.5c-4.3,19.5,8,38.8,27.5,43.1l106.4,23.5
		c2.6,0.6,5.2,0.9,7.8,0.9c16.6,0,31.6-11.5,35.3-28.4C651,552.2,638.7,532.9,619.2,528.6z"/>
	<path fill="#FFFFFF" d="M372.9,271c7.1,8.8,17.6,13.3,28.1,13.3c8,0,16.1-2.7,22.8-8.1c15.5-12.6,17.8-35.4,5.2-50.9l-78.6-96.6
		c-12.6-15.5-35.4-17.8-50.9-5.2c-15.5,12.6-17.8,35.4-5.2,50.9L372.9,271z"/>
	<path fill="#FFFFFF" d="M613.7,411.7c0-20-16.2-36.2-36.2-36.2H447.4c-20,0-36.2,16.2-36.2,36.2c0,20,16.2,36.2,36.2,36.2h130.1
		C597.5,447.9,613.7,431.7,613.7,411.7z"/>
</g>
</svg>
