<?xml version="1.0" encoding="utf-8"?>
<!-- Generator: Adobe Illustrator 17.1.0, SVG Export Plug-In . SVG Version: 6.00 Build 0)  -->
<!DOCTYPE svg PUBLIC "-//W3C//DTD SVG 1.1//EN" "http://www.w3.org/Graphics/SVG/1.1/DTD/svg11.dtd">
<svg version="1.1" id="Capa_1" xmlns="http://www.w3.org/2000/svg" xmlns:xlink="http://www.w3.org/1999/xlink" x="0px" y="0px"
	 viewBox="0 0 496.9 496.9" enable-background="new 0 0 496.9 496.9" xml:space="preserve">
<g>
	<path fill="#FFFFFF" d="M344.9,409c12.8-22,33.2-147.9-132.4-205.1c1-35.8-21.5-88-38.9-107.4c0,0-6.1-29.2-8.2-39.9
		c-2-10.7-21-40.4-36.8-43.5c0,0-6.6,23-4.6,32.2c0,0-22-21.7-35.5-21.6c0,0-2.9,26.1,0.1,30.2c0,0-24.5,16.6-22.4,27.9
		c0,0-74.6,25.7-65.4,37c0,0,6.4,9.8,13.3,12.9c0,0,14.6,28.4,56.8,26.9c31.8,1.1,16.5,8.1,15.3,18.4c-1.2,10.4,1.9,27.6,1.5,34.1
		c-0.4,6.5-11.5,40.6,0.4,79.4C100,329.2,77,440.6,62.4,448.3c-14.6,7.7-23.8,29-11.5,29h64.4c0,0,9.7-15.6,18.1-16.1
		c8.4-0.5,11-25.9,10.5-32.8c-0.5-6.9,5-53.9,0.1-73.8c-4.9-19.9,1.2-25.1,3.9-25.9c2.7-0.8-7.3-24.7-26.1-11.2
		c-8.4,5.1-18.8-14-18.8-14s-1-5.6,5-8.7c5.3-8.7-13-14.2,12.3-33.8c-1.1-12.3,6.7-24.9,10-27.4c0,0,4.2,1,5.4,3.8
		c0,0,5.3-13.6,12.7-13.6s14.5,17.9,16.1,28.4c0,0,50.6,15.1,57.8,82.1c0,0,39.4,7.2,50.6,28.1c0,0,5.9-25.4,13.3-39.4
		c6.2-11.8,8.2-42.4-19.9-40.9c-28.1,1.5-13.7,22.8-12.3,26.1c3.6,8.4-2.7,24.6-18.9,15.8c-16.3-8.7-10.2-61.3,30.7-66.5
		c40.9-5.1,53.2,34.8,45.5,64.9c-7.7,30.2-23,49.8-16.4,67.7c6.6,17.9,19.9,68-27.1,87.2h19.4c0,0,34.8-21.7,36.3-28.9
		c1.5-7.2,99.7,79.9,164.1,4.2c20.2-27.4,1.5-67.9,0-71S433.8,437.7,344.9,409z"/>
	<path fill="#FFFFFF" d="M192.8,418.3c-2.3-5-16.1-2.9-16.1-2.9c-1.5,21.1-25.7,62-25.7,62h15.7c2.7-38.3,44.5-9.8,33-25.1
		C188.2,436.8,195.1,423.2,192.8,418.3z"/>
</g>
</svg>
