<?xml version="1.0" encoding="utf-8"?>
<!-- Generator: Adobe Illustrator 17.1.0, SVG Export Plug-In . SVG Version: 6.00 Build 0)  -->
<!DOCTYPE svg PUBLIC "-//W3C//DTD SVG 1.1//EN" "http://www.w3.org/Graphics/SVG/1.1/DTD/svg11.dtd">
<svg version="1.1" id="Capa_1" xmlns="http://www.w3.org/2000/svg" xmlns:xlink="http://www.w3.org/1999/xlink" x="0px" y="0px"
	 viewBox="0 0 800 800" enable-background="new 0 0 800 800" xml:space="preserve">
<g>
	<path fill="#FFFFFF" d="M206.8,50.9c11.6-11.6,11.6-30.5,0-42.2c-11.6-11.6-30.5-11.6-42.2,0c-129.7,129.7-129.7,340.8,0,470.6
		c5.8,5.8,13.5,8.7,21.1,8.7c7.6,0,15.3-2.9,21.1-8.7c11.6-11.6,11.6-30.5,0-42.2C100.3,330.7,100.3,157.4,206.8,50.9z"/>
	<path fill="#FFFFFF" d="M635.2,8.7c-11.6-11.6-30.5-11.6-42.2,0c-11.6,11.6-11.6,30.5,0,42.2c51.6,51.6,80,120.2,80,193.1
		c0,73-28.4,141.5-80,193.1c-11.6,11.6-11.6,30.5,0,42.2c5.8,5.8,13.5,8.7,21.1,8.7c7.6,0,15.3-2.9,21.1-8.7
		c62.9-62.8,97.5-146.4,97.5-235.3C732.7,155.1,698.1,71.6,635.2,8.7z"/>
	<path fill="#FFFFFF" d="M245,399c5.8,5.8,13.5,8.7,21.1,8.7c7.6,0,15.3-2.9,21.1-8.7c11.6-11.6,11.6-30.5,0-42.2
		c-62.2-62.2-62.2-163.4,0-225.6c11.6-11.6,11.6-30.5,0-42.2c-11.6-11.6-30.5-11.6-42.2,0C159.5,174.5,159.5,313.5,245,399z"/>
	<path fill="#FFFFFF" d="M512.7,399c5.8,5.8,13.5,8.7,21.1,8.7c7.6,0,15.3-2.9,21.1-8.7c41.4-41.4,64.2-96.4,64.2-155
		c0-58.5-22.8-113.6-64.2-155c-11.6-11.6-30.5-11.6-42.2,0c-11.6,11.6-11.6,30.5,0,42.2c30.1,30.1,46.7,70.2,46.7,112.8
		s-16.6,82.7-46.7,112.8C501.1,368.5,501.1,387.4,512.7,399z"/>
	<path fill="#FFFFFF" d="M399.9,319.8c41.8,0,75.7-33.9,75.7-75.7s-33.9-75.7-75.7-75.7c-41.8,0-75.7,33.9-75.7,75.7
		C324.2,285.8,358.1,319.8,399.9,319.8z"/>
	<path fill="#FFFFFF" d="M428.3,361.9c-4-12.3-15.4-20.6-28.4-20.6c-12.9,0-24.4,8.3-28.4,20.6L242.3,761
		c-5.1,15.7,3.5,32.5,19.2,37.6c3.1,1,6.2,1.5,9.2,1.5c12.6,0,24.3-8,28.4-20.6l15.8-48.6h170.3l15.8,48.6
		c5.1,15.7,21.9,24.3,37.6,19.2c15.7-5.1,24.3-21.9,19.2-37.6L428.3,361.9z M399.9,467.8l25,77.1h-49.9L399.9,467.8z M334.1,671.1
		l21.6-66.6h88.6l21.6,66.6H334.1z"/>
</g>
</svg>
