<?xml version="1.0" encoding="utf-8"?>
<!-- Generator: Adobe Illustrator 17.1.0, SVG Export Plug-In . SVG Version: 6.00 Build 0)  -->
<!DOCTYPE svg PUBLIC "-//W3C//DTD SVG 1.1//EN" "http://www.w3.org/Graphics/SVG/1.1/DTD/svg11.dtd">
<svg version="1.1" id="Capa_1" xmlns="http://www.w3.org/2000/svg" xmlns:xlink="http://www.w3.org/1999/xlink" x="0px" y="0px"
	 viewBox="0 0 947.5 947.5" enable-background="new 0 0 947.5 947.5" xml:space="preserve">
<g>
	<path fill="#FFFFFF" d="M737.8,194.5h50.7c11,0,20.3-9.2,20.3-20.3V60.9c0-11-9.3-20.4-20.3-20.4l0,0l-51.2,0.2
		c-5.1,0-10.1,1.1-14.8,2.9l-97.7,39.1v69l98,39.8C727.5,193.4,732.6,194.5,737.8,194.5z"/>
	<path fill="#FFFFFF" d="M158.8,579.5h25c11,0,20-9,20-20v-183c0-101.7,73.4-186.6,170-204.5v35.1c-81.7,29.8-140,108.2-140,200.3
		v520c0,11,8.8,20.1,19.9,20.1h386.2c11,0,19.9-9.1,19.9-20.1v-520c0-92.1-58.3-170.5-140-200.3v-53.6h66v-1.8v-69v-0.2H417.4
		c0-0.3,0-0.6,0-0.9c0-45-36.6-81.6-81.6-81.6s-81.6,36.6-81.6,81.6c0,22.2,8.9,42.3,23.3,57.1c-21.3,12-41,27-58.8,44.8
		c-51.6,51.6-80,120.1-80,193v183C138.8,570.5,147.8,579.5,158.8,579.5z M335.8,55c14.7,0,26.6,11.9,26.6,26.6s-11.9,26.6-26.6,26.6
		s-26.6-11.9-26.6-26.6C309.2,66.9,321.1,55,335.8,55z"/>
</g>
</svg>
