<?xml version="1.0" encoding="utf-8"?>
<!-- Generator: Adobe Illustrator 17.1.0, SVG Export Plug-In . SVG Version: 6.00 Build 0)  -->
<!DOCTYPE svg PUBLIC "-//W3C//DTD SVG 1.1//EN" "http://www.w3.org/Graphics/SVG/1.1/DTD/svg11.dtd">
<svg version="1.1" id="Capa_1" xmlns="http://www.w3.org/2000/svg" xmlns:xlink="http://www.w3.org/1999/xlink" x="0px" y="0px"
	 viewBox="0 0 463.3 463.3" enable-background="new 0 0 463.3 463.3" xml:space="preserve">
<g>
	<g>
		<path fill="#FFFFFF" d="M175.5,208.5h112.2c2.1,0,4.2-1,5.5-2.7s1.8-3.9,1.3-6l-7.6-31.3c-0.8-3.1-3.6-5.4-6.8-5.4h-97.1
			c-3.2,0-6,2.2-6.8,5.4l-7.6,31.3c-0.5,2.1,0,4.3,1.3,6S173.4,208.5,175.5,208.5z"/>
		<path fill="#FFFFFF" d="M193.5,134.4h76.3c2.1,0,4.2-1,5.5-2.7c1.3-1.7,1.8-3.9,1.3-6L269,94.4c-0.8-3.1-3.6-5.4-6.8-5.4h-61.1
			c-3.2,0-6,2.2-6.8,5.4l-7.6,31.3c-0.5,2.1,0,4.3,1.3,6C189.3,133.4,191.3,134.4,193.5,134.4z"/>
		<path fill="#FFFFFF" d="M211.5,60.2h40.4c2.1,0,4.2-1,5.5-2.7c1.3-1.7,1.8-3.9,1.3-6l-7.2-29.7c-0.8-3.1-3.6-5.4-6.8-5.4h-25.9
			c-3.2,0-6,2.2-6.8,5.4l-7.2,29.7c-0.5,2.1,0,4.3,1.3,6C207.3,59.3,209.3,60.2,211.5,60.2z"/>
		<path fill="#FFFFFF" d="M365.9,405.6h-21.5l-39.5-162.9c-0.8-3.1-3.6-5.4-6.8-5.4h-133c-3.2,0-6,2.2-6.8,5.4l-39.5,162.9H97.4
			c-3.9,0-7,3.1-7,7v27.2c0,3.9,3.1,7,7,7h268.5c3.9,0,7-3.1,7-7v-27.2C372.9,408.7,369.8,405.6,365.9,405.6z"/>
		<path fill="#FFFFFF" d="M70.6,220.5h66.9c3.2,0,6-2.2,6.8-5.4l5.5-22.7c0.5-2.1,0-4.3-1.3-6c-1.3-1.7-3.4-2.7-5.5-2.7H76.1
			c-3.2,0-6,2.2-6.8,5.4l-5.5,22.7c-0.5,2.1,0,4.3,1.3,6C66.4,219.5,68.5,220.5,70.6,220.5z"/>
		<path fill="#FFFFFF" d="M85.1,160.5h58.4c2.1,0,4.2-1,5.5-2.7c1.3-1.7,1.8-3.9,1.3-6l-5.5-22.7c-0.8-3.1-3.6-5.4-6.8-5.4H90.6
			c-3.2,0-6,2.2-6.8,5.4l-5.5,22.7c-0.5,2.1,0,4.3,1.3,6C81,159.5,83,160.5,85.1,160.5z"/>
		<path fill="#FFFFFF" d="M99.7,100.5H129c2.1,0,4.2-1,5.5-2.7c1.3-1.7,1.8-3.9,1.3-6l-5.2-21.4c-0.8-3.1-3.6-5.4-6.8-5.4h-18.9
			c-3.2,0-6,2.2-6.8,5.4l-5.2,21.4c-0.5,2.1,0,4.3,1.3,6C95.5,99.5,97.5,100.5,99.7,100.5z"/>
		<path fill="#FFFFFF" d="M104.4,379.8l30.9-127.4c0.5-2.1,0-4.3-1.3-6s-3.4-2.7-5.5-2.7H61.6c-3.2,0-6,2.2-6.8,5.4L23,380H7
			c-3.9,0-7,3.1-7,7v19.3c0,3.9,3.1,7,7,7h56.4c3.9,0,7-3.1,7-7v-21.2h27.2C100.8,385.2,103.6,383,104.4,379.8z"/>
		<path fill="#FFFFFF" d="M314.7,186.5c-1.3,1.7-1.8,3.9-1.3,6l5.5,22.7c0.8,3.1,3.6,5.4,6.8,5.4h66.9c2.1,0,4.2-1,5.5-2.7
			s1.8-3.9,1.3-6l-5.5-22.7c-0.8-3.1-3.6-5.4-6.8-5.4h-66.9C318.1,183.8,316.1,184.8,314.7,186.5z"/>
		<path fill="#FFFFFF" d="M319.8,160.5h58.4c2.1,0,4.2-1,5.5-2.7s1.8-3.9,1.3-6l-5.5-22.7c-0.8-3.1-3.6-5.4-6.8-5.4h-47.4
			c-3.2,0-6,2.2-6.8,5.4l-5.5,22.7c-0.5,2.1,0,4.3,1.3,6C315.6,159.5,317.6,160.5,319.8,160.5z"/>
		<path fill="#FFFFFF" d="M334.3,100.5h29.3c2.1,0,4.2-1,5.5-2.7c1.3-1.7,1.8-3.9,1.3-6l-5.2-21.4c-0.8-3.1-3.6-5.4-6.8-5.4h-18.9
			c-3.2,0-6,2.2-6.8,5.4l-5.2,21.4c-0.5,2.1,0,4.3,1.3,6C330.1,99.5,332.1,100.5,334.3,100.5z"/>
		<path fill="#FFFFFF" d="M456.3,380h-16l-31.7-130.9c-0.8-3.1-3.6-5.4-6.8-5.4h-66.9c-2.1,0-4.2,1-5.5,2.7c-1.3,1.7-1.8,3.9-1.3,6
			l30.9,127.4c0.8,3.1,3.6,5.4,6.8,5.4h27.2v21.2c0,3.9,3.1,7,7,7h56.4c3.9,0,7-3.1,7-7V387C463.3,383.1,460.1,380,456.3,380z"/>
	</g>
</g>
</svg>
