<?xml version="1.0" encoding="utf-8"?>
<!-- Generator: Adobe Illustrator 17.1.0, SVG Export Plug-In . SVG Version: 6.00 Build 0)  -->
<!DOCTYPE svg PUBLIC "-//W3C//DTD SVG 1.1//EN" "http://www.w3.org/Graphics/SVG/1.1/DTD/svg11.dtd">
<svg version="1.1" id="Capa_1" xmlns="http://www.w3.org/2000/svg" xmlns:xlink="http://www.w3.org/1999/xlink" x="0px" y="0px"
	 viewBox="0 0 240 240" enable-background="new 0 0 240 240" xml:space="preserve">
<g>
	<path fill="#FFFFFF" d="M233.4,116.7c-4-4-8.9-6.4-14.1-7.3c3.2-20.9-8.6-41.9-29.2-49.5c-8.4-3.1-17.4-3.7-26-1.7
		c-4.9-14.9-22.5-25.6-44.2-25.6S80.7,43.3,75.8,58.2c-8.6-2-17.5-1.4-26,1.7c-20.6,7.6-32.4,28.6-29.2,49.5
		c-5.2,0.9-10.1,3.3-14.1,7.3c-8.8,8.8-8.8,23,0,31.8c1.4,1.4,3,2.6,4.7,3.5v20.9c0,6.9,5.5,12.5,12.4,12.6l-4.5,12.4
		c-1.4,3.7,0.5,7.8,4.2,9.2c0.8,0.3,1.6,0.4,2.5,0.4c2.9,0,5.6-1.8,6.7-4.7l6.3-17.3h162.2l6.3,17.3c1.1,2.9,3.8,4.7,6.7,4.7
		c0.8,0,1.6-0.1,2.4-0.4c3.7-1.4,5.6-5.5,4.2-9.2l-4.5-12.4c6.8-0.1,12.4-5.7,12.4-12.6V152c1.7-0.9,3.3-2.1,4.8-3.5
		C242.2,139.7,242.2,125.4,233.4,116.7z M37.3,89.5c3.5-7.6,9.7-13.4,17.5-16.3c7.8-2.9,16.3-2.6,23.9,0.9
		c7.6,3.5,13.4,9.7,16.3,17.5c1.4,3.7,5.5,5.6,9.2,4.2c3.7-1.4,5.6-5.5,4.2-9.2C104.7,77,98,68.9,89.1,63.6
		c2.4-9.3,15.6-16.8,30.9-16.8s28.5,7.4,30.9,16.8c-8.8,5.3-15.6,13.4-19.2,23.2c-1.4,3.7,0.5,7.8,4.2,9.2c3.7,1.4,7.8-0.5,9.2-4.2
		c2.9-7.8,8.7-14.1,16.3-17.5c7.6-3.5,16.1-3.8,23.9-0.9c7.8,2.9,14.1,8.7,17.6,16.3c3.1,6.8,3.7,14.4,1.7,21.6
		c-3,1.3-5.8,3.1-8.2,5.6c-5.4,5.4-8.6,12.5-9,20.1H52.9c-0.4-7.6-3.6-14.7-9.1-20.1c-2.4-2.4-5.2-4.3-8.2-5.6
		C33.5,104,34.1,96.4,37.3,89.5z M16.7,126.8c4.7-4.7,12.3-4.7,17,0c3.2,3.2,5,7.5,4.9,12l-0.1,5c0,3.6,3.4,7.3,7.6,7.3h147.6
		c4.2,0,7.7-3.7,7.7-7.3l-0.1-5c0-4.5,1.7-8.8,4.9-12c4.7-4.7,12.3-4.7,17,0c3.2,3.2,3.2,8.4,0,11.6c-2,2-5.3,2-7.3,0
		c-2.8-2.8-7.3-2.8-10.1,0c-2.8,2.8-2.8,7.3,0,10.1c2.4,2.4,5.3,4.1,8.4,4.9v17.8H25.6v-17.8c3.1-0.9,6-2.5,8.4-4.9
		c2.8-2.8,2.8-7.3,0-10.1s-7.3-2.8-10.1,0c-2,2-5.3,2-7.3,0C13.5,135.2,13.5,130,16.7,126.8z"/>
</g>
</svg>
