<?xml version="1.0" encoding="utf-8"?>
<!-- Generator: Adobe Illustrator 17.1.0, SVG Export Plug-In . SVG Version: 6.00 Build 0)  -->
<!DOCTYPE svg PUBLIC "-//W3C//DTD SVG 1.1//EN" "http://www.w3.org/Graphics/SVG/1.1/DTD/svg11.dtd">
<svg version="1.1" id="Capa_1" xmlns="http://www.w3.org/2000/svg" xmlns:xlink="http://www.w3.org/1999/xlink" x="0px" y="0px"
	 viewBox="0 0 800 800" enable-background="new 0 0 800 800" xml:space="preserve">
<g>
	<path fill="#FFFFFF" d="M592.5,722.9c-11.2,0-21.6-2.3-29.3-5.7c-27.4-14.2-46.6-33.8-65.9-91.6c-19.6-60.1-56.5-88.2-92-115.5
		c-30.4-23.5-62-47.7-89.3-97.5c-20.4-36.9-31.6-77.4-31.6-113.2C284.5,191.6,369.2,107,477,107s192.5,84.7,192.5,192.5h77
		c0-151.2-118.2-269.5-269.5-269.5c-151.3,0-269.5,118.3-269.5,269.5c0,48.5,14.7,102.1,41.2,150.2c35,63.5,76.2,95.4,109.7,121.2
		c31.1,23.8,53.5,41.2,65.8,78.9c23.1,70,52.8,109.3,105.1,136.7c19.7,8.8,41.3,13.5,63.2,13.5c85.1,0,154-68.9,154-154h-77
		C669.5,688.3,634.8,722.9,592.5,722.9z M232.1,54.7L177.5,0c-76.6,76.6-124,182.5-124,299.5c0,117.1,47.3,223,124,299.5l54.3-54.3
		C169.4,482,130.5,395.4,130.5,299.5C130.5,203.7,169.4,117,232.1,54.7z M380.8,299.5c0,53.1,43.1,96.3,96.2,96.3
		s96.3-43.2,96.3-96.3s-43.1-96.3-96.3-96.3C423.9,203.2,380.8,246.4,380.8,299.5z"/>
</g>
</svg>
