<?xml version="1.0" encoding="utf-8"?>
<!-- Generator: Adobe Illustrator 17.1.0, SVG Export Plug-In . SVG Version: 6.00 Build 0)  -->
<!DOCTYPE svg PUBLIC "-//W3C//DTD SVG 1.1//EN" "http://www.w3.org/Graphics/SVG/1.1/DTD/svg11.dtd">
<svg version="1.1" id="Capa_1" xmlns="http://www.w3.org/2000/svg" xmlns:xlink="http://www.w3.org/1999/xlink" x="0px" y="0px"
	 viewBox="0 0 346.9 346.9" enable-background="new 0 0 346.9 346.9" xml:space="preserve">
<g>
	<g>
		<path fill="#FFFFFF" d="M345.1,45.5V29.1c0-3.4-2.8-6.1-6.1-6.1h-55.1c-1.6,0-3.1,0.3-4.2,0.7v71.9H295c3.4,0,6.1-2.8,6.1-6.1
			V57.8c0-3.4,2.8-6.1,6.1-6.1h31.7C342.3,51.6,345.1,48.9,345.1,45.5z"/>
		<path fill="#FFFFFF" d="M51.9,95.6h15v-72c-1.1-0.4-2.4-0.6-3.8-0.6H8c-3.4,0-6.1,2.8-6.1,6.1v16.4c0,3.4,2.8,6.1,6.1,6.1h31.6
			c3.4,0,6.1,2.8,6.1,6.1v31.6C45.8,92.8,48.6,95.6,51.9,95.6z"/>
		<path fill="#FFFFFF" d="M173.3,346.9c5.1,0,9.2-4.1,9.2-9.2v-49.6c13.5-1.2,23.3-5.7,23.3-20.6v-65.6c-12.8,1.6-24.5,1.6-32.5,1.6
			c-8.3,0-20.7,0-34.1-1.8v65.8c0,15.5,10.6,19.8,24.9,20.7v49.5C164,342.8,168.2,346.9,173.3,346.9z"/>
		<path fill="#FFFFFF" d="M267.1,132h0.1V0H79.2v132h0.2c1.2,37.7,25.7,52.3,59.8,57.1c10.6,1.5,22,2.1,34.1,2.1
			c11.5,0,22.4-0.5,32.5-1.9C240.7,184.7,265.9,170.3,267.1,132z M108.4,64.1V14.6h131.2v49.5H108.4z"/>
	</g>
</g>
</svg>
