<?xml version="1.0" encoding="utf-8"?>
<!-- Generator: Adobe Illustrator 17.1.0, SVG Export Plug-In . SVG Version: 6.00 Build 0)  -->
<!DOCTYPE svg PUBLIC "-//W3C//DTD SVG 1.1//EN" "http://www.w3.org/Graphics/SVG/1.1/DTD/svg11.dtd">
<svg version="1.1" id="Capa_1" xmlns="http://www.w3.org/2000/svg" xmlns:xlink="http://www.w3.org/1999/xlink" x="0px" y="0px"
	 viewBox="0 0 800 800" enable-background="new 0 0 800 800" xml:space="preserve">
<g>
	<g>
		<g>
			<g>
				<g>
					<path fill="#FFFFFF" d="M183.6,696.4c-28.3,0-39.4-2.7-58.1-20.9c-13.3-12.9-30.3-24.4-40.8-31c-0.3,1.5-0.5,3.1-0.6,4.6v34.5
						c0,6.8-5.5,12.4-12.4,12.4H33.2c-6.8,0-12.4-5.5-12.4-12.4v-63c-36.9-40.9-14.2-84.4,3.6-102.2c4.6-4.6,12-4.8,16.9-0.6
						c0.7,0.6,70.7,61.9,95.8,79.2c16.6,11.4,33.4,22.6,40.6,22.6c0.8,0,2.1,0,4.8-2.2c2.3-1.9,5.2-2.9,8.2-2.8
						c1.9,0.1,19.3,1.2,42.6,21c22.3,18.9,17.2,48.9,17,50.2c-1.1,5.9-6.2,10.6-12.2,10.6c0,0,0,0,0,0
						C238.2,696.4,188.7,696.4,183.6,696.4z M80.9,615.5c2.1,0,4.2,0.5,6,1.6c1.3,0.7,32.7,18.3,55.8,40.7c12.4,12,16.2,14,40.9,14
						c4.9,0,32.7-0.4,42.3-0.4c-0.8-5.5-3-12-8.5-16.7c-11.1-9.4-19.9-13.1-24.4-14.4c-4.9,2.8-9.9,4.2-15.3,4.2
						c-13.3,0-27.7-8.3-54.7-27c-20.6-14.2-67.8-54.7-88.3-72.5c-8.4,12.8-17.7,37.2,7.1,62c2.3,2.3,3.6,5.5,3.6,8.7v55.6h13.8
						c0,0,0-23.2,0-23.5C60.8,627.2,68.7,615.5,80.9,615.5z"/>
				</g>
			</g>
			<g>
				<g>
					<path fill="#FFFFFF" d="M120.9,558.6C120.8,558.6,120.8,558.6,120.9,558.6c-6,0-11.1-4.7-12.2-10.6c-0.2-1.3-5.4-31.2,17-50.2
						c23.4-19.8,40.7-21,42.6-21c3-0.1,5.9,0.9,8.2,2.8c2.7,2.2,4,2.2,4.8,2.2c7.3,0,24.1-11.2,40.6-22.6c25-17.3,95-78.6,95.8-79.2
						c4.9-4.3,12.3-4,16.9,0.6c17.8,17.8,40.5,61.4,3.6,102.2v63c0,6.8-5.5,12.4-12.4,12.4h-38.5c-6.8,0-12.4-5.5-12.4-12.4v-34.5
						c-0.1-1.5-0.3-3.1-0.6-4.6c-10.5,6.6-27.5,18.1-40.8,31c-18.8,18.2-29.8,20.9-58.1,20.9C170.3,558.6,120.9,558.6,120.9,558.6z
						 M299.6,509.9c0,0.3,0,23.5,0,23.5h13.8v-55.6c0-3.3,1.3-6.4,3.6-8.7c24.9-24.9,15.5-49.2,7.1-62
						c-20.5,17.8-67.6,58.2-88.3,72.5c-27,18.7-41.3,27-54.7,27c-5.4,0-10.4-1.4-15.3-4.2c-4.5,1.4-13.2,5-24.4,14.4
						c-5.6,4.7-7.8,11.3-8.5,16.7c9.6,0,37.4,0.4,42.3,0.4c24.7,0,28.5-1.9,40.9-14c23.1-22.4,54.4-40,55.8-40.7
						c1.8-1,3.9-1.6,6-1.6C290.3,477.7,298.2,489.4,299.6,509.9z"/>
				</g>
			</g>
		</g>
		<path fill="#FFFFFF" d="M297.9,155h-4.5c-4.3-86.5-53.8-155-114-155c-60.2,0-109.6,68.5-114,155h-4.5c-6.8,0-12.4,5.5-12.4,12.4
			v118.4c0,6.8,5.5,12.4,12.4,12.4h236.8c6.8,0,12.4-5.5,12.4-12.4V167.3C310.3,160.5,304.7,155,297.9,155z M179.5,24.7
			c46,0,85.1,58.5,89.2,130.3H90.3C94.4,83.2,133.6,24.7,179.5,24.7z M285.6,179.7V212c-24.6,17.8-58.5,28.7-95.2,30.5
			c1-1.8,1.5-3.8,1.5-5.9c0-3.3-1.3-6.4-3.6-8.7c-2.3-2.3-5.5-3.6-8.7-3.6c-3.3,0-6.4,1.3-8.7,3.6c-2.3,2.3-3.6,5.5-3.6,8.7
			c0,2.1,0.5,4.1,1.5,5.9c-36.7-1.8-70.6-12.6-95.2-30.4v-32.4H285.6z M73.4,273.4v-32c29.5,16.8,66.9,26.1,106,26.1
			c39.2,0,76.6-9.4,106.1-26.2v32.1H73.4z"/>
		<path fill="#FFFFFF" d="M798.9,745.4c-11.8-141.8-44-253.6-68.9-322.4c-24.8-68.6-47.1-108.6-51.5-116.2
			c-6.5-21.1,0.7-46.8,21.4-76.4c28-40,6.7-74.2-8.4-86.6c0,0-2.4-1.5-2.4-1.6c-26.8-13.2-52.2-20.6-75.6-24.3
			c21.3-18.3,54.6-45.8,82-64.5c2.8-1.9,4.7-5,5.3-8.4c0.5-3.4-0.4-6.9-2.6-9.6C697,34.1,669.4,0,635,0c-4.3,0-8.4,2.3-10.6,6
			c-3.9,6.5-30.8,51.8-44.8,88.7c-14-36.9-40.9-82.2-44.8-88.7c-2.2-3.7-6.3-6-10.6-6c-34.4,0-62,34.1-63.2,35.5
			c-2.1,2.7-3.1,6.1-2.6,9.6c0.5,3.4,2.4,6.4,5.3,8.4c27.2,18.5,60,45.7,81.4,63.9c-45.3,6.4-74,24.1-76.1,25.5
			c-0.4,0.3-0.8,0.6-1.2,0.9c-15.2,12.5-36.4,46.7-8.4,86.6c20.7,29.6,27.9,55.3,21.4,76.4c-4.4,7.6-26.7,47.6-51.5,116.2
			c-24.9,68.8-57.1,180.6-68.9,322.4c-0.3,3.3,0.8,6.5,2.9,9c3.9,4.6,62,45.5,216.4,45.5s212.5-41,216.4-45.5
			C798.2,752,799.2,748.7,798.9,745.4z M641.6,25.5c10.5,2.3,20.7,9.4,28,16C648.5,56.7,626,75,608.2,90
			C618.4,67,632.5,41.2,641.6,25.5z M489.6,41.5c7-6.3,17.1-13.7,28-16C526.7,41.2,540.9,67,551,90C533.3,75,510.7,56.7,489.6,41.5z
			 M669.4,770.5c0.6-23.9,1.7-74.7,2.5-122.7c9.1,33.7,18.6,75.6,24.1,119C687.9,768.1,679.1,769.3,669.4,770.5z M720.3,761.9
			C707.3,660.2,673.5,569,672,565c-2.1-5.6-7.9-8.9-13.8-7.8c-5.9,1.1-10.2,6.2-10.2,12.2c0,54.6-2.6,167.8-3.5,203.5
			c-19,1.5-40.5,2.4-65,2.5c-134-0.6-181.7-25.6-194.1-34.2c23.1-261.7,116.3-421.3,117.2-422.9c0.5-0.8,0.8-1.6,1.1-2.4
			c9.7-29.2,1.6-62.7-24.3-99.6c-20.3-28.9-0.9-49,3.4-52.9c4-2.3,24.7-13.8,56.1-19.7c46-8.6,92.4-1.8,137.7,20.1
			c4.6,4.4,22.7,24.2,2.9,52.5c-25.8,36.9-34,70.4-24.3,99.6c0.3,0.8,0.6,1.6,1.1,2.4c0.9,1.6,94.2,161.3,117.2,423
			C767.6,745.6,752.2,754.3,720.3,761.9z"/>
	</g>
</g>
</svg>
