<?xml version="1.0" encoding="utf-8"?>
<!-- Generator: Adobe Illustrator 17.1.0, SVG Export Plug-In . SVG Version: 6.00 Build 0)  -->
<!DOCTYPE svg PUBLIC "-//W3C//DTD SVG 1.1//EN" "http://www.w3.org/Graphics/SVG/1.1/DTD/svg11.dtd">
<svg version="1.1" id="Capa_1" xmlns="http://www.w3.org/2000/svg" xmlns:xlink="http://www.w3.org/1999/xlink" x="0px" y="0px"
	 viewBox="0 0 31.7 31.7" enable-background="new 0 0 31.7 31.7" xml:space="preserve">
<g>
	<g>
		<path fill="#FFFFFF" d="M27.3,26.3v-1.3c0-1.2-1-2.2-2.2-2.2H25v-7.4c-1.5-0.1-3-0.7-4.1-1.8c-2-1.9-2-3.9-1.8-4.9
			c0.1-0.6,0.3-1,0.5-1.5c0.1-0.3,0.1-0.6,0-0.9C19.3,6.1,19,6,18.7,6H13c-0.3,0-0.6,0.2-0.8,0.4C12,6.7,12,7,12.2,7.3
			c0.2,0.4,0.4,0.9,0.5,1.5c0.2,1,0.1,3-1.9,4.9c-1.1,1.1-2.5,1.7-4.1,1.8v7.4H6.5c-1.1,0-2,0.9-2,2v1.5v0H3.8
			c-1.3,0-2.4,1.1-2.4,2.4v2.1h29v-2.5c0-1.1-0.9-2-2-2L27.3,26.3L27.3,26.3L27.3,26.3z M19.5,16.2c0-0.9,0.7-1.6,1.6-1.6
			s1.6,0.7,1.6,1.6v6.6h-3.2h-0.1L19.5,16.2L19.5,16.2z M14.2,16.2c0-0.9,0.7-1.6,1.6-1.6s1.6,0.7,1.6,1.6v6.6h0h-3.2h0L14.2,16.2
			L14.2,16.2z M9,16.2c0-0.9,0.7-1.6,1.5-1.6c0.9,0,1.5,0.7,1.5,1.6v6.6H9V16.2z"/>
		<path fill="#FFFFFF" d="M30,3.3c-1.5-1.6-4-2.5-7.4-2.5h-3.3h-3.6h-3.5H9c-3.4,0-5.8,0.8-7.4,2.5C0.4,4.5-0.1,6.3,0,8.2
			c0.2,2.4,1.8,4.5,4.2,5.3c0.7,0.2,1.4,0.4,2,0.4c1.4,0,2.6-0.5,3.5-1.5c1-1.1,1.2-2.3,1.1-3c-0.2-2-2-3.4-2.2-3.6
			C7.9,5.3,6.9,5.5,6.4,6.2S6,7.9,6.7,8.4c0.3,0.3,0.9,0.9,0.9,1.3c0,0.1,0,0.2-0.3,0.6c-0.5,0.6-1.4,0.5-2.1,0.3
			c-0.9-0.3-1.9-1.2-2-2.5C3.1,6.9,3.4,6.1,4,5.5C4.8,4.5,6.6,4,9,4h3.3h3.5h3.6h3.3c2.4,0,4.1,0.5,5,1.4c0.6,0.6,0.8,1.5,0.8,2.5
			c-0.1,1.4-1.2,2.3-2.1,2.6c-0.7,0.2-1.6,0.3-2.1-0.3C24,9.9,24,9.7,24,9.7c0-0.4,0.6-1,0.9-1.2c0.7-0.5,0.9-1.5,0.4-2.2
			c-0.5-0.7-1.5-0.9-2.2-0.4c-0.2,0.1-2,1.5-2.2,3.5c-0.1,0.8,0,1.9,1.1,3.1c0.9,1,2.1,1.5,3.5,1.5c0.6,0,1.3-0.1,2-0.3
			c2.4-0.8,4.1-2.9,4.2-5.4C31.8,6.3,31.2,4.5,30,3.3z"/>
	</g>
</g>
</svg>
