<?xml version="1.0" encoding="utf-8"?>
<!-- Generator: Adobe Illustrator 17.1.0, SVG Export Plug-In . SVG Version: 6.00 Build 0)  -->
<!DOCTYPE svg PUBLIC "-//W3C//DTD SVG 1.1//EN" "http://www.w3.org/Graphics/SVG/1.1/DTD/svg11.dtd">
<svg version="1.1" id="Capa_1" xmlns="http://www.w3.org/2000/svg" xmlns:xlink="http://www.w3.org/1999/xlink" x="0px" y="0px"
	 viewBox="0 0 800 800" enable-background="new 0 0 800 800" xml:space="preserve">
<path fill="#FFFFFF" d="M400,0C179.4,0,0,179.4,0,400s179.4,400,400,400s400-179.4,400-400S620.6,0,400,0z M720.5,361.4h-70.1
	c-16.7-109-102.8-195.1-211.8-211.8V79.5C585.8,97.1,702.9,214.2,720.5,361.4z M361.4,524c-40.7-12.6-72.8-44.8-85.4-85.4h85.4V524z
	 M361.4,361.4H276c12.6-40.7,44.8-72.8,85.4-85.4V361.4z M438.6,438.6H524c-12.6,40.7-44.8,72.8-85.4,85.4V438.6z M438.6,361.4V276
	c40.7,12.6,72.8,44.8,85.4,85.4H438.6z M361.4,79.5v70.2c-109,16.7-195.1,102.8-211.8,211.8H79.5C97.1,214.2,214.2,97.1,361.4,79.5z
	 M79.5,438.6h70.1c16.7,109,102.8,195.1,211.8,211.8v70.2C214.2,702.9,97.1,585.8,79.5,438.6z M438.6,720.5v-70.2
	c109-16.7,195.1-102.8,211.8-211.8h70.1C702.9,585.8,585.8,702.9,438.6,720.5z"/>
</svg>
