<?xml version="1.0" encoding="utf-8"?>
<!-- Generator: Adobe Illustrator 17.1.0, SVG Export Plug-In . SVG Version: 6.00 Build 0)  -->
<!DOCTYPE svg PUBLIC "-//W3C//DTD SVG 1.1//EN" "http://www.w3.org/Graphics/SVG/1.1/DTD/svg11.dtd">
<svg version="1.1" id="Capa_1" xmlns="http://www.w3.org/2000/svg" xmlns:xlink="http://www.w3.org/1999/xlink" x="0px" y="0px"
	 viewBox="0 0 545.1 545.1" enable-background="new 0 0 545.1 545.1" xml:space="preserve">
<g>
	<polygon fill="#FFFFFF" points="24.9,320.3 103.7,320.3 114.4,406.4 124.3,406.4 124.3,320.3 124.3,291.7 100.2,291.7 27.4,291.7 
		26.8,291.7 17.4,138.7 0,138.7 0,291.7 0,301.2 0,320.3 0,406.4 17.4,406.4 	"/>
	<path fill="#FFFFFF" d="M33.5,282.1h86.1c2.6,0,4.8-2.1,4.8-4.8s-2.1-4.8-4.8-4.8H33.5c-2.6,0-4.8,2.1-4.8,4.8
		S30.8,282.1,33.5,282.1z"/>
	<polygon fill="#FFFFFF" points="515.8,291.7 515.3,291.7 442.5,291.7 411.2,291.7 411.2,320.3 411.2,406.4 428.3,406.4 
		438.9,320.3 517.8,320.3 525.3,406.4 545.1,406.4 545.1,320.3 545.1,301.2 545.1,291.7 545.1,138.7 525.3,138.7 	"/>
	<path fill="#FFFFFF" d="M411.2,277.3c0,2.6,2.1,4.8,4.8,4.8H502c2.6,0,4.8-2.1,4.8-4.8s-2.1-4.8-4.8-4.8H416
		C413.3,272.5,411.2,274.7,411.2,277.3z"/>
	<path fill="#FFFFFF" d="M84.9,205.6h77.6v200.8h14.8l11.5-162.6h158.8l11.5,162.6h13.8V205.6h87.2c4.7,0,8.4-3.8,8.4-8.4v-2.3
		c0-4.7-3.8-8.4-8.4-8.4H84.9c-4.7,0-8.4,3.8-8.4,8.4v2.3C76.5,201.8,80.3,205.6,84.9,205.6z M344.9,205.6l1.3,19.1H190.2l1.3-19.1
		H344.9z"/>
</g>
</svg>
