<?xml version="1.0" encoding="utf-8"?>
<!-- Generator: Adobe Illustrator 17.1.0, SVG Export Plug-In . SVG Version: 6.00 Build 0)  -->
<!DOCTYPE svg PUBLIC "-//W3C//DTD SVG 1.1//EN" "http://www.w3.org/Graphics/SVG/1.1/DTD/svg11.dtd">
<svg version="1.1" id="Capa_1" xmlns="http://www.w3.org/2000/svg" xmlns:xlink="http://www.w3.org/1999/xlink" x="0px" y="0px"
	 viewBox="0 0 525.9 525.9" enable-background="new 0 0 525.9 525.9" xml:space="preserve">
<g>
	<path fill="#FFFFFF" d="M95.6,449.4h143.4v-57.4H95.6V449.4z M170.9,407c6.6,0,12,5.4,12,12c0,6.6-5.4,12-12,12s-12-5.4-12-12
		C159,412.4,164.3,407,170.9,407z"/>
	<path fill="#FFFFFF" d="M95.6,353.8h143.4v-57.4H95.6V353.8z M170.9,311.4c6.6,0,12,5.4,12,12c0,6.6-5.4,12-12,12s-12-5.4-12-12
		C159,316.7,164.3,311.4,170.9,311.4z"/>
	<path fill="#FFFFFF" d="M286.9,449.4h143.4V66.9H286.9V449.4z M314.4,234.9c6.6,0,12,5.4,12,12s-5.4,12-12,12s-12-5.4-12-12
		S307.8,234.9,314.4,234.9z"/>
	<path fill="#FFFFFF" d="M95.6,258.2h143.4V66.9H95.6V258.2z M209.2,158.4c6.6,0,12,5.4,12,12s-5.4,12-12,12s-12-5.4-12-12
		S202.6,158.4,209.2,158.4z"/>
	<path fill="#FFFFFF" d="M47.8,468.6v28.7v28.7h28.7v-28.7h172.1v28.7h28.7v-28.7h172.1v28.7h28.7v-28.7v-28.7V28.7H47.8V468.6z
		 M277.3,57.4h162.6V459H277.3V57.4z M86.1,57.4h162.6v210.4H86.1V57.4z M86.1,286.9h162.6v76.5H86.1V286.9z M86.1,382.5h162.6V459
		H86.1V382.5z"/>
	<polygon fill="#FFFFFF" points="47.8,19.1 478.1,19.1 497.3,0 28.7,0 	"/>
</g>
</svg>
