<?xml version="1.0" encoding="utf-8"?>
<!-- Generator: Adobe Illustrator 17.1.0, SVG Export Plug-In . SVG Version: 6.00 Build 0)  -->
<!DOCTYPE svg PUBLIC "-//W3C//DTD SVG 1.1//EN" "http://www.w3.org/Graphics/SVG/1.1/DTD/svg11.dtd">
<svg version="1.1" id="Capa_1" xmlns="http://www.w3.org/2000/svg" xmlns:xlink="http://www.w3.org/1999/xlink" x="0px" y="0px"
	 viewBox="0 0 612 612" enable-background="new 0 0 612 612" xml:space="preserve">
<g>
	<g>
		<path fill="#FFFFFF" d="M543.7,474.3c-23.3,2.9-46.1,5.8-69.7,8.8c-1.2,16.9-4.2,35.1,16.4,45.5c12.1,0,24.3,0,36.4,0
			C544.9,518,550.7,497.1,543.7,474.3z"/>
		<path fill="#FFFFFF" d="M571.1,225.4c-26.1-7.2-52,4.9-64.1,30.5c-9.6,20.3-18.6,40.8-28.1,61.7c-115.7-34.8-230.4-33.6-346.2,0.2
			c-9.2-20.8-18-40.2-26.5-59.8c-10.5-24-32.8-37.2-58.2-34.2c-23.4,2.8-43.4,22.1-47.3,45.5c-4,24.4,8,47.7,31.4,58.4
			c7.1,3.2,9.1,7.2,9.8,14.4c2.1,22.5,5.1,44.8,7.5,67.3c2,19.2,12.3,32.9,30,38.9c14.3,4.8,29.8,8.3,44.8,8.4
			c121.3,0.6,242.6,0.4,363.9,0.3c6.1,0,12.2-0.2,18.1-1c34.2-4.5,53.1-20.1,56.5-46.7c2.8-22,5.6-44,7.5-66.1
			c0.7-8.1,3-12.6,11-16.2c21.8-9.9,33.1-31.8,30.5-55.5C609.2,249.7,593.3,231.5,571.1,225.4z"/>
		<path fill="#FFFFFF" d="M520.1,90.2c-14.8-4.6-61.5-6.3-77-6.4c-40.5-0.3-88.4-0.4-137.1-0.4c-48.7,0-96.5,0.1-137.1,0.4
			c-15.5,0.1-62.2,1.8-77,6.4c-43.5,13.4-46,63.3-42.6,107.5c56.9-1.3,80.6,37,96.6,83.7c53.7-10.1,106.9-15,160-14.8
			c53.1-0.1,106.3,4.8,160,14.8c16.1-46.7,39.8-85,96.6-83.7C566.1,153.5,563.6,103.6,520.1,90.2z"/>
		<path fill="#FFFFFF" d="M69.2,474.1c23.3,2.9,46.1,5.8,69.7,8.8c1.2,16.9,4.2,35.1-16.4,45.5c-12.1,0-24.3,0-36.4,0
			C68,517.8,62.2,496.9,69.2,474.1z"/>
	</g>
</g>
</svg>
