<?xml version="1.0" encoding="utf-8"?>
<!-- Generator: Adobe Illustrator 17.1.0, SVG Export Plug-In . SVG Version: 6.00 Build 0)  -->
<!DOCTYPE svg PUBLIC "-//W3C//DTD SVG 1.1//EN" "http://www.w3.org/Graphics/SVG/1.1/DTD/svg11.dtd">
<svg version="1.1" id="Capa_1" xmlns="http://www.w3.org/2000/svg" xmlns:xlink="http://www.w3.org/1999/xlink" x="0px" y="0px"
	 viewBox="0 0 800 800" enable-background="new 0 0 800 800" xml:space="preserve">
<g>
	<path fill="#FFFFFF" d="M294.1,325.5c-2.5,0.2-10.7,7.2-10.7,7.2C287.8,334.6,296.6,325.4,294.1,325.5z M295.2,324.1l-0.6,0.4
		c0.2-0.1,0.4-0.2,0.6-0.3C295.2,324.2,295.2,324.1,295.2,324.1z M596.8,10.7c45.2,0,81.8,36.6,81.8,81.8s-36.6,81.8-81.8,81.8
		c-45.2,0-81.8-36.6-81.8-81.8S551.6,10.7,596.8,10.7z M105.7,361.4h21.9v-10.5h-21.9c-6,0-10.3-1.2-11.9-3.2
		c-1.2-1.6-0.7-3.6-0.7-3.6l0.3-63.6H82.9v61.4c-0.5,2.1-1.1,7.3,2.4,12C89,358.9,95.9,361.4,105.7,361.4z M798.6,510.9l-3-24.1
		C783.9,392.6,783.4,389,788,223c0.1-5.8-4.4-10.7-10.3-10.8c-5.5-0.4-10.7,4.4-10.8,10.2c-4.6,167.6-4.1,171.3,7.8,267l3,24.2
		c3.1,23.1,0.4,39.2-7.5,45.3c-9.2,7.1-25.2,0.8-26.3,0.3c-77.5-23.8-174,25.4-178.1,27.5c-5.2,2.6-7.2,9-4.5,14.2
		c1.9,3.6,5.6,5.6,9.4,5.6c1.6,0,3.3-0.3,4.8-1.2c0.6-0.3,43.7-22.2,92.6-29.5v164.1h-43.8c-8.9,0-16.1,7.2-16.1,16.1
		c0,8.9,7.2,16.1,16.1,16.1h124.3c8.9,0,16.1-7.2,16.1-16.1c0-8.9-7.2-16.1-16.1-16.1h-40.3V574.1c9.7,0.7,19.3,2.2,28.5,5
		c1.1,0.5,27.3,11.2,46.2-3.4C797.5,564.5,802.8,542.7,798.6,510.9z M748.5,463.1c-1.8-69.3-24.5-135.7-26.3-204.8
		c-2.6-100.5-156.6-102.8-157.9-4.7c-58.9,10-117.8,15.4-177.7,12.5c-54.4-2.5-54.6,81.7-0.5,84.2c62.9,2.9,125.4-3,187.4-13.2
		c6.4,36.9,13.9,73.6,16.3,110.9c-128.3,44.8-199.3,153.3-217.5,291.3c-0.1,0.9-0.2,2-0.2,2.9V436.9h80.9v-72.2H162.8
		c0.2-0.9,0.2-2,0.3-3.3c0-0.8,0.1-1.7,0.1-2.6c0.4-6.1,1.4-8.2,7.4-9.3c1.5-0.3,3.4-0.4,5.3-0.3v5.1h77.8c2.3,0.4,4.5,0.7,6.6,0.7
		c3.3,0,6.1-0.7,7.7-3c0.9-1.2,0.9-2.8,0.9-4.4c0-1.5,0-3.1,0.7-4c1.1-1.4,3.3-2.3,4.8-2.4c-1.6,3.1-2.6,6.5-2.6,10h88.2
		c0-17-19.8-30.7-44.1-30.7c-7.6,0-14.6,1.5-20.8,3.8c1.5,14.5-12.2,13.1-17.5,12c-0.6,0.8-1.2,1.6-1.7,2.4
		c-0.2-0.1-0.4-0.2-0.7-0.2c-2.4-0.1-5.7,1.3-7.5,3.5c-1.3,1.6-1.3,3.7-1.3,5.6c0,1.1,0,2.3-0.3,2.8c-0.9,1.3-2.8,1.7-4.9,1.8V340
		H176v6.4c-2.3,0-4.4,0.2-5.8,0.5c-7.6,1.5-9.1,4.9-9.5,11.7c-0.1,1-0.1,1.9-0.1,2.7c-0.1,1.5-0.1,2.6-0.3,3.4H0v72.2h44v350.2H372
		V752c5.3,54,97.4,49,105.5-12.7c14-106.7,76.3-178,180.9-201.6C701.9,544.3,750,519.6,748.5,463.1z M119,127l13.3,189l-35,2.5
		l-13.3-189L119,127z"/>
</g>
</svg>
