<?xml version="1.0" encoding="utf-8"?>
<!-- Generator: Adobe Illustrator 17.1.0, SVG Export Plug-In . SVG Version: 6.00 Build 0)  -->
<!DOCTYPE svg PUBLIC "-//W3C//DTD SVG 1.1//EN" "http://www.w3.org/Graphics/SVG/1.1/DTD/svg11.dtd">
<svg version="1.1" id="Capa_1" xmlns="http://www.w3.org/2000/svg" xmlns:xlink="http://www.w3.org/1999/xlink" x="0px" y="0px"
	 viewBox="0 0 31.7 31.7" enable-background="new 0 0 31.7 31.7" xml:space="preserve">
<g>
	<g>
		<circle fill="#FFFFFF" cx="13.4" cy="6.5" r="2.8"/>
		<path fill="#FFFFFF" d="M11,15.4c0.9,0.7,2.1,1,3.3,1c0.7,0,2.9-0.5,3.4-0.7c0.6-0.2,0.9-0.5,1.1-0.8c0.2-0.6,0.1-1.2,0.1-1.2
			c-0.2-1.1-1.3-1.4-2.1-1.1c-1.3,0.4-3,0.8-4,0.1c-0.4-0.3-0.7-0.8-0.9-1.2c0.3-0.9,0.1-1.8-0.5-2.5c-1-1.1-2.6-1.1-3.8-0.3
			c-2.1,1.4-3.8,6.5-3.8,9.4c0,0-0.1,1.4,1.5,1.5c0.5,0,4.6,0,5.9,0c0,0,0,0.1,0,0.1c0,1.2,0,5.5,0,7.5c0,0.6,0.5,1,1,1h1
			c0.3,0,0.5-0.1,0.7-0.3c0.2-0.2,0.3-0.5,0.3-0.7c0-2,0-6.3,0-7.5c0-2.1-1.6-3.1-2.7-3.2l-0.2,0c-0.6,0-1.3,0-2.1,0
			c0.2-0.8,0.4-1.5,0.7-2C10.3,14.8,10.6,15.1,11,15.4z"/>
		<path fill="#FFFFFF" d="M3.1,6.7c0-0.8-0.7-1.5-1.5-1.5C0.7,5.2,0,5.9,0,6.7v15.3c0,0.8,0.6,1.4,1.4,1.5c0,0,0,0,0,0h0.6v3.6
			c0,0.6,0.5,1,1,1c0.6,0,1-0.5,1-1v-3.6h3.2v3.6c0,0.6,0.5,1,1,1c0.6,0,1-0.5,1-1v-3.6h1v-3.1H3.1V6.7z"/>
		<path fill="#FFFFFF" d="M30.7,16.9c-0.2-1.2-1-2.2-2.1-2.8v-1h1.5V6.4l-5.6-2v-1h-2v10.3h2v-0.5h1v0.7c-1.4,0.4-2.4,1.6-2.7,3.1
			h-6.5c-0.6,0-1,0.5-1,1c0,0.6,0.5,1,1,1h2.1v9.2h11.2V19h1c0.6,0,1-0.5,1-1C31.7,17.4,31.3,16.9,30.7,16.9z"/>
	</g>
</g>
</svg>
