<?xml version="1.0" encoding="utf-8"?>
<!-- Generator: Adobe Illustrator 17.1.0, SVG Export Plug-In . SVG Version: 6.00 Build 0)  -->
<!DOCTYPE svg PUBLIC "-//W3C//DTD SVG 1.1//EN" "http://www.w3.org/Graphics/SVG/1.1/DTD/svg11.dtd">
<svg version="1.1" id="Capa_1" xmlns="http://www.w3.org/2000/svg" xmlns:xlink="http://www.w3.org/1999/xlink" x="0px" y="0px"
	 viewBox="0 0 42.2 42.2" enable-background="new 0 0 42.2 42.2" xml:space="preserve">
<g>
	<g>
		<path fill="#FFFFFF" d="M41.2,5.3L1,5.3c-0.6,0-1.1,0.1-1,0.2c0,0.1,0.1,0.1,0.2,0.2c0.2,0.3,0.6,0.6,1,1C1.7,7,2.3,7.5,3.1,7.9
			c0.8,0.4,1.7,0.8,2.7,1.2c1,0.4,2.1,0.7,3.3,1c1.2,0.3,2.4,0.6,3.8,0.8c1.3,0.2,2.7,0.4,4.1,0.5c1.4,0.1,2.8,0.1,4.2,0.2
			c1.4,0,2.8-0.1,4.2-0.2c1.4-0.1,2.7-0.3,4.1-0.5c1.3-0.2,2.6-0.5,3.8-0.8c1.2-0.3,2.3-0.7,3.3-1c1-0.4,1.9-0.8,2.7-1.2
			c0.8-0.4,1.4-0.9,1.9-1.2c0.5-0.4,0.8-0.7,1-1c0.1-0.1,0.1-0.1,0.2-0.2C42.2,5.4,41.8,5.3,41.2,5.3z"/>
		<path fill="#FFFFFF" d="M38.6,35.5h-2c-0.6,0-0.8,0-0.3,0s0.8-0.5,0.8-1.2l-0.6-12.5c0-0.6,0.1-1.3,0.4-1.4
			c0.1-0.1,0.3-0.2,0.4-0.3c0.4-0.3,0.7-0.6,0.8-0.8c0.1-0.1,0.1-0.1,0.1-0.2c0.1-0.1,0.1-0.1,0,0c0,0-0.1,0.1-0.2,0.1
			c-0.2,0.2-0.6,0.3-1,0.5c-0.1,0-0.2,0.1-0.3,0.1c-0.2,0.1-0.3-0.4-0.4-1l-0.2-4.8c0-0.6-0.3-1.1-0.5-1.1s-0.3-0.1-0.1-0.1
			c0.1-0.1,0.2-0.1,0.3-0.2c0.6-0.4,1.1-0.7,1.5-1c0.4-0.3,0.7-0.6,0.8-0.8c0.1-0.1,0.1-0.1,0.1-0.2c0.1-0.1,0.1-0.1,0,0
			c0,0-0.1,0.1-0.2,0.1c-0.2,0.2-0.6,0.3-1,0.5c-0.4,0.2-1,0.4-1.6,0.6c-0.6,0.2-1.4,0.4-2.2,0.6c-0.8,0.2-1.7,0.3-2.6,0.5
			c-0.9,0.1-1.9,0.2-3,0.3c-2.1,0.2-4.3,0.3-6.5,0.3c-2.2,0-4.4-0.1-6.5-0.3c-1-0.1-2-0.2-3-0.3c-0.9-0.1-1.8-0.3-2.6-0.5
			c-0.8-0.2-1.5-0.4-2.2-0.6c-0.6-0.2-1.2-0.4-1.6-0.6c-0.4-0.2-0.8-0.4-1-0.5c-0.1,0-0.1-0.1-0.2-0.1c-0.1-0.1-0.1,0,0,0
			c0,0,0.1,0.1,0.1,0.2c0.2,0.2,0.4,0.5,0.8,0.8c0.4,0.3,0.9,0.7,1.5,1c0.1,0.1,0.2,0.1,0.3,0.2c0.2,0.1,0.1,0.2-0.1,0.1
			c-0.3,0-0.5,0.5-0.5,1.1l-0.2,4.8c0,0.6-0.2,1.1-0.4,1c-0.1,0-0.2-0.1-0.3-0.1c-0.4-0.2-0.8-0.4-1-0.5C4.1,19,4,19,4,19
			c-0.1-0.1-0.1,0,0,0c0,0,0.1,0.1,0.1,0.2c0.2,0.2,0.4,0.5,0.8,0.8c0.1,0.1,0.3,0.2,0.4,0.3c0.2,0.2,0.4,0.8,0.4,1.4L5,34.3
			c0,0.6,0.3,1.2,0.8,1.2c0.5,0,0.3,0-0.3,0H3.2c-0.6,0-1.1,0.3-1.1,0.7s0.5,0.7,1.1,0.7H12c0.6,0,1.1-0.3,1.1-0.7s-0.5-0.7-1.1-0.7
			H9.5c-0.6,0-1.1-0.5-1.1-1.1l0.6-11c0-0.6,0.5-1,1.1-0.8c1.3,0.4,2.7,0.7,4.2,1c1.1,0.2,2.2,0.3,3.3,0.4c1.1,0.1,2.3,0.1,3.4,0.1
			c1.2,0,2.3-0.1,3.4-0.1c1.1-0.1,2.2-0.2,3.3-0.4c1.5-0.2,2.9-0.6,4.2-1c0.6-0.2,1.1,0.1,1.1,0.8l0.6,11c0,0.6-0.5,1.1-1.1,1.1
			h-2.8c-0.6,0-1.1,0.3-1.1,0.7s0.5,0.7,1.1,0.7h8.7c0.6,0,1.1-0.3,1.1-0.7C39.7,35.8,39.2,35.5,38.6,35.5z M31.9,21.1
			c-0.4,0.1-0.9,0.1-1.4,0.2c-0.9,0.1-1.9,0.2-3,0.3c-2.1,0.2-4.3,0.3-6.5,0.3c-2.2,0-4.4-0.1-6.5-0.3c-1-0.1-2-0.2-3-0.3
			c-0.5-0.1-0.9-0.1-1.4-0.2c-0.6-0.1-1.1-0.7-1.1-1.3L9.4,15c0-0.6,0.5-1,1.1-0.8c1.2,0.3,2.4,0.6,3.8,0.9c1.1,0.2,2.2,0.3,3.3,0.4
			c1.1,0.1,2.3,0.1,3.4,0.1c1.2,0,2.3-0.1,3.4-0.1c1.1-0.1,2.2-0.2,3.3-0.4c1.3-0.2,2.6-0.5,3.8-0.9c0.6-0.2,1.1,0.2,1.1,0.8
			l0.2,4.8C33,20.3,32.5,20.9,31.9,21.1z"/>
	</g>
</g>
</svg>
