<?xml version="1.0" encoding="utf-8"?>
<!-- Generator: Adobe Illustrator 17.1.0, SVG Export Plug-In . SVG Version: 6.00 Build 0)  -->
<!DOCTYPE svg PUBLIC "-//W3C//DTD SVG 1.1//EN" "http://www.w3.org/Graphics/SVG/1.1/DTD/svg11.dtd">
<svg version="1.1" id="Capa_1" xmlns="http://www.w3.org/2000/svg" xmlns:xlink="http://www.w3.org/1999/xlink" x="0px" y="0px"
	 viewBox="0 0 800 800" enable-background="new 0 0 800 800" xml:space="preserve">
<path fill="#FFFFFF" d="M624.2,361.2h-32.2h-37L565.6,239c14.1-12.1,35.4-36.6,42.2-78.3c14.7-89.4-83.8-154.9-88-157.7
	c-7.1-4.6-16.4-3.9-22.7,1.6c-6.4,5.6-8.2,14.7-4.5,22.4c0.2,0.4,17.4,37.5,0.8,54.2c-8.4,8.4-15.2,12.2-21.8,15.9
	c-15.6,8.7-27.1,17-34.5,45.2c-8.6,33.1,6.5,65,15.6,80.2l-33.9,138.7h-49.5L354.8,204c0,0,0-0.1,0-0.1c-0.1-1.1-0.3-2.2-0.6-3.2
	c-0.1-0.2-0.1-0.4-0.2-0.6c-0.3-0.9-0.6-1.7-1-2.5L286.7,59.2l-0.8-1.7l0,0v0c-0.1-0.2-0.2-0.4-0.3-0.6c-2.2-4.2-5.7-7.3-9.9-8.9
	c-2.6-1-5.4-1.4-8.3-1.2c-0.1,0-0.2,0-0.2,0c-2.7,0.3-5.3,1.1-7.6,2.5c-0.2,0.1-0.4,0.2-0.5,0.3c-0.5,0.3-0.9,0.6-1.3,1
	c-0.3,0.2-0.7,0.4-1,0.7c-0.3,0.2-0.5,0.5-0.7,0.7c-0.4,0.4-0.9,0.8-1.3,1.3c-0.1,0.1-0.2,0.3-0.3,0.4c-0.5,0.6-1,1.2-1.4,1.9
	c0,0.1-0.1,0.2-0.1,0.2c-0.5,0.7-0.9,1.5-1.2,2.3c0,0,0,0.1,0,0.1c-0.4,0.9-0.7,1.7-0.9,2.7l-39.9,152c-0.2,0.8-0.4,1.7-0.5,2.6
	c0,0.2,0,0.4,0,0.6c-0.1,1-0.1,2.1,0,3.1c0,0.1,0,0.2,0,0.3l13.2,141.8h-17.3h-30.2c-10.4,0-18.8,8.4-18.8,18.8s8.4,18.8,18.8,18.8
	h13.6l47.3,384.6c1.2,9.4,9.2,16.5,18.7,16.5h287.2c9.5,0,17.5-7.1,18.7-16.5l47.3-384.6h15.6c10.4,0,18.8-8.4,18.8-18.8
	C643,369.6,634.6,361.2,624.2,361.2z M486.9,241.6l2.8,0.5l37.3,6.1l-9.8,113h-59.5L486.9,241.6z M266.6,148.6l20.1-2.2l20.9,43.6
	l-53.4,5.9L266.6,148.6z M265.5,232.5l37.4-4.2l12.4,132.9h-37.8L265.5,232.5z"/>
</svg>
