<?xml version="1.0" encoding="utf-8"?>
<!-- Generator: Adobe Illustrator 17.1.0, SVG Export Plug-In . SVG Version: 6.00 Build 0)  -->
<!DOCTYPE svg PUBLIC "-//W3C//DTD SVG 1.1//EN" "http://www.w3.org/Graphics/SVG/1.1/DTD/svg11.dtd">
<svg version="1.1" id="Capa_1" xmlns="http://www.w3.org/2000/svg" xmlns:xlink="http://www.w3.org/1999/xlink" x="0px" y="0px"
	 viewBox="0 0 124.3 124.3" enable-background="new 0 0 124.3 124.3" xml:space="preserve">
<g>
	<g>
		<circle fill="#FFFFFF" cx="32.6" cy="32.4" r="11"/>
		<path fill="#FFFFFF" d="M94.1,78.8h-5.3V63.5H75.4v15.4h-2.1V63.5H59.8v23.7h13.5v-3.7h2.1v3.7h13.5v-3.7h2.3l-1.5,6.1H64.9
			c-0.2,0-0.4,0-0.5,0.1h-1.1v0.6c-0.4,0.4-0.7,1-0.7,1.6c0,0.6,0.3,1.2,0.7,1.6v5.2h15.8v-4.5h9.4l-1.5,6.1H58.8l-4.8-26.7
			c0.3-0.5,0.6-1.1,0.6-1.7c0.3-2.3-1.3-4.5-3.7-4.8c-6.7-0.9-10.3-2.1-11.9-4c-1.6-1.9-2.2-5.4-3-10.9c0-0.2-0.1-0.4-0.1-0.6
			c-0.4-3.4-3-6.2-5.8-7.5c0,0-1.1-0.6-2.3-0.8c-1.2-0.2-2.5-0.2-2.5-0.2l0,0c-3.8,0.1-8.3,2.2-9.3,6.7l-5.1,23.8
			c-0.7,3.2,0.7,6,3,8l0,36.8c0,3.2,2.6,5.8,5.8,5.8h0c3.2,0,5.8-2.6,5.8-5.8l0-34.8c2.4-1,4.5-2.8,5.1-5.7l1.9-9
			c3.1,3.6,8.1,5.6,17,6.9l4.9,27.5l1.9,11.6c0.1,0.5,0.4,1,0.7,1.3c-1.5,0.7-2.6,2.3-2.6,4.1c0,2.5,2,4.5,4.5,4.5
			c2.5,0,4.5-2,4.5-4.5c0-1.4-0.6-2.7-1.7-3.5h21.2c-1,0.8-1.7,2.1-1.7,3.5c0,2.5,2,4.5,4.5,4.5s4.5-2,4.5-4.5c0-1.7-1-3.2-2.4-4
			c0.6-0.4,0.9-1.1,0.9-1.8c0-1.3-1-2.3-2.3-2.3H60.7l-1.1-7h29.2c1.1,0,2-0.7,2.2-1.8l5.3-21.4c0.2-0.7,0-1.4-0.4-2
			C95.5,79.1,94.8,78.8,94.1,78.8z"/>
		<rect x="59.3" y="47.1" fill="#FFFFFF" width="23.7" height="13.5"/>
		<rect x="85.3" y="36.9" fill="#FFFFFF" width="13.5" height="23.7"/>
		<path fill="#FFFFFF" d="M61.3,44.2H82c0.9,0,1.6-0.7,1.6-1.6V24.2c0-0.9-0.7-1.6-1.6-1.6H61.3c-0.9,0-1.6,0.7-1.6,1.6v18.4
			C59.8,43.5,60.5,44.2,61.3,44.2z"/>
		<path fill="#FFFFFF" d="M112.6,16.6L92.8,8.9c-0.8-0.3-1.7,0.1-2,0.9l-6.6,16.9c-0.3,0.8,0.1,1.7,0.9,2l19.8,7.7
			c0.8,0.3,1.7-0.1,2-0.9l6.6-16.9C113.8,17.9,113.4,16.9,112.6,16.6z"/>
		<path fill="#FFFFFF" d="M65.7,20.4c0.2,0.6,1,0.9,1.8,0.6l20.3-6.4c0.8-0.3,1.3-0.9,1.2-1.5L85,0.7c-0.2-0.6-1-0.9-1.8-0.6
			L62.9,6.5c-0.8,0.3-1.3,0.9-1.1,1.5L65.7,20.4z"/>
	</g>
</g>
</svg>
