<?xml version="1.0" encoding="utf-8"?>
<!-- Generator: Adobe Illustrator 17.1.0, SVG Export Plug-In . SVG Version: 6.00 Build 0)  -->
<!DOCTYPE svg PUBLIC "-//W3C//DTD SVG 1.1//EN" "http://www.w3.org/Graphics/SVG/1.1/DTD/svg11.dtd">
<svg version="1.1" id="Capa_1" xmlns="http://www.w3.org/2000/svg" xmlns:xlink="http://www.w3.org/1999/xlink" x="0px" y="0px"
	 viewBox="0 0 800 800" enable-background="new 0 0 800 800" xml:space="preserve">
<path fill="#FFFFFF" d="M565,361.5c-18.8-67.3-28.6-138.2-28.6-208.1v0c22.4-13.6,37.2-37.5,37.2-64.6c0-42.3-18-88.8-38.1-88.8
	c-29.1,0-92.9,130-121.4,191.3c-2.6,5.5-8.1,9.1-14.2,9.1c-6.1,0-11.6-3.5-14.2-9.1C357.3,130,293.5,0,264.4,0
	c-20.1,0-38.1,46.5-38.1,88.8c0,27.2,14.9,51,37.2,64.6c0,70.6-9.7,140.1-28.6,208.1c-33.8,121.4-5.3,353.4,3.6,420.1
	c1.4,10.5,10.3,18.4,20.9,18.4h120.8l0-149.3c0-10.9,8.8-19.7,19.7-19.7c10.9,0,19.7,8.8,19.7,19.7l0,149.3h120.8
	c10.6,0,19.5-7.8,20.9-18.4C570.3,714.9,598.9,482.9,565,361.5z"/>
</svg>
