<?xml version="1.0" encoding="utf-8"?>
<!-- Generator: Adobe Illustrator 17.1.0, SVG Export Plug-In . SVG Version: 6.00 Build 0)  -->
<!DOCTYPE svg PUBLIC "-//W3C//DTD SVG 1.1//EN" "http://www.w3.org/Graphics/SVG/1.1/DTD/svg11.dtd">
<svg version="1.1" id="Capa_1" xmlns="http://www.w3.org/2000/svg" xmlns:xlink="http://www.w3.org/1999/xlink" x="0px" y="0px"
	 viewBox="0 0 800 800" enable-background="new 0 0 800 800" xml:space="preserve">
<g>
	<g>
		<path fill="#FFFFFF" d="M597.9,124.6c9.1-5.9,16-12.7,20.5-20.6c11.6-21.7,8.2-45.4-9.2-70.4l-1.1-1.6c-17.6-21.4-38.8-32-59.7-32
			c-39.3,0-72.2,36.3-104,71.5c-15.7,17.4-30.7,33.9-44.5,43.6c-13.8-9.7-28.8-26.2-44.5-43.6C323.7,36.3,290.9,0,251.6,0
			c-20.9,0-42.1,10.6-59.7,32l-1.1,1.6c-17.4,25-20.8,48.6-9.2,70.4c4.5,8,11.5,14.8,20.5,20.6H34.9v160.3H400h365.1V124.6H597.9z
			 M200.9,93c-8-15.4-1.6-33.9,8.3-47c14.2-16,28.1-23.8,42.3-23.8c29.4,0,58.9,32.7,87.4,64.2c12.4,13.7,24.4,27,36.4,37.6
			c-2.4,0.2-5.1,0.3-7.7,0.5h-80.4C242.2,124,210.5,110.1,200.9,93z M441.2,263.3H400h-41.2V154.9H400h41.2V263.3z M512.7,124.6
			h-80.4c-2.6-0.2-5.3-0.4-7.7-0.5c12-10.6,24-23.9,36.4-37.6c28.6-31.5,58-64.2,87.4-64.2c14.2,0,28.1,7.8,42.3,23.8
			c9.8,13.2,16.2,31.6,8.3,47C589.5,110.1,557.8,124,512.7,124.6z"/>
		<polygon fill="#FFFFFF" points="441.2,777.8 400,777.8 358.8,777.8 358.8,308.6 76.9,308.6 76.9,800 400,800 723.1,800 
			723.1,308.6 441.2,308.6 		"/>
	</g>
</g>
</svg>
