<?xml version="1.0" encoding="utf-8"?>
<!-- Generator: Adobe Illustrator 17.1.0, SVG Export Plug-In . SVG Version: 6.00 Build 0)  -->
<!DOCTYPE svg PUBLIC "-//W3C//DTD SVG 1.1//EN" "http://www.w3.org/Graphics/SVG/1.1/DTD/svg11.dtd">
<svg version="1.1" id="Capa_1" xmlns="http://www.w3.org/2000/svg" xmlns:xlink="http://www.w3.org/1999/xlink" x="0px" y="0px"
	 viewBox="0 0 800 800" enable-background="new 0 0 800 800" xml:space="preserve">
<g>
	<g>
		<path fill="#FFFFFF" d="M154.5,248.9c-8.6-8.6-12.9-19.1-12.9-31.5s4.3-22.8,12.9-31.5c8.6-8.6,19.1-13,31.5-13
			c12.3,0,22.8,4.3,31.5,13c8.6,8.6,12.9,19.1,12.9,31.5s-4.3,22.8-12.9,31.5c-8.6,8.6-19.1,12.9-31.5,12.9
			C173.6,261.9,163.1,257.6,154.5,248.9z M97.6,461.2c2.8,2.2,6,3.2,9.7,3.2c3.7,0,6.9-1.1,9.7-3.2c2.8-2.2,4.2-5.7,4.2-10.6V335.9
			v-5.6c0-1.9,0.9-3.1,2.8-3.7c1.8-0.6,3.4-0.9,4.6-0.9c1.2,0,2.8,0.3,4.6,0.9c1.8,0.6,2.8,1.8,2.8,3.7v276.6c0,5.5,2,10.2,6,13.9
			c4,3.7,8.8,5.6,14.3,5.6s10.3-1.9,14.3-5.6c4-3.7,6-8.3,6-13.9V498.7v-61.1c0-3.1,1.2-5.1,3.7-6s4.3-1.4,5.6-1.4s2.9,0.5,5.1,1.4
			c2.2,0.9,3.2,2.9,3.2,6v61.1v108.2c0,5.5,2,10.2,6,13.9c4,3.7,8.8,5.6,14.3,5.6c6.2,0,11.1-1.9,14.8-5.6c3.7-3.7,5.5-8.3,5.5-13.9
			l0.9-276.6c0-1.9,0.9-3.1,2.8-3.7c1.9-0.6,3.4-0.9,4.6-0.9c1.2,0,2.8,0.3,4.6,0.9c1.9,0.6,2.8,1.8,2.8,3.7v5.6v114.7
			c0,4.9,1.4,8.5,4.2,10.6c2.8,2.2,5.9,3.2,9.3,3.2s6.5-1.1,9.2-3.2c2.8-2.2,4.2-5.7,4.2-10.6V322.9c0-12.3-4.2-23.4-12.5-33.3
			c-8.3-9.9-19.6-14.8-33.8-14.8h-50h-0.9h-46.3c-14.2,0-24.5,4.9-31,14.8c-6.5,9.9-9.7,21-9.7,33.3v127.7
			C93.4,455.5,94.8,459.1,97.6,461.2z M577.2,101.4c5.5,5.2,8.3,11.9,8.3,19.9v551.3c0,8-2.8,14.6-8.3,19.9
			c-5.5,5.2-12.3,7.9-20.3,7.9H28.7c-8,0-14.8-2.6-20.4-7.9C2.8,687.2,0,680.6,0,672.6V121.3c0-8,2.8-14.6,8.3-19.9
			s12.3-7.9,20.4-7.9h528.2C564.9,93.5,571.7,96.2,577.2,101.4z M539.3,139.8h-493v514.3h493L539.3,139.8L539.3,139.8z M398.7,261.9
			c12.3,0,22.8-4.3,31.5-12.9c8.6-8.6,12.9-19.1,12.9-31.5s-4.3-22.8-12.9-31.5c-8.6-8.6-19.1-13-31.5-13c-12.3,0-22.8,4.3-31.5,13
			c-8.6,8.6-12.9,19.1-12.9,31.5s4.3,22.8,12.9,31.5C375.9,257.6,386.3,261.9,398.7,261.9z M310.3,461.2c2.8,2.2,6,3.2,9.7,3.2
			s6.9-1.1,9.7-3.2c2.8-2.2,4.2-5.7,4.2-10.6V335.9v-5.6c0-1.9,0.9-3.1,2.8-3.7c1.9-0.6,3.4-0.9,4.6-0.9s2.8,0.3,4.6,0.9
			c1.9,0.6,2.8,1.8,2.8,3.7v276.6c0,5.5,2,10.2,6,13.9c4,3.7,8.8,5.6,14.3,5.6c5.6,0,10.3-1.9,14.3-5.6c4-3.7,6-8.3,6-13.9V498.7
			v-61.1c0-3.1,1.2-5.1,3.7-6c2.5-0.9,4.3-1.4,5.5-1.4s3.1,0.5,5.5,1.4c2.5,0.9,3.7,2.9,3.7,6v61.1v108.2c0,5.5,1.8,10.2,5.5,13.9
			c3.7,3.7,8.6,5.6,14.8,5.6c5.6,0,10.3-1.9,14.3-5.6c4-3.7,6-8.3,6-13.9V330.3c0-1.8,0.9-3.1,2.8-3.7c1.9-0.6,3.4-0.9,4.6-0.9
			c1.2,0,2.8,0.3,4.6,0.9c1.9,0.6,2.8,1.9,2.8,3.7v5.6v114.7c0,4.9,1.4,8.5,4.2,10.6s6,3.2,9.7,3.2c3.7,0,6.9-1.1,9.7-3.2
			c2.8-2.2,4.2-5.7,4.2-10.6V322.9c0-12.3-4.3-23.4-12.9-33.3c-8.6-9.9-20-14.8-34.2-14.8h-49h-0.9h-0.9h-45.3
			c-14.2,0-24.7,4.9-31.5,14.8c-6.8,9.9-10.2,21-10.2,33.3v127.7C306.2,455.5,307.6,459.1,310.3,461.2z M791.7,592.3
			c-16,0-41.5,0-41.5,0s0-6.9,0-17.5c0-32.7,0-96.4,0-120.8c0,0,0.2-5.7-7.2-5.7c-7.4,0-52.8,0-63.1,0c-10.4,0-8.5,6.8-8.5,6.8
			c0,25.1,0,86.6,0,120.5c0,11.8,0,19.5,0,19.5s-31.7,0-44.9,0c-13.1,0-1,11.4-1,11.4l79.6,96.2c0,0,6.5,7.6,13.4,0.8
			c9.4-9.4,77.1-99.3,77.1-99.3S807.7,592.3,791.7,592.3z M628.7,216.4c16,0,41.5,0,41.5,0s0,6.9,0,17.5c0,32.7,0,96.4,0,120.8
			c0,0-0.2,5.7,7.2,5.7c7.4,0,52.8,0,63.1,0c10.4,0,8.5-6.8,8.5-6.8c0-25.1,0-86.6,0-120.5c0-11.8,0-19.5,0-19.5s31.7,0,44.9,0
			c13.1,0,1-11.4,1-11.4l-79.6-96.2c0,0-6.5-7.6-13.4-0.8c-9.4,9.4-77.1,99.3-77.1,99.3S612.8,216.4,628.7,216.4z"/>
	</g>
</g>
</svg>
