<?xml version="1.0" encoding="utf-8"?>
<!-- Generator: Adobe Illustrator 17.1.0, SVG Export Plug-In . SVG Version: 6.00 Build 0)  -->
<!DOCTYPE svg PUBLIC "-//W3C//DTD SVG 1.1//EN" "http://www.w3.org/Graphics/SVG/1.1/DTD/svg11.dtd">
<svg version="1.1" id="Capa_1" xmlns="http://www.w3.org/2000/svg" xmlns:xlink="http://www.w3.org/1999/xlink" x="0px" y="0px"
	 viewBox="0 0 93.1 93.1" enable-background="new 0 0 93.1 93.1" xml:space="preserve">
<g>
	<g>
		<path fill="#FFFFFF" d="M36,25.4c-6.5,0-11.8,5.3-11.8,11.8v12.4h54.3V37.3c0-6.5-5.3-11.8-11.8-11.8H36z M69.4,37.1H33.3
			c0,0-1-6.8,5.3-6.8h25.5C70.7,30.3,69.4,37.1,69.4,37.1z"/>
		<path fill="#FFFFFF" d="M9.2,14.7c-3.9,3.9-4,9.5-4,9.7v38.7c0,3.5,1.6,6.9,4.3,9.1l14.6,12l0-0.4v6.5c0,1.6,1.3,2.8,2.8,2.8h48.7
			c1.6,0,2.8-1.3,2.8-2.8V54.6H58.5V59c0,1.1-0.9,2-2,2h-8.3c-1.1,0-2-0.9-2-2v-4.3H24.2v22.6L13,68c-1.5-1.2-2.3-3-2.3-4.9V24.4
			c0-0.1,0-2.2,1.2-4.3c1.4-2.5,3.8-3.8,7.4-3.8c6.6,0,24.8,0,40.1-0.1c0.8,1,2,1.6,3.3,1.6h16.4v5.7c0,0.9,0.5,1.7,1.3,1.9l6.1,1.6
			c0.7,0.2,1.4-0.4,1.4-1.3V1.3c0-0.9-0.7-1.5-1.4-1.3l-6.1,1.6c-0.8,0.2-1.3,1-1.3,1.9v5.9H62.7c-1.3,0-2.5,0.6-3.2,1.5
			c-15.3,0-33.6,0.1-40.2,0.1C15.1,10.9,11.7,12.2,9.2,14.7z M41.1,76.8c0.8-0.8,2-0.8,2.8,0l6.8,6.8c0.8,0.8,0.8,2,0,2.8
			c-0.4,0.4-0.9,0.6-1.4,0.6s-1-0.2-1.4-0.6l-6.8-6.8C40.3,78.9,40.3,77.6,41.1,76.8z M31.3,76.8c0.8-0.8,2-0.8,2.8,0l6.8,6.8
			c0.8,0.8,0.8,2,0,2.8C40.5,86.8,40,87,39.5,87c-0.5,0-1-0.2-1.4-0.6l-6.8-6.8C30.5,78.9,30.5,77.6,31.3,76.8z"/>
	</g>
</g>
</svg>
