<?xml version="1.0" encoding="utf-8"?>
<!-- Generator: Adobe Illustrator 17.1.0, SVG Export Plug-In . SVG Version: 6.00 Build 0)  -->
<!DOCTYPE svg PUBLIC "-//W3C//DTD SVG 1.1//EN" "http://www.w3.org/Graphics/SVG/1.1/DTD/svg11.dtd">
<svg version="1.1" id="Capa_1" xmlns="http://www.w3.org/2000/svg" xmlns:xlink="http://www.w3.org/1999/xlink" x="0px" y="0px"
	 viewBox="0 0 125 125" enable-background="new 0 0 125 125" xml:space="preserve">
<g>
	<g>
		<path fill="#FFFFFF" d="M46.9,72.3c-0.5-0.4-4.9-3.7-16.9-4.5c-0.7-0.1-1.3-0.5-1.9-0.9c-0.7-0.5-1.5-1-2.1-1.7
			c-0.9-1.1-2-2-2.8-3.2c-5.8-8.1-11.6-9.8-12.4-10.1c-1.1-0.5-5.5,0.1-3.4,3c0.1,0,6.7,9.2,7.1,10c0.8,1.3,1.6,1.8,2.4,2.7
			c0.7,0.8,1.5,1.6,2.3,2.4c0,0-4.2-2.5-5.2-3.6c-0.4-0.5-0.7-1.2-1-1.8c-0.4-0.7-0.9-1.3-1.3-2c-0.6-0.8-1.1-1.6-1.7-2.4
			c-0.8-1-1.5-2-2.3-2.9c-0.5-0.6-1-1.2-1.4-1.8c-2-3.1,0.3-5,2.4-5.2C8.4,50,7.4,40.5,7.3,38.9c-0.5-4.6-1-7.9-3.6-8.9
			C3,29.8,2.5,29.9,2,30.4c-0.6,0.6-0.9,3.9-1.1,6c0,0-1.1,11.2-0.9,16.5c0.1,2.8,8.9,22.2,11.4,25.1c2.5,3,22.1,14.3,22.1,14.3
			c0.7,0.5,4.3,3.3,4.3,7v8l21.2,0l0-7.3c0-1.4,0.3-2.7,0.4-4c0.5-1.5,0.1-4.4-0.1-5.6C56.9,79.5,47.9,73,46.9,72.3z"/>
		<path fill="#FFFFFF" d="M124.1,36.5c-0.2-2.1-0.5-5.4-1.1-6c-0.5-0.5-1-0.6-1.7-0.4c-2.6,0.9-3.1,4.3-3.6,8.9
			c-0.2,1.6-1.2,11-1.3,11.4c2.2,0.2,4.4,2.1,2.4,5.2c-0.4,0.6-0.9,1.2-1.4,1.8c-0.8,1-1.6,1.9-2.3,2.9c-0.6,0.8-1.2,1.6-1.7,2.4
			c-0.4,0.6-0.9,1.3-1.3,2c-0.4,0.6-0.6,1.3-1,1.8c-1,1.1-5.2,3.6-5.2,3.6c0.7-0.8,1.6-1.6,2.3-2.4c0.8-0.9,1.6-1.4,2.4-2.7
			c0.4-0.7,7-9.9,7.1-10c2.1-2.9-2.3-3.6-3.4-3c-0.9,0.3-6.6,2-12.4,10.1c-0.9,1.2-1.9,2.1-2.8,3.2c-0.6,0.7-1.3,1.2-2.1,1.7
			c-0.6,0.4-1.3,0.9-1.9,0.9c-12,0.8-16.3,4.1-16.9,4.5c-1,0.8-10,7.2-12.5,18.2c-0.2,1.1-0.6,4-0.1,5.6c0.2,1.3,0.4,2.7,0.4,4
			l0,7.3l21.2,0v-8c0-3.7,3.6-6.5,4.3-7c0,0,19.6-11.3,22.1-14.3c2.5-3,11.2-22.3,11.4-25.1C125.3,47.7,124.1,36.5,124.1,36.5z"/>
		<circle fill="#FFFFFF" cx="51.2" cy="27.1" r="9.4"/>
		<circle fill="#FFFFFF" cx="73.9" cy="29.3" r="9.2"/>
		<path fill="#FFFFFF" d="M73.2,71.9c1.1-1,2.1-1.8,3-2.5l0.1-0.1c1-0.8,3.4-2.3,7.8-3.5l-0.8-5.5v-5.3c1,2.5,1.9,5.8,2.6,10.5
			c2-0.4,4.3-0.8,7-1.1c-2.1-13.1-5.4-19-12.9-23.6c-0.2-0.1-2.6-1.4-3.8-1.7L74,41.3L71.8,39c0,0,0,0,0,0c-1.7,0.4-5.8,3-7.9,5.1
			c-1.7-2-3.8-3.7-6.3-5.3c-0.2-0.1-2.7-1.5-3.9-1.7l-2.3,2.4L49,37c0,0,0,0,0,0c-1.6,0.6-3.1,1.4-4.8,2.5
			c-7.1,4.8-10.2,11.1-12.3,24.8c2.8,0.3,5.2,0.6,7.2,1.1c0.7-4.7,1.5-8.2,2.5-10.9V66c0,0,0,0,0,0c4,1.2,6.1,2.5,7.1,3.3l0.1,0.1
			c0.9,0.7,1.9,1.5,3,2.5c2.9-6.5,8.4-7.7,9.2-7.9c0,0,0,0,0,0l1.5,1.6l1.5-1.6c0,0,0,0,0,0C64.8,64.1,70.3,65.4,73.2,71.9z
			 M62.5,63.6c-3.5,0-6.3-2.9-6.3-6.4c0-3.5,2.8-6.3,6.3-6.4c3.5,0,6.3,2.9,6.3,6.4C68.8,60.7,66,63.6,62.5,63.6z"/>
	</g>
</g>
</svg>
