<?xml version="1.0" encoding="utf-8"?>
<!-- Generator: Adobe Illustrator 17.1.0, SVG Export Plug-In . SVG Version: 6.00 Build 0)  -->
<!DOCTYPE svg PUBLIC "-//W3C//DTD SVG 1.1//EN" "http://www.w3.org/Graphics/SVG/1.1/DTD/svg11.dtd">
<svg version="1.1" id="Capa_1" xmlns="http://www.w3.org/2000/svg" xmlns:xlink="http://www.w3.org/1999/xlink" x="0px" y="0px"
	 viewBox="0 0 571.3 571.3" enable-background="new 0 0 571.3 571.3" xml:space="preserve">
<g>
	<path fill="#FFFFFF" d="M159.9,176.9c0,26.3-21.3,47.6-47.6,47.6c-26.3,0-47.6-21.3-47.6-47.6s21.3-47.6,47.6-47.6
		C138.5,129.3,159.9,150.6,159.9,176.9z M411.5,176.9c0,26.3,21.3,47.6,47.6,47.6c26.3,0,47.6-21.3,47.6-47.6s-21.3-47.6-47.6-47.6
		C432.8,129.3,411.5,150.6,411.5,176.9z M146.3,394.5V281.9c0-20.4-16.6-37-37-37h-0.7c-20.4,0-37,16.6-37,37v119.4
		c0,22.5,18.3,40.8,40.8,40.8h61.2c7.5,0,13.6,6.1,13.6,13.6v95.2c0,11.3,9.1,20.4,20.4,20.4h6.8c11.3,0,20.4-9.1,20.4-20.4V435.3
		c0-22.5-18.3-40.8-40.8-40.8L146.3,394.5L146.3,394.5z M462.8,244.9h-0.7c-20.4,0-37,16.6-37,37v112.6h-47.6
		c-22.5,0-40.8,18.3-40.8,40.8v112.4c0,13,10.5,23.6,23.6,23.6h0.5c13,0,23.6-10.5,23.6-23.6v-92c0-7.5,6.1-13.6,13.6-13.6h61.2
		c22.5,0,40.8-18.3,40.8-40.8V281.9C499.9,261.5,483.3,244.9,462.8,244.9z M397.9,346.9v-20.4c0-3.8-3-6.8-6.8-6.8H180.3
		c-3.8,0-6.8,3-6.8,6.8v20.4c0,3.8,3,6.8,6.8,6.8h210.8C394.8,353.7,397.9,350.7,397.9,346.9z M267.3,0c-49.6,0-89.8,31.8-89.8,71
		c0,23.4,14.3,44,36.3,57c-2.2,11.8-9,25.7-18.6,35.3c23.4-1.7,44-8.5,57.5-22.3c4.7,0.6,9.6,1,14.5,1c49.6,0,89.8-31.8,89.8-71
		S316.9,0,267.3,0z M225.2,85.1c-7.7,0-14-6.3-14-14s6.3-14,14-14s14,6.3,14,14S233,85.1,225.2,85.1z M267.3,85.1
		c-7.7,0-14-6.3-14-14s6.3-14,14-14c7.7,0,14,6.3,14,14S275,85.1,267.3,85.1z M309.4,85.1c-7.7,0-14-6.3-14-14s6.3-14,14-14
		s14,6.3,14,14S317.1,85.1,309.4,85.1z"/>
</g>
</svg>
