<?xml version="1.0" encoding="utf-8"?>
<!-- Generator: Adobe Illustrator 17.1.0, SVG Export Plug-In . SVG Version: 6.00 Build 0)  -->
<!DOCTYPE svg PUBLIC "-//W3C//DTD SVG 1.1//EN" "http://www.w3.org/Graphics/SVG/1.1/DTD/svg11.dtd">
<svg version="1.1" id="Capa_1" xmlns="http://www.w3.org/2000/svg" xmlns:xlink="http://www.w3.org/1999/xlink" x="0px" y="0px"
	 viewBox="0 0 800 800" enable-background="new 0 0 800 800" xml:space="preserve">
<g>
	<g>
		<path fill="#FFFFFF" d="M614.2,371.2c-16-13.2-36.2-21.4-57.3-21.4c-1,0-2.1,0-3.1,0c-15.4,0.4-30.4,4.2-43.8,11.6
			c-18.6,9.6-32.6,25.8-40.7,44.7c44.9-0.9,88.9-1.8,138.9-2.6c2.2,0,4.4-0.1,6.6-0.2c-1.3-5.6-2-11.3-2-17.3
			C612.8,380.9,613.3,376,614.2,371.2L614.2,371.2z"/>
		<path fill="#FFFFFF" d="M622.7,379c-0.2,2.3-0.4,4.7-0.4,7c0,21.7,10.4,40.9,26.4,53C648.1,416.3,638.1,395,622.7,379L622.7,379z"
			/>
		<path fill="#FFFFFF" d="M152.2,321.6c-36.7,0-66.4,29.7-66.4,66.4s29.7,66.4,66.4,66.4s66.4-29.7,66.4-66.4
			S188.8,321.6,152.2,321.6z M152.2,436.3c-26.7,0-48.3-21.6-48.3-48.3s21.6-48.3,48.3-48.3c26.7,0,48.2,21.6,48.2,48.3
			C200.4,414.7,178.8,436.3,152.2,436.3z"/>
		<path fill="#FFFFFF" d="M752.4,383.8c0.8,0.6,1.7,1.1,2.6,1.4c-0.2-16.5-6.4-31.5-16.6-43c-0.7,0.7-1.3,1.5-2,2.2
			C741.6,356.6,748.6,370.2,752.4,383.8z"/>
		<path fill="#FFFFFF" d="M738.5,342.1L738.5,342.1L738.5,342.1z"/>
		<path fill="#FFFFFF" d="M798.7,352.1c-0.3-14.8,0-29.5-1-44.2c-0.4-5.8-0.5-12.5-2-17.4c-0.5-1.7-2.2-3.4-3.4-4.8
			c-1.1-1.3-3.2-1.5-3.4-3.2c-0.7-6.3-0.7-13-1-19.4c-0.2-4.2,0-8.4-0.3-12.6c0,0.3-0.1,0.6-0.2,0.8c-0.4,1.4-2,2.1-2.6,3.4
			c-0.7,1.3-1.1,2.9-1.4,4.4c-0.5,2.9-0.5,5.9-0.4,8.9c0.1,3.1,1,6.1,1.2,9.2c0.2,2,0.9,4.1,0.2,5.9c-0.6,1.3-2,2.3-3.4,2.8
			c-2.6,1.1-5.7,1-8.6,0.6c-2.9-0.4-5.9-1.3-8.4-2.8c-5-3-8.7-7.8-12.8-11.9c-6.7-6.8-13.5-13.5-19.2-21.2c-1.5-1.9-3.4-3.8-3.8-6.2
			c-0.4-2.1,0.1-4.5,1.3-6.2c2.4-3.3,6.7-4.6,10.4-6.4c4.3-2.1,8.9-3.8,13.6-4.9c3.4-0.8,6.9-1,10.4-1c3.4,0,6.8-0.1,10,0.8
			c3,0.8,6,2,8.2,4.2c0.3,0.3,0.6,0.6,0.8,1c-2.2-5.1-5.4-9.6-8.6-14.2c-0.6-0.2-7.6-2.8-11.5-3.8c-2.8-0.7-8-0.6-8-0.6
			s-6.8-9.8-10.6-14.4c-4.6-5.6-9.4-11-14.6-16c-5.6-5.5-11.6-10.7-18-15.4c-6.2-4.7-19.6-12.8-19.6-12.8l11-5.4
			c-1.6-1.8,0.6-6.5-1.1-8.6c-1.3-1.6-3.5-1.6-6.2-1.6c-7.4-0.2-14.3-0.6-21.6-1c-9.4-0.6-18.8-2.1-28.2-3.4c-9.3-1.2-18.5-3-27.8-4
			c-19.3-2.1-38.6-3.4-58-4.4c-21.2-1-42.5-0.7-63.8-1.4c-7.9-0.3-15.9-0.6-23.8-1c-7-0.4-14-1.5-21.1-1.4v0
			c-1.3,1.9-2.8,2.8-4.5,3.4c-5.6,1.9-10.7,2.8-17.2,3.6c-10,1.2-20.8,3.3-30.6,5.4c-12.6,2.7-24.9,6.4-37.2,10.4
			c-11.1,3.6-22.1,7.6-32.8,12.1c-10.2,4.3-20.3,9.1-30.2,14.1c-8.4,4.3-16.7,8.9-24.8,13.8c-8.3,5-16.5,10.2-24.5,15.8
			c-9.1,6.3-18,13-26.8,19.8c-5.1,3.9-10.3,7.8-15.1,12.1c-3.3,2.9-3,3.3-7.2,6.2c-3.3,2.2-7.2,1.9-10.9,0.2
			c-3.7-1.7-9.8-5.4-9.8-5.4s7.3-5.5,13-9.4c-0.1,0-0.3,0.1-0.4,0.1c-3.7,0.5-8.4-0.9-12-1.4c-2.2-0.3-4.5-0.4-6.8-0.3
			c-4.9,0.3-9.6,1.4-14.4,2.4c-23.5,4.7-47.1,9.7-70.1,16.4c-16.6,4.8-33,10.4-49,17.1c-5.3,2.2-10.7,4.5-15.4,7.8
			c-4.4,3-8.4,6.6-11.8,10.7c-3.1,3.9-5.3,8.6-7.4,13.1c-2,4.2-4.1,8.5-5,13c-1.4,7.1-0.7,14.5-0.7,21.8c0,7.8,0.3,15.7,1,23.5
			c0.8,8,2,14.9,2.3,23c0.1,1.7,0,4.4-0.6,6c-0.5,1.2-0.6,1.4-1,2.6c-0.3,1.1,0.2,2.3,0.6,3.4c1.1,2.5,2.8,4.8,4.7,6.7
			c1,1,2.4,1.4,3.4,2.4c1.4,1.4,2.3,3.3,3.7,4.7c3,3,6.3,5.8,10,7.7c5.3,2.8,11.3,4.1,17.1,5.4c6.3,1.4,12.7,2.1,19.2,2.6
			c4.5,0.4,8.2,0.8,13.4,0.4c3.7-0.1,3.1,0,6.4-0.1c-2.7-7.8-4.2-16.3-4.2-25c0-41.9,34-75.9,76-75.9s75.9,34,75.9,75.9
			c0,7.7-1.2,15.2-3.3,22.2c2.4,0,1.9,0,4.5,0c28.9-0.4,54.8-0.8,79.4-1.2c0.2-7.2,0.6-14.3,1.2-21.4c14.7-5.3,31.3-1.5,46.8-2.4
			c5-12.4,9.7-27.1,16.8-39.4c-0.5-6.1-9.7-8-12.6-13.5c-5.3-8.7-21.3-13.9-17-26.2c24.9-23.7,47.9-49.9,73.8-72.5
			c-1.9,0.1-4,0.2-5.5,0.4c-23,1.7-45.9,4.1-68.8,6.7c-8.6,1-24.5,2.2-24.5,2.2s0.1-6.3-0.8-9.2c-0.9-3-4.4-8.2-4.4-8.2l13.2-53.2
			c0,0,14.9-6.5,22.5-9c11.9-4,24-7.2,36.2-10c12.3-2.9,24.7-5.5,37.2-7.4c9.8-1.5,19.6-2.2,29.5-3c5.9-0.5,17.8-1,17.8-1
			s-5.3,29.6-8.7,44.2c-3.5,15.4-12.1,46-12.1,46s-12.4,0.6-24.1,1.2c11.7,7.4,20.1,19.9,30.6,29c12.2-5.3,25.7-12.2,39.2-15.8
			c3-5.4,1-14.2,1.4-20.8c1-8.9-3.1-21.2,4.1-27.6c0.2,0,0.4,0,0.6,0l5.6-56.2c0,0,15.5,0,23.3,0.4c11.2,0.5,22.4,1.4,33.6,2.4
			c11.4,1,22.8,2.1,34.2,3.7c8.3,1.2,16.9,2.6,24.6,4.4c1.9,0.4,4.5,1.6,4.6,3.5c0.4,11.8,0.5,22.9,0.6,34.4
			c0.1,12.2,0.2,36.7,0.2,36.7s-8.4,0-14.5,0.1c-0.2,6.1-0.5,12.3-0.2,18.2c12.2,5.2,27,9.3,39,16.8c6.5-0.3,8.4-9.6,14-12.4
			c8.6-5.4,13.9-21.4,26.2-17c24.7,26,52.1,49.8,75.4,77.2c-4.9,10.4-14.1,18-22.6,25.9c11.8,13.2,19.1,30.5,19.3,49.6
			c3.5-0.5,7.1-1.1,10.3,0c1.8,0.3,4,0.2,6.2,0c0.6-0.5,1.2-1,1.8-1.4c4-3.3,7.7-7.1,11-11c2.1-2.5,4.8-4.9,5.7-8
			C800.8,360.6,798.9,361.5,798.7,352.1L798.7,352.1z M104.2,264c-4.6,4.7-10.2,8.3-15.4,12.4c-7.2,5.7-14.2,11.9-21.8,17.1
			c-3.3,2.2-6.7,4.5-10.4,6c-3.3,1.3-6.9,1.8-10.4,2.4c-6.5,1-13.1,1.4-19.8,1.4c-2.4,0-5.1,0.6-7-0.6c-1.3-0.8-1.4-2.9-2.4-4
			c-1.5-1.8-3.5-3.3-5.4-4.7c-1.1-0.8-3.1-0.7-3.4-2c-0.7-3.8,4.7-6.2,7.4-9c2.5-2.6,4.7-6,8-7.4c1.6-0.6,3.4,0.4,5,0
			c4.1-1,7.5-4,11.4-5.7c4.9-2.1,10-3.7,15.1-5.4c5.1-1.7,10.2-3.5,15.4-4.7c4.6-1.1,9.3-1.8,14-2.4c4-0.5,8.1-0.8,12.1-1
			c2-0.1,4.1-0.6,6-0.7c1.2,0,2.3,0.1,3.4,0.7c1,0.6,1.7,1.9,1.6,3C107.7,261.2,105.6,262.5,104.2,264L104.2,264z M307.2,220.2
			c0,0-5.5-1.3-8.2-1c-2.3,0.2-6.5,1.6-9.6,3.2c-2.7,1.4-5.9,3.4-8.2,5.4c-2.5,2.1-5.4,5.7-6.6,8.8c-1.7,4.4,0,12.7,0,12.7
			s-6.6,0.6-10.9,1c-4.2,0.4-12.8,1-12.8,1s4.1-17.2,7-25.5c2-5.6,7-16.4,7-16.4s6.2-6.1,9.7-8.7c6.6-5,13.9-9.3,21.2-13.4
			c7.6-4.3,23.4-11.8,23.4-11.8C315.9,190,310.8,205.6,307.2,220.2L307.2,220.2z M719,211.3c-9.5,4.5-20.1,6.2-30.4,8.6
			c-9.8,2.3-29.6,5.4-29.6,5.4l-11.8-66.8c0,0,10.9,2.6,16.1,4.6c7.3,2.7,14.6,5.8,21.3,9.7c8.4,4.9,16.3,10.9,23.6,17.3
			c5,4.4,10.2,8.8,13.8,14.4C725.2,209.4,723.6,209.2,719,211.3L719,211.3z"/>
		<path fill="#FFFFFF" d="M720.2,342.6c10.8-10.7,21.5-21.4,32.3-32.2c-21.5-21.5-43-43-64.6-64.5c-10.7,10.8-21.9,21.5-32.5,32.4
			c-17.2-10.3-36.2-18-55.4-22.8c0-15.2,0-30.8,0-45.2c-30.4,0-60.8,0-91.2,0c0,12.8,0,26.6,0,40.2c-1.6,9.7-14.7,7.2-21.6,11.7
			c-11.5,4.3-22.4,9.7-33.1,16c-10.7-10.9-21.4-21.6-32.2-32.4c-21.5,21.5-43,43-64.5,64.5c10.8,10.7,21.5,21.5,32.4,32.1
			c-10.3,17.1-18,35.8-22.9,55c-15.2,0-31,0-45.4,0c0,30.4,0,60.8,0,91.2c14.4,0,30.2,0,45.4,0c5,19.2,12.5,38.1,22.8,55.2
			c-10.8,10.8-21.5,21.6-32.3,32.4c21.5,21.5,43,43.1,64.5,64.6c10.7-10.8,21.3-21.5,32-32.3c17.2,10.2,35.6,17.9,54.8,22.8
			c0,15.2,0,30.1,0,46.1c30.4,0,60.8,0,91.2,0c0-16,0-30.9,0-46.1c19.2-4.9,38.2-12.6,55.4-22.8c10.7,10.8,21.7,21.5,32.4,32.3
			c21.5-21.5,43.1-43,64.6-64.6c-10.8-10.8-21.5-21.7-32.3-32.4c10.3-17.2,17.9-36,22.8-55.2c15.2,0,29.8,0,45.8,0
			c0-30.4,0-60.8,0-91.2c-16,0-30.6,0-45.8,0C738.1,378.4,730.4,359.8,720.2,342.6L720.2,342.6z M580.1,547.1
			c-46.8,11.7-99.5-12.4-120.3-55.8c-22.6-43.8-9.7-102.9,30.2-132.1c18.5-14.2,41.6-22.3,65-22.2c53.9-1.3,103.2,44.5,106.2,98.3
			C665.7,485.9,629.5,536,580.1,547.1L580.1,547.1z"/>
	</g>
</g>
</svg>
