<?xml version="1.0" encoding="utf-8"?>
<!-- Generator: Adobe Illustrator 17.1.0, SVG Export Plug-In . SVG Version: 6.00 Build 0)  -->
<!DOCTYPE svg PUBLIC "-//W3C//DTD SVG 1.1//EN" "http://www.w3.org/Graphics/SVG/1.1/DTD/svg11.dtd">
<svg version="1.1" id="Capa_1" xmlns="http://www.w3.org/2000/svg" xmlns:xlink="http://www.w3.org/1999/xlink" x="0px" y="0px"
	 viewBox="0 0 45.9 45.9" enable-background="new 0 0 45.9 45.9" xml:space="preserve">
<g>
	<g>
		<path fill="#FFFFFF" d="M41.9,25.9l-3.5-0.6v-1.6c0-3.9-2.7-6.8-6.3-6.8H14.4c-3.7,0-6.8,3-6.8,6.8v1.6l-3.6,0.6
			c-0.4,0.1-0.8,0.5-0.8,0.9v0.9c0,0.5,0.4,0.9,0.9,0.9h1C5,29,4.8,29.5,4.8,29.9v7.7c0,1.2,0.8,2.2,1.9,2.5V45
			c0,0.5,0.4,0.9,0.9,0.9h4.2c0.5,0,0.9-0.4,0.9-0.9v-4.8h20.7V45c0,0.5,0.4,0.9,0.9,0.9h4.2c0.5,0,0.9-0.4,0.9-0.9v-5
			c1-0.4,1.6-1.3,1.6-2.4v-7.7c0-0.5-0.1-0.9-0.4-1.4h0.8c0.5,0,0.9-0.4,0.9-0.9v-0.9C42.6,26.3,42.3,25.9,41.9,25.9z M11.1,23.7
			c0-1.8,1.5-3.3,3.3-3.3h5.2c0,0,0,0,0,0.1V22c0,0.3,0.2,0.5,0.5,0.5h5.4c0.3,0,0.5-0.2,0.5-0.5v-1.5c0,0,0-0.1,0-0.1h6
			c2,0,2.9,1.7,2.9,3.3v2.7H11.1V23.7z M12.8,35.9c-1,0-1.8-0.8-1.8-1.8c0-1,0.8-1.8,1.8-1.8c1,0,1.8,0.8,1.8,1.8
			S13.8,35.9,12.8,35.9z M28.3,35.8H17.8c-1,0-1.7-0.8-1.7-1.7c0-1,0.8-1.7,1.7-1.7h10.5c1,0,1.7,0.8,1.7,1.7
			C30,35,29.3,35.8,28.3,35.8z M31.5,34.1c0-1,0.8-1.8,1.8-1.8s1.8,0.8,1.8,1.8s-0.8,1.8-1.8,1.8C32.3,35.9,31.5,35.1,31.5,34.1z"/>
		<path fill="#FFFFFF" d="M33.5,0c-2.6,0-4.9,1.5-6.1,3.7h-1.6c-0.2,0-0.4,0-0.5,0.1L23.3,5c-0.2,0.2-0.5,0.1-0.8,0l-1.8-1.2
			c-0.2-0.2-0.5-0.2-0.8,0L18.1,5c-0.2,0.2-0.6,0.2-0.8,0l-1.9-1.1c-0.3-0.2-0.6-0.2-0.8,0l-1.3,0.8c-0.2,0.1-0.5,0.1-0.7,0
			l-1.3-0.8c-0.1-0.1-0.3-0.1-0.4-0.1H8.9C7,3.7,5.5,5.1,5.5,7c0,1.7,1.4,3,3.2,3h18.7c1.2,2.2,3.5,3.7,6.1,3.7c3.8,0,6.9-3,6.9-6.9
			C40.4,3,37.3,0,33.5,0z M35.4,9.1c-1.2,0-2.2-1-2.2-2.2c0-1.2,1-2.2,2.2-2.2s2.2,1,2.2,2.2S36.6,9.1,35.4,9.1z"/>
	</g>
</g>
</svg>
