<?xml version="1.0" encoding="utf-8"?>
<!-- Generator: Adobe Illustrator 17.1.0, SVG Export Plug-In . SVG Version: 6.00 Build 0)  -->
<!DOCTYPE svg PUBLIC "-//W3C//DTD SVG 1.1//EN" "http://www.w3.org/Graphics/SVG/1.1/DTD/svg11.dtd">
<svg version="1.1" id="Capa_1" xmlns="http://www.w3.org/2000/svg" xmlns:xlink="http://www.w3.org/1999/xlink" x="0px" y="0px"
	 viewBox="0 0 800 800" enable-background="new 0 0 800 800" xml:space="preserve">
<g>
	<g>
		<path fill="#FFFFFF" d="M790.7,321c-5-43.8-122.8,0-122.8,0l-6.9,62.3c-2.6-1.5-5.2-2.9-7.9-4.1l-29.8-129.8
			c-10.9-61.8-57.6-107.3-125.6-105H323c-1.1,7.3-2.8,14.3-4.9,21.1h191.4c39.7,0,76.1,25.5,86,67.7l32,128.2c-2-0.1-4-0.3-6-0.3
			H250.9l0.1,125h229.6v27.9H251l0,8.2h227.2v28H251.1l0.1,105h245.1v66.5c0,27,33.4,49,74.6,49c41.2,0,74.6-21.9,74.6-49v-74.2
			c35.2-13.3,59.7-42.4,59.7-76.3v-119c0-26.3-14.8-49.7-37.8-65.1l123.4-6.7C790.7,380.4,795.6,364.7,790.7,321z M649.3,548H514.7
			v-64h134.7L649.3,548L649.3,548z"/>
		<rect x="247.6" y="522.1" fill="#FFFFFF" width="3.4" height="28"/>
		<rect x="250" y="486" fill="#FFFFFF" width="1.1" height="27.9"/>
		<path fill="#FFFFFF" d="M296.5,125.4C296.4,71.7,267.2,24.9,223.7,0v115.9l-71.9,41.5l-72-41.7V0C36.4,24.9,7.1,71.7,7.1,125.4
			c0,56.3,32.3,105.1,79.3,129.1v0.6v476.6c0,18.9,7.6,35.9,20,48.3c12.4,12.4,29.4,19.9,48.3,20c37.6,0,68.1-30.5,68.3-68.3
			l-0.3-480.2C266.8,226.7,296.5,179.5,296.5,125.4z M169.8,761.9c-10.2,10.2-26.7,10.2-37,0c-10.1-10.1-10.1-26.6,0.1-36.8
			c10.2-10.2,26.7-10.2,36.8-0.1C179.9,735.3,180,751.7,169.8,761.9z"/>
	</g>
</g>
</svg>
