<?xml version="1.0" encoding="utf-8"?>
<!-- Generator: Adobe Illustrator 17.1.0, SVG Export Plug-In . SVG Version: 6.00 Build 0)  -->
<!DOCTYPE svg PUBLIC "-//W3C//DTD SVG 1.1//EN" "http://www.w3.org/Graphics/SVG/1.1/DTD/svg11.dtd">
<svg version="1.1" id="Capa_1" xmlns="http://www.w3.org/2000/svg" xmlns:xlink="http://www.w3.org/1999/xlink" x="0px" y="0px"
	 viewBox="0 0 800 800" enable-background="new 0 0 800 800" xml:space="preserve">
<g>
	<g>
		<path fill="#FFFFFF" d="M590.9,446l-4.2,37.5c-1.6-0.9-3.1-1.7-4.8-2.5L564,402.7c-6.6-37.3-34.7-64.7-75.8-63.3H316.7
			c-37.1,0-69.4,14.1-75.7,63.3L223,481c-1.7,0.8-3.2,1.6-4.8,2.5l-4.2-37.5c0,0-59.8-26.4-74,0c-14.2,26.4,0,35.9,0,35.9l74.4,4
			c-13.9,9.3-22.8,23.4-22.8,39.2v71.8c0,17.8,11.3,33.5,28.3,42.5v48.2c0,16.3,20.1,29.5,45,29.5c24.9,0,45-13.2,45-29.5v-40.1
			h177.5v40.1c0,16.3,20.1,29.5,45,29.5c24.9,0,45-13.2,45-29.5v-44.8c21.3-8,36-25.6,36-46v-71.8c0-15.9-8.9-30-22.8-39.2l74.4-4
			c0,0,3-9.5,0-35.9C662,419.6,590.9,446,590.9,446z M317.7,582.9h-81.2v-38.6h81.2V582.9z M476.6,584.2H337.4v-16.9h139.1V584.2z
			 M478,562.4H338.8v-16.9H478V562.4z M242.1,470.1c-1.2,0-2.5,0.1-3.7,0.2l19.3-77.3c3.6-21.9,27.9-40.9,51.9-40.9h185.8
			c23.9,0,45.8,15.4,51.8,40.9l19.3,77.3c-1.2,0-2.4-0.2-3.6-0.2H242.1z M579.8,582.9h-81.3v-38.6h81.3V582.9z"/>
		<polygon fill="#FFFFFF" points="402.9,63.1 0,234.4 0,737 86,737 86,291.5 714,291.5 714,737 800,737 800,234.4 		"/>
	</g>
</g>
</svg>
