<?xml version="1.0" encoding="utf-8"?>
<!-- Generator: Adobe Illustrator 17.1.0, SVG Export Plug-In . SVG Version: 6.00 Build 0)  -->
<!DOCTYPE svg PUBLIC "-//W3C//DTD SVG 1.1//EN" "http://www.w3.org/Graphics/SVG/1.1/DTD/svg11.dtd">
<svg version="1.1" id="Capa_1" xmlns="http://www.w3.org/2000/svg" xmlns:xlink="http://www.w3.org/1999/xlink" x="0px" y="0px"
	 viewBox="0 0 34.9 34.9" enable-background="new 0 0 34.9 34.9" xml:space="preserve">
<g>
	<path fill="#FFFFFF" d="M29.5,2h-2.5c0.1-0.3,0.1-0.6,0.1-0.9C26.8,0.5,26.2,0,25.6,0H9.3C8.6,0,8,0.5,7.9,1.1
		C7.8,1.4,7.8,1.8,7.9,2H5.4C4.6,2,3.9,2.7,3.9,3.5v29.8c0,0.8,0.7,1.5,1.5,1.5h24.1c0.8,0,1.5-0.7,1.5-1.5V3.5
		C31,2.7,30.3,2,29.5,2z M9.9,2.4l6.5,5.1l-3.1,3.4L9.9,2.4z M18.5,7.5l6.5-5.1l-3.4,8.5L18.5,7.5z M6.9,31.9V5h3l2.8,6.9
		c0.1,0.2,0.2,0.3,0.4,0.3c0,0,0.1,0,0.1,0c0.1,0,0.3-0.1,0.4-0.2l2.4-2.6l-2.1,22.4C13.9,31.9,6.9,31.9,6.9,31.9z M28,31.9h-7.2
		L18.7,9.2l2.6,2.9c0.1,0.1,0.2,0.2,0.4,0.2c0,0,0.1,0,0.1,0c0.2,0,0.3-0.1,0.4-0.3L24.9,5h3L28,31.9L28,31.9z"/>
</g>
</svg>
