<?xml version="1.0" encoding="utf-8"?>
<!-- Generator: Adobe Illustrator 17.1.0, SVG Export Plug-In . SVG Version: 6.00 Build 0)  -->
<!DOCTYPE svg PUBLIC "-//W3C//DTD SVG 1.1//EN" "http://www.w3.org/Graphics/SVG/1.1/DTD/svg11.dtd">
<svg version="1.1" id="Capa_1" xmlns="http://www.w3.org/2000/svg" xmlns:xlink="http://www.w3.org/1999/xlink" x="0px" y="0px"
	 viewBox="0 0 612 612" enable-background="new 0 0 612 612" xml:space="preserve">
<g>
	<path fill="#FFFFFF" d="M29.4,467.2H8.6c-4.7,0-8.6-3.9-8.6-8.6v-26.2c0-4.7,3.9-8.6,8.6-8.6h44.8C40.7,434.7,32,449.9,29.4,467.2z
		 M612,432.5v26.2c0,4.7-3.9,8.6-8.6,8.6h-69.7c-5-34.2-34.4-60.6-69.9-60.6c-35.6,0-65,26.4-70,60.6H169.6
		c-2.6-17.3-11.3-32.5-23.9-43.4h48.6l-42.5-246.2c-4,1-8.1,1.6-12.4,1.6c-10.3,0-19.8-3.2-27.7-8.6v34.6c16,4,27.9,18.4,27.9,35.7
		c0,20.3-16.5,36.7-36.7,36.7s-36.7-16.5-36.7-36.7c0-4.9,4-8.8,8.8-8.8c4.9,0,8.8,4,8.8,8.8c0,10.5,8.5,19,19,19s19-8.5,19-19
		s-8.5-19-19-19c-4.9,0-8.8-4-8.8-8.8V149c-2.4-5.8-3.8-12.1-3.8-18.8c0-27.2,22-49.2,49.1-49.2c27.2,0,49.1,22,49.1,49.2
		c0,6.9-1.5,13.6-4.1,19.5l178.2,268.9v-241c0-9.5,7.7-17.2,17.2-17.2h81.3c22.9,0,44.3,11.4,57.1,30.3l52.4,77.7
		c7.7,11.4,11.8,24.8,11.8,38.5v117h20.9C608.1,423.8,612,427.7,612,432.5z M164,130.2c0-13.6-11-24.6-24.6-24.6
		c-13.6,0-24.6,11-24.6,24.6c0,13.5,11,24.6,24.6,24.6C153,154.7,164,143.7,164,130.2z M229.2,423.8h95.5l-129.2-195L229.2,423.8z
		 M524.7,270.3l-41.9-59.6c-1.6-2.2-4.2-3.6-7.1-3.6h-65.4c-4.7,0-8.6,3.9-8.6,8.6v59.5c0,4.8,3.9,8.6,8.6,8.6h107.3
		C524.6,283.8,528.7,276,524.7,270.3z M517.3,477.5c0,29.5-24,53.6-53.6,53.6c-29.6,0-53.6-24-53.6-53.6c0-29.6,23.9-53.6,53.6-53.6
		C493.3,423.8,517.3,447.9,517.3,477.5z M490.5,477.5c0-14.8-12-26.8-26.8-26.8c-14.8,0-26.8,12-26.8,26.8c0,14.7,12,26.8,26.8,26.8
		C478.5,504.3,490.5,492.2,490.5,477.5z M153.1,477.5c0,29.5-23.9,53.6-53.6,53.6C70,531,46,507,46,477.5c0-29.6,24-53.6,53.6-53.6
		C129.2,423.8,153.1,447.9,153.1,477.5z M126.3,477.5c0-14.8-12-26.8-26.8-26.8c-14.8,0-26.8,12-26.8,26.8c0,14.7,12,26.8,26.8,26.8
		S126.3,492.2,126.3,477.5z"/>
</g>
</svg>
