<?xml version="1.0" encoding="utf-8"?>
<!-- Generator: Adobe Illustrator 17.1.0, SVG Export Plug-In . SVG Version: 6.00 Build 0)  -->
<!DOCTYPE svg PUBLIC "-//W3C//DTD SVG 1.1//EN" "http://www.w3.org/Graphics/SVG/1.1/DTD/svg11.dtd">
<svg version="1.1" id="Capa_1" xmlns="http://www.w3.org/2000/svg" xmlns:xlink="http://www.w3.org/1999/xlink" x="0px" y="0px"
	 viewBox="0 0 800 800" enable-background="new 0 0 800 800" xml:space="preserve">
<g>
	<path fill="#FFFFFF" d="M594.7,492.4h-368c0-29.8-21.7-54.6-50.1-59.7h468.1C616.4,437.8,594.7,462.6,594.7,492.4z M155.3,432.7H5
		c-8.5,31.6-8.4,59.7,19.3,59.7h81C105.3,462.6,126.9,437.8,155.3,432.7z M716.2,492.3c46.5-1.1,83.1-12.8,83.7-59.7H666.2
		C694.5,437.8,716.1,462.6,716.2,492.3z M779.7,412.7h20.2v7.9H8.6c12.1-37.2,25.1-74.9,25.1-74.9c17.5-39.5,33.4-65.9,56.1-79.7
		h34.4v-7.6h-17.4c8.3-2.5,17.3-3.8,27.6-3.8h620c43.5,0,45.8,53.1,45.6,100h-20.3h0V412.7z M134.9,386.1l98.7-102.6
		c0,0-77.7,0-125.3,0C79,297.9,39.9,386.1,39.9,386.1H134.9z M754.4,283H260.9c0,0-45.2,45.8-78.4,79.1h542.2
		c21.9,0,47.5-17.8,47.5-39.6C772.1,300.7,776.3,283,754.4,283z M72.3,265.9h17.5c5.3-3.2,10.9-5.7,17-7.6l-33.9,0
		c-0.3,0-28.5-3.9-40.2,26.4l7.1,2.7C49.3,263,70.9,265.8,72.3,265.9z M166,431.7c-3.7,0-7.2,0.3-10.7,1h21.4
		C173.2,432.1,169.7,431.7,166,431.7z M219.1,492.4L219.1,492.4c-0.1,29.3-23.9,53-53.1,53c-29.3,0-53.1-23.9-53.1-53.1
		c0-29.3,23.9-53.2,53.1-53.2c25.7,0,47.1,18.3,52.1,42.6C218.8,485.2,219.1,488.8,219.1,492.4z M196.4,492.3
		c0-16.7-13.6-30.4-30.4-30.4c-16.8,0-30.4,13.6-30.4,30.4c0,16.7,13.6,30.3,30.4,30.3C182.7,522.7,196.4,509.1,196.4,492.3z
		 M655.4,431.7c-3.7,0-7.2,0.3-10.7,1h21.4C662.7,432.1,659.1,431.7,655.4,431.7z M708.6,492.3C708.6,492.3,708.6,492.4,708.6,492.3
		c0,0.1,0,0.1,0,0.1l0,0c-0.1,29.3-23.9,53-53.2,53c-29.2,0-53.1-23.8-53.1-53h0c0,0,0,0,0-0.1c0,0,0,0,0-0.1
		c0-29.3,23.9-53.2,53.1-53.2C684.8,439.2,708.6,463.1,708.6,492.3z M685.9,492.3c0-16.7-13.6-30.4-30.4-30.4
		c-16.7,0-30.3,13.6-30.3,30.4c0,16.7,13.6,30.3,30.3,30.3C672.2,522.7,685.9,509.1,685.9,492.3z"/>
</g>
</svg>
