<?xml version="1.0" encoding="utf-8"?>
<!-- Generator: Adobe Illustrator 17.1.0, SVG Export Plug-In . SVG Version: 6.00 Build 0)  -->
<!DOCTYPE svg PUBLIC "-//W3C//DTD SVG 1.1//EN" "http://www.w3.org/Graphics/SVG/1.1/DTD/svg11.dtd">
<svg version="1.1" id="Layer_1" xmlns="http://www.w3.org/2000/svg" xmlns:xlink="http://www.w3.org/1999/xlink" x="0px" y="0px"
	 viewBox="0 0 24 24" enable-background="new 0 0 24 24" xml:space="preserve">
<g>
	<path fill="#FFFFFF" d="M9.9,5H9.6C9.2,5,8.9,5.2,8.9,5.6v2.7h1.7V5.6C10.6,5.2,10.3,5,9.9,5L9.9,5z"/>
	<path fill="#FFFFFF" d="M14.4,5h-0.3c-0.4,0-0.7,0.3-0.7,0.6v2.7h1.7V5.6C15.1,5.2,14.8,5,14.4,5L14.4,5z"/>
	<path fill="#FFFFFF" d="M12,0.3c-6.6,0-12,5.4-12,12c0,3.2,1.2,6.2,3.5,8.5c1.3,1.3,3,2.4,4.8,2.9c0.1,0,0.2,0.1,0.4,0.1
		c0.5,0,0.9-0.3,1.1-0.8c0.2-0.6-0.1-1.3-0.7-1.5c-1.4-0.5-2.8-1.3-3.9-2.4c-1.8-1.8-2.8-4.3-2.8-6.8c0-5.3,4.3-9.7,9.7-9.7
		c5.3,0,9.7,4.3,9.7,9.7c0,2.6-1,5-2.8,6.8c-0.7,0.6-2.4,1.9-3.5,1.9c-0.5,0-0.9-0.2-1.3-0.5c-0.8-0.9-1-2.8-1-4.1
		c2-0.1,3.6-1.8,3.6-3.8V9H7.3v3.6c0,2,1.5,3.6,3.5,3.8c0,1.5,0.2,4.1,1.6,5.6c0.8,0.9,1.8,1.3,3,1.3c2.2,0,4.8-2.3,5.1-2.5l0,0
		c2.3-2.3,3.5-5.3,3.5-8.5C24,5.7,18.6,0.3,12,0.3z M14,9.9h1v2.4h-1V9.9z M10,12.4H9V9.9h1V12.4z M11.7,12.4h-1V9.9h1V12.4z
		 M12.3,12.4V9.9h1v2.4L12.3,12.4L12.3,12.4z"/>
</g>
</svg>
