<?xml version="1.0" encoding="utf-8"?>
<!-- Generator: Adobe Illustrator 17.1.0, SVG Export Plug-In . SVG Version: 6.00 Build 0)  -->
<!DOCTYPE svg PUBLIC "-//W3C//DTD SVG 1.1//EN" "http://www.w3.org/Graphics/SVG/1.1/DTD/svg11.dtd">
<svg version="1.1" id="Layer_1" xmlns="http://www.w3.org/2000/svg" xmlns:xlink="http://www.w3.org/1999/xlink" x="0px" y="0px"
	 viewBox="0 0 24 24" enable-background="new 0 0 24 24" xml:space="preserve">
<g>
	<path fill="#FFFFFF" d="M15.9,1.8c-1-1.1-2.4-1.8-4-1.8c-1.6,0-3,0.7-4,1.8C7.1,2.7,6.6,4,6.6,5.4C6.6,8,7.1,9.3,8,10
		c0.2,0.1,0.3,0.2,0.5,0.3c-0.1-0.1-0.1-0.1-0.2-0.2C7.8,9.6,7.5,8.9,7.4,8.1c0-0.8,0-1.4-0.1-2c0-0.3,0-0.7,0-1.1
		C7.3,3.2,9.1,2,10.7,2h2.6c1.9,0,3.3,1.5,3.3,2.9c0,0.4,0,0.8,0,1.1c0,0.6,0,1.2-0.1,2c0,0.8-0.3,1.5-0.9,2.1
		c-0.1,0.1-0.1,0.1-0.2,0.2c0.2-0.1,0.4-0.2,0.6-0.4c0.9-0.7,1.4-2.1,1.4-4.6C17.3,4,16.8,2.7,15.9,1.8L15.9,1.8z"/>
	<path fill="#FFFFFF" d="M13.2,2.5h-2.5C9.3,2.5,7.8,3.6,7.8,5c0,1.2,0,1.8,0.1,3c0,0.9,0.5,1.7,1.2,2.2c0.4,0.2,0.9,0.4,1.3,0.4
		h2.9c0.5,0,1-0.1,1.3-0.4C15.5,9.7,16,8.9,16,8c0-1.2,0.1-1.8,0.1-3C16.1,3.6,14.6,2.5,13.2,2.5z M10.5,6.9
		C10.3,7,10.1,7.1,9.9,7.1c-0.5,0-1-0.4-1-1c0-0.5,0.4-1,1-1c0.2,0,0.4,0.1,0.5,0.1c0.3,0.2,0.5,0.5,0.5,0.8
		C10.9,6.5,10.7,6.7,10.5,6.9z M14,7.1c-0.2,0-0.4-0.1-0.6-0.2C13.2,6.7,13,6.5,13,6.2c0-0.3,0.2-0.6,0.5-0.8
		c0.1-0.1,0.3-0.1,0.5-0.1c0.5,0,1,0.4,1,1C15,6.7,14.5,7.1,14,7.1z"/>
	<path fill="#FFFFFF" d="M15.1,6.1"/>
	<path fill="#FFFFFF" d="M16.8,22.6c0,0.8-0.6,1.4-1.4,1.4h-7c-0.8,0-1.4-0.6-1.4-1.4v-9.7c0-0.8,0.6-1.4,1.4-1.4h7
		c0.8,0,1.4,0.6,1.4,1.4L16.8,22.6L16.8,22.6z"/>
	<g>
		<path fill="#FFFFFF" d="M5.6,19.4v-6.2c0-0.5-0.5-0.9-1.1-0.9c-0.6,0-1.1,0.4-1.1,0.9v6.2H5.6z"/>
		<path fill="#FFFFFF" d="M5.7,20.1c0.5,0,1,0.3,1,0.7c0,0,0,0,0,0.1s0,0,0,0.1l0,0.9c0,0.3-0.4,0.6-0.8,0.6c-0.4,0-0.8-0.3-0.8-0.6
			v-0.3l-1.3,0v0.3c0,0.3-0.4,0.6-0.8,0.6c-0.4,0-0.8-0.3-0.8-0.6v-0.8c0,0,0-0.1,0-0.1c0,0,0,0,0,0c0-0.4,0.4-0.7,1-0.7L5.7,20.1
			L5.7,20.1z"/>
	</g>
	<g>
		<path fill="#FFFFFF" d="M20.6,19.4v-6.2c0-0.5-0.5-0.9-1.1-0.9s-1.1,0.4-1.1,0.9v6.2H20.6z"/>
		<path fill="#FFFFFF" d="M20.7,20.1c0.5,0,1,0.3,1,0.7c0,0,0,0,0,0.1s0,0,0,0.1l0,0.9c0,0.3-0.4,0.6-0.8,0.6
			c-0.4,0-0.8-0.3-0.8-0.6v-0.3l-1.3,0v0.3c0,0.3-0.4,0.6-0.8,0.6c-0.4,0-0.8-0.3-0.8-0.6v-0.8c0,0,0-0.1,0-0.1c0,0,0,0,0,0
			c0-0.4,0.4-0.7,1-0.7L20.7,20.1L20.7,20.1z"/>
	</g>
</g>
</svg>
