<?xml version="1.0" encoding="utf-8"?>
<!-- Generator: Adobe Illustrator 17.1.0, SVG Export Plug-In . SVG Version: 6.00 Build 0)  -->
<!DOCTYPE svg PUBLIC "-//W3C//DTD SVG 1.1//EN" "http://www.w3.org/Graphics/SVG/1.1/DTD/svg11.dtd">
<svg version="1.1" id="Capa_1" xmlns="http://www.w3.org/2000/svg" xmlns:xlink="http://www.w3.org/1999/xlink" x="0px" y="0px"
	 viewBox="0 0 800 800" enable-background="new 0 0 800 800" xml:space="preserve">
<g>
	<path fill="#FFFFFF" d="M765.6,440.9l-14.8-0.1c-13.5-0.1-30.4-10.1-37.1-21.8l-71.7-126.2c-8.8-15.5-29.7-27.7-47.6-27.7H574
		v-38.7h6.2c21.2,0,38.4-17.2,38.4-38.4V98.6c0-21.2-17.2-38.4-38.4-38.4H306.5c-21.2,0-38.4,17.2-38.4,38.4v89.5
		c0,21.2,17.2,38.4,38.4,38.4h6.2v38.7h-34.4c-17.7,0-39.2,11.7-48.8,26.6l-84.2,130.4c-7.6,11.8-25.6,24.4-39.2,27.6l-73.8,17.1
		C14.5,471,0,489.2,0,507.5v128.6c0,19,15.4,34.4,34.4,34.4h55c11.7,40,48.6,69.4,92.4,69.4s80.7-29.3,92.4-69.4h207.8
		c11.7,40,48.6,69.4,92.4,69.4c43.7,0,80.7-29.3,92.4-69.4h99c19,0,34.4-15.4,34.4-34.4V475.5C800,456.6,784.6,441.1,765.6,440.9z
		 M518.9,104.9c0-2.3,1.9-4.2,4.2-4.2h58.3c2.3,0,4.2,1.9,4.2,4.2v10.2c0,2.3-1.9,4.2-4.2,4.2h-17.1c-0.8,0-1.4,0.6-1.4,1.4v61.8
		c0,2.3-1.9,4.2-4.2,4.2h-13.3c-2.3,0-4.2-1.9-4.2-4.2v-61.8c0-0.8-0.6-1.4-1.4-1.4h-16.8c-2.3,0-4.2-1.9-4.2-4.2V104.9z
		 M440.1,104.9c0-2.3,1.9-4.2,4.2-4.2h16.4c2,0,4.4,1.4,5.4,3.1l14.5,25.6c0.8,1.3,2,3.6,2.7,4.9c0.1,0.1,5.7,10.5,9.5,19.3
		c-0.4-6.6-1.1-18.7-1.1-27.3v-21.5c0-2.3,1.9-4.2,4.2-4.2h11.7c2.3,0,4.2,1.9,4.2,4.2v77.5c0,2.3-1.9,4.2-4.2,4.2h-14.2
		c-2,0-4.4-1.4-5.3-3.1l-15.1-27.2c-0.7-1.4-1.9-3.6-2.7-4.9c-0.1-0.1-6.5-11.8-10.7-21.2c0.2,6.3,0.5,20,0.5,30.1v22.2
		c0,2.3-1.9,4.2-4.2,4.2h-11.7c-2.3,0-4.2-1.9-4.2-4.2L440.1,104.9L440.1,104.9z M374.2,104.9c0-2.3,1.9-4.2,4.2-4.2h45.7
		c2.3,0,4.2,1.9,4.2,4.2v9.9c0,2.3-1.9,4.2-4.2,4.2h-26.9c-0.8,0-1.4,0.6-1.4,1.4V132c0,0.8,0.6,1.4,1.4,1.4h25
		c2.3,0,4.2,1.9,4.2,4.2v9.7c0,2.3-1.9,4.2-4.2,4.2h-25c-0.8,0-1.4,0.6-1.4,1.4V167c0,0.8,0.6,1.4,1.4,1.4h28.6
		c2.3,0,4.2,1.9,4.2,4.2v9.8c0,2.3-1.9,4.2-4.2,4.2h-47.5c-2.3,0-4.2-1.9-4.2-4.2L374.2,104.9L374.2,104.9z M305.3,186.6
		c-2.3,0-4.2-1.9-4.2-4.2v-74.6c0-2.7,1.2-6.2,7.1-6.8c5.9-0.6,12.6-1,19.4-1c13.2,0,21.8,2.1,27.7,6.8c5.4,4.3,8.2,10.6,8.2,18.5
		c0,10.2-6.6,17.7-13.7,21c0.2,0.2,0.4,0.4,0.7,0.6c0.3,0.3,7.2,6.4,9.4,14.4c0.7,2.6,1.4,5.2,2.1,7.9c1,3.7,1.9,7.3,2.8,10.1
		c0.4,1.4,1.1,3.8-0.2,5.5c-0.8,1.1-2.3,1.7-4.4,1.7h-11.3c-2.1,0-4.3-1.6-5-3.5c-0.1-0.3-2.4-6.7-4.9-16.9
		c-2.2-10.3-5.7-12.1-12.1-12.3h-2.9c-0.8,0-1.4,0.6-1.4,1.4v27.1c0,2.3-1.9,4.2-4.2,4.2H305.3z M348.3,226.4h190.1v38.7H348.3
		L348.3,226.4L348.3,226.4z M181.7,691.4c-26.4,0-47.8-21.4-47.8-47.8c0-26.4,21.4-47.8,47.8-47.8s47.8,21.4,47.8,47.8
		C229.5,670,208.1,691.4,181.7,691.4z M413.6,449.8H213.3c-12.6,0-17.5-8.8-10.9-19.5l61-99.9c6.6-10.7,22.2-19.5,34.8-19.5h115.4
		L413.6,449.8L413.6,449.8z M574.3,691.4c-26.4,0-47.8-21.4-47.8-47.8c0-26.4,21.4-47.8,47.8-47.8c26.4,0,47.8,21.4,47.8,47.8
		C622,670,600.7,691.4,574.3,691.4z M644,449.8H468.6V310.9h100.6c12.6,0,27.7,9.1,33.7,20.1l53.2,98.6
		C661.9,440.7,656.5,449.8,644,449.8z"/>
	<path fill="#FFFFFF" d="M323.9,137.6h1.8c1.4,0,3.7-0.4,5-0.8c3.1-1,11.3-4.7,11.3-9.8c0-8.3-6.8-10.1-12.4-10.2
		c-4.3,0-5.5,0.2-5.5,0.2c-0.8,0.1-1.6,1-1.6,1.8v17.4C322.5,136.9,323.1,137.6,323.9,137.6z"/>
</g>
</svg>
