<?xml version="1.0" encoding="utf-8"?>
<!-- Generator: Adobe Illustrator 17.1.0, SVG Export Plug-In . SVG Version: 6.00 Build 0)  -->
<!DOCTYPE svg PUBLIC "-//W3C//DTD SVG 1.1//EN" "http://www.w3.org/Graphics/SVG/1.1/DTD/svg11.dtd">
<svg version="1.1" id="Capa_1" xmlns="http://www.w3.org/2000/svg" xmlns:xlink="http://www.w3.org/1999/xlink" x="0px" y="0px"
	 viewBox="0 0 800 800" enable-background="new 0 0 800 800" xml:space="preserve">
<g>
	<path fill="#FFFFFF" d="M771.5,223.1c-3,0-6.1,0.4-9.2,1.3l-35,9.6L691,145.6c-10.3-25.1-40.7-45.4-67.8-45.4H283.5
		c-27.1,0-57.5,20.4-67.8,45.4l-36.3,88.3l-34.5-9.5c-3.1-0.8-6.2-1.3-9.2-1.3c-16.5,0-28.5,12.6-28.5,30v20.6
		c0,0.8,0.1,1.7,0.1,2.5C93,285.3,79.5,296,67.2,308.3C23.9,351.6,0,409.2,0,470.5c0,61.3,23.9,118.9,67.2,162.2
		c43.3,43.3,100.9,67.2,162.2,67.2s118.9-23.9,162.2-67.2c25.3-25.2,43.8-55.4,55-88.2h213.7v43.9c0,20.3,16.5,36.8,36.8,36.8h48.1
		c20.3,0,36.8-16.5,36.8-36.8V412.6c0-25.2-7.8-64.6-17.3-87.8l-5.9-14.3h4.4c20.3,0,36.8-16.5,36.8-36.8v-20.6
		C800,235.7,788,223.1,771.5,223.1z M260.8,156.8c6.1-15,24.4-27.2,40.6-27.2h303.9c16.2,0,34.5,12.3,40.6,27.2l54.9,133.8
		c6.1,15-2.1,27.2-18.3,27.2H400.5c-2.9-3.2-5.8-6.4-8.9-9.5c-43.3-43.3-100.9-67.2-162.2-67.2c-1.1,0-2.1,0.1-3.2,0.1L260.8,156.8z
		 M229.4,631.2c-42.9,0-83.3-16.7-113.6-47.1c-30.4-30.4-47.1-70.7-47.1-113.6s16.7-83.3,47.1-113.6c30.4-30.4,70.7-47.1,113.6-47.1
		s83.3,16.7,113.6,47.1c30.4,30.4,47.1,70.7,47.1,113.6c0,42.9-16.7,83.3-47.1,113.6C312.7,614.5,272.3,631.2,229.4,631.2z
		 M711.1,459.7c0,8.1-6.6,14.7-14.7,14.7H592c-8.1,0-14.7-6.6-14.7-14.7v-50.1c0-8.1,6.6-14.7,14.7-14.7h104.3
		c8.1,0,14.7,6.6,14.7,14.7V459.7z"/>
	<path fill="#FFFFFF" d="M335.2,377.1c-13.1-9.6-31.6-6.8-41.2,6.3L209.8,498l-51.5-37.5c-13.2-9.6-31.6-6.7-41.2,6.5
		c-9.6,13.2-6.7,31.6,6.5,41.2l68.9,50.1c6.6,4.8,14.3,7.1,21.9,7.1c11.5,0,22.9-5.3,30.2-15.2l96.9-131.9
		C351.2,405.2,348.4,386.7,335.2,377.1z"/>
</g>
</svg>
