<?xml version="1.0" encoding="utf-8"?>
<!-- Generator: Adobe Illustrator 17.1.0, SVG Export Plug-In . SVG Version: 6.00 Build 0)  -->
<!DOCTYPE svg PUBLIC "-//W3C//DTD SVG 1.1//EN" "http://www.w3.org/Graphics/SVG/1.1/DTD/svg11.dtd">
<svg version="1.1" id="Capa_1" xmlns="http://www.w3.org/2000/svg" xmlns:xlink="http://www.w3.org/1999/xlink" x="0px" y="0px"
	 viewBox="0 0 800 800" enable-background="new 0 0 800 800" xml:space="preserve">
<g>
	<g>
		<g>
			<polygon fill="#FFFFFF" points="649.9,177.6 649.9,174.5 646.8,177.6 			"/>
			<path fill="#FFFFFF" d="M142.2,222.4c26.2,24.6,57.6,36.9,94.3,36.9c27.2,0,52.1-8.1,74.7-24.4c22.5-16.2,39-36.9,49.5-62.1h44
				l31.4-33l33,33h20.4l31.4-33l31.4,33h20.4l33-33l31.4,33h12.6v1.6l59.7-59.7l-59.7-55H345C314.6,19.9,278.5,0,236.5,0
				c-36.7,0-68.1,12.6-94.3,37.7s-39.3,56.1-39.3,92.7S116,197.8,142.2,222.4z M165.8,99.8c7.3-7.9,16.5-11.8,27.5-11.8
				c11,0,20.2,3.9,27.5,11.8c7.3,7.9,11,17,11,27.5s-3.7,19.6-11,27.5c-7.3,7.9-16.5,11.8-27.5,11.8c-11,0-20.2-3.9-27.5-11.8
				c-7.3-7.9-11-17-11-27.5S158.5,107.7,165.8,99.8z"/>
			<path fill="#FFFFFF" d="M704.9,487.2c-6.3-6.3-14.1-9.4-23.6-9.4h-7.9l-99-179.2c-5.2-9.4-13.1-14.1-23.6-14.1H250.7
				c-11.5,0-19.9,4.7-25.1,14.1l-97.4,179.2h-9.4c-9.4,0-17.3,3.1-23.6,9.4c-6.3,6.3-9.4,14.1-9.4,23.6v160.3
				c0,9.4,3.1,17.3,9.4,23.6c6.3,6.3,14.1,9.4,23.6,9.4h31.4v47.2c0,13.6,4.7,25.1,14.1,34.6c9.4,9.4,21,14.1,34.6,14.1h15.7
				c13.6,0,25.1-4.7,34.6-14.1c9.4-9.4,14.1-21,14.1-34.6v-47.2h273.5v47.2c0,13.6,4.7,25.1,14.1,34.6c9.4,9.4,21,14.1,34.6,14.1
				h15.7c13.6,0,25.1-4.7,34.6-14.1c9.4-9.4,14.1-21,14.1-34.6v-47.2h31.4c9.4,0,17.3-3.1,23.6-9.4c6.3-6.3,9.4-14.1,9.4-23.6V510.8
				C714.3,501.4,711.2,493.5,704.9,487.2z M202.8,594.9c-7.9,7.9-17.3,11.8-28.3,11.8s-20.4-3.9-28.3-11.8
				c-7.9-7.9-11.8-17.3-11.8-28.3s3.9-20.4,11.8-28.3s17.3-11.8,28.3-11.8s20.4,3.9,28.3,11.8c7.9,7.9,11.8,17.3,11.8,28.3
				S210.6,587,202.8,594.9z M206.7,477.8l66-130.5c4.2-9.4,12.1-14.1,23.6-14.1h209c10.5,0,17.8,4.7,22,14.1l66,130.5H206.7z
				 M653.8,594.9c-7.9,7.9-17.3,11.8-28.3,11.8s-20.4-3.9-28.3-11.8c-7.9-7.9-11.8-17.3-11.8-28.3s3.9-20.4,11.8-28.3
				c7.9-7.9,17.3-11.8,28.3-11.8s20.4,3.9,28.3,11.8s11.8,17.3,11.8,28.3S661.7,587,653.8,594.9z"/>
		</g>
	</g>
</g>
</svg>
