<?xml version="1.0" encoding="utf-8"?>
<!-- Generator: Adobe Illustrator 17.1.0, SVG Export Plug-In . SVG Version: 6.00 Build 0)  -->
<!DOCTYPE svg PUBLIC "-//W3C//DTD SVG 1.1//EN" "http://www.w3.org/Graphics/SVG/1.1/DTD/svg11.dtd">
<svg version="1.1" id="Capa_1" xmlns="http://www.w3.org/2000/svg" xmlns:xlink="http://www.w3.org/1999/xlink" x="0px" y="0px"
	 viewBox="0 0 516 516" enable-background="new 0 0 516 516" xml:space="preserve">
<g>
	<path fill="#FFFFFF" d="M70.3,361.4c3.2-0.5,6.5-0.8,9.9-0.8c19.2,0,36.7,7.7,49.4,20.1c13.2,12.9,21.4,30.8,21.4,50.7h25.6
		c0-19.9,8.2-37.9,21.4-50.7c12.8-12.4,30.2-20.1,49.4-20.1c18.6,0,35.5,7.2,48.2,19c10.7,9.9,18.4,23.1,21.3,37.9
		c5.2-6.4,8.4-14.4,8.4-23.2v-60v-9.7V52.3c0-20.5-16.7-37.2-37.2-37.2H99.2C78.6,15.1,62,31.8,62,52.3v235.1H37.2
		C16.7,287.4,0,304.1,0,324.6v69.7c0,9.9,4,18.9,10.3,25.6C15.3,389.6,39.6,365.7,70.3,361.4z M93.5,75.8
		c0-15.6,12.7-28.3,28.3-28.3h143.8c15.6,0,28.3,12.7,28.3,28.3v160.6c0,15.6-12.7,28.3-28.3,28.3H121.8
		c-15.6,0-28.3-12.7-28.3-28.3L93.5,75.8L93.5,75.8z"/>
	<path fill="#FFFFFF" d="M383.5,377.8V97V44.5c0-10.3-8.3-18.6-18.6-18.6c-10.3,0-18.6,8.3-18.6,18.6v336.1
		c0,17.1,14.7,56.8,151.1,56.8c10.3,0,18.6-8.3,18.6-18.6c0-10.3-8.3-18.6-18.6-18.6c-2.3,0-4.4-0.1-6.6-0.1
		C405.8,399.2,386.5,381.5,383.5,377.8z"/>
	<path fill="#FFFFFF" d="M80.6,380.8c-28.8,0-52.9,20.3-58.7,47.4c-0.9,4.1-1.4,8.3-1.4,12.7c0,33.2,26.9,60,60,60s60-26.9,60-60
		c0-3.2-0.3-6.3-0.8-9.3C135.4,402.8,110.6,380.8,80.6,380.8z M112.7,440.8c0,17.7-14.4,32.1-32.1,32.1s-32.1-14.4-32.1-32.1
		c0-3.3,0.6-6.3,1.5-9.3c4-13.2,16.1-22.9,30.6-22.9s26.6,9.7,30.6,22.9C112.1,434.5,112.7,437.6,112.7,440.8z"/>
	<path fill="#FFFFFF" d="M247.9,380.8c-30,0-54.8,22-59.3,50.7c-0.5,3-0.8,6.1-0.8,9.3c0,33.2,26.9,60,60,60s60-26.9,60-60
		c0-4.9-0.6-9.6-1.7-14.1C299.9,400.4,276.2,380.8,247.9,380.8z M280.1,440.8c0,17.7-14.4,32.1-32.1,32.1s-32.1-14.4-32.1-32.1
		c0-3.3,0.6-6.3,1.5-9.3c4-13.2,16.1-22.9,30.6-22.9c14.5,0,26.6,9.7,30.6,22.9C279.4,434.5,280.1,437.6,280.1,440.8z"/>
</g>
</svg>
