<?xml version="1.0" encoding="utf-8"?>
<!-- Generator: Adobe Illustrator 17.1.0, SVG Export Plug-In . SVG Version: 6.00 Build 0)  -->
<!DOCTYPE svg PUBLIC "-//W3C//DTD SVG 1.1//EN" "http://www.w3.org/Graphics/SVG/1.1/DTD/svg11.dtd">
<svg version="1.1" id="Capa_1" xmlns="http://www.w3.org/2000/svg" xmlns:xlink="http://www.w3.org/1999/xlink" x="0px" y="0px"
	 viewBox="0 0 800 800" enable-background="new 0 0 800 800" xml:space="preserve">
<g>
	<path fill="#FFFFFF" d="M760.5,774.3h-87.2v-26.3c0-60.2-16.1-106.7-47.7-138.1c-39.7-39.4-89.3-40.2-92.9-40.2c-0.1,0-0.1,0-0.1,0
		h-64.3v-38.9c0-0.7-0.1-1.3-0.2-2c30.5-12.6,52.6-31.4,68.5-50.3c7.4,10.7,19.8,17.8,33.8,17.8c20.8,0,38-15.5,40.7-35.5
		c3.3,0.6,6.6,1,10,1c29.6,0,53.6-24.1,53.6-53.6c0-12-4.1-23.4-11.2-32.6c19.1-9.9,32.2-29.8,32.2-52.8c0-18.4-8.4-34.9-21.6-45.8
		c17.2-12,28.5-31.9,28.5-54.4c0-36.3-29.3-65.9-65.5-66.3l-2.4-0.3c-13.5-33.8-30.8-68.5-61.9-97.6C531.5,19.7,473.7,0,401.2,0
		c-0.3,0-0.6,0-0.9,0c-0.3,0-0.6,0-0.9,0c-72.5,0-130.3,19.7-171.7,58.5c-31.1,29.1-48.4,63.8-61.9,97.6l-2.4,0.3
		c-36.2,0.4-65.5,30-65.5,66.3c0,22.5,11.3,42.5,28.5,54.4c-13.2,10.9-21.6,27.4-21.6,45.8c0,23,13.1,42.9,32.2,52.8
		c-7,9.2-11.2,20.6-11.2,32.6c0,29.6,24.1,53.6,53.6,53.6c3.4,0,6.8-0.3,10-1c2.7,20,19.9,35.5,40.7,35.5c13.8,0,26.1-6.9,33.5-17.4
		c15.9,18.8,37.9,37.4,68.2,49.9c-0.1,0.7-0.2,1.3-0.2,2v38.9h-64.2c-2.2,0-52.8,0.1-93.2,40.2c-31.7,31.4-47.7,77.9-47.7,138.1
		v26.3H39.5c-7.1,0-12.8,5.7-12.8,12.8c0,7.1,5.7,12.8,12.8,12.8h721c7.1,0,12.8-5.7,12.8-12.8C773.3,780.1,767.6,774.3,760.5,774.3
		z M532.6,595.5c0.3,0,42,0.1,74.9,32.7c26.6,26.4,40.1,66.8,40.1,119.9v26.3H444.3c0-0.9-0.2-1.8-0.4-2.8L420.5,683l40.7,69.8
		c2,3.4,5.5,5.8,9.4,6.3c0.6,0.1,1.1,0.1,1.6,0.1c3.4,0,6.7-1.3,9.1-3.8l43.3-43.3c2.8-2.8,4.2-6.8,3.7-10.7
		c-0.5-3.9-2.8-7.4-6.3-9.4l-87.1-50.8c16.4-9.8,28.3-26.3,32.1-45.7L532.6,595.5L532.6,595.5z M400,600c16.1,0,30.8-5.6,42.5-14.9
		c-1.3,22.3-19.9,40-42.5,40c-22.6,0-41.2-17.7-42.5-40C369.2,594.4,383.9,600,400,600z M357.8,537.4c12.2,3.1,25.4,5.2,39.8,6.2
		c0.3,0,0.6,0,0.8,0h3.2c0.3,0,0.6,0,0.8,0c14.4-0.9,27.6-3.1,39.7-6.2c-2.8,20.8-20.6,36.9-42.2,36.9
		C378.4,574.3,360.6,558.2,357.8,537.4z M400.8,708.9l17.2,65.4h-34.5L400.8,708.9z M447.3,678l47.4,27.6L475,725.5L447.3,678z
		 M230.2,470.7c-8.5,0-15.4-6.9-15.4-15.4c0-4,1.5-7.8,4.3-10.6c0.7-0.7,1.2-1.4,1.7-2.2c0.1-0.1,0.2-0.2,0.3-0.3
		c4.5-5.5,3.7-13.6-1.8-18.1c-5.5-4.5-13.6-3.7-18.1,1.8c-5.3,6.5-13.2,10.3-21.7,10.3c-15.4,0-28-12.5-28-28
		c0-12.3,8.2-23.3,20-26.8c6.8-2,10.7-9.2,8.6-16c-1.9-6.5-8.5-10.3-15-8.9c-0.3,0-0.6,0-0.9,0c-18.6,0-33.7-15.1-33.7-33.7
		c0-18.6,15.1-33.7,33.7-33.7c7.1,0,12.8-5.7,12.8-12.8c0,0,0-0.1,0-0.1c0,0,0-0.1,0-0.1c0-7.1-5.7-12.8-12.8-12.8
		c-22.4,0-40.6-18.2-40.6-40.6s18.2-40.6,40.6-40.6c0.5,0,1,0,1.5-0.1l10.7-1.3c4.7-0.6,8.7-3.7,10.5-8.1
		c12.9-33.2,28.8-67.7,58.4-95.3c37.1-34.7,87.5-51.5,154.2-51.5c0.3,0,0.6,0,0.9,0c0.3,0,0.6,0,0.9,0c66.7,0,117.1,16.9,154.2,51.5
		c29.5,27.6,45.5,62.1,58.4,95.3c1.7,4.4,5.7,7.6,10.5,8.1l10.7,1.3c0.5,0.1,1,0.1,1.5,0.1c22.4,0,40.6,18.2,40.6,40.6
		c0,22.4-18.2,40.6-40.6,40.6c-7.1,0-12.8,5.7-12.8,12.8c0,0,0,0.1,0,0.1c0,0,0,0.1,0,0.1c0,7.1,5.7,12.8,12.8,12.8
		c18.6,0,33.7,15.1,33.7,33.7c0,18.6-15.1,33.7-33.7,33.7c-0.3,0-0.6,0-0.9,0c-6.5-1.4-13.1,2.4-15,8.9c-2,6.8,1.8,13.9,8.6,16
		c11.8,3.5,20,14.5,20,26.8c0,15.4-12.5,28-28,28c-8.4,0-16.3-3.7-21.7-10.3c-4.5-5.5-12.6-6.3-18.1-1.8c-5.5,4.5-6.3,12.6-1.8,18.1
		c0.1,0.1,0.2,0.2,0.3,0.3c0.5,0.8,1,1.5,1.7,2.2c2.7,2.9,4.3,6.7,4.3,10.6c0,8.5-6.9,15.4-15.4,15.4c-8.5,0-15.4-6.9-15.4-15.4
		c0-0.7,0-1.4,0.1-2.1c0-0.3,0.1-0.6,0.1-1c21.2-35.8,26.2-68.7,26.4-70.1c0.1-0.6,0.1-1.2,0.1-1.8v-138c0.3-3.7-1.1-7.5-4-10.3
		l-27-25.4v-29.8c0-3.8-1.7-7.5-4.7-9.9c-3.3-2.7-35.9-26.8-145.8-26.8s-142.5,24-145.8,26.8c-3,2.4-4.7,6.1-4.7,9.9v29.8L222.4,232
		c-0.1,0-0.1,0.1-0.1,0.1c-0.2,0.2-0.3,0.3-0.5,0.5c-0.1,0.1-0.3,0.3-0.4,0.4c-0.1,0.2-0.3,0.3-0.4,0.5c-0.1,0.2-0.3,0.3-0.4,0.5
		c-0.1,0.2-0.2,0.3-0.3,0.5c-0.1,0.2-0.2,0.4-0.3,0.5c-0.1,0.2-0.2,0.4-0.3,0.5c-0.1,0.2-0.2,0.4-0.3,0.6c-0.1,0.2-0.2,0.4-0.2,0.6
		c-0.1,0.2-0.1,0.4-0.2,0.6c-0.1,0.2-0.1,0.4-0.2,0.6c0,0.2-0.1,0.4-0.1,0.6c0,0.2-0.1,0.4-0.1,0.6c0,0.2-0.1,0.4-0.1,0.6
		c0,0.2,0,0.4,0,0.6c0,0.2,0,0.5,0,0.7c0,0.1,0,0.1,0,0.2v138.9c0,0.6,0,1.2,0.1,1.8c0.2,1.5,5.3,35,27.1,71.3
		c0.1,0.6,0.1,1.2,0.1,1.9C245.6,463.8,238.7,470.7,230.2,470.7z M435.1,228.4c-4.1,1.2-7.3,4.3-8.6,8.3c-0.3,0.8-3.4,10.8-4.4,24
		c-18-4-33.6-2.6-44.8-0.2c-1-13.1-4.1-22.9-4.4-23.8c-1.3-4-4.5-7.1-8.6-8.3c-21.5-6.3-43.6-9.5-65.7-9.5c-9.5,0-18.3,0.6-26.2,1.5
		c1.9-2.3,3-5.2,3-8.2v-28c11.7-5.6,46.9-18.4,124.9-18.4c78,0,113,12.7,124.9,18.4v28c0,3.1,1.1,6,3.1,8.3
		c-8.2-1-17.3-1.6-27.3-1.6C478.7,218.9,456.6,222.1,435.1,228.4z M298.5,244.6c17.3,0,34.6,2.2,51.6,6.5
		c2.2,10.7,3.8,28.4-3.9,39.5c-5.2,7.5-14.2,11.5-27.6,12.2c-10.1,0.5-17.4,0.8-23.7,0.8c-32.9,0-44.6-2.5-47.6-52.2
		C257.2,248.5,275.2,244.6,298.5,244.6z M449.2,251.1c17-4.3,34.3-6.5,51.6-6.5c23.1,0,41.3,4,51.2,6.8c-3,49.7-14.8,52.2-47.6,52.2
		c-6.2,0-13.5-0.2-23.7-0.8c-13.4-0.7-22.4-4.7-27.6-12.2C445.5,279.6,447,261.8,449.2,251.1z M271,445.8
		c-20.1-30.8-26.1-61.3-27-66.6V316c11.4,9.5,27.8,13.2,51,13.2c6.7,0,14.4-0.2,25-0.8c21.6-1.1,37.6-9,47.4-23.4
		c3.7-5.5,6.2-11.4,7.8-17.5c6.2-2.1,18.1-5.1,33.2-3.3v48.8c0,2.8-2.3,5.1-5.1,5.1h-6.6c-2.8,0-5.1-2.3-5.1-5.1
		c0-7.1-5.7-12.8-12.8-12.8s-12.8,5.7-12.8,12.8c0,17,13.8,30.8,30.8,30.8h6.6c16.5,0,30-13.1,30.7-29.5c0-0.4,0.1-0.9,0.1-1.3v-25
		c9.9,12.5,25.1,19.3,45.2,20.4c10.6,0.6,18.3,0.8,25,0.8c0,0,0,0,0,0c23.7,0,40.3-3.9,51.7-13.8v63.8c-0.9,5.3-7,35.8-27,66.6
		c-28.8,44.1-71.8,68.4-127.8,72.1h-2.4C342.8,514.2,299.8,490,271,445.8z M152.3,748.1c0-150.8,110.4-152.6,115.1-152.6H333
		c3.8,19.6,15.9,36.2,32.6,45.9l-86.7,50.5c-3.4,2-5.8,5.5-6.3,9.4c-0.5,3.9,0.8,7.9,3.7,10.7l43.3,43.3c2.4,2.4,5.7,3.8,9.1,3.8
		c0.5,0,1.1,0,1.6-0.1c3.9-0.5,7.4-2.8,9.4-6.3l41.9-71.9l-23.9,90.7c-0.2,0.9-0.4,1.8-0.4,2.8h-205V748.1z M353.6,678L326,725.5
		l-19.8-19.8L353.6,678z"/>
	<circle fill="#FFFFFF" cx="308.9" cy="273.7" r="15.3"/>
	<circle fill="#FFFFFF" cx="491.1" cy="273.7" r="15.3"/>
	<path fill="#FFFFFF" d="M453.5,436.2c0-7.1-5.7-12.8-12.8-12.8h-81.4c-7.1,0-12.8,5.7-12.8,12.8s5.7,12.8,12.8,12.8h81.4
		C447.8,449.1,453.5,443.3,453.5,436.2z"/>
</g>
</svg>
