<?xml version="1.0" encoding="utf-8"?>
<!-- Generator: Adobe Illustrator 17.1.0, SVG Export Plug-In . SVG Version: 6.00 Build 0)  -->
<!DOCTYPE svg PUBLIC "-//W3C//DTD SVG 1.1//EN" "http://www.w3.org/Graphics/SVG/1.1/DTD/svg11.dtd">
<svg version="1.1" id="Capa_1" xmlns="http://www.w3.org/2000/svg" xmlns:xlink="http://www.w3.org/1999/xlink" x="0px" y="0px"
	 viewBox="0 0 31.4 31.4" enable-background="new 0 0 31.4 31.4" xml:space="preserve">
<g>
	<g>
		<path fill="#FFFFFF" d="M31.2,13c-0.2-0.6-0.8-0.9-1.4-1c-0.4,0-0.8,0.1-1.1,0.2c-0.2-0.2-0.4-0.3-0.7-0.4c-0.6-0.2-1.9,0-2.5,0.6
			c-1.2-1.7-3-3-5.2-3.9c-0.4,0.7-1,1.2-1.7,1.4c0.1,0.1,0.2,0.2,0.2,0.2c0.2,0.2,0.2,0.5,0,0.7c-0.1,0.1-0.2,0.1-0.3,0.1
			c-0.1,0-0.3-0.1-0.4-0.2c0,0-0.8-0.8-2.8-0.8c-2,0-2.8,0.8-2.8,0.9c-0.2,0.2-0.5,0.2-0.7,0c-0.2-0.2-0.2-0.5,0-0.7
			c0,0,0.9-1,3.1-1.2c-0.4-0.4-0.7-0.9-0.8-1.5c-1.4,0.1-2.8,0.3-4,0.7c-1.2-1.6-4.4-3-6.1-3.4c0,3.5,1.5,4.2,1.5,6.1
			c-1.3,1.2-2.2,2.6-2.7,4.2l-1.8-0.3c-0.5-0.1-0.9,0.3-0.8,0.8l0.7,3.6c0.1,0.5,0.6,1,1.2,1h0.8c0.6,1.8,1.9,3.3,3.5,4.6v5.4
			c2.7,0,4.9,0.1,4.9-2.1v-1.1c1.1,0.3,2.3,0.4,3.6,0.4c1.6,0,3.1-0.3,4.6-0.7v1.3c0,2.1,2.2,2.1,4.9,2.1V24c1.9-1.7,3-4,3-6.5
			c0-1.7-0.5-3.2-1.4-4.6c0.3-0.5,1.6-0.7,2.1-0.5c0.1,0,0.3,0.1,0.4,0.2c-0.4,0.3-0.8,0.8-0.8,1.2c-0.1,0.3-0.1,1,1,1.4
			c0.1,0,0.3,0.1,0.4,0.1c0.4,0,0.7-0.2,0.8-0.6c0.2-0.5,0-1.3-0.5-1.9c0.2-0.1,0.5-0.1,0.7-0.1c0.5,0,0.8,0.4,1,0.7
			c0.2,0.4,0.1,0.7-0.1,1c-0.1,0.1-0.1,0.3,0,0.4c0.1,0.1,0.3,0.1,0.4,0C31.4,14.1,31.5,13.5,31.2,13z M7.1,15.4c-0.5,0-1-0.4-1-1
			s0.4-1,1-1s1,0.4,1,1S7.6,15.4,7.1,15.4z M29.1,14.4c0,0.2-0.2,0.3-0.5,0.2c-0.5-0.2-0.7-0.4-0.6-0.8c0.1-0.3,0.4-0.7,0.7-1
			C29.1,13.3,29.2,14,29.1,14.4z"/>
		<circle fill="#FFFFFF" cx="17.4" cy="6.8" r="2.5"/>
		<circle fill="#FFFFFF" cx="13.9" cy="3" r="1.9"/>
		<circle fill="#FFFFFF" cx="20.9" cy="4.1" r="1.3"/>
	</g>
</g>
</svg>
