<?xml version="1.0" encoding="utf-8"?>
<!-- Generator: Adobe Illustrator 17.1.0, SVG Export Plug-In . SVG Version: 6.00 Build 0)  -->
<!DOCTYPE svg PUBLIC "-//W3C//DTD SVG 1.1//EN" "http://www.w3.org/Graphics/SVG/1.1/DTD/svg11.dtd">
<svg version="1.1" id="Capa_1" xmlns="http://www.w3.org/2000/svg" xmlns:xlink="http://www.w3.org/1999/xlink" x="0px" y="0px"
	 viewBox="0 0 516 516" enable-background="new 0 0 516 516" xml:space="preserve">
<g>
	<g>
		<circle fill="#FFFFFF" cx="83.5" cy="104.9" r="37"/>
		<path fill="#FFFFFF" d="M112.3,297.9c0,0,0-0.1,0-0.2c-8.2-30.7-10.8-62.7-13.6-94.7l27.5,15.5c2.8,1.6,5.9,2.4,9,2.4
			c3.3,0,6.7-0.9,9.6-2.7l50.9-31.3c8.7-5.3,11.4-16.7,6-25.4c-2.9-4.7-7.5-7.6-12.6-8.4v-22.8l11.4-13.7l13.3-15.9h-59.2l23.2,29.6
			l0,24.5c-0.5,0.2-1,0.4-1.5,0.7L134.8,181c0,0-44-24.7-52.3-29.1c-4.2-2.4-9.4-3.9-15.2-3.9C52.8,147.9,36.4,160,38,177
			c4,44.7,6.3,92.4,18,135.8c4.2,15.8,15,18.8,29.8,20.7c2.7,0.4,63.5,7.1,71.2,9.9c3.2,5.6,7.1,30.7,0.5,78.5
			c-1.4,10.3,5.8,19.8,16.1,21.3c0.9,0.1,1.7,0.2,2.6,0.2c9.3,0,17.4-6.9,18.7-16.3c8.1-58.6,4-96-11.9-111.2
			C171,304.6,140.9,299.8,112.3,297.9z M169.5,110.9l-3.9-4.9h37.1l-6.6,7.9c-2.9,0.9-7.5,1.6-11.6-1.1
			C178.8,109,173.3,109.5,169.5,110.9z"/>
		<polygon fill="#FFFFFF" points="17.8,216.5 0,221 28.6,354.2 28.6,448.1 47.1,448.1 47.1,364 126.9,373.4 126.9,448.1 
			145.3,448.1 145.3,357.9 45.3,345 		"/>
		<circle fill="#FFFFFF" cx="432.5" cy="104.9" r="37"/>
		<path fill="#FFFFFF" d="M430.3,333.6c14.8-1.9,25.6-4.9,29.8-20.7c11.7-43.4,14-91.1,18-135.8c1.5-17-14.8-29.1-29.4-29
			c-5.7,0-10.9,1.5-15.2,3.9c-8.3,4.4-52.3,29.1-52.3,29.1l-41.6-25.6c-0.5-0.3-1-0.5-1.4-0.7l0-24.5l23.2-29.6H302l13.3,16
			l11.4,13.6v22.8c-5,0.9-9.7,3.8-12.6,8.4c-5.3,8.7-2.6,20,6.1,25.4l50.9,31.3c3,1.8,6.3,2.7,9.6,2.7c3.1,0,6.2-0.8,9-2.4
			l27.5-15.5c-2.8,32.1-5.3,64.1-13.6,94.7c0,0.1,0,0.1,0,0.2c-28.6,1.9-58.7,6.6-70.6,18c-16,15.2-20,52.6-12,111.2
			c1.3,9.4,9.4,16.3,18.7,16.3c0.9,0,1.7-0.1,2.6-0.2c10.3-1.4,17.5-11,16.1-21.3c-6.6-47.9-2.7-72.9,0.5-78.5
			C366.7,340.6,427.6,334,430.3,333.6z M319.9,113.8l-6.6-7.9h37.1l-3.9,4.9c-3.8-1.4-9.3-1.9-15.1,1.9
			C327.4,115.4,322.8,114.7,319.9,113.8z"/>
		<polygon fill="#FFFFFF" points="498.2,216.5 470.7,345 370.7,357.9 370.7,448.1 389.1,448.1 389.1,373.4 468.9,364 468.9,448.1 
			487.4,448.1 487.4,354.2 516,221 		"/>
		<rect x="173.1" y="240.3" fill="#FFFFFF" width="169.8" height="35.5"/>
	</g>
</g>
</svg>
