<?xml version="1.0" encoding="utf-8"?>
<!-- Generator: Adobe Illustrator 17.1.0, SVG Export Plug-In . SVG Version: 6.00 Build 0)  -->
<!DOCTYPE svg PUBLIC "-//W3C//DTD SVG 1.1//EN" "http://www.w3.org/Graphics/SVG/1.1/DTD/svg11.dtd">
<svg version="1.1" id="Capa_1" xmlns="http://www.w3.org/2000/svg" xmlns:xlink="http://www.w3.org/1999/xlink" x="0px" y="0px"
	 viewBox="0 0 496.1 496.1" enable-background="new 0 0 496.1 496.1" xml:space="preserve">
<g>
	<g>
		<g>
			<path fill="#FFFFFF" d="M492.6,19.8c-2.5-2.7-6-4.2-9.6-4.2H296.4c-3.7,0-7.2,1.5-9.6,4.2c-2.5,2.7-3.7,6.3-3.4,10l1.5,18h209.6
				l1.5-18C496.3,26.1,495.1,22.5,492.6,19.8z"/>
			<polygon fill="#FFFFFF" points="313.2,379.8 466.2,379.8 492.4,72.5 287,72.5 			"/>
			<path fill="#FFFFFF" d="M314.6,448.2c0,17.9,14.5,32.3,32.3,32.3h85.5c17.9,0,32.3-14.5,32.3-32.3v-41.3H314.6V448.2z"/>
			<path fill="#FFFFFF" d="M263.9,363.1H99.2l-66.2,30c-0.1,0.1-0.3,0.1-0.5,0.2v30c0,31.6,25.6,57.2,57.2,57.2h127.9
				c31.6,0,57.2-25.6,57.2-57.2v-49.5C274.7,367.9,269.9,363.1,263.9,363.1z"/>
			<path fill="#FFFFFF" d="M215.2,310.5l-66.5,30.2h86c2.7,0,5.3-1.4,6.7-3.8c1.4-2.4,1.5-5.3,0.3-7.7c-4.3-8.4-11.8-14.5-20.9-17.1
				L215.2,310.5z"/>
			<path fill="#FFFFFF" d="M225.9,266c1-2.7,0.9-5.6-0.3-8.2l-2.9-6.3c-4.2-9.3-13.4-14.8-23-14.8c-3.5,0-7,0.7-10.4,2.3L14.8,318
				c-12.7,5.8-18.3,20.7-12.6,33.4l2.9,6.3c1.2,2.6,3.3,4.6,6,5.6c1.2,0.5,2.5,0.7,3.8,0.7c1.5,0,3-0.3,4.4-1l201-91.1
				C222.9,270.8,224.9,268.7,225.9,266z"/>
		</g>
	</g>
</g>
</svg>
