<?xml version="1.0" encoding="utf-8"?>
<!-- Generator: Adobe Illustrator 17.1.0, SVG Export Plug-In . SVG Version: 6.00 Build 0)  -->
<!DOCTYPE svg PUBLIC "-//W3C//DTD SVG 1.1//EN" "http://www.w3.org/Graphics/SVG/1.1/DTD/svg11.dtd">
<svg version="1.1" id="Capa_1" xmlns="http://www.w3.org/2000/svg" xmlns:xlink="http://www.w3.org/1999/xlink" x="0px" y="0px"
	 viewBox="0 0 79.5 79.5" enable-background="new 0 0 79.5 79.5" xml:space="preserve">
<g>
	<path fill="#FFFFFF" d="M8.7,67.8v11.5h-6V37.1c0-1.7,1.4-3,3-3l0,0c1.7,0,3,1.4,3,3V62h68.1v17.2h-6.1V67.8H8.7z M18,49.3
		c3,0,5.5-2.4,5.5-5.5c0-3-2.4-5.5-5.5-5.5c-3,0-5.5,2.4-5.5,5.5C12.5,46.8,15,49.3,18,49.3z M76.9,57.5l0-7.5c0-2.4-2-4-4.4-4.3
		l-43-4.3c-0.1,0-0.2-0.1-0.2-0.1c-1.5,0-2.7,1.2-2.7,2.7v8.1H15.3c-1.5,0-2.7,1.2-2.7,2.7c0,1.5,1.2,2.7,2.7,2.7L76.9,57.5
		L76.9,57.5z M79.5,20L39.8,0.3l0-0.1l0,0l0,0l0,0.1L0,20l3.3,6.7L39.8,8.6l36.5,18.1L79.5,20z"/>
</g>
</svg>
