<?xml version="1.0" encoding="utf-8"?>
<!-- Generator: Adobe Illustrator 17.1.0, SVG Export Plug-In . SVG Version: 6.00 Build 0)  -->
<!DOCTYPE svg PUBLIC "-//W3C//DTD SVG 1.1//EN" "http://www.w3.org/Graphics/SVG/1.1/DTD/svg11.dtd">
<svg version="1.1" id="Capa_1" xmlns="http://www.w3.org/2000/svg" xmlns:xlink="http://www.w3.org/1999/xlink" x="0px" y="0px"
	 viewBox="0 0 800 800" enable-background="new 0 0 800 800" xml:space="preserve">
<g>
	<path fill="#FFFFFF" d="M476.5,763.8V491h18.3l208.1-312.4H590.3L649.6,72c2.2,0.4,4.4,1.4,6.8,1.4c20.3,0,36.7-16.4,36.7-36.6
		S676.7,0,656.4,0c-20.2,0-36.6,16.4-36.6,36.7c0,11.6,5.6,21.4,13.9,28.1l-63.3,113.7H286.3c3.3-13.9,3.4-28.7-0.2-44.1
		C274,83,222.3,51,170.9,63.2c-51.4,12.1-83.4,63.7-71.3,115.1s63.8,83.4,115.2,71.3c2.5-0.6,4.5-1.2,6.7-1.9l162,243.4h18.3v272.8
		c-68.4,1.9-119.3,9.2-119.3,17.8c0,10.1,70.1,18.4,156.7,18.4s156.6-8.2,156.6-18.4C595.7,773,545,765.7,476.5,763.8z M116.4,182.1
		l61.8-14.5L145,221.2C132,211.6,121.8,198.2,116.4,182.1z M157.9,229l24.6-39.8l18.1,27.3l4.6,19.6
		C188.6,238.6,172.2,235.9,157.9,229z M207.2,178.6l-1.5-6.5l-9.1-5.7l-5.6,9.1l0.7,3.1h-2.6l1.9-3.1l-2.4-10.4l-10.3,2.4l5.6-9
		l-9-5.7L113,167.4c-2.3-16.8,0.8-33.5,8.1-47.8l53.7,33.3l10.4-2.4l-2.5-10.4l-53.5-33.1c9.7-12.6,23.3-22.3,39.2-27.4l14.3,60.5
		l9,5.6l5.7-9l-14.2-60.3c16.4-2,32.4,1.2,46.4,8.3l-32.2,52l2.4,10.4l10.4-2.4l32.1-51.8c12.2,9.5,21.8,22.4,27,37.9l-59.1,13.9
		l-5.6,9l9,5.6l-10.4,2.4l2.4,10.4l10.5,6.5L207.2,178.6L207.2,178.6z M213.7,159.3l59.1-13.9c1.6,11.4,0.6,22.7-2.5,33.3h-25.4
		L213.7,159.3z M402.1,456.3l-161.8-243h310.8l-43.6,78.3l19.8-0.1l43.6-78.3h67.2l-161.8,243H402.1z M432.5,426.1l74.9-134.5
		l-206.4,0.1l110.1,157.8h58.2l107.8-158h-49.9l-79.7,143L432.5,426.1z M454.1,321.8c10.7,0,19.4,8.7,19.4,19.4
		c0,10.6-8.7,19.3-19.4,19.3c-10.6,0-19.3-8.7-19.3-19.3C434.8,330.4,443.5,321.8,454.1,321.8z M366.9,330.5
		c-5.8,0-10.7-4.7-10.7-10.6s4.8-10.7,10.7-10.7s10.7,4.7,10.7,10.7C377.6,325.7,372.8,330.5,366.9,330.5z M443.4,341.1
		c0-5.9,4.8-10.7,10.7-10.7s10.7,4.8,10.7,10.7s-4.8,10.7-10.7,10.7C448.2,351.8,443.4,347,443.4,341.1z M195.5,148l-6,1.5l2.3-3.8
		L195.5,148z M198.9,162.7l-2.3,3.7l-3.7-2.3L198.9,162.7z M202.2,157.3l1,4.3l-4.3,1L202.2,157.3z M189.4,149.5l-3.3,5.3l-1-4.3
		L189.4,149.5z M186.1,154.8l1.4,6.1l-3.8-2.3L186.1,154.8z M202.2,157.3l-1.4-6.1l3.8,2.3L202.2,157.3z M192.9,164l-4.3,1.1
		l-1.1-4.3L192.9,164z M195.5,148l4.3-1l1,4.3L195.5,148z"/>
</g>
</svg>
