<?xml version="1.0" encoding="utf-8"?>
<!-- Generator: Adobe Illustrator 17.1.0, SVG Export Plug-In . SVG Version: 6.00 Build 0)  -->
<!DOCTYPE svg PUBLIC "-//W3C//DTD SVG 1.1//EN" "http://www.w3.org/Graphics/SVG/1.1/DTD/svg11.dtd">
<svg version="1.1" id="Capa_1" xmlns="http://www.w3.org/2000/svg" xmlns:xlink="http://www.w3.org/1999/xlink" x="0px" y="0px"
	 viewBox="0 0 800 800" enable-background="new 0 0 800 800" xml:space="preserve">
<g>
	<g>
		<path fill="#FFFFFF" d="M727.7,492l-45.9-11.2c-41.1-10-77.7-58.9-92.2-98.7c-39.9-109.7,16-223.5,37.3-260.7
			c1.9-3.3,2.4-7.3,1.3-11c-1.1-3.7-3.6-6.8-6.9-8.6L434.9,1.7c-4-2.2-8.9-2.3-13-0.2c-4.1,2-7,5.9-7.7,10.4
			c-9.9,59.8-51.7,130.8-80.2,169.6l92.5,49.3c14.5,7.8,25.4,21.3,29.9,37.1c4.5,15.8,2.5,33-5.7,47.3
			c-12.1,21.3-43.2,82.1-44.9,149.5l3,1.9c32.8,20.7,57.7,51.7,70.8,88.2c10.4,29.1,32.4,52.7,60.7,65.2
			c28.3,12.5,59.2,8.8,89.1,0.8c28.5-7.6,106.6-24.6,106.6-24.6c17.5-3.8,27.9-20.2,32.2-37.7C775.3,529,757.2,499.2,727.7,492z"/>
	</g>
	<path fill="#FFFFFF" d="M510.5,662.4l-45.9-11.2c-41.1-10-77.7-58.9-92.2-98.7c-39.9-109.7,16.1-223.6,37.3-260.7
		c1.9-3.3,2.4-7.3,1.3-11c-1.1-3.7-3.6-6.8-6.9-8.6L217.7,172.1c-2.1-1.1-4.4-1.7-6.7-1.7c-2.1,0-4.3,0.5-6.3,1.5
		c-4.1,2-7,5.9-7.7,10.4c-10.6,64.3-40.1,115.5-68.3,151.7c44.6,35.4,73.2,90,73.2,151.2c0,49-18.3,93.7-48.5,127.8l38.1,24
		c32.8,20.7,57.7,51.7,70.8,88.2c10.4,29.1,32.4,52.7,60.7,65.2c14.5,6.4,30,9.6,45.5,9.6c28.2,0,59.4-6.6,150.2-33.3
		c20.4-6.3,27.9-20.2,32.2-37.7C558.2,699.4,540.1,669.6,510.5,662.4z"/>
	<path fill="#FFFFFF" d="M97.6,369.3c-9.7,9.8-18,17-23.4,21.5c-2.4,1.7-4.7,3.6-7,5.5c-25.5,22-39,54.8-36.5,88.3
		c2.5,33.6,20.8,63.9,49.3,81.9l33.1,20.9c25.9-26.4,41.9-62.5,41.9-102.2C154.9,438,132.4,396,97.6,369.3z"/>
</g>
</svg>
