<?xml version="1.0" encoding="utf-8"?>
<!-- Generator: Adobe Illustrator 17.1.0, SVG Export Plug-In . SVG Version: 6.00 Build 0)  -->
<!DOCTYPE svg PUBLIC "-//W3C//DTD SVG 1.1//EN" "http://www.w3.org/Graphics/SVG/1.1/DTD/svg11.dtd">
<svg version="1.1" id="Capa_1" xmlns="http://www.w3.org/2000/svg" xmlns:xlink="http://www.w3.org/1999/xlink" x="0px" y="0px"
	 viewBox="0 0 800 800" enable-background="new 0 0 800 800" xml:space="preserve">
<g>
	<path fill="#FFFFFF" d="M779.2,213.9H20.8c-8.4,43.2-15.7,83-20.6,113.5c-0.7,4.5,0.4,9,3.1,12.7c2.7,3.6,6.8,5.9,11.3,6.6
		c144.7,23.8,300.9,207,324.6,331.7c2.3,12.1,12.9,20.9,25.2,20.9h71.3c12.3,0,22.9-8.8,25.2-20.9
		c23.6-124.7,179.9-307.9,324.6-331.7c4.5-0.7,8.5-3,11.3-6.6c2.7-3.6,3.8-8.2,3.1-12.7C794.9,296.9,787.6,257,779.2,213.9z"/>
	<path fill="#FFFFFF" d="M771.3,173.7c-3.9-19.7-8-39.8-12-59.6c-1.6-7.8-8.5-13.4-16.4-13.4H400H57.1c-7.9,0-14.8,5.6-16.4,13.4
		c-4.1,19.8-8.1,39.8-12,59.6H771.3z"/>
</g>
</svg>
