<?xml version="1.0" encoding="utf-8"?>
<!-- Generator: Adobe Illustrator 17.1.0, SVG Export Plug-In . SVG Version: 6.00 Build 0)  -->
<!DOCTYPE svg PUBLIC "-//W3C//DTD SVG 1.1//EN" "http://www.w3.org/Graphics/SVG/1.1/DTD/svg11.dtd">
<svg version="1.1" id="Capa_1" xmlns="http://www.w3.org/2000/svg" xmlns:xlink="http://www.w3.org/1999/xlink" x="0px" y="0px"
	 viewBox="0 0 481.8 481.8" enable-background="new 0 0 481.8 481.8" xml:space="preserve">
<g>
	<g id="_x31_9_65_">
		<path fill="#FFFFFF" d="M393,206.6c-9.8,0-19.6,1.7-29.2,5l-2,0.7L329.7,154v-25.4h38.5c7.4,0,13.4-6,13.4-13.4s-6-13.4-13.4-13.4
			h-51c-7.4,0-13.4,6-13.4,13.4c0,1.1,0.1,2.2,0.4,3.3l0.1,0.3v25.7H187.2l-9.6-21.5h27.9c7,0,12.7-5.7,12.7-12.7
			c0-7-5.7-12.7-12.7-12.7h-95.1c-7,0-12.7,5.7-12.7,12.7c0,7,5.7,12.7,12.7,12.7h39.3l8.5,19.2L120,212.4l-2-0.7
			c-9.6-3.4-19.4-5-29.2-5c-49,0-88.8,39.8-88.8,88.8c0,49,39.8,88.8,88.8,88.8c43.4,0,80.2-31.1,87.4-74l0.4-2.1h37.8l0.7,0.7
			c5.8,5.5,13.3,8.5,21.3,8.5c17.1,0,30.9-13.9,30.9-30.9c0-2.9-0.4-5.9-1.3-8.7l-0.3-1l51.2-93.1l22.6,41.1l-1.7,1.3
			c-21.4,17-33.7,42.3-33.7,69.5c0,49,39.8,88.8,88.8,88.8s88.8-39.8,88.8-88.8C481.8,246.5,442,206.6,393,206.6z M129.8,247.2
			l2.3,2.2c8.7,8.2,14.9,18.6,17.9,30.2l0.8,3.1h-40.6L129.8,247.2z M150.1,311.3c-7.3,28-32.5,47.5-61.3,47.5
			c-34.9,0-63.4-28.4-63.4-63.4s28.4-63.4,63.4-63.4c5.1,0,10.4,0.7,15.7,2l3.1,0.8l-29.9,54.4c-0.1,0.2-0.2,0.4-0.3,0.6
			c-0.2,0.4-0.4,0.8-0.5,1.2c-0.2,0.5-0.3,0.8-0.4,1.2c-0.1,0.4-0.2,0.7-0.2,1.2c-0.1,0.5-0.1,0.9-0.1,1.3l0,0.1
			c0,0.2,0,0.3-0.1,0.5l0,0.1l0,0c0,0.1,0,0.3,0,0.4c0,0.5,0.1,1,0.1,1.5c0.1,0.3,0.1,0.7,0.2,1.1c0.1,0.4,0.2,0.8,0.4,1.2
			c0.1,0.5,0.3,0.8,0.5,1.2c0.2,0.3,0.3,0.7,0.5,1l0.1,0.1c0.2,0.4,0.4,0.7,0.6,0.9c0.2,0.3,0.5,0.6,0.8,1c0.3,0.3,0.5,0.6,0.8,0.9
			c0.3,0.3,0.6,0.5,1,0.8c0.3,0.2,0.7,0.5,1,0.7l0.1,0.1c0.1,0.1,0.2,0.1,0.3,0.2l0.1,0.1c0.2,0.1,0.4,0.1,0.6,0.3
			c0.3,0.2,0.7,0.3,1.1,0.5c0.5,0.2,0.9,0.3,1.3,0.4c0.3,0.1,0.6,0.1,1.1,0.2c0.5,0.1,1,0.1,1.4,0.1c0.1,0,0.3,0,0.6,0l62.1,0
			L150.1,311.3z M212.5,266.7c-3.3,4-5.6,8.9-6.6,14l-0.4,2h-29l-0.4-2.1c-3.6-21.6-15.1-41-32.3-54.7l-1.7-1.3l29.2-53l42.1,93.8
			L212.5,266.7z M247.3,257.4l-1.9-0.6c-2.2-0.7-4.6-1.1-7-1.3l-1.5-0.1l-38.3-85.5h96.9L247.3,257.4z M393,358.8
			c-34.9,0-63.4-28.4-63.4-63.4c0-17.5,7.1-33.9,19.9-46l2.4-2.2l29.9,54.4c2.2,4.1,6.5,6.6,11.1,6.6c2.2,0,4.2-0.5,6.1-1.6
			c3-1.6,5.1-4.3,6.1-7.6c0.9-3.3,0.6-6.7-1.1-9.7l-29.9-54.4l3.1-0.8c5.3-1.4,10.6-2,15.7-2c34.9,0,63.4,28.4,63.4,63.4
			C456.4,330.3,428,358.8,393,358.8z"/>
	</g>
</g>
</svg>
