<?xml version="1.0" encoding="utf-8"?>
<!-- Generator: Adobe Illustrator 17.1.0, SVG Export Plug-In . SVG Version: 6.00 Build 0)  -->
<!DOCTYPE svg PUBLIC "-//W3C//DTD SVG 1.1//EN" "http://www.w3.org/Graphics/SVG/1.1/DTD/svg11.dtd">
<svg version="1.1" id="Capa_1" xmlns="http://www.w3.org/2000/svg" xmlns:xlink="http://www.w3.org/1999/xlink" x="0px" y="0px"
	 viewBox="0 0 800 800" enable-background="new 0 0 800 800" xml:space="preserve">
<g>
	<g>
		<path fill="#FFFFFF" d="M4.4,295.7l277.6,362.6c10.6,13.9,32.2,0.8,24.9-15.1L140.5,280.6c-2.4-5.2-7.6-8.6-13.3-8.6H16.1
			C3.9,272-3,286,4.4,295.7z"/>
		<path fill="#FFFFFF" d="M797.1,220.4l-52.5-72c-6.6-9-20.4-7.7-25.1,2.5l-33.1,72c-4.5,9.8,2.6,20.9,13.3,20.9h85.6
			C797.3,243.8,804.2,230.2,797.1,220.4z"/>
		<path fill="#FFFFFF" d="M55.7,147.9L2.9,220.4c-7.1,9.7-0.2,23.4,11.8,23.4h86.1c10.7,0,17.8-11.1,13.3-20.9l-33.3-72.5
			C76.2,140.3,62.3,138.9,55.7,147.9z"/>
		<path fill="#FFFFFF" d="M705.9,95.3l-34.7-47.6c-2.8-3.8-7.2-6-11.8-6H462.5c-13.6,0-19.9,17-9.5,25.9
			c59.5,50.8,139.9,119.2,182.2,155.2c7.4,6.3,18.7,3.7,22.7-5.1l49.4-107.5C709.6,105.3,709,99.6,705.9,95.3z"/>
		<path fill="#FFFFFF" d="M338.2,41.6H140.6c-4.7,0-9.1,2.2-11.8,6L94.4,94.8c-3.1,4.3-3.7,10-1.5,14.8l49.6,108
			c4,8.8,15.3,11.4,22.7,5.1c42.5-36.1,123.5-104.9,182.4-155.2C358.1,58.7,351.8,41.6,338.2,41.6z"/>
		<path fill="#FFFFFF" d="M177.1,292.9l209.7,456.9c5.2,11.4,21.4,11.4,26.6,0l210-456.9c4.5-9.8-2.6-20.9-13.3-20.9H190.4
			C179.7,272,172.6,283.1,177.1,292.9z"/>
		<path fill="#FFFFFF" d="M586.2,217.9c-52.4-44.6-127.4-108.5-176.4-150.3c-5.5-4.7-13.4-4.7-18.9,0
			c-48,41.1-123.7,105.4-176.5,150.3c-10.4,8.8-4.2,25.9,9.5,25.9h352.8C590.3,243.8,596.6,226.8,586.2,217.9z"/>
		<path fill="#FFFFFF" d="M518.6,657.5l277-361.8C803,286,796.1,272,784,272H673.2c-5.7,0-10.9,3.3-13.3,8.5L493.7,642.4
			C486.3,658.3,507.9,671.4,518.6,657.5z"/>
	</g>
</g>
</svg>
