<?xml version="1.0" encoding="utf-8"?>
<!-- Generator: Adobe Illustrator 17.1.0, SVG Export Plug-In . SVG Version: 6.00 Build 0)  -->
<!DOCTYPE svg PUBLIC "-//W3C//DTD SVG 1.1//EN" "http://www.w3.org/Graphics/SVG/1.1/DTD/svg11.dtd">
<svg version="1.1" id="Capa_1" xmlns="http://www.w3.org/2000/svg" xmlns:xlink="http://www.w3.org/1999/xlink" x="0px" y="0px"
	 viewBox="0 0 800 800" enable-background="new 0 0 800 800" xml:space="preserve">
<path fill="#FFFFFF" d="M798.1,462.2L682.6,230.9c2.5-3.3,4.1-7.3,4.1-11.8c0-10.7-8.7-19.4-19.4-19.4H449.2
	c9.4-3,16.2-11.8,16.2-22.2l0,0c0-12.9-10.5-23.4-23.4-23.4h-8.6c12.7-10,21-25.4,21-42.8c0-30-24.4-54.4-54.4-54.4
	c-30,0-54.4,24.4-54.4,54.4c0,17.4,8.2,32.9,21,42.8H358c-12.9,0-23.4,10.5-23.4,23.4l0,0c0,10.4,6.8,19.2,16.2,22.2H134.9l0-0.1
	l0,0.1h-2.1c-10.7,0-19.4,8.7-19.4,19.4c0,5.1,2,9.7,5.3,13.2L1.9,466c-1.8,3.6-2.3,7.6-1.7,11.3c-0.1,0.7-0.1,1.5,0,2.2
	c6.6,68.6,64.3,122.2,134.6,122.2s128-53.6,134.6-122.2c0.1-0.8,0-1.5,0-2.2c0.6-3.7,0.1-7.7-1.7-11.3L154.2,238.5h219.7v446.6
	H193.7c-21.7,0-39.2,17.6-39.2,39.2c0,10.3,8.4,18.7,18.7,18.7h453.7c10.3,0,18.7-8.4,18.7-18.7c0-21.7-17.6-39.2-39.2-39.2H426.1
	V238.5h217.8L532.3,462.2c-1.8,3.6-2.3,7.6-1.7,11.3c-0.1,0.7-0.1,1.5,0,2.2c6.6,68.6,64.3,122.2,134.6,122.2
	c70.3,0,128-53.6,134.6-122.2c0.1-0.8,0-1.5,0-2.2C800.4,469.8,799.9,465.9,798.1,462.2z M43.5,466.5l91.4-183.1l91.4,183.1H43.5z
	 M573.8,462.7l91.4-183.1l91.4,183.1H573.8z"/>
</svg>
