<?xml version="1.0" encoding="utf-8"?>
<!-- Generator: Adobe Illustrator 17.1.0, SVG Export Plug-In . SVG Version: 6.00 Build 0)  -->
<!DOCTYPE svg PUBLIC "-//W3C//DTD SVG 1.1//EN" "http://www.w3.org/Graphics/SVG/1.1/DTD/svg11.dtd">
<svg version="1.1" id="Capa_1" xmlns="http://www.w3.org/2000/svg" xmlns:xlink="http://www.w3.org/1999/xlink" x="0px" y="0px"
	 viewBox="0 0 800 800" enable-background="new 0 0 800 800" xml:space="preserve">
<g>
	<g>
		<path fill="#FFFFFF" d="M296,564.2c-12.8-5.1-26.3-3.6-38.3,3.7c-8.5-11.1-20.7-17.4-34.4-17.1c-19.4,0.3-36.9,13.5-43.7,32.9
			c-5.2,14.9-10.7,54.9,50,104.2c2.3,1.8,5,2.7,7.7,2.7l0-0.1l0,0.1c1.3,0,2.5-0.2,3.8-0.6c74.2-24.4,83.4-63.7,83.8-79.5
			C325.7,590,314,571.4,296,564.2z M239.9,664.6c-30.2-26.1-44-53-37.2-72.8c3.9-11.2,13.3-16.4,20.9-16.5
			c8.4-0.1,15.2,5.5,19.2,15.8l0,0c0.7,1.8,1.8,3.5,3.3,4.8c5,4.5,12.8,4,17.3-1c7.3-8.2,15.7-11,23.5-7.9c7.1,2.8,14,11,13.6,22.9
			C299.9,630.8,277.4,651,239.9,664.6z"/>
		<path fill="#FFFFFF" d="M300.1,213.6c-12.4-5.9-26.1-5.3-38.4,1.2c-7.8-11.6-19.5-18.6-33.2-19.3c-19.3-1-37.7,11.1-45.7,30
			c-6.1,14.6-14.2,54.1,43.1,107.2c2.4,2.2,5.3,3.3,8.3,3.3l0-0.1l0,0.1c1,0,2-0.1,3.1-0.4c75.6-19.5,87.3-58.1,88.9-73.8
			C328,241.3,317.6,222,300.1,213.6z M301.7,259.4c-2,20.9-25.8,39.6-64.1,50.7c-28.4-28-40.5-55.8-32.3-75.1
			c4.6-11,14.3-15.5,21.9-15.1c8.4,0.4,14.9,6.5,18.1,17l0.1,0c0.6,1.8,1.5,3.6,2.9,5c4.7,4.8,12.5,4.9,17.3,0.1
			c7.8-7.7,16.4-10,24-6.4C296.4,239,302.9,247.6,301.7,259.4z"/>
		<path fill="#FFFFFF" d="M620.2,583.8c-6.7-19.4-24.3-32.7-43.7-32.9c-13.8-0.2-25.9,6-34.4,17.1c-11.9-7.3-25.4-8.8-38.2-3.7
			c-18,7.2-29.7,25.8-29.1,46.3c0.5,15.8,9.6,55.1,83.8,79.5c1.3,0.4,2.6,0.6,3.8,0.6l0,0c2.7,0,5.4-0.9,7.7-2.7
			C630.9,638.7,625.4,598.7,620.2,583.8z M560,664.6c-37.5-13.6-60-33.8-60.6-54.8c-0.4-11.9,6.6-20,13.6-22.9
			c7.7-3.1,15.9-0.4,23.2,7.6c1.3,1.6,3,2.9,5.1,3.7c6.3,2.4,13.4-0.8,15.8-7.1c3.9-10.2,10.6-15.8,18.9-15.8c0.1,0,0.2,0,0.3,0
			c7.6,0.1,17,5.2,20.9,16.5C604,611.6,590.1,638.5,560,664.6z"/>
		<path fill="#FFFFFF" d="M617.2,225.6c-8-18.9-26.4-31-45.7-30c-13.7,0.7-25.4,7.7-33.2,19.3c-12.4-6.5-26-7.1-38.4-1.2
			c-17.5,8.3-27.9,27.7-26,48.1c1.5,15.7,13.2,54.4,88.9,73.8c1,0.3,2,0.4,3,0.4l0,0c3,0,6-1.1,8.3-3.3
			C631.4,279.7,623.3,240.1,617.2,225.6z M562.3,310.1c-38.3-11.1-62.1-29.8-64.1-50.7c-1.1-11.8,5.3-20.4,12.1-23.7
			c7.5-3.6,15.8-1.4,23.6,6c1.4,1.5,3.2,2.7,5.4,3.4c6.5,2,13.3-1.7,15.3-8.1c3.2-10.5,9.6-16.6,18.1-17c7.6-0.4,17.3,4.1,21.9,15.1
			C602.8,254.4,590.7,282.2,562.3,310.1z"/>
		<path fill="#FFFFFF" d="M731.5,154.8V76.5c0-6.8-5.5-12.2-12.2-12.2c-0.5,0-102.7,11.8-319.2,11.8c-216.2,0-318.7-11.8-319.2-11.8
			c-6.8,0-12.2,5.5-12.2,12.2v78.3C0.8,326.4,0,707.3,0,723.5c0,6.8,5.5,12.2,12.2,12.2h323.5c5.3,0,10.1-3.5,11.7-8.5l52.6-166
			l52.6,166c1.6,5.1,6.3,8.5,11.7,8.5h323.5c6.8,0,12.2-5.5,12.2-12.2C800,707.3,799.2,326.4,731.5,154.8z M670.7,711.3
			c-6.5-15.9-6.1-30.3,1.2-40c5.3-7,13.6-10.6,21.2-9.2c7.4,1.4,13,7.5,15.7,17.2l0.1,0c0.5,1.8,1.4,3.6,2.8,5.1
			c4.6,4.9,12.4,5.2,17.3,0.5c9.3-8.8,19.7-10.1,27.7-3.5c7,5.8,11.1,17.1,5.8,29.8L670.7,711.3L670.7,711.3z M722.9,206.3
			c-8.9,5.9-19.7,11.3-32.2,15.9c-19-16.1-31.6-32.6-36.8-47.7c27.9-1.7,46.9-3.3,57.3-4.3C715.3,181.5,719.2,193.5,722.9,206.3z
			 M93,90c34.3,3.1,134.1,10.5,307,10.5S672.6,93.1,707,90v56.1c-31.1,2.9-130.4,10.6-307,10.6c-176.4,0-275.8-7.7-307-10.6
			C93,146.1,93,90,93,90z M432,181.1v234.5c0,17.6-14.3,32-32,32c-17.6,0-32-14.3-32-32V181.1c10.4,0.1,21,0.1,32,0.1
			C411,181.2,421.6,181.2,432,181.1z M88.8,170.3c10.4,1,29.4,2.6,57.3,4.3c-5.1,15.1-17.8,31.6-36.8,47.7
			c-12.5-4.7-23.3-10-32.2-15.9C80.8,193.6,84.7,181.5,88.8,170.3z M129.2,711.3H37.4c-5.3-12.8-1.2-24.1,5.8-29.8
			c8-6.6,18.3-5.3,27.7,3.5l0,0c1.4,1.3,3.1,2.3,5.1,2.9c6.5,1.8,13.3-2,15.1-8.5c2.7-9.7,8.3-15.8,15.7-17.2
			c7.7-1.4,16,2.2,21.2,9.2C135.3,681,135.7,695.3,129.2,711.3z M411.7,517L411.7,517c-1.2-3.7-4-6.7-8-8c-6.4-2-13.3,1.5-15.4,8
			l-61.6,194.3H155c6-20.7,3.6-40-7.4-54.6c-10.8-14.4-28.6-21.7-45.3-18.6c-11.8,2.2-21.6,9.1-28.2,19.5c-17.3-8.6-34.9-4.5-46.5,5
			c-0.8,0.6-1.5,1.3-2.2,2c0.8-29,2.1-66.8,4.5-109.2c10.2,16.2,30.1,34.6,68.5,49.9c1.5,0.6,3,0.9,4.5,0.9l0-0.1l0,0.1
			c2.5,0,4.9-0.7,7.1-2.3c63.6-45.3,60.7-85.6,56.5-100.8c-5.5-19.8-22.2-34.1-41.5-35.6c-13.7-1.1-26.2,4.4-35.4,14.9
			c-11.4-8.1-24.9-10.4-38-6.1c-6.5,2.1-12.3,5.8-17.1,10.4c2.7-34.2,6-69.8,10.2-105c6.8,12.8,17.2,27,32.7,42.6
			c2.4,2.4,5.5,3.6,8.6,3.6v0c0.9,0,1.7-0.1,2.6-0.3c76.3-16.6,89.5-54.7,91.6-70.4c2.8-20.4-6.9-40.1-24.1-49.1
			c-12.2-6.4-25.8-6.3-38.4-0.3c-7.3-11.9-18.7-19.4-32.5-20.6c-9.8-0.9-19.5,1.6-27.7,6.7c3.9-21.9,8.2-43.1,13-62.9
			c10.7,6.3,23.2,11.8,37.2,16.6c1.3,0.4,2.6,0.6,3.9,0.6l0,0l0,0c2.7,0,5.4-0.9,7.6-2.7c34.1-27.1,47.3-51.5,51.8-69.7
			c42.2,2.2,99.4,4.2,172.4,4.9v217.6c-9.1-12.2-23.3-19.6-38.3-19.2c-13.8,0.4-25.6,7-33.7,18.5c-12.2-6.9-25.8-7.8-38.4-2.2
			c-17.7,7.9-28.6,27-27.2,47.5c1.1,15.8,11.8,54.7,87,76.1c1.1,0.3,2.2,0.5,3.4,0.5l0,0l0,0c2.9,0,5.8-1,8.1-3
			c31.4-27.6,43.9-51.9,47.9-70.7c10,15.7,27.6,26.2,47.6,26.2c20,0,37.5-10.4,47.6-26.1c4,18.8,16.6,43,47.9,70.6
			c2.3,2,5.2,3,8.1,3l0.1-0.2l0,0.2c1.1,0,2.2-0.2,3.3-0.5c75.1-21.4,85.8-60.3,87-76.1c1.5-20.5-9.5-39.6-27.2-47.5
			c-12.6-5.6-26.2-4.7-38.4,2.2c-8.1-11.5-19.9-18.2-33.7-18.5c-15-0.4-29.1,7-38.2,19.1V180.9c72.9-0.7,130.1-2.8,172.3-4.9
			c4.5,18.2,17.8,42.6,51.8,69.7c2.3,1.8,4.9,2.7,7.6,2.7l0,0l0,0c1.3,0,2.6-0.2,3.9-0.6c14.1-4.8,26.5-10.4,37.2-16.7
			c4.8,19.8,9.2,41,13.1,63c-8.3-5.1-18-7.6-27.8-6.7c-13.7,1.2-25.1,8.7-32.5,20.6c-12.6-6.1-26.2-6.1-38.4,0.3
			c-17.2,9-26.9,28.7-24.1,49.1c2.1,15.6,15.3,53.8,91.6,70.4c0.9,0.2,1.7,0.3,2.6,0.3v0c3.1,0,6.3-1.2,8.6-3.6
			c15.5-15.5,25.9-29.8,32.7-42.6c4.2,35.2,7.6,70.8,10.2,105.1c-4.9-4.7-10.7-8.4-17.3-10.6c-13.1-4.3-26.5-1.9-37.9,6.1
			c-9.2-10.5-21.7-16-35.4-14.9c-19.3,1.5-36,15.8-41.5,35.6c-4.2,15.2-7.2,55.5,56.5,100.8c2.1,1.5,4.6,2.3,7.1,2.3l0,0
			c1.5,0,3-0.3,4.5-0.9c38.5-15.4,58.4-33.8,68.6-50.1c2.4,42.5,3.7,80.4,4.5,109.4c-0.7-0.7-1.5-1.4-2.3-2
			c-11.6-9.5-29.2-13.6-46.5-5c-6.6-10.4-16.4-17.3-28.2-19.5c-16.7-3.1-34.5,4.2-45.3,18.6c-11,14.7-13.4,34-7.4,54.6H473.2
			L411.7,517z M44.2,521.4c0.4-11.9,7.8-19.6,15.1-21.9c8-2.6,16.2,0.7,23,9.4l0,0c1.2,1.5,2.7,2.8,4.6,3.6
			c6.2,2.8,13.4,0.1,16.2-6.1c4.5-10,11.7-15.2,20.1-14.5c7.6,0.6,16.6,6.3,19.8,17.8c5.6,20.2-9.9,46.2-41.7,70.3
			C64.7,564,43.5,542.4,44.2,521.4z M60.6,325.9c5-10.8,14.9-14.9,22.5-14.2c8.4,0.8,14.6,7,17.4,17.7l0,0c0.5,1.9,1.4,3.6,2.7,5.1
			c4.6,5,12.3,5.3,17.3,0.8c8.1-7.4,16.7-9.4,24.2-5.5c6.7,3.5,12.8,12.4,11.2,24.1c-2.8,20.8-27.3,38.6-66,48.2
			C62.7,373.1,51.7,344.9,60.6,325.9z M293.3,493.7c-38-12.1-61.3-31.4-62.8-52.3c-0.8-11.9,5.8-20.3,12.7-23.4
			c7.7-3.4,16.2-1,23.8,7l0,0c1.3,1.4,3,2.5,4.9,3.1c6.4,2.1,13.3-1.3,15.5-7.7c3.5-10.4,10.1-16.3,18.5-16.5
			c7.6-0.2,17.2,4.6,21.5,15.6C335.1,438.9,322.4,466.4,293.3,493.7z M472.5,419.4c4.3-11.1,14-15.8,21.5-15.6
			c8.4,0.2,15,6.1,18.5,16.5l0.2-0.1c0.6,1.8,1.6,3.6,3.1,5c4.9,4.7,12.6,4.5,17.3-0.3c7.6-7.9,16.1-10.4,23.8-7
			c6.9,3.1,13.6,11.5,12.7,23.4c-1.5,20.9-24.8,40.3-62.9,52.3C477.6,466.4,464.8,439,472.5,419.4z M709.9,402.1
			c-38.7-9.6-63.2-27.4-66-48.2c-1.6-11.8,4.5-20.6,11.2-24.1c7.5-3.9,16.1-2,24.2,5.4l0,0c1.4,1.3,3.1,2.3,5.1,2.8
			c6.5,1.7,13.2-2.2,15-8.7c2.8-10.6,9-16.9,17.4-17.7c7.6-0.7,17.5,3.5,22.5,14.2C748.2,344.9,737.2,373.1,709.9,402.1z
			 M755.7,521.4c0.7,21-20.5,42.6-57.1,58.5c-31.7-24.1-47.3-50.1-41.6-70.3c3.2-11.5,12.2-17.2,19.8-17.8
			c8.3-0.6,15.3,4.4,19.9,14.1c0.8,1.9,2,3.7,3.8,5c5.3,4.2,13,3.2,17.2-2.1c6.8-8.7,14.9-12,23-9.4
			C747.9,501.8,755.3,509.5,755.7,521.4z"/>
	</g>
</g>
</svg>
