<?xml version="1.0" encoding="utf-8"?>
<!-- Generator: Adobe Illustrator 17.1.0, SVG Export Plug-In . SVG Version: 6.00 Build 0)  -->
<!DOCTYPE svg PUBLIC "-//W3C//DTD SVG 1.1//EN" "http://www.w3.org/Graphics/SVG/1.1/DTD/svg11.dtd">
<svg version="1.1" id="Capa_1" xmlns="http://www.w3.org/2000/svg" xmlns:xlink="http://www.w3.org/1999/xlink" x="0px" y="0px"
	 viewBox="0 0 800 800" enable-background="new 0 0 800 800" xml:space="preserve">
<g>
	<path fill="#FFFFFF" d="M720,160h-40v600h40c44,0,80-36,80-80V240C800,196,764,160,720,160z M0,240v440c0,44,36,80,80,80h40V160H80
		C36,160,0,196,0,240z M536,76.3C508.8,63.6,465.3,40,400,40S291.2,63.6,264,76.3V160h-88v600h448V160h-88V76.3z M488,160H312v-53.4
		c21.3-9.2,51.9-18.6,88-18.6s66.7,9.4,88,18.6V160z"/>
</g>
</svg>
