<?xml version="1.0" encoding="utf-8"?>
<!-- Generator: Adobe Illustrator 17.1.0, SVG Export Plug-In . SVG Version: 6.00 Build 0)  -->
<!DOCTYPE svg PUBLIC "-//W3C//DTD SVG 1.1//EN" "http://www.w3.org/Graphics/SVG/1.1/DTD/svg11.dtd">
<svg version="1.1" id="Capa_1" xmlns="http://www.w3.org/2000/svg" xmlns:xlink="http://www.w3.org/1999/xlink" x="0px" y="0px"
	 viewBox="0 0 800 800" enable-background="new 0 0 800 800" xml:space="preserve">
<g>
	<path fill="#FFFFFF" d="M142.3,509.8h358.9c57.8,0,105.1-47.3,105.1-105.1v-33.1h136.1c27.1,0,49.3-22.2,49.3-49.3v-92
		c0-27.1-22.2-49.3-49.3-49.3H606.4v-25.1H37.2v248.8C37.2,462.5,84.5,509.8,142.3,509.8z M685.8,228.6h4.9
		c27.1,0,49.3,21.4,49.3,47.6c0,26.2-22.2,47.6-49.3,47.6h-4.9c-27.1,0-49.3-21.4-49.3-47.6C636.5,250,658.7,228.6,685.8,228.6z"/>
	<path fill="#FFFFFF" d="M750.7,552H49.3C22.2,552,0,572.7,0,598.1c0,25.4,22.2,46.1,49.3,46.1h701.4c27.1,0,49.3-20.7,49.3-46.1
		C800,572.7,777.8,552,750.7,552z"/>
</g>
</svg>
