<?xml version="1.0" encoding="utf-8"?>
<!-- Generator: Adobe Illustrator 17.1.0, SVG Export Plug-In . SVG Version: 6.00 Build 0)  -->
<!DOCTYPE svg PUBLIC "-//W3C//DTD SVG 1.1//EN" "http://www.w3.org/Graphics/SVG/1.1/DTD/svg11.dtd">
<svg version="1.1" id="Capa_1" xmlns="http://www.w3.org/2000/svg" xmlns:xlink="http://www.w3.org/1999/xlink" x="0px" y="0px"
	 viewBox="0 0 67.7 67.7" enable-background="new 0 0 67.7 67.7" xml:space="preserve">
<g>
	<g>
		<g>
			<path fill="#FFFFFF" d="M45.8,7.4c1.1-1.8,2.3-2.7,3.1-2.7c1,0,2.3,0.7,3.4,1.8c1.6-0.5,3.3-1,4.8-1.7c-2.5-3.2-5.6-5-8.6-4.8
				C45,0.2,42,3.6,40.2,8.4c1.8-0.1,3.6-0.2,5.3-0.5C45.6,7.8,45.7,7.6,45.8,7.4z"/>
		</g>
		<g>
			<path fill="#FFFFFF" d="M56.2,13.4c1.5-0.6,3-1.3,4.3-2c-0.6-1.9-1.4-3.6-2.4-5.1c-1.4,0.6-2.9,1.2-4.5,1.7
				C54.6,9.3,55.5,11.1,56.2,13.4z"/>
		</g>
		<g>
			<path fill="#FFFFFF" d="M44.6,9.8c-1.6,0.2-3.3,0.3-5.1,0.3c-0.6,2-0.9,4.2-1,6.5c1.6,0,3.2-0.1,4.7-0.2
				C43.4,14,43.9,11.7,44.6,9.8z"/>
		</g>
		<g>
			<path fill="#FFFFFF" d="M43.3,18.2c-1.5,0.1-3.1,0.2-4.7,0.2c0,1.7,0.2,3.5,0.6,5.2c1.6,0,3.2-0.1,4.7-0.3
				C43.5,21.6,43.3,19.9,43.3,18.2z"/>
		</g>
		<g>
			<path fill="#FFFFFF" d="M57.2,19.9c1.6-0.7,3.1-1.5,4.5-2.3c-0.2-1.6-0.4-3.1-0.8-4.5c-1.4,0.7-2.8,1.4-4.4,2
				C56.9,16.6,57.1,18.2,57.2,19.9z"/>
		</g>
		<g>
			<path fill="#FFFFFF" d="M46.4,30c-0.4-0.9-0.8-1.8-1.2-2.8c-0.3-0.7-0.6-1.4-0.8-2.2c-1.6,0.2-3.2,0.3-4.8,0.3
				c0.4,1.3,0.8,2.5,1.3,3.8c0.2,0.5,0.4,1,0.6,1.4C43.2,30.5,44.8,30.3,46.4,30z"/>
		</g>
		<g>
			<path fill="#FFFFFF" d="M57.2,21.9c0,1.2-0.1,2.5-0.4,3.8c-0.1,0.5-0.2,1-0.3,1.6c1.8-0.8,3.5-1.6,5.1-2.6
				c0.2-1.8,0.3-3.5,0.2-5.1C60.4,20.4,58.8,21.2,57.2,21.9z"/>
		</g>
		<g>
			<path fill="#FFFFFF" d="M18.8,14c0.8,0,2,0.9,3.1,2.7c0.1,0.2,0.2,0.3,0.3,0.5c1.7,0.2,3.5,0.4,5.3,0.5c-1.8-4.8-4.9-8.2-8.3-8.4
				c-3-0.2-6.1,1.6-8.6,4.8c1.5,0.6,3.1,1.2,4.8,1.7C16.6,14.7,17.8,14,18.8,14z"/>
		</g>
		<g>
			<path fill="#FFFFFF" d="M23.1,19.2c0.7,1.9,1.2,4.1,1.4,6.6c1.5,0.1,3.1,0.2,4.7,0.2c-0.1-2.3-0.5-4.5-1-6.5
				C26.4,19.5,24.7,19.4,23.1,19.2z"/>
		</g>
		<g>
			<path fill="#FFFFFF" d="M14.2,17.3c-1.6-0.5-3.1-1-4.5-1.7c-0.9,1.5-1.8,3.2-2.4,5.1c1.3,0.7,2.8,1.4,4.3,2
				C12.2,20.5,13.2,18.6,14.2,17.3z"/>
		</g>
		<g>
			<path fill="#FFFFFF" d="M11.1,24.4c-1.5-0.6-3-1.3-4.4-2C6.4,23.8,6.2,25.4,6,27c1.4,0.9,2.9,1.6,4.6,2.3
				C10.6,27.5,10.8,25.9,11.1,24.4z"/>
		</g>
		<g>
			<path fill="#FFFFFF" d="M23.8,32.7c1.6,0.2,3.1,0.3,4.7,0.3c0.4-1.8,0.6-3.5,0.6-5.2c-1.6,0-3.1-0.1-4.7-0.2
				C24.5,29.2,24.3,30.9,23.8,32.7z"/>
		</g>
		<g>
			<path fill="#FFFFFF" d="M10.9,35c-0.2-1.3-0.3-2.6-0.4-3.8c-1.7-0.7-3.2-1.4-4.7-2.3c-0.1,1.6,0,3.3,0.2,5.1
				c1.6,1,3.3,1.8,5.1,2.6C11.1,36,11,35.5,10.9,35z"/>
		</g>
		<g>
			<path fill="#FFFFFF" d="M22.6,36.6c-0.4,1-0.8,1.9-1.2,2.8c1.6,0.2,3.2,0.4,4.8,0.5c0.2-0.5,0.4-0.9,0.6-1.4
				c0.6-1.2,1-2.5,1.3-3.8c-1.6,0-3.2-0.2-4.8-0.3C23.1,35.1,22.9,35.8,22.6,36.6z"/>
		</g>
		<g>
			<path fill="#FFFFFF" d="M55.1,25.4c1.3-8.1-0.9-14.1-3.4-17.1c-1.1-1.3-2.2-1.9-2.8-1.9c-0.1,0-0.8,0.5-1.6,1.9
				c-2.5,4.1-3.4,11.6-0.5,18.2c0.8,1.7,1.5,3.3,2,4.9c-2.1,0.4-4.3,0.7-6.5,0.9H49c0.9,2.9,1.2,5.9,0.5,9.5l-6.7,0.5
				c-0.2,0.7-0.5,1.5-0.8,2.3c-3,7.8,1.8,13.9,7.8,13.9c7.1,0,9.8-6.4,9.4-13.3c-0.1-1.4-0.1-2.8,0-4.1l-6.5,0.5
				c0.1-3.3,0.6-6.3,1.1-9.2h6.5c0.3-1.8,0.7-3.5,1-5.4c-2.2,1.2-4.6,2.2-7.1,3.1C54.6,28.4,54.9,26.9,55.1,25.4z"/>
		</g>
		<g>
			<path fill="#FFFFFF" d="M25,51.6l-6.7-0.5c-0.7-3.6-0.4-6.5,0.5-9.5h6.8c-2.2-0.2-4.4-0.5-6.5-0.9c0.5-1.6,1.2-3.2,2-4.9
				c2.9-6.5,2-14.1-0.5-18.2c-0.9-1.4-1.6-1.9-1.8-1.9c-0.4,0-1.5,0.6-2.6,1.9c-2.5,2.9-4.7,8.9-3.4,17.1c0.3,1.6,0.5,3.1,0.8,4.6
				c-2.6-0.8-4.9-1.9-7.1-3.1c0.3,1.9,0.7,3.7,1,5.4h6.5c0.6,2.9,1,5.9,1.1,9.2l-6.5-0.5c0.1,1.3,0.1,2.7,0,4.1
				c-0.5,6.8,2.3,13.3,9.4,13.3c6,0,10.8-6.1,7.8-13.9C25.4,53,25.2,52.3,25,51.6z"/>
		</g>
	</g>
</g>
</svg>
