<?xml version="1.0" encoding="utf-8"?>
<!-- Generator: Adobe Illustrator 17.1.0, SVG Export Plug-In . SVG Version: 6.00 Build 0)  -->
<!DOCTYPE svg PUBLIC "-//W3C//DTD SVG 1.1//EN" "http://www.w3.org/Graphics/SVG/1.1/DTD/svg11.dtd">
<svg version="1.1" id="Capa_1" xmlns="http://www.w3.org/2000/svg" xmlns:xlink="http://www.w3.org/1999/xlink" x="0px" y="0px"
	 viewBox="0 0 800 800" enable-background="new 0 0 800 800" xml:space="preserve">
<g>
	<g>
		<path fill="#FFFFFF" d="M697.2,147.7c0,0-128.5,122.1-268.6,393.5c0,0-45,81.6-113.9,81.1c0,0-67.9,0-93.8-62.9
			c0,0-226.4,60.3-220.9,131.4c0,0,1.3,46.1,77.9,46.1h270.3c0,0,83.2,1.8,112.7-38.6c0,0,58-74.6,119.3-176.4
			c0,0,25-41.7,54.5-41.7c0,0,34.8-2.3,34.8,49.2V737h47.8V526.2c0,0,82.4-118.2,82.4-204.7C799.9,321.6,806.5,166.5,697.2,147.7z"
			/>
		<path fill="#FFFFFF" d="M213.6,423.6L344,411.7c7.4-0.7,13.3-6.6,14-14l11.9-130.4c0.4-4.6-1.2-9.1-4.5-12.3L177.9,67.5
			c-6-6-15.8-6-21.9,0L13.8,209.7c-6,6-6,15.8,0,21.9l187.5,187.5C204.5,422.3,209,424,213.6,423.6z M268.9,322.7
			c12.5-12.5,32.7-12.5,45.1,0c12.5,12.5,12.5,32.7,0,45.1s-32.7,12.5-45.1,0C256.5,355.3,256.5,335.1,268.9,322.7z"/>
	</g>
</g>
</svg>
