<?xml version="1.0" encoding="utf-8"?>
<!-- Generator: Adobe Illustrator 17.1.0, SVG Export Plug-In . SVG Version: 6.00 Build 0)  -->
<!DOCTYPE svg PUBLIC "-//W3C//DTD SVG 1.1//EN" "http://www.w3.org/Graphics/SVG/1.1/DTD/svg11.dtd">
<svg version="1.1" id="Capa_1" xmlns="http://www.w3.org/2000/svg" xmlns:xlink="http://www.w3.org/1999/xlink" x="0px" y="0px"
	 viewBox="0 0 62.1 62.1" enable-background="new 0 0 62.1 62.1" xml:space="preserve">
<g>
	<g>
		<path fill="#FFFFFF" d="M15.5,41.6c0,0,1.9-2.2,3.7-2.3c1.8-0.1,11.1,3.6,20.3,2.6c9.3-1,17.4-4.2,22.3-8c0,0,0.6-1,0.1-2.9
			l-0.4,0c-1.2,1-11.5,8.7-24.8,8.7c-0.9,0-1.9,0-2.8-0.1c-6.4-0.5-9.9-1.4-11.9-1.9c-1.1-0.3-1.8-0.4-2.4-0.4c-0.8,0-1.5,0.3-3,1.3
			l-0.3,0.2l-0.3,0l-15.2-1c-0.3,1-0.5,2.4,0.1,3.3C1.7,42.6,15.5,41.6,15.5,41.6z"/>
		<path fill="#FFFFFF" d="M0.9,36.8l15,1c1.7-1.1,2.6-1.5,3.6-1.5c2,0,4.6,1.5,14.5,2.3c0.9,0.1,1.8,0.1,2.7,0.1
			c10.6,0,19.4-5.2,22.8-7.5c1-0.7,1.5-1.1,1.5-1.1s-2.4-2.8-8.5-2.8c-2.8,0-5.1,0.1-7,0.1c-2.2,0-3.6-0.2-4-0.9
			c-0.8-1.3-5.8-2.8-5.8-2.8c-1.6-3.5-8.4-3.9-11.6-3.9c-1.1,0-1.7,0-1.7,0v3.5c-2.5,2-5.4,2.7-8.2,2.7c-5.6,0-10.6-2.7-10.6-2.7
			c-5,4.8-3.2,13.1-3.2,13.1L0.9,36.8z M25.9,27l2.2-3.7c0.2-0.3,0.4-0.4,0.7-0.5c0.3-0.1,0.6,0,0.9,0.1l1.5,0.9
			c0.2-0.2,0.4-0.2,0.6-0.1c0.2,0.1,0.3,0.4,0.2,0.6l1.5,0.9c0.5,0.3,0.7,1,0.4,1.6l-2.2,3.7c-0.2,0.3-0.4,0.4-0.7,0.5
			c-0.1,0-0.2,0-0.3,0c-0.2,0-0.4-0.1-0.6-0.2l0.3-0.4l0.3-0.4c0,0,0.1,0,0.1,0l2.2-3.7c0,0,0-0.1,0-0.1l-1.5-0.9l-0.9,1.6
			C30.5,27,30.3,27,30.1,27c-0.1,0-0.2,0-0.3-0.1c-0.2-0.1-0.3-0.5-0.2-0.7l0.9-1.6l-1.5-0.9l-0.1,0l-2.2,3.7c0,0,0,0.1,0,0.1
			l-0.3,0.4l-0.3,0.4C25.8,28.2,25.6,27.5,25.9,27z"/>
	</g>
</g>
</svg>
