<?xml version="1.0" encoding="utf-8"?>
<!-- Generator: Adobe Illustrator 17.1.0, SVG Export Plug-In . SVG Version: 6.00 Build 0)  -->
<!DOCTYPE svg PUBLIC "-//W3C//DTD SVG 1.1//EN" "http://www.w3.org/Graphics/SVG/1.1/DTD/svg11.dtd">
<svg version="1.1" id="Capa_1" xmlns="http://www.w3.org/2000/svg" xmlns:xlink="http://www.w3.org/1999/xlink" x="0px" y="0px"
	 viewBox="0 0 800 800" enable-background="new 0 0 800 800" xml:space="preserve">
<g>
	<path fill="#FFFFFF" d="M614.8,127.9c-5,0-9.9,0.6-14.7,1.8c-1.6,0.4-2.8,1.7-3,3.3c-0.3,1.6,0.5,3.2,1.8,4.1
		c15.5,9.8,24.7,26.5,24.7,44.8c0,24.4-16.5,45.6-40.2,51.4c-1.6,0.4-2.8,1.7-3,3.3c-0.3,1.6,0.5,3.2,1.8,4.1
		c9.7,6.1,21,9.4,32.6,9.4c33.7,0,61.1-27.4,61.1-61.1C675.9,155.3,648.5,127.9,614.8,127.9z"/>
	<g>
		<path fill="#FFFFFF" d="M182.1,279.2l-12.6-1.4l-8-9.8c-0.6-0.7-1.5-1.1-2.5-1c-0.9,0.1-1.7,0.7-2.1,1.6l-5.2,11.5l-11.8,4.5
			c-0.9,0.3-1.5,1.1-1.7,2c-0.2,0.9,0.1,1.9,0.8,2.5l9.4,8.5l0.7,12.6c0.1,0.9,0.6,1.8,1.4,2.2c0.4,0.2,0.9,0.3,1.3,0.3
			c0.5,0,0.9-0.1,1.3-0.4l11-6.3l12.2,3.3c0.9,0.2,1.9,0,2.6-0.6c0.7-0.6,1-1.6,0.8-2.5l-2.6-12.4l6.9-10.6c0.5-0.8,0.6-1.8,0.2-2.6
			C183.8,279.9,183,279.3,182.1,279.2z"/>
		<g>
			<path fill="#FFFFFF" d="M255.7,201c-0.4-0.9-1.2-1.4-2.2-1.5l-12.6-1.4l-8-9.8c-0.6-0.7-1.5-1.1-2.5-1c-0.9,0.1-1.7,0.7-2.1,1.6
				l-5.2,11.5l-11.8,4.5c-0.9,0.3-1.5,1.1-1.7,2c-0.2,0.9,0.1,1.9,0.8,2.5l9.4,8.5l0.7,12.6c0.1,0.9,0.6,1.8,1.4,2.2
				c0.4,0.2,0.9,0.3,1.3,0.3c0.5,0,0.9-0.1,1.3-0.4l11-6.3l12.2,3.3c0.9,0.2,1.9,0,2.6-0.6c0.7-0.6,1-1.6,0.8-2.5l-2.6-12.4
				l6.9-10.6C256.1,202.9,256.1,201.9,255.7,201z"/>
			<path fill="#FFFFFF" d="M110.6,199.5L98,198.1l-8-9.8c-0.6-0.7-1.5-1.1-2.5-1c-0.9,0.1-1.7,0.7-2.1,1.6l-5.2,11.5L68.5,205
				c-0.9,0.3-1.5,1.1-1.7,2c-0.2,0.9,0.1,1.9,0.8,2.5L77,218l0.7,12.6c0.1,0.9,0.6,1.8,1.4,2.2c0.4,0.2,0.9,0.3,1.3,0.3
				c0.5,0,0.9-0.1,1.3-0.4l11-6.3l12.2,3.3c0.9,0.2,1.9,0,2.6-0.6c0.7-0.6,1-1.6,0.8-2.5l-2.6-12.4l6.9-10.6
				c0.5-0.8,0.6-1.8,0.2-2.6C112.4,200.2,111.5,199.6,110.6,199.5z"/>
		</g>
	</g>
	<path fill="#FFFFFF" d="M783.7,639.5h-66.1L414.5,213.4l45.3-68.7c3.3-5,1.9-11.7-3.1-15c-5-3.3-11.7-1.9-15,3.1L400,195.9
		l-41.6-63.2c-3.3-5-10-6.4-15-3.1c-5,3.3-6.4,10-3.1,15l45.3,68.7L82.4,639.5H16.3c-9,0-16.3,7.3-16.3,16.3c0,9,7.3,16.3,16.3,16.3
		h767.4c9,0,16.3-7.3,16.3-16.3C800,646.8,792.7,639.5,783.7,639.5z M400,426.4l84.4,213.1H315.6L400,426.4z"/>
</g>
</svg>
