<?xml version="1.0" encoding="utf-8"?>
<!-- Generator: Adobe Illustrator 17.1.0, SVG Export Plug-In . SVG Version: 6.00 Build 0)  -->
<!DOCTYPE svg PUBLIC "-//W3C//DTD SVG 1.1//EN" "http://www.w3.org/Graphics/SVG/1.1/DTD/svg11.dtd">
<svg version="1.1" id="Capa_1" xmlns="http://www.w3.org/2000/svg" xmlns:xlink="http://www.w3.org/1999/xlink" x="0px" y="0px"
	 viewBox="0 0 494.5 494.5" enable-background="new 0 0 494.5 494.5" xml:space="preserve">
<g>
	<path fill="#FFFFFF" d="M0,21.5V473h34v-83h11.5v82.5l141.1-30.9V98.8L45.5,68v53.4H34v-66h426.5v66h-12.5V68L306.8,98.8v342.8
		l141.1,30.9V390h12.5v83h34V21.5H0z M163,248c5,0,9.1,4.8,9.1,10.7c0,5.9-4.1,10.7-9.1,10.7s-9.1-4.8-9.1-10.7S157.9,248,163,248z
		 M45.5,168.5V343H34V168.5L45.5,168.5L45.5,168.5z M330.5,269.4c-5,0-9.1-4.8-9.1-10.7c0-5.9,4.1-10.7,9.1-10.7s9.1,4.8,9.1,10.7
		C339.6,264.7,335.5,269.4,330.5,269.4z M460.5,343h-12.5V168.5h12.5V343z"/>
</g>
</svg>
