<?xml version="1.0" encoding="utf-8"?>
<!-- Generator: Adobe Illustrator 17.1.0, SVG Export Plug-In . SVG Version: 6.00 Build 0)  -->
<!DOCTYPE svg PUBLIC "-//W3C//DTD SVG 1.1//EN" "http://www.w3.org/Graphics/SVG/1.1/DTD/svg11.dtd">
<svg version="1.1" id="Layer_1" xmlns="http://www.w3.org/2000/svg" xmlns:xlink="http://www.w3.org/1999/xlink" x="0px" y="0px"
	 viewBox="0 0 512 512" enable-background="new 0 0 512 512" xml:space="preserve">
<g>
	<path fill="#FFFFFF" d="M264.6,277.2c-10.8,0-21.7-1.2-32.2-3.7L105.9,244v221.8c0,21.6,56.5,39.2,126.3,39.2
		c69.8,0,126.3-17.5,126.3-39.2V253.2l-48.2,16.4C295.6,274.6,280.2,277.2,264.6,277.2z"/>
	<path fill="#FFFFFF" d="M411.1,193.2c-0.2-4.1-3.1-7.6-7.1-8.5l-78.8-18.3l11.9-31.3l36.9-96.9c4.6-12.1-1.5-25.5-13.5-30.1
		c-5.8-2.2-12.2-2-17.9,0.5c-5.6,2.5-10.1,7.2-12.3,13l-39.1,102.9l-11.9,31.3l-54.6-12.7c-8.1-1.9-16.4-2.8-24.7-2.8
		c-11.9,0-23.8,1.9-35.1,5.8L59.6,181.6c-3.9,1.3-6.5,5.1-6.3,9.2c0.2,4.1,3.1,7.6,7.1,8.5l179.4,41.7c8.1,1.9,16.4,2.8,24.7,2.8
		c11.9,0,23.7-1.9,35.1-5.8l105.2-35.7C408.7,201.1,411.3,197.3,411.1,193.2z M232.2,212.7c-51.1,0-92.6-9.3-92.6-20.7
		c0-11.4,41.5-20.7,92.6-20.7c14.4,0,28.1,0.7,40.3,2.1l-14.7,38.6C249.7,212.5,241.1,212.7,232.2,212.7z M311.3,202.8l7-18.4
		c4.2,2.4,6.5,4.9,6.5,7.7C324.8,196,319.9,199.7,311.3,202.8z"/>
</g>
</svg>
