<?xml version="1.0" encoding="utf-8"?>
<!-- Generator: Adobe Illustrator 17.1.0, SVG Export Plug-In . SVG Version: 6.00 Build 0)  -->
<!DOCTYPE svg PUBLIC "-//W3C//DTD SVG 1.1//EN" "http://www.w3.org/Graphics/SVG/1.1/DTD/svg11.dtd">
<svg version="1.1" id="Capa_1" xmlns="http://www.w3.org/2000/svg" xmlns:xlink="http://www.w3.org/1999/xlink" x="0px" y="0px"
	 viewBox="0 0 800 800" enable-background="new 0 0 800 800" xml:space="preserve">
<g>
	<path fill="#FFFFFF" d="M319.1,535.7c-54.8,0-99.5,44.6-99.5,99.4c0,54.8,44.6,99.4,99.5,99.4c54.8,0,99.4-44.6,99.4-99.4
		C418.5,580.3,373.9,535.7,319.1,535.7z M319.1,665.1c-16.6,0-30-13.4-30-30c0-16.6,13.4-30,30-30c16.5,0,30,13.4,30,30
		C349.1,651.7,335.6,665.1,319.1,665.1z"/>
	<path fill="#FFFFFF" d="M771.2,468.4c-15.9,0-28.8,12.9-28.8,28.8v56.4c0,4.6-3.8,8.4-8.4,8.4h-96V269.8
		c0-112.9-91.5-204.3-204.3-204.3H204.3C91.5,65.4,0,156.9,0,269.8v280.9c0,38.1,30.9,68.9,68.9,68.9h98.5
		c7.8-76.8,72.9-136.9,151.7-136.9c78.8,0,143.8,60.1,151.6,136.9h263.4c36.4,0,65.9-29.6,65.9-66v-56.4
		C800,481.3,787.1,468.4,771.2,468.4z M125.3,269.3c0-51.7,41.9-93.6,93.5-93.6h73.7v187.1h-73.7C167.2,362.9,125.3,321,125.3,269.3
		z M419.2,362.9h-73.7V175.8h73.7c51.7,0,93.6,41.9,93.6,93.6C512.8,321,470.9,362.9,419.2,362.9z"/>
</g>
</svg>
