<?xml version="1.0" encoding="utf-8"?>
<!-- Generator: Adobe Illustrator 17.1.0, SVG Export Plug-In . SVG Version: 6.00 Build 0)  -->
<!DOCTYPE svg PUBLIC "-//W3C//DTD SVG 1.1//EN" "http://www.w3.org/Graphics/SVG/1.1/DTD/svg11.dtd">
<svg version="1.1" id="Capa_1" xmlns="http://www.w3.org/2000/svg" xmlns:xlink="http://www.w3.org/1999/xlink" x="0px" y="0px"
	 viewBox="0 0 364.9 364.9" enable-background="new 0 0 364.9 364.9" xml:space="preserve">
<g>
	<path fill="#FFFFFF" d="M33.5,125c2.4,7.6,10.3,12.7,18.3,11.5l15.1-2.2L54,278.6c-0.4,4.2,0.9,8.2,3.7,11.3c2.7,3.1,6.7,5,11,5.1
		c20.5,0.8,68.7,7.7,73.6,55.2c0.8,8.2,7.8,14.6,16,14.6h48.6c8.2,0,15.1-6.3,16-14.6c4.9-47.6,53.1-54.5,73.6-55.3
		c4.3-0.2,8.3-2,11-5.1c2.7-3.1,4-7.1,3.7-11.3l-12.9-144.3l15,2.2c0.8,0.1,1.5,0.2,2.3,0.2c7.3,0,13.9-4.8,16-11.7l22-70.8
		c2.5-8.1-2-16.9-9.9-19.6L245.2,0.8c-1.6-0.6-3.3-0.8-4.9-0.8c-6.8,0-12.6,4.6-14.4,11.4c-6.5,25.4-26.6,30.8-38,31.7
		c-3,0.3-7.9,0.3-10.9,0c-11.4-1-31.6-6.4-38-31.7C137.2,4.6,131.4,0,124.6,0c-1.7,0-3.3,0.3-4.9,0.8L21.4,34.5
		c-8,2.7-12.4,11.5-9.9,19.6L33.5,125z M121.9,19.8c10.8,34.6,40.8,40.9,53.5,42c3.9,0.3,10.2,0.3,14,0c12.7-1.1,42.7-7.3,53.5-42
		l91.7,31.5l-20.6,66.4l-18.9-2.8c-5.1-0.7-9.5,0.9-12.7,4.3c-2.7,2.9-4,6.9-3.6,11l13,146.1c-22.8,1.5-80.2,11.2-87.6,69.7h-43.8
		c-7.4-58.5-64.8-68.2-87.6-69.7l13-146.1c0.4-4.2-0.9-8.1-3.6-11c-3.1-3.4-7.6-5.1-12.7-4.3l-18.8,2.8L30.2,51.3L121.9,19.8z"/>
	<path fill="#FFFFFF" d="M129.7,160.3c0,25.3,23.6,45.9,52.8,45.9c29.2,0,52.8-20.5,52.8-45.9c0-6.5-1.6-12.8-4.4-18.4
		c4.8-4.3,7.8-10.6,7.8-17.5c0-13-10.6-23.6-23.6-23.6c-9.9,0-18.3,6.1-21.8,14.6c-3.5-0.6-7.1-1-10.8-1c-3.7,0-7.4,0.3-10.9,1
		c-3.5-8.6-12-14.7-21.8-14.7c-13,0-23.6,10.6-23.6,23.6c0,7,3.1,13.3,8,17.6C131.3,147.6,129.7,153.8,129.7,160.3z"/>
</g>
</svg>
