<?xml version="1.0" encoding="utf-8"?>
<!-- Generator: Adobe Illustrator 17.1.0, SVG Export Plug-In . SVG Version: 6.00 Build 0)  -->
<!DOCTYPE svg PUBLIC "-//W3C//DTD SVG 1.1//EN" "http://www.w3.org/Graphics/SVG/1.1/DTD/svg11.dtd">
<svg version="1.1" id="Capa_1" xmlns="http://www.w3.org/2000/svg" xmlns:xlink="http://www.w3.org/1999/xlink" x="0px" y="0px"
	 viewBox="0 0 442.4 442.4" enable-background="new 0 0 442.4 442.4" xml:space="preserve">
<g>
	<g>
		<path fill="#FFFFFF" d="M404.7,50.7L354.9,0.9c-1.2-1.2-3.1-1.2-4.2,0L158.7,192.8c-3.3,0.4-6.5,1.9-9,4.4L89.9,257
			c-6.1,6.1-6.1,15.9,0,21.9l3.7,3.7c11-2.2,25.3-10.8,29.1-14.6l38-37.9l56.8,56.8l16.2,38.5L220,339c3.1,12.4-0.4,24.9-10.4,35.6
			c-1.3,1.4-3,3.2-5,5.2l0,0c-2.3,2.3-4.6,4.4-7,6.6c6.1,4.6,14.7,4.1,20.2-1.4l45.1-45.1c4.5-4.5,5.8-11.2,3.3-17l-14.5-34.5
			l29.2-12.3c0.4-0.2,0.7-0.4,1-0.6c0.5-0.5,0.8-1.1,0.9-1.8l4.6-42.6l33-13.9c1-0.4,1.7-1.4,1.8-2.4l4.6-42.6l33-13.9
			c1-0.4,1.7-1.4,1.8-2.4l4.6-42.6l33-13.9c1-0.4,1.7-1.4,1.8-2.5l4.5-43.9C405.7,52.3,405.4,51.4,404.7,50.7z"/>
		<path fill="#FFFFFF" d="M199.4,375.6c1.9-1.9,3.5-3.6,4.7-4.9c6.9-7.4,16.2-22.3,4.2-41.1c2-6.5,1.8-12.6-0.7-18.2
			c-1.2-2.6-2.9-5-5-7.1c-1.7-1.7-3.5-3-5.2-4.1c0.6-5.6-0.4-10.8-3.1-15.2c-0.9-1.6-2.1-3.1-3.6-4.6c-3.5-3.6-6.9-5.5-9.8-6.5
			c-0.2-5.2-1.8-12.2-7.7-18c-4.5-4.4-16.7-13.1-31,2.8c0,0-24.9,29.7-53.2,31.3c-5,0.3-8.9,2.8-9.8,11.2c-1,8.7-0.4,35.1-7.4,46.8
			c-4.8,8-22.9,26.7-26.3,30.1c-1.9,1.9-8.6,7.7-8.6,7.7l56.8,56.8l4.7-4.7c15.1-15.1,29.5-20.7,42.2-25.7c2.4-0.9,4.8-1.8,7-2.8
			C168.5,400.5,185.4,389.5,199.4,375.6C199.4,375.6,199.4,375.6,199.4,375.6z"/>
	</g>
</g>
</svg>
