<?xml version="1.0" encoding="utf-8"?>
<!-- Generator: Adobe Illustrator 17.1.0, SVG Export Plug-In . SVG Version: 6.00 Build 0)  -->
<!DOCTYPE svg PUBLIC "-//W3C//DTD SVG 1.1//EN" "http://www.w3.org/Graphics/SVG/1.1/DTD/svg11.dtd">
<svg version="1.1" id="Capa_1" xmlns="http://www.w3.org/2000/svg" xmlns:xlink="http://www.w3.org/1999/xlink" x="0px" y="0px"
	 viewBox="0 0 800 800" enable-background="new 0 0 800 800" xml:space="preserve">
<g>
	<g>
		<path fill="#FFFFFF" d="M588.6,281.3V165.9h-58.2v281.2c-53.4,30.1-111.3-4.2-111.3-4.2S398.6,97.2,243.9,97.2
			c-154.6,0-163.2,0-163.2,0v317.9c-23.9,0-43.8,0-55.8,0c-55.8,0,0,197.6,0,197.6h34.6c2.4-49.1,43-88.4,92.7-88.4
			c49.7,0,90.3,39.2,92.7,88.4h113c0-0.4,0-0.9,0-1.3c0-54.5,44.3-98.8,98.8-98.8s98.8,44.3,98.8,98.8c0,6.3-0.6,12.5-1.8,18.5h35
			V329.2H800v-21.5L588.6,281.3z M295.5,453.8l-51.6-90.2H132.2V148.8h111.7c46.1,0,71.6,64.2,84.9,118.1
			c8.5,34.4,34.5,159.6,36.9,186.9L295.5,453.8L295.5,453.8z"/>
		<polygon fill="#FFFFFF" points="170.9,243.2 145.1,243.2 145.1,337.8 239.6,337.8 239.6,312 170.9,312 		"/>
		<path fill="#FFFFFF" d="M457,524.1c-47.4,0-85.8,38.4-85.8,85.7s38.4,85.8,85.8,85.8c47.4,0,85.7-38.4,85.7-85.8
			S504.4,524.1,457,524.1z M457,659.5c-27.4,0-49.7-22.3-49.7-49.7c0-27.4,22.3-49.6,49.7-49.6c27.4,0,49.6,22.3,49.6,49.6
			C506.7,637.2,484.4,659.5,457,659.5z"/>
		<path fill="#FFFFFF" d="M149.7,539.9c-45,0-81.5,36.5-81.5,81.5c0,45,36.5,81.5,81.5,81.5c45,0,81.5-36.5,81.5-81.5
			C231.1,576.3,194.7,539.9,149.7,539.9z M149.7,668.5c-26,0-47.2-21.1-47.2-47.2c0-26,21.2-47.2,47.2-47.2
			c26,0,47.2,21.2,47.2,47.2C196.9,647.3,175.7,668.5,149.7,668.5z"/>
	</g>
</g>
</svg>
