<?xml version="1.0" encoding="utf-8"?>
<!-- Generator: Adobe Illustrator 17.1.0, SVG Export Plug-In . SVG Version: 6.00 Build 0)  -->
<!DOCTYPE svg PUBLIC "-//W3C//DTD SVG 1.1//EN" "http://www.w3.org/Graphics/SVG/1.1/DTD/svg11.dtd">
<svg version="1.1" id="Capa_1" xmlns="http://www.w3.org/2000/svg" xmlns:xlink="http://www.w3.org/1999/xlink" x="0px" y="0px"
	 viewBox="0 0 490.2 490.2" enable-background="new 0 0 490.2 490.2" xml:space="preserve">
<g>
	<path fill="#FFFFFF" d="M298,78.9h-73V66.4h9.2V47.7c0.4,0.1,0.9,0.2,1.3,0.2c3.7,0,6.8-4.9,6.8-10.9c0-6-3-10.9-6.8-10.9
		c-0.5,0-0.9,0.1-1.3,0.2V17h54.6v49.5h9.2L298,78.9C298,78.9,298,78.9,298,78.9z M352.5,135.3v327.2c0,15.3-12.4,27.7-27.7,27.7
		H204.2c-15.3,0-27.7-12.4-27.7-27.7V135.3c0-8.7,4.1-16.5,10.4-21.6c-2.1-2.1-3.4-4.9-3.4-8.1c0-6.3,5.1-11.4,11.4-11.4h139.4
		c6.3,0,11.4,5.1,11.4,11.4c0,3.2-1.3,6.1-3.4,8.1C348.5,118.7,352.5,126.5,352.5,135.3z M233.2,98.1h-28.6c-6.7,0-6.7,10.4,0,10.4
		h28.6C239.9,108.5,239.9,98.1,233.2,98.1z M336.3,302.6c0-6.7-10.4-6.7-10.4,0v142.1c0,6.7,10.4,6.7,10.4,0V302.6z M144.9,50
		l-6,0.8c-0.8,0.1-1.3,0.8-1.2,1.6l0.4,3c0,0.4,0.2,0.7,0.5,0.9c0.2,0.2,0.5,0.3,0.8,0.3c0.1,0,0.1,0,0.2,0l6-0.8
		c0.8-0.1,1.3-0.8,1.2-1.6l-0.4-3C146.4,50.5,145.7,49.9,144.9,50z M206.3,32c0.2,0.1,0.4,0.1,0.5,0.1s0.4,0,0.5-0.1
		c0.3-0.1,0.6-0.4,0.8-0.7l1.2-2.8c0.3-0.7,0-1.5-0.7-1.8l-9.6-4c-0.7-0.3-1.5,0-1.8,0.7l-1.2,2.8c-0.1,0.3-0.1,0.7,0,1.1
		c0.1,0.3,0.4,0.6,0.7,0.8L206.3,32z M187.2,24c0.2,0.1,0.4,0.1,0.5,0.1c0.5,0,1.1-0.3,1.3-0.8l1.2-2.8c0.1-0.3,0.1-0.7,0-1.1
		c-0.1-0.3-0.4-0.6-0.7-0.8l-9.6-4c-0.7-0.3-1.5,0-1.8,0.7l-1.2,2.8c-0.1,0.3-0.1,0.7,0,1.1c0.1,0.3,0.4,0.6,0.7,0.8L187.2,24z
		 M155.8,54.4c0.1,0,0.1,0,0.2,0l10.3-1.4c0.8-0.1,1.3-0.8,1.2-1.6l-0.4-3c-0.1-0.4-0.2-0.7-0.5-0.9c-0.3-0.2-0.7-0.3-1-0.3
		l-10.3,1.4c-0.4,0.1-0.7,0.2-0.9,0.5c-0.2,0.3-0.3,0.7-0.3,1l0.4,3C154.5,53.9,155.1,54.4,155.8,54.4z M168,15.9
		c0.2,0.1,0.3,0.1,0.5,0.1c0.2,0,0.4,0,0.5-0.1c0.3-0.1,0.6-0.4,0.8-0.8l1.2-2.8c0.3-0.7,0-1.5-0.7-1.8l-9.6-4
		c-0.3-0.1-0.7-0.1-1.1,0c-0.3,0.1-0.6,0.4-0.8,0.8l-1.2,2.8c-0.3,0.7,0,1.5,0.7,1.8L168,15.9z M216.3,52.8c0.2,0.3,0.5,0.5,0.9,0.6
		c0.1,0,0.2,0,0.3,0c0.3,0,0.5-0.1,0.7-0.2l5.1-3.3c0.6-0.4,0.8-1.3,0.4-1.9l-1.6-2.6c0-0.1-0.1-0.1-0.2-0.2l1.9-0.2
		c0.8-0.1,1.3-0.8,1.2-1.6l-0.4-3c-0.1-0.8-0.8-1.3-1.6-1.2l-6,0.8c-0.4,0-0.7,0.2-0.9,0.5c-0.2,0.3-0.3,0.7-0.3,1l0.4,3
		c0.1,0.7,0.7,1.2,1.4,1.2c0.1,0,0.1,0,0.2,0l1.4-0.2l-4.1,2.6c-0.6,0.4-0.8,1.3-0.4,1.9L216.3,52.8z M221.5,38.4
		c0.2,0.1,0.4,0.1,0.5,0.1c0.5,0,1.1-0.3,1.3-0.8l1.2-2.8c0.1-0.3,0.1-0.7,0-1.1c-0.1-0.3-0.4-0.6-0.7-0.8l-5.6-2.4
		c-0.3-0.1-0.7-0.1-1.1,0c-0.3,0.1-0.6,0.4-0.8,0.7l-1.2,2.8c-0.3,0.7,0,1.5,0.7,1.8L221.5,38.4z M148.9,7.8
		c0.2,0.1,0.4,0.1,0.5,0.1c0.2,0,0.4,0,0.5-0.1c0.3-0.1,0.6-0.4,0.8-0.7l1.2-2.8c0.3-0.7,0-1.5-0.7-1.8l-5.6-2.4
		c-0.7-0.3-1.5,0-1.8,0.7l-1.2,2.8c-0.1,0.3-0.1,0.7,0,1.1c0.1,0.3,0.4,0.6,0.7,0.8L148.9,7.8z M197,48.7c0.1,0,0.1,0,0.2,0
		l10.3-1.4c0.4,0,0.7-0.2,0.9-0.5c0.2-0.3,0.3-0.7,0.3-1l-0.4-3c-0.1-0.4-0.3-0.7-0.5-0.9c-0.3-0.2-0.7-0.3-1-0.3L196.4,43
		c-0.4,0-0.7,0.2-0.9,0.5c-0.2,0.3-0.3,0.7-0.3,1l0.4,3C195.7,48.2,196.3,48.7,197,48.7z M206.3,53.9l-8.8,5.6
		c-0.3,0.2-0.5,0.5-0.6,0.9c-0.1,0.4,0,0.7,0.2,1l1.6,2.6c0.3,0.4,0.7,0.6,1.2,0.6c0.3,0,0.5-0.1,0.7-0.2l8.8-5.6
		c0.6-0.4,0.8-1.3,0.4-1.9l-1.6-2.6C207.8,53.7,206.9,53.5,206.3,53.9z M155.6,87.9c-0.4-0.6-1.3-0.8-1.9-0.4l-5.1,3.3
		c-0.3,0.2-0.5,0.5-0.6,0.9c-0.1,0.4,0,0.7,0.2,1l1.6,2.6c0.2,0.3,0.5,0.5,0.9,0.6c0.1,0,0.2,0,0.3,0c0.3,0,0.5-0.1,0.7-0.2l5.1-3.3
		c0.3-0.2,0.5-0.5,0.6-0.9c0.1-0.4,0-0.7-0.2-1L155.6,87.9z M186.9,50.1c0.8-0.1,1.3-0.8,1.2-1.6l-0.4-3c-0.1-0.4-0.2-0.7-0.5-0.9
		c-0.3-0.2-0.7-0.3-1-0.3l-10.3,1.4c-0.4,0-0.7,0.2-0.9,0.5c-0.2,0.3-0.3,0.7-0.3,1l0.4,3c0.1,0.7,0.7,1.2,1.4,1.2
		c0.1,0,0.1,0,0.2,0L186.9,50.1z M173.2,76.7c-0.2-0.3-0.5-0.5-0.9-0.6c-0.4-0.1-0.7,0-1.1,0.2l-8.8,5.6c-0.6,0.4-0.8,1.3-0.4,1.9
		l1.6,2.6c0.2,0.3,0.5,0.5,0.9,0.6c0.1,0,0.2,0,0.3,0c0.3,0,0.5-0.1,0.7-0.2l8.8-5.6c0.6-0.4,0.8-1.3,0.4-1.9L173.2,76.7z
		 M188.8,65.1l-8.8,5.6c-0.6,0.4-0.8,1.3-0.4,1.9l1.6,2.6c0.2,0.3,0.5,0.5,0.9,0.6c0.1,0,0.2,0,0.3,0c0.3,0,0.5-0.1,0.7-0.2l8.8-5.6
		c0.6-0.4,0.8-1.3,0.4-1.9l-1.6-2.6c-0.2-0.3-0.5-0.5-0.9-0.6C189.5,64.8,189.1,64.9,188.8,65.1z"/>
</g>
</svg>
