<?xml version="1.0" encoding="utf-8"?>
<!-- Generator: Adobe Illustrator 17.1.0, SVG Export Plug-In . SVG Version: 6.00 Build 0)  -->
<!DOCTYPE svg PUBLIC "-//W3C//DTD SVG 1.1//EN" "http://www.w3.org/Graphics/SVG/1.1/DTD/svg11.dtd">
<svg version="1.1" id="Capa_1" xmlns="http://www.w3.org/2000/svg" xmlns:xlink="http://www.w3.org/1999/xlink" x="0px" y="0px"
	 viewBox="0 0 800 800" enable-background="new 0 0 800 800" xml:space="preserve">
<path fill="#FFFFFF" d="M795.9,32.8c-3.6-3.1-8.6-3.8-12.9-1.9L6.9,391.5c-4.2,1.9-6.9,6.1-6.9,10.7s2.6,8.8,6.7,10.9l219.6,107.8
	c4,2,8.8,1.5,12.4-1.2l213.5-159.6L284.6,532.5c-2.4,2.5-3.6,5.8-3.3,9.3L298,759.2c0.4,4.8,3.6,8.9,8.2,10.4
	c1.2,0.4,2.5,0.6,3.7,0.6c3.4,0,6.7-1.5,9.1-4.1L435.5,631l144.1,68.9c3.1,1.5,6.7,1.6,9.9,0.2c3.2-1.4,5.6-4.1,6.6-7.4L799.4,45.3
	C800.9,40.8,799.5,35.9,795.9,32.8z"/>
</svg>
