<?xml version="1.0" encoding="utf-8"?>
<!-- Generator: Adobe Illustrator 17.1.0, SVG Export Plug-In . SVG Version: 6.00 Build 0)  -->
<!DOCTYPE svg PUBLIC "-//W3C//DTD SVG 1.1//EN" "http://www.w3.org/Graphics/SVG/1.1/DTD/svg11.dtd">
<svg version="1.1" id="Capa_1" xmlns="http://www.w3.org/2000/svg" xmlns:xlink="http://www.w3.org/1999/xlink" x="0px" y="0px"
	 viewBox="0 0 800 800" enable-background="new 0 0 800 800" xml:space="preserve">
<g>
	<path id="Fax_1_" fill="#FFFFFF" d="M767.3,164.1c-32.7,0-65.3,0-98,0c0-29.4,0-58.8,0-88.2c0-18-14.6-32.7-32.7-32.7
		c-157.8,0-315.6,0-473.5,0c-18,0-32.7,14.6-32.7,32.7c0,29.4,0,58.8,0,88.2c-32.7,0-65.3,0-98,0c-18,0-32.7,14.6-32.7,32.7
		c0,106.7,0,213.3,0,320c0,18,14.6,32.7,32.7,32.7c32.7,0,65.3,0,98,0c0,38.6,0,77.1,0,115.7c0,18.8,0,37.6,0,56.4
		c0,10.9,2.2,19,10.6,26.7c3.9,3.6,8.1,5.9,13.2,7.3c4.7,1.3,9.4,1.2,14.2,1.2c77.1,0,154.2,0,231.4,0s154.2,0,231.4,0
		c4.8,0,9.5,0.1,14.2-1.2c5.1-1.4,9.3-3.8,13.2-7.4c8.4-7.7,10.6-15.8,10.6-26.7c0-18.8,0-37.6,0-56.4c0-38.5,0-77.1,0-115.6
		c32.7,0,65.3,0,98,0c18,0,32.7-14.6,32.7-32.7c0-106.7,0-213.3,0-320C800,178.7,785.4,164.1,767.3,164.1z M81.6,279.2
		c-15.8,0-28.6-12.8-28.6-28.6S65.9,222,81.6,222s28.6,12.8,28.6,28.6S97.4,279.2,81.6,279.2z M636.7,724.1H163.3v-258h473.5V724.1
		L636.7,724.1z M636.7,164.1c-157.8,0-315.6,0-473.5,0c0-18.5,0-37,0-55.5c0-18,14.6-32.7,32.7-32.7c136.1,0,272.1,0,408.2,0
		c18,0,32.7,14.6,32.7,32.7C636.7,127.1,636.7,145.6,636.7,164.1z"/>
</g>
</svg>
