<?xml version="1.0" encoding="utf-8"?>
<!-- Generator: Adobe Illustrator 17.1.0, SVG Export Plug-In . SVG Version: 6.00 Build 0)  -->
<!DOCTYPE svg PUBLIC "-//W3C//DTD SVG 1.1//EN" "http://www.w3.org/Graphics/SVG/1.1/DTD/svg11.dtd">
<svg version="1.1" id="Capa_1" xmlns="http://www.w3.org/2000/svg" xmlns:xlink="http://www.w3.org/1999/xlink" x="0px" y="0px"
	 viewBox="0 0 380.9 380.9" enable-background="new 0 0 380.9 380.9" xml:space="preserve">
<g>
	<g>
		<path fill="#FFFFFF" d="M39.5,146.7l-5,0v52.1l-5,0v-52l-5.4,0V199h-5v-52.4h-5.7V199h-5v-52.4H4L0.1,191c0,0-0.1,1.7-0.1,2.3
			c0,6.8,3.2,13,8.1,16.9c16.3,18.4,5.2,37.2,5.2,41.7c0,4.9,0,81,0,81c0,0.1,0,0.1,0,0.2c0,4.7,3.8,8.4,8.5,8.4
			c4.7,0,8.4-3.8,8.4-8.4c0-0.1,0-0.1,0-0.2h0c0,0,0-75.1,0-80.9c0-5.2-9.4-26.8,6.3-42.9c0,0,0.1-0.1,0.1-0.1
			c3.8-3.6,6.4-8.7,6.8-14.3c0-0.4,0-1.4,0-1.4L39.5,146.7z"/>
		<path fill="#FFFFFF" d="M305.3,36.8c23.5,0,42.6,19.1,42.6,42.6c0,23.5-19.1,42.6-42.6,42.6c-23.5,0-42.6-19.1-42.6-42.6
			S281.8,36.8,305.3,36.8z"/>
		<path fill="#FFFFFF" d="M166.7,112.5c-64,0-115.8,51.8-115.8,115.8c0,64,51.9,115.8,115.8,115.8c64,0,115.8-51.8,115.8-115.8
			C282.5,164.3,230.7,112.5,166.7,112.5z M165.4,302.5c-40.2,0-72.7-32.5-72.7-72.7c0-40.1,32.5-72.7,72.7-72.7
			c40.2,0,72.7,32.6,72.7,72.7C238.1,270,205.6,302.5,165.4,302.5z"/>
		<path fill="#FFFFFF" d="M316.1,137.3l-4,0c0,0-21.2,12.7-21.2,106.7c17.2,4.7,10,23.6,8.7,26c0,4.8,0.4,53.9,0.4,53.9l0,0
			c0,0.1,0,0.1,0,0.2c0,4.5,3.7,8.2,8.1,8.1c4.5,0,8.2-3.7,8.1-8.2c0,0,0-0.1,0-0.1l0,0c0,0,0-55.4,0-60.9
			C316.3,257.9,316.1,137.3,316.1,137.3z"/>
		<path fill="#FFFFFF" d="M380.9,173.4c0-18.7-10.1-35.9-28.1-36.2v0c-0.1,0-0.4,0-0.4,0c0,0,0,0,0,0c-18,0.3-28.1,17.5-28.1,36.2
			c0,18.8,11.3,32.3,21.2,35.3c5.4,7.6,1.8,25.5-2,35.9c0,4.9,0,80.7,0,80.7h0c0,0,0,0.1,0,0.2c0,4.6,3.7,8.4,8.4,8.4
			c0.3,0,1.1,0,1.4,0c4.6,0,8.4-3.8,8.4-8.4c0,0,0-0.1,0-0.2h0c0,0,0-75.8,0-80.7c-3.8-10.3-7.4-28.3-2-35.8
			C369.5,205.7,380.9,192.3,380.9,173.4z M343.4,201.4c-1.1-0.9-2.5-2.2-4-4.1c-1.5-1.8-3.1-4.1-4.6-6.7c-0.7-1.3-1.4-2.7-2-4.2
			c-0.6-1.5-1.1-3-1.4-4.8c-0.6-3.4-0.5-6.6-0.2-9.5c0.3-3,1-5.7,1.7-7.9c0.7-2.2,1.5-4.1,2.1-5.3c0.6-1.3,1.1-1.9,1.1-1.9
			s-0.1,0.8-0.2,2.1c0,1.3-0.1,3.2-0.2,5.5c0,4.5-0.4,10.6,0.4,16c0.2,1.3,0.6,2.7,1,4c0.4,1.4,0.9,2.7,1.4,4c1,2.6,2.1,5,3,7
			c1,2,1.8,3.7,2.4,4.9c0.6,1.2,1.2,1.7,1.3,1.6C345.3,202.5,344.5,202.3,343.4,201.4z"/>
		<path fill="#FFFFFF" d="M103.9,86.8c0,0,0.1,0,0.1,0l0,0c0,0,50.5,0,54.5,0c8.5-3.1,23.1-6,29.3-1.6c2.5,8.1,13.4,17.3,28.8,17.3
			c15.3,0,25.5-8.3,25.8-23h0c0-0.1,0-0.3,0-0.4h0c-0.3-14.7-10.5-23-25.8-23c-15.4,0-26.4,9.3-28.8,17.4
			c-6.2,4.4-20.8,1.5-29.3-1.6c-4,0-54.5,0-54.5,0l0,0c-0.1,0-0.1,0-0.1,0c-3.8,0-6.9,3.1-6.9,6.9c0,0.2,0,0.9,0,1.1
			C97,83.8,100.1,86.8,103.9,86.8z M196.6,75.4c0.3-1.3,0.7-2.4,1-3c0.4-0.8,0.7-1.3,0.7-1.3c0.1-0.2,0.4-0.3,0.7-0.2
			c0.3,0.1,0.4,0.4,0.4,0.6c0,0-0.2,0.7-0.3,1.3c-0.2,0.7-0.2,1.6-0.2,2.8c0,1.1,0,2.4,0.2,3.9c0,0.7,0.1,1.4,0.3,2.1
			c0.1,0.6,0.3,1.4,0.5,1.9c1.2,2.6,3.1,5,4.4,6.7c0.3,0.3,0.5,0.7,0.8,1c0.3,0.4,0.7,0.8,1,1.1c0.4,0.4,0.7,0.7,0.7,0.7
			c0.2,0.1,0.3,0.4,0.2,0.6s-0.3,0.3-0.6,0.3c0,0-0.4-0.1-0.9-0.3c-0.1,0-0.2-0.1-0.4-0.2l-0.2-0.1c-0.6-0.4-1.5-0.9-2.3-1.6
			c-2.7-2.2-4.5-4.5-5.7-7c-0.3-0.9-0.5-1.6-0.7-2.5c-0.1-0.8-0.1-1.6-0.1-2.4C196.1,78,196.3,76.5,196.6,75.4z"/>
	</g>
</g>
</svg>
