<?xml version="1.0" encoding="utf-8"?>
<!-- Generator: Adobe Illustrator 17.1.0, SVG Export Plug-In . SVG Version: 6.00 Build 0)  -->
<!DOCTYPE svg PUBLIC "-//W3C//DTD SVG 1.1//EN" "http://www.w3.org/Graphics/SVG/1.1/DTD/svg11.dtd">
<svg version="1.1" id="Capa_1" xmlns="http://www.w3.org/2000/svg" xmlns:xlink="http://www.w3.org/1999/xlink" x="0px" y="0px"
	 viewBox="0 0 60.5 60.5" enable-background="new 0 0 60.5 60.5" xml:space="preserve">
<g>
	<polygon fill="#FFFFFF" points="15.3,12.4 45.3,12.4 43.9,10.2 17.2,10.2 	"/>
	<path fill="#FFFFFF" d="M52.5,16.9h-7.1v-3.3H14.8v3.3H8c-2.3,0-4.2,1.9-4.2,4.2v25.2c0,0-0.9,0-1.9,0S0,47.2,0,48.3v2h60.5
		c0,0,0-0.9,0-2s-0.9-2-1.9-2h-1.9V21.1C56.7,18.8,54.8,16.9,52.5,16.9z M48.1,20.1h4.2v4.2h-4.2V20.1z M48.1,27.2h4.2v4.2h-4.2
		V27.2z M48.1,34.3h4.2v4.2h-4.2V34.3z M43.4,20.1h4.2v4.2h-4.2V20.1z M43.4,27.2h4.2v4.2h-4.2V27.2z M43.4,34.3h4.2v4.2h-4.2V34.3z
		 M32.9,20.1h4.2v4.2h-4.2V20.1z M32.9,27.2h4.2v4.2h-4.2V27.2z M32.9,34.3h4.2v4.2h-4.2V34.3z M28,20.1h4.2v4.2H28
		C28,24.3,28,20.1,28,20.1z M28,27.2h4.2v4.2H28C28,31.4,28,27.2,28,27.2z M28,34.3h4.2v4.2H28C28,38.5,28,34.3,28,34.3z M23.1,20.1
		h4.2v4.2h-4.2V20.1z M23.1,27.2h4.2v4.2h-4.2V27.2z M23.1,34.3h4.2v4.2h-4.2V34.3z M13,20.1h4.2v4.2H13C13,24.3,13,20.1,13,20.1z
		 M13,27.2h4.2v4.2H13C13,31.4,13,27.2,13,27.2z M13,34.3h4.2v4.2H13C13,38.5,13,34.3,13,34.3z M8.3,20.1h4.2v4.2H8.3V20.1z
		 M8.3,27.2h4.2v4.2H8.3V27.2z M8.3,34.3h4.2v4.2H8.3V34.3z"/>
</g>
</svg>
