<?xml version="1.0" encoding="utf-8"?>
<!-- Generator: Adobe Illustrator 17.1.0, SVG Export Plug-In . SVG Version: 6.00 Build 0)  -->
<!DOCTYPE svg PUBLIC "-//W3C//DTD SVG 1.1//EN" "http://www.w3.org/Graphics/SVG/1.1/DTD/svg11.dtd">
<svg version="1.1" id="Capa_1" xmlns="http://www.w3.org/2000/svg" xmlns:xlink="http://www.w3.org/1999/xlink" x="0px" y="0px"
	 viewBox="0 0 34.3 34.3" enable-background="new 0 0 34.3 34.3" xml:space="preserve">
<g>
	<path fill="#FFFFFF" d="M18,16.6c0,1.1-0.9,2-2,2s-2-0.9-2-2c0-1.1,0.9-2,2-2S18,15.5,18,16.6z M33.6,0v32h-3.2v2.3h-2.9V32H9.4
		v2.3H6.5V32H3.3v-3.8H0.7v-6.5h2.5V10.4H1V3.9h2.2V0L33.6,0L33.6,0z M23.5,16.7c0-4.1-3.3-7.4-7.4-7.4c-4.1,0-7.4,3.3-7.4,7.4
		s3.3,7.4,7.4,7.4C20.1,24.1,23.5,20.8,23.5,16.7z M29.5,22.9l-1.1-7.2c0.6-0.4,1-1,1-1.8c0-1.2-1-2.1-2.1-2.1c-1.2,0-2.1,1-2.1,2.1
		c0,0.7,0.4,1.4,1,1.8l-1.1,7.2H29.5z M20,15l1.4-0.7c0.3,0.7,0.5,1.6,0.5,2.4c0,1-0.2,1.9-0.6,2.6l-1.4-0.9l-0.4,0.7l1.4,0.9
		c-1,1.4-2.6,2.4-4.4,2.5v-1.7h-0.9v1.7c-2-0.1-3.7-1.3-4.6-2.9l1.5-0.8L12,18.2l-1.5,0.8c-0.3-0.7-0.4-1.5-0.4-2.3
		c0-1,0.3-2,0.7-2.8l1.3,0.8l0.4-0.7l-1.3-0.8c1-1.3,2.5-2.2,4.3-2.4v1.5h0.9v-1.5c1.9,0.1,3.6,1.2,4.6,2.7l-1.4,0.7L20,15z
		 M18.8,16.6c0-1.5-1.2-2.8-2.8-2.8c-1.5,0-2.8,1.2-2.8,2.8c0,1.5,1.2,2.8,2.8,2.8C17.6,19.4,18.8,18.2,18.8,16.6z"/>
</g>
</svg>
