<?xml version="1.0" encoding="utf-8"?>
<!-- Generator: Adobe Illustrator 17.1.0, SVG Export Plug-In . SVG Version: 6.00 Build 0)  -->
<!DOCTYPE svg PUBLIC "-//W3C//DTD SVG 1.1//EN" "http://www.w3.org/Graphics/SVG/1.1/DTD/svg11.dtd">
<svg version="1.1" id="Capa_1" xmlns="http://www.w3.org/2000/svg" xmlns:xlink="http://www.w3.org/1999/xlink" x="0px" y="0px"
	 viewBox="0 0 800 800" enable-background="new 0 0 800 800" xml:space="preserve">
<path fill="#FFFFFF" d="M747.9,512.7H737V368.9c5.8-5.8,11.3-11.8,16.5-17.9c31.6-37.2,48-75.7,46.4-108.4
	c-1.5-28.8-24.2-84.9-46.3-104.9c-26.7-24.2-72.5-38-125.6-38c-42.7,0-87,9.1-124.6,25.7c-60.9,26.8-100.2,62.4-116.8,105.7
	c-14.5,37.8-11.4,80.6,9,127c9.3,21.2,20.6,39.2,33.7,53.9v100.7h-78.4c-7.9,0-10.9-2-12-3.1c-1-1.1-1.2-2.3-1.2-2.8l0-265.5l-0.3-1
	c-3.3-13.1-15.1-22.3-28.6-22.3h-16.2c-11.4,0-20.9-0.1-21.1-0.1h-99.4c-26.9,0-39.6,13.6-50.2,34c-2.3,3.8-31.5,52.4-60.4,102.8
	C0,462.3,0,473.3,0,478v76.3c0,26.8,21.8,48.6,48.6,48.6h72.4c-0.1,1.9-0.2,3.9-0.2,5.9c0,50.4,41,91.5,91.5,91.5
	c50.4,0,91.5-41,91.5-91.5c0-2-0.1-3.9-0.2-5.9h200.5c-0.1,1.9-0.2,3.9-0.2,5.9c0,50.4,41,91.5,91.5,91.5c50.4,0,91.5-41,91.5-91.5
	c0-2-0.1-3.9-0.2-5.9h61.2c20.1,0,35.9-12,35.9-27.4v-35.4C783.8,524.8,768,512.7,747.9,512.7z M212.3,653.6
	c-24.7,0-44.8-20.1-44.8-44.8c0-24.7,20.1-44.8,44.8-44.8c24.7,0,44.8,20.1,44.8,44.8C257.1,633.5,237.1,653.6,212.3,653.6z
	 M286.5,369.2c0,13.1-10.6,23.7-23.7,23.7H112c-5.3,0-9.3-1.5-10.8-4.1c-1.5-2.6-0.9-6.7,1.6-11.3c2.6-4.3,39.9-65.4,50.8-87.8
	c12.2-25,26.8-27,44.6-27h73.2c9,0,15,0,15,40.6V369.2z M595.4,653.6c-24.7,0-44.8-20.1-44.8-44.8c0-24.7,20.1-44.8,44.8-44.8
	c24.7,0,44.8,20.1,44.8,44.8C640.2,633.5,620.1,653.6,595.4,653.6z M463,512.7v-72.2c21.8,13.2,46.9,20,74.7,20
	c30.7,0,65.1-8.3,102.3-24.6c21.7-9.6,43.3-22.5,63.2-37.6v114.4H463z"/>
</svg>
