<?xml version="1.0" encoding="utf-8"?>
<!-- Generator: Adobe Illustrator 17.1.0, SVG Export Plug-In . SVG Version: 6.00 Build 0)  -->
<!DOCTYPE svg PUBLIC "-//W3C//DTD SVG 1.1//EN" "http://www.w3.org/Graphics/SVG/1.1/DTD/svg11.dtd">
<svg version="1.1" id="Capa_1" xmlns="http://www.w3.org/2000/svg" xmlns:xlink="http://www.w3.org/1999/xlink" x="0px" y="0px"
	 viewBox="0 0 800 800" enable-background="new 0 0 800 800" xml:space="preserve">
<path id="XMLID_132_" fill="#FFFFFF" d="M685.5,154.6c-37.9-43.2-97.5-59.2-152-41l-28.9,9.7L516,60.8h5.5
	c16.8,0,30.4-13.6,30.4-30.4c0-16.8-13.6-30.4-30.4-30.4h-243c-16.8,0-30.4,13.6-30.4,30.4c0,16.8,13.6,30.4,30.4,30.4h5.5
	l11.4,62.5l-28.9-9.7c-54.5-18.2-114.2-2.1-152,41c-37.9,43.1-46.1,104.4-21,156.1l45.9,94.2c-10,32.8-15.7,66.2-15.7,98.2
	c0,105.3,58.9,196.7,145.5,243.4c-6.9,5.6-11.5,13.7-11.5,23.2c0,16.8,13.6,30.4,30.4,30.4h223.8c16.8,0,30.4-13.6,30.4-30.4
	c0-9.5-4.7-17.7-11.5-23.2c86.6-46.6,145.5-138.1,145.5-243.4c0-32-5.7-65.4-15.7-98.2l45.9-94.2C731.6,259,723.3,197.7,685.5,154.6
	z M170.6,330L148.2,284c-14.4-29.6-9.7-64.7,12-89.4c21.7-24.7,55.9-33.9,87-23.5l57.9,19.4C249.9,219.3,202.9,270.4,170.6,330z
	 M494.8,190.6l57.9-19.4c31.1-10.5,65.3-1.2,87,23.5c21.7,24.7,26.4,59.8,12,89.4L629.4,330C597.1,270.4,550.1,219.3,494.8,190.6z"
	/>
</svg>
